solid Untitled-567b107a
facet normal 0.0 0.0 -1.0
  outer loop
    vertex 16.2089915549348 89.59000550547329 5.000000241999203e-05
    vertex 2.208991759403761 85.59000169077602 5.000000241999203e-05
    vertex 2.208991759403761 89.59000550547329 5.000000241999203e-05
  endloop
endfacet
facet normal 0.0 0.0 -1.0
  outer loop
    vertex 2.208991759403761 85.59000169077602 5.000000241999203e-05
    vertex 16.2089915549348 89.59000550547329 5.000000241999203e-05
    vertex 12.2089915549348 85.59000169077602 5.000000241999203e-05
  endloop
endfacet
facet normal 0.0 0.0 -1.0
  outer loop
    vertex 12.2089915549348 85.59000169077602 5.000000241999203e-05
    vertex 16.2089915549348 89.59000550547329 5.000000241999203e-05
    vertex 12.2089915549348 52.482003219515946 5.000000241999203e-05
  endloop
endfacet
facet normal 0.0 0.0 -1.0
  outer loop
    vertex 12.2089915549348 52.482003219515946 5.000000241999203e-05
    vertex 16.2089915549348 89.59000550547329 5.000000241999203e-05
    vertex 17.208991554934798 63.26000321665492 5.000000241999203e-05
  endloop
endfacet
facet normal 0.0 0.0 -1.0
  outer loop
    vertex 12.2089915549348 52.482003219515946 5.000000241999203e-05
    vertex 17.208991554934798 63.26000321665492 5.000000241999203e-05
    vertex 23.20899346228343 52.482003219515946 5.000000241999203e-05
  endloop
endfacet
facet normal 0.0 0.0 -1.0
  outer loop
    vertex 17.208991554934798 63.26000321665492 5.000000241999203e-05
    vertex 16.2089915549348 89.59000550547329 5.000000241999203e-05
    vertex 17.208991554934798 88.59000169077602 5.000000241999203e-05
  endloop
endfacet
facet normal 0.0 0.0 -1.0
  outer loop
    vertex 23.20899346228343 52.482003219515946 5.000000241999203e-05
    vertex 17.208991554934798 63.26000321665492 5.000000241999203e-05
    vertex 23.20899346228343 57.26000321665492 5.000000241999203e-05
  endloop
endfacet
facet normal 1.0 0.0 0.0
  outer loop
    vertex 23.20899346228343 57.26000321665492 5.000000241999203e-05
    vertex 23.20899346228343 52.482003219515946 25.00005149841313
    vertex 23.20899346228343 52.482003219515946 5.000000241999203e-05
  endloop
endfacet
facet normal 1.0 0.0 0.0
  outer loop
    vertex 23.20899346228343 52.482003219515946 25.00005149841313
    vertex 23.20899346228343 57.26000321665492 5.000000241999203e-05
    vertex 23.20899346228343 57.26000321665492 25.00005149841313
  endloop
endfacet
facet normal 1.0 0.0 0.0
  outer loop
    vertex 23.20899346228343 57.26000321665492 25.00005149841313
    vertex 23.20899346228343 57.26000321665492 5.000000241999203e-05
    vertex 23.20899346228343 57.26000321665492 15.000049591064498
  endloop
endfacet
facet normal -1.0 0.0 0.0
  outer loop
    vertex 12.2089915549348 57.26000321665492 25.00005149841313
    vertex 12.2089915549348 52.482003219515946 5.000000241999203e-05
    vertex 12.2089915549348 52.482003219515946 25.00005149841313
  endloop
endfacet
facet normal -1.0 0.0 0.0
  outer loop
    vertex 12.2089915549348 52.482003219515946 5.000000241999203e-05
    vertex 12.2089915549348 57.26000321665492 25.00005149841313
    vertex 12.2089915549348 57.26000321665492 15.000049591064498
  endloop
endfacet
facet normal -1.0 0.0 0.0
  outer loop
    vertex 12.2089915549348 52.482003219515946 5.000000241999203e-05
    vertex 12.2089915549348 57.26000321665492 15.000049591064498
    vertex 12.2089915549348 85.59000169077602 5.000000241999203e-05
  endloop
endfacet
facet normal -1.0 0.0 0.0
  outer loop
    vertex 12.2089915549348 85.59000169077602 5.000000241999203e-05
    vertex 12.2089915549348 57.26000321665492 15.000049591064498
    vertex 12.2089915549348 63.26000321665492 12.000050544738814
  endloop
endfacet
facet normal -1.0 0.0 0.0
  outer loop
    vertex 12.2089915549348 85.59000169077602 5.000000241999203e-05
    vertex 12.2089915549348 63.26000321665492 12.000050544738814
    vertex 12.2089915549348 85.59000169077602 12.000050544738814
  endloop
endfacet
facet normal 1.5359061346867282e-17 0.4472134817676484 0.8944272478660616
  outer loop
    vertex 23.20899346228343 57.26000321665492 15.000049591064498
    vertex 12.2089915549348 63.26000321665492 12.000050544738814
    vertex 12.2089915549348 57.26000321665492 15.000049591064498
  endloop
endfacet
facet normal 1.5359061346867282e-17 0.4472134817676484 0.8944272478660616
  outer loop
    vertex 12.2089915549348 63.26000321665492 12.000050544738814
    vertex 23.20899346228343 57.26000321665492 15.000049591064498
    vertex 17.208991554934798 63.26000321665492 12.000050544738814
  endloop
endfacet
facet normal -8.455814264872896e-32 1.0 8.541007598407964e-32
  outer loop
    vertex 12.2089915549348 57.26000321665492 15.000049591064498
    vertex 17.279392746646227 57.26000321665492 16.803600311279343
    vertex 23.20899346228343 57.26000321665492 15.000049591064498
  endloop
endfacet
facet normal -8.455814264872896e-32 1.0 8.541007598407964e-32
  outer loop
    vertex 17.279392746646227 57.26000321665492 16.803600311279343
    vertex 12.2089915549348 57.26000321665492 15.000049591064498
    vertex 17.006025818545638 57.26000321665492 16.897447586059616
  endloop
endfacet
facet normal -8.455814264872896e-32 1.0 8.541007598407964e-32
  outer loop
    vertex 17.006025818545638 57.26000321665492 16.897447586059616
    vertex 12.2089915549348 57.26000321665492 15.000049591064498
    vertex 16.75183346625072 57.26000321665492 17.035009384155316
  endloop
endfacet
facet normal -8.455814264872896e-32 1.0 8.541007598407964e-32
  outer loop
    vertex 16.75183346625072 57.26000321665492 17.035009384155316
    vertex 12.2089915549348 57.26000321665492 15.000049591064498
    vertex 16.52374985571605 57.26000321665492 17.21253395080571
  endloop
endfacet
facet normal -8.455814264872896e-32 1.0 8.541007598407964e-32
  outer loop
    vertex 16.52374985571605 57.26000321665492 17.21253395080571
    vertex 12.2089915549348 57.26000321665492 15.000049591064498
    vertex 16.327996758181868 57.26000321665492 17.425178527832077
  endloop
endfacet
facet normal -8.455814264872896e-32 1.0 8.541007598407964e-32
  outer loop
    vertex 16.327996758181868 57.26000321665492 17.425178527832077
    vertex 12.2089915549348 57.26000321665492 15.000049591064498
    vertex 16.169912842471422 57.26000321665492 17.667142868042035
  endloop
endfacet
facet normal -8.455814264872896e-32 1.0 8.541007598407964e-32
  outer loop
    vertex 16.169912842471422 57.26000321665492 17.667142868042035
    vertex 12.2089915549348 57.26000321665492 15.000049591064498
    vertex 12.2089915549348 57.26000321665492 25.00005149841313
  endloop
endfacet
facet normal -8.455814264872896e-32 1.0 8.541007598407964e-32
  outer loop
    vertex 23.20899346228343 57.26000321665492 15.000049591064498
    vertex 17.279392746646227 57.26000321665492 16.803600311279343
    vertex 17.564478424746813 57.26000321665492 16.756027221679734
  endloop
endfacet
facet normal -8.455814264872896e-32 1.0 8.541007598407964e-32
  outer loop
    vertex 16.169912842471422 57.26000321665492 17.667142868042035
    vertex 12.2089915549348 57.26000321665492 25.00005149841313
    vertex 16.053812531192126 57.26000321665492 17.931825637817425
  endloop
endfacet
facet normal -8.455814264872896e-32 1.0 8.541007598407964e-32
  outer loop
    vertex 16.053812531192126 57.26000321665492 17.931825637817425
    vertex 12.2089915549348 57.26000321665492 25.00005149841313
    vertex 15.982860115725817 57.26000321665492 18.212011337280316
  endloop
endfacet
facet normal -8.455814264872896e-32 1.0 8.541007598407964e-32
  outer loop
    vertex 15.982860115725817 57.26000321665492 18.212011337280316
    vertex 12.2089915549348 57.26000321665492 25.00005149841313
    vertex 15.958992508609118 57.26000321665492 18.500049591064496
  endloop
endfacet
facet normal -8.455814264872896e-32 1.0 8.541007598407964e-32
  outer loop
    vertex 15.958992508609118 57.26000321665492 18.500049591064496
    vertex 12.2089915549348 57.26000321665492 25.00005149841313
    vertex 15.958992508609118 57.26000321665492 21.50005149841313
  endloop
endfacet
facet normal -8.455814264872896e-32 1.0 8.541007598407964e-32
  outer loop
    vertex 15.958992508609118 57.26000321665492 21.50005149841313
    vertex 12.2089915549348 57.26000321665492 25.00005149841313
    vertex 15.982860115725817 57.26000321665492 21.78809165954594
  endloop
endfacet
facet normal -8.455814264872896e-32 1.0 8.541007598407964e-32
  outer loop
    vertex 15.982860115725817 57.26000321665492 21.78809165954594
    vertex 12.2089915549348 57.26000321665492 25.00005149841313
    vertex 16.053812531192126 57.26000321665492 22.0682754516602
  endloop
endfacet
facet normal -8.455814264872896e-32 1.0 8.541007598407964e-32
  outer loop
    vertex 16.053812531192126 57.26000321665492 22.0682754516602
    vertex 12.2089915549348 57.26000321665492 25.00005149841313
    vertex 16.169912842471422 57.26000321665492 22.33295822143559
  endloop
endfacet
facet normal -8.455814264872896e-32 1.0 8.541007598407964e-32
  outer loop
    vertex 16.169912842471422 57.26000321665492 22.33295822143559
    vertex 12.2089915549348 57.26000321665492 25.00005149841313
    vertex 16.327996758181868 57.26000321665492 22.574924468994183
  endloop
endfacet
facet normal -8.455814264872896e-32 1.0 8.541007598407964e-32
  outer loop
    vertex 16.327996758181868 57.26000321665492 22.574924468994183
    vertex 12.2089915549348 57.26000321665492 25.00005149841313
    vertex 16.52374985571605 57.26000321665492 22.787567138671918
  endloop
endfacet
facet normal -8.455814264872896e-32 1.0 8.541007598407964e-32
  outer loop
    vertex 16.52374985571605 57.26000321665492 22.787567138671918
    vertex 12.2089915549348 57.26000321665492 25.00005149841313
    vertex 16.75183346625072 57.26000321665492 22.96509170532231
  endloop
endfacet
facet normal -8.455814264872896e-32 1.0 8.541007598407964e-32
  outer loop
    vertex 16.75183346625072 57.26000321665492 22.96509170532231
    vertex 12.2089915549348 57.26000321665492 25.00005149841313
    vertex 17.006025818545638 57.26000321665492 23.10265350341801
  endloop
endfacet
facet normal -8.455814264872896e-32 1.0 8.541007598407964e-32
  outer loop
    vertex 17.006025818545638 57.26000321665492 23.10265350341801
    vertex 12.2089915549348 57.26000321665492 25.00005149841313
    vertex 17.279392746646227 57.26000321665492 23.196500778198285
  endloop
endfacet
facet normal -8.455814264872896e-32 1.0 8.541007598407964e-32
  outer loop
    vertex 17.279392746646227 57.26000321665492 23.196500778198285
    vertex 12.2089915549348 57.26000321665492 25.00005149841313
    vertex 17.564478424746813 57.26000321665492 23.244073867797894
  endloop
endfacet
facet normal -8.455814264872896e-32 1.0 8.541007598407964e-32
  outer loop
    vertex 17.564478424746813 57.26000321665492 23.244073867797894
    vertex 12.2089915549348 57.26000321665492 25.00005149841313
    vertex 17.853505638797103 57.26000321665492 23.244073867797894
  endloop
endfacet
facet normal -8.455814264872896e-32 1.0 8.541007598407964e-32
  outer loop
    vertex 23.20899346228343 57.26000321665492 15.000049591064498
    vertex 19.248069313723864 57.26000321665492 17.667142868042035
    vertex 23.20899346228343 57.26000321665492 25.00005149841313
  endloop
endfacet
facet normal -8.455814264872896e-32 1.0 8.541007598407964e-32
  outer loop
    vertex 19.248069313723864 57.26000321665492 17.667142868042035
    vertex 23.20899346228343 57.26000321665492 15.000049591064498
    vertex 19.08998825903636 57.26000321665492 17.425178527832077
  endloop
endfacet
facet normal -8.455814264872896e-32 1.0 8.541007598407964e-32
  outer loop
    vertex 19.08998825903636 57.26000321665492 17.425178527832077
    vertex 23.20899346228343 57.26000321665492 15.000049591064498
    vertex 18.89423516150218 57.26000321665492 17.21253395080571
  endloop
endfacet
facet normal -8.455814264872896e-32 1.0 8.541007598407964e-32
  outer loop
    vertex 18.89423516150218 57.26000321665492 17.21253395080571
    vertex 23.20899346228343 57.26000321665492 15.000049591064498
    vertex 18.666150597293196 57.26000321665492 17.035009384155316
  endloop
endfacet
facet normal -8.455814264872896e-32 1.0 8.541007598407964e-32
  outer loop
    vertex 18.666150597293196 57.26000321665492 17.035009384155316
    vertex 23.20899346228343 57.26000321665492 15.000049591064498
    vertex 18.411958244998278 57.26000321665492 16.897447586059616
  endloop
endfacet
facet normal -8.455814264872896e-32 1.0 8.541007598407964e-32
  outer loop
    vertex 18.411958244998278 57.26000321665492 16.897447586059616
    vertex 23.20899346228343 57.26000321665492 15.000049591064498
    vertex 18.13859131689769 57.26000321665492 16.803600311279343
  endloop
endfacet
facet normal -8.455814264872896e-32 1.0 8.541007598407964e-32
  outer loop
    vertex 18.13859131689769 57.26000321665492 16.803600311279343
    vertex 23.20899346228343 57.26000321665492 15.000049591064498
    vertex 17.853505638797103 57.26000321665492 16.756027221679734
  endloop
endfacet
facet normal -8.455814264872896e-32 1.0 8.541007598407964e-32
  outer loop
    vertex 17.853505638797103 57.26000321665492 16.756027221679734
    vertex 23.20899346228343 57.26000321665492 15.000049591064498
    vertex 17.564478424746813 57.26000321665492 16.756027221679734
  endloop
endfacet
facet normal -8.455814264872896e-32 1.0 8.541007598407964e-32
  outer loop
    vertex 23.20899346228343 57.26000321665492 25.00005149841313
    vertex 19.248069313723864 57.26000321665492 17.667142868042035
    vertex 19.36417153235179 57.26000321665492 17.931825637817425
  endloop
endfacet
facet normal -8.455814264872896e-32 1.0 8.541007598407964e-32
  outer loop
    vertex 23.20899346228343 57.26000321665492 25.00005149841313
    vertex 19.36417153235179 57.26000321665492 17.931825637817425
    vertex 19.43512490149242 57.26000321665492 18.212011337280316
  endloop
endfacet
facet normal -8.455814264872896e-32 1.0 8.541007598407964e-32
  outer loop
    vertex 23.20899346228343 57.26000321665492 25.00005149841313
    vertex 19.43512490149242 57.26000321665492 18.212011337280316
    vertex 19.45898964758617 57.26000321665492 18.500049591064496
  endloop
endfacet
facet normal -8.455814264872896e-32 1.0 8.541007598407964e-32
  outer loop
    vertex 23.20899346228343 57.26000321665492 25.00005149841313
    vertex 19.45898964758617 57.26000321665492 18.500049591064496
    vertex 19.45898964758617 57.26000321665492 21.50005149841313
  endloop
endfacet
facet normal -8.455814264872896e-32 1.0 8.541007598407964e-32
  outer loop
    vertex 23.20899346228343 57.26000321665492 25.00005149841313
    vertex 19.45898964758617 57.26000321665492 21.50005149841313
    vertex 19.43512490149242 57.26000321665492 21.78809165954594
  endloop
endfacet
facet normal -8.455814264872896e-32 1.0 8.541007598407964e-32
  outer loop
    vertex 23.20899346228343 57.26000321665492 25.00005149841313
    vertex 19.43512490149242 57.26000321665492 21.78809165954594
    vertex 19.36417153235179 57.26000321665492 22.0682754516602
  endloop
endfacet
facet normal -8.455814264872896e-32 1.0 8.541007598407964e-32
  outer loop
    vertex 23.20899346228343 57.26000321665492 25.00005149841313
    vertex 19.36417153235179 57.26000321665492 22.0682754516602
    vertex 19.248069313723864 57.26000321665492 22.33295822143559
  endloop
endfacet
facet normal -8.455814264872896e-32 1.0 8.541007598407964e-32
  outer loop
    vertex 23.20899346228343 57.26000321665492 25.00005149841313
    vertex 19.248069313723864 57.26000321665492 22.33295822143559
    vertex 19.08998825903636 57.26000321665492 22.574924468994183
  endloop
endfacet
facet normal -8.455814264872896e-32 1.0 8.541007598407964e-32
  outer loop
    vertex 23.20899346228343 57.26000321665492 25.00005149841313
    vertex 19.08998825903636 57.26000321665492 22.574924468994183
    vertex 18.89423516150218 57.26000321665492 22.787567138671918
  endloop
endfacet
facet normal -8.455814264872896e-32 1.0 8.541007598407964e-32
  outer loop
    vertex 23.20899346228343 57.26000321665492 25.00005149841313
    vertex 18.89423516150218 57.26000321665492 22.787567138671918
    vertex 18.666150597293196 57.26000321665492 22.96509170532231
  endloop
endfacet
facet normal -8.455814264872896e-32 1.0 8.541007598407964e-32
  outer loop
    vertex 23.20899346228343 57.26000321665492 25.00005149841313
    vertex 18.666150597293196 57.26000321665492 22.96509170532231
    vertex 18.411958244998278 57.26000321665492 23.10265350341801
  endloop
endfacet
facet normal -8.455814264872896e-32 1.0 8.541007598407964e-32
  outer loop
    vertex 23.20899346228343 57.26000321665492 25.00005149841313
    vertex 18.411958244998278 57.26000321665492 23.10265350341801
    vertex 18.13859131689769 57.26000321665492 23.196500778198285
  endloop
endfacet
facet normal -8.455814264872896e-32 1.0 8.541007598407964e-32
  outer loop
    vertex 23.20899346228343 57.26000321665492 25.00005149841313
    vertex 18.13859131689769 57.26000321665492 23.196500778198285
    vertex 17.853505638797103 57.26000321665492 23.244073867797894
  endloop
endfacet
facet normal -8.455814264872896e-32 1.0 8.541007598407964e-32
  outer loop
    vertex 23.20899346228343 57.26000321665492 25.00005149841313
    vertex 17.853505638797103 57.26000321665492 23.244073867797894
    vertex 12.2089915549348 57.26000321665492 25.00005149841313
  endloop
endfacet
facet normal 0.0 0.0 1.0
  outer loop
    vertex 17.208991554934798 63.26000321665492 12.000050544738814
    vertex 12.2089915549348 85.59000169077602 12.000050544738814
    vertex 12.2089915549348 63.26000321665492 12.000050544738814
  endloop
endfacet
facet normal 0.0 0.0 1.0
  outer loop
    vertex 12.2089915549348 85.59000169077602 12.000050544738814
    vertex 17.208991554934798 63.26000321665492 12.000050544738814
    vertex 16.2089915549348 89.59000550547329 12.000050544738814
  endloop
endfacet
facet normal 0.0 0.0 1.0
  outer loop
    vertex 16.2089915549348 89.59000550547329 12.000050544738814
    vertex 17.208991554934798 63.26000321665492 12.000050544738814
    vertex 17.208991554934798 88.59000169077602 12.000050544738814
  endloop
endfacet
facet normal 0.0 0.0 1.0
  outer loop
    vertex 12.2089915549348 85.59000169077602 12.000050544738814
    vertex 2.208991759403761 89.59000550547329 12.000050544738814
    vertex 2.208991759403761 85.59000169077602 12.000050544738814
  endloop
endfacet
facet normal 0.0 0.0 1.0
  outer loop
    vertex 2.208991759403761 89.59000550547329 12.000050544738814
    vertex 12.2089915549348 85.59000169077602 12.000050544738814
    vertex 16.2089915549348 89.59000550547329 12.000050544738814
  endloop
endfacet
facet normal 0.0 -1.0 0.0
  outer loop
    vertex 12.2089915549348 85.59000169077602 5.000000241999203e-05
    vertex 7.911958721835435 85.59000169077602 2.8974466323852988
    vertex 2.208991759403761 85.59000169077602 5.000000241999203e-05
  endloop
endfacet
facet normal 0.0 -1.0 0.0
  outer loop
    vertex 7.911958721835435 85.59000169077602 2.8974466323852988
    vertex 12.2089915549348 85.59000169077602 5.000000241999203e-05
    vertex 8.166151074130356 85.59000169077602 3.035008668899581
  endloop
endfacet
facet normal 0.0 -1.0 0.0
  outer loop
    vertex 8.166151074130356 85.59000169077602 3.035008668899581
    vertex 12.2089915549348 85.59000169077602 5.000000241999203e-05
    vertex 8.394234684665024 85.59000169077602 3.212533235549972
  endloop
endfacet
facet normal 0.0 -1.0 0.0
  outer loop
    vertex 8.394234684665024 85.59000169077602 3.212533235549972
    vertex 12.2089915549348 85.59000169077602 5.000000241999203e-05
    vertex 8.589987782199206 85.59000169077602 3.425177812576339
  endloop
endfacet
facet normal 0.0 -1.0 0.0
  outer loop
    vertex 8.589987782199206 85.59000169077602 3.425177812576339
    vertex 12.2089915549348 85.59000169077602 5.000000241999203e-05
    vertex 8.748070744235337 85.59000169077602 3.6671419143677206
  endloop
endfacet
facet normal 0.0 -1.0 0.0
  outer loop
    vertex 8.748070744235337 85.59000169077602 3.6671419143677206
    vertex 12.2089915549348 85.59000169077602 5.000000241999203e-05
    vertex 8.864172486026108 85.59000169077602 3.931825399398848
  endloop
endfacet
facet normal 0.0 -1.0 0.0
  outer loop
    vertex 8.864172486026108 85.59000169077602 3.931825399398848
    vertex 12.2089915549348 85.59000169077602 5.000000241999203e-05
    vertex 12.2089915549348 85.59000169077602 12.000050544738814
  endloop
endfacet
facet normal 0.0 -1.0 0.0
  outer loop
    vertex 2.208991759403761 85.59000169077602 5.000000241999203e-05
    vertex 7.911958721835435 85.59000169077602 2.8974466323852988
    vertex 7.638591316897689 85.59000169077602 2.8035993576050253
  endloop
endfacet
facet normal 0.0 -1.0 0.0
  outer loop
    vertex 2.208991759403761 85.59000169077602 5.000000241999203e-05
    vertex 7.638591316897689 85.59000169077602 2.8035993576050253
    vertex 7.353505638797104 85.59000169077602 2.7560272216797324
  endloop
endfacet
facet normal 0.0 -1.0 0.0
  outer loop
    vertex 8.864172486026108 85.59000169077602 3.931825399398848
    vertex 12.2089915549348 85.59000169077602 12.000050544738814
    vertex 8.935123947818102 85.59000169077602 4.212009429931685
  endloop
endfacet
facet normal 0.0 -1.0 0.0
  outer loop
    vertex 8.935123947818102 85.59000169077602 4.212009429931685
    vertex 12.2089915549348 85.59000169077602 12.000050544738814
    vertex 8.958992031771958 85.59000169077602 4.5000495910644975
  endloop
endfacet
facet normal 0.0 -1.0 0.0
  outer loop
    vertex 8.958992031771958 85.59000169077602 4.5000495910644975
    vertex 12.2089915549348 85.59000169077602 12.000050544738814
    vertex 8.958992031771958 85.59000169077602 7.5000495910644975
  endloop
endfacet
facet normal 0.0 -1.0 0.0
  outer loop
    vertex 8.958992031771958 85.59000169077602 7.5000495910644975
    vertex 12.2089915549348 85.59000169077602 12.000050544738814
    vertex 8.935123947818102 85.59000169077602 7.788090705871626
  endloop
endfacet
facet normal 0.0 -1.0 0.0
  outer loop
    vertex 8.935123947818102 85.59000169077602 7.788090705871626
    vertex 12.2089915549348 85.59000169077602 12.000050544738814
    vertex 8.864172486026108 85.59000169077602 8.068274497985884
  endloop
endfacet
facet normal 0.0 -1.0 0.0
  outer loop
    vertex 8.864172486026108 85.59000169077602 8.068274497985884
    vertex 12.2089915549348 85.59000169077602 12.000050544738814
    vertex 8.748070744235337 85.59000169077602 8.332958221435591
  endloop
endfacet
facet normal 0.0 -1.0 0.0
  outer loop
    vertex 8.748070744235337 85.59000169077602 8.332958221435591
    vertex 12.2089915549348 85.59000169077602 12.000050544738814
    vertex 8.589987782199206 85.59000169077602 8.574922561645552
  endloop
endfacet
facet normal 0.0 -1.0 0.0
  outer loop
    vertex 8.589987782199206 85.59000169077602 8.574922561645552
    vertex 12.2089915549348 85.59000169077602 12.000050544738814
    vertex 8.394234684665024 85.59000169077602 8.78756713867192
  endloop
endfacet
facet normal 0.0 -1.0 0.0
  outer loop
    vertex 8.394234684665024 85.59000169077602 8.78756713867192
    vertex 12.2089915549348 85.59000169077602 12.000050544738814
    vertex 8.166151074130356 85.59000169077602 8.96509170532231
  endloop
endfacet
facet normal 0.0 -1.0 0.0
  outer loop
    vertex 8.166151074130356 85.59000169077602 8.96509170532231
    vertex 12.2089915549348 85.59000169077602 12.000050544738814
    vertex 7.911958721835435 85.59000169077602 9.102653503418013
  endloop
endfacet
facet normal 0.0 -1.0 0.0
  outer loop
    vertex 7.911958721835435 85.59000169077602 9.102653503418013
    vertex 12.2089915549348 85.59000169077602 12.000050544738814
    vertex 7.638591316897689 85.59000169077602 9.19649982452397
  endloop
endfacet
facet normal 0.0 -1.0 0.0
  outer loop
    vertex 7.638591316897689 85.59000169077602 9.19649982452397
    vertex 12.2089915549348 85.59000169077602 12.000050544738814
    vertex 7.353505638797104 85.59000169077602 9.24407291412358
  endloop
endfacet
facet normal 0.0 -1.0 0.0
  outer loop
    vertex 7.353505638797104 85.59000169077602 9.24407291412358
    vertex 12.2089915549348 85.59000169077602 12.000050544738814
    vertex 7.064477947909652 85.59000169077602 9.24407291412358
  endloop
endfacet
facet normal 0.0 -1.0 0.0
  outer loop
    vertex 2.208991759403761 85.59000169077602 5.000000241999203e-05
    vertex 5.553811577517808 85.59000169077602 3.931825399398848
    vertex 2.208991759403761 85.59000169077602 12.000050544738814
  endloop
endfacet
facet normal 0.0 -1.0 0.0
  outer loop
    vertex 5.553811577517808 85.59000169077602 3.931825399398848
    vertex 2.208991759403761 85.59000169077602 5.000000241999203e-05
    vertex 5.669912604052842 85.59000169077602 3.6671419143677206
  endloop
endfacet
facet normal 0.0 -1.0 0.0
  outer loop
    vertex 5.669912604052842 85.59000169077602 3.6671419143677206
    vertex 2.208991759403761 85.59000169077602 5.000000241999203e-05
    vertex 5.827995804507554 85.59000169077602 3.425177812576339
  endloop
endfacet
facet normal 0.0 -1.0 0.0
  outer loop
    vertex 5.827995804507554 85.59000169077602 3.425177812576339
    vertex 2.208991759403761 85.59000169077602 5.000000241999203e-05
    vertex 6.023748902041734 85.59000169077602 3.212533235549972
  endloop
endfacet
facet normal 0.0 -1.0 0.0
  outer loop
    vertex 6.023748902041734 85.59000169077602 3.212533235549972
    vertex 2.208991759403761 85.59000169077602 5.000000241999203e-05
    vertex 6.251832512576402 85.59000169077602 3.035008668899581
  endloop
endfacet
facet normal 0.0 -1.0 0.0
  outer loop
    vertex 6.251832512576402 85.59000169077602 3.035008668899581
    vertex 2.208991759403761 85.59000169077602 5.000000241999203e-05
    vertex 6.506024864871323 85.59000169077602 2.8974466323852988
  endloop
endfacet
facet normal 0.0 -1.0 0.0
  outer loop
    vertex 6.506024864871323 85.59000169077602 2.8974466323852988
    vertex 2.208991759403761 85.59000169077602 5.000000241999203e-05
    vertex 6.779392269809067 85.59000169077602 2.8035993576050253
  endloop
endfacet
facet normal 0.0 -1.0 0.0
  outer loop
    vertex 6.779392269809067 85.59000169077602 2.8035993576050253
    vertex 2.208991759403761 85.59000169077602 5.000000241999203e-05
    vertex 7.064477947909652 85.59000169077602 2.7560272216797324
  endloop
endfacet
facet normal 0.0 -1.0 0.0
  outer loop
    vertex 7.064477947909652 85.59000169077602 2.7560272216797324
    vertex 2.208991759403761 85.59000169077602 5.000000241999203e-05
    vertex 7.353505638797104 85.59000169077602 2.7560272216797324
  endloop
endfacet
facet normal 0.0 -1.0 0.0
  outer loop
    vertex 2.208991759403761 85.59000169077602 12.000050544738814
    vertex 5.553811577517808 85.59000169077602 3.931825399398848
    vertex 5.482859400470079 85.59000169077602 4.212009429931685
  endloop
endfacet
facet normal 0.0 -1.0 0.0
  outer loop
    vertex 2.208991759403761 85.59000169077602 12.000050544738814
    vertex 5.482859400470079 85.59000169077602 4.212009429931685
    vertex 5.458991793353379 85.59000169077602 4.5000495910644975
  endloop
endfacet
facet normal 0.0 -1.0 0.0
  outer loop
    vertex 2.208991759403761 85.59000169077602 12.000050544738814
    vertex 5.458991793353379 85.59000169077602 4.5000495910644975
    vertex 5.458991793353379 85.59000169077602 7.5000495910644975
  endloop
endfacet
facet normal 0.0 -1.0 0.0
  outer loop
    vertex 2.208991759403761 85.59000169077602 12.000050544738814
    vertex 5.458991793353379 85.59000169077602 7.5000495910644975
    vertex 5.482859400470079 85.59000169077602 7.788090705871626
  endloop
endfacet
facet normal 0.0 -1.0 0.0
  outer loop
    vertex 2.208991759403761 85.59000169077602 12.000050544738814
    vertex 5.482859400470079 85.59000169077602 7.788090705871626
    vertex 5.553811577517808 85.59000169077602 8.068274497985884
  endloop
endfacet
facet normal 0.0 -1.0 0.0
  outer loop
    vertex 2.208991759403761 85.59000169077602 12.000050544738814
    vertex 5.553811577517808 85.59000169077602 8.068274497985884
    vertex 5.669912604052842 85.59000169077602 8.332958221435591
  endloop
endfacet
facet normal 0.0 -1.0 0.0
  outer loop
    vertex 2.208991759403761 85.59000169077602 12.000050544738814
    vertex 5.669912604052842 85.59000169077602 8.332958221435591
    vertex 5.827995804507554 85.59000169077602 8.574922561645552
  endloop
endfacet
facet normal 0.0 -1.0 0.0
  outer loop
    vertex 2.208991759403761 85.59000169077602 12.000050544738814
    vertex 5.827995804507554 85.59000169077602 8.574922561645552
    vertex 6.023748902041734 85.59000169077602 8.78756713867192
  endloop
endfacet
facet normal 0.0 -1.0 0.0
  outer loop
    vertex 2.208991759403761 85.59000169077602 12.000050544738814
    vertex 6.023748902041734 85.59000169077602 8.78756713867192
    vertex 6.251832512576402 85.59000169077602 8.96509170532231
  endloop
endfacet
facet normal 0.0 -1.0 0.0
  outer loop
    vertex 2.208991759403761 85.59000169077602 12.000050544738814
    vertex 6.251832512576402 85.59000169077602 8.96509170532231
    vertex 6.506024864871323 85.59000169077602 9.102653503418013
  endloop
endfacet
facet normal 0.0 -1.0 0.0
  outer loop
    vertex 2.208991759403761 85.59000169077602 12.000050544738814
    vertex 6.506024864871323 85.59000169077602 9.102653503418013
    vertex 6.779392269809067 85.59000169077602 9.19649982452397
  endloop
endfacet
facet normal 0.0 -1.0 0.0
  outer loop
    vertex 2.208991759403761 85.59000169077602 12.000050544738814
    vertex 6.779392269809067 85.59000169077602 9.19649982452397
    vertex 7.064477947909652 85.59000169077602 9.24407291412358
  endloop
endfacet
facet normal 0.0 -1.0 0.0
  outer loop
    vertex 2.208991759403761 85.59000169077602 12.000050544738814
    vertex 7.064477947909652 85.59000169077602 9.24407291412358
    vertex 12.2089915549348 85.59000169077602 12.000050544738814
  endloop
endfacet
facet normal -1.0 0.0 0.0
  outer loop
    vertex 2.208991759403761 89.59000550547329 12.000050544738814
    vertex 2.208991759403761 85.59000169077602 5.000000241999203e-05
    vertex 2.208991759403761 85.59000169077602 12.000050544738814
  endloop
endfacet
facet normal -1.0 0.0 0.0
  outer loop
    vertex 2.208991759403761 85.59000169077602 5.000000241999203e-05
    vertex 2.208991759403761 89.59000550547329 12.000050544738814
    vertex 2.208991759403761 89.59000550547329 5.000000241999203e-05
  endloop
endfacet
facet normal 1.0 0.0 0.0
  outer loop
    vertex 5.458991793353379 89.59000550547329 4.5000495910644975
    vertex 5.458991793353379 85.59000169077602 7.5000495910644975
    vertex 5.458991793353379 85.59000169077602 4.5000495910644975
  endloop
endfacet
facet normal 1.0 0.0 0.0
  outer loop
    vertex 5.458991793353379 85.59000169077602 7.5000495910644975
    vertex 5.458991793353379 89.59000550547329 4.5000495910644975
    vertex 5.458991793353379 89.59000550547329 7.5000495910644975
  endloop
endfacet
facet normal 0.9965845161033511 2.7230213597298645e-19 0.08257906673636924
  outer loop
    vertex 5.482859400470079 89.59000550547329 4.212009429931685
    vertex 5.458991793353379 85.59000169077602 4.5000495910644975
    vertex 5.482859400470079 85.59000169077602 4.212009429931685
  endloop
endfacet
facet normal 0.9965845161033511 2.7230213597298645e-19 0.08257906673636924
  outer loop
    vertex 5.458991793353379 85.59000169077602 4.5000495910644975
    vertex 5.482859400470079 89.59000550547329 4.212009429931685
    vertex 5.458991793353379 89.59000550547329 4.5000495910644975
  endloop
endfacet
facet normal 0.969400311740722 -9.63607635346308e-31 0.24548530627512336
  outer loop
    vertex 5.553811577517808 89.59000550547329 3.931825399398848
    vertex 5.482859400470079 85.59000169077602 4.212009429931685
    vertex 5.553811577517808 85.59000169077602 3.931825399398848
  endloop
endfacet
facet normal 0.969400311740722 -9.63607635346308e-31 0.24548530627512336
  outer loop
    vertex 5.482859400470079 85.59000169077602 4.212009429931685
    vertex 5.553811577517808 89.59000550547329 3.931825399398848
    vertex 5.482859400470079 89.59000550547329 4.212009429931685
  endloop
endfacet
facet normal 0.9157732177212881 0.0 0.40169567299685754
  outer loop
    vertex 5.669912604052842 89.59000550547329 3.6671419143677206
    vertex 5.553811577517808 85.59000169077602 3.931825399398848
    vertex 5.669912604052842 85.59000169077602 3.6671419143677206
  endloop
endfacet
facet normal 0.9157732177212881 0.0 0.40169567299685754
  outer loop
    vertex 5.553811577517808 85.59000169077602 3.931825399398848
    vertex 5.669912604052842 89.59000550547329 3.6671419143677206
    vertex 5.553811577517808 89.59000550547329 3.931825399398848
  endloop
endfacet
facet normal 0.8371662201604456 0.0 0.5469485531768711
  outer loop
    vertex 5.827995804507554 89.59000550547329 3.425177812576339
    vertex 5.669912604052842 85.59000169077602 3.6671419143677206
    vertex 5.827995804507554 85.59000169077602 3.425177812576339
  endloop
endfacet
facet normal 0.8371662201604456 0.0 0.5469485531768711
  outer loop
    vertex 5.669912604052842 85.59000169077602 3.6671419143677206
    vertex 5.827995804507554 89.59000550547329 3.425177812576339
    vertex 5.669912604052842 89.59000550547329 3.6671419143677206
  endloop
endfacet
facet normal 0.7357239549192457 7.31327617580739e-31 0.6772815235616455
  outer loop
    vertex 6.023748902041734 89.59000550547329 3.212533235549972
    vertex 5.827995804507554 85.59000169077602 3.425177812576339
    vertex 6.023748902041734 85.59000169077602 3.212533235549972
  endloop
endfacet
facet normal 0.7357239549192457 7.31327617580739e-31 0.6772815235616455
  outer loop
    vertex 5.827995804507554 85.59000169077602 3.425177812576339
    vertex 6.023748902041734 89.59000550547329 3.212533235549972
    vertex 5.827995804507554 89.59000550547329 3.425177812576339
  endloop
endfacet
facet normal 0.6142126411832572 -6.105423978125448e-31 0.7891405650520619
  outer loop
    vertex 6.251832512576402 85.59000169077602 3.035008668899581
    vertex 6.023748902041734 89.59000550547329 3.212533235549972
    vertex 6.023748902041734 85.59000169077602 3.212533235549972
  endloop
endfacet
facet normal 0.6142126411832572 -6.105423978125448e-31 0.7891405650520619
  outer loop
    vertex 6.023748902041734 89.59000550547329 3.212533235549972
    vertex 6.251832512576402 85.59000169077602 3.035008668899581
    vertex 6.251832512576402 89.59000550547329 3.035008668899581
  endloop
endfacet
facet normal 0.4759474322051598 -4.73103396132419e-31 0.8794737300097797
  outer loop
    vertex 6.506024864871323 85.59000169077602 2.8974466323852988
    vertex 6.251832512576402 89.59000550547329 3.035008668899581
    vertex 6.251832512576402 85.59000169077602 3.035008668899581
  endloop
endfacet
facet normal 0.4759474322051598 -4.73103396132419e-31 0.8794737300097797
  outer loop
    vertex 6.251832512576402 89.59000550547329 3.035008668899581
    vertex 6.506024864871323 85.59000169077602 2.8974466323852988
    vertex 6.506024864871323 89.59000550547329 2.8974466323852988
  endloop
endfacet
facet normal 0.3246998595790807 1.0337227380177471e-18 0.9458171076848447
  outer loop
    vertex 6.779392269809067 85.59000169077602 2.8035993576050253
    vertex 6.506024864871323 89.59000550547329 2.8974466323852988
    vertex 6.506024864871323 85.59000169077602 2.8974466323852988
  endloop
endfacet
facet normal 0.3246998595790807 1.0337227380177471e-18 0.9458171076848447
  outer loop
    vertex 6.506024864871323 89.59000550547329 2.8974466323852988
    vertex 6.779392269809067 85.59000169077602 2.8035993576050253
    vertex 6.779392269809067 89.59000550547329 2.8035993576050253
  endloop
endfacet
facet normal 0.1645937494454727 3.2722043055904264e-31 0.9863614437129429
  outer loop
    vertex 7.064477947909652 85.59000169077602 2.7560272216797324
    vertex 6.779392269809067 89.59000550547329 2.8035993576050253
    vertex 6.779392269809067 85.59000169077602 2.8035993576050253
  endloop
endfacet
facet normal 0.1645937494454727 3.2722043055904264e-31 0.9863614437129429
  outer loop
    vertex 6.779392269809067 89.59000550547329 2.8035993576050253
    vertex 7.064477947909652 85.59000169077602 2.7560272216797324
    vertex 7.064477947909652 89.59000550547329 2.7560272216797324
  endloop
endfacet
facet normal 0.0 0.0 1.0
  outer loop
    vertex 7.353505638797104 85.59000169077602 2.7560272216797324
    vertex 7.064477947909652 89.59000550547329 2.7560272216797324
    vertex 7.064477947909652 85.59000169077602 2.7560272216797324
  endloop
endfacet
facet normal 0.0 0.0 1.0
  outer loop
    vertex 7.064477947909652 89.59000550547329 2.7560272216797324
    vertex 7.353505638797104 85.59000169077602 2.7560272216797324
    vertex 7.353505638797104 89.59000550547329 2.7560272216797324
  endloop
endfacet
facet normal -0.1645937494454727 -3.2722043055904264e-31 0.9863614437129429
  outer loop
    vertex 7.638591316897689 85.59000169077602 2.8035993576050253
    vertex 7.353505638797104 89.59000550547329 2.7560272216797324
    vertex 7.353505638797104 85.59000169077602 2.7560272216797324
  endloop
endfacet
facet normal -0.1645937494454727 -3.2722043055904264e-31 0.9863614437129429
  outer loop
    vertex 7.353505638797104 89.59000550547329 2.7560272216797324
    vertex 7.638591316897689 85.59000169077602 2.8035993576050253
    vertex 7.638591316897689 89.59000550547329 2.8035993576050253
  endloop
endfacet
facet normal -0.3246998595790792 -1.0337227380183935e-18 0.9458171076848454
  outer loop
    vertex 7.911958721835435 85.59000169077602 2.8974466323852988
    vertex 7.638591316897689 89.59000550547329 2.8035993576050253
    vertex 7.638591316897689 85.59000169077602 2.8035993576050253
  endloop
endfacet
facet normal -0.3246998595790792 -1.0337227380183935e-18 0.9458171076848454
  outer loop
    vertex 7.638591316897689 89.59000550547329 2.8035993576050253
    vertex 7.911958721835435 85.59000169077602 2.8974466323852988
    vertex 7.911958721835435 89.59000550547329 2.8974466323852988
  endloop
endfacet
facet normal -0.4759474322051609 0.0 0.879473730009779
  outer loop
    vertex 8.166151074130356 85.59000169077602 3.035008668899581
    vertex 7.911958721835435 89.59000550547329 2.8974466323852988
    vertex 7.911958721835435 85.59000169077602 2.8974466323852988
  endloop
endfacet
facet normal -0.4759474322051609 0.0 0.879473730009779
  outer loop
    vertex 7.911958721835435 89.59000550547329 2.8974466323852988
    vertex 8.166151074130356 85.59000169077602 3.035008668899581
    vertex 8.166151074130356 89.59000550547329 3.035008668899581
  endloop
endfacet
facet normal -0.6142126411832559 -7.844250353914179e-31 0.7891405650520626
  outer loop
    vertex 8.394234684665024 85.59000169077602 3.212533235549972
    vertex 8.166151074130356 89.59000550547329 3.035008668899581
    vertex 8.166151074130356 85.59000169077602 3.035008668899581
  endloop
endfacet
facet normal -0.6142126411832559 -7.844250353914179e-31 0.7891405650520626
  outer loop
    vertex 8.166151074130356 89.59000550547329 3.035008668899581
    vertex 8.394234684665024 85.59000169077602 3.212533235549972
    vertex 8.394234684665024 89.59000550547329 3.212533235549972
  endloop
endfacet
facet normal -0.7357239549192445 0.0 0.677281523561647
  outer loop
    vertex 8.589987782199206 89.59000550547329 3.425177812576339
    vertex 8.394234684665024 85.59000169077602 3.212533235549972
    vertex 8.589987782199206 85.59000169077602 3.425177812576339
  endloop
endfacet
facet normal -0.7357239549192445 0.0 0.677281523561647
  outer loop
    vertex 8.394234684665024 85.59000169077602 3.212533235549972
    vertex 8.589987782199206 89.59000550547329 3.425177812576339
    vertex 8.394234684665024 89.59000550547329 3.212533235549972
  endloop
endfacet
facet normal -0.8371665978708905 0.0 0.5469479750481563
  outer loop
    vertex 8.748070744235337 89.59000550547329 3.6671419143677206
    vertex 8.589987782199206 85.59000169077602 3.425177812576339
    vertex 8.748070744235337 85.59000169077602 3.6671419143677206
  endloop
endfacet
facet normal -0.8371665978708905 0.0 0.5469479750481563
  outer loop
    vertex 8.589987782199206 85.59000169077602 3.425177812576339
    vertex 8.748070744235337 89.59000550547329 3.6671419143677206
    vertex 8.589987782199206 89.59000550547329 3.425177812576339
  endloop
endfacet
facet normal -0.9157723073716453 0.0 0.40169774837707617
  outer loop
    vertex 8.864172486026108 89.59000550547329 3.931825399398848
    vertex 8.748070744235337 85.59000169077602 3.6671419143677206
    vertex 8.864172486026108 85.59000169077602 3.931825399398848
  endloop
endfacet
facet normal -0.9157723073716453 0.0 0.40169774837707617
  outer loop
    vertex 8.748070744235337 85.59000169077602 3.6671419143677206
    vertex 8.864172486026108 89.59000550547329 3.931825399398848
    vertex 8.748070744235337 89.59000550547329 3.6671419143677206
  endloop
endfacet
facet normal -0.9694009006494492 0.0 0.24548298071360616
  outer loop
    vertex 8.935123947818102 89.59000550547329 4.212009429931685
    vertex 8.864172486026108 85.59000169077602 3.931825399398848
    vertex 8.935123947818102 85.59000169077602 4.212009429931685
  endloop
endfacet
facet normal -0.9694009006494492 0.0 0.24548298071360616
  outer loop
    vertex 8.864172486026108 85.59000169077602 3.931825399398848
    vertex 8.935123947818102 89.59000550547329 4.212009429931685
    vertex 8.864172486026108 89.59000550547329 3.931825399398848
  endloop
endfacet
facet normal -0.9965843803284378 -8.208724216532375e-32 0.08258070528509524
  outer loop
    vertex 8.958992031771958 89.59000550547329 4.5000495910644975
    vertex 8.935123947818102 85.59000169077602 4.212009429931685
    vertex 8.958992031771958 85.59000169077602 4.5000495910644975
  endloop
endfacet
facet normal -0.9965843803284378 -8.208724216532375e-32 0.08258070528509524
  outer loop
    vertex 8.935123947818102 85.59000169077602 4.212009429931685
    vertex 8.958992031771958 89.59000550547329 4.5000495910644975
    vertex 8.935123947818102 89.59000550547329 4.212009429931685
  endloop
endfacet
facet normal -1.0 0.0 0.0
  outer loop
    vertex 8.958992031771958 89.59000550547329 7.5000495910644975
    vertex 8.958992031771958 85.59000169077602 4.5000495910644975
    vertex 8.958992031771958 85.59000169077602 7.5000495910644975
  endloop
endfacet
facet normal -1.0 0.0 0.0
  outer loop
    vertex 8.958992031771958 85.59000169077602 4.5000495910644975
    vertex 8.958992031771958 89.59000550547329 7.5000495910644975
    vertex 8.958992031771958 89.59000550547329 4.5000495910644975
  endloop
endfacet
facet normal -0.9965844028301803 0.0 -0.08258043373350013
  outer loop
    vertex 8.935123947818102 89.59000550547329 7.788090705871626
    vertex 8.958992031771958 85.59000169077602 7.5000495910644975
    vertex 8.935123947818102 85.59000169077602 7.788090705871626
  endloop
endfacet
facet normal -0.9965844028301803 0.0 -0.08258043373350013
  outer loop
    vertex 8.958992031771958 85.59000169077602 7.5000495910644975
    vertex 8.935123947818102 89.59000550547329 7.788090705871626
    vertex 8.958992031771958 89.59000550547329 7.5000495910644975
  endloop
endfacet
facet normal -0.9694008509394871 -5.365974876554812e-19 -0.24548317701585606
  outer loop
    vertex 8.864172486026108 89.59000550547329 8.068274497985884
    vertex 8.935123947818102 85.59000169077602 7.788090705871626
    vertex 8.864172486026108 85.59000169077602 8.068274497985884
  endloop
endfacet
facet normal -0.9694008509394871 -5.365974876554812e-19 -0.24548317701585606
  outer loop
    vertex 8.935123947818102 85.59000169077602 7.788090705871626
    vertex 8.864172486026108 89.59000550547329 8.068274497985884
    vertex 8.935123947818102 89.59000550547329 7.788090705871626
  endloop
endfacet
facet normal -0.9157724404780833 3.6412008752084e-30 -0.4016974449269195
  outer loop
    vertex 8.748070744235337 89.59000550547329 8.332958221435591
    vertex 8.864172486026108 85.59000169077602 8.068274497985884
    vertex 8.748070744235337 85.59000169077602 8.332958221435591
  endloop
endfacet
facet normal -0.9157724404780833 3.6412008752084e-30 -0.4016974449269195
  outer loop
    vertex 8.864172486026108 85.59000169077602 8.068274497985884
    vertex 8.748070744235337 89.59000550547329 8.332958221435591
    vertex 8.864172486026108 89.59000550547329 8.068274497985884
  endloop
endfacet
facet normal -0.8371668446410465 1.0873585959195124e-30 -0.546947597337948
  outer loop
    vertex 8.589987782199206 89.59000550547329 8.574922561645552
    vertex 8.748070744235337 85.59000169077602 8.332958221435591
    vertex 8.589987782199206 85.59000169077602 8.574922561645552
  endloop
endfacet
facet normal -0.8371668446410465 1.0873585959195124e-30 -0.546947597337948
  outer loop
    vertex 8.748070744235337 85.59000169077602 8.332958221435591
    vertex 8.589987782199206 89.59000550547329 8.574922561645552
    vertex 8.748070744235337 89.59000550547329 8.332958221435591
  endloop
endfacet
facet normal -0.7357239549192445 0.0 -0.677281523561647
  outer loop
    vertex 8.394234684665024 89.59000550547329 8.78756713867192
    vertex 8.589987782199206 85.59000169077602 8.574922561645552
    vertex 8.394234684665024 85.59000169077602 8.78756713867192
  endloop
endfacet
facet normal -0.7357239549192445 0.0 -0.677281523561647
  outer loop
    vertex 8.589987782199206 85.59000169077602 8.574922561645552
    vertex 8.394234684665024 89.59000550547329 8.78756713867192
    vertex 8.589987782199206 89.59000550547329 8.574922561645552
  endloop
endfacet
facet normal -0.6142126411832575 -1.7249688950613578e-18 -0.7891405650520618
  outer loop
    vertex 8.394234684665024 89.59000550547329 8.78756713867192
    vertex 8.166151074130356 85.59000169077602 8.96509170532231
    vertex 8.166151074130356 89.59000550547329 8.96509170532231
  endloop
endfacet
facet normal -0.6142126411832575 -1.7249688950613578e-18 -0.7891405650520618
  outer loop
    vertex 8.166151074130356 85.59000169077602 8.96509170532231
    vertex 8.394234684665024 89.59000550547329 8.78756713867192
    vertex 8.394234684665024 85.59000169077602 8.78756713867192
  endloop
endfacet
facet normal -0.4759467941672467 -1.7484375108666305e-30 -0.8794740752983687
  outer loop
    vertex 8.166151074130356 89.59000550547329 8.96509170532231
    vertex 7.911958721835435 85.59000169077602 9.102653503418013
    vertex 7.911958721835435 89.59000550547329 9.102653503418013
  endloop
endfacet
facet normal -0.4759467941672467 -1.7484375108666305e-30 -0.8794740752983687
  outer loop
    vertex 7.911958721835435 85.59000169077602 9.102653503418013
    vertex 8.166151074130356 89.59000550547329 8.96509170532231
    vertex 8.166151074130356 85.59000169077602 8.96509170532231
  endloop
endfacet
facet normal -0.3246969078564155 -1.0337238455187956e-18 -0.9458181210087289
  outer loop
    vertex 7.911958721835435 89.59000550547329 9.102653503418013
    vertex 7.638591316897689 85.59000169077602 9.19649982452397
    vertex 7.638591316897689 89.59000550547329 9.19649982452397
  endloop
endfacet
facet normal -0.3246969078564155 -1.0337238455187956e-18 -0.9458181210087289
  outer loop
    vertex 7.638591316897689 85.59000169077602 9.19649982452397
    vertex 7.911958721835435 89.59000550547329 9.102653503418013
    vertex 7.911958721835435 85.59000169077602 9.102653503418013
  endloop
endfacet
facet normal -0.16459695964920693 -3.272268126012018e-31 -0.9863609080221283
  outer loop
    vertex 7.638591316897689 89.59000550547329 9.19649982452397
    vertex 7.353505638797104 85.59000169077602 9.24407291412358
    vertex 7.353505638797104 89.59000550547329 9.24407291412358
  endloop
endfacet
facet normal -0.16459695964920693 -3.272268126012018e-31 -0.9863609080221283
  outer loop
    vertex 7.353505638797104 85.59000169077602 9.24407291412358
    vertex 7.638591316897689 89.59000550547329 9.19649982452397
    vertex 7.638591316897689 85.59000169077602 9.19649982452397
  endloop
endfacet
facet normal 0.0 0.0 -1.0
  outer loop
    vertex 7.353505638797104 89.59000550547329 9.24407291412358
    vertex 7.064477947909652 85.59000169077602 9.24407291412358
    vertex 7.064477947909652 89.59000550547329 9.24407291412358
  endloop
endfacet
facet normal 0.0 0.0 -1.0
  outer loop
    vertex 7.064477947909652 85.59000169077602 9.24407291412358
    vertex 7.353505638797104 89.59000550547329 9.24407291412358
    vertex 7.353505638797104 85.59000169077602 9.24407291412358
  endloop
endfacet
facet normal 0.16459695964920693 3.272268126012018e-31 -0.9863609080221283
  outer loop
    vertex 7.064477947909652 89.59000550547329 9.24407291412358
    vertex 6.779392269809067 85.59000169077602 9.19649982452397
    vertex 6.779392269809067 89.59000550547329 9.19649982452397
  endloop
endfacet
facet normal 0.16459695964920693 3.272268126012018e-31 -0.9863609080221283
  outer loop
    vertex 6.779392269809067 85.59000169077602 9.19649982452397
    vertex 7.064477947909652 89.59000550547329 9.24407291412358
    vertex 7.064477947909652 85.59000169077602 9.24407291412358
  endloop
endfacet
facet normal 0.3246969078564169 -6.455133463325388e-31 -0.9458181210087283
  outer loop
    vertex 6.779392269809067 89.59000550547329 9.19649982452397
    vertex 6.506024864871323 85.59000169077602 9.102653503418013
    vertex 6.506024864871323 89.59000550547329 9.102653503418013
  endloop
endfacet
facet normal 0.3246969078564169 -6.455133463325388e-31 -0.9458181210087283
  outer loop
    vertex 6.506024864871323 85.59000169077602 9.102653503418013
    vertex 6.779392269809067 89.59000550547329 9.19649982452397
    vertex 6.779392269809067 85.59000169077602 9.19649982452397
  endloop
endfacet
facet normal 0.4759467941672455 1.2753347489595148e-30 -0.8794740752983692
  outer loop
    vertex 6.506024864871323 89.59000550547329 9.102653503418013
    vertex 6.251832512576402 85.59000169077602 8.96509170532231
    vertex 6.251832512576402 89.59000550547329 8.96509170532231
  endloop
endfacet
facet normal 0.4759467941672455 1.2753347489595148e-30 -0.8794740752983692
  outer loop
    vertex 6.251832512576402 85.59000169077602 8.96509170532231
    vertex 6.506024864871323 89.59000550547329 9.102653503418013
    vertex 6.506024864871323 85.59000169077602 9.102653503418013
  endloop
endfacet
facet normal 0.6142126411832587 1.724968895060745e-18 -0.7891405650520606
  outer loop
    vertex 6.251832512576402 89.59000550547329 8.96509170532231
    vertex 6.023748902041734 85.59000169077602 8.78756713867192
    vertex 6.023748902041734 89.59000550547329 8.78756713867192
  endloop
endfacet
facet normal 0.6142126411832587 1.724968895060745e-18 -0.7891405650520606
  outer loop
    vertex 6.023748902041734 85.59000169077602 8.78756713867192
    vertex 6.251832512576402 89.59000550547329 8.96509170532231
    vertex 6.251832512576402 85.59000169077602 8.96509170532231
  endloop
endfacet
facet normal 0.7357239549192457 7.31327617580739e-31 -0.6772815235616455
  outer loop
    vertex 5.827995804507554 89.59000550547329 8.574922561645552
    vertex 6.023748902041734 85.59000169077602 8.78756713867192
    vertex 5.827995804507554 85.59000169077602 8.574922561645552
  endloop
endfacet
facet normal 0.7357239549192457 7.31327617580739e-31 -0.6772815235616455
  outer loop
    vertex 6.023748902041734 85.59000169077602 8.78756713867192
    vertex 5.827995804507554 89.59000550547329 8.574922561645552
    vertex 6.023748902041734 89.59000550547329 8.78756713867192
  endloop
endfacet
facet normal 0.8371664669310118 1.08735974526758e-30 -0.5469481754666043
  outer loop
    vertex 5.669912604052842 89.59000550547329 8.332958221435591
    vertex 5.827995804507554 85.59000169077602 8.574922561645552
    vertex 5.669912604052842 85.59000169077602 8.332958221435591
  endloop
endfacet
facet normal 0.8371664669310118 1.08735974526758e-30 -0.5469481754666043
  outer loop
    vertex 5.827995804507554 85.59000169077602 8.574922561645552
    vertex 5.669912604052842 89.59000550547329 8.332958221435591
    vertex 5.827995804507554 89.59000550547329 8.574922561645552
  endloop
endfacet
facet normal 0.9157733508264829 0.0 -0.4016953695476655
  outer loop
    vertex 5.553811577517808 89.59000550547329 8.068274497985884
    vertex 5.669912604052842 85.59000169077602 8.332958221435591
    vertex 5.553811577517808 85.59000169077602 8.068274497985884
  endloop
endfacet
facet normal 0.9157733508264829 0.0 -0.4016953695476655
  outer loop
    vertex 5.669912604052842 85.59000169077602 8.332958221435591
    vertex 5.553811577517808 89.59000550547329 8.068274497985884
    vertex 5.669912604052842 89.59000550547329 8.332958221435591
  endloop
endfacet
facet normal 0.9694002620298484 -5.366025710652249e-19 -0.24548550257899437
  outer loop
    vertex 5.482859400470079 89.59000550547329 7.788090705871626
    vertex 5.553811577517808 85.59000169077602 8.068274497985884
    vertex 5.482859400470079 85.59000169077602 7.788090705871626
  endloop
endfacet
facet normal 0.9694002620298484 -5.366025710652249e-19 -0.24548550257899437
  outer loop
    vertex 5.553811577517808 85.59000169077602 8.068274497985884
    vertex 5.482859400470079 89.59000550547329 7.788090705871626
    vertex 5.553811577517808 89.59000550547329 8.068274497985884
  endloop
endfacet
facet normal 0.9965845386042037 2.723021421210972e-19 -0.08257879519008822
  outer loop
    vertex 5.458991793353379 89.59000550547329 7.5000495910644975
    vertex 5.482859400470079 85.59000169077602 7.788090705871626
    vertex 5.458991793353379 85.59000169077602 7.5000495910644975
  endloop
endfacet
facet normal 0.9965845386042037 2.723021421210972e-19 -0.08257879519008822
  outer loop
    vertex 5.482859400470079 85.59000169077602 7.788090705871626
    vertex 5.458991793353379 89.59000550547329 7.5000495910644975
    vertex 5.482859400470079 89.59000550547329 7.788090705871626
  endloop
endfacet
facet normal 0.0 0.0 1.0
  outer loop
    vertex 23.20899346228343 52.482003219515946 25.00005149841313
    vertex 12.2089915549348 57.26000321665492 25.00005149841313
    vertex 12.2089915549348 52.482003219515946 25.00005149841313
  endloop
endfacet
facet normal 0.0 0.0 1.0
  outer loop
    vertex 12.2089915549348 57.26000321665492 25.00005149841313
    vertex 23.20899346228343 52.482003219515946 25.00005149841313
    vertex 23.20899346228343 57.26000321665492 25.00005149841313
  endloop
endfacet
facet normal -0.9965853306970373 0.0 -0.08256923542989393
  outer loop
    vertex 19.43512490149242 57.26000321665492 21.78809165954594
    vertex 19.45898964758617 52.482003219515946 21.50005149841313
    vertex 19.43512490149242 52.482003219515946 21.78809165954594
  endloop
endfacet
facet normal -0.9965853306970373 0.0 -0.08256923542989393
  outer loop
    vertex 19.45898964758617 52.482003219515946 21.50005149841313
    vertex 19.43512490149242 57.26000321665492 21.78809165954594
    vertex 19.45898964758617 57.26000321665492 21.50005149841313
  endloop
endfacet
facet normal -0.9693992805029734 0.0 -0.24548937850814995
  outer loop
    vertex 19.36417153235179 57.26000321665492 22.0682754516602
    vertex 19.43512490149242 52.482003219515946 21.78809165954594
    vertex 19.36417153235179 52.482003219515946 22.0682754516602
  endloop
endfacet
facet normal -0.9693992805029734 0.0 -0.24548937850814995
  outer loop
    vertex 19.43512490149242 52.482003219515946 21.78809165954594
    vertex 19.36417153235179 57.26000321665492 22.0682754516602
    vertex 19.43512490149242 57.26000321665492 21.78809165954594
  endloop
endfacet
facet normal -0.9157713011466704 0.0 -0.401700042315326
  outer loop
    vertex 19.248069313723864 57.26000321665492 22.33295822143559
    vertex 19.36417153235179 52.482003219515946 22.0682754516602
    vertex 19.248069313723864 52.482003219515946 22.33295822143559
  endloop
endfacet
facet normal -0.9157713011466704 0.0 -0.401700042315326
  outer loop
    vertex 19.36417153235179 52.482003219515946 22.0682754516602
    vertex 19.248069313723864 57.26000321665492 22.33295822143559
    vertex 19.36417153235179 57.26000321665492 22.0682754516602
  endloop
endfacet
facet normal -0.8371718404358004 0.0 -0.5469399506173732
  outer loop
    vertex 19.08998825903636 57.26000321665492 22.574924468994183
    vertex 19.248069313723864 52.482003219515946 22.33295822143559
    vertex 19.08998825903636 52.482003219515946 22.574924468994183
  endloop
endfacet
facet normal -0.8371718404358004 0.0 -0.5469399506173732
  outer loop
    vertex 19.248069313723864 52.482003219515946 22.33295822143559
    vertex 19.08998825903636 57.26000321665492 22.574924468994183
    vertex 19.248069313723864 57.26000321665492 22.33295822143559
  endloop
endfacet
facet normal -0.7357209277807815 0.0 -0.677284811896285
  outer loop
    vertex 18.89423516150218 57.26000321665492 22.787567138671918
    vertex 19.08998825903636 52.482003219515946 22.574924468994183
    vertex 18.89423516150218 52.482003219515946 22.787567138671918
  endloop
endfacet
facet normal -0.7357209277807815 0.0 -0.677284811896285
  outer loop
    vertex 19.08998825903636 52.482003219515946 22.574924468994183
    vertex 18.89423516150218 57.26000321665492 22.787567138671918
    vertex 19.08998825903636 57.26000321665492 22.574924468994183
  endloop
endfacet
facet normal -0.6142110418730573 0.0 -0.7891418098423207
  outer loop
    vertex 18.89423516150218 57.26000321665492 22.787567138671918
    vertex 18.666150597293196 52.482003219515946 22.96509170532231
    vertex 18.666150597293196 57.26000321665492 22.96509170532231
  endloop
endfacet
facet normal -0.6142110418730573 0.0 -0.7891418098423207
  outer loop
    vertex 18.666150597293196 52.482003219515946 22.96509170532231
    vertex 18.89423516150218 57.26000321665492 22.787567138671918
    vertex 18.89423516150218 52.482003219515946 22.787567138671918
  endloop
endfacet
facet normal -0.4759467941672504 0.0 -0.8794740752983666
  outer loop
    vertex 18.666150597293196 57.26000321665492 22.96509170532231
    vertex 18.411958244998278 52.482003219515946 23.10265350341801
    vertex 18.411958244998278 57.26000321665492 23.10265350341801
  endloop
endfacet
facet normal -0.4759467941672504 0.0 -0.8794740752983666
  outer loop
    vertex 18.411958244998278 52.482003219515946 23.10265350341801
    vertex 18.666150597293196 57.26000321665492 22.96509170532231
    vertex 18.666150597293196 52.482003219515946 22.96509170532231
  endloop
endfacet
facet normal -0.32470036624352533 0.0 -0.9458169337463359
  outer loop
    vertex 18.411958244998278 57.26000321665492 23.10265350341801
    vertex 18.13859131689769 52.482003219515946 23.196500778198285
    vertex 18.13859131689769 57.26000321665492 23.196500778198285
  endloop
endfacet
facet normal -0.32470036624352533 0.0 -0.9458169337463359
  outer loop
    vertex 18.13859131689769 52.482003219515946 23.196500778198285
    vertex 18.411958244998278 57.26000321665492 23.10265350341801
    vertex 18.411958244998278 52.482003219515946 23.10265350341801
  endloop
endfacet
facet normal -0.16459695964920612 0.0 -0.9863609080221285
  outer loop
    vertex 18.13859131689769 57.26000321665492 23.196500778198285
    vertex 17.853505638797103 52.482003219515946 23.244073867797894
    vertex 17.853505638797103 57.26000321665492 23.244073867797894
  endloop
endfacet
facet normal -0.16459695964920612 0.0 -0.9863609080221285
  outer loop
    vertex 17.853505638797103 52.482003219515946 23.244073867797894
    vertex 18.13859131689769 57.26000321665492 23.196500778198285
    vertex 18.13859131689769 52.482003219515946 23.196500778198285
  endloop
endfacet
facet normal 0.0 0.0 -1.0
  outer loop
    vertex 17.853505638797103 57.26000321665492 23.244073867797894
    vertex 17.564478424746813 52.482003219515946 23.244073867797894
    vertex 17.564478424746813 57.26000321665492 23.244073867797894
  endloop
endfacet
facet normal 0.0 0.0 -1.0
  outer loop
    vertex 17.564478424746813 52.482003219515946 23.244073867797894
    vertex 17.853505638797103 57.26000321665492 23.244073867797894
    vertex 17.853505638797103 52.482003219515946 23.244073867797894
  endloop
endfacet
facet normal 0.16459695964920615 0.0 -0.9863609080221285
  outer loop
    vertex 17.564478424746813 57.26000321665492 23.244073867797894
    vertex 17.279392746646227 52.482003219515946 23.196500778198285
    vertex 17.279392746646227 57.26000321665492 23.196500778198285
  endloop
endfacet
facet normal 0.16459695964920615 0.0 -0.9863609080221285
  outer loop
    vertex 17.279392746646227 52.482003219515946 23.196500778198285
    vertex 17.564478424746813 57.26000321665492 23.244073867797894
    vertex 17.564478424746813 52.482003219515946 23.244073867797894
  endloop
endfacet
facet normal 0.32470036624352533 0.0 -0.9458169337463359
  outer loop
    vertex 17.279392746646227 57.26000321665492 23.196500778198285
    vertex 17.006025818545638 52.482003219515946 23.10265350341801
    vertex 17.006025818545638 57.26000321665492 23.10265350341801
  endloop
endfacet
facet normal 0.32470036624352533 0.0 -0.9458169337463359
  outer loop
    vertex 17.006025818545638 52.482003219515946 23.10265350341801
    vertex 17.279392746646227 57.26000321665492 23.196500778198285
    vertex 17.279392746646227 52.482003219515946 23.196500778198285
  endloop
endfacet
facet normal 0.4759467941672504 0.0 -0.8794740752983666
  outer loop
    vertex 17.006025818545638 57.26000321665492 23.10265350341801
    vertex 16.75183346625072 52.482003219515946 22.96509170532231
    vertex 16.75183346625072 57.26000321665492 22.96509170532231
  endloop
endfacet
facet normal 0.4759467941672504 0.0 -0.8794740752983666
  outer loop
    vertex 16.75183346625072 52.482003219515946 22.96509170532231
    vertex 17.006025818545638 57.26000321665492 23.10265350341801
    vertex 17.006025818545638 52.482003219515946 23.10265350341801
  endloop
endfacet
facet normal 0.6142126411832545 0.0 -0.789140565052064
  outer loop
    vertex 16.75183346625072 57.26000321665492 22.96509170532231
    vertex 16.52374985571605 52.482003219515946 22.787567138671918
    vertex 16.52374985571605 57.26000321665492 22.787567138671918
  endloop
endfacet
facet normal 0.6142126411832545 0.0 -0.789140565052064
  outer loop
    vertex 16.52374985571605 52.482003219515946 22.787567138671918
    vertex 16.75183346625072 57.26000321665492 22.96509170532231
    vertex 16.75183346625072 52.482003219515946 22.96509170532231
  endloop
endfacet
facet normal 0.7357209277807815 0.0 -0.677284811896285
  outer loop
    vertex 16.327996758181868 57.26000321665492 22.574924468994183
    vertex 16.52374985571605 52.482003219515946 22.787567138671918
    vertex 16.327996758181868 52.482003219515946 22.574924468994183
  endloop
endfacet
facet normal 0.7357209277807815 0.0 -0.677284811896285
  outer loop
    vertex 16.52374985571605 52.482003219515946 22.787567138671918
    vertex 16.327996758181868 57.26000321665492 22.574924468994183
    vertex 16.52374985571605 57.26000321665492 22.787567138671918
  endloop
endfacet
facet normal 0.8371673079565424 0.0 -0.5469468881790953
  outer loop
    vertex 16.169912842471422 57.26000321665492 22.33295822143559
    vertex 16.327996758181868 52.482003219515946 22.574924468994183
    vertex 16.169912842471422 52.482003219515946 22.33295822143559
  endloop
endfacet
facet normal 0.8371673079565424 0.0 -0.5469468881790953
  outer loop
    vertex 16.327996758181868 52.482003219515946 22.574924468994183
    vertex 16.169912842471422 57.26000321665492 22.33295822143559
    vertex 16.327996758181868 57.26000321665492 22.574924468994183
  endloop
endfacet
facet normal 0.915773728754374 0.0 -0.40169450795761513
  outer loop
    vertex 16.053812531192126 57.26000321665492 22.0682754516602
    vertex 16.169912842471422 52.482003219515946 22.33295822143559
    vertex 16.053812531192126 52.482003219515946 22.0682754516602
  endloop
endfacet
facet normal 0.915773728754374 0.0 -0.40169450795761513
  outer loop
    vertex 16.169912842471422 52.482003219515946 22.33295822143559
    vertex 16.053812531192126 57.26000321665492 22.0682754516602
    vertex 16.169912842471422 57.26000321665492 22.33295822143559
  endloop
endfacet
facet normal 0.9694000657255544 0.0 -0.24548627776576645
  outer loop
    vertex 15.982860115725817 57.26000321665492 21.78809165954594
    vertex 16.053812531192126 52.482003219515946 22.0682754516602
    vertex 15.982860115725817 52.482003219515946 21.78809165954594
  endloop
endfacet
facet normal 0.9694000657255544 0.0 -0.24548627776576645
  outer loop
    vertex 16.053812531192126 52.482003219515946 22.0682754516602
    vertex 15.982860115725817 57.26000321665492 21.78809165954594
    vertex 16.053812531192126 57.26000321665492 22.0682754516602
  endloop
endfacet
facet normal 0.9965845161033513 0.0 -0.08257906673636661
  outer loop
    vertex 15.958992508609118 57.26000321665492 21.50005149841313
    vertex 15.982860115725817 52.482003219515946 21.78809165954594
    vertex 15.958992508609118 52.482003219515946 21.50005149841313
  endloop
endfacet
facet normal 0.9965845161033513 0.0 -0.08257906673636661
  outer loop
    vertex 15.982860115725817 52.482003219515946 21.78809165954594
    vertex 15.958992508609118 57.26000321665492 21.50005149841313
    vertex 15.982860115725817 57.26000321665492 21.78809165954594
  endloop
endfacet
facet normal -1.0 0.0 0.0
  outer loop
    vertex 19.45898964758617 57.26000321665492 21.50005149841313
    vertex 19.45898964758617 52.482003219515946 18.500049591064496
    vertex 19.45898964758617 52.482003219515946 21.50005149841313
  endloop
endfacet
facet normal -1.0 0.0 0.0
  outer loop
    vertex 19.45898964758617 52.482003219515946 18.500049591064496
    vertex