solid Base Mount
facet normal 0.7247106740230136 0.0 -0.6890532918121133
  outer loop
    vertex 144.35282316280077 90.76742951559758 1.0074992179870603
    vertex 144.82109203410815 49.76742951559759 1.5000002384185789
    vertex 144.35282316280077 49.76742951559759 1.0074992179870603
  endloop
endfacet
facet normal 0.7247106740230136 0.0 -0.6890532918121133
  outer loop
    vertex 144.82109203410815 49.76742951559759 1.5000002384185789
    vertex 144.35282316280077 90.76742951559758 1.0074992179870603
    vertex 144.82109203410815 90.76742951559758 1.5000002384185789
  endloop
endfacet
facet normal 0.5976064001140506 0.0 -0.8017896173827178
  outer loop
    vertex 144.35282316280077 90.76742951559758 1.0074992179870603
    vertex 143.80793943477343 49.76742951559759 0.6013752222061156
    vertex 143.80793943477343 90.76742951559758 0.6013752222061156
  endloop
endfacet
facet normal 0.5976064001140506 0.0 -0.8017896173827178
  outer loop
    vertex 143.80793943477343 49.76742951559759 0.6013752222061156
    vertex 144.35282316280077 90.76742951559758 1.0074992179870603
    vertex 144.35282316280077 49.76742951559759 1.0074992179870603
  endloop
endfacet
facet normal 0.4532545607427253 0.0 -0.8913811211630629
  outer loop
    vertex 143.80793943477343 90.76742951559758 0.6013752222061156
    vertex 143.2021721847124 49.76742951559759 0.2933512330055236
    vertex 143.2021721847124 90.76742951559758 0.2933512330055236
  endloop
endfacet
facet normal 0.4532545607427253 0.0 -0.8913811211630629
  outer loop
    vertex 143.2021721847124 49.76742951559759 0.2933512330055236
    vertex 143.80793943477343 90.76742951559758 0.6013752222061156
    vertex 143.80793943477343 49.76742951559759 0.6013752222061156
  endloop
endfacet
facet normal 0.2958182001097735 0.0 -0.955244258021902
  outer loop
    vertex 143.2021721847124 90.76742951559758 0.2933512330055236
    vertex 142.5530046470232 49.76742951559759 0.09231828153133391
    vertex 142.5530046470232 90.76742951559758 0.09231828153133391
  endloop
endfacet
facet normal 0.2958182001097735 0.0 -0.955244258021902
  outer loop
    vertex 142.5530046470232 49.76742951559759 0.09231828153133391
    vertex 143.2021721847124 90.76742951559758 0.2933512330055236
    vertex 143.2021721847124 49.76742951559759 0.2933512330055236
  endloop
endfacet
facet normal 0.12984357395202167 0.0 -0.9915344907280663
  outer loop
    vertex 142.5530046470232 90.76742951559758 0.09231828153133391
    vertex 141.8791741378374 49.76742951559759 0.004078727215528488
    vertex 141.8791741378374 90.76742951559758 0.004078727215528488
  endloop
endfacet
facet normal 0.12984357395202167 0.0 -0.9915344907280663
  outer loop
    vertex 141.8791741378374 49.76742951559759 0.004078727215528488
    vertex 142.5530046470232 90.76742951559758 0.09231828153133391
    vertex 142.5530046470232 49.76742951559759 0.09231828153133391
  endloop
endfacet
facet normal -0.03987823191320529 0.0 -0.9992045469369507
  outer loop
    vertex 141.8791741378374 90.76742951559758 0.004078727215528488
    vertex 141.20013203693102 49.76742951559759 0.031179282814264297
    vertex 141.20013203693102 90.76742951559758 0.031179282814264297
  endloop
endfacet
facet normal -0.03987823191320529 0.0 -0.9992045469369507
  outer loop
    vertex 141.20013203693102 49.76742951559759 0.031179282814264297
    vertex 141.8791741378374 90.76742951559758 0.004078727215528488
    vertex 141.8791741378374 49.76742951559759 0.004078727215528488
  endloop
endfacet
facet normal -0.20845052456981378 0.0 -0.9780329129464762
  outer loop
    vertex 141.20013203693102 90.76742951559758 0.031179282814264297
    vertex 140.53547706676196 49.76742951559759 0.17283880710601807
    vertex 140.53547706676196 90.76742951559758 0.17283880710601807
  endloop
endfacet
facet normal -0.20845052456981378 0.0 -0.9780329129464762
  outer loop
    vertex 140.53547706676196 49.76742951559759 0.17283880710601807
    vertex 141.20013203693102 90.76742951559758 0.031179282814264297
    vertex 141.20013203693102 49.76742951559759 0.031179282814264297
  endloop
endfacet
facet normal -0.3710051763118656 0.0 -0.928630798083825
  outer loop
    vertex 140.53547706676196 90.76742951559758 0.17283880710601807
    vertex 139.9043959624834 49.76742951559759 0.4249673783779144
    vertex 139.9043959624834 90.76742951559758 0.4249673783779144
  endloop
endfacet
facet normal -0.3710051763118656 0.0 -0.928630798083825
  outer loop
    vertex 139.9043959624834 49.76742951559759 0.4249673783779144
    vertex 140.53547706676196 90.76742951559758 0.17283880710601807
    vertex 140.53547706676196 49.76742951559759 0.17283880710601807
  endloop
endfacet
facet normal -0.5228503555166178 0.0 -0.8524244868234054
  outer loop
    vertex 139.9043959624834 90.76742951559758 0.4249673783779144
    vertex 139.32510223460864 49.76742951559759 0.7802879214286803
    vertex 139.32510223460864 90.76742951559758 0.7802879214286803
  endloop
endfacet
facet normal -0.5228503555166178 0.0 -0.8524244868234054
  outer loop
    vertex 139.32510223460864 49.76742951559759 0.7802879214286803
    vertex 139.9043959624834 90.76742951559758 0.4249673783779144
    vertex 139.9043959624834 49.76742951559759 0.4249673783779144
  endloop
endfacet
facet normal -0.6596041211533665 0.0 -0.7516132006274872
  outer loop
    vertex 139.32510223460864 90.76742951559758 0.7802879214286803
    vertex 138.81431844306658 49.76742951559759 1.2285438776016235
    vertex 138.81431844306658 90.76742951559758 1.2285438776016235
  endloop
endfacet
facet normal -0.6596041211533665 0.0 -0.7516132006274872
  outer loop
    vertex 138.81431844306658 49.76742951559759 1.2285438776016235
    vertex 139.32510223460864 90.76742951559758 0.7802879214286803
    vertex 139.32510223460864 49.76742951559759 0.7802879214286803
  endloop
endfacet
facet normal -0.7773198967209084 0.0 -0.6291055381744753
  outer loop
    vertex 138.38678916764925 90.76742951559758 1.7567970752716062
    vertex 138.81431844306658 49.76742951559759 1.2285438776016235
    vertex 138.38678916764925 49.76742951559759 1.7567970752716062
  endloop
endfacet
facet normal -0.7773198967209084 0.0 -0.6291055381744753
  outer loop
    vertex 138.81431844306658 49.76742951559759 1.2285438776016235
    vertex 138.38678916764925 90.76742951559758 1.7567970752716062
    vertex 138.81431844306658 90.76742951559758 1.2285438776016235
  endloop
endfacet
facet normal -0.8725967366947059 0.0 -0.48844133231100545
  outer loop
    vertex 138.05485277844141 90.76742951559758 2.3497989177703857
    vertex 138.38678916764925 49.76742951559759 1.7567970752716062
    vertex 138.05485277844141 49.76742951559759 2.3497989177703857
  endloop
endfacet
facet normal -0.8725967366947059 0.0 -0.48844133231100545
  outer loop
    vertex 138.38678916764925 49.76742951559759 1.7567970752716062
    vertex 138.05485277844141 90.76742951559758 2.3497989177703857
    vertex 138.38678916764925 90.76742951559758 1.7567970752716062
  endloop
endfacet
facet normal -0.9426879249456145 0.0 -0.33367570508164324
  outer loop
    vertex 137.8280924953289 90.76742951559758 2.99043345451355
    vertex 138.05485277844141 49.76742951559759 2.3497989177703857
    vertex 137.8280924953289 49.76742951559759 2.99043345451355
  endloop
endfacet
facet normal -0.9426879249456145 0.0 -0.33367570508164324
  outer loop
    vertex 138.05485277844141 49.76742951559759 2.3497989177703857
    vertex 137.8280924953289 90.76742951559758 2.99043345451355
    vertex 138.05485277844141 90.76742951559758 2.3497989177703857
  endloop
endfacet
facet normal -0.9855673158028004 0.0 -0.16928398040353107
  outer loop
    vertex 137.71304994297694 90.76742951559758 3.660208463668823
    vertex 137.8280924953289 49.76742951559759 2.99043345451355
    vertex 137.71304994297694 49.76742951559759 3.660208463668823
  endloop
endfacet
facet normal -0.9855673158028004 0.0 -0.16928398040353107
  outer loop
    vertex 137.8280924953289 49.76742951559759 2.99043345451355
    vertex 137.71304994297694 90.76742951559758 3.660208463668823
    vertex 137.8280924953289 90.76742951559758 2.99043345451355
  endloop
endfacet
facet normal -1.0 0.0 0.0
  outer loop
    vertex 137.71304994297694 90.76742951559758 4.339791774749756
    vertex 137.71304994297694 49.76742951559759 3.660208463668823
    vertex 137.71304994297694 49.76742951559759 4.339791774749756
  endloop
endfacet
facet normal -1.0 0.0 0.0
  outer loop
    vertex 137.71304994297694 49.76742951559759 3.660208463668823
    vertex 137.71304994297694 90.76742951559758 4.339791774749756
    vertex 137.71304994297694 90.76742951559758 3.660208463668823
  endloop
endfacet
facet normal -0.9855673158028004 0.0 0.16928398040353096
  outer loop
    vertex 137.8280924953289 90.76742951559758 5.009566783905029
    vertex 137.71304994297694 49.76742951559759 4.339791774749756
    vertex 137.8280924953289 49.76742951559759 5.009566783905029
  endloop
endfacet
facet normal -0.9855673158028004 0.0 0.16928398040353096
  outer loop
    vertex 137.71304994297694 49.76742951559759 4.339791774749756
    vertex 137.8280924953289 90.76742951559758 5.009566783905029
    vertex 137.71304994297694 90.76742951559758 4.339791774749756
  endloop
endfacet
facet normal -0.9426879249456145 0.0 0.33367570508164324
  outer loop
    vertex 138.05485277844141 90.76742951559758 5.650201320648193
    vertex 137.8280924953289 49.76742951559759 5.009566783905029
    vertex 138.05485277844141 49.76742951559759 5.650201320648193
  endloop
endfacet
facet normal -0.9426879249456145 0.0 0.33367570508164324
  outer loop
    vertex 137.8280924953289 49.76742951559759 5.009566783905029
    vertex 138.05485277844141 90.76742951559758 5.650201320648193
    vertex 137.8280924953289 90.76742951559758 5.009566783905029
  endloop
endfacet
facet normal -0.8725967366947057 0.0 0.4884413323110057
  outer loop
    vertex 138.38678916764925 90.76742951559758 6.243203163146972
    vertex 138.05485277844141 49.76742951559759 5.650201320648193
    vertex 138.38678916764925 49.76742951559759 6.243203163146972
  endloop
endfacet
facet normal -0.8725967366947057 0.0 0.4884413323110057
  outer loop
    vertex 138.05485277844141 49.76742951559759 5.650201320648193
    vertex 138.38678916764925 90.76742951559758 6.243203163146972
    vertex 138.05485277844141 90.76742951559758 5.650201320648193
  endloop
endfacet
facet normal -0.7773198272960741 0.0 0.6291056239554705
  outer loop
    vertex 138.81431844306658 90.76742951559758 6.771456241607666
    vertex 138.38678916764925 49.76742951559759 6.243203163146972
    vertex 138.81431844306658 49.76742951559759 6.771456241607666
  endloop
endfacet
facet normal -0.7773198272960741 0.0 0.6291056239554705
  outer loop
    vertex 138.38678916764925 49.76742951559759 6.243203163146972
    vertex 138.81431844306658 90.76742951559758 6.771456241607666
    vertex 138.38678916764925 90.76742951559758 6.243203163146972
  endloop
endfacet
facet normal -0.6596041707013685 0.0 0.7516131571449239
  outer loop
    vertex 139.32510223460864 49.76742951559759 7.219712257385253
    vertex 138.81431844306658 90.76742951559758 6.771456241607666
    vertex 138.81431844306658 49.76742951559759 6.771456241607666
  endloop
endfacet
facet normal -0.6596041707013685 0.0 0.7516131571449239
  outer loop
    vertex 138.81431844306658 90.76742951559758 6.771456241607666
    vertex 139.32510223460864 49.76742951559759 7.219712257385253
    vertex 139.32510223460864 90.76742951559758 7.219712257385253
  endloop
endfacet
facet normal -0.5228507697663068 0.0 0.8524242327355437
  outer loop
    vertex 139.9043959624834 49.76742951559759 7.57503318786621
    vertex 139.32510223460864 90.76742951559758 7.219712257385253
    vertex 139.32510223460864 49.76742951559759 7.219712257385253
  endloop
endfacet
facet normal -0.5228507697663068 0.0 0.8524242327355437
  outer loop
    vertex 139.32510223460864 90.76742951559758 7.219712257385253
    vertex 139.9043959624834 49.76742951559759 7.57503318786621
    vertex 139.9043959624834 90.76742951559758 7.57503318786621
  endloop
endfacet
facet normal -0.3710052141294832 0.0 0.9286307829749865
  outer loop
    vertex 140.53547706676196 49.76742951559759 7.827161788940429
    vertex 139.9043959624834 90.76742951559758 7.57503318786621
    vertex 139.9043959624834 49.76742951559759 7.57503318786621
  endloop
endfacet
facet normal -0.3710052141294832 0.0 0.9286307829749865
  outer loop
    vertex 139.9043959624834 90.76742951559758 7.57503318786621
    vertex 140.53547706676196 49.76742951559759 7.827161788940429
    vertex 140.53547706676196 90.76742951559758 7.827161788940429
  endloop
endfacet
facet normal -0.20844948110574424 0.0 0.9780331353419199
  outer loop
    vertex 141.20013203693102 49.76742951559759 7.968820571899413
    vertex 140.53547706676196 90.76742951559758 7.827161788940429
    vertex 140.53547706676196 49.76742951559759 7.827161788940429
  endloop
endfacet
facet normal -0.20844948110574424 0.0 0.9780331353419199
  outer loop
    vertex 140.53547706676196 90.76742951559758 7.827161788940429
    vertex 141.20013203693102 49.76742951559759 7.968820571899413
    vertex 141.20013203693102 90.76742951559758 7.968820571899413
  endloop
endfacet
facet normal -0.03987964395091276 0.0 0.9992044905815568
  outer loop
    vertex 141.8791741378374 49.76742951559759 7.995922088623047
    vertex 141.20013203693102 90.76742951559758 7.968820571899413
    vertex 141.20013203693102 49.76742951559759 7.968820571899413
  endloop
endfacet
facet normal -0.03987964395091276 0.0 0.9992044905815568
  outer loop
    vertex 141.20013203693102 90.76742951559758 7.968820571899413
    vertex 141.8791741378374 49.76742951559759 7.995922088623047
    vertex 141.8791741378374 90.76742951559758 7.995922088623047
  endloop
endfacet
facet normal 0.12984443085169864 0.0 0.9915343785148342
  outer loop
    vertex 142.5530046470232 49.76742951559759 7.907681941986083
    vertex 141.8791741378374 90.76742951559758 7.995922088623047
    vertex 141.8791741378374 49.76742951559759 7.995922088623047
  endloop
endfacet
facet normal 0.12984443085169864 0.0 0.9915343785148342
  outer loop
    vertex 141.8791741378374 90.76742951559758 7.995922088623047
    vertex 142.5530046470232 49.76742951559759 7.907681941986083
    vertex 142.5530046470232 90.76742951559758 7.907681941986083
  endloop
endfacet
facet normal 0.2958177799388354 0.0 0.9552443881395268
  outer loop
    vertex 143.2021721847124 49.76742951559759 7.706649303436279
    vertex 142.5530046470232 90.76742951559758 7.907681941986083
    vertex 142.5530046470232 49.76742951559759 7.907681941986083
  endloop
endfacet
facet normal 0.2958177799388354 0.0 0.9552443881395268
  outer loop
    vertex 142.5530046470232 90.76742951559758 7.907681941986083
    vertex 143.2021721847124 49.76742951559759 7.706649303436279
    vertex 143.2021721847124 90.76742951559758 7.706649303436279
  endloop
endfacet
facet normal 0.4532550485659456 0.0 0.8913808731117592
  outer loop
    vertex 143.80793943477343 49.76742951559759 7.398624897003173
    vertex 143.2021721847124 90.76742951559758 7.706649303436279
    vertex 143.2021721847124 49.76742951559759 7.706649303436279
  endloop
endfacet
facet normal 0.4532550485659456 0.0 0.8913808731117592
  outer loop
    vertex 143.2021721847124 90.76742951559758 7.706649303436279
    vertex 143.80793943477343 49.76742951559759 7.398624897003173
    vertex 143.80793943477343 90.76742951559758 7.398624897003173
  endloop
endfacet
facet normal 0.5976060618085927 0.0 0.8017898695354192
  outer loop
    vertex 144.35282316280077 49.76742951559759 6.992501258850097
    vertex 143.80793943477343 90.76742951559758 7.398624897003173
    vertex 143.80793943477343 49.76742951559759 7.398624897003173
  endloop
endfacet
facet normal 0.5976060618085927 0.0 0.8017898695354192
  outer loop
    vertex 143.80793943477343 90.76742951559758 7.398624897003173
    vertex 144.35282316280077 49.76742951559759 6.992501258850097
    vertex 144.35282316280077 90.76742951559758 6.992501258850097
  endloop
endfacet
facet normal 0.7247108405954261 0.0 0.6890531166198082
  outer loop
    vertex 144.82109203410815 90.76742951559758 6.499999999999999
    vertex 144.35282316280077 49.76742951559759 6.992501258850097
    vertex 144.82109203410815 49.76742951559759 6.499999999999999
  endloop
endfacet
facet normal 0.7247108405954261 0.0 0.6890531166198082
  outer loop
    vertex 144.35282316280077 49.76742951559759 6.992501258850097
    vertex 144.82109203410815 90.76742951559758 6.499999999999999
    vertex 144.35282316280077 90.76742951559758 6.992501258850097
  endloop
endfacet
facet normal 0.0 0.0 1.0
  outer loop
    vertex 178.5760907180376 49.76742951559759 6.499999999999999
    vertex 144.82109203410815 90.76742951559758 6.499999999999999
    vertex 144.82109203410815 49.76742951559759 6.499999999999999
  endloop
endfacet
facet normal 0.0 0.0 1.0
  outer loop
    vertex 144.82109203410815 90.76742951559758 6.499999999999999
    vertex 178.5760907180376 49.76742951559759 6.499999999999999
    vertex 178.5760907180376 90.76742951559758 6.499999999999999
  endloop
endfacet
facet normal -0.7247104902109378 0.0 0.6890534851361121
  outer loop
    vertex 179.04436006618212 90.76742951559758 6.992501258850097
    vertex 178.5760907180376 49.76742951559759 6.499999999999999
    vertex 179.04436006618212 49.76742951559759 6.992501258850097
  endloop
endfacet
facet normal -0.7247104902109378 0.0 0.6890534851361121
  outer loop
    vertex 178.5760907180376 49.76742951559759 6.499999999999999
    vertex 179.04436006618212 90.76742951559758 6.992501258850097
    vertex 178.5760907180376 90.76742951559758 6.499999999999999
  endloop
endfacet
facet normal -0.5976060618085957 0.0 0.8017898695354169
  outer loop
    vertex 179.58924379420944 49.76742951559759 7.398624897003173
    vertex 179.04436006618212 90.76742951559758 6.992501258850097
    vertex 179.04436006618212 49.76742951559759 6.992501258850097
  endloop
endfacet
facet normal -0.5976060618085957 0.0 0.8017898695354169
  outer loop
    vertex 179.04436006618212 90.76742951559758 6.992501258850097
    vertex 179.58924379420944 49.76742951559759 7.398624897003173
    vertex 179.58924379420944 90.76742951559758 7.398624897003173
  endloop
endfacet
facet normal -0.45325334764783703 0.0 0.8913817380034376
  outer loop
    vertex 180.19501390529345 49.76742951559759 7.706649303436279
    vertex 179.58924379420944 90.76742951559758 7.398624897003173
    vertex 179.58924379420944 49.76742951559759 7.398624897003173
  endloop
endfacet
facet normal -0.45325334764783703 0.0 0.8913817380034376
  outer loop
    vertex 179.58924379420944 90.76742951559758 7.398624897003173
    vertex 180.19501390529345 49.76742951559759 7.706649303436279
    vertex 180.19501390529345 90.76742951559758 7.706649303436279
  endloop
endfacet
facet normal -0.29581837476305967 0.0 0.9552442039355915
  outer loop
    vertex 180.84418001247118 49.76742951559759 7.907681941986083
    vertex 180.19501390529345 90.76742951559758 7.706649303436279
    vertex 180.19501390529345 49.76742951559759 7.706649303436279
  endloop
endfacet
facet normal -0.29581837476305967 0.0 0.9552442039355915
  outer loop
    vertex 180.19501390529345 90.76742951559758 7.706649303436279
    vertex 180.84418001247118 49.76742951559759 7.907681941986083
    vertex 180.84418001247118 90.76742951559758 7.907681941986083
  endloop
endfacet
facet normal -0.12984415984585393 0.0 0.991534414003833
  outer loop
    vertex 181.51801195216845 49.76742951559759 7.995922088623047
    vertex 180.84418001247118 90.76742951559758 7.907681941986083
    vertex 180.84418001247118 49.76742951559759 7.907681941986083
  endloop
endfacet
facet normal -0.12984415984585393 0.0 0.991534414003833
  outer loop
    vertex 180.84418001247118 90.76742951559758 7.907681941986083
    vertex 181.51801195216845 49.76742951559759 7.995922088623047
    vertex 181.51801195216845 90.76742951559758 7.995922088623047
  endloop
endfacet
facet normal 0.03987982569017065 0.0 0.9992044833280732
  outer loop
    vertex 182.1970509536333 49.76742951559759 7.968820571899413
    vertex 181.51801195216845 90.76742951559758 7.995922088623047
    vertex 181.51801195216845 49.76742951559759 7.995922088623047
  endloop
endfacet
facet normal 0.03987982569017065 0.0 0.9992044833280732
  outer loop
    vertex 181.51801195216845 90.76742951559758 7.995922088623047
    vertex 182.1970509536333 49.76742951559759 7.968820571899413
    vertex 182.1970509536333 90.76742951559758 7.968820571899413
  endloop
endfacet
facet normal 0.20844869434464589 0.0 0.9780333030250107
  outer loop
    vertex 182.86170854640673 49.76742951559759 7.827161788940429
    vertex 182.1970509536333 90.76742951559758 7.968820571899413
    vertex 182.1970509536333 49.76742951559759 7.968820571899413
  endloop
endfacet
facet normal 0.20844869434464589 0.0 0.9780333030250107
  outer loop
    vertex 182.1970509536333 90.76742951559758 7.968820571899413
    vertex 182.86170854640673 49.76742951559759 7.827161788940429
    vertex 182.86170854640673 90.76742951559758 7.827161788940429
  endloop
endfacet
facet normal 0.37100545587105555 0.0 0.92863068639471
  outer loop
    vertex 183.49278917384814 49.76742951559759 7.57503318786621
    vertex 182.86170854640673 90.76742951559758 7.827161788940429
    vertex 182.86170854640673 49.76742951559759 7.827161788940429
  endloop
endfacet
facet normal 0.37100545587105555 0.0 0.92863068639471
  outer loop
    vertex 182.86170854640673 90.76742951559758 7.827161788940429
    vertex 183.49278917384814 49.76742951559759 7.57503318786621
    vertex 183.49278917384814 90.76742951559758 7.57503318786621
  endloop
endfacet
facet normal 0.5228517079383289 0.0 0.8524236572890105
  outer loop
    vertex 184.07208147121142 49.76742951559759 7.219712257385253
    vertex 183.49278917384814 90.76742951559758 7.57503318786621
    vertex 183.49278917384814 49.76742951559759 7.57503318786621
  endloop
endfacet
facet normal 0.5228517079383289 0.0 0.8524236572890105
  outer loop
    vertex 183.49278917384814 90.76742951559758 7.57503318786621
    vertex 184.07208147121142 49.76742951559759 7.219712257385253
    vertex 184.07208147121142 90.76742951559758 7.219712257385253
  endloop
endfacet
facet normal 0.6596011269305773 0.0 0.7516158283005439
  outer loop
    vertex 184.5828694350786 49.76742951559759 6.771456241607666
    vertex 184.07208147121142 90.76742951559758 7.219712257385253
    vertex 184.07208147121142 49.76742951559759 7.219712257385253
  endloop
endfacet
facet normal 0.6596011269305773 0.0 0.7516158283005439
  outer loop
    vertex 184.07208147121142 90.76742951559758 7.219712257385253
    vertex 184.5828694350786 49.76742951559759 6.771456241607666
    vertex 184.5828694350786 90.76742951559758 6.771456241607666
  endloop
endfacet
facet normal 0.777320470653726 0.0 0.629104829025076
  outer loop
    vertex 185.01039781642626 90.76742951559758 6.243203163146972
    vertex 184.5828694350786 49.76742951559759 6.771456241607666
    vertex 185.01039781642626 49.76742951559759 6.243203163146972
  endloop
endfacet
facet normal 0.777320470653726 0.0 0.629104829025076
  outer loop
    vertex 184.5828694350786 49.76742951559759 6.771456241607666
    vertex 185.01039781642626 90.76742951559758 6.243203163146972
    vertex 184.5828694350786 90.76742951559758 6.771456241607666
  endloop
endfacet
facet normal 0.8725970544424462 0.0 0.48844076465664354
  outer loop
    vertex 185.34233369899462 90.76742951559758 5.650201320648193
    vertex 185.01039781642626 49.76742951559759 6.243203163146972
    vertex 185.34233369899462 49.76742951559759 5.650201320648193
  endloop
endfacet
facet normal 0.8725970544424462 0.0 0.48844076465664354
  outer loop
    vertex 185.01039781642626 49.76742951559759 6.243203163146972
    vertex 185.34233369899462 90.76742951559758 5.650201320648193
    vertex 185.01039781642626 90.76742951559758 6.243203163146972
  endloop
endfacet
facet normal 0.9426876559561829 0.0 0.33367646501939174
  outer loop
    vertex 185.56909456325243 90.76742951559758 5.009566783905029
    vertex 185.34233369899462 49.76742951559759 5.650201320648193
    vertex 185.56909456325243 49.76742951559759 5.009566783905029
  endloop
endfacet
facet normal 0.9426876559561829 0.0 0.33367646501939174
  outer loop
    vertex 185.34233369899462 49.76742951559759 5.650201320648193
    vertex 185.56909456325243 90.76742951559758 5.009566783905029
    vertex 185.34233369899462 90.76742951559758 5.650201320648193
  endloop
endfacet
facet normal 0.9855679852649172 0.0 0.16928008276478423
  outer loop
    vertex 185.6841343886919 90.76742951559758 4.339791774749756
    vertex 185.56909456325243 49.76742951559759 5.009566783905029
    vertex 185.6841343886919 49.76742951559759 4.339791774749756
  endloop
endfacet
facet normal 0.9855679852649172 0.0 0.16928008276478423
  outer loop
    vertex 185.56909456325243 49.76742951559759 5.009566783905029
    vertex 185.6841343886919 90.76742951559758 4.339791774749756
    vertex 185.56909456325243 90.76742951559758 5.009566783905029
  endloop
endfacet
facet normal 1.0 0.0 0.0
  outer loop
    vertex 185.6841343886919 90.76742951559758 3.660208463668823
    vertex 185.6841343886919 49.76742951559759 4.339791774749756
    vertex 185.6841343886919 49.76742951559759 3.660208463668823
  endloop
endfacet
facet normal 1.0 0.0 0.0
  outer loop
    vertex 185.6841343886919 49.76742951559759 4.339791774749756
    vertex 185.6841343886919 90.76742951559758 3.660208463668823
    vertex 185.6841343886919 90.76742951559758 4.339791774749756
  endloop
endfacet
facet normal 0.9855679852649171 0.0 -0.16928008276478426
  outer loop
    vertex 185.56909456325243 90.76742951559758 2.99043345451355
    vertex 185.6841343886919 49.76742951559759 3.660208463668823
    vertex 185.56909456325243 49.76742951559759 2.99043345451355
  endloop
endfacet
facet normal 0.9855679852649171 0.0 -0.16928008276478426
  outer loop
    vertex 185.6841343886919 49.76742951559759 3.660208463668823
    vertex 185.56909456325243 90.76742951559758 2.99043345451355
    vertex 185.6841343886919 90.76742951559758 3.660208463668823
  endloop
endfacet
facet normal 0.9426876559561829 0.0 -0.33367646501939174
  outer loop
    vertex 185.34233369899462 90.76742951559758 2.3497989177703857
    vertex 185.56909456325243 49.76742951559759 2.99043345451355
    vertex 185.34233369899462 49.76742951559759 2.3497989177703857
  endloop
endfacet
facet normal 0.9426876559561829 0.0 -0.33367646501939174
  outer loop
    vertex 185.56909456325243 49.76742951559759 2.99043345451355
    vertex 185.34233369899462 90.76742951559758 2.3497989177703857
    vertex 185.56909456325243 90.76742951559758 2.99043345451355
  endloop
endfacet
facet normal 0.8725970544424464 0.0 -0.4884407646566433
  outer loop
    vertex 185.01039781642626 90.76742951559758 1.7567970752716062
    vertex 185.34233369899462 49.76742951559759 2.3497989177703857
    vertex 185.01039781642626 49.76742951559759 1.7567970752716062
  endloop
endfacet
facet normal 0.8725970544424464 0.0 -0.4884407646566433
  outer loop
    vertex 185.34233369899462 49.76742951559759 2.3497989177703857
    vertex 185.01039781642626 90.76742951559758 1.7567970752716062
    vertex 185.34233369899462 90.76742951559758 2.3497989177703857
  endloop
endfacet
facet normal 0.7773205400784422 0.0 -0.6291047432440474
  outer loop
    vertex 184.5828694350786 90.76742951559758 1.2285438776016235
    vertex 185.01039781642626 49.76742951559759 1.7567970752716062
    vertex 184.5828694350786 49.76742951559759 1.2285438776016235
  endloop
endfacet
facet normal 0.7773205400784422 0.0 -0.6291047432440474
  outer loop
    vertex 185.01039781642626 49.76742951559759 1.7567970752716062
    vertex 184.5828694350786 90.76742951559758 1.2285438776016235
    vertex 185.01039781642626 90.76742951559758 1.7567970752716062
  endloop
endfacet
facet normal 0.6596010773824517 0.0 -0.7516158717828603
  outer loop
    vertex 184.5828694350786 90.76742951559758 1.2285438776016235
    vertex 184.07208147121142 49.76742951559759 0.7802879214286803
    vertex 184.07208147121142 90.76742951559758 0.7802879214286803
  endloop
endfacet
facet normal 0.6596010773824517 0.0 -0.7516158717828603
  outer loop
    vertex 184.07208147121142 49.76742951559759 0.7802879214286803
    vertex 184.5828694350786 90.76742951559758 1.2285438776016235
    vertex 184.5828694350786 49.76742951559759 1.2285438776016235
  endloop
endfacet
facet normal 0.5228512936884561 0.0 -0.8524239113776125
  outer loop
    vertex 184.07208147121142 90.76742951559758 0.7802879214286803
    vertex 183.49278917384814 49.76742951559759 0.4249673783779144
    vertex 183.49278917384814 90.76742951559758 0.4249673783779144
  endloop
endfacet
facet normal 0.5228512936884561 0.0 -0.8524239113776125
  outer loop
    vertex 183.49278917384814 49.76742951559759 0.4249673783779144
    vertex 184.07208147121142 90.76742951559758 0.7802879214286803
    vertex 184.07208147121142 49.76742951559759 0.7802879214286803
  endloop
endfacet
facet normal 0.37100541805342113 0.0 -0.9286307015035665
  outer loop
    vertex 183.49278917384814 90.76742951559758 0.4249673783779144
    vertex 182.86170854640673 49.76742951559759 0.17283880710601807
    vertex 182.86170854640673 90.76742951559758 0.17283880710601807
  endloop
endfacet
facet normal 0.37100541805342113 0.0 -0.9286307015035665
  outer loop
    vertex 182.86170854640673 49.76742951559759 0.17283880710601807
    vertex 183.49278917384814 90.76742951559758 0.4249673783779144
    vertex 183.49278917384814 49.76742951559759 0.4249673783779144
  endloop
endfacet
facet normal 0.20844973780513493 0.0 -0.9780330806312079
  outer loop
    vertex 182.86170854640673 90.76742951559758 0.17283880710601807
    vertex 182.1970509536333 49.76742951559759 0.031179282814264297
    vertex 182.1970509536333 90.76742951559758 0.031179282814264297
  endloop
endfacet
facet normal 0.20844973780513493 0.0 -0.9780330806312079
  outer loop
    vertex 182.1970509536333 49.76742951559759 0.031179282814264297
    vertex 182.86170854640673 90.76742951559758 0.17283880710601807
    vertex 182.86170854640673 49.76742951559759 0.17283880710601807
  endloop
endfacet
facet normal 0.03987841364604875 0.0 -0.9992045396839802
  outer loop
    vertex 182.1970509536333 90.76742951559758 0.031179282814264297
    vertex 181.51801195216845 49.76742951559759 0.004078727215528488
    vertex 181.51801195216845 90.76742951559758 0.004078727215528488
  endloop
endfacet
facet normal 0.03987841364604875 0.0 -0.9992045396839802
  outer loop
    vertex 181.51801195216845 49.76742951559759 0.004078727215528488
    vertex 182.1970509536333 90.76742951559758 0.031179282814264297
    vertex 182.1970509536333 49.76742951559759 0.031179282814264297
  endloop
endfacet
facet normal -0.12984330294790414 0.0 -0.9915345262166008
  outer loop
    vertex 181.51801195216845 90.76742951559758 0.004078727215528488
    vertex 180.84418001247118 49.76742951559759 0.09231828153133391
    vertex 180.84418001247118 90.76742951559758 0.09231828153133391
  endloop
endfacet
facet normal -0.12984330294790414 0.0 -0.9915345262166008
  outer loop
    vertex 180.84418001247118 49.76742951559759 0.09231828153133391
    vertex 181.51801195216845 90.76742951559758 0.004078727215528488
    vertex 181.51801195216845 49.76742951559759 0.004078727215528488
  endloop
endfacet
facet normal -0.2958187949346807 0.0 -0.9552440738174687
  outer loop
    vertex 180.84418001247118 90.76742951559758 0.09231828153133391
    vertex 180.19501390529345 49.76742951559759 0.2933512330055236
    vertex 180.19501390529345 90.76742951559758 0.2933512330055236
  endloop
endfacet
facet normal -0.2958187949346807 0.0 -0.9552440738174687
  outer loop
    vertex 180.19501390529345 49.76742951559759 0.2933512330055236
    vertex 180.84418001247118 90.76742951559758 0.09231828153133391
    vertex 180.84418001247118 49.76742951559759 0.09231828153133391
  endloop
endfacet
facet normal -0.4532528598255008 0.0 -0.8913819860531202
  outer loop
    vertex 180.19501390529345 90.76742951559758 0.2933512330055236
    vertex 179.58924379420944 49.76742951559759 0.6013752222061156
    vertex 179.58924379420944 90.76742951559758 0.6013752222061156
  endloop
endfacet
facet normal -0.4532528598255008 0.0 -0.8913819860531202
  outer loop
    vertex 179.58924379420944 49.76742951559759 0.6013752222061156
    vertex 180.19501390529345 90.76742951559758 0.2933512330055236
    vertex 180.19501390529345 49.76742951559759 0.2933512330055236
  endloop
endfacet
facet normal -0.5976064001140535 0.0 -0.8017896173827157
  outer loop
    vertex 179.58924379420944 90.76742951559758 0.6013752222061156
    vertex 179.04436006618212 49.76742951559759 1.0074992179870603
    vertex 179.04436006618212 90.76742951559758 1.0074992179870603
  endloop
endfacet
facet normal -0.5976064001140535 0.0 -0.8017896173827157
  outer loop
    vertex 179.04436006618212 49.76742951559759 1.0074992179870603
    vertex 179.58924379420944 90.76742951559758 0.6013752222061156
    vertex 179.58924379420944 49.76742951559759 0.6013752222061156
  endloop
endfacet
facet normal -0.7247103236384277 0.0 -0.6890536603283416
  outer loop
    vertex 178.5760907180376 90.76742951559758 1.5000002384185789
    vertex 179.04436006618212 49.76742951559759 1.0074992179870603
    vertex 178.5760907180376 49.76742951559759 1.5000002384185789
  endloop
endfacet
facet normal -0.7247103236384277 0.0 -0.6890536603283416
  outer loop
    vertex 179.04436006618212 49.76742951559759 1.0074992179870603
    vertex 178.5760907180376 90.76742951559758 1.5000002384185789
    vertex 179.04436006618212 90.76742951559758 1.0074992179870603
  endloop
endfacet
facet normal 0.0 0.0 -1.0
  outer loop
    vertex 178.5760907180376 90.76742951559758 1.5000002384185789
    vertex 144.82109203410815 49.76742951559759 1.5000002384185789
    vertex 144.82109203410815 90.76742951559758 1.5000002384185789
  endloop
endfacet
facet normal 0.0 0.0 -1.0
  outer loop
    vertex 144.82109203410815 49.76742951559759 1.5000002384185789
    vertex 178.5760907180376 90.76742951559758 1.5000002384185789
    vertex 178.5760907180376 49.76742951559759 1.5000002384185789
  endloop
endfacet
facet normal 1.6331515711493238e-31 1.0 8.82961000567279e-31
  outer loop
    vertex 141.20013203693102 90.76742951559758 0.031179282814264297
    vertex 142.5530046470232 90.76742951559758 0.09231828153133391
    vertex 141.8791741378374 90.76742951559758 0.004078727215528488
  endloop
endfacet
facet normal 1.6331515711493238e-31 1.0 8.82961000567279e-31
  outer loop
    vertex 142.5530046470232 90.76742951559758 0.09231828153133391
    vertex 141.20013203693102 90.76742951559758 0.031179282814264297
    vertex 140.53547706676196 90.76742951559758 0.17283880710601807
  endloop
endfacet
facet normal 1.6331515711493238e-31 1.0 8.82961000567279e-31
  outer loop
    vertex 142.5530046470232 90.76742951559758 0.09231828153133391
    vertex 140.53547706676196 90.76742951559758 0.17283880710601807
    vertex 143.2021721847124 90.76742951559758 0.2933512330055236
  endloop
endfacet
facet normal 1.6331515711493238e-31 1.0 8.82961000567279e-31
  outer loop
    vertex 143.2021721847124 90.76742951559758 0.2933512330055236
    vertex 140.53547706676196 90.76742951559758 0.17283880710601807
    vertex 139.9043959624834 90.76742951559758 0.4249673783779144
  endloop
endfacet
facet normal 1.6331515711493238e-31 1.0 8.82961000567279e-31
  outer loop
    vertex 143.2021721847124 90.76742951559758 0.2933512330055236
    vertex 139.9043959624834 90.76742951559758 0.4249673783779144
    vertex 143.80793943477343 90.76742951559758 0.6013752222061156
  endloop
endfacet
facet normal 1.6331515711493238e-31 1.0 8.82961000567279e-31
  outer loop
    vertex 143.80793943477343 90.76742951559758 0.6013752222061156
    vertex 139.9043959624834 90.76742951559758 0.4249673783779144
    vertex 139.32510223460864 90.76742951559758 0.7802879214286803
  endloop
endfacet
facet normal 1.6331515711493238e-31 1.0 8.82961000567279e-31
  outer loop
    vertex 143.80793943477343 90.76742951559758 0.6013752222061156
    vertex 139.32510223460864 90.76742951559758 0.7802879214286803
    vertex 144.35282316280077 90.76742951559758 1.0074992179870603
  endloop
endfacet
facet normal 1.6331515711493238e-31 1.0 8.82961000567279e-31
  outer loop
    vertex 144.35282316280077 90.76742951559758 1.0074992179870603
    vertex 139.32510223460864 90.76742951559758 0.7802879214286803
    vertex 138.81431844306658 90.76742951559758 1.2285438776016235
  endloop
endfacet
facet normal 1.6331515711493238e-31 1.0 8.82961000567279e-31
  outer loop
    vertex 144.35282316280077 90.76742951559758 1.0074992179870603
    vertex 138.81431844306658 90.76742951559758 1.2285438776016235
    vertex 144.82109203410815 90.76742951559758 1.5000002384185789
  endloop
endfacet
facet normal 1.6331515711493238e-31 1.0 8.82961000567279e-31
  outer loop
    vertex 144.82109203410815 90.76742951559758 1.5000002384185789
    vertex 138.81431844306658 90.76742951559758 1.2285438776016235
    vertex 138.38678916764925 90.76742951559758 1.7567970752716062
  endloop
endfacet
facet normal 1.6331515711493238e-31 1.0 8.82961000567279e-31
  outer loop
    vertex 144.82109203410815 90.76742951559758 1.5000002384185789
    vertex 138.38678916764925 90.76742951559758 1.7567970752716062
    vertex 178.5760907180376 90.76742951559758 1.5000002384185789
  endloop
endfacet
facet normal 1.6331515711493238e-31 1.0 8.82961000567279e-31
  outer loop
    vertex 180.84418001247118 90.76742951559758 0.09231828153133391
    vertex 182.1970509536333 90.76742951559758 0.031179282814264297
    vertex 181.51801195216845 90.76742951559758 0.004078727215528488
  endloop
endfacet
facet normal 1.6331515711493238e-31 1.0 8.82961000567279e-31
  outer loop
    vertex 182.1970509536333 90.76742951559758 0.031179282814264297
    vertex 180.84418001247118 90.76742951559758 0.09231828153133391
    vertex 182.86170854640673 90.76742951559758 0.17283880710601807
  endloop
endfacet
facet normal 1.6331515711493238e-31 1.0 8.82961000567279e-31
  outer loop
    vertex 182.86170854640673 90.76742951559758 0.17283880710601807
    vertex 180.84418001247118 90.76742951559758 0.09231828153133391
    vertex 180.19501390529345 90.76742951559758 0.2933512330055236
  endloop
endfacet
facet normal 1.6331515711493238e-31 1.0 8.82961000567279e-31
  outer loop
    vertex 182.86170854640673 90.76742951559758 0.17283880710601807
    vertex 180.19501390529345 90.76742951559758 0.2933512330055236
    vertex 183.49278917384814 90.76742951559758 0.4249673783779144
  endloop
endfacet
facet normal 1.6331515711493238e-31 1.0 8.82961000567279e-31
  outer loop
    vertex 183.49278917384814 90.76742951559758 0.4249673783779144
    vertex 180.19501390529345 90.76742951559758 0.2933512330055236
    vertex 179.58924379420944 90.76742951559758 0.6013752222061156
  endloop
endfacet
facet normal 1.6331515711493238e-31 1.0 8.82961000567279e-31
  outer loop
    vertex 183.49278917384814 90.76742951559758 0.4249673783779144
    vertex 179.58924379420944 90.76742951559758 0.6013752222061156
    vertex 184.07208147121142 90.76742951559758 0.7802879214286803
  endloop
endfacet
facet normal 1.6331515711493238e-31 1.0 8.82961000567279e-31
  outer loop
    vertex 184.07208147121142 90.76742951559758 0.7802879214286803
    vertex 179.58924379420944 90.76742951559758 0.6013752222061156
    vertex 179.04436006618212 90.76742951559758 1.0074992179870603
  endloop
endfacet
facet normal 1.6331515711493238e-31 1.0 8.82961000567279e-31
  outer loop
    vertex 184.07208147121142 90.76742951559758 0.7802879214286803
    vertex 179.04436006618212 90.76742951559758 1.0074992179870603
    vertex 184.5828694350786 90.76742951559758 1.2285438776016235
  endloop
endfacet
facet normal 1.6331515711493238e-31 1.0 8.82961000567279e-31
  outer loop
    vertex 184.5828694350786 90.76742951559758 1.2285438776016235
    vertex 179.04436006618212 90.76742951559758 1.0074992179870603
    vertex 178.5760907180376 90.76742951559758 1.5000002384185789
  endloop
endfacet
facet normal 1.6331515711493238e-31 1.0 8.82961000567279e-31
  outer loop
    vertex 184.5828694350786 90.76742951559758 1.2285438776016235
    vertex 178.5760907180376 90.76742951559758 1.5000002384185789
    vertex 185.01039781642626 90.76742951559758 1.7567970752716062
  endloop
endfacet
facet normal 1.6331515711493238e-31 1.0 8.82961000567279e-31
  outer loop
    vertex 185.01039781642626 90.76742951559758 1.7567970752716062
    vertex 178.5760907180376 90.76742951559758 1.5000002384185789
    vertex 138.38678916764925 90.76742951559758 1.7567970752716062
  endloop
endfacet
facet normal 1.6331515711493238e-31 1.0 8.82961000567279e-31
  outer loop
    vertex 185.01039781642626 90.76742951559758 1.7567970752716062
    vertex 138.38678916764925 90.76742951559758 1.7567970752716062
    vertex 138.05485277844141 90.76742951559758 2.3497989177703857
  endloop
endfacet
facet normal 1.6331515711493238e-31 1.0 8.82961000567279e-31
  outer loop
    vertex 185.01039781642626 90.76742951559758 1.7567970752716062
    vertex 138.05485277844141 90.76742951559758 2.3497989177703857
    vertex 185.34233369899462 90.76742951559758 2.3497989177703857
  endloop
endfacet
facet normal 1.6331515711493238e-31 1.0 8.82961000567279e-31
  outer loop
    vertex 185.34233369899462 90.76742951559758 2.3497989177703857
    vertex 138.05485277844141 90.76742951559758 2.3497989177703857
    vertex 137.8280924953289 90.76742951559758 2.99043345451355
  endloop
endfacet
facet normal 1.6331515711493238e-31 1.0 8.82961000567279e-31
  outer loop
    vertex 185.34233369899462 90.76742951559758 2.3497989177703857
    vertex 137.8280924953289 90.76742951559758 2.99043345451355
    vertex 185.56909456325243 90.76742951559758 2.99043345451355
  endloop
endfacet
facet normal 1.6331515711493238e-31 1.0 8.82961000567279e-31
  outer loop
    vertex 185.56909456325243 90.76742951559758 2.99043345451355
    vertex 137.8280924953289 90.76742951559758 2.99043345451355
    vertex 137.71304994297694 90.76742951559758 3.660208463668823
  endloop
endfacet
facet normal 1.6331515711493238e-31 1.0 8.82961000567279e-31
  outer loop
    vertex 185.56909456325243 90.76742951559758 2.99043345451355
    vertex 137.71304994297694 90.76742951559758 3.660208463668823
    vertex 185.6841343886919 90.76742951559758 3.660208463668823
  endloop
endfacet
facet normal 1.6331515711493238e-31 1.0 8.82961000567279e-31
  outer loop
    vertex 185.6841343886919 90.76742951559758 3.660208463668823
    vertex 137.71304994297694 90.76742951559758 3.660208463668823
    vertex 137.71304994297694 90.76742951559758 4.339791774749756
  endloop
endfacet
facet normal 1.6331515711493238e-31 1.0 8.82961000567279e-31
  outer loop
    vertex 185.6841343886919 90.76742951559758 3.660208463668823
    vertex 137.71304994297694 90.76742951559758 4.339791774749756
    vertex 185.6841343886919 90.76742951559758 4.339791774749756
  endloop
endfacet
facet normal 1.6331515711493238e-31 1.0 8.82961000567279e-31
  outer loop
    vertex 185.6841343886919 90.76742951559758 4.339791774749756
    vertex 137.71304994297694 90.76742951559758 4.339791774749756
    vertex 137.8280924953289 90.76742951559758 5.009566783905029
  endloop
endfacet
facet normal 1.6331515711493238e-31 1.0 8.82961000567279e-31
  outer loop
    vertex 185.6841343886919 90.76742951559758 4.339791774749756
    vertex 137.8280924953289 90.76742951559758 5.009566783905029
    vertex 185.56909456325243 90.76742951559758 5.009566783905029
  endloop
endfacet
facet normal 1.6331515711493238e-31 1.0 8.82961000567279e-31
  outer loop
    vertex 185.56909456325243 90.76742951559758 5.009566783905029
    vertex 137.8280924953289 90.76742951559758 5.009566783905029
    vertex 138.05485277844141 90.76742951559758 5.650201320648193
  endloop
endfacet
facet normal 1.6331515711493238e-31 1.0 8.82961000567279e-31
  outer loop
    vertex 185.56909456325243 90.76742951559758 5.009566783905029
    vertex 138.05485277844141 90.76742951559758 5.650201320648193
    vertex 185.34233369899462 90.76742951559758 5.650201320648193
  endloop
endfacet
facet normal 1.6331515711493238e-31 1.0 8.82961000567279e-31
  outer loop
    vertex 185.34233369899462 90.76742951559758 5.650201320648193
    vertex 138.05485277844141 90.76742951559758 5.650201320648193
    vertex 138.38678916764925 90.76742951559758 6.243203163146972
  endloop
endfacet
facet normal 1.6331515711493238e-31 1.0 8.82961000567279e-31
  outer loop
    vertex 185.34233369899462 90.76742951559758 5.650201320648193
    vertex 138.38678916764925 90.76742951559758 6.243203163146972
    vertex 185.01039781642626 90.76742951559758 6.243203163146972
  endloop
endfacet
facet normal 1.6331515711493238e-31 1.0 8.82961000567279e-31
  outer loop
    vertex 185.01039781642626 90.76742951559758 6.243203163146972
    vertex 138.38678916764925 90.76742951559758 6.243203163146972
    vertex 144.82109203410815 90.76742951559758 6.499999999999999
  endloop
endfacet
facet normal 1.6331515711493238e-31 1.0 8.82961000567279e-31
  outer loop
    vertex 144.82109203410815 90.76742951559758 6.499999999999999
    vertex 138.38678916764925 90.76742951559758 6.243203163146972
    vertex 138.81431844306658 90.76742951559758 6.771456241607666
  endloop
endfacet
facet normal 1.6331515711493238e-31 1.0 8.82961000567279e-31
  outer loop
    vertex 144.82109203410815 90.76742951559758 6.499999999999999
    vertex 138.81431844306658 90.76742951559758 6.771456241607666
    vertex 144.35282316280077 90.76742951559758 6.992501258850097
  endloop
endfacet
facet normal 1.6331515711493238e-31 1.0 8.82961000567279e-31
  outer loop
    vertex 144.35282316280077 90.76742951559758 6.992501258850097
    vertex 138.81431844306658 90.76742951559758 6.771456241607666
    vertex 139.32510223460864 90.76742951559758 7.219712257385253
  endloop
endfacet
facet normal 1.6331515711493238e-31 1.0 8.82961000567279e-31
  outer loop
    vertex 144.35282316280077 90.76742951559758 6.992501258850097
    vertex 139.32510223460864 90.76742951559758 7.219712257385253
    vertex 143.80793943477343 90.76742951559758 7.398624897003173
  endloop
endfacet
facet normal 1.6331515711493238e-31 1.0 8.82961000567279e-31
  outer loop
    vertex 143.80793943477343 90.76742951559758 7.398624897003173
    vertex 139.32510223460864 90.76742951559758 7.219712257385253
    vertex 139.9043959624834 90.76742951559758 7.57503318786621
  endloop
endfacet
facet normal 1.6331515711493238e-31 1.0 8.82961000567279e-31
  outer loop
    vertex 143.80793943477343 90.76742951559758 7.398624897003173
    vertex 139.9043959624834 90.76742951559758 7.57503318786621
    vertex 143.2021721847124 90.76742951559758 7.706649303436279
  endloop
endfacet
facet normal 1.6331515711493238e-31 1.0 8.82961000567279e-31
  outer loop
    vertex 143.2021721847124 90.76742951559758 7.706649303436279
    vertex 139.9043959624834 90.76742951559758 7.57503318786621
    vertex 140.53547706676196 90.76742951559758 7.827161788940429
  endloop
endfacet
facet normal 1.6331515711493238e-31 1.0 8.82961000567279e-31
  outer loop
    vertex 143.2021721847124 90.76742951559758 7.706649303436279
    vertex 140.53547706676196 90.76742951559758 7.827161788940429
    vertex 142.5530046470232 90.76742951559758 7.907681941986083
  endloop
endfacet
facet normal 1.6331515711493238e-31 1.0 8.82961000567279e-31
  outer loop
    vertex 142.5530046470232 90.76742951559758 7.907681941986083
    vertex 140.53547706676196 90.76742951559758 7.827161788940429
    vertex 141.20013203693102 90.76742951559758 7.968820571899413
  endloop
endfacet
facet normal 1.6331515711493238e-31 1.0 8.82961000567279e-31
  outer loop
    vertex 142.5530046470232 90.76742951559758 7.907681941986083
    vertex 141.20013203693102 90.76742951559758 7.968820571899413
    vertex 141.8791741378374 90.76742951559758 7.995922088623047
  endloop
endfacet
facet normal 1.6331515711493238e-31 1.0 8.82961000567279e-31
  outer loop
    vertex 185.01039781642626 90.76742951559758 6.243203163146972
    vertex 178.5760907180376 90.76742951559758 6.499999999999999
    vertex 184.5828694350786 90.76742951559758 6.771456241607666
  endloop
endfacet
facet normal 1.6331515711493238e-31 1.0 8.82961000567279e-31
  outer loop
    vertex 178.5760907180376 90.76742951559758 6.499999999999999
    vertex 185.01039781642626 90.76742951559758 6.243203163146972
    vertex 144.82109203410815 90.76742951559758 6.499999999999999
  endloop
endfacet
facet normal 1.6331515711493238e-31 1.0 8.82961000567279e-31
  outer loop
    vertex 184.5828694350786 90.76742951559758 6.771456241607666
    vertex 178.5760907180376 90.76742951559758 6.499999999999999
    vertex 179.04436006618212 90.76742951559758 6.992501258850097
  endloop
endfacet
facet normal 1.6331515711493238e-31 1.0 8.82961000567279e-31
  outer loop
    vertex 184.5828694350786 90.76742951559758 6.771456241607666
    vertex 179.04436006618212 90.76742951559758 6.992501258850097
    vertex 184.07208147121142 90.76742951559758 7.219712257385253
  endloop
endfacet
facet normal 1.6331515711493238e-31 1.0 8.82961000567279e-31
  outer loop
    vertex 184.07208147121142 90.76742951559758 7.219712257385253
    vertex 179.04436006618212 90.76742951559758 6.992501258850097
    vertex 179.58924379420944 90.76742951559758 7.398624897003173
  endloop
endfacet
facet normal 1.6331515711493238e-31 1.0 8.82961000567279e-31
  outer loop
    vertex 184.07208147121142 90.76742951559758 7.219712257385253
    vertex 179.58924379420944 90.76742951559758 7.398624897003173
    vertex 183.49278917384814 90.76742951559758 7.57503318786621
  endloop
endfacet
facet normal 1.6331515711493238e-31 1.0 8.82961000567279e-31
  outer loop
    vertex 183.49278917384814 90.76742951559758 7.57503318786621
    vertex 179.58924379420944 90.76742951559758 7.398624897003173
    vertex 180.19501390529345 90.76742951559758 7.706649303436279
  endloop
endfacet
facet normal 1.6331515711493238e-31 1.0 8.82961000567279e-31
  outer loop
    vertex 183.49278917384814 90.76742951559758 7.57503318786621
    vertex 180.19501390529345 90.76742951559758 7.706649303436279
    vertex 182.86170854640673 90.76742951559758 7.827161788940429
  endloop
endfacet
facet normal 1.6331515711493238e-31 1.0 8.82961000567279e-31
  outer loop
    vertex 182.86170854640673 90.76742951559758 7.827161788940429
    vertex 180.19501390529345 90.76742951559758 7.706649303436279
    vertex 180.84418001247118 90.76742951559758 7.907681941986083
  endloop
endfacet
facet normal 1.6331515711493238e-31 1.0 8.82961000567279e-31
  outer loop
    vertex 182.86170854640673 90.76742951559758 7.827161788940429
    vertex 180.84418001247118 90.76742951559758 7.907681941986083
    vertex 182.1970509536333 90.76742951559758 7.968820571899413
  endloop
endfacet
facet normal 1.6331515711493238e-31 1.0 8.82961000567279e-31
  outer loop
    vertex 182.1970509536333 90.76742951559758 7.968820571899413
    vertex 180.84418001247118 90.76742951559758 7.907681941986083
    vertex 181.51801195216845 90.76742951559758 7.995922088623047
  endloop
endfacet
facet normal 0.0 -1.0 0.0
  outer loop
    vertex 182.1970509536333 49.76742951559759 0.031179282814264297
    vertex 180.84418001247118 49.76742951559759 0.09231828153133391
    vertex 181.51801195216845 49.76742951559759 0.004078727215528488
  endloop
endfacet
facet normal 0.0 -1.0 0.0
  outer loop
    vertex 180.84418001247118 49.76742951559759 0.09231828153133391
    vertex 182.1970509536333 49.76742951559759 0.031179282814264297
    vertex 182.86170854640673 49.76742951559759 0.17283880710601807
  endloop
endfacet
facet normal 0.0 -1.0 0.0
  outer loop
    vertex 180.84418001247118 49.76742951559759 0.09231828153133391
    vertex 182.86170854640673 49.76742951559759 0.17283880710601807
    vertex 180.19501390529345 49.76742951559759 0.2933512330055236
  endloop
endfacet
facet normal 0.0 -1.0 0.0
  outer loop
    vertex 180.19501390529345 49.76742951559759 0.2933512330055236
    vertex 182.86170854640673 49.76742951559759 0.17283880710601807
    vertex 183.49278917384814 49.76742951559759 0.4249673783779144
  endloop
endfacet
facet normal 0.0 -1.0 0.0
  outer loop
    vertex 180.19501390529345 49.76742951559759 0.2933512330055236
    vertex 183.49278917384814 49.76742951559759 0.4249673783779144
    vertex 179.58924379420944 49.76742951559759 0.6013752222061156
  endloop
endfacet
facet normal 0.0 -1.0 0.0
  outer loop
    vertex 179.58924379420944 49.76742951559759 0.6013752222061156
    vertex 183.49278917384814 49.76742951559759 0.4249673783779144
    vertex 184.07208147121142 49.76742951559759 0.7802879214286803
  endloop
endfacet
facet normal 0.0 -1.0 0.0
  outer loop
    vertex 179.58924379420944 49.76742951559759 0.6013752222061156
    vertex 184.07208147121142 49.76742951559759 0.7802879214286803
    vertex 179.04436006618212 49.76742951559759 1.0074992179870603
  endloop
endfacet
facet normal 0.0 -1.0 0.0
  outer loop
    vertex 179.04436006618212 49.76742951559759 1.0074992179870603
    vertex 184.07208147121142 49.76742951559759 0.7802879214286803
    vertex 184.5828694350786 49.76742951559759 1.2285438776016235
  endloop
endfacet
facet normal 0.0 -1.0 0.0
  outer loop
    vertex 179.04436006618212 49.76742951559759 1.0074992179870603
    vertex 184.5828694350786 49.76742951559759 1.2285438776016235
    vertex 178.5760907180376 49.76742951559759 1.5000002384185789
  endloop
endfacet
facet normal 0.0 -1.0 0.0
  outer loop
    vertex 178.5760907180376 49.76742951559759 1.5000002384185789
    vertex 184.5828694350786 49.76742951559759 1.2285438776016235
    vertex 185.01039781642626 49.76742951559759 1.7567970752716062
  endloop
endfacet
facet normal 0.0 -1.0 0.0
  outer loop
    vertex 178.5760907180376 49.76742951559759 1.5000002384185789
    vertex 185.01039781642626 49.76742951559759 1.7567970752716062
    vertex 144.82109203410815 49.76742951559759 1.5000002384185789
  endloop
endfacet
facet normal 0.0 -1.0 0.0
  outer loop
    vertex 142.5530046470232 49.76742951559759 0.09231828153133391
    vertex 141.20013203693102 49.76742951559759 0.031179282814264297
    vertex 141.8791741378374 49.76742951559759 0.004078727215528488
  endloop
endfacet
facet normal 0.0 -1.0 0.0
  outer loop
    vertex 141.20013203693102 49.76742951559759 0.031179282814264297
    vertex 142.5530046470232 49.76742951559759 0.09231828153133391
    vertex 140.53547706676196 49.76742951559759 0.17283880710601807
  endloop
endfacet
facet normal 0.0 -1.0 0.0
  outer loop
    vertex 140.53547706676196 49.76742951559759 0.17283880710601807
    vertex 142.5530046470232 49.76742951559759 0.09231828153133391
    vertex 143.2021721847124 49.76742951559759 0.2933512330055236
  endloop
endfacet
facet normal 0.0 -1.0 0.0
  outer loop
    vertex 140.53547706676196 49.76742951559759 0.17283880710601807
    vertex 143.2021721847124 49.76742951559759 0.2933512330055236
    vertex 139.9043959624834 49.76742951559759 0.4249673783779144
  endloop
endfacet
facet normal 0.0 -1.0 0.0
  outer loop
    vertex 139.9043959624834 49.76742951559759 0.4249673783779144
    vertex 143.2021721847124 49.76742951559759 0.2933512330055236
    vertex 143.80793943477343 49.76742951559759 0.6013752222061156
  endloop
endfacet
facet normal 0.0 -1.0 0.0
  outer loop
    vertex 139.9043959624834 49.76742951559759 0.4249673783779144
    vertex 143.80793943477343 49.76742951559759 0.6013752222061156
    vertex 139.32510223460864 49.76742951559759 0.7802879214286803
  endloop
endfacet
facet normal 0.0 -1.0 0.0
  outer loop
    vertex 139.32510223460864 49.76742951559759 0.7802879214286803
    vertex 143.80793943477343 49.76742951559759 0.6013752222061156
    vertex 144.35282316280077 49.76742951559759 1.0074992179870603
  endloop
endfacet
facet normal 0.0 -1.0 0.0
  outer loop
    vertex 139.32510223460864 49.76742951559759 0.7802879214286803
    vertex 144.35282316280077 49.76742951559759 1.0074992179870603
    vertex 138.81431844306658 49.76742951559759 1.2285438776016235
  endloop
endfacet
facet normal 0.0 -1.0 0.0
  outer loop
    vertex 138.81431844306658 49.76742951559759 1.2285438776016235
    vertex 144.35282316280077 49.76742951559759 1.0074992179870603
    vertex 144.82109203410815 49.76742951559759 1.5000002384185789
  endloop
endfacet
facet normal 0.0 -1.0 0.0
  outer loop
    vertex 138.81431844306658 49.76742951559759 1.2285438776016235
    vertex 144.82109203410815 49.76742951559759 1.5000002384185789
    vertex 138.38678916764925 49.76742951559759 1.7567970752716062
  endloop
endfacet
facet normal 0.0 -1.0 0.0
  outer loop
    vertex 138.38678916764925 49.76742951559759 1.7567970752716062
    vertex 144.82109203410815 49.76742951559759 1.5000002384185789
    vertex 185.01039781642626 49.76742951559759 1.7567970752716062
  endloop
endfacet
facet normal 0.0 -1.0 0.0
  outer loop
    vertex 138.38678916764925 49.76742951559759 1.7567970752716062
    vertex 185.01039781642626 49.76742951559759 1.7567970752716062
    vertex 185.34233369899462 49.76742951559759 2.3497989177703857
  endloop
endfacet
facet normal 0.0 -1.0 0.0
  outer loop
    vertex 138.38678916764925 49.76742951559759 1.7567970752716062
    vertex 185.34233369899462 49.76742951559759 2.3497989177703857
    vertex 138.05485277844141 49.76742951559759 2.3497989177703857
  endloop
endfacet
facet normal 0.0 -1.0 0.0
  outer loop
    vertex 138.05485277844141 49.76742951559759 2.3497989177703857
    vertex 185.34233369899462 49.76742951559759 2.3497989177703857
    vertex 185.56909456325243 49.76742951559759 2.99043345451355
  endloop
endfacet
facet normal 0.0 -1.0 0.0
  outer loop
    vertex 138.05485277844141 49.76742951559759 2.3497989177703857
    vertex 185.56909456325243 49.76742951559759 2.99043345451355
    vertex 137.8280924953289 49.76742951559759 2.99043345451355
  endloop
endfacet
facet normal 0.0 -1.0 0.0
  outer loop
    vertex 137.8280924953289 49.76742951559759 2.99043345451355
    vertex 185.56909456325243 49.76742951559759 2.99043345451355
    vertex 185.6841343886919 49.76742951559759 3.660208463668823
  endloop
endfacet
facet normal 0.0 -1.0 0.0
  outer loop
    vertex 137.8280924953289 49.76742951559759 2.99043345451355
    vertex 185.6841343886919 49.76742951559759 3.660208463668823
    vertex 137.71304994297694 49.76742951559759 3.660208463668823
  endloop
endfacet
facet normal 0.0 -1.0 0.0
  outer loop
    vertex 137.71304994297694 49.76742951559759 3.660208463668823
    vertex 185.6841343886919 49.76742951559759 3.660208463668823
    vertex 185.6841343886919 49.76742951559759 4.339791774749756
  endloop
endfacet
facet normal 0.0 -1.0 0.0
  outer loop
    vertex 137.71304994297694 49.76742951559759 3.660208463668823
    vertex 185.6841343886919 49.76742951559759 4.339791774749756
    vertex 137.71304994297694 49.76742951559759 4.339791774749756
  endloop
endfacet
facet normal 0.0 -1.0 0.0
  outer loop
    vertex 137.71304994297694 49.76742951559759 4.339791774749756
    vertex 185.6841343886919 49.76742951559759 4.339791774749756
    vertex 185.56909456325243 49.76742951559759 5.009566783905029
  endloop
endfacet
facet normal 0.0 -1.0 0.0
  outer loop
    vertex 137.71304994297694 49.76742951559759 4.339791774749756
    vertex 185.56909456325243 49.76742951559759 5.009566783905029
    vertex 137.8280924953289 49.76742951559759 5.009566783905029
  endloop
endfacet
facet normal 0.0 -1.0 0.0
  outer loop
    vertex 137.8280924953289 49.76742951559759 5.009566783905029
    vertex 185.56909456325243 49.76742951559759 5.009566783905029
    vertex 185.34233369899462 49.76742951559759 5.650201320648193
  endloop
endfacet
facet normal 0.0 -1.0 0.0
  outer loop
    vertex 137.8280924953289 49.76742951559759 5.009566783905029
    vertex 185.34233369899462 49.76742951559759 5.650201320648193
    vertex 138.05485277844141 49.76742951559759 5.650201320648193
  endloop
endfacet
facet normal 0.0 -1.0 0.0
  outer loop
    vertex 138.05485277844141 49.76742951559759 5.650201320648193
    vertex 185.34233369899462 49.76742951559759 5.650201320648193
    vertex 185.01039781642626 49.76742951559759 6.243203163146972
  endloop
endfacet
facet normal 0.0 -1.0 0.0
  outer loop
    vertex 138.05485277844141 49.76742951559759 5.650201320648193
    vertex 185.01039781642626 49.76742951559759 6.243203163146972
    vertex 138.38678916764925 49.76742951559759 6.243203163146972
  endloop
endfacet
facet normal 0.0 -1.0 0.0
  outer loop
    vertex 138.38678916764925 49.76742951559759 6.243203163146972
    vertex 185.01039781642626 49.76742951559759 6.243203163146972
    vertex 178.5760907180376 49.76742951559759 6.499999999999999
  endloop
endfacet
facet normal 0.0 -1.0 0.0
  outer loop
    vertex 178.5760907180376 49.76742951559759 6.499999999999999
    vertex 185.01039781642626 49.76742951559759 6.243203163146972
    vertex 184.5828694350786 49.76742951559759 6.771456241607666
  endloop
endfacet
facet normal 0.0 -1.0 0.0
  outer loop
    vertex 178.5760907180376 49.76742951559759 6.499999999999999
    vertex 184.5828694350786 49.76742951559759 6.771456241607666
    vertex 179.04436006618212 49.76742951559759 6.992501258850097
  endloop
endfacet
facet normal 0.0 -1.0 0.0
  outer loop
    vertex 179.04436006618212 49.76742951559759 6.992501258850097
    vertex 184.5828694350786 49.76742951559759 6.771456241607666
    vertex 184.07208147121142 49.76742951559759 7.219712257385253
  endloop
endfacet
facet normal 0.0 -1.0 0.0
  outer loop
    vertex 179.04436006618212 49.76742951559759 6.992501258850097
    vertex 184.07208147121142 49.76742951559759 7.219712257385253
    vertex 179.58924379420944 49.76742951559759 7.398624897003173
  endloop
endfacet
facet normal 0.0 -1.0 0.0
  outer loop
    vertex 179.58924379420944 49.76742951559759 7.398624897003173
    vertex 184.07208147121142 49.76742951559759 7.219712257385253
    vertex 183.49278917384814 49.76742951559759 7.57503318786621
  endloop
endfacet
facet normal 0.0 -1.0 0.0
  outer loop
    vertex 179.58924379420944 49.76742951559759 7.398624897003173
    vertex 183.49278917384814 49.76742951559759 7.57503318786621
    vertex 180.19501390529345 49.76742951559759 7.706649303436279
  endloop
endfacet
facet normal 0.0 -1.0 0.0
  outer loop
    vertex 180.19501390529345 49.76742951559759 7.706649303436279
    vertex 183.49278917384814 49.76742951559759 7.57503318786621
    vertex 182.86170854640673 49.76742951559759 7.827161788940429
  endloop
endfacet
facet normal 0.0 -1.0 0.0
  outer loop
    vertex 180.19501390529345 49.76742951559759 7.706649303436279
    vertex 182.86170854640673 49.76742951559759 7.827161788940429
    vertex 180.84418001247118 49.76742951559759 7.907681941986083
  endloop
endfacet
facet normal 0.0 -1.0 0.0
  outer loop
    vertex 180.84418001247118 49.76742951559759 7.907681941986083
    vertex 182.86170854640673 49.76742951559759 7.827161788940429
    vertex 182.1970509536333 49.76742951559759 7.968820571899413
  endloop
endfacet
facet normal 0.0 -1.0 0.0
  outer loop
    vertex 180.84418001247118 49.76742951559759 7.907681941986083
    vertex 182.1970509536333 49.76742951559759 7.968820571899413
    vertex 181.51801195216845 49.76742951559759 7.995922088623047
  endloop
endfacet
facet normal 0.0 -1.0 0.0
  outer loop
    vertex 138.38678916764925 49.76742951559759 6.243203163146972
    vertex 144.82109203410815 49.76742951559759 6.499999999999999
    vertex 138.81431844306658 49.76742951559759 6.771456241607666
  endloop
endfacet
facet normal 0.0 -1.0 0.0
  outer loop
    vertex 144.82109203410815 49.76742951559759 6.499999999999999
    vertex 138.38678916764925 49.76742951559759 6.243203163146972
    vertex 178.5760907180376 49.76742951559759 6.499999999999999
  endloop
endfacet
facet normal 0.0 -1.0 0.0
  outer loop
    vertex 138.81431844306658 49.76742951559759 6.771456241607666
    vertex 144.82109203410815 49.76742951559759 6.499999999999999
    vertex 144.35282316280077 49.76742951559759 6.992501258850097
  endloop
endfacet
facet normal 0.0 -1.0 0.0
  outer loop
    vertex 138.81431844306658 49.76742951559759 6.771456241607666
    vertex 144.35282316280077 49.76742951559759 6.992501258850097
    vertex 139.32510223460864 49.76742951559759 7.219712257385253
  endloop
endfacet
facet normal 0.0 -1.0 0.0
  outer loop
    vertex 139.32510223460864 49.76742951559759 7.219712257385253
    vertex 144.35282316280077 49.76742951559759 6.992501258850097
    vertex 143.80793943477343 49.76742951559759 7.398624897003173
  endloop
endfacet
facet normal 0.0 -1.0 0.0
  outer loop
    vertex 139.32510223460864 49.76742951559759 7.219712257385253
    vertex 143.80793943477343 49.76742951559759 7.398624897003173
    vertex 139.9043959624834 49.76742951559759 7.57503318786621
  endloop
endfacet
facet normal 0.0 -1.0 0.0
  outer loop
    vertex 139.9043959624834 49.76742951559759 7.57503318786621
    vertex 143.80793943477343 49.76742951559759 7.398624897003173
    vertex 143.2021721847124 49.76742951559759 7.706649303436279
  endloop
endfacet
facet normal 0.0 -1.0 0.0
  outer loop
    vertex 139.9043959624834 49.76742951559759 7.57503318786621
    vertex 143.2021721847124 49.76742951559759 7.706649303436279
    vertex 140.53547706676196 49.76742951559759 7.827161788940429
  endloop
endfacet
facet normal 0.0 -1.0 0.0
  outer loop
    vertex 140.53547706676196 49.76742951559759 7.827161788940429
    vertex 143.2021721847124 49.76742951559759 7.706649303436279
    vertex 142.5530046470232 49.76742951559759 7.907681941986083
  endloop
endfacet
facet normal 0.0 -1.0 0.0
  outer loop
    vertex 140.53547706676196 49.76742951559759 7.827161788940429
    vertex 142.5530046470232 49.76742951559759 7.907681941986083
    vertex 141.20013203693102 49.76742951559759 7.968820571899413
  endloop
endfacet
facet normal 0.0 -1.0 0.0
  outer loop
    vertex 141.20013203693102 49.76742951559759 7.968820571899413
    vertex 142.5530046470232 49.76742951559759 7.907681941986083
    vertex 141.8791741378374 49.76742951559759 7.995922088623047
  endloop
endfacet
endsolid Base Mount
