solid Base Mount
facet normal 0.7247106740230136 0.0 -0.6890532918121133
  outer loop
    vertex 144.69180007147216 38.99999999999999 1.0074992179870603
    vertex 145.16006894277953 1.4099832412739487e-15 1.5000002384185789
    vertex 144.69180007147216 1.4099832412739487e-15 1.0074992179870603
  endloop
endfacet
facet normal 0.7247106740230136 0.0 -0.6890532918121133
  outer loop
    vertex 145.16006894277953 1.4099832412739487e-15 1.5000002384185789
    vertex 144.69180007147216 38.99999999999999 1.0074992179870603
    vertex 145.16006894277953 38.99999999999999 1.5000002384185789
  endloop
endfacet
facet normal 0.5976064001140508 0.0 -0.801789617382718
  outer loop
    vertex 144.69180007147216 38.99999999999999 1.0074992179870603
    vertex 144.14691634344481 1.4099832412739487e-15 0.6013752222061156
    vertex 144.14691634344481 38.99999999999999 0.6013752222061156
  endloop
endfacet
facet normal 0.5976064001140508 0.0 -0.801789617382718
  outer loop
    vertex 144.14691634344481 1.4099832412739487e-15 0.6013752222061156
    vertex 144.69180007147216 38.99999999999999 1.0074992179870603
    vertex 144.69180007147216 1.4099832412739487e-15 1.0074992179870603
  endloop
endfacet
facet normal 0.4532545607427254 0.0 -0.8913811211630631
  outer loop
    vertex 144.14691634344481 38.99999999999999 0.6013752222061156
    vertex 143.54114909338378 1.4099832412739487e-15 0.2933512330055236
    vertex 143.54114909338378 38.99999999999999 0.2933512330055236
  endloop
endfacet
facet normal 0.4532545607427254 0.0 -0.8913811211630631
  outer loop
    vertex 143.54114909338378 1.4099832412739487e-15 0.2933512330055236
    vertex 144.14691634344481 38.99999999999999 0.6013752222061156
    vertex 144.14691634344481 1.4099832412739487e-15 0.6013752222061156
  endloop
endfacet
facet normal 0.2958182001097735 0.0 -0.955244258021902
  outer loop
    vertex 143.54114909338378 38.99999999999999 0.2933512330055236
    vertex 142.89198155569457 1.4099832412739487e-15 0.09231828153133391
    vertex 142.89198155569457 38.99999999999999 0.09231828153133391
  endloop
endfacet
facet normal 0.2958182001097735 0.0 -0.955244258021902
  outer loop
    vertex 142.89198155569457 1.4099832412739487e-15 0.09231828153133391
    vertex 143.54114909338378 38.99999999999999 0.2933512330055236
    vertex 143.54114909338378 1.4099832412739487e-15 0.2933512330055236
  endloop
endfacet
facet normal 0.12984357395202167 0.0 -0.9915344907280663
  outer loop
    vertex 142.89198155569457 38.99999999999999 0.09231828153133391
    vertex 142.21815104650878 1.4099832412739487e-15 0.004078727215528488
    vertex 142.21815104650878 38.99999999999999 0.004078727215528488
  endloop
endfacet
facet normal 0.12984357395202167 0.0 -0.9915344907280663
  outer loop
    vertex 142.21815104650878 1.4099832412739487e-15 0.004078727215528488
    vertex 142.89198155569457 38.99999999999999 0.09231828153133391
    vertex 142.89198155569457 1.4099832412739487e-15 0.09231828153133391
  endloop
endfacet
facet normal -0.03987823191320529 0.0 -0.9992045469369507
  outer loop
    vertex 142.21815104650878 38.99999999999999 0.004078727215528488
    vertex 141.5391089456024 1.4099832412739487e-15 0.031179282814264297
    vertex 141.5391089456024 38.99999999999999 0.031179282814264297
  endloop
endfacet
facet normal -0.03987823191320529 0.0 -0.9992045469369507
  outer loop
    vertex 141.5391089456024 1.4099832412739487e-15 0.031179282814264297
    vertex 142.21815104650878 38.99999999999999 0.004078727215528488
    vertex 142.21815104650878 1.4099832412739487e-15 0.004078727215528488
  endloop
endfacet
facet normal -0.20845052456981378 0.0 -0.9780329129464762
  outer loop
    vertex 141.5391089456024 38.99999999999999 0.031179282814264297
    vertex 140.87445397543334 1.4099832412739487e-15 0.17283880710601807
    vertex 140.87445397543334 38.99999999999999 0.17283880710601807
  endloop
endfacet
facet normal -0.20845052456981378 0.0 -0.9780329129464762
  outer loop
    vertex 140.87445397543334 1.4099832412739487e-15 0.17283880710601807
    vertex 141.5391089456024 38.99999999999999 0.031179282814264297
    vertex 141.5391089456024 1.4099832412739487e-15 0.031179282814264297
  endloop
endfacet
facet normal -0.3710051763118656 0.0 -0.928630798083825
  outer loop
    vertex 140.87445397543334 38.99999999999999 0.17283880710601807
    vertex 140.24337287115478 1.4099832412739487e-15 0.4249673783779144
    vertex 140.24337287115478 38.99999999999999 0.4249673783779144
  endloop
endfacet
facet normal -0.3710051763118656 0.0 -0.928630798083825
  outer loop
    vertex 140.24337287115478 1.4099832412739487e-15 0.4249673783779144
    vertex 140.87445397543334 38.99999999999999 0.17283880710601807
    vertex 140.87445397543334 1.4099832412739487e-15 0.17283880710601807
  endloop
endfacet
facet normal -0.522850355516618 0.0 -0.8524244868234057
  outer loop
    vertex 140.24337287115478 38.99999999999999 0.4249673783779144
    vertex 139.66407914328002 1.4099832412739487e-15 0.7802879214286803
    vertex 139.66407914328002 38.99999999999999 0.7802879214286803
  endloop
endfacet
facet normal -0.522850355516618 0.0 -0.8524244868234057
  outer loop
    vertex 139.66407914328002 1.4099832412739487e-15 0.7802879214286803
    vertex 140.24337287115478 38.99999999999999 0.4249673783779144
    vertex 140.24337287115478 1.4099832412739487e-15 0.4249673783779144
  endloop
endfacet
facet normal -0.6596041211533665 0.0 -0.7516132006274872
  outer loop
    vertex 139.66407914328002 38.99999999999999 0.7802879214286803
    vertex 139.15329535173794 1.4099832412739487e-15 1.2285438776016235
    vertex 139.15329535173794 38.99999999999999 1.2285438776016235
  endloop
endfacet
facet normal -0.6596041211533665 0.0 -0.7516132006274872
  outer loop
    vertex 139.15329535173794 1.4099832412739487e-15 1.2285438776016235
    vertex 139.66407914328002 38.99999999999999 0.7802879214286803
    vertex 139.66407914328002 1.4099832412739487e-15 0.7802879214286803
  endloop
endfacet
facet normal -0.7773198967209084 0.0 -0.6291055381744753
  outer loop
    vertex 138.72576607632064 38.99999999999999 1.7567970752716062
    vertex 139.15329535173794 1.4099832412739487e-15 1.2285438776016235
    vertex 138.72576607632064 1.4099832412739487e-15 1.7567970752716062
  endloop
endfacet
facet normal -0.7773198967209084 0.0 -0.6291055381744753
  outer loop
    vertex 139.15329535173794 1.4099832412739487e-15 1.2285438776016235
    vertex 138.72576607632064 38.99999999999999 1.7567970752716062
    vertex 139.15329535173794 38.99999999999999 1.2285438776016235
  endloop
endfacet
facet normal -0.8725967366947059 0.0 -0.48844133231100545
  outer loop
    vertex 138.39382968711277 38.99999999999999 2.3497989177703857
    vertex 138.72576607632064 1.4099832412739487e-15 1.7567970752716062
    vertex 138.39382968711277 1.4099832412739487e-15 2.3497989177703857
  endloop
endfacet
facet normal -0.8725967366947059 0.0 -0.48844133231100545
  outer loop
    vertex 138.72576607632064 1.4099832412739487e-15 1.7567970752716062
    vertex 138.39382968711277 38.99999999999999 2.3497989177703857
    vertex 138.72576607632064 38.99999999999999 1.7567970752716062
  endloop
endfacet
facet normal -0.9426879249456145 0.0 -0.33367570508164324
  outer loop
    vertex 138.16706940400027 38.99999999999999 2.99043345451355
    vertex 138.39382968711277 1.4099832412739487e-15 2.3497989177703857
    vertex 138.16706940400027 1.4099832412739487e-15 2.99043345451355
  endloop
endfacet
facet normal -0.9426879249456145 0.0 -0.33367570508164324
  outer loop
    vertex 138.39382968711277 1.4099832412739487e-15 2.3497989177703857
    vertex 138.16706940400027 38.99999999999999 2.99043345451355
    vertex 138.39382968711277 38.99999999999999 2.3497989177703857
  endloop
endfacet
facet normal -0.9855673158028004 0.0 -0.16928398040353107
  outer loop
    vertex 138.05202685164832 38.99999999999999 3.660208463668823
    vertex 138.16706940400027 1.4099832412739487e-15 2.99043345451355
    vertex 138.05202685164832 1.4099832412739487e-15 3.660208463668823
  endloop
endfacet
facet normal -0.9855673158028004 0.0 -0.16928398040353107
  outer loop
    vertex 138.16706940400027 1.4099832412739487e-15 2.99043345451355
    vertex 138.05202685164832 38.99999999999999 3.660208463668823
    vertex 138.16706940400027 38.99999999999999 2.99043345451355
  endloop
endfacet
facet normal -1.0 0.0 0.0
  outer loop
    vertex 138.05202685164832 38.99999999999999 4.339791774749756
    vertex 138.05202685164832 1.4099832412739487e-15 3.660208463668823
    vertex 138.05202685164832 1.4099832412739487e-15 4.339791774749756
  endloop
endfacet
facet normal -1.0 0.0 0.0
  outer loop
    vertex 138.05202685164832 1.4099832412739487e-15 3.660208463668823
    vertex 138.05202685164832 38.99999999999999 4.339791774749756
    vertex 138.05202685164832 38.99999999999999 3.660208463668823
  endloop
endfacet
facet normal -0.9855673158028004 0.0 0.16928398040353096
  outer loop
    vertex 138.16706940400027 38.99999999999999 5.009566783905029
    vertex 138.05202685164832 1.4099832412739487e-15 4.339791774749756
    vertex 138.16706940400027 1.4099832412739487e-15 5.009566783905029
  endloop
endfacet
facet normal -0.9855673158028004 0.0 0.16928398040353096
  outer loop
    vertex 138.05202685164832 1.4099832412739487e-15 4.339791774749756
    vertex 138.16706940400027 38.99999999999999 5.009566783905029
    vertex 138.05202685164832 38.99999999999999 4.339791774749756
  endloop
endfacet
facet normal -0.9426879249456145 0.0 0.33367570508164324
  outer loop
    vertex 138.39382968711277 38.99999999999999 5.650201320648193
    vertex 138.16706940400027 1.4099832412739487e-15 5.009566783905029
    vertex 138.39382968711277 1.4099832412739487e-15 5.650201320648193
  endloop
endfacet
facet normal -0.9426879249456145 0.0 0.33367570508164324
  outer loop
    vertex 138.16706940400027 1.4099832412739487e-15 5.009566783905029
    vertex 138.39382968711277 38.99999999999999 5.650201320648193
    vertex 138.16706940400027 38.99999999999999 5.009566783905029
  endloop
endfacet
facet normal -0.8725967366947057 0.0 0.4884413323110057
  outer loop
    vertex 138.72576607632064 38.99999999999999 6.243203163146972
    vertex 138.39382968711277 1.4099832412739487e-15 5.650201320648193
    vertex 138.72576607632064 1.4099832412739487e-15 6.243203163146972
  endloop
endfacet
facet normal -0.8725967366947057 0.0 0.4884413323110057
  outer loop
    vertex 138.39382968711277 1.4099832412739487e-15 5.650201320648193
    vertex 138.72576607632064 38.99999999999999 6.243203163146972
    vertex 138.39382968711277 38.99999999999999 5.650201320648193
  endloop
endfacet
facet normal -0.7773198272960741 0.0 0.6291056239554705
  outer loop
    vertex 139.15329535173794 38.99999999999999 6.771456241607666
    vertex 138.72576607632064 1.4099832412739487e-15 6.243203163146972
    vertex 139.15329535173794 1.4099832412739487e-15 6.771456241607666
  endloop
endfacet
facet normal -0.7773198272960741 0.0 0.6291056239554705
  outer loop
    vertex 138.72576607632064 1.4099832412739487e-15 6.243203163146972
    vertex 139.15329535173794 38.99999999999999 6.771456241607666
    vertex 138.72576607632064 38.99999999999999 6.243203163146972
  endloop
endfacet
facet normal -0.6596041707013685 0.0 0.7516131571449239
  outer loop
    vertex 139.66407914328002 1.4099832412739487e-15 7.219712257385253
    vertex 139.15329535173794 38.99999999999999 6.771456241607666
    vertex 139.15329535173794 1.4099832412739487e-15 6.771456241607666
  endloop
endfacet
facet normal -0.6596041707013685 0.0 0.7516131571449239
  outer loop
    vertex 139.15329535173794 38.99999999999999 6.771456241607666
    vertex 139.66407914328002 1.4099832412739487e-15 7.219712257385253
    vertex 139.66407914328002 38.99999999999999 7.219712257385253
  endloop
endfacet
facet normal -0.5228507697663068 0.0 0.8524242327355437
  outer loop
    vertex 140.24337287115478 1.4099832412739487e-15 7.57503318786621
    vertex 139.66407914328002 38.99999999999999 7.219712257385253
    vertex 139.66407914328002 1.4099832412739487e-15 7.219712257385253
  endloop
endfacet
facet normal -0.5228507697663068 0.0 0.8524242327355437
  outer loop
    vertex 139.66407914328002 38.99999999999999 7.219712257385253
    vertex 140.24337287115478 1.4099832412739487e-15 7.57503318786621
    vertex 140.24337287115478 38.99999999999999 7.57503318786621
  endloop
endfacet
facet normal -0.3710052141294832 0.0 0.9286307829749865
  outer loop
    vertex 140.87445397543334 1.4099832412739487e-15 7.827161788940429
    vertex 140.24337287115478 38.99999999999999 7.57503318786621
    vertex 140.24337287115478 1.4099832412739487e-15 7.57503318786621
  endloop
endfacet
facet normal -0.3710052141294832 0.0 0.9286307829749865
  outer loop
    vertex 140.24337287115478 38.99999999999999 7.57503318786621
    vertex 140.87445397543334 1.4099832412739487e-15 7.827161788940429
    vertex 140.87445397543334 38.99999999999999 7.827161788940429
  endloop
endfacet
facet normal -0.20844948110574424 0.0 0.9780331353419199
  outer loop
    vertex 141.5391089456024 1.4099832412739487e-15 7.968820571899413
    vertex 140.87445397543334 38.99999999999999 7.827161788940429
    vertex 140.87445397543334 1.4099832412739487e-15 7.827161788940429
  endloop
endfacet
facet normal -0.20844948110574424 0.0 0.9780331353419199
  outer loop
    vertex 140.87445397543334 38.99999999999999 7.827161788940429
    vertex 141.5391089456024 1.4099832412739487e-15 7.968820571899413
    vertex 141.5391089456024 38.99999999999999 7.968820571899413
  endloop
endfacet
facet normal -0.03987964395091276 0.0 0.9992044905815568
  outer loop
    vertex 142.21815104650878 1.4099832412739487e-15 7.995922088623047
    vertex 141.5391089456024 38.99999999999999 7.968820571899413
    vertex 141.5391089456024 1.4099832412739487e-15 7.968820571899413
  endloop
endfacet
facet normal -0.03987964395091276 0.0 0.9992044905815568
  outer loop
    vertex 141.5391089456024 38.99999999999999 7.968820571899413
    vertex 142.21815104650878 1.4099832412739487e-15 7.995922088623047
    vertex 142.21815104650878 38.99999999999999 7.995922088623047
  endloop
endfacet
facet normal 0.12984443085169864 0.0 0.9915343785148342
  outer loop
    vertex 142.89198155569457 1.4099832412739487e-15 7.907681941986083
    vertex 142.21815104650878 38.99999999999999 7.995922088623047
    vertex 142.21815104650878 1.4099832412739487e-15 7.995922088623047
  endloop
endfacet
facet normal 0.12984443085169864 0.0 0.9915343785148342
  outer loop
    vertex 142.21815104650878 38.99999999999999 7.995922088623047
    vertex 142.89198155569457 1.4099832412739487e-15 7.907681941986083
    vertex 142.89198155569457 38.99999999999999 7.907681941986083
  endloop
endfacet
facet normal 0.2958177799388354 0.0 0.9552443881395268
  outer loop
    vertex 143.54114909338378 1.4099832412739487e-15 7.706649303436279
    vertex 142.89198155569457 38.99999999999999 7.907681941986083
    vertex 142.89198155569457 1.4099832412739487e-15 7.907681941986083
  endloop
endfacet
facet normal 0.2958177799388354 0.0 0.9552443881395268
  outer loop
    vertex 142.89198155569457 38.99999999999999 7.907681941986083
    vertex 143.54114909338378 1.4099832412739487e-15 7.706649303436279
    vertex 143.54114909338378 38.99999999999999 7.706649303436279
  endloop
endfacet
facet normal 0.45325504856594573 0.0 0.8913808731117594
  outer loop
    vertex 144.14691634344481 1.4099832412739487e-15 7.398624897003173
    vertex 143.54114909338378 38.99999999999999 7.706649303436279
    vertex 143.54114909338378 1.4099832412739487e-15 7.706649303436279
  endloop
endfacet
facet normal 0.45325504856594573 0.0 0.8913808731117594
  outer loop
    vertex 143.54114909338378 38.99999999999999 7.706649303436279
    vertex 144.14691634344481 1.4099832412739487e-15 7.398624897003173
    vertex 144.14691634344481 38.99999999999999 7.398624897003173
  endloop
endfacet
facet normal 0.5976060618085927 0.0 0.8017898695354192
  outer loop
    vertex 144.69180007147216 1.4099832412739487e-15 6.992501258850097
    vertex 144.14691634344481 38.99999999999999 7.398624897003173
    vertex 144.14691634344481 1.4099832412739487e-15 7.398624897003173
  endloop
endfacet
facet normal 0.5976060618085927 0.0 0.8017898695354192
  outer loop
    vertex 144.14691634344481 38.99999999999999 7.398624897003173
    vertex 144.69180007147216 1.4099832412739487e-15 6.992501258850097
    vertex 144.69180007147216 38.99999999999999 6.992501258850097
  endloop
endfacet
facet normal 0.7247108405954261 0.0 0.6890531166198082
  outer loop
    vertex 145.16006894277953 38.99999999999999 6.499999999999999
    vertex 144.69180007147216 1.4099832412739487e-15 6.992501258850097
    vertex 145.16006894277953 1.4099832412739487e-15 6.499999999999999
  endloop
endfacet
facet normal 0.7247108405954261 0.0 0.6890531166198082
  outer loop
    vertex 144.69180007147216 1.4099832412739487e-15 6.992501258850097
    vertex 145.16006894277953 38.99999999999999 6.499999999999999
    vertex 144.69180007147216 38.99999999999999 6.992501258850097
  endloop
endfacet
facet normal 0.0 0.0 1.0
  outer loop
    vertex 178.91506762670895 1.4099832412739487e-15 6.499999999999999
    vertex 145.16006894277953 38.99999999999999 6.499999999999999
    vertex 145.16006894277953 1.4099832412739487e-15 6.499999999999999
  endloop
endfacet
facet normal 0.0 0.0 1.0
  outer loop
    vertex 145.16006894277953 38.99999999999999 6.499999999999999
    vertex 178.91506762670895 1.4099832412739487e-15 6.499999999999999
    vertex 178.91506762670895 38.99999999999999 6.499999999999999
  endloop
endfacet
facet normal -0.7247104902109378 0.0 0.6890534851361121
  outer loop
    vertex 179.3833369748535 38.99999999999999 6.992501258850097
    vertex 178.91506762670895 1.4099832412739487e-15 6.499999999999999
    vertex 179.3833369748535 1.4099832412739487e-15 6.992501258850097
  endloop
endfacet
facet normal -0.7247104902109378 0.0 0.6890534851361121
  outer loop
    vertex 178.91506762670895 1.4099832412739487e-15 6.499999999999999
    vertex 179.3833369748535 38.99999999999999 6.992501258850097
    vertex 178.91506762670895 38.99999999999999 6.499999999999999
  endloop
endfacet
facet normal -0.5976060618085958 0.0 0.8017898695354171
  outer loop
    vertex 179.92822070288082 1.4099832412739487e-15 7.398624897003173
    vertex 179.3833369748535 38.99999999999999 6.992501258850097
    vertex 179.3833369748535 1.4099832412739487e-15 6.992501258850097
  endloop
endfacet
facet normal -0.5976060618085958 0.0 0.8017898695354171
  outer loop
    vertex 179.3833369748535 38.99999999999999 6.992501258850097
    vertex 179.92822070288082 1.4099832412739487e-15 7.398624897003173
    vertex 179.92822070288082 38.99999999999999 7.398624897003173
  endloop
endfacet
facet normal -0.45325334764783703 0.0 0.8913817380034376
  outer loop
    vertex 180.53399081396483 1.4099832412739487e-15 7.706649303436279
    vertex 179.92822070288082 38.99999999999999 7.398624897003173
    vertex 179.92822070288082 1.4099832412739487e-15 7.398624897003173
  endloop
endfacet
facet normal -0.45325334764783703 0.0 0.8913817380034376
  outer loop
    vertex 179.92822070288082 38.99999999999999 7.398624897003173
    vertex 180.53399081396483 1.4099832412739487e-15 7.706649303436279
    vertex 180.53399081396483 38.99999999999999 7.706649303436279
  endloop
endfacet
facet normal -0.29581837476305967 0.0 0.9552442039355915
  outer loop
    vertex 181.18315692114254 1.4099832412739487e-15 7.907681941986083
    vertex 180.53399081396483 38.99999999999999 7.706649303436279
    vertex 180.53399081396483 1.4099832412739487e-15 7.706649303436279
  endloop
endfacet
facet normal -0.29581837476305967 0.0 0.9552442039355915
  outer loop
    vertex 180.53399081396483 38.99999999999999 7.706649303436279
    vertex 181.18315692114254 1.4099832412739487e-15 7.907681941986083
    vertex 181.18315692114254 38.99999999999999 7.907681941986083
  endloop
endfacet
facet normal -0.12984415984585393 0.0 0.991534414003833
  outer loop
    vertex 181.85698886083983 1.4099832412739487e-15 7.995922088623047
    vertex 181.18315692114254 38.99999999999999 7.907681941986083
    vertex 181.18315692114254 1.4099832412739487e-15 7.907681941986083
  endloop
endfacet
facet normal -0.12984415984585393 0.0 0.991534414003833
  outer loop
    vertex 181.18315692114254 38.99999999999999 7.907681941986083
    vertex 181.85698886083983 1.4099832412739487e-15 7.995922088623047
    vertex 181.85698886083983 38.99999999999999 7.995922088623047
  endloop
endfacet
facet normal 0.03987982569017065 0.0 0.9992044833280732
  outer loop
    vertex 182.53602786230468 1.4099832412739487e-15 7.968820571899413
    vertex 181.85698886083983 38.99999999999999 7.995922088623047
    vertex 181.85698886083983 1.4099832412739487e-15 7.995922088623047
  endloop
endfacet
facet normal 0.03987982569017065 0.0 0.9992044833280732
  outer loop
    vertex 181.85698886083983 38.99999999999999 7.995922088623047
    vertex 182.53602786230468 1.4099832412739487e-15 7.968820571899413
    vertex 182.53602786230468 38.99999999999999 7.968820571899413
  endloop
endfacet
facet normal 0.20844869434464589 0.0 0.9780333030250107
  outer loop
    vertex 183.20068545507812 1.4099832412739487e-15 7.827161788940429
    vertex 182.53602786230468 38.99999999999999 7.968820571899413
    vertex 182.53602786230468 1.4099832412739487e-15 7.968820571899413
  endloop
endfacet
facet normal 0.20844869434464589 0.0 0.9780333030250107
  outer loop
    vertex 182.53602786230468 38.99999999999999 7.968820571899413
    vertex 183.20068545507812 1.4099832412739487e-15 7.827161788940429
    vertex 183.20068545507812 38.99999999999999 7.827161788940429
  endloop
endfacet
facet normal 0.37100545587105555 0.0 0.92863068639471
  outer loop
    vertex 183.8317660825195 1.4099832412739487e-15 7.57503318786621
    vertex 183.20068545507812 38.99999999999999 7.827161788940429
    vertex 183.20068545507812 1.4099832412739487e-15 7.827161788940429
  endloop
endfacet
facet normal 0.37100545587105555 0.0 0.92863068639471
  outer loop
    vertex 183.20068545507812 38.99999999999999 7.827161788940429
    vertex 183.8317660825195 1.4099832412739487e-15 7.57503318786621
    vertex 183.8317660825195 38.99999999999999 7.57503318786621
  endloop
endfacet
facet normal 0.5228517079383289 0.0 0.8524236572890105
  outer loop
    vertex 184.4110583798828 1.4099832412739487e-15 7.219712257385253
    vertex 183.8317660825195 38.99999999999999 7.57503318786621
    vertex 183.8317660825195 1.4099832412739487e-15 7.57503318786621
  endloop
endfacet
facet normal 0.5228517079383289 0.0 0.8524236572890105
  outer loop
    vertex 183.8317660825195 38.99999999999999 7.57503318786621
    vertex 184.4110583798828 1.4099832412739487e-15 7.219712257385253
    vertex 184.4110583798828 38.99999999999999 7.219712257385253
  endloop
endfacet
facet normal 0.6596011269305773 0.0 0.7516158283005439
  outer loop
    vertex 184.92184634374996 1.4099832412739487e-15 6.771456241607666
    vertex 184.4110583798828 38.99999999999999 7.219712257385253
    vertex 184.4110583798828 1.4099832412739487e-15 7.219712257385253
  endloop
endfacet
facet normal 0.6596011269305773 0.0 0.7516158283005439
  outer loop
    vertex 184.4110583798828 38.99999999999999 7.219712257385253
    vertex 184.92184634374996 1.4099832412739487e-15 6.771456241607666
    vertex 184.92184634374996 38.99999999999999 6.771456241607666
  endloop
endfacet
facet normal 0.777320470653726 0.0 0.629104829025076
  outer loop
    vertex 185.34937472509765 38.99999999999999 6.243203163146972
    vertex 184.92184634374996 1.4099832412739487e-15 6.771456241607666
    vertex 185.34937472509765 1.4099832412739487e-15 6.243203163146972
  endloop
endfacet
facet normal 0.777320470653726 0.0 0.629104829025076
  outer loop
    vertex 184.92184634374996 1.4099832412739487e-15 6.771456241607666
    vertex 185.34937472509765 38.99999999999999 6.243203163146972
    vertex 184.92184634374996 38.99999999999999 6.771456241607666
  endloop
endfacet
facet normal 0.8725970544424462 0.0 0.48844076465664354
  outer loop
    vertex 185.681310607666 38.99999999999999 5.650201320648193
    vertex 185.34937472509765 1.4099832412739487e-15 6.243203163146972
    vertex 185.681310607666 1.4099832412739487e-15 5.650201320648193
  endloop
endfacet
facet normal 0.8725970544424462 0.0 0.48844076465664354
  outer loop
    vertex 185.34937472509765 1.4099832412739487e-15 6.243203163146972
    vertex 185.681310607666 38.99999999999999 5.650201320648193
    vertex 185.34937472509765 38.99999999999999 6.243203163146972
  endloop
endfacet
facet normal 0.9426876559561831 0.0 0.3336764650193918
  outer loop
    vertex 185.90807147192382 38.99999999999999 5.009566783905029
    vertex 185.681310607666 1.4099832412739487e-15 5.650201320648193
    vertex 185.90807147192382 1.4099832412739487e-15 5.009566783905029
  endloop
endfacet
facet normal 0.9426876559561831 0.0 0.3336764650193918
  outer loop
    vertex 185.681310607666 1.4099832412739487e-15 5.650201320648193
    vertex 185.90807147192382 38.99999999999999 5.009566783905029
    vertex 185.681310607666 38.99999999999999 5.650201320648193
  endloop
endfacet
facet normal 0.9855679852649172 0.0 0.16928008276478423
  outer loop
    vertex 186.02311129736324 38.99999999999999 4.339791774749756
    vertex 185.90807147192382 1.4099832412739487e-15 5.009566783905029
    vertex 186.02311129736324 1.4099832412739487e-15 4.339791774749756
  endloop
endfacet
facet normal 0.9855679852649172 0.0 0.16928008276478423
  outer loop
    vertex 185.90807147192382 1.4099832412739487e-15 5.009566783905029
    vertex 186.02311129736324 38.99999999999999 4.339791774749756
    vertex 185.90807147192382 38.99999999999999 5.009566783905029
  endloop
endfacet
facet normal 1.0 0.0 0.0
  outer loop
    vertex 186.02311129736324 38.99999999999999 3.660208463668823
    vertex 186.02311129736324 1.4099832412739487e-15 4.339791774749756
    vertex 186.02311129736324 1.4099832412739487e-15 3.660208463668823
  endloop
endfacet
facet normal 1.0 0.0 0.0
  outer loop
    vertex 186.02311129736324 1.4099832412739487e-15 4.339791774749756
    vertex 186.02311129736324 38.99999999999999 3.660208463668823
    vertex 186.02311129736324 38.99999999999999 4.339791774749756
  endloop
endfacet
facet normal 0.9855679852649171 0.0 -0.16928008276478426
  outer loop
    vertex 185.90807147192382 38.99999999999999 2.99043345451355
    vertex 186.02311129736324 1.4099832412739487e-15 3.660208463668823
    vertex 185.90807147192382 1.4099832412739487e-15 2.99043345451355
  endloop
endfacet
facet normal 0.9855679852649171 0.0 -0.16928008276478426
  outer loop
    vertex 186.02311129736324 1.4099832412739487e-15 3.660208463668823
    vertex 185.90807147192382 38.99999999999999 2.99043345451355
    vertex 186.02311129736324 38.99999999999999 3.660208463668823
  endloop
endfacet
facet normal 0.9426876559561831 0.0 -0.3336764650193918
  outer loop
    vertex 185.681310607666 38.99999999999999 2.3497989177703857
    vertex 185.90807147192382 1.4099832412739487e-15 2.99043345451355
    vertex 185.681310607666 1.4099832412739487e-15 2.3497989177703857
  endloop
endfacet
facet normal 0.9426876559561831 0.0 -0.3336764650193918
  outer loop
    vertex 185.90807147192382 1.4099832412739487e-15 2.99043345451355
    vertex 185.681310607666 38.99999999999999 2.3497989177703857
    vertex 185.90807147192382 38.99999999999999 2.99043345451355
  endloop
endfacet
facet normal 0.8725970544424464 0.0 -0.4884407646566433
  outer loop
    vertex 185.34937472509765 38.99999999999999 1.7567970752716062
    vertex 185.681310607666 1.4099832412739487e-15 2.3497989177703857
    vertex 185.34937472509765 1.4099832412739487e-15 1.7567970752716062
  endloop
endfacet
facet normal 0.8725970544424464 0.0 -0.4884407646566433
  outer loop
    vertex 185.681310607666 1.4099832412739487e-15 2.3497989177703857
    vertex 185.34937472509765 38.99999999999999 1.7567970752716062
    vertex 185.681310607666 38.99999999999999 2.3497989177703857
  endloop
endfacet
facet normal 0.7773205400784424 0.0 -0.6291047432440475
  outer loop
    vertex 184.92184634374996 38.99999999999999 1.2285438776016235
    vertex 185.34937472509765 1.4099832412739487e-15 1.7567970752716062
    vertex 184.92184634374996 1.4099832412739487e-15 1.2285438776016235
  endloop
endfacet
facet normal 0.7773205400784424 0.0 -0.6291047432440475
  outer loop
    vertex 185.34937472509765 1.4099832412739487e-15 1.7567970752716062
    vertex 184.92184634374996 38.99999999999999 1.2285438776016235
    vertex 185.34937472509765 38.99999999999999 1.7567970752716062
  endloop
endfacet
facet normal 0.6596010773824517 0.0 -0.7516158717828603
  outer loop
    vertex 184.92184634374996 38.99999999999999 1.2285438776016235
    vertex 184.4110583798828 1.4099832412739487e-15 0.7802879214286803
    vertex 184.4110583798828 38.99999999999999 0.7802879214286803
  endloop
endfacet
facet normal 0.6596010773824517 0.0 -0.7516158717828603
  outer loop
    vertex 184.4110583798828 1.4099832412739487e-15 0.7802879214286803
    vertex 184.92184634374996 38.99999999999999 1.2285438776016235
    vertex 184.92184634374996 1.4099832412739487e-15 1.2285438776016235
  endloop
endfacet
facet normal 0.5228512936884561 0.0 -0.8524239113776125
  outer loop
    vertex 184.4110583798828 38.99999999999999 0.7802879214286803
    vertex 183.8317660825195 1.4099832412739487e-15 0.4249673783779144
    vertex 183.8317660825195 38.99999999999999 0.4249673783779144
  endloop
endfacet
facet normal 0.5228512936884561 0.0 -0.8524239113776125
  outer loop
    vertex 183.8317660825195 1.4099832412739487e-15 0.4249673783779144
    vertex 184.4110583798828 38.99999999999999 0.7802879214286803
    vertex 184.4110583798828 1.4099832412739487e-15 0.7802879214286803
  endloop
endfacet
facet normal 0.3710054180534212 0.0 -0.9286307015035667
  outer loop
    vertex 183.8317660825195 38.99999999999999 0.4249673783779144
    vertex 183.20068545507812 1.4099832412739487e-15 0.17283880710601807
    vertex 183.20068545507812 38.99999999999999 0.17283880710601807
  endloop
endfacet
facet normal 0.3710054180534212 0.0 -0.9286307015035667
  outer loop
    vertex 183.20068545507812 1.4099832412739487e-15 0.17283880710601807
    vertex 183.8317660825195 38.99999999999999 0.4249673783779144
    vertex 183.8317660825195 1.4099832412739487e-15 0.4249673783779144
  endloop
endfacet
facet normal 0.20844973780513493 0.0 -0.9780330806312079
  outer loop
    vertex 183.20068545507812 38.99999999999999 0.17283880710601807
    vertex 182.53602786230468 1.4099832412739487e-15 0.031179282814264297
    vertex 182.53602786230468 38.99999999999999 0.031179282814264297
  endloop
endfacet
facet normal 0.20844973780513493 0.0 -0.9780330806312079
  outer loop
    vertex 182.53602786230468 1.4099832412739487e-15 0.031179282814264297
    vertex 183.20068545507812 38.99999999999999 0.17283880710601807
    vertex 183.20068545507812 1.4099832412739487e-15 0.17283880710601807
  endloop
endfacet
facet normal 0.03987841364604875 0.0 -0.9992045396839802
  outer loop
    vertex 182.53602786230468 38.99999999999999 0.031179282814264297
    vertex 181.85698886083983 1.4099832412739487e-15 0.004078727215528488
    vertex 181.85698886083983 38.99999999999999 0.004078727215528488
  endloop
endfacet
facet normal 0.03987841364604875 0.0 -0.9992045396839802
  outer loop
    vertex 181.85698886083983 1.4099832412739487e-15 0.004078727215528488
    vertex 182.53602786230468 38.99999999999999 0.031179282814264297
    vertex 182.53602786230468 1.4099832412739487e-15 0.031179282814264297
  endloop
endfacet
facet normal -0.12984330294790414 0.0 -0.9915345262166008
  outer loop
    vertex 181.85698886083983 38.99999999999999 0.004078727215528488
    vertex 181.18315692114254 1.4099832412739487e-15 0.09231828153133391
    vertex 181.18315692114254 38.99999999999999 0.09231828153133391
  endloop
endfacet
facet normal -0.12984330294790414 0.0 -0.9915345262166008
  outer loop
    vertex 181.18315692114254 1.4099832412739487e-15 0.09231828153133391
    vertex 181.85698886083983 38.99999999999999 0.004078727215528488
    vertex 181.85698886083983 1.4099832412739487e-15 0.004078727215528488
  endloop
endfacet
facet normal -0.2958187949346807 0.0 -0.9552440738174687
  outer loop
    vertex 181.18315692114254 38.99999999999999 0.09231828153133391
    vertex 180.53399081396483 1.4099832412739487e-15 0.2933512330055236
    vertex 180.53399081396483 38.99999999999999 0.2933512330055236
  endloop
endfacet
facet normal -0.2958187949346807 0.0 -0.9552440738174687
  outer loop
    vertex 180.53399081396483 1.4099832412739487e-15 0.2933512330055236
    vertex 181.18315692114254 38.99999999999999 0.09231828153133391
    vertex 181.18315692114254 1.4099832412739487e-15 0.09231828153133391
  endloop
endfacet
facet normal -0.4532528598255008 0.0 -0.8913819860531202
  outer loop
    vertex 180.53399081396483 38.99999999999999 0.2933512330055236
    vertex 179.92822070288082 1.4099832412739487e-15 0.6013752222061156
    vertex 179.92822070288082 38.99999999999999 0.6013752222061156
  endloop
endfacet
facet normal -0.4532528598255008 0.0 -0.8913819860531202
  outer loop
    vertex 179.92822070288082 1.4099832412739487e-15 0.6013752222061156
    vertex 180.53399081396483 38.99999999999999 0.2933512330055236
    vertex 180.53399081396483 1.4099832412739487e-15 0.2933512330055236
  endloop
endfacet
facet normal -0.5976064001140536 0.0 -0.8017896173827159
  outer loop
    vertex 179.92822070288082 38.99999999999999 0.6013752222061156
    vertex 179.3833369748535 1.4099832412739487e-15 1.0074992179870603
    vertex 179.3833369748535 38.99999999999999 1.0074992179870603
  endloop
endfacet
facet normal -0.5976064001140536 0.0 -0.8017896173827159
  outer loop
    vertex 179.3833369748535 1.4099832412739487e-15 1.0074992179870603
    vertex 179.92822070288082 38.99999999999999 0.6013752222061156
    vertex 179.92822070288082 1.4099832412739487e-15 0.6013752222061156
  endloop
endfacet
facet normal -0.7247103236384277 0.0 -0.6890536603283416
  outer loop
    vertex 178.91506762670895 38.99999999999999 1.5000002384185789
    vertex 179.3833369748535 1.4099832412739487e-15 1.0074992179870603
    vertex 178.91506762670895 1.4099832412739487e-15 1.5000002384185789
  endloop
endfacet
facet normal -0.7247103236384277 0.0 -0.6890536603283416
  outer loop
    vertex 179.3833369748535 1.4099832412739487e-15 1.0074992179870603
    vertex 178.91506762670895 38.99999999999999 1.5000002384185789
    vertex 179.3833369748535 38.99999999999999 1.0074992179870603
  endloop
endfacet
facet normal 0.0 0.0 -1.0
  outer loop
    vertex 178.91506762670895 38.99999999999999 1.5000002384185789
    vertex 145.16006894277953 1.4099832412739487e-15 1.5000002384185789
    vertex 145.16006894277953 38.99999999999999 1.5000002384185789
  endloop
endfacet
facet normal 0.0 0.0 -1.0
  outer loop
    vertex 145.16006894277953 1.4099832412739487e-15 1.5000002384185789
    vertex 178.91506762670895 38.99999999999999 1.5000002384185789
    vertex 178.91506762670895 1.4099832412739487e-15 1.5000002384185789
  endloop
endfacet
facet normal 1.6331515711493238e-31 1.0 8.82961000567279e-31
  outer loop
    vertex 141.5391089456024 38.99999999999999 0.031179282814264297
    vertex 142.89198155569457 38.99999999999999 0.09231828153133391
    vertex 142.21815104650878 38.99999999999999 0.004078727215528488
  endloop
endfacet
facet normal 1.6331515711493238e-31 1.0 8.82961000567279e-31
  outer loop
    vertex 142.89198155569457 38.99999999999999 0.09231828153133391
    vertex 141.5391089456024 38.99999999999999 0.031179282814264297
    vertex 140.87445397543334 38.99999999999999 0.17283880710601807
  endloop
endfacet
facet normal 1.6331515711493238e-31 1.0 8.82961000567279e-31
  outer loop
    vertex 142.89198155569457 38.99999999999999 0.09231828153133391
    vertex 140.87445397543334 38.99999999999999 0.17283880710601807
    vertex 143.54114909338378 38.99999999999999 0.2933512330055236
  endloop
endfacet
facet normal 1.6331515711493238e-31 1.0 8.82961000567279e-31
  outer loop
    vertex 143.54114909338378 38.99999999999999 0.2933512330055236
    vertex 140.87445397543334 38.99999999999999 0.17283880710601807
    vertex 140.24337287115478 38.99999999999999 0.4249673783779144
  endloop
endfacet
facet normal 1.6331515711493238e-31 1.0 8.82961000567279e-31
  outer loop
    vertex 143.54114909338378 38.99999999999999 0.2933512330055236
    vertex 140.24337287115478 38.99999999999999 0.4249673783779144
    vertex 144.14691634344481 38.99999999999999 0.6013752222061156
  endloop
endfacet
facet normal 1.6331515711493238e-31 1.0 8.82961000567279e-31
  outer loop
    vertex 144.14691634344481 38.99999999999999 0.6013752222061156
    vertex 140.24337287115478 38.99999999999999 0.4249673783779144
    vertex 139.66407914328002 38.99999999999999 0.7802879214286803
  endloop
endfacet
facet normal 1.6331515711493238e-31 1.0 8.82961000567279e-31
  outer loop
    vertex 144.14691634344481 38.99999999999999 0.6013752222061156
    vertex 139.66407914328002 38.99999999999999 0.7802879214286803
    vertex 144.69180007147216 38.99999999999999 1.0074992179870603
  endloop
endfacet
facet normal 1.6331515711493238e-31 1.0 8.82961000567279e-31
  outer loop
    vertex 144.69180007147216 38.99999999999999 1.0074992179870603
    vertex 139.66407914328002 38.99999999999999 0.7802879214286803
    vertex 139.15329535173794 38.99999999999999 1.2285438776016235
  endloop
endfacet
facet normal 1.6331515711493238e-31 1.0 8.82961000567279e-31
  outer loop
    vertex 144.69180007147216 38.99999999999999 1.0074992179870603
    vertex 139.15329535173794 38.99999999999999 1.2285438776016235
    vertex 145.16006894277953 38.99999999999999 1.5000002384185789
  endloop
endfacet
facet normal 1.6331515711493238e-31 1.0 8.82961000567279e-31
  outer loop
    vertex 145.16006894277953 38.99999999999999 1.5000002384185789
    vertex 139.15329535173794 38.99999999999999 1.2285438776016235
    vertex 138.72576607632064 38.99999999999999 1.7567970752716062
  endloop
endfacet
facet normal 1.6331515711493238e-31 1.0 8.82961000567279e-31
  outer loop
    vertex 145.16006894277953 38.99999999999999 1.5000002384185789
    vertex 138.72576607632064 38.99999999999999 1.7567970752716062
    vertex 178.91506762670895 38.99999999999999 1.5000002384185789
  endloop
endfacet
facet normal 1.6331515711493238e-31 1.0 8.82961000567279e-31
  outer loop
    vertex 181.18315692114254 38.99999999999999 0.09231828153133391
    vertex 182.53602786230468 38.99999999999999 0.031179282814264297
    vertex 181.85698886083983 38.99999999999999 0.004078727215528488
  endloop
endfacet
facet normal 1.6331515711493238e-31 1.0 8.82961000567279e-31
  outer loop
    vertex 182.53602786230468 38.99999999999999 0.031179282814264297
    vertex 181.18315692114254 38.99999999999999 0.09231828153133391
    vertex 183.20068545507812 38.99999999999999 0.17283880710601807
  endloop
endfacet
facet normal 1.6331515711493238e-31 1.0 8.82961000567279e-31
  outer loop
    vertex 183.20068545507812 38.99999999999999 0.17283880710601807
    vertex 181.18315692114254 38.99999999999999 0.09231828153133391
    vertex 180.53399081396483 38.99999999999999 0.2933512330055236
  endloop
endfacet
facet normal 1.6331515711493238e-31 1.0 8.82961000567279e-31
  outer loop
    vertex 183.20068545507812 38.99999999999999 0.17283880710601807
    vertex 180.53399081396483 38.99999999999999 0.2933512330055236
    vertex 183.8317660825195 38.99999999999999 0.4249673783779144
  endloop
endfacet
facet normal 1.6331515711493238e-31 1.0 8.82961000567279e-31
  outer loop
    vertex 183.8317660825195 38.99999999999999 0.4249673783779144
    vertex 180.53399081396483 38.99999999999999 0.2933512330055236
    vertex 179.92822070288082 38.99999999999999 0.6013752222061156
  endloop
endfacet
facet normal 1.6331515711493238e-31 1.0 8.82961000567279e-31
  outer loop
    vertex 183.8317660825195 38.99999999999999 0.4249673783779144
    vertex 179.92822070288082 38.99999999999999 0.6013752222061156
    vertex 184.4110583798828 38.99999999999999 0.7802879214286803
  endloop
endfacet
facet normal 1.6331515711493238e-31 1.0 8.82961000567279e-31
  outer loop
    vertex 184.4110583798828 38.99999999999999 0.7802879214286803
    vertex 179.92822070288082 38.99999999999999 0.6013752222061156
    vertex 179.3833369748535 38.99999999999999 1.0074992179870603
  endloop
endfacet
facet normal 1.6331515711493238e-31 1.0 8.82961000567279e-31
  outer loop
    vertex 184.4110583798828 38.99999999999999 0.7802879214286803
    vertex 179.3833369748535 38.99999999999999 1.0074992179870603
    vertex 184.92184634374996 38.99999999999999 1.2285438776016235
  endloop
endfacet
facet normal 1.6331515711493238e-31 1.0 8.82961000567279e-31
  outer loop
    vertex 184.92184634374996 38.99999999999999 1.2285438776016235
    vertex 179.3833369748535 38.99999999999999 1.0074992179870603
    vertex 178.91506762670895 38.99999999999999 1.5000002384185789
  endloop
endfacet
facet normal 1.6331515711493238e-31 1.0 8.82961000567279e-31
  outer loop
    vertex 184.92184634374996 38.99999999999999 1.2285438776016235
    vertex 178.91506762670895 38.99999999999999 1.5000002384185789
    vertex 185.34937472509765 38.99999999999999 1.7567970752716062
  endloop
endfacet
facet normal 1.6331515711493238e-31 1.0 8.82961000567279e-31
  outer loop
    vertex 185.34937472509765 38.99999999999999 1.7567970752716062
    vertex 178.91506762670895 38.99999999999999 1.5000002384185789
    vertex 138.72576607632064 38.99999999999999 1.7567970752716062
  endloop
endfacet
facet normal 1.6331515711493238e-31 1.0 8.82961000567279e-31
  outer loop
    vertex 185.34937472509765 38.99999999999999 1.7567970752716062
    vertex 138.72576607632064 38.99999999999999 1.7567970752716062
    vertex 138.39382968711277 38.99999999999999 2.3497989177703857
  endloop
endfacet
facet normal 1.6331515711493238e-31 1.0 8.82961000567279e-31
  outer loop
    vertex 185.34937472509765 38.99999999999999 1.7567970752716062
    vertex 138.39382968711277 38.99999999999999 2.3497989177703857
    vertex 185.681310607666 38.99999999999999 2.3497989177703857
  endloop
endfacet
facet normal 1.6331515711493238e-31 1.0 8.82961000567279e-31
  outer loop
    vertex 185.681310607666 38.99999999999999 2.3497989177703857
    vertex 138.39382968711277 38.99999999999999 2.3497989177703857
    vertex 138.16706940400027 38.99999999999999 2.99043345451355
  endloop
endfacet
facet normal 1.6331515711493238e-31 1.0 8.82961000567279e-31
  outer loop
    vertex 185.681310607666 38.99999999999999 2.3497989177703857
    vertex 138.16706940400027 38.99999999999999 2.99043345451355
    vertex 185.90807147192382 38.99999999999999 2.99043345451355
  endloop
endfacet
facet normal 1.6331515711493238e-31 1.0 8.82961000567279e-31
  outer loop
    vertex 185.90807147192382 38.99999999999999 2.99043345451355
    vertex 138.16706940400027 38.99999999999999 2.99043345451355
    vertex 138.05202685164832 38.99999999999999 3.660208463668823
  endloop
endfacet
facet normal 1.6331515711493238e-31 1.0 8.82961000567279e-31
  outer loop
    vertex 185.90807147192382 38.99999999999999 2.99043345451355
    vertex 138.05202685164832 38.99999999999999 3.660208463668823
    vertex 186.02311129736324 38.99999999999999 3.660208463668823
  endloop
endfacet
facet normal 1.6331515711493238e-31 1.0 8.82961000567279e-31
  outer loop
    vertex 186.02311129736324 38.99999999999999 3.660208463668823
    vertex 138.05202685164832 38.99999999999999 3.660208463668823
    vertex 138.05202685164832 38.99999999999999 4.339791774749756
  endloop
endfacet
facet normal 1.6331515711493238e-31 1.0 8.82961000567279e-31
  outer loop
    vertex 186.02311129736324 38.99999999999999 3.660208463668823
    vertex 138.05202685164832 38.99999999999999 4.339791774749756
    vertex 186.02311129736324 38.99999999999999 4.339791774749756
  endloop
endfacet
facet normal 1.6331515711493238e-31 1.0 8.82961000567279e-31
  outer loop
    vertex 186.02311129736324 38.99999999999999 4.339791774749756
    vertex 138.05202685164832 38.99999999999999 4.339791774749756
    vertex 138.16706940400027 38.99999999999999 5.009566783905029
  endloop
endfacet
facet normal 1.6331515711493238e-31 1.0 8.82961000567279e-31
  outer loop
    vertex 186.02311129736324 38.99999999999999 4.339791774749756
    vertex 138.16706940400027 38.99999999999999 5.009566783905029
    vertex 185.90807147192382 38.99999999999999 5.009566783905029
  endloop
endfacet
facet normal 1.6331515711493238e-31 1.0 8.82961000567279e-31
  outer loop
    vertex 185.90807147192382 38.99999999999999 5.009566783905029
    vertex 138.16706940400027 38.99999999999999 5.009566783905029
    vertex 138.39382968711277 38.99999999999999 5.650201320648193
  endloop
endfacet
facet normal 1.6331515711493238e-31 1.0 8.82961000567279e-31
  outer loop
    vertex 185.90807147192382 38.99999999999999 5.009566783905029
    vertex 138.39382968711277 38.99999999999999 5.650201320648193
    vertex 185.681310607666 38.99999999999999 5.650201320648193
  endloop
endfacet
facet normal 1.6331515711493238e-31 1.0 8.82961000567279e-31
  outer loop
    vertex 185.681310607666 38.99999999999999 5.650201320648193
    vertex 138.39382968711277 38.99999999999999 5.650201320648193
    vertex 138.72576607632064 38.99999999999999 6.243203163146972
  endloop
endfacet
facet normal 1.6331515711493238e-31 1.0 8.82961000567279e-31
  outer loop
    vertex 185.681310607666 38.99999999999999 5.650201320648193
    vertex 138.72576607632064 38.99999999999999 6.243203163146972
    vertex 185.34937472509765 38.99999999999999 6.243203163146972
  endloop
endfacet
facet normal 1.6331515711493238e-31 1.0 8.82961000567279e-31
  outer loop
    vertex 185.34937472509765 38.99999999999999 6.243203163146972
    vertex 138.72576607632064 38.99999999999999 6.243203163146972
    vertex 145.16006894277953 38.99999999999999 6.499999999999999
  endloop
endfacet
facet normal 1.6331515711493238e-31 1.0 8.82961000567279e-31
  outer loop
    vertex 145.16006894277953 38.99999999999999 6.499999999999999
    vertex 138.72576607632064 38.99999999999999 6.243203163146972
    vertex 139.15329535173794 38.99999999999999 6.771456241607666
  endloop
endfacet
facet normal 1.6331515711493238e-31 1.0 8.82961000567279e-31
  outer loop
    vertex 145.16006894277953 38.99999999999999 6.499999999999999
    vertex 139.15329535173794 38.99999999999999 6.771456241607666
    vertex 144.69180007147216 38.99999999999999 6.992501258850097
  endloop
endfacet
facet normal 1.6331515711493238e-31 1.0 8.82961000567279e-31
  outer loop
    vertex 144.69180007147216 38.99999999999999 6.992501258850097
    vertex 139.15329535173794 38.99999999999999 6.771456241607666
    vertex 139.66407914328002 38.99999999999999 7.219712257385253
  endloop
endfacet
facet normal 1.6331515711493238e-31 1.0 8.82961000567279e-31
  outer loop
    vertex 144.69180007147216 38.99999999999999 6.992501258850097
    vertex 139.66407914328002 38.99999999999999 7.219712257385253
    vertex 144.14691634344481 38.99999999999999 7.398624897003173
  endloop
endfacet
facet normal 1.6331515711493238e-31 1.0 8.82961000567279e-31
  outer loop
    vertex 144.14691634344481 38.99999999999999 7.398624897003173
    vertex 139.66407914328002 38.99999999999999 7.219712257385253
    vertex 140.24337287115478 38.99999999999999 7.57503318786621
  endloop
endfacet
facet normal 1.6331515711493238e-31 1.0 8.82961000567279e-31
  outer loop
    vertex 144.14691634344481 38.99999999999999 7.398624897003173
    vertex 140.24337287115478 38.99999999999999 7.57503318786621
    vertex 143.54114909338378 38.99999999999999 7.706649303436279
  endloop
endfacet
facet normal 1.6331515711493238e-31 1.0 8.82961000567279e-31
  outer loop
    vertex 143.54114909338378 38.99999999999999 7.706649303436279
    vertex 140.24337287115478 38.99999999999999 7.57503318786621
    vertex 140.87445397543334 38.99999999999999 7.827161788940429
  endloop
endfacet
facet normal 1.6331515711493238e-31 1.0 8.82961000567279e-31
  outer loop
    vertex 143.54114909338378 38.99999999999999 7.706649303436279
    vertex 140.87445397543334 38.99999999999999 7.827161788940429
    vertex 142.89198155569457 38.99999999999999 7.907681941986083
  endloop
endfacet
facet normal 1.6331515711493238e-31 1.0 8.82961000567279e-31
  outer loop
    vertex 142.89198155569457 38.99999999999999 7.907681941986083
    vertex 140.87445397543334 38.99999999999999 7.827161788940429
    vertex 141.5391089456024 38.99999999999999 7.968820571899413
  endloop
endfacet
facet normal 1.6331515711493238e-31 1.0 8.82961000567279e-31
  outer loop
    vertex 142.89198155569457 38.99999999999999 7.907681941986083
    vertex 141.5391089456024 38.99999999999999 7.968820571899413
    vertex 142.21815104650878 38.99999999999999 7.995922088623047
  endloop
endfacet
facet normal 1.6331515711493238e-31 1.0 8.82961000567279e-31
  outer loop
    vertex 185.34937472509765 38.99999999999999 6.243203163146972
    vertex 178.91506762670895 38.99999999999999 6.499999999999999
    vertex 184.92184634374996 38.99999999999999 6.771456241607666
  endloop
endfacet
facet normal 1.6331515711493238e-31 1.0 8.82961000567279e-31
  outer loop
    vertex 178.91506762670895 38.99999999999999 6.499999999999999
    vertex 185.34937472509765 38.99999999999999 6.243203163146972
    vertex 145.16006894277953 38.99999999999999 6.499999999999999
  endloop
endfacet
facet normal 1.6331515711493238e-31 1.0 8.82961000567279e-31
  outer loop
    vertex 184.92184634374996 38.99999999999999 6.771456241607666
    vertex 178.91506762670895 38.99999999999999 6.499999999999999
    vertex 179.3833369748535 38.99999999999999 6.992501258850097
  endloop
endfacet
facet normal 1.6331515711493238e-31 1.0 8.82961000567279e-31
  outer loop
    vertex 184.92184634374996 38.99999999999999 6.771456241607666
    vertex 179.3833369748535 38.99999999999999 6.992501258850097
    vertex 184.4110583798828 38.99999999999999 7.219712257385253
  endloop
endfacet
facet normal 1.6331515711493238e-31 1.0 8.82961000567279e-31
  outer loop
    vertex 184.4110583798828 38.99999999999999 7.219712257385253
    vertex 179.3833369748535 38.99999999999999 6.992501258850097
    vertex 179.92822070288082 38.99999999999999 7.398624897003173
  endloop
endfacet
facet normal 1.6331515711493238e-31 1.0 8.82961000567279e-31
  outer loop
    vertex 184.4110583798828 38.99999999999999 7.219712257385253
    vertex 179.92822070288082 38.99999999999999 7.398624897003173
    vertex 183.8317660825195 38.99999999999999 7.57503318786621
  endloop
endfacet
facet normal 1.6331515711493238e-31 1.0 8.82961000567279e-31
  outer loop
    vertex 183.8317660825195 38.99999999999999 7.57503318786621
    vertex 179.92822070288082 38.99999999999999 7.398624897003173
    vertex 180.53399081396483 38.99999999999999 7.706649303436279
  endloop
endfacet
facet normal 1.6331515711493238e-31 1.0 8.82961000567279e-31
  outer loop
    vertex 183.8317660825195 38.99999999999999 7.57503318786621
    vertex 180.53399081396483 38.99999999999999 7.706649303436279
    vertex 183.20068545507812 38.99999999999999 7.827161788940429
  endloop
endfacet
facet normal 1.6331515711493238e-31 1.0 8.82961000567279e-31
  outer loop
    vertex 183.20068545507812 38.99999999999999 7.827161788940429
    vertex 180.53399081396483 38.99999999999999 7.706649303436279
    vertex 181.18315692114254 38.99999999999999 7.907681941986083
  endloop
endfacet
facet normal 1.6331515711493238e-31 1.0 8.82961000567279e-31
  outer loop
    vertex 183.20068545507812 38.99999999999999 7.827161788940429
    vertex 181.18315692114254 38.99999999999999 7.907681941986083
    vertex 182.53602786230468 38.99999999999999 7.968820571899413
  endloop
endfacet
facet normal 1.6331515711493238e-31 1.0 8.82961000567279e-31
  outer loop
    vertex 182.53602786230468 38.99999999999999 7.968820571899413
    vertex 181.18315692114254 38.99999999999999 7.907681941986083
    vertex 181.85698886083983 38.99999999999999 7.995922088623047
  endloop
endfacet
facet normal 0.0 -1.0 0.0
  outer loop
    vertex 182.53602786230468 1.4099832412739487e-15 0.031179282814264297
    vertex 181.18315692114254 1.4099832412739487e-15 0.09231828153133391
    vertex 181.85698886083983 1.4099832412739487e-15 0.004078727215528488
  endloop
endfacet
facet normal 0.0 -1.0 0.0
  outer loop
    vertex 181.18315692114254 1.4099832412739487e-15 0.09231828153133391
    vertex 182.53602786230468 1.4099832412739487e-15 0.031179282814264297
    vertex 183.20068545507812 1.4099832412739487e-15 0.17283880710601807
  endloop
endfacet
facet normal 0.0 -1.0 0.0
  outer loop
    vertex 181.18315692114254 1.4099832412739487e-15 0.09231828153133391
    vertex 183.20068545507812 1.4099832412739487e-15 0.17283880710601807
    vertex 180.53399081396483 1.4099832412739487e-15 0.2933512330055236
  endloop
endfacet
facet normal 0.0 -1.0 0.0
  outer loop
    vertex 180.53399081396483 1.4099832412739487e-15 0.2933512330055236
    vertex 183.20068545507812 1.4099832412739487e-15 0.17283880710601807
    vertex 183.8317660825195 1.4099832412739487e-15 0.4249673783779144
  endloop
endfacet
facet normal 0.0 -1.0 0.0
  outer loop
    vertex 180.53399081396483 1.4099832412739487e-15 0.2933512330055236
    vertex 183.8317660825195 1.4099832412739487e-15 0.4249673783779144
    vertex 179.92822070288082 1.4099832412739487e-15 0.6013752222061156
  endloop
endfacet
facet normal 0.0 -1.0 0.0
  outer loop
    vertex 179.92822070288082 1.4099832412739487e-15 0.6013752222061156
    vertex 183.8317660825195 1.4099832412739487e-15 0.4249673783779144
    vertex 184.4110583798828 1.4099832412739487e-15 0.7802879214286803
  endloop
endfacet
facet normal 0.0 -1.0 0.0
  outer loop
    vertex 179.92822070288082 1.4099832412739487e-15 0.6013752222061156
    vertex 184.4110583798828 1.4099832412739487e-15 0.7802879214286803
    vertex 179.3833369748535 1.4099832412739487e-15 1.0074992179870603
  endloop
endfacet
facet normal 0.0 -1.0 0.0
  outer loop
    vertex 179.3833369748535 1.4099832412739487e-15 1.0074992179870603
    vertex 184.4110583798828 1.4099832412739487e-15 0.7802879214286803
    vertex 184.92184634374996 1.4099832412739487e-15 1.2285438776016235
  endloop
endfacet
facet normal 0.0 -1.0 0.0
  outer loop
    vertex 179.3833369748535 1.4099832412739487e-15 1.0074992179870603
    vertex 184.92184634374996 1.4099832412739487e-15 1.2285438776016235
    vertex 178.91506762670895 1.4099832412739487e-15 1.5000002384185789
  endloop
endfacet
facet normal 0.0 -1.0 0.0
  outer loop
    vertex 178.91506762670895 1.4099832412739487e-15 1.5000002384185789
    vertex 184.92184634374996 1.4099832412739487e-15 1.2285438776016235
    vertex 185.34937472509765 1.4099832412739487e-15 1.7567970752716062
  endloop
endfacet
facet normal 0.0 -1.0 0.0
  outer loop
    vertex 178.91506762670895 1.4099832412739487e-15 1.5000002384185789
    vertex 185.34937472509765 1.4099832412739487e-15 1.7567970752716062
    vertex 145.16006894277953 1.4099832412739487e-15 1.5000002384185789
  endloop
endfacet
facet normal 0.0 -1.0 0.0
  outer loop
    vertex 142.89198155569457 1.4099832412739487e-15 0.09231828153133391
    vertex 141.5391089456024 1.4099832412739487e-15 0.031179282814264297
    vertex 142.21815104650878 1.4099832412739487e-15 0.004078727215528488
  endloop
endfacet
facet normal 0.0 -1.0 0.0
  outer loop
    vertex 141.5391089456024 1.4099832412739487e-15 0.031179282814264297
    vertex 142.89198155569457 1.4099832412739487e-15 0.09231828153133391
    vertex 140.87445397543334 1.4099832412739487e-15 0.17283880710601807
  endloop
endfacet
facet normal 0.0 -1.0 0.0
  outer loop
    vertex 140.87445397543334 1.4099832412739487e-15 0.17283880710601807
    vertex 142.89198155569457 1.4099832412739487e-15 0.09231828153133391
    vertex 143.54114909338378 1.4099832412739487e-15 0.2933512330055236
  endloop
endfacet
facet normal 0.0 -1.0 0.0
  outer loop
    vertex 140.87445397543334 1.4099832412739487e-15 0.17283880710601807
    vertex 143.54114909338378 1.4099832412739487e-15 0.2933512330055236
    vertex 140.24337287115478 1.4099832412739487e-15 0.4249673783779144
  endloop
endfacet
facet normal 0.0 -1.0 0.0
  outer loop
    vertex 140.24337287115478 1.4099832412739487e-15 0.4249673783779144
    vertex 143.54114909338378 1.4099832412739487e-15 0.2933512330055236
    vertex 144.14691634344481 1.4099832412739487e-15 0.6013752222061156
  endloop
endfacet
facet normal 0.0 -1.0 0.0
  outer loop
    vertex 140.24337287115478 1.4099832412739487e-15 0.4249673783779144
    vertex 144.14691634344481 1.4099832412739487e-15 0.6013752222061156
    vertex 139.66407914328002 1.4099832412739487e-15 0.7802879214286803
  endloop
endfacet
facet normal 0.0 -1.0 0.0
  outer loop
    vertex 139.66407914328002 1.4099832412739487e-15 0.7802879214286803
    vertex 144.14691634344481 1.4099832412739487e-15 0.6013752222061156
    vertex 144.69180007147216 1.4099832412739487e-15 1.0074992179870603
  endloop
endfacet
facet normal 0.0 -1.0 0.0
  outer loop
    vertex 139.66407914328002 1.4099832412739487e-15 0.7802879214286803
    vertex 144.69180007147216 1.4099832412739487e-15 1.0074992179870603
    vertex 139.15329535173794 1.4099832412739487e-15 1.2285438776016235
  endloop
endfacet
facet normal 0.0 -1.0 0.0
  outer loop
    vertex 139.15329535173794 1.4099832412739487e-15 1.2285438776016235
    vertex 144.69180007147216 1.4099832412739487e-15 1.0074992179870603
    vertex 145.16006894277953 1.4099832412739487e-15 1.5000002384185789
  endloop
endfacet
facet normal 0.0 -1.0 0.0
  outer loop
    vertex 139.15329535173794 1.4099832412739487e-15 1.2285438776016235
    vertex 145.16006894277953 1.4099832412739487e-15 1.5000002384185789
    vertex 138.72576607632064 1.4099832412739487e-15 1.7567970752716062
  endloop
endfacet
facet normal 0.0 -1.0 0.0
  outer loop
    vertex 138.72576607632064 1.4099832412739487e-15 1.7567970752716062
    vertex 145.16006894277953 1.4099832412739487e-15 1.5000002384185789
    vertex 185.34937472509765 1.4099832412739487e-15 1.7567970752716062
  endloop
endfacet
facet normal 0.0 -1.0 0.0
  outer loop
    vertex 138.72576607632064 1.4099832412739487e-15 1.7567970752716062
    vertex 185.34937472509765 1.4099832412739487e-15 1.7567970752716062
    vertex 185.681310607666 1.4099832412739487e-15 2.3497989177703857
  endloop
endfacet
facet normal 0.0 -1.0 0.0
  outer loop
    vertex 138.72576607632064 1.4099832412739487e-15 1.7567970752716062
    vertex 185.681310607666 1.4099832412739487e-15 2.3497989177703857
    vertex 138.39382968711277 1.4099832412739487e-15 2.3497989177703857
  endloop
endfacet
facet normal 0.0 -1.0 0.0
  outer loop
    vertex 138.39382968711277 1.4099832412739487e-15 2.3497989177703857
    vertex 185.681310607666 1.4099832412739487e-15 2.3497989177703857
    vertex 185.90807147192382 1.4099832412739487e-15 2.99043345451355
  endloop
endfacet
facet normal 0.0 -1.0 0.0
  outer loop
    vertex 138.39382968711277 1.4099832412739487e-15 2.3497989177703857
    vertex 185.90807147192382 1.4099832412739487e-15 2.99043345451355
    vertex 138.16706940400027 1.4099832412739487e-15 2.99043345451355
  endloop
endfacet
facet normal 0.0 -1.0 0.0
  outer loop
    vertex 138.16706940400027 1.4099832412739487e-15 2.99043345451355
    vertex 185.90807147192382 1.4099832412739487e-15 2.99043345451355
    vertex 186.02311129736324 1.4099832412739487e-15 3.660208463668823
  endloop
endfacet
facet normal 0.0 -1.0 0.0
  outer loop
    vertex 138.16706940400027 1.4099832412739487e-15 2.99043345451355
    vertex 186.02311129736324 1.4099832412739487e-15 3.660208463668823
    vertex 138.05202685164832 1.4099832412739487e-15 3.660208463668823
  endloop
endfacet
facet normal 0.0 -1.0 0.0
  outer loop
    vertex 138.05202685164832 1.4099832412739487e-15 3.660208463668823
    vertex 186.02311129736324 1.4099832412739487e-15 3.660208463668823
    vertex 186.02311129736324 1.4099832412739487e-15 4.339791774749756
  endloop
endfacet
facet normal 0.0 -1.0 0.0
  outer loop
    vertex 138.05202685164832 1.4099832412739487e-15 3.660208463668823
    vertex 186.02311129736324 1.4099832412739487e-15 4.339791774749756
    vertex 138.05202685164832 1.4099832412739487e-15 4.339791774749756
  endloop
endfacet
facet normal 0.0 -1.0 0.0
  outer loop
    vertex 138.05202685164832 1.4099832412739487e-15 4.339791774749756
    vertex 186.02311129736324 1.4099832412739487e-15 4.339791774749756
    vertex 185.90807147192382 1.4099832412739487e-15 5.009566783905029
  endloop
endfacet
facet normal 0.0 -1.0 0.0
  outer loop
    vertex 138.05202685164832 1.4099832412739487e-15 4.339791774749756
    vertex 185.90807147192382 1.4099832412739487e-15 5.009566783905029
    vertex 138.16706940400027 1.4099832412739487e-15 5.009566783905029
  endloop
endfacet
facet normal 0.0 -1.0 0.0
  outer loop
    vertex 138.16706940400027 1.4099832412739487e-15 5.009566783905029
    vertex 185.90807147192382 1.4099832412739487e-15 5.009566783905029
    vertex 185.681310607666 1.4099832412739487e-15 5.650201320648193
  endloop
endfacet
facet normal 0.0 -1.0 0.0
  outer loop
    vertex 138.16706940400027 1.4099832412739487e-15 5.009566783905029
    vertex 185.681310607666 1.4099832412739487e-15 5.650201320648193
    vertex 138.39382968711277 1.4099832412739487e-15 5.650201320648193
  endloop
endfacet
facet normal 0.0 -1.0 0.0
  outer loop
    vertex 138.39382968711277 1.4099832412739487e-15 5.650201320648193
    vertex 185.681310607666 1.4099832412739487e-15 5.650201320648193
    vertex 185.34937472509765 1.4099832412739487e-15 6.243203163146972
  endloop
endfacet
facet normal 0.0 -1.0 0.0
  outer loop
    vertex 138.39382968711277 1.4099832412739487e-15 5.650201320648193
    vertex 185.34937472509765 1.4099832412739487e-15 6.243203163146972
    vertex 138.72576607632064 1.4099832412739487e-15 6.243203163146972
  endloop
endfacet
facet normal 0.0 -1.0 0.0
  outer loop
    vertex 138.72576607632064 1.4099832412739487e-15 6.243203163146972
    vertex 185.34937472509765 1.4099832412739487e-15 6.243203163146972
    vertex 178.91506762670895 1.4099832412739487e-15 6.499999999999999
  endloop
endfacet
facet normal 0.0 -1.0 0.0
  outer loop
    vertex 178.91506762670895 1.4099832412739487e-15 6.499999999999999
    vertex 185.34937472509765 1.4099832412739487e-15 6.243203163146972
    vertex 184.92184634374996 1.4099832412739487e-15 6.771456241607666
  endloop
endfacet
facet normal 0.0 -1.0 0.0
  outer loop
    vertex 178.91506762670895 1.4099832412739487e-15 6.499999999999999
    vertex 184.92184634374996 1.4099832412739487e-15 6.771456241607666
    vertex 179.3833369748535 1.4099832412739487e-15 6.992501258850097
  endloop
endfacet
facet normal 0.0 -1.0 0.0
  outer loop
    vertex 179.3833369748535 1.4099832412739487e-15 6.992501258850097
    vertex 184.92184634374996 1.4099832412739487e-15 6.771456241607666
    vertex 184.4110583798828 1.4099832412739487e-15 7.219712257385253
  endloop
endfacet
facet normal 0.0 -1.0 0.0
  outer loop
    vertex 179.3833369748535 1.4099832412739487e-15 6.992501258850097
    vertex 184.4110583798828 1.4099832412739487e-15 7.219712257385253
    vertex 179.92822070288082 1.4099832412739487e-15 7.398624897003173
  endloop
endfacet
facet normal 0.0 -1.0 0.0
  outer loop
    vertex 179.92822070288082 1.4099832412739487e-15 7.398624897003173
    vertex 184.4110583798828 1.4099832412739487e-15 7.219712257385253
    vertex 183.8317660825195 1.4099832412739487e-15 7.57503318786621
  endloop
endfacet
facet normal 0.0 -1.0 0.0
  outer loop
    vertex 179.92822070288082 1.4099832412739487e-15 7.398624897003173
    vertex 183.8317660825195 1.4099832412739487e-15 7.57503318786621
    vertex 180.53399081396483 1.4099832412739487e-15 7.706649303436279
  endloop
endfacet
facet normal 0.0 -1.0 0.0
  outer loop
    vertex 180.53399081396483 1.4099832412739487e-15 7.706649303436279
    vertex 183.8317660825195 1.4099832412739487e-15 7.57503318786621
    vertex 183.20068545507812 1.4099832412739487e-15 7.827161788940429
  endloop
endfacet
facet normal 0.0 -1.0 0.0
  outer loop
    vertex 180.53399081396483 1.4099832412739487e-15 7.706649303436279
    vertex 183.20068545507812 1.4099832412739487e-15 7.827161788940429
    vertex 181.18315692114254 1.4099832412739487e-15 7.907681941986083
  endloop
endfacet
facet normal 0.0 -1.0 0.0
  outer loop
    vertex 181.18315692114254 1.4099832412739487e-15 7.907681941986083
    vertex 183.20068545507812 1.4099832412739487e-15 7.827161788940429
    vertex 182.53602786230468 1.4099832412739487e-15 7.968820571899413
  endloop
endfacet
facet normal 0.0 -1.0 0.0
  outer loop
    vertex 181.18315692114254 1.4099832412739487e-15 7.907681941986083
    vertex 182.53602786230468 1.4099832412739487e-15 7.968820571899413
    vertex 181.85698886083983 1.4099832412739487e-15 7.995922088623047
  endloop
endfacet
facet normal 0.0 -1.0 0.0
  outer loop
    vertex 138.72576607632064 1.4099832412739487e-15 6.243203163146972
    vertex 145.16006894277953 1.4099832412739487e-15 6.499999999999999
    vertex 139.15329535173794 1.4099832412739487e-15 6.771456241607666
  endloop
endfacet
facet normal 0.0 -1.0 0.0
  outer loop
    vertex 145.16006894277953 1.4099832412739487e-15 6.499999999999999
    vertex 138.72576607632064 1.4099832412739487e-15 6.243203163146972
    vertex 178.91506762670895 1.4099832412739487e-15 6.499999999999999
  endloop
endfacet
facet normal 0.0 -1.0 0.0
  outer loop
    vertex 139.15329535173794 1.4099832412739487e-15 6.771456241607666
    vertex 145.16006894277953 1.4099832412739487e-15 6.499999999999999
    vertex 144.69180007147216 1.4099832412739487e-15 6.992501258850097
  endloop
endfacet
facet normal 0.0 -1.0 0.0
  outer loop
    vertex 139.15329535173794 1.4099832412739487e-15 6.771456241607666
    vertex 144.69180007147216 1.4099832412739487e-15 6.992501258850097
    vertex 139.66407914328002 1.4099832412739487e-15 7.219712257385253
  endloop
endfacet
facet normal 0.0 -1.0 0.0
  outer loop
    vertex 139.66407914328002 1.4099832412739487e-15 7.219712257385253
    vertex 144.69180007147216 1.4099832412739487e-15 6.992501258850097
    vertex 144.14691634344481 1.4099832412739487e-15 7.398624897003173
  endloop
endfacet
facet normal 0.0 -1.0 0.0
  outer loop
    vertex 139.66407914328002 1.4099832412739487e-15 7.219712257385253
    vertex 144.14691634344481 1.4099832412739487e-15 7.398624897003173
    vertex 140.24337287115478 1.4099832412739487e-15 7.57503318786621
  endloop
endfacet
facet normal 0.0 -1.0 0.0
  outer loop
    vertex 140.24337287115478 1.4099832412739487e-15 7.57503318786621
    vertex 144.14691634344481 1.4099832412739487e-15 7.398624897003173
    vertex 143.54114909338378 1.4099832412739487e-15 7.706649303436279
  endloop
endfacet
facet normal 0.0 -1.0 0.0
  outer loop
    vertex 140.24337287115478 1.4099832412739487e-15 7.57503318786621
    vertex 143.54114909338378 1.4099832412739487e-15 7.706649303436279
    vertex 140.87445397543334 1.4099832412739487e-15 7.827161788940429
  endloop
endfacet
facet normal 0.0 -1.0 0.0
  outer loop
    vertex 140.87445397543334 1.4099832412739487e-15 7.827161788940429
    vertex 143.54114909338378 1.4099832412739487e-15 7.706649303436279
    vertex 142.89198155569457 1.4099832412739487e-15 7.907681941986083
  endloop
endfacet
facet normal 0.0 -1.0 0.0
  outer loop
    vertex 140.87445397543334 1.4099832412739487e-15 7.827161788940429
    vertex 142.89198155569457 1.4099832412739487e-15 7.907681941986083
    vertex 141.5391089456024 1.4099832412739487e-15 7.968820571899413
  endloop
endfacet
facet normal 0.0 -1.0 0.0
  outer loop
    vertex 141.5391089456024 1.4099832412739487e-15 7.968820571899413
    vertex 142.89198155569457 1.4099832412739487e-15 7.907681941986083
    vertex 142.21815104650878 1.4099832412739487e-15 7.995922088623047
  endloop
endfacet
endsolid Base Mount
