solid Untitled-567b1060
facet normal 0.0 0.0 -1.0
  outer loop
    vertex 77.99999999999999 45.343604088836976 0.0
    vertex 62.0 39.343604088836976 0.0
    vertex 62.0 45.343604088836976 0.0
  endloop
endfacet
facet normal 0.0 0.0 -1.0
  outer loop
    vertex 62.0 39.343604088836976 0.0
    vertex 77.99999999999999 45.343604088836976 0.0
    vertex 75.0 39.343604088836976 0.0
  endloop
endfacet
facet normal 0.0 0.0 -1.0
  outer loop
    vertex 75.0 39.343604088836976 0.0
    vertex 77.99999999999999 45.343604088836976 0.0
    vertex 75.0 0.2199999988079071 0.0
  endloop
endfacet
facet normal 0.0 0.0 -1.0
  outer loop
    vertex 75.0 0.2199999988079071 0.0
    vertex 77.99999999999999 45.343604088836976 0.0
    vertex 79.99999999999999 11.0 0.0
  endloop
endfacet
facet normal 0.0 0.0 -1.0
  outer loop
    vertex 75.0 0.2199999988079071 0.0
    vertex 79.99999999999999 11.0 0.0
    vertex 85.99999999999999 0.2199999988079071 0.0
  endloop
endfacet
facet normal 0.0 0.0 -1.0
  outer loop
    vertex 79.99999999999999 11.0 0.0
    vertex 77.99999999999999 45.343604088836976 0.0
    vertex 79.99999999999999 43.34360408883698 0.0
  endloop
endfacet
facet normal 0.0 0.0 -1.0
  outer loop
    vertex 85.99999999999999 0.2199999988079071 0.0
    vertex 79.99999999999999 11.0 0.0
    vertex 85.99999999999999 4.999999999999999 0.0
  endloop
endfacet
facet normal -0.0 1.0 -0.0
  outer loop
    vertex 62.0 45.343604088836976 0.0
    vertex 65.43177032470703 45.343604088836976 4.34481954574585
    vertex 77.99999999999999 45.343604088836976 0.0
  endloop
endfacet
facet normal -0.0 1.0 -0.0
  outer loop
    vertex 65.43177032470703 45.343604088836976 4.34481954574585
    vertex 62.0 45.343604088836976 0.0
    vertex 65.1670913696289 45.343604088836976 4.460920810699462
  endloop
endfacet
facet normal -0.0 1.0 -0.0
  outer loop
    vertex 65.1670913696289 45.343604088836976 4.460920810699462
    vertex 62.0 45.343604088836976 0.0
    vertex 64.92512512207031 45.343604088836976 4.619004249572754
  endloop
endfacet
facet normal -0.0 1.0 -0.0
  outer loop
    vertex 64.92512512207031 45.343604088836976 4.619004249572754
    vertex 62.0 45.343604088836976 0.0
    vertex 64.7124786376953 45.343604088836976 4.814756870269775
  endloop
endfacet
facet normal -0.0 1.0 -0.0
  outer loop
    vertex 64.7124786376953 45.343604088836976 4.814756870269775
    vertex 62.0 45.343604088836976 0.0
    vertex 64.53496551513672 45.343604088836976 5.042840957641602
  endloop
endfacet
facet normal -0.0 1.0 -0.0
  outer loop
    vertex 64.53496551513672 45.343604088836976 5.042840957641602
    vertex 62.0 45.343604088836976 0.0
    vertex 64.39739227294922 45.343604088836976 5.297033309936523
  endloop
endfacet
facet normal -0.0 1.0 -0.0
  outer loop
    vertex 64.39739227294922 45.343604088836976 5.297033309936523
    vertex 62.0 45.343604088836976 0.0
    vertex 62.0 45.343604088836976 12.0
  endloop
endfacet
facet normal -0.0 1.0 -0.0
  outer loop
    vertex 77.99999999999999 45.343604088836976 0.0
    vertex 65.43177032470703 45.343604088836976 4.34481954574585
    vertex 65.71195983886719 45.343604088836976 4.273867607116699
  endloop
endfacet
facet normal -0.0 1.0 -0.0
  outer loop
    vertex 77.99999999999999 45.343604088836976 0.0
    vertex 65.71195983886719 45.343604088836976 4.273867607116699
    vertex 65.99999999999999 45.343604088836976 4.25
  endloop
endfacet
facet normal -0.0 1.0 -0.0
  outer loop
    vertex 64.39739227294922 45.343604088836976 5.297033309936523
    vertex 62.0 45.343604088836976 12.0
    vertex 64.30355072021484 45.343604088836976 5.570400714874268
  endloop
endfacet
facet normal -0.0 1.0 -0.0
  outer loop
    vertex 64.30355072021484 45.343604088836976 5.570400714874268
    vertex 62.0 45.343604088836976 12.0
    vertex 64.25597381591797 45.343604088836976 5.8554863929748535
  endloop
endfacet
facet normal -0.0 1.0 -0.0
  outer loop
    vertex 64.25597381591797 45.343604088836976 5.8554863929748535
    vertex 62.0 45.343604088836976 12.0
    vertex 64.25597381591797 45.343604088836976 6.144513607025146
  endloop
endfacet
facet normal -0.0 1.0 -0.0
  outer loop
    vertex 64.25597381591797 45.343604088836976 6.144513607025146
    vertex 62.0 45.343604088836976 12.0
    vertex 64.30355072021484 45.343604088836976 6.429599761962891
  endloop
endfacet
facet normal -0.0 1.0 -0.0
  outer loop
    vertex 64.30355072021484 45.343604088836976 6.429599761962891
    vertex 62.0 45.343604088836976 12.0
    vertex 64.39739227294922 45.343604088836976 6.702967166900635
  endloop
endfacet
facet normal -0.0 1.0 -0.0
  outer loop
    vertex 64.39739227294922 45.343604088836976 6.702967166900635
    vertex 62.0 45.343604088836976 12.0
    vertex 64.53496551513672 45.343604088836976 6.957159519195557
  endloop
endfacet
facet normal -0.0 1.0 -0.0
  outer loop
    vertex 64.53496551513672 45.343604088836976 6.957159519195557
    vertex 62.0 45.343604088836976 12.0
    vertex 64.7124786376953 45.343604088836976 7.185242652893066
  endloop
endfacet
facet normal -0.0 1.0 -0.0
  outer loop
    vertex 64.7124786376953 45.343604088836976 7.185242652893066
    vertex 62.0 45.343604088836976 12.0
    vertex 64.92512512207031 45.343604088836976 7.380995750427245
  endloop
endfacet
facet normal -0.0 1.0 -0.0
  outer loop
    vertex 64.92512512207031 45.343604088836976 7.380995750427245
    vertex 62.0 45.343604088836976 12.0
    vertex 65.1670913696289 45.343604088836976 7.539079189300537
  endloop
endfacet
facet normal -0.0 1.0 -0.0
  outer loop
    vertex 65.1670913696289 45.343604088836976 7.539079189300537
    vertex 62.0 45.343604088836976 12.0
    vertex 65.43177032470703 45.343604088836976 7.655179977416991
  endloop
endfacet
facet normal -0.0 1.0 -0.0
  outer loop
    vertex 65.43177032470703 45.343604088836976 7.655179977416991
    vertex 62.0 45.343604088836976 12.0
    vertex 65.71195983886719 45.343604088836976 7.726132392883301
  endloop
endfacet
facet normal -0.0 1.0 -0.0
  outer loop
    vertex 65.71195983886719 45.343604088836976 7.726132392883301
    vertex 62.0 45.343604088836976 12.0
    vertex 65.99999999999999 45.343604088836976 7.75
  endloop
endfacet
facet normal -0.0 1.0 -0.0
  outer loop
    vertex 65.99999999999999 45.343604088836976 7.75
    vertex 62.0 45.343604088836976 12.0
    vertex 69.0 45.343604088836976 7.75
  endloop
endfacet
facet normal -0.0 1.0 -0.0
  outer loop
    vertex 77.99999999999999 45.343604088836976 0.0
    vertex 70.28752136230469 45.343604088836976 4.814756870269775
    vertex 77.99999999999999 45.343604088836976 12.0
  endloop
endfacet
facet normal -0.0 1.0 -0.0
  outer loop
    vertex 70.28752136230469 45.343604088836976 4.814756870269775
    vertex 77.99999999999999 45.343604088836976 0.0
    vertex 70.07487487792969 45.343604088836976 4.619004249572754
  endloop
endfacet
facet normal -0.0 1.0 -0.0
  outer loop
    vertex 70.07487487792969 45.343604088836976 4.619004249572754
    vertex 77.99999999999999 45.343604088836976 0.0
    vertex 69.83290863037108 45.343604088836976 4.460920810699462
  endloop
endfacet
facet normal -0.0 1.0 -0.0
  outer loop
    vertex 69.83290863037108 45.343604088836976 4.460920810699462
    vertex 77.99999999999999 45.343604088836976 0.0
    vertex 69.56822204589844 45.343604088836976 4.34481954574585
  endloop
endfacet
facet normal -0.0 1.0 -0.0
  outer loop
    vertex 69.56822204589844 45.343604088836976 4.34481954574585
    vertex 77.99999999999999 45.343604088836976 0.0
    vertex 69.28804016113281 45.343604088836976 4.273867607116699
  endloop
endfacet
facet normal -0.0 1.0 -0.0
  outer loop
    vertex 69.28804016113281 45.343604088836976 4.273867607116699
    vertex 77.99999999999999 45.343604088836976 0.0
    vertex 69.0 45.343604088836976 4.25
  endloop
endfacet
facet normal -0.0 1.0 -0.0
  outer loop
    vertex 69.0 45.343604088836976 4.25
    vertex 77.99999999999999 45.343604088836976 0.0
    vertex 65.99999999999999 45.343604088836976 4.25
  endloop
endfacet
facet normal -0.0 1.0 -0.0
  outer loop
    vertex 77.99999999999999 45.343604088836976 12.0
    vertex 70.28752136230469 45.343604088836976 4.814756870269775
    vertex 70.46504211425781 45.343604088836976 5.042840957641602
  endloop
endfacet
facet normal -0.0 1.0 -0.0
  outer loop
    vertex 77.99999999999999 45.343604088836976 12.0
    vertex 70.46504211425781 45.343604088836976 5.042840957641602
    vertex 70.60260009765625 45.343604088836976 5.297033309936523
  endloop
endfacet
facet normal -0.0 1.0 -0.0
  outer loop
    vertex 77.99999999999999 45.343604088836976 12.0
    vertex 70.60260009765625 45.343604088836976 5.297033309936523
    vertex 70.69644927978514 45.343604088836976 5.570400714874268
  endloop
endfacet
facet normal -0.0 1.0 -0.0
  outer loop
    vertex 77.99999999999999 45.343604088836976 12.0
    vertex 70.69644927978514 45.343604088836976 5.570400714874268
    vertex 70.74402618408203 45.343604088836976 5.8554863929748535
  endloop
endfacet
facet normal -0.0 1.0 -0.0
  outer loop
    vertex 77.99999999999999 45.343604088836976 12.0
    vertex 70.74402618408203 45.343604088836976 5.8554863929748535
    vertex 70.74402618408203 45.343604088836976 6.144513607025146
  endloop
endfacet
facet normal -0.0 1.0 -0.0
  outer loop
    vertex 77.99999999999999 45.343604088836976 12.0
    vertex 70.74402618408203 45.343604088836976 6.144513607025146
    vertex 70.69644927978514 45.343604088836976 6.429599761962891
  endloop
endfacet
facet normal -0.0 1.0 -0.0
  outer loop
    vertex 77.99999999999999 45.343604088836976 12.0
    vertex 70.69644927978514 45.343604088836976 6.429599761962891
    vertex 70.60260009765625 45.343604088836976 6.702967166900635
  endloop
endfacet
facet normal -0.0 1.0 -0.0
  outer loop
    vertex 77.99999999999999 45.343604088836976 12.0
    vertex 70.60260009765625 45.343604088836976 6.702967166900635
    vertex 70.46504211425781 45.343604088836976 6.957159519195557
  endloop
endfacet
facet normal -0.0 1.0 -0.0
  outer loop
    vertex 77.99999999999999 45.343604088836976 12.0
    vertex 70.46504211425781 45.343604088836976 6.957159519195557
    vertex 70.28752136230469 45.343604088836976 7.185242652893066
  endloop
endfacet
facet normal -0.0 1.0 -0.0
  outer loop
    vertex 77.99999999999999 45.343604088836976 12.0
    vertex 70.28752136230469 45.343604088836976 7.185242652893066
    vertex 70.07487487792969 45.343604088836976 7.380995750427245
  endloop
endfacet
facet normal -0.0 1.0 -0.0
  outer loop
    vertex 77.99999999999999 45.343604088836976 12.0
    vertex 70.07487487792969 45.343604088836976 7.380995750427245
    vertex 69.83290863037108 45.343604088836976 7.539079189300537
  endloop
endfacet
facet normal -0.0 1.0 -0.0
  outer loop
    vertex 77.99999999999999 45.343604088836976 12.0
    vertex 69.83290863037108 45.343604088836976 7.539079189300537
    vertex 69.56822204589844 45.343604088836976 7.655179977416991
  endloop
endfacet
facet normal -0.0 1.0 -0.0
  outer loop
    vertex 77.99999999999999 45.343604088836976 12.0
    vertex 69.56822204589844 45.343604088836976 7.655179977416991
    vertex 69.28804016113281 45.343604088836976 7.726132392883301
  endloop
endfacet
facet normal -0.0 1.0 -0.0
  outer loop
    vertex 77.99999999999999 45.343604088836976 12.0
    vertex 69.28804016113281 45.343604088836976 7.726132392883301
    vertex 69.0 45.343604088836976 7.75
  endloop
endfacet
facet normal -0.0 1.0 -0.0
  outer loop
    vertex 77.99999999999999 45.343604088836976 12.0
    vertex 69.0 45.343604088836976 7.75
    vertex 62.0 45.343604088836976 12.0
  endloop
endfacet
facet normal 1.0 -0.0 -0.0
  outer loop
    vertex 85.99999999999999 4.999999999999999 0.0
    vertex 85.99999999999999 0.2199999988079071 25.0
    vertex 85.99999999999999 0.2199999988079071 0.0
  endloop
endfacet
facet normal 1.0 -0.0 -0.0
  outer loop
    vertex 85.99999999999999 0.2199999988079071 25.0
    vertex 85.99999999999999 4.999999999999999 0.0
    vertex 85.99999999999999 4.21999979019165 15.380383491516112
  endloop
endfacet
facet normal 1.0 -0.0 -0.0
  outer loop
    vertex 85.99999999999999 4.21999979019165 15.380383491516112
    vertex 85.99999999999999 4.999999999999999 0.0
    vertex 85.99999999999999 4.999999999999999 14.99148941040039
  endloop
endfacet
facet normal 1.0 -0.0 -0.0
  outer loop
    vertex 85.99999999999999 4.21999979019165 25.0
    vertex 85.99999999999999 0.2199999988079071 25.0
    vertex 85.99999999999999 4.21999979019165 15.380383491516112
  endloop
endfacet
facet normal -1.0 0.0 0.0
  outer loop
    vertex 75.0 4.21999979019165 25.0
    vertex 75.0 0.2199999988079071 0.0
    vertex 75.0 0.2199999988079071 25.0
  endloop
endfacet
facet normal -1.0 0.0 0.0
  outer loop
    vertex 75.0 0.2199999988079071 0.0
    vertex 75.0 4.21999979019165 25.0
    vertex 75.0 4.21999979019165 15.380383491516112
  endloop
endfacet
facet normal -1.0 0.0 0.0
  outer loop
    vertex 75.0 0.2199999988079071 0.0
    vertex 75.0 4.21999979019165 15.380383491516112
    vertex 75.0 11.0 12.0
  endloop
endfacet
facet normal -1.0 0.0 0.0
  outer loop
    vertex 75.0 0.2199999988079071 0.0
    vertex 75.0 11.0 12.0
    vertex 75.0 39.343604088836976 0.0
  endloop
endfacet
facet normal -1.0 0.0 0.0
  outer loop
    vertex 75.0 39.343604088836976 0.0
    vertex 75.0 11.0 12.0
    vertex 75.0 39.343604088836976 12.0
  endloop
endfacet
facet normal 1.2000271819249746e-08 0.44619781945993275 0.89493435843597
  outer loop
    vertex 85.99999999999999 4.21999979019165 15.380383491516112
    vertex 75.0 11.0 12.0
    vertex 75.0 4.21999979019165 15.380383491516112
  endloop
endfacet
facet normal 1.2000271819249746e-08 0.44619781945993275 0.89493435843597
  outer loop
    vertex 75.0 11.0 12.0
    vertex 85.99999999999999 4.21999979019165 15.380383491516112
    vertex 79.99999999999999 11.0 12.0
  endloop
endfacet
facet normal 1.2000271819249746e-08 0.44619781945993275 0.89493435843597
  outer loop
    vertex 79.99999999999999 11.0 12.0
    vertex 85.99999999999999 4.21999979019165 15.380383491516112
    vertex 85.99999999999999 4.999999999999999 14.99148941040039
  endloop
endfacet
facet normal -0.0 1.0 -0.0
  outer loop
    vertex 75.0 4.21999979019165 15.380383491516112
    vertex 78.43177795410155 4.21999979019165 18.535013198852536
    vertex 85.99999999999999 4.21999979019165 15.380383491516112
  endloop
endfacet
facet normal -0.0 1.0 -0.0
  outer loop
    vertex 78.43177795410155 4.21999979019165 18.535013198852536
    vertex 75.0 4.21999979019165 15.380383491516112
    vertex 78.16709899902342 4.21999979019165 18.651113510131836
  endloop
endfacet
facet normal -0.0 1.0 -0.0
  outer loop
    vertex 78.16709899902342 4.21999979019165 18.651113510131836
    vertex 75.0 4.21999979019165 15.380383491516112
    vertex 77.92513275146484 4.21999979019165 18.80919647216797
  endloop
endfacet
facet normal -0.0 1.0 -0.0
  outer loop
    vertex 77.92513275146484 4.21999979019165 18.80919647216797
    vertex 75.0 4.21999979019165 15.380383491516112
    vertex 77.71248626708984 4.21999979019165 19.004947662353516
  endloop
endfacet
facet normal -0.0 1.0 -0.0
  outer loop
    vertex 77.71248626708984 4.21999979019165 19.004947662353516
    vertex 75.0 4.21999979019165 15.380383491516112
    vertex 77.53495788574217 4.21999979019165 19.2330322265625
  endloop
endfacet
facet normal -0.0 1.0 -0.0
  outer loop
    vertex 77.53495788574217 4.21999979019165 19.2330322265625
    vertex 75.0 4.21999979019165 15.380383491516112
    vertex 77.39739990234374 4.21999979019165 19.48722457885742
  endloop
endfacet
facet normal -0.0 1.0 -0.0
  outer loop
    vertex 77.39739990234374 4.21999979019165 19.48722457885742
    vertex 75.0 4.21999979019165 15.380383491516112
    vertex 75.0 4.21999979019165 25.0
  endloop
endfacet
facet normal -0.0 1.0 -0.0
  outer loop
    vertex 85.99999999999999 4.21999979019165 15.380383491516112
    vertex 78.43177795410155 4.21999979019165 18.535013198852536
    vertex 78.71195983886717 4.21999979019165 18.464059829711914
  endloop
endfacet
facet normal -0.0 1.0 -0.0
  outer loop
    vertex 85.99999999999999 4.21999979019165 15.380383491516112
    vertex 78.71195983886717 4.21999979019165 18.464059829711914
    vertex 78.99999999999999 4.21999979019165 18.440193176269528
  endloop
endfacet
facet normal -0.0 1.0 -0.0
  outer loop
    vertex 77.39739990234374 4.21999979019165 19.48722457885742
    vertex 75.0 4.21999979019165 25.0
    vertex 77.30355072021484 4.21999979019165 19.760591506958004
  endloop
endfacet
facet normal -0.0 1.0 -0.0
  outer loop
    vertex 77.30355072021484 4.21999979019165 19.760591506958004
    vertex 75.0 4.21999979019165 25.0
    vertex 77.2559814453125 4.21999979019165 20.045679092407223
  endloop
endfacet
facet normal -0.0 1.0 -0.0
  outer loop
    vertex 77.2559814453125 4.21999979019165 20.045679092407223
    vertex 75.0 4.21999979019165 25.0
    vertex 77.2559814453125 4.21999979019165 20.334705352783203
  endloop
endfacet
facet normal -0.0 1.0 -0.0
  outer loop
    vertex 77.2559814453125 4.21999979019165 20.334705352783203
    vertex 75.0 4.21999979019165 25.0
    vertex 77.30355072021484 4.21999979019165 20.61979103088379
  endloop
endfacet
facet normal -0.0 1.0 -0.0
  outer loop
    vertex 77.30355072021484 4.21999979019165 20.61979103088379
    vertex 75.0 4.21999979019165 25.0
    vertex 77.39739990234374 4.21999979019165 20.89315795898437
  endloop
endfacet
facet normal -0.0 1.0 -0.0
  outer loop
    vertex 77.39739990234374 4.21999979019165 20.89315795898437
    vertex 75.0 4.21999979019165 25.0
    vertex 77.53495788574217 4.21999979019165 21.147352218627926
  endloop
endfacet
facet normal -0.0 1.0 -0.0
  outer loop
    vertex 77.53495788574217 4.21999979019165 21.147352218627926
    vertex 75.0 4.21999979019165 25.0
    vertex 77.71248626708984 4.21999979019165 21.37543487548828
  endloop
endfacet
facet normal -0.0 1.0 -0.0
  outer loop
    vertex 77.71248626708984 4.21999979019165 21.37543487548828
    vertex 75.0 4.21999979019165 25.0
    vertex 77.92513275146484 4.21999979019165 21.57118797302246
  endloop
endfacet
facet normal -0.0 1.0 -0.0
  outer loop
    vertex 77.92513275146484 4.21999979019165 21.57118797302246
    vertex 75.0 4.21999979019165 25.0
    vertex 78.16709899902342 4.21999979019165 21.729270935058594
  endloop
endfacet
facet normal -0.0 1.0 -0.0
  outer loop
    vertex 78.16709899902342 4.21999979019165 21.729270935058594
    vertex 75.0 4.21999979019165 25.0
    vertex 78.43177795410155 4.21999979019165 21.84537315368652
  endloop
endfacet
facet normal -0.0 1.0 -0.0
  outer loop
    vertex 78.43177795410155 4.21999979019165 21.84537315368652
    vertex 75.0 4.21999979019165 25.0
    vertex 78.71195983886717 4.21999979019165 21.916324615478512
  endloop
endfacet
facet normal -0.0 1.0 -0.0
  outer loop
    vertex 78.71195983886717 4.21999979019165 21.916324615478512
    vertex 75.0 4.21999979019165 25.0
    vertex 78.99999999999999 4.21999979019165 21.9401912689209
  endloop
endfacet
facet normal -0.0 1.0 -0.0
  outer loop
    vertex 78.99999999999999 4.21999979019165 21.9401912689209
    vertex 75.0 4.21999979019165 25.0
    vertex 82.0 4.21999979019165 21.9401912689209
  endloop
endfacet
facet normal -0.0 1.0 -0.0
  outer loop
    vertex 85.99999999999999 4.21999979019165 15.380383491516112
    vertex 83.60260772705077 4.21999979019165 19.48722457885742
    vertex 85.99999999999999 4.21999979019165 25.0
  endloop
endfacet
facet normal -0.0 1.0 -0.0
  outer loop
    vertex 83.60260772705077 4.21999979019165 19.48722457885742
    vertex 85.99999999999999 4.21999979019165 15.380383491516112
    vertex 83.46504211425781 4.21999979019165 19.2330322265625
  endloop
endfacet
facet normal -0.0 1.0 -0.0
  outer loop
    vertex 83.46504211425781 4.21999979019165 19.2330322265625
    vertex 85.99999999999999 4.21999979019165 15.380383491516112
    vertex 83.28751373291014 4.21999979019165 19.004947662353516
  endloop
endfacet
facet normal -0.0 1.0 -0.0
  outer loop
    vertex 83.28751373291014 4.21999979019165 19.004947662353516
    vertex 85.99999999999999 4.21999979019165 15.380383491516112
    vertex 83.07487487792967 4.21999979019165 18.80919647216797
  endloop
endfacet
facet normal -0.0 1.0 -0.0
  outer loop
    vertex 83.07487487792967 4.21999979019165 18.80919647216797
    vertex 85.99999999999999 4.21999979019165 15.380383491516112
    vertex 82.83290863037108 4.21999979019165 18.651113510131836
  endloop
endfacet
facet normal -0.0 1.0 -0.0
  outer loop
    vertex 82.83290863037108 4.21999979019165 18.651113510131836
    vertex 85.99999999999999 4.21999979019165 15.380383491516112
    vertex 82.56822204589844 4.21999979019165 18.535013198852536
  endloop
endfacet
facet normal -0.0 1.0 -0.0
  outer loop
    vertex 82.56822204589844 4.21999979019165 18.535013198852536
    vertex 85.99999999999999 4.21999979019165 15.380383491516112
    vertex 82.28804016113281 4.21999979019165 18.464059829711914
  endloop
endfacet
facet normal -0.0 1.0 -0.0
  outer loop
    vertex 82.28804016113281 4.21999979019165 18.464059829711914
    vertex 85.99999999999999 4.21999979019165 15.380383491516112
    vertex 82.0 4.21999979019165 18.440193176269528
  endloop
endfacet
facet normal -0.0 1.0 -0.0
  outer loop
    vertex 82.0 4.21999979019165 18.440193176269528
    vertex 85.99999999999999 4.21999979019165 15.380383491516112
    vertex 78.99999999999999 4.21999979019165 18.440193176269528
  endloop
endfacet
facet normal -0.0 1.0 -0.0
  outer loop
    vertex 85.99999999999999 4.21999979019165 25.0
    vertex 83.60260772705077 4.21999979019165 19.48722457885742
    vertex 83.69644927978514 4.21999979019165 19.760591506958004
  endloop
endfacet
facet normal -0.0 1.0 -0.0
  outer loop
    vertex 85.99999999999999 4.21999979019165 25.0
    vertex 83.69644927978514 4.21999979019165 19.760591506958004
    vertex 83.74402618408202 4.21999979019165 20.045679092407223
  endloop
endfacet
facet normal -0.0 1.0 -0.0
  outer loop
    vertex 85.99999999999999 4.21999979019165 25.0
    vertex 83.74402618408202 4.21999979019165 20.045679092407223
    vertex 83.74402618408202 4.21999979019165 20.334705352783203
  endloop
endfacet
facet normal -0.0 1.0 -0.0
  outer loop
    vertex 85.99999999999999 4.21999979019165 25.0
    vertex 83.74402618408202 4.21999979019165 20.334705352783203
    vertex 83.69644927978514 4.21999979019165 20.61979103088379
  endloop
endfacet
facet normal -0.0 1.0 -0.0
  outer loop
    vertex 85.99999999999999 4.21999979019165 25.0
    vertex 83.69644927978514 4.21999979019165 20.61979103088379
    vertex 83.60260772705077 4.21999979019165 20.89315795898437
  endloop
endfacet
facet normal -0.0 1.0 -0.0
  outer loop
    vertex 85.99999999999999 4.21999979019165 25.0
    vertex 83.60260772705077 4.21999979019165 20.89315795898437
    vertex 83.46504211425781 4.21999979019165 21.147352218627926
  endloop
endfacet
facet normal -0.0 1.0 -0.0
  outer loop
    vertex 85.99999999999999 4.21999979019165 25.0
    vertex 83.46504211425781 4.21999979019165 21.147352218627926
    vertex 83.28751373291014 4.21999979019165 21.37543487548828
  endloop
endfacet
facet normal -0.0 1.0 -0.0
  outer loop
    vertex 85.99999999999999 4.21999979019165 25.0
    vertex 83.28751373291014 4.21999979019165 21.37543487548828
    vertex 83.07487487792967 4.21999979019165 21.57118797302246
  endloop
endfacet
facet normal -0.0 1.0 -0.0
  outer loop
    vertex 85.99999999999999 4.21999979019165 25.0
    vertex 83.07487487792967 4.21999979019165 21.57118797302246
    vertex 82.83290863037108 4.21999979019165 21.729270935058594
  endloop
endfacet
facet normal -0.0 1.0 -0.0
  outer loop
    vertex 85.99999999999999 4.21999979019165 25.0
    vertex 82.83290863037108 4.21999979019165 21.729270935058594
    vertex 82.56822204589844 4.21999979019165 21.84537315368652
  endloop
endfacet
facet normal -0.0 1.0 -0.0
  outer loop
    vertex 85.99999999999999 4.21999979019165 25.0
    vertex 82.56822204589844 4.21999979019165 21.84537315368652
    vertex 82.28804016113281 4.21999979019165 21.916324615478512
  endloop
endfacet
facet normal -0.0 1.0 -0.0
  outer loop
    vertex 85.99999999999999 4.21999979019165 25.0
    vertex 82.28804016113281 4.21999979019165 21.916324615478512
    vertex 82.0 4.21999979019165 21.9401912689209
  endloop
endfacet
facet normal -0.0 1.0 -0.0
  outer loop
    vertex 85.99999999999999 4.21999979019165 25.0
    vertex 82.0 4.21999979019165 21.9401912689209
    vertex 75.0 4.21999979019165 25.0
  endloop
endfacet
facet normal -0.0 -0.0 1.0
  outer loop
    vertex 79.99999999999999 11.0 12.0
    vertex 75.0 39.343604088836976 12.0
    vertex 75.0 11.0 12.0
  endloop
endfacet
facet normal -0.0 -0.0 1.0
  outer loop
    vertex 75.0 39.343604088836976 12.0
    vertex 79.99999999999999 11.0 12.0
    vertex 77.99999999999999 45.343604088836976 12.0
  endloop
endfacet
facet normal -0.0 -0.0 1.0
  outer loop
    vertex 77.99999999999999 45.343604088836976 12.0
    vertex 79.99999999999999 11.0 12.0
    vertex 79.99999999999999 43.34360408883698 12.0
  endloop
endfacet
facet normal -0.0 -0.0 1.0
  outer loop
    vertex 75.0 39.343604088836976 12.0
    vertex 62.0 45.343604088836976 12.0
    vertex 62.0 39.343604088836976 12.0
  endloop
endfacet
facet normal -0.0 -0.0 1.0
  outer loop
    vertex 62.0 45.343604088836976 12.0
    vertex 75.0 39.343604088836976 12.0
    vertex 77.99999999999999 45.343604088836976 12.0
  endloop
endfacet
facet normal -1.0 0.0 0.0
  outer loop
    vertex 62.0 45.343604088836976 12.0
    vertex 62.0 39.343604088836976 0.0
    vertex 62.0 39.343604088836976 12.0
  endloop
endfacet
facet normal -1.0 0.0 0.0
  outer loop
    vertex 62.0 39.343604088836976 0.0
    vertex 62.0 45.343604088836976 12.0
    vertex 62.0 45.343604088836976 0.0
  endloop
endfacet
facet normal -0.08257906673636742 0.0 -0.9965845161033513
  outer loop
    vertex 69.28804016113281 45.343604088836976 7.726132392883301
    vertex 69.0 39.343604088836976 7.75
    vertex 69.0 45.343604088836976 7.75
  endloop
endfacet
facet normal -0.08257906673636742 0.0 -0.9965845161033513
  outer loop
    vertex 69.0 39.343604088836976 7.75
    vertex 69.28804016113281 45.343604088836976 7.726132392883301
    vertex 69.28804016113281 39.343604088836976 7.726132392883301
  endloop
endfacet
facet normal -0.2454878482120067 0.0 -0.9693996680318385
  outer loop
    vertex 69.56822204589844 45.343604088836976 7.655179977416991
    vertex 69.28804016113281 39.343604088836976 7.726132392883301
    vertex 69.28804016113281 45.343604088836976 7.726132392883301
  endloop
endfacet
facet normal -0.2454878482120067 0.0 -0.9693996680318385
  outer loop
    vertex 69.28804016113281 39.343604088836976 7.726132392883301
    vertex 69.56822204589844 45.343604088836976 7.655179977416991
    vertex 69.56822204589844 39.343604088836976 7.655179977416991
  endloop
endfacet
facet normal -0.4016910363990908 0.0 -0.9157752515091376
  outer loop
    vertex 69.83290863037108 45.343604088836976 7.539079189300537
    vertex 69.56822204589844 39.343604088836976 7.655179977416991
    vertex 69.56822204589844 45.343604088836976 7.655179977416991
  endloop
endfacet
facet normal -0.4016910363990908 0.0 -0.9157752515091376
  outer loop
    vertex 69.56822204589844 39.343604088836976 7.655179977416991
    vertex 69.83290863037108 45.343604088836976 7.539079189300537
    vertex 69.83290863037108 39.343604088836976 7.539079189300537
  endloop
endfacet
facet normal -0.5469457319266323 0.0 -0.8371680633703371
  outer loop
    vertex 70.07487487792969 45.343604088836976 7.380995750427245
    vertex 69.83290863037108 39.343604088836976 7.539079189300537
    vertex 69.83290863037108 45.343604088836976 7.539079189300537
  endloop
endfacet
facet normal -0.5469457319266323 0.0 -0.8371680633703371
  outer loop
    vertex 69.83290863037108 39.343604088836976 7.539079189300537
    vertex 70.07487487792969 45.343604088836976 7.380995750427245
    vertex 70.07487487792969 39.343604088836976 7.380995750427245
  endloop
endfacet
facet normal -0.6772782352453977 0.0 -0.7357269820136271
  outer loop
    vertex 70.28752136230469 45.343604088836976 7.185242652893066
    vertex 70.07487487792969 39.343604088836976 7.380995750427245
    vertex 70.07487487792969 45.343604088836976 7.380995750427245
  endloop
endfacet
facet normal -0.6772782352453977 0.0 -0.7357269820136271
  outer loop
    vertex 70.07487487792969 39.343604088836976 7.380995750427245
    vertex 70.28752136230469 45.343604088836976 7.185242652893066
    vertex 70.28752136230469 39.343604088836976 7.185242652893066
  endloop
endfacet
facet normal -0.7891463399263611 0.0 -0.6142052215512567
  outer loop
    vertex 70.28752136230469 45.343604088836976 7.185242652893066
    vertex 70.46504211425781 39.343604088836976 6.957159519195557
    vertex 70.28752136230469 39.343604088836976 7.185242652893066
  endloop
endfacet
facet normal -0.7891463399263611 0.0 -0.6142052215512567
  outer loop
    vertex 70.46504211425781 39.343604088836976 6.957159519195557
    vertex 70.28752136230469 45.343604088836976 7.185242652893066
    vertex 70.46504211425781 45.343604088836976 6.957159519195557
  endloop
endfacet
facet normal -0.8794795998897088 0.0 -0.4759365854584388
  outer loop
    vertex 70.46504211425781 45.343604088836976 6.957159519195557
    vertex 70.60260009765625 39.343604088836976 6.702967166900635
    vertex 70.46504211425781 39.343604088836976 6.957159519195557
  endloop
endfacet
facet normal -0.8794795998897088 0.0 -0.4759365854584388
  outer loop
    vertex 70.60260009765625 39.343604088836976 6.702967166900635
    vertex 70.46504211425781 45.343604088836976 6.957159519195557
    vertex 70.60260009765625 45.343604088836976 6.702967166900635
  endloop
endfacet
facet normal -0.9458150810159635 0.0 -0.32470576299592596
  outer loop
    vertex 70.60260009765625 45.343604088836976 6.702967166900635
    vertex 70.69644927978514 39.343604088836976 6.429599761962891
    vertex 70.60260009765625 39.343604088836976 6.702967166900635
  endloop
endfacet
facet normal -0.9458150810159635 0.0 -0.32470576299592596
  outer loop
    vertex 70.69644927978514 39.343604088836976 6.429599761962891
    vertex 70.60260009765625 45.343604088836976 6.702967166900635
    vertex 70.69644927978514 45.343604088836976 6.429599761962891
  endloop
endfacet
facet normal -0.986358809863543 0.0 -0.16460953254467192
  outer loop
    vertex 70.69644927978514 45.343604088836976 6.429599761962891
    vertex 70.74402618408203 39.343604088836976 6.144513607025146
    vertex 70.69644927978514 39.343604088836976 6.429599761962891
  endloop
endfacet
facet normal -0.986358809863543 0.0 -0.16460953254467192
  outer loop
    vertex 70.74402618408203 39.343604088836976 6.144513607025146
    vertex 70.69644927978514 45.343604088836976 6.429599761962891
    vertex 70.74402618408203 45.343604088836976 6.144513607025146
  endloop
endfacet
facet normal -1.0 0.0 0.0
  outer loop
    vertex 70.74402618408203 45.343604088836976 6.144513607025146
    vertex 70.74402618408203 39.343604088836976 5.8554863929748535
    vertex 70.74402618408203 39.343604088836976 6.144513607025146
  endloop
endfacet
facet normal -1.0 0.0 0.0
  outer loop
    vertex 70.74402618408203 39.343604088836976 5.8554863929748535
    vertex 70.74402618408203 45.343604088836976 6.144513607025146
    vertex 70.74402618408203 45.343604088836976 5.8554863929748535
  endloop
endfacet
facet normal -0.9863587651602087 0.0 0.16460980041184797
  outer loop
    vertex 70.74402618408203 45.343604088836976 5.8554863929748535
    vertex 70.69644927978514 39.343604088836976 5.570400714874268
    vertex 70.74402618408203 39.343604088836976 5.8554863929748535
  endloop
endfacet
facet normal -0.9863587651602087 0.0 0.16460980041184797
  outer loop
    vertex 70.69644927978514 39.343604088836976 5.570400714874268
    vertex 70.74402618408203 45.343604088836976 5.8554863929748535
    vertex 70.69644927978514 45.343604088836976 5.570400714874268
  endloop
endfacet
facet normal -0.9458150810159637 0.0 0.32470576299592596
  outer loop
    vertex 70.69644927978514 45.343604088836976 5.570400714874268
    vertex 70.60260009765625 39.343604088836976 5.297033309936523
    vertex 70.69644927978514 39.343604088836976 5.570400714874268
  endloop
endfacet
facet normal -0.9458150810159637 0.0 0.32470576299592596
  outer loop
    vertex 70.60260009765625 39.343604088836976 5.297033309936523
    vertex 70.69644927978514 45.343604088836976 5.570400714874268
    vertex 70.60260009765625 45.343604088836976 5.297033309936523
  endloop
endfacet
facet normal -0.8794795998897088 0.0 0.4759365854584388
  outer loop
    vertex 70.60260009765625 45.343604088836976 5.297033309936523
    vertex 70.46504211425781 39.343604088836976 5.042840957641602
    vertex 70.60260009765625 39.343604088836976 5.297033309936523
  endloop
endfacet
facet normal -0.8794795998897088 0.0 0.4759365854584388
  outer loop
    vertex 70.46504211425781 39.343604088836976 5.042840957641602
    vertex 70.60260009765625 45.343604088836976 5.297033309936523
    vertex 70.46504211425781 45.343604088836976 5.042840957641602
  endloop
endfacet
facet normal -0.7891475846982563 0.0 0.6142036222336272
  outer loop
    vertex 70.46504211425781 45.343604088836976 5.042840957641602
    vertex 70.28752136230469 39.343604088836976 4.814756870269775
    vertex 70.46504211425781 39.343604088836976 5.042840957641602
  endloop
endfacet
facet normal -0.7891475846982563 0.0 0.6142036222336272
  outer loop
    vertex 70.28752136230469 39.343604088836976 4.814756870269775
    vertex 70.46504211425781 45.343604088836976 5.042840957641602
    vertex 70.28752136230469 45.343604088836976 4.814756870269775
  endloop
endfacet
facet normal -0.6772773422223617 -0.0 0.7357278040907617
  outer loop
    vertex 70.28752136230469 39.343604088836976 4.814756870269775
    vertex 70.07487487792969 45.343604088836976 4.619004249572754
    vertex 70.07487487792969 39.343604088836976 4.619004249572754
  endloop
endfacet
facet normal -0.6772773422223617 -0.0 0.7357278040907617
  outer loop
    vertex 70.07487487792969 45.343604088836976 4.619004249572754
    vertex 70.28752136230469 39.343604088836976 4.814756870269775
    vertex 70.28752136230469 45.343604088836976 4.814756870269775
  endloop
endfacet
facet normal -0.5469457319266307 -0.0 0.8371680633703382
  outer loop
    vertex 70.07487487792969 39.343604088836976 4.619004249572754
    vertex 69.83290863037108 45.343604088836976 4.460920810699462
    vertex 69.83290863037108 39.343604088836976 4.460920810699462
  endloop
endfacet
facet normal -0.5469457319266307 -0.0 0.8371680633703382
  outer loop
    vertex 69.83290863037108 45.343604088836976 4.460920810699462
    vertex 70.07487487792969 39.343604088836976 4.619004249572754
    vertex 70.07487487792969 45.343604088836976 4.619004249572754
  endloop
endfacet
facet normal -0.4016924199796082 -0.0 0.9157746446211134
  outer loop
    vertex 69.83290863037108 39.343604088836976 4.460920810699462
    vertex 69.56822204589844 45.343604088836976 4.34481954574585
    vertex 69.56822204589844 39.343604088836976 4.34481954574585
  endloop
endfacet
facet normal -0.4016924199796082 -0.0 0.9157746446211134
  outer loop
    vertex 69.56822204589844 45.343604088836976 4.34481954574585
    vertex 69.83290863037108 39.343604088836976 4.460920810699462
    vertex 69.83290863037108 45.343604088836976 4.460920810699462
  endloop
endfacet
facet normal -0.24548629782934334 -0.0 0.9694000606447492
  outer loop
    vertex 69.56822204589844 39.343604088836976 4.34481954574585
    vertex 69.28804016113281 45.343604088836976 4.273867607116699
    vertex 69.28804016113281 39.343604088836976 4.273867607116699
  endloop
endfacet
facet normal -0.24548629782934334 -0.0 0.9694000606447492
  outer loop
    vertex 69.28804016113281 45.343604088836976 4.273867607116699
    vertex 69.56822204589844 39.343604088836976 4.34481954574585
    vertex 69.56822204589844 45.343604088836976 4.34481954574585
  endloop
endfacet
facet normal -0.08257906673636742 -0.0 0.9965845161033513
  outer loop
    vertex 69.28804016113281 39.343604088836976 4.273867607116699
    vertex 69.0 45.343604088836976 4.25
    vertex 69.0 39.343604088836976 4.25
  endloop
endfacet
facet normal -0.08257906673636742 -0.0 0.9965845161033513
  outer loop
    vertex 69.0 45.343604088836976 4.25
    vertex 69.28804016113281 39.343604088836976 4.273867607116699
    vertex 69.28804016113281 45.343604088836976 4.273867607116699
  endloop
endfacet
facet normal 0.0 0.0 -1.0
  outer loop
    vertex 69.0 45.343604088836976 7.75
    vertex 65.99999999999999 39.343604088836976 7.75
    vertex 65.99999999999999 45.343604088836976 7.75
  endloop
endfacet
facet normal 0.0 0.0 -1.0
  outer loop
    vertex 65.99999999999999 39.343604088836976 7.75
    vertex 69.0 45.343604088836976 7.75
    vertex 69.0 39.343604088836976 7.75
  endloop
endfacet
facet normal 0.08257906673636742 -0.0 0.9965845161033513
  outer loop
    vertex 65.99999999999999 39.343604088836976 4.25
    vertex 65.71195983886719 45.343604088836976 4.273867607116699
    vertex 65.71195983886719 39.343604088836976 4.273867607116699
  endloop
endfacet
facet normal 0.08257906673636742 -0.0 0.9965845161033513
  outer loop
    vertex 65.71195983886719 45.343604088836976 4.273867607116699
    vertex 65.99999999999999 39.343604088836976 4.25
    vertex 65.99999999999999 45.343604088836976 4.25
  endloop
endfacet
facet normal 0.2454800161956751 -0.0 0.9694016513543656
  outer loop
    vertex 65.71195983886719 39.343604088836976 4.273867607116699
    vertex 65.43177032470703 45.343604088836976 4.34481954574585
    vertex 65.43177032470703 39.343604088836976 4.34481954574585
  endloop
endfacet
facet normal 0.2454800161956751 -0.0 0.9694016513543656
  outer loop
    vertex 65.43177032470703 45.343604088836976 4.34481954574585
    vertex 65.71195983886719 39.343604088836976 4.273867607116699
    vertex 65.71195983886719 45.343604088836976 4.273867607116699
  endloop
endfacet
facet normal 0.40170213041042374 -0.0 0.9157703852078463
  outer loop
    vertex 65.43177032470703 39.343604088836976 4.34481954574585
    vertex 65.1670913696289 45.343604088836976 4.460920810699462
    vertex 65.1670913696289 39.343604088836976 4.460920810699462
  endloop
endfacet
facet normal 0.40170213041042374 -0.0 0.9157703852078463
  outer loop
    vertex 65.1670913696289 45.343604088836976 4.460920810699462
    vertex 65.43177032470703 39.343604088836976 4.34481954574585
    vertex 65.43177032470703 45.343604088836976 4.34481954574585
  endloop
endfacet
facet normal 0.5469457319266305 -0.0 0.8371680633703381
  outer loop
    vertex 65.1670913696289 39.343604088836976 4.460920810699462
    vertex 64.92512512207031 45.343604088836976 4.619004249572754
    vertex 64.92512512207031 39.343604088836976 4.619004249572754
  endloop
endfacet
facet normal 0.5469457319266305 -0.0 0.8371680633703381
  outer loop
    vertex 64.92512512207031 45.343604088836976 4.619004249572754
    vertex 65.1670913696289 39.343604088836976 4.460920810699462
    vertex 65.1670913696289 45.343604088836976 4.460920810699462
  endloop
endfacet
facet normal 0.6772773422223617 -0.0 0.7357278040907617
  outer loop
    vertex 64.92512512207031 39.343604088836976 4.619004249572754
    vertex 64.7124786376953 45.343604088836976 4.814756870269775
    vertex 64.7124786376953 39.343604088836976 4.814756870269775
  endloop
endfacet
facet normal 0.6772773422223617 -0.0 0.7357278040907617
  outer loop
    vertex 64.7124786376953 45.343604088836976 4.814756870269775
    vertex 64.92512512207031 39.343604088836976 4.619004249572754
    vertex 64.92512512207031 45.343604088836976 4.619004249572754
  endloop
endfacet
facet normal 0.789160379252291 -0.0 0.6141871830463254
  outer loop
    vertex 64.7124786376953 45.343604088836976 4.814756870269775
    vertex 64.53496551513672 39.343604088836976 5.042840957641602
    vertex 64.7124786376953 39.343604088836976 4.814756870269775
  endloop
endfacet
facet normal 0.789160379252291 -0.0 0.6141871830463254
  outer loop
    vertex 64.53496551513672 39.343604088836976 5.042840957641602
    vertex 64.7124786376953 45.343604088836976 4.814756870269775
    vertex 64.53496551513672 45.343604088836976 5.042840957641602
  endloop
endfacet
facet normal 0.8794575012298289 -0.0 0.4759774191393806
  outer loop
    vertex 64.53496551513672 45.343604088836976 5.042840957641602
    vertex 64.39739227294922 39.343604088836976 5.297033309936523
    vertex 64.53496551513672 39.343604088836976 5.042840957641602
  endloop
endfacet
facet normal 0.8794575012298289 -0.0 0.4759774191393806
  outer loop
    vertex 64.39739227294922 39.343604088836976 5.297033309936523
    vertex 64.53496551513672 45.343604088836976 5.042840957641602
    vertex 64.39739227294922 45.343604088836976 5.297033309936523
  endloop
endfacet
facet normal 0.9458231875225408 -0.0 0.32468214910077936
  outer loop
    vertex 64.39739227294922 45.343604088836976 5.297033309936523
    vertex 64.30355072021484 39.343604088836976 5.570400714874268
    vertex 64.39739227294922 39.343604088836976 5.297033309936523
  endloop
endfacet
facet normal 0.9458231875225408 -0.0 0.32468214910077936
  outer loop
    vertex 64.30355072021484 39.343604088836976 5.570400714874268
    vertex 64.39739227294922 45.343604088836976 5.297033309936523
    vertex 64.30355072021484 45.343604088836976 5.570400714874268
  endloop
endfacet
facet normal 0.9863587651602087 -0.0 0.16460980041184795
  outer loop
    vertex 64.30355072021484 45.343604088836976 5.570400714874268
    vertex 64.25597381591797 39.343604088836976 5.8554863929748535
    vertex 64.30355072021484 39.343604088836976 5.570400714874268
  endloop
endfacet
facet normal 0.9863587651602087 -0.0 0.16460980041184795
  outer loop
    vertex 64.25597381591797 39.343604088836976 5.8554863929748535
    vertex 64.30355072021484 45.343604088836976 5.570400714874268
    vertex 64.25597381591797 45.343604088836976 5.8554863929748535
  endloop
endfacet
facet normal 1.0 -0.0 -0.0
  outer loop
    vertex 64.25597381591797 45.343604088836976 5.8554863929748535
    vertex 64.25597381591797 39.343604088836976 6.144513607025146
    vertex 64.25597381591797 39.343604088836976 5.8554863929748535
  endloop
endfacet
facet normal 1.0 -0.0 -0.0
  outer loop
    vertex 64.25597381591797 39.343604088836976 6.144513607025146
    vertex 64.25597381591797 45.343604088836976 5.8554863929748535
    vertex 64.25597381591797 45.343604088836976 6.144513607025146
  endloop
endfacet
facet normal 0.986358809863543 -0.0 -0.16460953254467192
  outer loop
    vertex 64.25597381591797 45.343604088836976 6.144513607025146
    vertex 64.30355072021484 39.343604088836976 6.429599761962891
    vertex 64.25597381591797 39.343604088836976 6.144513607025146
  endloop
endfacet
facet normal 0.986358809863543 -0.0 -0.16460953254467192
  outer loop
    vertex 64.30355072021484 39.343604088836976 6.429599761962891
    vertex 64.25597381591797 45.343604088836976 6.144513607025146
    vertex 64.30355072021484 45.343604088836976 6.429599761962891
  endloop
endfacet
facet normal 0.9458231875225408 -0.0 -0.32468214910077936
  outer loop
    vertex 64.30355072021484 45.343604088836976 6.429599761962891
    vertex 64.39739227294922 39.343604088836976 6.702967166900635
    vertex 64.30355072021484 39.343604088836976 6.429599761962891
  endloop
endfacet
facet normal 0.9458231875225408 -0.0 -0.32468214910077936
  outer loop
    vertex 64.39739227294922 39.343604088836976 6.702967166900635
    vertex 64.30355072021484 45.343604088836976 6.429599761962891
    vertex 64.39739227294922 45.343604088836976 6.702967166900635
  endloop
endfacet
facet normal 0.8794575012298289 -0.0 -0.4759774191393807
  outer loop
    vertex 64.39739227294922 45.343604088836976 6.702967166900635
    vertex 64.53496551513672 39.343604088836976 6.957159519195557
    vertex 64.39739227294922 39.343604088836976 6.702967166900635
  endloop
endfacet
facet normal 0.8794575012298289 -0.0 -0.4759774191393807
  outer loop
    vertex 64.53496551513672 39.343604088836976 6.957159519195557
    vertex 64.39739227294922 45.343604088836976 6.702967166900635
    vertex 64.53496551513672 45.343604088836976 6.957159519195557
  endloop
endfacet
facet normal 0.7891591345268467 -0.0 -0.6141887823730081
  outer loop
    vertex 64.53496551513672 45.343604088836976 6.957159519195557
    vertex 64.7124786376953 39.343604088836976 7.185242652893066
    vertex 64.53496551513672 39.343604088836976 6.957159519195557
  endloop
endfacet
facet normal 0.7891591345268467 -0.0 -0.6141887823730081
  outer loop
    vertex 64.7124786376953 39.343604088836976 7.185242652893066
    vertex 64.53496551513672 45.343604088836976 6.957159519195557
    vertex 64.7124786376953 45.343604088836976 7.185242652893066
  endloop
endfacet
facet normal 0.6772782352453977 0.0 -0.7357269820136271
  outer loop
    vertex 64.92512512207031 45.343604088836976 7.380995750427245
    vertex 64.7124786376953 39.343604088836976 7.185242652893066
    vertex 64.7124786376953 45.343604088836976 7.185242652893066
  endloop
endfacet
facet normal 0.6772782352453977 0.0 -0.7357269820136271
  outer loop
    vertex 64.7124786376953 39.343604088836976 7.185242652893066
    vertex 64.92512512207031 45.343604088836976 7.380995750427245
    vertex 64.92512512207031 39.343604088836976 7.380995750427245
  endloop
endfacet
facet normal 0.5469457319266323 0.0 -0.8371680633703371
  outer loop
    vertex 65.1670913696289 45.343604088836976 7.539079189300537
    vertex 64.92512512207031 39.343604088836976 7.380995750427245
    vertex 64.92512512207031 45.343604088836976 7.380995750427245
  endloop
endfacet
facet normal 0.5469457319266323 0.0 -0.8371680633703371
  outer loop
    vertex 64.92512512207031 39.343604088836976 7.380995750427245
    vertex 65.1670913696289 45.343604088836976 7.539079189300537
    vertex 65.1670913696289 39.343604088836976 7.539079189300537
  endloop
endfacet
facet normal 0.4017007468093308 0.0 -0.9157709921223898
  outer loop
    vertex 65.43177032470703 45.343604088836976 7.655179977416991
    vertex 65.1670913696289 39.343604088836976 7.539079189300537
    vertex 65.1670913696289 45.343604088836976 7.539079189300537
  endloop
endfacet
facet normal 0.4017007468093308 0.0 -0.9157709921223898
  outer loop
    vertex 65.1670913696289 39.343604088836976 7.539079189300537
    vertex 65.43177032470703 45.343604088836976 7.655179977416991
    vertex 65.43177032470703 39.343604088836976 7.655179977416991
  endloop
endfacet
facet normal 0.2454815665437546 0.0 -0.9694012587609036
  outer loop
    vertex 65.71195983886719 45.343604088836976 7.726132392883301
    vertex 65.43177032470703 39.343604088836976 7.655179977416991
    vertex 65.43177032470703 45.343604088836976 7.655179977416991
  endloop
endfacet
facet normal 0.2454815665437546 0.0 -0.9694012587609036
  outer loop
    vertex 65.43177032470703 39.343604088836976 7.655179977416991
    vertex 65.71195983886719 45.343604088836976 7.726132392883301
    vertex 65.71195983886719 39.343604088836976 7.726132392883301
  endloop
endfacet
facet normal 0.08257906673636742 0.0 -0.9965845161033513
  outer loop
    vertex 65.99999999999999 45.343604088836976 7.75
    vertex 65.71195983886719 39.343604088836976 7.726132392883301
    vertex 65.71195983886719 45.343604088836976 7.726132392883301
  endloop
endfacet
facet normal 0.08257906673636742 0.0 -0.9965845161033513
  outer loop
    vertex 65.71195983886719 39.343604088836976 7.726132392883301
    vertex 65.99999999999999 45.343604088836976 7.75
    vertex 65.99999999999999 39.343604088836976 7.75
  endloop
endfacet
facet normal -0.0 -0.0 1.0
  outer loop
    vertex 69.0 39.343604088836976 4.25
    vertex 65.99999999999999 45.343604088836976 4.25
    vertex 65.99999999999999 39.343604088836976 4.25
  endloop
endfacet
facet normal -0.0 -0.0 1.0
  outer loop
    vertex 65.99999999999999 45.343604088836976 4.25
    vertex 69.0 39.343604088836976 4.25
    vertex 69.0 45.343604088836976 4.25
  endloop
endfacet
facet normal -0.0 -0.0 1.0
  outer loop
    vertex 85.99999999999999 0.2199999988079071 25.0
    vertex 75.0 4.21999979019165 25.0
    vertex 75.0 0.2199999988079071 25.0
  endloop
endfacet
facet normal -0.0 -0.0 1.0
  outer loop
    vertex 75.0 4.21999979019165 25.0
    vertex 85.99999999999999 0.2199999988079071 25.0
    vertex 85.99999999999999 4.21999979019165 25.0
  endloop
endfacet
facet normal 0.08257578963689176 1.2382895781583304e-31 -0.9965847876452079
  outer loop
    vertex 78.99999999999999 4.21999979019165 21.9401912689209
    vertex 78.71195983886717 0.2199999988079071 21.916324615478512
    vertex 78.71195983886717 4.21999979019165 21.916324615478512
  endloop
endfacet
facet normal 0.08257578963689176 1.2382895781583304e-31 -0.9965847876452079
  outer loop
    vertex 78.71195983886717 0.2199999988079071 21.916324615478512
    vertex 78.99999999999999 4.21999979019165 21.9401912689209
    vertex 78.99999999999999 0.2199999988079071 21.9401912689209
  endloop
endfacet
facet normal 0.2454847474448007 -1.2200916896433551e-31 -0.9694004532554968
  outer loop
    vertex 78.71195983886717 4.21999979019165 21.916324615478512
    vertex 78.43177795410155 0.2199999988079071 21.84537315368652
    vertex 78.43177795410155 4.21999979019165 21.84537315368652
  endloop
endfacet
facet normal 0.2454847474448007 -1.2200916896433551e-31 -0.9694004532554968
  outer loop
    vertex 78.43177795410155 0.2199999988079071 21.84537315368652
    vertex 78.71195983886717 4.21999979019165 21.916324615478512
    vertex 78.71195983886717 0.2199999988079071 21.916324615478512
  endloop
endfacet
facet normal 0.40170489760435096 -8.586530142650718e-32 -0.915769171374904
  outer loop
    vertex 78.43177795410155 4.21999979019165 21.84537315368652
    vertex 78.16709899902342 0.2199999988079071 21.729270935058594
    vertex 78.16709899902342 4.21999979019165 21.729270935058594
  endloop
endfacet
facet normal 0.40170489760435096 -8.586530142650718e-32 -0.915769171374904
  outer loop
    vertex 78.16709899902342 0.2199999988079071 21.729270935058594
    vertex 78.43177795410155 4.21999979019165 21.84537315368652
    vertex 78.43177795410155 0.2199999988079071 21.84537315368652
  endloop
endfacet
facet normal 0.5469445756710548 1.829956716569158e-18 -0.8371688187838877
  outer loop
    vertex 78.16709899902342 4.21999979019165 21.729270935058594
    vertex 77.92513275146484 0.2199999988079071 21.57118797302246
    vertex 77.92513275146484 4.21999979019165 21.57118797302246
  endloop
endfacet
facet normal 0.5469445756710548 1.829956716569158e-18 -0.8371688187838877
  outer loop
    vertex 77.92513275146484 0.2199999988079071 21.57118797302246
    vertex 78.16709899902342 4.21999979019165 21.729270935058594
    vertex 78.16709899902342 0.2199999988079071 21.729270935058594
  endloop
endfacet
facet normal 0.6772782352454002 -1.4804539153446966e-18 -0.7357269820136247
  outer loop
    vertex 77.92513275146484 4.21999979019165 21.57118797302246
    vertex 77.71248626708984 0.2199999988079071 21.37543487548828
    vertex 77.71248626708984 4.21999979019165 21.37543487548828
  endloop
endfacet
facet normal 0.6772782352454002 -1.4804539153446966e-18 -0.7357269820136247
  outer loop
    vertex 77.71248626708984 0.2199999988079071 21.37543487548828
    vertex 77.92513275146484 4.21999979019165 21.57118797302246
    vertex 77.92513275146484 0.2199999988079071 21.57118797302246
  endloop
endfacet
facet normal 0.789132922985503 3.158903352639197e-31 -0.6142224595863915
  outer loop
    vertex 77.53495788574217 4.21999979019165 21.147352218627926
    vertex 77.71248626708984 0.2199999988079071 21.37543487548828
    vertex 77.53495788574217 0.2199999988079071 21.147352218627926
  endloop
endfacet
facet normal 0.789132922985503 3.158903352639197e-31 -0.6142224595863915
  outer loop
    vertex 77.71248626708984 0.2199999988079071 21.37543487548828
    vertex 77.53495788574217 4.21999979019165 21.147352218627926
    vertex 77.71248626708984 4.21999979019165 21.37543487548828
  endloop
endfacet
facet normal 0.8794810947058285 -1.0403377154584353e-18 -0.4759338231887262
  outer loop
    vertex 77.39739990234374 4.21999979019165 20.89315795898437
    vertex 77.53495788574217 0.2199999988079071 21.147352218627926
    vertex 77.39739990234374 0.2199999988079071 20.89315795898437
  endloop
endfacet
facet normal 0.8794810947058285 -1.0403377154584353e-18 -0.4759338231887262
  outer loop
    vertex 77.53495788574217 0.2199999988079071 21.147352218627926
    vertex 77.39739990234374 4.21999979019165 20.89315795898437
    vertex 77.53495788574217 4.21999979019165 21.147352218627926
  endloop
endfacet
facet normal 0.9458149070715011 -0.0 -0.32470626966741495
  outer loop
    vertex 77.30355072021484 4.21999979019165 20.61979103088379
    vertex 77.39739990234374 0.2199999988079071 20.89315795898437
    vertex 77.30355072021484 0.2199999988079071 20.61979103088379
  endloop
endfacet
facet normal 0.9458149070715011 -0.0 -0.32470626966741495
  outer loop
    vertex 77.39739990234374 0.2199999988079071 20.89315795898437
    vertex 77.30355072021484 4.21999979019165 20.61979103088379
    vertex 77.39739990234374 4.21999979019165 20.89315795898437
  endloop
endfacet
facet normal 0.9863630507261919 3.5976234050556045e-19 -0.16458411880287815
  outer loop
    vertex 77.2559814453125 4.21999979019165 20.334705352783203
    vertex 77.30355072021484 0.2199999988079071 20.61979103088379
    vertex 77.2559814453125 0.2199999988079071 20.334705352783203
  endloop
endfacet
facet normal 0.9863630507261919 3.5976234050556045e-19 -0.16458411880287815
  outer loop
    vertex 77.30355072021484 0.2199999988079071 20.61979103088379
    vertex 77.2559814453125 4.21999979019165 20.334705352783203
    vertex 77.30355072021484 4.21999979019165 20.61979103088379
  endloop
endfacet
facet normal 1.0 -0.0 -0.0
  outer loop
    vertex 77.2559814453125 4.21999979019165 20.045679092407223
    vertex 77.2559814453125 0.2199999988079071 20.334705352783203
    vertex 77.2559814453125 0.2199999988079071 20.045679092407223
  endloop
endfacet
facet normal 1.0 -0.0 -0.0
  outer loop
    vertex 77.2559814453125 0.2199999988079071 20.334705352783203
    vertex 77.2559814453125 4.21999979019165 20.045679092407223
    vertex 77.2559814453125 4.21999979019165 20.334705352783203
  endloop
endfacet
facet normal 0.9863632294832052 -0.0 0.16458304749718886
  outer loop
    vertex 77.30355072021484 4.21999979019165 19.760591506958004
    vertex 77.2559814453125 0.2199999988079071 20.045679092407223
    vertex 77.30355072021484 0.2199999988079071 19.760591506958004
  endloop
endfacet
facet normal 0.9863632294832052 -0.0 0.16458304749718886
  outer loop
    vertex 77.2559814453125 0.2199999988079071 20.045679092407223
    vertex 77.30355072021484 4.21999979019165 19.760591506958004
    vertex 77.2559814453125 4.21999979019165 20.045679092407223
  endloop
endfacet
facet normal 0.9458149070715021 7.097713218142834e-19 0.32470626966741195
  outer loop
    vertex 77.39739990234374 4.21999979019165 19.48722457885742
    vertex 77.30355072021484 0.2199999988079071 19.760591506958004
    vertex 77.39739990234374 0.2199999988079071 19.48722457885742
  endloop
endfacet
facet normal 0.9458149070715021 7.097713218142834e-19 0.32470626966741195
  outer loop
    vertex 77.30355072021484 0.2199999988079071 19.760591506958004
    vertex 77.39739990234374 4.21999979019165 19.48722457885742
    vertex 77.30355072021484 4.21999979019165 19.760591506958004
  endloop
endfacet
facet normal 0.8794795998897076 -0.0 0.47593658545844103
  outer loop
    vertex 77.53495788574217 4.21999979019165 19.2330322265625
    vertex 77.39739990234374 0.2199999988079071 19.48722457885742
    vertex 77.53495788574217 0.2199999988079071 19.2330322265625
  endloop
endfacet
facet normal 0.8794795998897076 -0.0 0.47593658545844103
  outer loop
    vertex 77.39739990234374 0.2199999988079071 19.48722457885742
    vertex 77.53495788574217 4.21999979019165 19.2330322265625
    vertex 77.39739990234374 4.21999979019165 19.48722457885742
  endloop
endfacet
facet normal 0.7891354126221872 -1.3426141022426243e-18 0.6142192609692492
  outer loop
    vertex 77.71248626708984 4.21999979019165 19.004947662353516
    vertex 77.53495788574217 0.2199999988079071 19.2330322265625
    vertex 77.71248626708984 0.2199999988079071 19.004947662353516
  endloop
endfacet
facet normal 0.7891354126221872 -1.3426141022426243e-18 0.6142192609692492
  outer loop
    vertex 77.53495788574217 0.2199999988079071 19.2330322265625
    vertex 77.71248626708984 4.21999979019165 19.004947662353516
    vertex 77.53495788574217 4.21999979019165 19.2330322265625
  endloop
endfacet
facet normal 0.6772746631352851 -1.4804461071143524e-18 0.7357302703266912
  outer loop
    vertex 77.92513275146484 0.2199999988079071 18.80919647216797
    vertex 77.71248626708984 4.21999979019165 19.004947662353516
    vertex 77.71248626708984 0.2199999988079071 19.004947662353516
  endloop
endfacet
facet normal 0.6772746631352851 -1.4804461071143524e-18 0.7357302703266912
  outer loop
    vertex 77.71248626708984 4.21999979019165 19.004947662353516
    vertex 77.92513275146484 0.2199999988079071 18.80919647216797
    vertex 77.92513275146484 4.21999979019165 18.80919647216797
  endloop
endfacet
facet normal 0.5469445756710548 2.7183869401980594e-31 0.8371688187838877
  outer loop
    vertex 78.16709899902342 0.2199999988079071 18.651113510131836
    vertex 77.92513275146484 4.21999979019165 18.80919647216797
    vertex 77.92513275146484 0.2199999988079071 18.80919647216797
  endloop
endfacet
facet normal 0.5469445756710548 2.7183869401980594e-31 0.8371688187838877
  outer loop
    vertex 77.92513275146484 4.21999979019165 18.80919647216797
    vertex 78.16709899902342 0.2199999988079071 18.651113510131836
    vertex 78.16709899902342 4.21999979019165 18.651113510131836
  endloop
endfacet
facet normal 0.4016993632054971 1.9964990081196804e-31 0.9157715990356429
  outer loop
    vertex 78.43177795410155 0.2199999988079071 18.535013198852536
    vertex 78.16709899902342 4.21999979019165 18.651113510131836
    vertex 78.16709899902342 0.2199999988079071 18.651113510131836
  endloop
endfacet
facet normal 0.4016993632054971 1.9964990081196804e-31 0.9157715990356429
  outer loop
    vertex 78.16709899902342 4.21999979019165 18.651113510131836
    vertex 78.43177795410155 0.2199999988079071 18.535013198852536
    vertex 78.43177795410155 4.21999979019165 18.535013198852536
  endloop
endfacet
facet normal 0.24549094897166857 -1.220122512052785e-31 0.9693988827995366
  outer loop
    vertex 78.71195983886717 0.2199999988079071 18.464059829711914
    vertex 78.43177795410155 4.21999979019165 18.535013198852536
    vertex 78.43177795410155 0.2199999988079071 18.535013198852536
  endloop
endfacet
facet normal 0.24549094897166857 -1.220122512052785e-31 0.9693988827995366
  outer loop
    vertex 78.43177795410155 4.21999979019165 18.535013198852536
    vertex 78.71195983886717 0.2199999988079071 18.464059829711914
    vertex 78.71195983886717 4.21999979019165 18.464059829711914
  endloop
endfacet
facet normal 0.08257578963689174 1.2382895781583304e-31 0.9965847876452079
  outer loop
    vertex 78.99999999999999 0.2199999988079071 18.440193176269528
    vertex 78.71195983886717 4.21999979019165 18.464059829711914
    vertex 78.71195983886717 0.2199999988079071 18.464059829711914
  endloop
endfacet
facet normal 0.08257578963689174 1.2382895781583304e-31 0.9965847876452079
  outer loop
    vertex 78.71195983886717 4.21999979019165 18.464059829711914
    vertex 78.99999999999999 0.2199999988079071 18.440193176269528
    vertex 78.99999999999999 4.21999979019165 18.440193176269528
  endloop
endfacet
facet normal 0.0 0.0 -1.0
  outer loop
    vertex 82.0 4.21999979019165 21.9401912689209
    vertex 78.99999999999999 0.2199999988079071 21.9401912689209
    vertex 78.99999999999999 4.21999979019165 21.9401912689209
  endloop
endfacet
facet normal 0.0 0.0 -1.0
  outer loop
    vertex 78.99999999999999 0.2199999988079071 21.9401912689209
    vertex 82.0 4.21999979019165 21.9401912689209
    vertex 82.0 0.2199999988079071 21.9401912689209
  endloop
endfacet
facet normal -0.08257578963689176 1.2382895781583304e-31 0.9965847876452079
  outer loop
    vertex 82.28804016113281 0.2199999988079071 18.464059829711914
    vertex 82.0 4.21999979019165 18.440193176269528
    vertex 82.0 0.2199999988079071 18.440193176269528
  endloop
endfacet
facet normal -0.08257578963689176 1.2382895781583304e-31 0.9965847876452079
  outer loop
    vertex 82.0 4.21999979019165 18.440193176269528
    vertex 82.28804016113281 0.2199999988079071 18.464059829711914
    vertex 82.28804016113281 4.21999979019165 18.464059829711914
  endloop
endfacet
facet normal -0.24549094897166857 -1.2201225120527853e-31 0.9693988827995366
  outer loop
    vertex 82.56822204589844 0.2199999988079071 18.535013198852536
    vertex 82.28804016113281 4.21999979019165 18.464059829711914
    vertex 82.28804016113281 0.2199999988079071 18.464059829711914
  endloop
endfacet
facet normal -0.24549094897166857 -1.2201225120527853e-31 0.9693988827995366
  outer loop
    vertex 82.28804016113281 4.21999979019165 18.464059829711914
    vertex 82.56822204589844 0.2199999988079071 18.535013198852536
    vertex 82.56822204589844 4.21999979019165 18.535013198852536
  endloop
endfacet
facet normal -0.40168965281583313 1.9964507461976848e-31 0.9157758583958717
  outer loop
    vertex 82.83290863037108 0.2199999988079071 18.651113510131836
    vertex 82.56822204589844 4.21999979019165 18.535013198852536
    vertex 82.56822204589844 0.2199999988079071 18.535013198852536
  endloop
endfacet
facet normal -0.40168965281583313 1.9964507461976848e-31 0.9157758583958717
  outer loop
    vertex 82.56822204589844 4.21999979019165 18.535013198852536
    vertex 82.83290863037108 0.2199999988079071 18.651113510131836
    vertex 82.83290863037108 4.21999979019165 18.651113510131836
  endloop
endfacet
facet normal -0.5469445756710369 -0.0 0.8371688187838994
  outer loop
    vertex 83.07487487792967 0.2199999988079071 18.80919647216797
    vertex 82.83290863037108 4.21999979019165 18.651113510131836
    vertex 82.83290863037108 0.2199999988079071 18.651113510131836
  endloop
endfacet
facet normal -0.5469445756710369 -0.0 0.8371688187838994
  outer loop
    vertex 82.83290863037108 4.21999979019165 18.651113510131836
    vertex 83.07487487792967 0.2199999988079071 18.80919647216797
    vertex 83.07487487792967 4.21999979019165 18.80919647216797
  endloop
endfacet
facet normal -0.6772878165588652 9.141541627578698e-32 0.735718161758241
  outer loop
    vertex 83.28751373291014 0.2199999988079071 19.004947662353516
    vertex 83.07487487792967 4.21999979019165 18.80919647216797
    vertex 83.07487487792967 0.2199999988079071 18.80919647216797
  endloop
endfacet
facet normal -0.6772878165588652 9.141541627578698e-32 0.735718161758241
  outer loop
    vertex 83.07487487792967 4.21999979019165 18.80919647216797
    vertex 83.28751373291014 0.2199999988079071 19.004947662353516
    vertex 83.28751373291014 4.21999979019165 19.004947662353516
  endloop
endfacet
facet normal -0.7891354126221872 -1.3426141022418397e-18 0.6142192609692492
  outer loop
    vertex 83.46504211425781 4.21999979019165 19.2330322265625
    vertex 83.28751373291014 0.2199999988079071 19.004947662353516
    vertex 83.46504211425781 0.2199999988079071 19.2330322265625
  endloop
endfacet
facet normal -0.7891354126221872 -1.3426141022418397e-18 0.6142192609692492
  outer loop
    vertex 83.28751373291014 0.2199999988079071 19.004947662353516
    vertex 83.46504211425781 4.21999979019165 19.2330322265625
    vertex 83.28751373291014 4.21999979019165 19.004947662353516
  endloop
endfacet
facet normal -0.8794685506579443 0.0 0.47595700268366153
  outer loop
    vertex 83.60260772705077 4.21999979019165 19.48722457885742
    vertex 83.46504211425781 0.2199999988079071 19.2330322265625
    vertex 83.60260772705077 0.2199999988079071 19.48722457885742
  endloop
endfacet
facet normal -0.8794685506579443 0.0 0.47595700268366153
  outer loop
    vertex 83.46504211425781 0.2199999988079071 19.2330322265625
    vertex 83.60260772705077 4.21999979019165 19.48722457885742
    vertex 83.46504211425781 4.21999979019165 19.2330322265625
  endloop
endfacet
facet normal -0.9458230136018877 7.097197044384396e-19 0.324682655744103
  outer loop
    vertex 83.69644927978514 4.21999979019165 19.760591506958004
    vertex 83.60260772705077 0.2199999988079071 19.48722457885742
    vertex 83.69644927978514 0.2199999988079071 19.760591506958004
  endloop
endfacet
facet normal -0.9458230136018877 7.097197044384396e-19 0.324682655744103
  outer loop
    vertex 83.60260772705077 0.2199999988079071 19.48722457885742
    vertex 83.69644927978514 4.21999979019165 19.760591506958004
    vertex 83.60260772705077 4.21999979019165 19.48722457885742
  endloop
endfacet
facet normal -0.9863589439722359 -4.902334515982613e-31 0.16460872894830292
  outer loop
    vertex 83.74402618408202 4.21999979019165 20.045679092407223
    vertex 83.69644927978514 0.2199999988079071 19.760591506958004
    vertex 83.74402618408202 0.2199999988079071 20.045679092407223
  endloop
endfacet
facet normal -0.9863589439722359 -4.902334515982613e-31 0.16460872894830292
  outer loop
    vertex 83.69644927978514 0.2199999988079071 19.760591506958004
    vertex 83.74402618408202 4.21999979019165 20.045679092407223
    vertex 83.69644927978514 4.21999979019165 19.760591506958004
  endloop
endfacet
facet normal -1.0 0.0 0.0
  outer loop
    vertex 83.74402618408202 4.21999979019165 20.334705352783203
    vertex 83.74402618408202 0.2199999988079071 20.045679092407223
    vertex 83.74402618408202 0.2199999988079071 20.334705352783203
  endloop
endfacet
facet normal -1.0 0.0 0.0
  outer loop
    vertex 83.74402618408202 0.2199999988079071 20.045679092407223
    vertex 83.74402618408202 4.21999979019165 20.334705352783203
    vertex 83.74402618408202 4.21999979019165 20.045679092407223
  endloop
endfacet
facet normal -0.9863587651602087 4.902333627263168e-31 -0.16460980041184753
  outer loop
    vertex 83.69644927978514 4.21999979019165 20.61979103088379
    vertex 83.74402618408202 0.2199999988079071 20.334705352783203
    vertex 83.69644927978514 0.2199999988079071 20.61979103088379
  endloop
endfacet
facet normal -0.9863587651602087 4.902333627263168e-31 -0.16460980041184753
  outer loop
    vertex 83.74402618408202 0.2199999988079071 20.334705352783203
    vertex 83.69644927978514 4.21999979019165 20.61979103088379
    vertex 83.74402618408202 4.21999979019165 20.334705352783203
  endloop
endfacet
facet normal -0.9458230136018865 0.0 -0.32468265574410593
  outer loop
    vertex 83.60260772705077 4.21999979019165 20.89315795898437
    vertex 83.69644927978514 0.2199999988079071 20.61979103088379
    vertex 83.60260772705077 0.2199999988079071 20.89315795898437
  endloop
endfacet
facet normal -0.9458230136018865 0.0 -0.32468265574410593
  outer loop
    vertex 83.69644927978514 0.2199999988079071 20.61979103088379
    vertex 83.60260772705077 4.21999979019165 20.89315795898437
    vertex 83.69644927978514 4.21999979019165 20.61979103088379
  endloop
endfacet
facet normal -0.879470045583539 -1.0403823451051155e-18 -0.4759542403648569
  outer loop
    vertex 83.46504211425781 4.21999979019165 21.147352218627926
    vertex 83.60260772705077 0.2199999988079071 20.89315795898437
    vertex 83.46504211425781 0.2199999988079071 21.147352218627926
  endloop
endfacet
facet normal -0.879470045583539 -1.0403823451051155e-18 -0.4759542403648569
  outer loop
    vertex 83.60260772705077 0.2199999988079071 20.89315795898437
    vertex 83.46504211425781 4.21999979019165 21.147352218627926
    vertex 83.60260772705077 4.21999979019165 20.89315795898437
  endloop
endfacet
facet normal -0.7891329229855032 -4.685286817058242e-31 -0.6142224595863914
  outer loop
    vertex 83.28751373291014 4.21999979019165 21.37543487548828
    vertex 83.46504211425781 0.2199999988079071 21.147352218627926
    vertex 83.28751373291014 0.2199999988079071 21.37543487548828
  endloop
endfacet
facet normal -0.7891329229855032 -4.685286817058242e-31 -0.6142224595863914
  outer loop
    vertex 83.46504211425781 0.2199999988079071 21.147352218627926
    vertex 83.28751373291014 4.21999979019165 21.37543487548828
    vertex 83.46504211425781 4.21999979019165 21.147352218627926
  endloop
endfacet
facet normal -0.6772913886207735 -1.8283001536572186e-31 -0.7357148733715694
  outer loop
    vertex 83.28751373291014 4.21999979019165 21.37543487548828
    vertex 83.07487487792967 0.2199999988079071 21.57118797302246
    vertex 83.07487487792967 4.21999979019165 21.57118797302246
  endloop
endfacet
facet normal -0.6772913886207735 -1.8283001536572186e-31 -0.7357148733715694
  outer loop
    vertex 83.07487487792967 0.2199999988079071 21.57118797302246
    vertex 83.28751373291014 4.21999979019165 21.37543487548828
    vertex 83.28751373291014 0.2199999988079071 21.37543487548828
  endloop
endfacet
facet normal -0.5469445756710369 0.0 -0.8371688187838994
  outer loop
    vertex 83.07487487792967 4.21999979019165 21.57118797302246
    vertex 82.83290863037108 0.2199999988079071 21.729270935058594
    vertex 82.83290863037108 4.21999979019165 21.729270935058594
  endloop
endfacet
facet normal -0.5469445756710369 0.0 -0.8371688187838994
  outer loop
    vertex 82.83290863037108 0.2199999988079071 21.729270935058594
    vertex 83.07487487792967 4.21999979019165 21.57118797302246
    vertex 83.07487487792967 0.2199999988079071 21.57118797302246
  endloop
endfacet
facet normal -0.4016951871323845 3.134357045560864e-31 -0.915773430841209
  outer loop
    vertex 82.83290863037108 4.21999979019165 21.729270935058594
    vertex 82.56822204589844 0.2199999988079071 21.84537315368652
    vertex 82.56822204589844 4.21999979019165 21.84537315368652
  endloop
endfacet
facet normal -0.4016951871323845 3.134357045560864e-31 -0.915773430841209
  outer loop
    vertex 82.56822204589844 0.2199999988079071 21.84537315368652
    vertex 82.83290863037108 4.21999979019165 21.729270935058594
    vertex 82.83290863037108 0.2199999988079071 21.729270935058594
  endloop
endfacet
facet normal -0.2454847474448007 1.2200916896433551e-31 -0.9694004532554968
  outer loop
    vertex 82.56822204589844 4.21999979019165 21.84537315368652
    vertex 82.28804016113281 0.2199999988079071 21.916324615478512
    vertex 82.28804016113281 4.21999979019165 21.916324615478512
  endloop
endfacet
facet normal -0.2454847474448007 1.2200916896433551e-31 -0.9694004532554968
  outer loop
    vertex 82.28804016113281 0.2199999988079071 21.916324615478512
    vertex 82.56822204589844 4.21999979019165 21.84537315368652
    vertex 82.56822204589844 0.2199999988079071 21.84537315368652
  endloop
endfacet
facet normal -0.08257578963689174 1.2382895781583304e-31 -0.9965847876452079
  outer loop
    vertex 82.28804016113281 4.21999979019165 21.916324615478512
    vertex 82.0 0.2199999988079071 21.9401912689209
    vertex 82.0 4.21999979019165 21.9401912689209
  endloop
endfacet
facet normal -0.08257578963689174 1.2382895781583304e-31 -0.9965847876452079
  outer loop
    vertex 82.0 0.2199999988079071 21.9401912689209
    vertex 82.28804016113281 4.21999979019165 21.916324615478512
    vertex 82.28804016113281 0.2199999988079071 21.916324615478512
  endloop
endfacet
facet normal -0.0 -0.0 1.0
  outer loop
    vertex 82.0 0.2199999988079071 18.440193176269528
    vertex 78.99999999999999 4.21999979019165 18.440193176269528
    vertex 78.99999999999999 0.2199999988079071 18.440193176269528
  endloop
endfacet
facet normal -0.0 -0.0 1.0
  outer loop
    vertex 78.99999999999999 4.21999979019165 18.440193176269528
    vertex 82.0 0.2199999988079071 18.440193176269528
    vertex 82.0 4.21999979019165 18.440193176269528
  endloop
endfacet
facet normal 0.7071067811865475 0.7071067811865476 -4.807638289401977e-18
  outer loop
    vertex 79.99999999999999 11.0 12.0
    vertex 85.99999999999999 4.999999999999999 0.0
    vertex 79.99999999999999 11.0 0.0
  endloop
endfacet
facet normal 0.7071067811865475 0.7071067811865476 -4.807638289401977e-18
  outer loop
    vertex 85.99999999999999 4.999999999999999 0.0
    vertex 79.99999999999999 11.0 12.0
    vertex 85.99999999999999 4.999999999999999 14.99148941040039
  endloop
endfacet
facet normal 1.0 -0.0 -0.0
  outer loop
    vertex 79.99999999999999 43.34360408883698 0.0
    vertex 79.99999999999999 11.0 12.0
    vertex 79.99999999999999 11.0 0.0
  endloop
endfacet
facet normal 1.0 -0.0 -0.0
  outer loop
    vertex 79.99999999999999 11.0 12.0
    vertex 79.99999999999999 43.34360408883698 0.0
    vertex 79.99999999999999 43.34360408883698 12.0
  endloop
endfacet
facet normal 0.7071067811865476 0.7071067811865476 -0.0
  outer loop
    vertex 77.99999999999999 45.343604088836976 0.0
    vertex 79.99999999999999 43.34360408883698 12.0
    vertex 79.99999999999999 43.34360408883698 0.0
  endloop
endfacet
facet normal 0.7071067811865476 0.7071067811865476 -0.0
  outer loop
    vertex 79.99999999999999 43.34360408883698 12.0
    vertex 77.99999999999999 45.343604088836976 0.0
    vertex 77.99999999999999 45.343604088836976 12.0
  endloop
endfacet
facet normal 7.450148318604921e-34 -1.0 1.6908419959363176e-33
  outer loop
    vertex 85.99999999999999 0.2199999988079071 0.0
    vertex 83.60260772705077 0.2199999988079071 19.48722457885742
    vertex 75.0 0.2199999988079071 0.0
  endloop
endfacet
facet normal 7.450148318604921e-34 -1.0 1.6908419959363176e-33
  outer loop
    vertex 83.60260772705077 0.2199999988079071 19.48722457885742
    vertex 85.99999999999999 0.2199999988079071 0.0
    vertex 85.99999999999999 0.2199999988079071 25.0
  endloop
endfacet
facet normal 7.450148318604921e-34 -1.0 1.6908419959363176e-33
  outer loop
    vertex 75.0 0.2199999988079071 0.0
    vertex 83.60260772705077 0.2199999988079071 19.48722457885742
    vertex 83.46504211425781 0.2199999988079071 19.2330322265625
  endloop
endfacet
facet normal 7.450148318604921e-34 -1.0 1.6908419959363176e-33
  outer loop
    vertex 75.0 0.2199999988079071 0.0
    vertex 83.46504211425781 0.2199999988079071 19.2330322265625
    vertex 83.28751373291014 0.2199999988079071 19.004947662353516
  endloop
endfacet
facet normal 7.450148318604921e-34 -1.0 1.6908419959363176e-33
  outer loop
    vertex 75.0 0.2199999988079071 0.0
    vertex 83.28751373291014 0.2199999988079071 19.004947662353516
    vertex 83.07487487792967 0.2199999988079071 18.80919647216797
  endloop
endfacet
facet normal 7.450148318604921e-34 -1.0 1.6908419959363176e-33
  outer loop
    vertex 75.0 0.2199999988079071 0.0
    vertex 83.07487487792967 0.2199999988079071 18.80919647216797
    vertex 82.83290863037108 0.2199999988079071 18.651113510131836
  endloop
endfacet
facet normal 7.450148318604921e-34 -1.0 1.6908419959363176e-33
  outer loop
    vertex 75.0 0.2199999988079071 0.0
    vertex 82.83290863037108 0.2199999988079071 18.651113510131836
    vertex 82.56822204589844 0.2199999988079071 18.535013198852536
  endloop
endfacet
facet normal 7.450148318604921e-34 -1.0 1.6908419959363176e-33
  outer loop
    vertex 75.0 0.2199999988079071 0.0
    vertex 82.56822204589844 0.2199999988079071 18.535013198852536
    vertex 82.28804016113281 0.2199999988079071 18.464059829711914
  endloop
endfacet
facet normal 7.450148318604921e-34 -1.0 1.6908419959363176e-33
  outer loop
    vertex 75.0 0.2199999988079071 0.0
    vertex 82.28804016113281 0.2199999988079071 18.464059829711914
    vertex 82.0 0.2199999988079071 18.440193176269528
  endloop
endfacet
facet normal 7.450148318604921e-34 -1.0 1.6908419959363176e-33
  outer loop
    vertex 83.60260772705077 0.2199999988079071 19.48722457885742
    vertex 85.99999999999999 0.2199999988079071 25.0
    vertex 83.69644927978514 0.2199999988079071 19.760591506958004
  endloop
endfacet
facet normal 7.450148318604921e-34 -1.0 1.6908419959363176e-33
  outer loop
    vertex 83.69644927978514 0.2199999988079071 19.760591506958004
    vertex 85.99999999999999 0.2199999988079071 25.0
    vertex 83.74402618408202 0.2199999988079071 20.045679092407223
  endloop
endfacet
facet normal 7.450148318604921e-34 -1.0 1.6908419959363176e-33
  outer loop
    vertex 83.74402618408202 0.2199999988079071 20.045679092407223
    vertex 85.99999999999999 0.2199999988079071 25.0
    vertex 83.74402618408202 0.2199999988079071 20.334705352783203
  endloop
endfacet
facet normal 7.450148318604921e-34 -1.0 1.6908419959363176e-33
  outer loop
    vertex 83.74402618408202 0.2199999988079071 20.334705352783203
    vertex 85.99999999999999 0.2199999988079071 25.0
    vertex 83.69644927978514 0.2199999988079071 20.61979103088379
  endloop
endfacet
facet normal 7.450148318604921e-34 -1.0 1.6908419959363176e-33
  outer loop
    vertex 83.69644927978514 0.2199999988079071 20.61979103088379
    vertex 85.99999999999999 0.2199999988079071 25.0
    vertex 83.60260772705077 0.2199999988079071 20.89315795898437
  endloop
endfacet
facet normal 7.450148318604921e-34 -1.0 1.6908419959363176e-33
  outer loop
    vertex 83.60260772705077 0.2199999988079071 20.89315795898437
    vertex 85.99999999999999 0.2199999988079071 25.0
    vertex 83.46504211425781 0.2199999988079071 21.147352218627926
  endloop
endfacet
facet normal 7.450148318604921e-34 -1.0 1.6908419959363176e-33
  outer loop
    vertex 83.46504211425781 0.2199999988079071 21.147352218627926
    vertex 85.99999999999999 0.2199999988079071 25.0
    vertex 83.28751373291014 0.2199999988079071 21.37543487548828
  endloop
endfacet
facet normal 7.450148318604921e-34 -1.0 1.6908419959363176e-33
  outer loop
    vertex 83.28751373291014 0.2199999988079071 21.37543487548828
    vertex 85.99999999999999 0.2199999988079071 25.0
    vertex 83.07487487792967 0.2199999988079071 21.57118797302246
  endloop
endfacet
facet normal 7.450148318604921e-34 -1.0 1.6908419959363176e-33
  outer loop
    vertex 83.07487487792967 0.2199999988079071 21.57118797302246
    vertex 85.99999999999999 0.2199999988079071 25.0
    vertex 82.83290863037108 0.2199999988079071 21.729270935058594
  endloop
endfacet
facet normal 7.450148318604921e-34 -1.0 1.6908419959363176e-33
  outer loop
    vertex 82.83290863037108 0.2199999988079071 21.729270935058594
    vertex 85.99999999999999 0.2199999988079071 25.0
    vertex 82.56822204589844 0.2199999988079071 21.84537315368652
  endloop
endfacet
facet normal 7.450148318604921e-34 -1.0 1.6908419959363176e-33
  outer loop
    vertex 82.56822204589844 0.2199999988079071 21.84537315368652
    vertex 85.99999999999999 0.2199999988079071 25.0
    vertex 82.28804016113281 0.2199999988079071 21.916324615478512
  endloop
endfacet
facet normal 7.450148318604921e-34 -1.0 1.6908419959363176e-33
  outer loop
    vertex 82.28804016113281 0.2199999988079071 21.916324615478512
    vertex 85.99999999999999 0.2199999988079071 25.0
    vertex 82.0 0.2199999988079071 21.9401912689209
  endloop
endfacet
facet normal 7.450148318604921e-34 -1.0 1.6908419959363176e-33
  outer loop
    vertex 82.0 0.2199999988079071 21.9401912689209
    vertex 85.99999999999999 0.2199999988079071 25.0
    vertex 78.99999999999999 0.2199999988079071 21.9401912689209
  endloop
endfacet
facet normal 7.450148318604921e-34 -1.0 1.6908419959363176e-33
  outer loop
    vertex 75.0 0.2199999988079071 0.0
    vertex 77.39739990234374 0.2199999988079071 19.48722457885742
    vertex 75.0 0.2199999988079071 25.0
  endloop
endfacet
facet normal 7.450148318604921e-34 -1.0 1.6908419959363176e-33
  outer loop
    vertex 77.39739990234374 0.2199999988079071 19.48722457885742
    vertex 75.0 0.2199999988079071 0.0
    vertex 77.53495788574217 0.2199999988079071 19.2330322265625
  endloop
endfacet
facet normal 7.450148318604921e-34 -1.0 1.6908419959363176e-33
  outer loop
    vertex 77.53495788574217 0.2199999988079071 19.2330322265625
    vertex 75.0 0.2199999988079071 0.0
    vertex 77.71248626708984 0.2199999988079071 19.004947662353516
  endloop
endfacet
facet normal 7.450148318604921e-34 -1.0 1.6908419959363176e-33
  outer loop
    vertex 77.71248626708984 0.2199999988079071 19.004947662353516
    vertex 75.0 0.2199999988079071 0.0
    vertex 77.92513275146484 0.2199999988079071 18.80919647216797
  endloop
endfacet
facet normal 7.450148318604921e-34 -1.0 1.6908419959363176e-33
  outer loop
    vertex 77.92513275146484 0.2199999988079071 18.80919647216797
    vertex 75.0 0.2199999988079071 0.0
    vertex 78.16709899902342 0.2199999988079071 18.651113510131836
  endloop
endfacet
facet normal 7.450148318604921e-34 -1.0 1.6908419959363176e-33
  outer loop
    vertex 78.16709899902342 0.2199999988079071 18.651113510131836
    vertex 75.0 0.2199999988079071 0.0
    vertex 78.43177795410155 0.2199999988079071 18.535013198852536
  endloop
endfacet
facet normal 7.450148318604921e-34 -1.0 1.6908419959363176e-33
  outer loop
    vertex 78.43177795410155 0.2199999988079071 18.535013198852536
    vertex 75.0 0.2199999988079071 0.0
    vertex 78.71195983886717 0.2199999988079071 18.464059829711914
  endloop
endfacet
facet normal 7.450148318604921e-34 -1.0 1.6908419959363176e-33
  outer loop
    vertex 78.71195983886717 0.2199999988079071 18.464059829711914
    vertex 75.0 0.2199999988079071 0.0
    vertex 78.99999999999999 0.2199999988079071 18.440193176269528
  endloop
endfacet
facet normal 7.450148318604921e-34 -1.0 1.6908419959363176e-33
  outer loop
    vertex 78.99999999999999 0.2199999988079071 18.440193176269528
    vertex 75.0 0.2199999988079071 0.0
    vertex 82.0 0.2199999988079071 18.440193176269528
  endloop
endfacet
facet normal 7.450148318604921e-34 -1.0 1.6908419959363176e-33
  outer loop
    vertex 75.0 0.2199999988079071 25.0
    vertex 77.39739990234374 0.2199999988079071 19.48722457885742
    vertex 77.30355072021484 0.2199999988079071 19.760591506958004
  endloop
endfacet
facet normal 7.450148318604921e-34 -1.0 1.6908419959363176e-33
  outer loop
    vertex 75.0 0.2199999988079071 25.0
    vertex 77.30355072021484 0.2199999988079071 19.760591506958004
    vertex 77.2559814453125 0.2199999988079071 20.045679092407223
  endloop
endfacet
facet normal 7.450148318604921e-34 -1.0 1.6908419959363176e-33
  outer loop
    vertex 75.0 0.2199999988079071 25.0
    vertex 77.2559814453125 0.2199999988079071 20.045679092407223
    vertex 77.2559814453125 0.2199999988079071 20.334705352783203
  endloop
endfacet
facet normal 7.450148318604921e-34 -1.0 1.6908419959363176e-33
  outer loop
    vertex 75.0 0.2199999988079071 25.0
    vertex 77.2559814453125 0.2199999988079071 20.334705352783203
    vertex 77.30355072021484 0.2199999988079071 20.61979103088379
  endloop
endfacet
facet normal 7.450148318604921e-34 -1.0 1.6908419959363176e-33
  outer loop
    vertex 75.0 0.2199999988079071 25.0
    vertex 77.30355072021484 0.2199999988079071 20.61979103088379
    vertex 77.39739990234374 0.2199999988079071 20.89315795898437
  endloop
endfacet
facet normal 7.450148318604921e-34 -1.0 1.6908419959363176e-33
  outer loop
    vertex 75.0 0.2199999988079071 25.0
    vertex 77.39739990234374 0.2199999988079071 20.89315795898437
    vertex 77.53495788574217 0.2199999988079071 21.147352218627926
  endloop
endfacet
facet normal 7.450148318604921e-34 -1.0 1.6908419959363176e-33
  outer loop
    vertex 75.0 0.2199999988079071 25.0
    vertex 77.53495788574217 0.2199999988079071 21.147352218627926
    vertex 77.71248626708984 0.2199999988079071 21.37543487548828
  endloop
endfacet
facet normal 7.450148318604921e-34 -1.0 1.6908419959363176e-33
  outer loop
    vertex 75.0 0.2199999988079071 25.0
    vertex 77.71248626708984 0.2199999988079071 21.37543487548828
    vertex 77.92513275146484 0.2199999988079071 21.57118797302246
  endloop
endfacet
facet normal 7.450148318604921e-34 -1.0 1.6908419959363176e-33
  outer loop
    vertex 75.0 0.2199999988079071 25.0
    vertex 77.92513275146484 0.2199999988079071 21.57118797302246
    vertex 78.16709899902342 0.2199999988079071 21.729270935058594
  endloop
endfacet
facet normal 7.450148318604921e-34 -1.0 1.6908419959363176e-33
  outer loop
    vertex 75.0 0.2199999988079071 25.0
    vertex 78.16709899902342 0.2199999988079071 21.729270935058594
    vertex 78.43177795410155 0.2199999988079071 21.84537315368652
  endloop
endfacet
facet normal 7.450148318604921e-34 -1.0 1.6908419959363176e-33
  outer loop
    vertex 75.0 0.2199999988079071 25.0
    vertex 78.43177795410155 0.2199999988079071 21.84537315368652
    vertex 78.71195983886717 0.2199999988079071 21.916324615478512
  endloop
endfacet
facet normal 7.450148318604921e-34 -1.0 1.6908419959363176e-33
  outer loop
    vertex 75.0 0.2199999988079071 25.0
    vertex 78.71195983886717 0.2199999988079071 21.916324615478512
    vertex 78.99999999999999 0.2199999988079071 21.9401912689209
  endloop
endfacet
facet normal 7.450148318604921e-34 -1.0 1.6908419959363176e-33
  outer loop
    vertex 75.0 0.2199999988079071 25.0
    vertex 78.99999999999999 0.2199999988079071 21.9401912689209
    vertex 85.99999999999999 0.2199999988079071 25.0
  endloop
endfacet
facet normal 0.0 -1.0 0.0
  outer loop
    vertex 75.0 39.343604088836976 0.0
    vertex 69.83290863037108 39.343604088836976 4.460920810699462
    vertex 62.0 39.343604088836976 0.0
  endloop
endfacet
facet normal 0.0 -1.0 0.0
  outer loop
    vertex 69.83290863037108 39.343604088836976 4.460920810699462
    vertex 75.0 39.343604088836976 0.0
    vertex 70.07487487792969 39.343604088836976 4.619004249572754
  endloop
endfacet
facet normal 0.0 -1.0 0.0
  outer loop
    vertex 70.07487487792969 39.343604088836976 4.619004249572754
    vertex 75.0 39.343604088836976 0.0
    vertex 70.28752136230469 39.343604088836976 4.814756870269775
  endloop
endfacet
facet normal 0.0 -1.0 0.0
  outer loop
    vertex 70.28752136230469 39.343604088836976 4.814756870269775
    vertex 75.0 39.343604088836976 0.0
    vertex 70.46504211425781 39.343604088836976 5.042840957641602
  endloop
endfacet
facet normal 0.0 -1.0 0.0
  outer loop
    vertex 70.46504211425781 39.343604088836976 5.042840957641602
    vertex 75.0 39.343604088836976 0.0
    vertex 75.0 39.343604088836976 12.0
  endloop
endfacet
facet normal 0.0 -1.0 0.0
  outer loop
    vertex 62.0 39.343604088836976 0.0
    vertex 69.83290863037108 39.343604088836976 4.460920810699462
    vertex 69.56822204589844 39.343604088836976 4.34481954574585
  endloop
endfacet
facet normal 0.0 -1.0 0.0
  outer loop
    vertex 62.0 39.343604088836976 0.0
    vertex 69.56822204589844 39.343604088836976 4.34481954574585
    vertex 69.28804016113281 39.343604088836976 4.273867607116699
  endloop
endfacet
facet normal 0.0 -1.0 0.0
  outer loop
    vertex 62.0 39.343604088836976 0.0
    vertex 69.28804016113281 39.343604088836976 4.273867607116699
    vertex 69.0 39.343604088836976 4.25
  endloop
endfacet
facet normal 0.0 -1.0 0.0
  outer loop
    vertex 70.46504211425781 39.343604088836976 5.042840957641602
    vertex 75.0 39.343604088836976 12.0
    vertex 70.60260009765625 39.343604088836976 5.297033309936523
  endloop
endfacet
facet normal 0.0 -1.0 0.0
  outer loop
    vertex 70.60260009765625 39.343604088836976 5.297033309936523
    vertex 75.0 39.343604088836976 12.0
    vertex 70.69644927978514 39.343604088836976 5.570400714874268
  endloop
endfacet
facet normal 0.0 -1.0 0.0
  outer loop
    vertex 70.69644927978514 39.343604088836976 5.570400714874268
    vertex 75.0 39.343604088836976 12.0
    vertex 70.74402618408203 39.343604088836976 5.8554863929748535
  endloop
endfacet
facet normal 0.0 -1.0 0.0
  outer loop
    vertex 70.74402618408203 39.343604088836976 5.8554863929748535
    vertex 75.0 39.343604088836976 12.0
    vertex 70.74402618408203 39.343604088836976 6.144513607025146
  endloop
endfacet
facet normal 0.0 -1.0 0.0
  outer loop
    vertex 70.74402618408203 39.343604088836976 6.144513607025146
    vertex 75.0 39.343604088836976 12.0
    vertex 70.69644927978514 39.343604088836976 6.429599761962891
  endloop
endfacet
facet normal 0.0 -1.0 0.0
  outer loop
    vertex 70.69644927978514 39.343604088836976 6.429599761962891
    vertex 75.0 39.343604088836976 12.0
    vertex 70.60260009765625 39.343604088836976 6.702967166900635
  endloop
endfacet
facet normal 0.0 -1.0 0.0
  outer loop
    vertex 70.60260009765625 39.343604088836976 6.702967166900635
    vertex 75.0 39.343604088836976 12.0
    vertex 70.46504211425781 39.343604088836976 6.957159519195557
  endloop
endfacet
facet normal 0.0 -1.0 0.0
  outer loop
    vertex 70.46504211425781 39.343604088836976 6.957159519195557
    vertex 75.0 39.343604088836976 12.0
    vertex 70.28752136230469 39.343604088836976 7.185242652893066
  endloop
endfacet
facet normal 0.0 -1.0 0.0
  outer loop
    vertex 70.28752136230469 39.343604088836976 7.185242652893066
    vertex 75.0 39.343604088836976 12.0
    vertex 70.07487487792969 39.343604088836976 7.380995750427245
  endloop
endfacet
facet normal 0.0 -1.0 0.0
  outer loop
    vertex 70.07487487792969 39.343604088836976 7.380995750427245
    vertex 75.0 39.343604088836976 12.0
    vertex 69.83290863037108 39.343604088836976 7.539079189300537
  endloop
endfacet
facet normal 0.0 -1.0 0.0
  outer loop
    vertex 69.83290863037108 39.343604088836976 7.539079189300537
    vertex 75.0 39.343604088836976 12.0
    vertex 69.56822204589844 39.343604088836976 7.655179977416991
  endloop
endfacet
facet normal 0.0 -1.0 0.0
  outer loop
    vertex 69.56822204589844 39.343604088836976 7.655179977416991
    vertex 75.0 39.343604088836976 12.0
    vertex 69.28804016113281 39.343604088836976 7.726132392883301
  endloop
endfacet
facet normal 0.0 -1.0 0.0
  outer loop
    vertex 69.28804016113281 39.343604088836976 7.726132392883301
    vertex 75.0 39.343604088836976 12.0
    vertex 69.0 39.343604088836976 7.75
  endloop
endfacet
facet normal 0.0 -1.0 0.0
  outer loop
    vertex 69.0 39.343604088836976 7.75
    vertex 75.0 39.343604088836976 12.0
    vertex 65.99999999999999 39.343604088836976 7.75
  endloop
endfacet
facet normal 0.0 -1.0 0.0
  outer loop
    vertex 62.0 39.343604088836976 0.0
    vertex 64.39739227294922 39.343604088836976 5.297033309936523
    vertex 62.0 39.343604088836976 12.0
  endloop
endfacet
facet normal 0.0 -1.0 0.0
  outer loop
    vertex 64.39739227294922 39.343604088836976 5.297033309936523
    vertex 62.0 39.343604088836976 0.0
    vertex 64.53496551513672 39.343604088836976 5.042840957641602
  endloop
endfacet
facet normal 0.0 -1.0 0.0
  outer loop
    vertex 64.53496551513672 39.343604088836976 5.042840957641602
    vertex 62.0 39.343604088836976 0.0
    vertex 64.7124786376953 39.343604088836976 4.814756870269775
  endloop
endfacet
facet normal 0.0 -1.0 0.0
  outer loop
    vertex 64.7124786376953 39.343604088836976 4.814756870269775
    vertex 62.0 39.343604088836976 0.0
    vertex 64.92512512207031 39.343604088836976 4.619004249572754
  endloop
endfacet
facet normal 0.0 -1.0 0.0
  outer loop
    vertex 64.92512512207031 39.343604088836976 4.619004249572754
    vertex 62.0 39.343604088836976 0.0
    vertex 65.1670913696289 39.343604088836976 4.460920810699462
  endloop
endfacet
facet normal 0.0 -1.0 0.0
  outer loop
    vertex 65.1670913696289 39.343604088836976 4.460920810699462
    vertex 62.0 39.343604088836976 0.0
    vertex 65.43177032470703 39.343604088836976 4.34481954574585
  endloop
endfacet
facet normal 0.0 -1.0 0.0
  outer loop
    vertex 65.43177032470703 39.343604088836976 4.34481954574585
    vertex 62.0 39.343604088836976 0.0
    vertex 65.71195983886719 39.343604088836976 4.273867607116699
  endloop
endfacet
facet normal 0.0 -1.0 0.0
  outer loop
    vertex 65.71195983886719 39.343604088836976 4.273867607116699
    vertex 62.0 39.343604088836976 0.0
    vertex 65.99999999999999 39.343604088836976 4.25
  endloop
endfacet
facet normal 0.0 -1.0 0.0
  outer loop
    vertex 65.99999999999999 39.343604088836976 4.25
    vertex 62.0 39.343604088836976 0.0
    vertex 69.0 39.343604088836976 4.25
  endloop
endfacet
facet normal 0.0 -1.0 0.0
  outer loop
    vertex 62.0 39.343604088836976 12.0
    vertex 64.39739227294922 39.343604088836976 5.297033309936523
    vertex 64.30355072021484 39.343604088836976 5.570400714874268
  endloop
endfacet
facet normal 0.0 -1.0 0.0
  outer loop
    vertex 62.0 39.343604088836976 12.0
    vertex 64.30355072021484 39.343604088836976 5.570400714874268
    vertex 64.25597381591797 39.343604088836976 5.8554863929748535
  endloop
endfacet
facet normal 0.0 -1.0 0.0
  outer loop
    vertex 62.0 39.343604088836976 12.0
    vertex 64.25597381591797 39.343604088836976 5.8554863929748535
    vertex 64.25597381591797 39.343604088836976 6.144513607025146
  endloop
endfacet
facet normal 0.0 -1.0 0.0
  outer loop
    vertex 62.0 39.343604088836976 12.0
    vertex 64.25597381591797 39.343604088836976 6.144513607025146
    vertex 64.30355072021484 39.343604088836976 6.429599761962891
  endloop
endfacet
facet normal 0.0 -1.0 0.0
  outer loop
    vertex 62.0 39.343604088836976 12.0
    vertex 64.30355072021484 39.343604088836976 6.429599761962891
    vertex 64.39739227294922 39.343604088836976 6.702967166900635
  endloop
endfacet
facet normal 0.0 -1.0 0.0
  outer loop
    vertex 62.0 39.343604088836976 12.0
    vertex 64.39739227294922 39.343604088836976 6.702967166900635
    vertex 64.53496551513672 39.343604088836976 6.957159519195557
  endloop
endfacet
facet normal 0.0 -1.0 0.0
  outer loop
    vertex 62.0 39.343604088836976 12.0
    vertex 64.53496551513672 39.343604088836976 6.957159519195557
    vertex 64.7124786376953 39.343604088836976 7.185242652893066
  endloop
endfacet
facet normal 0.0 -1.0 0.0
  outer loop
    vertex 62.0 39.343604088836976 12.0
    vertex 64.7124786376953 39.343604088836976 7.185242652893066
    vertex 64.92512512207031 39.343604088836976 7.380995750427245
  endloop
endfacet
facet normal 0.0 -1.0 0.0
  outer loop
    vertex 62.0 39.343604088836976 12.0
    vertex 64.92512512207031 39.343604088836976 7.380995750427245
    vertex 65.1670913696289 39.343604088836976 7.539079189300537
  endloop
endfacet
facet normal 0.0 -1.0 0.0
  outer loop
    vertex 62.0 39.343604088836976 12.0
    vertex 65.1670913696289 39.343604088836976 7.539079189300537
    vertex 65.43177032470703 39.343604088836976 7.655179977416991
  endloop
endfacet
facet normal 0.0 -1.0 0.0
  outer loop
    vertex 62.0 39.343604088836976 12.0
    vertex 65.43177032470703 39.343604088836976 7.655179977416991
    vertex 65.71195983886719 39.343604088836976 7.726132392883301
  endloop
endfacet
facet normal 0.0 -1.0 0.0
  outer loop
    vertex 62.0 39.343604088836976 12.0
    vertex 65.71195983886719 39.343604088836976 7.726132392883301
    vertex 65.99999999999999 39.343604088836976 7.75
  endloop
endfacet
facet normal 0.0 -1.0 0.0
  outer loop
    vertex 62.0 39.343604088836976 12.0
    vertex 65.99999999999999 39.343604088836976 7.75
    vertex 75.0 39.343604088836976 12.0
  endloop
endfacet
endsolid Untitled-567b1060
