solid motor_mount
facet normal -0.6087633200973873 0.0 0.7933518892042837
  outer loop
    vertex 81.56066031591797 61.0 17.439339591430663
    vertex 81.25000090734862 65.99999995367432 17.200961066650393
    vertex 81.25000090734862 61.0 17.200961066650393
  endloop
endfacet
facet normal -0.6087633200973873 0.0 0.7933518892042837
  outer loop
    vertex 81.25000090734862 65.99999995367432 17.200961066650393
    vertex 81.56066031591797 61.0 17.439339591430663
    vertex 81.56066031591797 65.99999995367432 17.439339591430663
  endloop
endfacet
facet normal -0.7933539680030494 0.0 -0.6087606109578843
  outer loop
    vertex 71.06066031591796 114.0 7.060660315917971
    vertex 71.29903788702393 109.0 6.749999953674319
    vertex 71.06066031591796 109.0 7.060660315917971
  endloop
endfacet
facet normal -0.7933539680030494 0.0 -0.6087606109578843
  outer loop
    vertex 71.29903788702393 109.0 6.749999953674319
    vertex 71.06066031591796 114.0 7.060660315917971
    vertex 71.29903788702393 114.0 6.749999953674319
  endloop
endfacet
facet normal -0.991444867767186 0.0 -0.13052614365753407
  outer loop
    vertex 71.44888873236084 114.0 6.388228370117189
    vertex 71.49999995367432 109.0 5.999999953674318
    vertex 71.44888873236084 109.0 6.388228370117189
  endloop
endfacet
facet normal -0.991444867767186 0.0 -0.13052614365753407
  outer loop
    vertex 71.49999995367432 109.0 5.999999953674318
    vertex 71.44888873236084 114.0 6.388228370117189
    vertex 71.49999995367432 114.0 5.999999953674318
  endloop
endfacet
facet normal -0.13052614365753173 0.0 0.9914448677671862
  outer loop
    vertex 70.38822837011719 109.0 4.551111174987795
    vertex 69.9999999536743 114.0 4.499999953674318
    vertex 69.9999999536743 109.0 4.499999953674318
  endloop
endfacet
facet normal -0.13052614365753173 0.0 0.9914448677671862
  outer loop
    vertex 69.9999999536743 114.0 4.499999953674318
    vertex 70.38822837011719 109.0 4.551111174987795
    vertex 70.38822837011719 114.0 4.551111174987795
  endloop
endfacet
facet normal 0.991444867767186 0.0 0.13052614365753407
  outer loop
    vertex 68.55111117498778 114.0 5.611771537231448
    vertex 68.4999999536743 109.0 5.999999953674318
    vertex 68.55111117498778 109.0 5.611771537231448
  endloop
endfacet
facet normal 0.991444867767186 0.0 0.13052614365753407
  outer loop
    vertex 68.4999999536743 109.0 5.999999953674318
    vertex 68.55111117498778 114.0 5.611771537231448
    vertex 68.4999999536743 114.0 5.999999953674318
  endloop
endfacet
facet normal 0.923879613295039 0.0 0.38268323733580134
  outer loop
    vertex 68.70096178190613 114.0 5.249999953674318
    vertex 68.55111117498778 109.0 5.611771537231448
    vertex 68.70096178190613 109.0 5.249999953674318
  endloop
endfacet
facet normal 0.923879613295039 0.0 0.38268323733580134
  outer loop
    vertex 68.55111117498778 109.0 5.611771537231448
    vertex 68.70096178190613 114.0 5.249999953674318
    vertex 68.55111117498778 114.0 5.611771537231448
  endloop
endfacet
facet normal 0.3826837570345099 0.0 -0.9238793980287429
  outer loop
    vertex 80.11177153723143 65.99999995367432 19.94888968603516
    vertex 79.74999995367432 61.0 19.799038840698245
    vertex 79.74999995367432 65.99999995367432 19.799038840698245
  endloop
endfacet
facet normal 0.3826837570345099 0.0 -0.9238793980287429
  outer loop
    vertex 79.74999995367432 61.0 19.799038840698245
    vertex 80.11177153723143 65.99999995367432 19.94888968603516
    vertex 80.11177153723143 61.0 19.94888968603516
  endloop
endfacet
facet normal -0.3826837570345176 0.0 -0.9238793980287396
  outer loop
    vertex 70.7499999536743 114.0 7.299037887023928
    vertex 70.38822837011719 109.0 7.448888732360842
    vertex 70.38822837011719 114.0 7.448888732360842
  endloop
endfacet
facet normal -0.3826837570345176 0.0 -0.9238793980287396
  outer loop
    vertex 70.38822837011719 109.0 7.448888732360842
    vertex 70.7499999536743 114.0 7.299037887023928
    vertex 70.7499999536743 109.0 7.299037887023928
  endloop
endfacet
facet normal 0.9914448262738911 0.0 -0.13052645883013175
  outer loop
    vertex 78.99999995367432 65.99999995367432 18.500000907348635
    vertex 79.0511111749878 61.0 18.888228370117186
    vertex 78.99999995367432 61.0 18.500000907348635
  endloop
endfacet
facet normal 0.9914448262738911 0.0 -0.13052645883013175
  outer loop
    vertex 79.0511111749878 61.0 18.888228370117186
    vertex 78.99999995367432 65.99999995367432 18.500000907348635
    vertex 79.0511111749878 65.99999995367432 18.888228370117186
  endloop
endfacet
facet normal 0.9914449092601804 0.0 0.13052582848644526
  outer loop
    vertex 79.0511111749878 65.99999995367432 18.111771537231444
    vertex 78.99999995367432 61.0 18.500000907348635
    vertex 79.0511111749878 61.0 18.111771537231444
  endloop
endfacet
facet normal 0.9914449092601804 0.0 0.13052582848644526
  outer loop
    vertex 78.99999995367432 61.0 18.500000907348635
    vertex 79.0511111749878 65.99999995367432 18.111771537231444
    vertex 78.99999995367432 65.99999995367432 18.500000907348635
  endloop
endfacet
facet normal 0.38267959943460794 0.0 0.9238811201537609
  outer loop
    vertex 80.11177153723143 61.0 17.051112128662112
    vertex 79.74999995367432 65.99999995367432 17.200961066650393
    vertex 79.74999995367432 61.0 17.200961066650393
  endloop
endfacet
facet normal 0.38267959943460794 0.0 0.9238811201537609
  outer loop
    vertex 79.74999995367432 65.99999995367432 17.200961066650393
    vertex 80.11177153723143 61.0 17.051112128662112
    vertex 80.11177153723143 65.99999995367432 17.051112128662112
  endloop
endfacet
facet normal 0.13052614365753357 0.0 0.991444867767186
  outer loop
    vertex 80.4999999536743 61.0 17.000000907348635
    vertex 80.11177153723143 65.99999995367432 17.051112128662112
    vertex 80.11177153723143 61.0 17.051112128662112
  endloop
endfacet
facet normal 0.13052614365753357 0.0 0.991444867767186
  outer loop
    vertex 80.11177153723143 65.99999995367432 17.051112128662112
    vertex 80.4999999536743 61.0 17.000000907348635
    vertex 80.4999999536743 65.99999995367432 17.000000907348635
  endloop
endfacet
facet normal -4.607718773258498e-17 0.4472135954999579 0.8944271909999159
  outer loop
    vertex 86.00000090734862 65.99999995367432 14.999999953674319
    vertex 74.9999999536743 71.99999995367432 11.999999953674319
    vertex 74.9999999536743 65.99999995367432 14.999999953674319
  endloop
endfacet
facet normal -4.607718773258498e-17 0.4472135954999579 0.8944271909999159
  outer loop
    vertex 74.9999999536743 71.99999995367432 11.999999953674319
    vertex 86.00000090734862 65.99999995367432 14.999999953674319
    vertex 79.99999995367432 71.99999995367432 11.999999953674319
  endloop
endfacet
facet normal 0.3826837570345089 0.0 0.9238793980287433
  outer loop
    vertex 69.61177153723145 109.0 4.551111174987795
    vertex 69.2499999536743 114.0 4.70096202032471
    vertex 69.2499999536743 109.0 4.70096202032471
  endloop
endfacet
facet normal 0.3826837570345089 0.0 0.9238793980287433
  outer loop
    vertex 69.2499999536743 114.0 4.70096202032471
    vertex 69.61177153723145 109.0 4.551111174987795
    vertex 69.61177153723145 114.0 4.551111174987795
  endloop
endfacet
facet normal -0.7933518892042801 0.0 -0.6087633200973919
  outer loop
    vertex 81.56066031591797 65.99999995367432 19.560660315917968
    vertex 81.79903884069824 61.0 19.250000907348635
    vertex 81.56066031591797 61.0 19.560660315917968
  endloop
endfacet
facet normal -0.7933518892042801 0.0 -0.6087633200973919
  outer loop
    vertex 81.79903884069824 61.0 19.250000907348635
    vertex 81.56066031591797 65.99999995367432 19.560660315917968
    vertex 81.79903884069824 65.99999995367432 19.250000907348635
  endloop
endfacet
facet normal 0.923879613295039 0.0 -0.38268323733580134
  outer loop
    vertex 68.55111117498778 114.0 6.388228370117189
    vertex 68.70096178190613 109.0 6.749999953674319
    vertex 68.55111117498778 109.0 6.388228370117189
  endloop
endfacet
facet normal 0.923879613295039 0.0 -0.38268323733580134
  outer loop
    vertex 68.70096178190613 109.0 6.749999953674319
    vertex 68.55111117498778 114.0 6.388228370117189
    vertex 68.70096178190613 114.0 6.749999953674319
  endloop
endfacet
facet normal 0.9238790413621416 0.0 0.3826846181018652
  outer loop
    vertex 79.2009620203247 65.99999995367432 17.750000907348635
    vertex 79.0511111749878 61.0 18.111771537231444
    vertex 79.2009620203247 61.0 17.750000907348635
  endloop
endfacet
facet normal 0.9238790413621416 0.0 0.3826846181018652
  outer loop
    vertex 79.0511111749878 61.0 18.111771537231444
    vertex 79.2009620203247 65.99999995367432 17.750000907348635
    vertex 79.0511111749878 65.99999995367432 18.111771537231444
  endloop
endfacet
facet normal 0.7933530654440788 0.0 -0.6087617871963411
  outer loop
    vertex 79.2009620203247 65.99999995367432 19.250000907348635
    vertex 79.43933959143065 61.0 19.560660315917968
    vertex 79.2009620203247 61.0 19.250000907348635
  endloop
endfacet
facet normal 0.7933530654440788 0.0 -0.6087617871963411
  outer loop
    vertex 79.43933959143065 61.0 19.560660315917968
    vertex 79.2009620203247 65.99999995367432 19.250000907348635
    vertex 79.43933959143065 65.99999995367432 19.560660315917968
  endloop
endfacet
facet normal 0.7933548705567954 0.0 0.6087594347226256
  outer loop
    vertex 79.43933959143065 65.99999995367432 17.439339591430663
    vertex 79.2009620203247 61.0 17.750000907348635
    vertex 79.43933959143065 61.0 17.439339591430663
  endloop
endfacet
facet normal 0.7933548705567954 0.0 0.6087594347226256
  outer loop
    vertex 79.2009620203247 61.0 17.750000907348635
    vertex 79.43933959143065 65.99999995367432 17.439339591430663
    vertex 79.2009620203247 65.99999995367432 17.750000907348635
  endloop
endfacet
facet normal 0.6087621438594555 0.0 0.7933527917664623
  outer loop
    vertex 79.74999995367432 61.0 17.200961066650393
    vertex 79.43933959143065 65.99999995367432 17.439339591430663
    vertex 79.43933959143065 61.0 17.439339591430663
  endloop
endfacet
facet normal 0.6087621438594555 0.0 0.7933527917664623
  outer loop
    vertex 79.43933959143065 65.99999995367432 17.439339591430663
    vertex 79.74999995367432 61.0 17.200961066650393
    vertex 79.74999995367432 65.99999995367432 17.200961066650393
  endloop
endfacet
facet normal 0.13052614365753357 0.0 -0.991444867767186
  outer loop
    vertex 80.4999999536743 65.99999995367432 20.000000907348635
    vertex 80.11177153723143 61.0 19.94888968603516
    vertex 80.11177153723143 65.99999995367432 19.94888968603516
  endloop
endfacet
facet normal 0.13052614365753357 0.0 -0.991444867767186
  outer loop
    vertex 80.11177153723143 61.0 19.94888968603516
    vertex 80.4999999536743 65.99999995367432 20.000000907348635
    vertex 80.4999999536743 61.0 20.000000907348635
  endloop
endfacet
facet normal 0.9238797546929366 0.0 -0.38268289597069705
  outer loop
    vertex 79.0511111749878 65.99999995367432 18.888228370117186
    vertex 79.2009620203247 61.0 19.250000907348635
    vertex 79.0511111749878 61.0 18.888228370117186
  endloop
endfacet
facet normal 0.9238797546929366 0.0 -0.38268289597069705
  outer loop
    vertex 79.2009620203247 61.0 19.250000907348635
    vertex 79.0511111749878 65.99999995367432 18.888228370117186
    vertex 79.2009620203247 65.99999995367432 19.250000907348635
  endloop
endfacet
facet normal -0.991444867767186 0.0 0.13052614365753407
  outer loop
    vertex 71.49999995367432 114.0 5.999999953674318
    vertex 71.44888873236084 109.0 5.611771537231448
    vertex 71.49999995367432 109.0 5.999999953674318
  endloop
endfacet
facet normal -0.991444867767186 0.0 0.13052614365753407
  outer loop
    vertex 71.44888873236084 109.0 5.611771537231448
    vertex 71.49999995367432 114.0 5.999999953674318
    vertex 71.44888873236084 114.0 5.611771537231448
  endloop
endfacet
facet normal -0.6087606109578739 0.0 -0.7933539680030574
  outer loop
    vertex 71.06066031591796 114.0 7.060660315917971
    vertex 70.7499999536743 109.0 7.299037887023928
    vertex 70.7499999536743 114.0 7.299037887023928
  endloop
endfacet
facet normal -0.6087606109578739 0.0 -0.7933539680030574
  outer loop
    vertex 70.7499999536743 109.0 7.299037887023928
    vertex 71.06066031591796 114.0 7.060660315917971
    vertex 71.06066031591796 109.0 7.060660315917971
  endloop
endfacet
facet normal -0.13052614365753454 0.0 0.991444867767186
  outer loop
    vertex 80.88822837011718 61.0 17.051112128662112
    vertex 80.4999999536743 65.99999995367432 17.000000907348635
    vertex 80.4999999536743 61.0 17.000000907348635
  endloop
endfacet
facet normal -0.13052614365753454 0.0 0.991444867767186
  outer loop
    vertex 80.4999999536743 65.99999995367432 17.000000907348635
    vertex 80.88822837011718 61.0 17.051112128662112
    vertex 80.88822837011718 65.99999995367432 17.051112128662112
  endloop
endfacet
facet normal 0.6087621438594599 0.0 -0.7933527917664589
  outer loop
    vertex 79.74999995367432 65.99999995367432 19.799038840698245
    vertex 79.43933959143065 61.0 19.560660315917968
    vertex 79.43933959143065 65.99999995367432 19.560660315917968
  endloop
endfacet
facet normal 0.6087621438594599 0.0 -0.7933527917664589
  outer loop
    vertex 79.43933959143065 61.0 19.560660315917968
    vertex 79.74999995367432 65.99999995367432 19.799038840698245
    vertex 79.74999995367432 61.0 19.799038840698245
  endloop
endfacet
facet normal 0.7933533798846897 0.0 0.6087613774095226
  outer loop
    vertex 68.93933982984925 114.0 4.939339591430666
    vertex 68.70096178190613 109.0 5.249999953674318
    vertex 68.93933982984925 109.0 4.939339591430666
  endloop
endfacet
facet normal 0.7933533798846897 0.0 0.6087613774095226
  outer loop
    vertex 68.70096178190613 109.0 5.249999953674318
    vertex 68.93933982984925 114.0 4.939339591430666
    vertex 68.70096178190613 114.0 5.249999953674318
  endloop
endfacet
facet normal -0.6087606109578728 0.0 0.7933539680030581
  outer loop
    vertex 71.06066031591796 109.0 4.939339591430666
    vertex 70.7499999536743 114.0 4.70096202032471
    vertex 70.7499999536743 109.0 4.70096202032471
  endloop
endfacet
facet normal -0.6087606109578728 0.0 0.7933539680030581
  outer loop
    vertex 70.7499999536743 114.0 4.70096202032471
    vertex 71.06066031591796 109.0 4.939339591430666
    vertex 71.06066031591796 114.0 4.939339591430666
  endloop
endfacet
facet normal 0.13052614365753548 0.0 -0.9914448677671858
  outer loop
    vertex 69.9999999536743 114.0 7.499999953674319
    vertex 69.61177153723145 109.0 7.448888732360842
    vertex 69.61177153723145 114.0 7.448888732360842
  endloop
endfacet
facet normal 0.13052614365753548 0.0 -0.9914448677671858
  outer loop
    vertex 69.61177153723145 109.0 7.448888732360842
    vertex 69.9999999536743 114.0 7.499999953674319
    vertex 69.9999999536743 109.0 7.499999953674319
  endloop
endfacet
facet normal -0.9238790413621416 0.0 0.3826846181018652
  outer loop
    vertex 81.94888968603516 65.99999995367432 18.111771537231444
    vertex 81.79903884069824 61.0 17.750000907348635
    vertex 81.94888968603516 61.0 18.111771537231444
  endloop
endfacet
facet normal -0.9238790413621416 0.0 0.3826846181018652
  outer loop
    vertex 81.79903884069824 61.0 17.750000907348635
    vertex 81.94888968603516 65.99999995367432 18.111771537231444
    vertex 81.79903884069824 65.99999995367432 17.750000907348635
  endloop
endfacet
facet normal 0.0 -1.0 0.0
  outer loop
    vertex 86.00000090734862 61.0 22.000000907348632
    vertex 74.9999999536743 61.0 0.0
    vertex 86.00000090734862 61.0 0.0
  endloop
endfacet
facet normal 0.0 -1.0 0.0
  outer loop
    vertex 74.9999999536743 61.0 0.0
    vertex 86.00000090734862 61.0 22.000000907348632
    vertex 81.56066031591797 61.0 17.439339591430663
  endloop
endfacet
facet normal 0.0 -1.0 0.0
  outer loop
    vertex 74.9999999536743 61.0 0.0
    vertex 81.56066031591797 61.0 17.439339591430663
    vertex 81.25000090734862 61.0 17.200961066650393
  endloop
endfacet
facet normal 0.0 -1.0 0.0
  outer loop
    vertex 74.9999999536743 61.0 0.0
    vertex 81.25000090734862 61.0 17.200961066650393
    vertex 80.88822837011718 61.0 17.051112128662112
  endloop
endfacet
facet normal 0.0 -1.0 0.0
  outer loop
    vertex 74.9999999536743 61.0 0.0
    vertex 80.88822837011718 61.0 17.051112128662112
    vertex 80.4999999536743 61.0 17.000000907348635
  endloop
endfacet
facet normal 0.0 -1.0 0.0
  outer loop
    vertex 81.56066031591797 61.0 17.439339591430663
    vertex 86.00000090734862 61.0 22.000000907348632
    vertex 81.79903884069824 61.0 17.750000907348635
  endloop
endfacet
facet normal 0.0 -1.0 0.0
  outer loop
    vertex 81.79903884069824 61.0 17.750000907348635
    vertex 86.00000090734862 61.0 22.000000907348632
    vertex 81.94888968603516 61.0 18.111771537231444
  endloop
endfacet
facet normal 0.0 -1.0 0.0
  outer loop
    vertex 81.94888968603516 61.0 18.111771537231444
    vertex 86.00000090734862 61.0 22.000000907348632
    vertex 82.00000090734864 61.0 18.500000907348635
  endloop
endfacet
facet normal 0.0 -1.0 0.0
  outer loop
    vertex 82.00000090734864 61.0 18.500000907348635
    vertex 86.00000090734862 61.0 22.000000907348632
    vertex 81.94888968603516 61.0 18.888228370117186
  endloop
endfacet
facet normal 0.0 -1.0 0.0
  outer loop
    vertex 81.94888968603516 61.0 18.888228370117186
    vertex 86.00000090734862 61.0 22.000000907348632
    vertex 81.79903884069824 61.0 19.250000907348635
  endloop
endfacet
facet normal 0.0 -1.0 0.0
  outer loop
    vertex 81.79903884069824 61.0 19.250000907348635
    vertex 86.00000090734862 61.0 22.000000907348632
    vertex 81.56066031591797 61.0 19.560660315917968
  endloop
endfacet
facet normal 0.0 -1.0 0.0
  outer loop
    vertex 81.56066031591797 61.0 19.560660315917968
    vertex 86.00000090734862 61.0 22.000000907348632
    vertex 81.25000090734862 61.0 19.799038840698245
  endloop
endfacet
facet normal 0.0 -1.0 0.0
  outer loop
    vertex 81.25000090734862 61.0 19.799038840698245
    vertex 86.00000090734862 61.0 22.000000907348632
    vertex 80.88822837011718 61.0 19.94888968603516
  endloop
endfacet
facet normal 0.0 -1.0 0.0
  outer loop
    vertex 80.88822837011718 61.0 19.94888968603516
    vertex 86.00000090734862 61.0 22.000000907348632
    vertex 80.4999999536743 61.0 20.000000907348635
  endloop
endfacet
facet normal 0.0 -1.0 0.0
  outer loop
    vertex 74.9999999536743 61.0 0.0
    vertex 79.43933959143065 61.0 17.439339591430663
    vertex 74.9999999536743 61.0 22.000000907348632
  endloop
endfacet
facet normal 0.0 -1.0 0.0
  outer loop
    vertex 79.43933959143065 61.0 17.439339591430663
    vertex 74.9999999536743 61.0 0.0
    vertex 79.74999995367432 61.0 17.200961066650393
  endloop
endfacet
facet normal 0.0 -1.0 0.0
  outer loop
    vertex 79.74999995367432 61.0 17.200961066650393
    vertex 74.9999999536743 61.0 0.0
    vertex 80.11177153723143 61.0 17.051112128662112
  endloop
endfacet
facet normal 0.0 -1.0 0.0
  outer loop
    vertex 80.11177153723143 61.0 17.051112128662112
    vertex 74.9999999536743 61.0 0.0
    vertex 80.4999999536743 61.0 17.000000907348635
  endloop
endfacet
facet normal 0.0 -1.0 0.0
  outer loop
    vertex 74.9999999536743 61.0 22.000000907348632
    vertex 79.43933959143065 61.0 17.439339591430663
    vertex 79.2009620203247 61.0 17.750000907348635
  endloop
endfacet
facet normal 0.0 -1.0 0.0
  outer loop
    vertex 74.9999999536743 61.0 22.000000907348632
    vertex 79.2009620203247 61.0 17.750000907348635
    vertex 79.0511111749878 61.0 18.111771537231444
  endloop
endfacet
facet normal 0.0 -1.0 0.0
  outer loop
    vertex 74.9999999536743 61.0 22.000000907348632
    vertex 79.0511111749878 61.0 18.111771537231444
    vertex 78.99999995367432 61.0 18.500000907348635
  endloop
endfacet
facet normal 0.0 -1.0 0.0
  outer loop
    vertex 74.9999999536743 61.0 22.000000907348632
    vertex 78.99999995367432 61.0 18.500000907348635
    vertex 79.0511111749878 61.0 18.888228370117186
  endloop
endfacet
facet normal 0.0 -1.0 0.0
  outer loop
    vertex 74.9999999536743 61.0 22.000000907348632
    vertex 79.0511111749878 61.0 18.888228370117186
    vertex 79.2009620203247 61.0 19.250000907348635
  endloop
endfacet
facet normal 0.0 -1.0 0.0
  outer loop
    vertex 74.9999999536743 61.0 22.000000907348632
    vertex 79.2009620203247 61.0 19.250000907348635
    vertex 79.43933959143065 61.0 19.560660315917968
  endloop
endfacet
facet normal 0.0 -1.0 0.0
  outer loop
    vertex 74.9999999536743 61.0 22.000000907348632
    vertex 79.43933959143065 61.0 19.560660315917968
    vertex 79.74999995367432 61.0 19.799038840698245
  endloop
endfacet
facet normal 0.0 -1.0 0.0
  outer loop
    vertex 74.9999999536743 61.0 22.000000907348632
    vertex 79.74999995367432 61.0 19.799038840698245
    vertex 80.11177153723143 61.0 19.94888968603516
  endloop
endfacet
facet normal 0.0 -1.0 0.0
  outer loop
    vertex 74.9999999536743 61.0 22.000000907348632
    vertex 80.11177153723143 61.0 19.94888968603516
    vertex 80.4999999536743 61.0 20.000000907348635
  endloop
endfacet
facet normal 0.0 -1.0 0.0
  outer loop
    vertex 74.9999999536743 61.0 22.000000907348632
    vertex 80.4999999536743 61.0 20.000000907348635
    vertex 86.00000090734862 61.0 22.000000907348632
  endloop
endfacet
facet normal -0.9238797546929366 0.0 -0.38268289597069705
  outer loop
    vertex 81.79903884069824 65.99999995367432 19.250000907348635
    vertex 81.94888968603516 61.0 18.888228370117186
    vertex 81.79903884069824 61.0 19.250000907348635
  endloop
endfacet
facet normal -0.9238797546929366 0.0 -0.38268289597069705
  outer loop
    vertex 81.94888968603516 61.0 18.888228370117186
    vertex 81.79903884069824 65.99999995367432 19.250000907348635
    vertex 81.94888968603516 65.99999995367432 18.888228370117186
  endloop
endfacet
facet normal 0.7071067249907518 0.7071068373823389 4.804311629448661e-18
  outer loop
    vertex 79.99999995367432 71.99999995367432 11.999999953674319
    vertex 86.00000090734862 65.99999995367432 0.0
    vertex 79.99999995367432 71.99999995367432 0.0
  endloop
endfacet
facet normal 0.7071067249907518 0.7071068373823389 4.804311629448661e-18
  outer loop
    vertex 86.00000090734862 65.99999995367432 0.0
    vertex 79.99999995367432 71.99999995367432 11.999999953674319
    vertex 86.00000090734862 65.99999995367432 14.999999953674319
  endloop
endfacet
facet normal 0.6087609050172008 0.0 -0.7933537423637949
  outer loop
    vertex 69.2499999536743 114.0 7.299037887023928
    vertex 68.93933982984925 109.0 7.060660315917971
    vertex 68.93933982984925 114.0 7.060660315917971
  endloop
endfacet
facet normal 0.6087609050172008 0.0 -0.7933537423637949
  outer loop
    vertex 68.93933982984925 109.0 7.060660315917971
    vertex 69.2499999536743 114.0 7.299037887023928
    vertex 69.2499999536743 109.0 7.299037887023928
  endloop
endfacet
facet normal -0.3826837570345192 0.0 0.9238793980287391
  outer loop
    vertex 70.7499999536743 109.0 4.70096202032471
    vertex 70.38822837011719 114.0 4.551111174987795
    vertex 70.38822837011719 109.0 4.551111174987795
  endloop
endfacet
facet normal -0.3826837570345192 0.0 0.9238793980287391
  outer loop
    vertex 70.38822837011719 114.0 4.551111174987795
    vertex 70.7499999536743 109.0 4.70096202032471
    vertex 70.7499999536743 114.0 4.70096202032471
  endloop
endfacet
facet normal 1.0 0.0 0.0
  outer loop
    vertex 79.99999995367432 112.0 0.0
    vertex 79.99999995367432 71.99999995367432 11.999999953674319
    vertex 79.99999995367432 71.99999995367432 0.0
  endloop
endfacet
facet normal 1.0 0.0 0.0
  outer loop
    vertex 79.99999995367432 71.99999995367432 11.999999953674319
    vertex 79.99999995367432 112.0 0.0
    vertex 79.99999995367432 112.0 11.999999953674319
  endloop
endfacet
facet normal 0.38268375703450735 0.0 -0.9238793980287439
  outer loop
    vertex 69.61177153723145 114.0 7.448888732360842
    vertex 69.2499999536743 109.0 7.299037887023928
    vertex 69.2499999536743 114.0 7.299037887023928
  endloop
endfacet
facet normal 0.38268375703450735 0.0 -0.9238793980287439
  outer loop
    vertex 69.2499999536743 109.0 7.299037887023928
    vertex 69.61177153723145 114.0 7.448888732360842
    vertex 69.61177153723145 109.0 7.448888732360842
  endloop
endfacet
facet normal 0.0 0.0 1.0
  outer loop
    vertex 79.99999995367432 71.99999995367432 11.999999953674319
    vertex 74.9999999536743 109.0 11.999999953674319
    vertex 74.9999999536743 71.99999995367432 11.999999953674319
  endloop
endfacet
facet normal 0.0 0.0 1.0
  outer loop
    vertex 74.9999999536743 109.0 11.999999953674319
    vertex 79.99999995367432 71.99999995367432 11.999999953674319
    vertex 77.9999999536743 114.0 11.999999953674319
  endloop
endfacet
facet normal 0.0 0.0 1.0
  outer loop
    vertex 77.9999999536743 114.0 11.999999953674319
    vertex 79.99999995367432 71.99999995367432 11.999999953674319
    vertex 79.99999995367432 112.0 11.999999953674319
  endloop
endfacet
facet normal 0.0 0.0 1.0
  outer loop
    vertex 74.9999999536743 109.0 11.999999953674319
    vertex 65.0 114.0 11.999999953674319
    vertex 65.0 109.0 11.999999953674319
  endloop
endfacet
facet normal 0.0 0.0 1.0
  outer loop
    vertex 65.0 114.0 11.999999953674319
    vertex 74.9999999536743 109.0 11.999999953674319
    vertex 77.9999999536743 114.0 11.999999953674319
  endloop
endfacet
facet normal -0.9914448262738911 0.0 -0.13052645883013175
  outer loop
    vertex 81.94888968603516 65.99999995367432 18.888228370117186
    vertex 82.00000090734864 61.0 18.500000907348635
    vertex 81.94888968603516 61.0 18.888228370117186
  endloop
endfacet
facet normal -0.9914448262738911 0.0 -0.13052645883013175
  outer loop
    vertex 82.00000090734864 61.0 18.500000907348635
    vertex 81.94888968603516 65.99999995367432 18.888228370117186
    vertex 82.00000090734864 65.99999995367432 18.500000907348635
  endloop
endfacet
facet normal 0.13052614365753548 0.0 0.9914448677671858
  outer loop
    vertex 69.9999999536743 109.0 4.499999953674318
    vertex 69.61177153723145 114.0 4.551111174987795
    vertex 69.61177153723145 109.0 4.551111174987795
  endloop
endfacet
facet normal 0.13052614365753548 0.0 0.9914448677671858
  outer loop
    vertex 69.61177153723145 114.0 4.551111174987795
    vertex 69.9999999536743 109.0 4.499999953674318
    vertex 69.9999999536743 114.0 4.499999953674318
  endloop
endfacet
facet normal -0.9238793980287402 0.0 -0.38268375703451607
  outer loop
    vertex 71.29903788702393 114.0 6.749999953674319
    vertex 71.44888873236084 109.0 6.388228370117189
    vertex 71.29903788702393 109.0 6.749999953674319
  endloop
endfacet
facet normal -0.9238793980287402 0.0 -0.38268375703451607
  outer loop
    vertex 71.44888873236084 109.0 6.388228370117189
    vertex 71.29903788702393 114.0 6.749999953674319
    vertex 71.44888873236084 114.0 6.388228370117189
  endloop
endfacet
facet normal -0.6087633200973919 0.0 -0.7933518892042801
  outer loop
    vertex 81.56066031591797 65.99999995367432 19.560660315917968
    vertex 81.25000090734862 61.0 19.799038840698245
    vertex 81.25000090734862 65.99999995367432 19.799038840698245
  endloop
endfacet
facet normal -0.6087633200973919 0.0 -0.7933518892042801
  outer loop
    vertex 81.25000090734862 61.0 19.799038840698245
    vertex 81.56066031591797 65.99999995367432 19.560660315917968
    vertex 81.56066031591797 61.0 19.560660315917968
  endloop
endfacet
facet normal 0.0 0.0 1.0
  outer loop
    vertex 86.00000090734862 61.0 22.000000907348632
    vertex 74.9999999536743 65.99999995367432 22.000000907348632
    vertex 74.9999999536743 61.0 22.000000907348632
  endloop
endfacet
facet normal 0.0 0.0 1.0
  outer loop
    vertex 74.9999999536743 65.99999995367432 22.000000907348632
    vertex 86.00000090734862 61.0 22.000000907348632
    vertex 86.00000090734862 65.99999995367432 22.000000907348632
  endloop
endfacet
facet normal 0.7071067811865456 0.7071067811865496 0.0
  outer loop
    vertex 77.9999999536743 114.0 11.999999953674319
    vertex 79.99999995367432 112.0 0.0
    vertex 77.9999999536743 114.0 0.0
  endloop
endfacet
facet normal 0.7071067811865456 0.7071067811865496 0.0
  outer loop
    vertex 79.99999995367432 112.0 0.0
    vertex 77.9999999536743 114.0 11.999999953674319
    vertex 79.99999995367432 112.0 11.999999953674319
  endloop
endfacet
facet normal 0.0 0.0 -1.0
  outer loop
    vertex 77.9999999536743 114.0 0.0
    vertex 65.0 109.0 0.0
    vertex 65.0 114.0 0.0
  endloop
endfacet
facet normal 0.0 0.0 -1.0
  outer loop
    vertex 65.0 109.0 0.0
    vertex 77.9999999536743 114.0 0.0
    vertex 74.9999999536743 109.0 0.0
  endloop
endfacet
facet normal 0.0 0.0 -1.0
  outer loop
    vertex 74.9999999536743 109.0 0.0
    vertex 77.9999999536743 114.0 0.0
    vertex 74.9999999536743 61.0 0.0
  endloop
endfacet
facet normal 0.0 0.0 -1.0
  outer loop
    vertex 74.9999999536743 61.0 0.0
    vertex 77.9999999536743 114.0 0.0
    vertex 79.99999995367432 71.99999995367432 0.0
  endloop
endfacet
facet normal 0.0 0.0 -1.0
  outer loop
    vertex 74.9999999536743 61.0 0.0
    vertex 79.99999995367432 71.99999995367432 0.0
    vertex 86.00000090734862 61.0 0.0
  endloop
endfacet
facet normal 0.0 0.0 -1.0
  outer loop
    vertex 79.99999995367432 71.99999995367432 0.0
    vertex 77.9999999536743 114.0 0.0
    vertex 79.99999995367432 112.0 0.0
  endloop
endfacet
facet normal 0.0 0.0 -1.0
  outer loop
    vertex 86.00000090734862 61.0 0.0
    vertex 79.99999995367432 71.99999995367432 0.0
    vertex 86.00000090734862 65.99999995367432 0.0
  endloop
endfacet
facet normal 0.0 1.0 0.0
  outer loop
    vertex 74.9999999536743 65.99999995367432 14.999999953674319
    vertex 80.11177153723143 65.99999995367432 17.051112128662112
    vertex 86.00000090734862 65.99999995367432 14.999999953674319
  endloop
endfacet
facet normal 0.0 1.0 0.0
  outer loop
    vertex 80.11177153723143 65.99999995367432 17.051112128662112
    vertex 74.9999999536743 65.99999995367432 14.999999953674319
    vertex 79.74999995367432 65.99999995367432 17.200961066650393
  endloop
endfacet
facet normal 0.0 1.0 0.0
  outer loop
    vertex 79.74999995367432 65.99999995367432 17.200961066650393
    vertex 74.9999999536743 65.99999995367432 14.999999953674319
    vertex 79.43933959143065 65.99999995367432 17.439339591430663
  endloop
endfacet
facet normal 0.0 1.0 0.0
  outer loop
    vertex 79.43933959143065 65.99999995367432 17.439339591430663
    vertex 74.9999999536743 65.99999995367432 14.999999953674319
    vertex 74.9999999536743 65.99999995367432 22.000000907348632
  endloop
endfacet
facet normal 0.0 1.0 0.0
  outer loop
    vertex 86.00000090734862 65.99999995367432 14.999999953674319
    vertex 80.11177153723143 65.99999995367432 17.051112128662112
    vertex 80.4999999536743 65.99999995367432 17.000000907348635
  endloop
endfacet
facet normal 0.0 1.0 0.0
  outer loop
    vertex 79.43933959143065 65.99999995367432 17.439339591430663
    vertex 74.9999999536743 65.99999995367432 22.000000907348632
    vertex 79.2009620203247 65.99999995367432 17.750000907348635
  endloop
endfacet
facet normal 0.0 1.0 0.0
  outer loop
    vertex 79.2009620203247 65.99999995367432 17.750000907348635
    vertex 74.9999999536743 65.99999995367432 22.000000907348632
    vertex 79.0511111749878 65.99999995367432 18.111771537231444
  endloop
endfacet
facet normal 0.0 1.0 0.0
  outer loop
    vertex 79.0511111749878 65.99999995367432 18.111771537231444
    vertex 74.9999999536743 65.99999995367432 22.000000907348632
    vertex 78.99999995367432 65.99999995367432 18.500000907348635
  endloop
endfacet
facet normal 0.0 1.0 0.0
  outer loop
    vertex 78.99999995367432 65.99999995367432 18.500000907348635
    vertex 74.9999999536743 65.99999995367432 22.000000907348632
    vertex 79.0511111749878 65.99999995367432 18.888228370117186
  endloop
endfacet
facet normal 0.0 1.0 0.0
  outer loop
    vertex 79.0511111749878 65.99999995367432 18.888228370117186
    vertex 74.9999999536743 65.99999995367432 22.000000907348632
    vertex 79.2009620203247 65.99999995367432 19.250000907348635
  endloop
endfacet
facet normal 0.0 1.0 0.0
  outer loop
    vertex 79.2009620203247 65.99999995367432 19.250000907348635
    vertex 74.9999999536743 65.99999995367432 22.000000907348632
    vertex 79.43933959143065 65.99999995367432 19.560660315917968
  endloop
endfacet
facet normal 0.0 1.0 0.0
  outer loop
    vertex 79.43933959143065 65.99999995367432 19.560660315917968
    vertex 74.9999999536743 65.99999995367432 22.000000907348632
    vertex 79.74999995367432 65.99999995367432 19.799038840698245
  endloop
endfacet
facet normal 0.0 1.0 0.0
  outer loop
    vertex 79.74999995367432 65.99999995367432 19.799038840698245
    vertex 74.9999999536743 65.99999995367432 22.000000907348632
    vertex 80.11177153723143 65.99999995367432 19.94888968603516
  endloop
endfacet
facet normal 0.0 1.0 0.0
  outer loop
    vertex 80.11177153723143 65.99999995367432 19.94888968603516
    vertex 74.9999999536743 65.99999995367432 22.000000907348632
    vertex 80.4999999536743 65.99999995367432 20.000000907348635
  endloop
endfacet
facet normal 0.0 1.0 0.0
  outer loop
    vertex 86.00000090734862 65.99999995367432 14.999999953674319
    vertex 81.56066031591797 65.99999995367432 17.439339591430663
    vertex 86.00000090734862 65.99999995367432 22.000000907348632
  endloop
endfacet
facet normal 0.0 1.0 0.0
  outer loop
    vertex 81.56066031591797 65.99999995367432 17.439339591430663
    vertex 86.00000090734862 65.99999995367432 14.999999953674319
    vertex 81.25000090734862 65.99999995367432 17.200961066650393
  endloop
endfacet
facet normal 0.0 1.0 0.0
  outer loop
    vertex 81.25000090734862 65.99999995367432 17.200961066650393
    vertex 86.00000090734862 65.99999995367432 14.999999953674319
    vertex 80.88822837011718 65.99999995367432 17.051112128662112
  endloop
endfacet
facet normal 0.0 1.0 0.0
  outer loop
    vertex 80.88822837011718 65.99999995367432 17.051112128662112
    vertex 86.00000090734862 65.99999995367432 14.999999953674319
    vertex 80.4999999536743 65.99999995367432 17.000000907348635
  endloop
endfacet
facet normal 0.0 1.0 0.0
  outer loop
    vertex 86.00000090734862 65.99999995367432 22.000000907348632
    vertex 81.56066031591797 65.99999995367432 17.439339591430663
    vertex 81.79903884069824 65.99999995367432 17.750000907348635
  endloop
endfacet
facet normal 0.0 1.0 0.0
  outer loop
    vertex 86.00000090734862 65.99999995367432 22.000000907348632
    vertex 81.79903884069824 65.99999995367432 17.750000907348635
    vertex 81.94888968603516 65.99999995367432 18.111771537231444
  endloop
endfacet
facet normal 0.0 1.0 0.0
  outer loop
    vertex 86.00000090734862 65.99999995367432 22.000000907348632
    vertex 81.94888968603516 65.99999995367432 18.111771537231444
    vertex 82.00000090734864 65.99999995367432 18.500000907348635
  endloop
endfacet
facet normal 0.0 1.0 0.0
  outer loop
    vertex 86.00000090734862 65.99999995367432 22.000000907348632
    vertex 82.00000090734864 65.99999995367432 18.500000907348635
    vertex 81.94888968603516 65.99999995367432 18.888228370117186
  endloop
endfacet
facet normal 0.0 1.0 0.0
  outer loop
    vertex 86.00000090734862 65.99999995367432 22.000000907348632
    vertex 81.94888968603516 65.99999995367432 18.888228370117186
    vertex 81.79903884069824 65.99999995367432 19.250000907348635
  endloop
endfacet
facet normal 0.0 1.0 0.0
  outer loop
    vertex 86.00000090734862 65.99999995367432 22.000000907348632
    vertex 81.79903884069824 65.99999995367432 19.250000907348635
    vertex 81.56066031591797 65.99999995367432 19.560660315917968
  endloop
endfacet
facet normal 0.0 1.0 0.0
  outer loop
    vertex 86.00000090734862 65.99999995367432 22.000000907348632
    vertex 81.56066031591797 65.99999995367432 19.560660315917968
    vertex 81.25000090734862 65.99999995367432 19.799038840698245
  endloop
endfacet
facet normal 0.0 1.0 0.0
  outer loop
    vertex 86.00000090734862 65.99999995367432 22.000000907348632
    vertex 81.25000090734862 65.99999995367432 19.799038840698245
    vertex 80.88822837011718 65.99999995367432 19.94888968603516
  endloop
endfacet
facet normal 0.0 1.0 0.0
  outer loop
    vertex 86.00000090734862 65.99999995367432 22.000000907348632
    vertex 80.88822837011718 65.99999995367432 19.94888968603516
    vertex 80.4999999536743 65.99999995367432 20.000000907348635
  endloop
endfacet
facet normal 0.0 1.0 0.0
  outer loop
    vertex 86.00000090734862 65.99999995367432 22.000000907348632
    vertex 80.4999999536743 65.99999995367432 20.000000907348635
    vertex 74.9999999536743 65.99999995367432 22.000000907348632
  endloop
endfacet
facet normal -0.9914449092601804 0.0 0.13052582848644526
  outer loop
    vertex 82.00000090734864 65.99999995367432 18.500000907348635
    vertex 81.94888968603516 61.0 18.111771537231444
    vertex 82.00000090734864 61.0 18.500000907348635
  endloop
endfacet
facet normal -0.9914449092601804 0.0 0.13052582848644526
  outer loop
    vertex 81.94888968603516 61.0 18.111771537231444
    vertex 82.00000090734864 65.99999995367432 18.500000907348635
    vertex 81.94888968603516 65.99999995367432 18.111771537231444
  endloop
endfacet
facet normal -0.7933539680030494 0.0 0.6087606109578843
  outer loop
    vertex 71.29903788702393 114.0 5.249999953674318
    vertex 71.06066031591796 109.0 4.939339591430666
    vertex 71.29903788702393 109.0 5.249999953674318
  endloop
endfacet
facet normal -0.7933539680030494 0.0 0.6087606109578843
  outer loop
    vertex 71.06066031591796 109.0 4.939339591430666
    vertex 71.29903788702393 114.0 5.249999953674318
    vertex 71.06066031591796 114.0 4.939339591430666
  endloop
endfacet
facet normal -0.7933536943234112 0.0 0.6087609676247282
  outer loop
    vertex 81.79903884069824 65.99999995367432 17.750000907348635
    vertex 81.56066031591797 61.0 17.439339591430663
    vertex 81.79903884069824 61.0 17.750000907348635
  endloop
endfacet
facet normal -0.7933536943234112 0.0 0.6087609676247282
  outer loop
    vertex 81.56066031591797 61.0 17.439339591430663
    vertex 81.79903884069824 65.99999995367432 17.750000907348635
    vertex 81.56066031591797 65.99999995367432 17.439339591430663
  endloop
endfacet
facet normal -0.13052614365753173 0.0 -0.9914448677671862
  outer loop
    vertex 70.38822837011719 114.0 7.448888732360842
    vertex 69.9999999536743 109.0 7.499999953674319
    vertex 69.9999999536743 114.0 7.499999953674319
  endloop
endfacet
facet normal -0.13052614365753173 0.0 -0.9914448677671862
  outer loop
    vertex 69.9999999536743 109.0 7.499999953674319
    vertex 70.38822837011719 114.0 7.448888732360842
    vertex 70.38822837011719 109.0 7.448888732360842
  endloop
endfacet
facet normal -0.9238793980287402 0.0 0.38268375703451607
  outer loop
    vertex 71.44888873236084 114.0 5.611771537231448
    vertex 71.29903788702393 109.0 5.249999953674318
    vertex 71.44888873236084 109.0 5.611771537231448
  endloop
endfacet
facet normal -0.9238793980287402 0.0 0.38268375703451607
  outer loop
    vertex 71.29903788702393 109.0 5.249999953674318
    vertex 71.44888873236084 114.0 5.611771537231448
    vertex 71.29903788702393 114.0 5.249999953674318
  endloop
endfacet
facet normal 0.991444867767186 0.0 -0.13052614365753407
  outer loop
    vertex 68.4999999536743 114.0 5.999999953674318
    vertex 68.55111117498778 109.0 6.388228370117189
    vertex 68.4999999536743 109.0 5.999999953674318
  endloop
endfacet
facet normal 0.991444867767186 0.0 -0.13052614365753407
  outer loop
    vertex 68.55111117498778 109.0 6.388228370117189
    vertex 68.4999999536743 114.0 5.999999953674318
    vertex 68.55111117498778 114.0 6.388228370117189
  endloop
endfacet
facet normal 0.6087609050171997 0.0 0.7933537423637957
  outer loop
    vertex 69.2499999536743 109.0 4.70096202032471
    vertex 68.93933982984925 114.0 4.939339591430666
    vertex 68.93933982984925 109.0 4.939339591430666
  endloop
endfacet
facet normal 0.6087609050171997 0.0 0.7933537423637957
  outer loop
    vertex 68.93933982984925 114.0 4.939339591430666
    vertex 69.2499999536743 109.0 4.70096202032471
    vertex 69.2499999536743 114.0 4.70096202032471
  endloop
endfacet
facet normal -1.0 0.0 0.0
  outer loop
    vertex 74.9999999536743 65.99999995367432 22.000000907348632
    vertex 74.9999999536743 61.0 0.0
    vertex 74.9999999536743 61.0 22.000000907348632
  endloop
endfacet
facet normal -1.0 0.0 0.0
  outer loop
    vertex 74.9999999536743 61.0 0.0
    vertex 74.9999999536743 65.99999995367432 22.000000907348632
    vertex 74.9999999536743 65.99999995367432 14.999999953674319
  endloop
endfacet
facet normal -1.0 0.0 0.0
  outer loop
    vertex 74.9999999536743 61.0 0.0
    vertex 74.9999999536743 65.99999995367432 14.999999953674319
    vertex 74.9999999536743 71.99999995367432 11.999999953674319
  endloop
endfacet
facet normal -1.0 0.0 0.0
  outer loop
    vertex 74.9999999536743 61.0 0.0
    vertex 74.9999999536743 71.99999995367432 11.999999953674319
    vertex 74.9999999536743 109.0 0.0
  endloop
endfacet
facet normal -1.0 0.0 0.0
  outer loop
    vertex 74.9999999536743 109.0 0.0
    vertex 74.9999999536743 71.99999995367432 11.999999953674319
    vertex 74.9999999536743 109.0 11.999999953674319
  endloop
endfacet
facet normal -1.0 0.0 0.0
  outer loop
    vertex 65.0 114.0 11.999999953674319
    vertex 65.0 109.0 0.0
    vertex 65.0 109.0 11.999999953674319
  endloop
endfacet
facet normal -1.0 0.0 0.0
  outer loop
    vertex 65.0 109.0 0.0
    vertex 65.0 114.0 11.999999953674319
    vertex 65.0 114.0 0.0
  endloop
endfacet
facet normal -0.3826828959706972 0.0 -0.9238797546929366
  outer loop
    vertex 81.25000090734862 65.99999995367432 19.799038840698245
    vertex 80.88822837011718 61.0 19.94888968603516
    vertex 80.88822837011718 65.99999995367432 19.94888968603516
  endloop
endfacet
facet normal -0.3826828959706972 0.0 -0.9238797546929366
  outer loop
    vertex 80.88822837011718 61.0 19.94888968603516
    vertex 81.25000090734862 65.99999995367432 19.799038840698245
    vertex 81.25000090734862 61.0 19.799038840698245
  endloop
endfacet
facet normal 0.0 -1.0 0.0
  outer loop
    vertex 74.9999999536743 109.0 0.0
    vertex 71.06066031591796 109.0 4.939339591430666
    vertex 65.0 109.0 0.0
  endloop
endfacet
facet normal 0.0 -1.0 0.0
  outer loop
    vertex 71.06066031591796 109.0 4.939339591430666
    vertex 74.9999999536743 109.0 0.0
    vertex 71.29903788702393 109.0 5.249999953674318
  endloop
endfacet
facet normal 0.0 -1.0 0.0
  outer loop
    vertex 71.29903788702393 109.0 5.249999953674318
    vertex 74.9999999536743 109.0 0.0
    vertex 74.9999999536743 109.0 11.999999953674319
  endloop
endfacet
facet normal 0.0 -1.0 0.0
  outer loop
    vertex 65.0 109.0 0.0
    vertex 71.06066031591796 109.0 4.939339591430666
    vertex 70.7499999536743 109.0 4.70096202032471
  endloop
endfacet
facet normal 0.0 -1.0 0.0
  outer loop
    vertex 65.0 109.0 0.0
    vertex 70.7499999536743 109.0 4.70096202032471
    vertex 70.38822837011719 109.0 4.551111174987795
  endloop
endfacet
facet normal 0.0 -1.0 0.0
  outer loop
    vertex 65.0 109.0 0.0
    vertex 70.38822837011719 109.0 4.551111174987795
    vertex 69.9999999536743 109.0 4.499999953674318
  endloop
endfacet
facet normal 0.0 -1.0 0.0
  outer loop
    vertex 71.29903788702393 109.0 5.249999953674318
    vertex 74.9999999536743 109.0 11.999999953674319
    vertex 71.44888873236084 109.0 5.611771537231448
  endloop
endfacet
facet normal 0.0 -1.0 0.0
  outer loop
    vertex 71.44888873236084 109.0 5.611771537231448
    vertex 74.9999999536743 109.0 11.999999953674319
    vertex 71.49999995367432 109.0 5.999999953674318
  endloop
endfacet
facet normal 0.0 -1.0 0.0
  outer loop
    vertex 71.49999995367432 109.0 5.999999953674318
    vertex 74.9999999536743 109.0 11.999999953674319
    vertex 71.44888873236084 109.0 6.388228370117189
  endloop
endfacet
facet normal 0.0 -1.0 0.0
  outer loop
    vertex 71.44888873236084 109.0 6.388228370117189
    vertex 74.9999999536743 109.0 11.999999953674319
    vertex 71.29903788702393 109.0 6.749999953674319
  endloop
endfacet
facet normal 0.0 -1.0 0.0
  outer loop
    vertex 71.29903788702393 109.0 6.749999953674319
    vertex 74.9999999536743 109.0 11.999999953674319
    vertex 71.06066031591796 109.0 7.060660315917971
  endloop
endfacet
facet normal 0.0 -1.0 0.0
  outer loop
    vertex 71.06066031591796 109.0 7.060660315917971
    vertex 74.9999999536743 109.0 11.999999953674319
    vertex 70.7499999536743 109.0 7.299037887023928
  endloop
endfacet
facet normal 0.0 -1.0 0.0
  outer loop
    vertex 70.7499999536743 109.0 7.299037887023928
    vertex 74.9999999536743 109.0 11.999999953674319
    vertex 70.38822837011719 109.0 7.448888732360842
  endloop
endfacet
facet normal 0.0 -1.0 0.0
  outer loop
    vertex 70.38822837011719 109.0 7.448888732360842
    vertex 74.9999999536743 109.0 11.999999953674319
    vertex 69.9999999536743 109.0 7.499999953674319
  endloop
endfacet
facet normal 0.0 -1.0 0.0
  outer loop
    vertex 65.0 109.0 0.0
    vertex 68.70096178190613 109.0 5.249999953674318
    vertex 65.0 109.0 11.999999953674319
  endloop
endfacet
facet normal 0.0 -1.0 0.0
  outer loop
    vertex 68.70096178190613 109.0 5.249999953674318
    vertex 65.0 109.0 0.0
    vertex 68.93933982984925 109.0 4.939339591430666
  endloop
endfacet
facet normal 0.0 -1.0 0.0
  outer loop
    vertex 68.93933982984925 109.0 4.939339591430666
    vertex 65.0 109.0 0.0
    vertex 69.2499999536743 109.0 4.70096202032471
  endloop
endfacet
facet normal 0.0 -1.0 0.0
  outer loop
    vertex 69.2499999536743 109.0 4.70096202032471
    vertex 65.0 109.0 0.0
    vertex 69.61177153723145 109.0 4.551111174987795
  endloop
endfacet
facet normal 0.0 -1.0 0.0
  outer loop
    vertex 69.61177153723145 109.0 4.551111174987795
    vertex 65.0 109.0 0.0
    vertex 69.9999999536743 109.0 4.499999953674318
  endloop
endfacet
facet normal 0.0 -1.0 0.0
  outer loop
    vertex 65.0 109.0 11.999999953674319
    vertex 68.70096178190613 109.0 5.249999953674318
    vertex 68.55111117498778 109.0 5.611771537231448
  endloop
endfacet
facet normal 0.0 -1.0 0.0
  outer loop
    vertex 65.0 109.0 11.999999953674319
    vertex 68.55111117498778 109.0 5.611771537231448
    vertex 68.4999999536743 109.0 5.999999953674318
  endloop
endfacet
facet normal 0.0 -1.0 0.0
  outer loop
    vertex 65.0 109.0 11.999999953674319
    vertex 68.4999999536743 109.0 5.999999953674318
    vertex 68.55111117498778 109.0 6.388228370117189
  endloop
endfacet
facet normal 0.0 -1.0 0.0
  outer loop
    vertex 65.0 109.0 11.999999953674319
    vertex 68.55111117498778 109.0 6.388228370117189
    vertex 68.70096178190613 109.0 6.749999953674319
  endloop
endfacet
facet normal 0.0 -1.0 0.0
  outer loop
    vertex 65.0 109.0 11.999999953674319
    vertex 68.70096178190613 109.0 6.749999953674319
    vertex 68.93933982984925 109.0 7.060660315917971
  endloop
endfacet
facet normal 0.0 -1.0 0.0
  outer loop
    vertex 65.0 109.0 11.999999953674319
    vertex 68.93933982984925 109.0 7.060660315917971
    vertex 69.2499999536743 109.0 7.299037887023928
  endloop
endfacet
facet normal 0.0 -1.0 0.0
  outer loop
    vertex 65.0 109.0 11.999999953674319
    vertex 69.2499999536743 109.0 7.299037887023928
    vertex 69.61177153723145 109.0 7.448888732360842
  endloop
endfacet
facet normal 0.0 -1.0 0.0
  outer loop
    vertex 65.0 109.0 11.999999953674319
    vertex 69.61177153723145 109.0 7.448888732360842
    vertex 69.9999999536743 109.0 7.499999953674319
  endloop
endfacet
facet normal 0.0 -1.0 0.0
  outer loop
    vertex 65.0 109.0 11.999999953674319
    vertex 69.9999999536743 109.0 7.499999953674319
    vertex 74.9999999536743 109.0 11.999999953674319
  endloop
endfacet
facet normal 1.0 0.0 0.0
  outer loop
    vertex 86.00000090734862 65.99999995367432 0.0
    vertex 86.00000090734862 61.0 22.000000907348632
    vertex 86.00000090734862 61.0 0.0
  endloop
endfacet
facet normal 1.0 0.0 0.0
  outer loop
    vertex 86.00000090734862 61.0 22.000000907348632
    vertex 86.00000090734862 65.99999995367432 0.0
    vertex 86.00000090734862 65.99999995367432 22.000000907348632
  endloop
endfacet
facet normal 1.0 0.0 0.0
  outer loop
    vertex 86.00000090734862 65.99999995367432 22.000000907348632
    vertex 86.00000090734862 65.99999995367432 0.0
    vertex 86.00000090734862 65.99999995367432 14.999999953674319
  endloop
endfacet
facet normal 0.7933533798846897 0.0 -0.6087613774095226
  outer loop
    vertex 68.70096178190613 114.0 6.749999953674319
    vertex 68.93933982984925 109.0 7.060660315917971
    vertex 68.70096178190613 109.0 6.749999953674319
  endloop
endfacet
facet normal 0.7933533798846897 0.0 -0.6087613774095226
  outer loop
    vertex 68.93933982984925 109.0 7.060660315917971
    vertex 68.70096178190613 114.0 6.749999953674319
    vertex 68.93933982984925 114.0 7.060660315917971
  endloop
endfacet
facet normal -0.13052614365753454 0.0 -0.991444867767186
  outer loop
    vertex 80.88822837011718 65.99999995367432 19.94888968603516
    vertex 80.4999999536743 61.0 20.000000907348635
    vertex 80.4999999536743 65.99999995367432 20.000000907348635
  endloop
endfacet
facet normal -0.13052614365753454 0.0 -0.991444867767186
  outer loop
    vertex 80.4999999536743 61.0 20.000000907348635
    vertex 80.88822837011718 65.99999995367432 19.94888968603516
    vertex 80.88822837011718 61.0 19.94888968603516
  endloop
endfacet
facet normal -0.38267873837694005 0.0 0.9238814768108696
  outer loop
    vertex 81.25000090734862 61.0 17.200961066650393
    vertex 80.88822837011718 65.99999995367432 17.051112128662112
    vertex 80.88822837011718 61.0 17.051112128662112
  endloop
endfacet
facet normal -0.38267873837694005 0.0 0.9238814768108696
  outer loop
    vertex 80.88822837011718 65.99999995367432 17.051112128662112
    vertex 81.25000090734862 61.0 17.200961066650393
    vertex 81.25000090734862 65.99999995367432 17.200961066650393
  endloop
endfacet
facet normal 0.0 1.0 0.0
  outer loop
    vertex 65.0 114.0 0.0
    vertex 69.2499999536743 114.0 4.70096202032471
    vertex 77.9999999536743 114.0 0.0
  endloop
endfacet
facet normal 0.0 1.0 0.0
  outer loop
    vertex 69.2499999536743 114.0 4.70096202032471
    vertex 65.0 114.0 0.0
    vertex 68.93933982984925 114.0 4.939339591430666
  endloop
endfacet
facet normal 0.0 1.0 0.0
  outer loop
    vertex 68.93933982984925 114.0 4.939339591430666
    vertex 65.0 114.0 0.0
    vertex 68.70096178190613 114.0 5.249999953674318
  endloop
endfacet
facet normal 0.0 1.0 0.0
  outer loop
    vertex 68.70096178190613 114.0 5.249999953674318
    vertex 65.0 114.0 0.0
    vertex 65.0 114.0 11.999999953674319
  endloop
endfacet
facet normal 0.0 1.0 0.0
  outer loop
    vertex 77.9999999536743 114.0 0.0
    vertex 69.2499999536743 114.0 4.70096202032471
    vertex 69.61177153723145 114.0 4.551111174987795
  endloop
endfacet
facet normal 0.0 1.0 0.0
  outer loop
    vertex 77.9999999536743 114.0 0.0
    vertex 69.61177153723145 114.0 4.551111174987795
    vertex 69.9999999536743 114.0 4.499999953674318
  endloop
endfacet
facet normal 0.0 1.0 0.0
  outer loop
    vertex 68.70096178190613 114.0 5.249999953674318
    vertex 65.0 114.0 11.999999953674319
    vertex 68.55111117498778 114.0 5.611771537231448
  endloop
endfacet
facet normal 0.0 1.0 0.0
  outer loop
    vertex 68.55111117498778 114.0 5.611771537231448
    vertex 65.0 114.0 11.999999953674319
    vertex 68.4999999536743 114.0 5.999999953674318
  endloop
endfacet
facet normal 0.0 1.0 0.0
  outer loop
    vertex 68.4999999536743 114.0 5.999999953674318
    vertex 65.0 114.0 11.999999953674319
    vertex 68.55111117498778 114.0 6.388228370117189
  endloop
endfacet
facet normal 0.0 1.0 0.0
  outer loop
    vertex 68.55111117498778 114.0 6.388228370117189
    vertex 65.0 114.0 11.999999953674319
    vertex 68.70096178190613 114.0 6.749999953674319
  endloop
endfacet
facet normal 0.0 1.0 0.0
  outer loop
    vertex 68.70096178190613 114.0 6.749999953674319
    vertex 65.0 114.0 11.999999953674319
    vertex 68.93933982984925 114.0 7.060660315917971
  endloop
endfacet
facet normal 0.0 1.0 0.0
  outer loop
    vertex 68.93933982984925 114.0 7.060660315917971
    vertex 65.0 114.0 11.999999953674319
    vertex 69.2499999536743 114.0 7.299037887023928
  endloop
endfacet
facet normal 0.0 1.0 0.0
  outer loop
    vertex 69.2499999536743 114.0 7.299037887023928
    vertex 65.0 114.0 11.999999953674319
    vertex 69.61177153723145 114.0 7.448888732360842
  endloop
endfacet
facet normal 0.0 1.0 0.0
  outer loop
    vertex 69.61177153723145 114.0 7.448888732360842
    vertex 65.0 114.0 11.999999953674319
    vertex 69.9999999536743 114.0 7.499999953674319
  endloop
endfacet
facet normal 0.0 1.0 0.0
  outer loop
    vertex 77.9999999536743 114.0 0.0
    vertex 71.06066031591796 114.0 4.939339591430666
    vertex 77.9999999536743 114.0 11.999999953674319
  endloop
endfacet
facet normal 0.0 1.0 0.0
  outer loop
    vertex 71.06066031591796 114.0 4.939339591430666
    vertex 77.9999999536743 114.0 0.0
    vertex 70.7499999536743 114.0 4.70096202032471
  endloop
endfacet
facet normal 0.0 1.0 0.0
  outer loop
    vertex 70.7499999536743 114.0 4.70096202032471
    vertex 77.9999999536743 114.0 0.0
    vertex 70.38822837011719 114.0 4.551111174987795
  endloop
endfacet
facet normal 0.0 1.0 0.0
  outer loop
    vertex 70.38822837011719 114.0 4.551111174987795
    vertex 77.9999999536743 114.0 0.0
    vertex 69.9999999536743 114.0 4.499999953674318
  endloop
endfacet
facet normal 0.0 1.0 0.0
  outer loop
    vertex 77.9999999536743 114.0 11.999999953674319
    vertex 71.06066031591796 114.0 4.939339591430666
    vertex 71.29903788702393 114.0 5.249999953674318
  endloop
endfacet
facet normal 0.0 1.0 0.0
  outer loop
    vertex 77.9999999536743 114.0 11.999999953674319
    vertex 71.29903788702393 114.0 5.249999953674318
    vertex 71.44888873236084 114.0 5.611771537231448
  endloop
endfacet
facet normal 0.0 1.0 0.0
  outer loop
    vertex 77.9999999536743 114.0 11.999999953674319
    vertex 71.44888873236084 114.0 5.611771537231448
    vertex 71.49999995367432 114.0 5.999999953674318
  endloop
endfacet
facet normal 0.0 1.0 0.0
  outer loop
    vertex 77.9999999536743 114.0 11.999999953674319
    vertex 71.49999995367432 114.0 5.999999953674318
    vertex 71.44888873236084 114.0 6.388228370117189
  endloop
endfacet
facet normal 0.0 1.0 0.0
  outer loop
    vertex 77.9999999536743 114.0 11.999999953674319
    vertex 71.44888873236084 114.0 6.388228370117189
    vertex 71.29903788702393 114.0 6.749999953674319
  endloop
endfacet
facet normal 0.0 1.0 0.0
  outer loop
    vertex 77.9999999536743 114.0 11.999999953674319
    vertex 71.29903788702393 114.0 6.749999953674319
    vertex 71.06066031591796 114.0 7.060660315917971
  endloop
endfacet
facet normal 0.0 1.0 0.0
  outer loop
    vertex 77.9999999536743 114.0 11.999999953674319
    vertex 71.06066031591796 114.0 7.060660315917971
    vertex 70.7499999536743 114.0 7.299037887023928
  endloop
endfacet
facet normal 0.0 1.0 0.0
  outer loop
    vertex 77.9999999536743 114.0 11.999999953674319
    vertex 70.7499999536743 114.0 7.299037887023928
    vertex 70.38822837011719 114.0 7.448888732360842
  endloop
endfacet
facet normal 0.0 1.0 0.0
  outer loop
    vertex 77.9999999536743 114.0 11.999999953674319
    vertex 70.38822837011719 114.0 7.448888732360842
    vertex 69.9999999536743 114.0 7.499999953674319
  endloop
endfacet
facet normal 0.0 1.0 0.0
  outer loop
    vertex 77.9999999536743 114.0 11.999999953674319
    vertex 69.9999999536743 114.0 7.499999953674319
    vertex 65.0 114.0 11.999999953674319
  endloop
endfacet
endsolid motor_mount
