solid motor_mount
facet normal -0.13052614365753357 1.8114141250515576e-18 0.991444867767186
  outer loop
    vertex 102.38142225074579 5.074699728243888 17.000001907348633
    vertex 102.76965066718867 0.07469972824389134 17.05111312866211
    vertex 102.76965066718867 5.074699728243888 17.05111312866211
  endloop
endfacet
facet normal -0.13052614365753357 1.8114141250515576e-18 0.991444867767186
  outer loop
    vertex 102.76965066718867 0.07469972824389134 17.05111312866211
    vertex 102.38142225074579 5.074699728243888 17.000001907348633
    vertex 102.38142225074579 0.07469972824389134 17.000001907348633
  endloop
endfacet
facet normal -0.382679599434608 5.310746279332092e-18 0.923881120153761
  outer loop
    vertex 102.76965066718867 5.074699728243888 17.05111312866211
    vertex 103.1314222507458 0.07469972824389134 17.20096206665039
    vertex 103.1314222507458 5.074699728243888 17.20096206665039
  endloop
endfacet
facet normal -0.382679599434608 5.310746279332092e-18 0.923881120153761
  outer loop
    vertex 103.1314222507458 0.07469972824389134 17.20096206665039
    vertex 102.76965066718867 5.074699728243888 17.05111312866211
    vertex 102.76965066718867 0.07469972824389134 17.05111312866211
  endloop
endfacet
facet normal -0.6087621438594554 8.448271857911235e-18 0.7933527917664623
  outer loop
    vertex 103.1314222507458 5.074699728243888 17.20096206665039
    vertex 103.44208261298947 0.07469972824389134 17.43934059143066
    vertex 103.44208261298947 5.074699728243888 17.43934059143066
  endloop
endfacet
facet normal -0.6087621438594554 8.448271857911235e-18 0.7933527917664623
  outer loop
    vertex 103.44208261298947 0.07469972824389134 17.43934059143066
    vertex 103.1314222507458 5.074699728243888 17.20096206665039
    vertex 103.1314222507458 0.07469972824389134 17.20096206665039
  endloop
endfacet
facet normal -0.7933548705567954 1.101001054988343e-17 0.6087594347226256
  outer loop
    vertex 103.44208261298947 0.07469972824389134 17.43934059143066
    vertex 103.68046018409541 5.074699728243888 17.750001907348633
    vertex 103.44208261298947 5.074699728243888 17.43934059143066
  endloop
endfacet
facet normal -0.7933548705567954 1.101001054988343e-17 0.6087594347226256
  outer loop
    vertex 103.68046018409541 5.074699728243888 17.750001907348633
    vertex 103.44208261298947 0.07469972824389134 17.43934059143066
    vertex 103.68046018409541 0.07469972824389134 17.750001907348633
  endloop
endfacet
facet normal -0.9238790413621416 1.389212417226093e-17 0.38268461810186527
  outer loop
    vertex 103.68046018409541 0.07469972824389134 17.750001907348633
    vertex 103.83031102943232 5.074699728243888 18.11177253723144
    vertex 103.68046018409541 5.074699728243888 17.750001907348633
  endloop
endfacet
facet normal -0.9238790413621416 1.389212417226093e-17 0.38268461810186527
  outer loop
    vertex 103.83031102943232 5.074699728243888 18.11177253723144
    vertex 103.68046018409541 0.07469972824389134 17.750001907348633
    vertex 103.83031102943232 0.07469972824389134 18.11177253723144
  endloop
endfacet
facet normal -0.9914449092601804 1.3759062073850725e-17 0.13052582848644526
  outer loop
    vertex 103.83031102943232 0.07469972824389134 18.11177253723144
    vertex 103.8814222507458 5.074699728243888 18.500001907348633
    vertex 103.83031102943232 5.074699728243888 18.11177253723144
  endloop
endfacet
facet normal -0.9914449092601804 1.3759062073850725e-17 0.13052582848644526
  outer loop
    vertex 103.8814222507458 5.074699728243888 18.500001907348633
    vertex 103.83031102943232 0.07469972824389134 18.11177253723144
    vertex 103.8814222507458 0.07469972824389134 18.500001907348633
  endloop
endfacet
facet normal -0.9914448262738911 1.3759060922184528e-17 -0.13052645883013175
  outer loop
    vertex 103.8814222507458 0.07469972824389134 18.500001907348633
    vertex 103.83031102943232 5.074699728243888 18.888229370117184
    vertex 103.8814222507458 5.074699728243888 18.500001907348633
  endloop
endfacet
facet normal -0.9914448262738911 1.3759060922184528e-17 -0.13052645883013175
  outer loop
    vertex 103.83031102943232 5.074699728243888 18.888229370117184
    vertex 103.8814222507458 0.07469972824389134 18.500001907348633
    vertex 103.83031102943232 0.07469972824389134 18.888229370117184
  endloop
endfacet
facet normal -0.9238797546929366 1.1750685137827734e-17 -0.38268289597069716
  outer loop
    vertex 103.83031102943232 0.07469972824389134 18.888229370117184
    vertex 103.68046018409541 5.074699728243888 19.250001907348633
    vertex 103.83031102943232 5.074699728243888 18.888229370117184
  endloop
endfacet
facet normal -0.9238797546929366 1.1750685137827734e-17 -0.38268289597069716
  outer loop
    vertex 103.68046018409541 5.074699728243888 19.250001907348633
    vertex 103.83031102943232 0.07469972824389134 18.888229370117184
    vertex 103.68046018409541 0.07469972824389134 19.250001907348633
  endloop
endfacet
facet normal -0.7933530654440788 1.1009985498912954e-17 -0.6087617871963412
  outer loop
    vertex 103.68046018409541 0.07469972824389134 19.250001907348633
    vertex 103.44208261298947 5.074699728243888 19.560661315917965
    vertex 103.68046018409541 5.074699728243888 19.250001907348633
  endloop
endfacet
facet normal -0.7933530654440788 1.1009985498912954e-17 -0.6087617871963412
  outer loop
    vertex 103.44208261298947 5.074699728243888 19.560661315917965
    vertex 103.68046018409541 0.07469972824389134 19.250001907348633
    vertex 103.44208261298947 0.07469972824389134 19.560661315917965
  endloop
endfacet
facet normal -0.6087621438594599 8.448271857911803e-18 -0.7933527917664589
  outer loop
    vertex 103.1314222507458 0.07469972824389134 19.799039840698242
    vertex 103.44208261298947 5.074699728243888 19.560661315917965
    vertex 103.44208261298947 0.07469972824389134 19.560661315917965
  endloop
endfacet
facet normal -0.6087621438594599 8.448271857911803e-18 -0.7933527917664589
  outer loop
    vertex 103.44208261298947 5.074699728243888 19.560661315917965
    vertex 103.1314222507458 0.07469972824389134 19.799039840698242
    vertex 103.1314222507458 5.074699728243888 19.799039840698242
  endloop
endfacet
facet normal -0.3826837570345099 5.310803977622496e-18 -0.9238793980287429
  outer loop
    vertex 102.76965066718867 0.07469972824389134 19.948890686035156
    vertex 103.1314222507458 5.074699728243888 19.799039840698242
    vertex 103.1314222507458 0.07469972824389134 19.799039840698242
  endloop
endfacet
facet normal -0.3826837570345099 5.310803977622496e-18 -0.9238793980287429
  outer loop
    vertex 103.1314222507458 5.074699728243888 19.799039840698242
    vertex 102.76965066718867 0.07469972824389134 19.948890686035156
    vertex 102.76965066718867 5.074699728243888 19.948890686035156
  endloop
endfacet
facet normal -0.13052614365753357 1.8114141250515576e-18 -0.991444867767186
  outer loop
    vertex 102.38142225074579 0.07469972824389134 20.000001907348633
    vertex 102.76965066718867 5.074699728243888 19.948890686035156
    vertex 102.76965066718867 0.07469972824389134 19.948890686035156
  endloop
endfacet
facet normal -0.13052614365753357 1.8114141250515576e-18 -0.991444867767186
  outer loop
    vertex 102.76965066718867 5.074699728243888 19.948890686035156
    vertex 102.38142225074579 0.07469972824389134 20.000001907348633
    vertex 102.38142225074579 5.074699728243888 20.000001907348633
  endloop
endfacet
facet normal 0.13052614365753454 -1.4462103947645279e-18 -0.991444867767186
  outer loop
    vertex 101.99319383430291 0.07469972824389134 19.948890686035156
    vertex 102.38142225074579 5.074699728243888 20.000001907348633
    vertex 102.38142225074579 0.07469972824389134 20.000001907348633
  endloop
endfacet
facet normal 0.13052614365753454 -1.4462103947645279e-18 -0.991444867767186
  outer loop
    vertex 102.38142225074579 5.074699728243888 20.000001907348633
    vertex 101.99319383430291 0.07469972824389134 19.948890686035156
    vertex 101.99319383430291 5.074699728243888 19.948890686035156
  endloop
endfacet
facet normal 0.38268289597069705 -4.240069970223581e-18 -0.9238797546929366
  outer loop
    vertex 101.63142129707148 0.07469972824389134 19.799039840698242
    vertex 101.99319383430291 5.074699728243888 19.948890686035156
    vertex 101.99319383430291 0.07469972824389134 19.948890686035156
  endloop
endfacet
facet normal 0.38268289597069705 -4.240069970223581e-18 -0.9238797546929366
  outer loop
    vertex 101.99319383430291 5.074699728243888 19.948890686035156
    vertex 101.63142129707148 0.07469972824389134 19.799039840698242
    vertex 101.63142129707148 5.074699728243888 19.799039840698242
  endloop
endfacet
facet normal 0.6087633200973919 -8.448288181492621e-18 -0.7933518892042801
  outer loop
    vertex 101.32076188850216 0.07469972824389134 19.560661315917965
    vertex 101.63142129707148 5.074699728243888 19.799039840698242
    vertex 101.63142129707148 0.07469972824389134 19.799039840698242
  endloop
endfacet
facet normal 0.6087633200973919 -8.448288181492621e-18 -0.7933518892042801
  outer loop
    vertex 101.63142129707148 5.074699728243888 19.799039840698242
    vertex 101.32076188850216 0.07469972824389134 19.560661315917965
    vertex 101.32076188850216 5.074699728243888 19.560661315917965
  endloop
endfacet
facet normal 0.7933518892042801 -1.1009969175305338e-17 -0.6087633200973919
  outer loop
    vertex 101.32076188850216 0.07469972824389134 19.560661315917965
    vertex 101.08238336372187 5.074699728243888 19.250001907348633
    vertex 101.32076188850216 5.074699728243888 19.560661315917965
  endloop
endfacet
facet normal 0.7933518892042801 -1.1009969175305338e-17 -0.6087633200973919
  outer loop
    vertex 101.08238336372187 5.074699728243888 19.250001907348633
    vertex 101.32076188850216 0.07469972824389134 19.560661315917965
    vertex 101.08238336372187 0.07469972824389134 19.250001907348633
  endloop
endfacet
facet normal 0.9238797546929366 -1.389212925330076e-17 -0.38268289597069716
  outer loop
    vertex 101.08238336372187 0.07469972824389134 19.250001907348633
    vertex 100.93253251838496 5.074699728243888 18.888229370117184
    vertex 101.08238336372187 5.074699728243888 19.250001907348633
  endloop
endfacet
facet normal 0.9238797546929366 -1.389212925330076e-17 -0.38268289597069716
  outer loop
    vertex 100.93253251838496 5.074699728243888 18.888229370117184
    vertex 101.08238336372187 0.07469972824389134 19.250001907348633
    vertex 100.93253251838496 0.07469972824389134 18.888229370117184
  endloop
endfacet
facet normal 0.9914448262738911 -1.3759060922184528e-17 -0.13052645883013175
  outer loop
    vertex 100.93253251838496 0.07469972824389134 18.888229370117184
    vertex 100.88142129707148 5.074699728243888 18.500001907348633
    vertex 100.93253251838496 5.074699728243888 18.888229370117184
  endloop
endfacet
facet normal 0.9914448262738911 -1.3759060922184528e-17 -0.13052645883013175
  outer loop
    vertex 100.88142129707148 5.074699728243888 18.500001907348633
    vertex 100.93253251838496 0.07469972824389134 18.888229370117184
    vertex 100.88142129707148 0.07469972824389134 18.500001907348633
  endloop
endfacet
facet normal 0.9914449092601804 -1.3759062073850558e-17 0.13052582848644526
  outer loop
    vertex 100.88142129707148 0.07469972824389134 18.500001907348633
    vertex 100.93253251838496 5.074699728243888 18.11177253723144
    vertex 100.88142129707148 5.074699728243888 18.500001907348633
  endloop
endfacet
facet normal 0.9914449092601804 -1.3759062073850558e-17 0.13052582848644526
  outer loop
    vertex 100.93253251838496 5.074699728243888 18.11177253723144
    vertex 100.88142129707148 0.07469972824389134 18.500001907348633
    vertex 100.93253251838496 0.07469972824389134 18.11177253723144
  endloop
endfacet
facet normal 0.9238790413621416 -1.1750670419960743e-17 0.38268461810186527
  outer loop
    vertex 100.93253251838496 0.07469972824389134 18.11177253723144
    vertex 101.08238336372187 5.074699728243888 17.750001907348633
    vertex 100.93253251838496 5.074699728243888 18.11177253723144
  endloop
endfacet
facet normal 0.9238790413621416 -1.1750670419960743e-17 0.38268461810186527
  outer loop
    vertex 101.08238336372187 5.074699728243888 17.750001907348633
    vertex 100.93253251838496 0.07469972824389134 18.11177253723144
    vertex 101.08238336372187 0.07469972824389134 17.750001907348633
  endloop
endfacet
facet normal 0.7933536943234112 -1.100999422636638e-17 0.6087609676247283
  outer loop
    vertex 101.08238336372187 0.07469972824389134 17.750001907348633
    vertex 101.32076188850216 5.074699728243888 17.43934059143066
    vertex 101.08238336372187 5.074699728243888 17.750001907348633
  endloop
endfacet
facet normal 0.7933536943234112 -1.100999422636638e-17 0.6087609676247283
  outer loop
    vertex 101.32076188850216 5.074699728243888 17.43934059143066
    vertex 101.08238336372187 0.07469972824389134 17.750001907348633
    vertex 101.32076188850216 0.07469972824389134 17.43934059143066
  endloop
endfacet
facet normal 0.6087633200973873 -8.448288181493063e-18 0.7933518892042838
  outer loop
    vertex 101.32076188850216 5.074699728243888 17.43934059143066
    vertex 101.63142129707148 0.07469972824389134 17.20096206665039
    vertex 101.63142129707148 5.074699728243888 17.20096206665039
  endloop
endfacet
facet normal 0.6087633200973873 -8.448288181493063e-18 0.7933518892042838
  outer loop
    vertex 101.63142129707148 0.07469972824389134 17.20096206665039
    vertex 101.32076188850216 5.074699728243888 17.43934059143066
    vertex 101.32076188850216 0.07469972824389134 17.43934059143066
  endloop
endfacet
facet normal 0.38267873837694 -4.240023904699949e-18 0.9238814768108696
  outer loop
    vertex 101.63142129707148 5.074699728243888 17.20096206665039
    vertex 101.99319383430291 0.07469972824389134 17.05111312866211
    vertex 101.99319383430291 5.074699728243888 17.05111312866211
  endloop
endfacet
facet normal 0.38267873837694 -4.240023904699949e-18 0.9238814768108696
  outer loop
    vertex 101.99319383430291 0.07469972824389134 17.05111312866211
    vertex 101.63142129707148 5.074699728243888 17.20096206665039
    vertex 101.63142129707148 0.07469972824389134 17.20096206665039
  endloop
endfacet
facet normal 0.13052614365753454 -1.4462103947645279e-18 0.991444867767186
  outer loop
    vertex 101.99319383430291 5.074699728243888 17.05111312866211
    vertex 102.38142225074579 0.07469972824389134 17.000001907348633
    vertex 102.38142225074579 5.074699728243888 17.000001907348633
  endloop
endfacet
facet normal 0.13052614365753454 -1.4462103947645279e-18 0.991444867767186
  outer loop
    vertex 102.38142225074579 0.07469972824389134 17.000001907348633
    vertex 101.99319383430291 5.074699728243888 17.05111312866211
    vertex 101.99319383430291 0.07469972824389134 17.05111312866211
  endloop
endfacet
facet normal 6.206335383118182e-18 0.4472135954999579 0.8944271909999159
  outer loop
    vertex 102.88142225074581 11.074699728243887 12.000000953674316
    vertex 107.8814222507458 5.074699728243888 15.000000953674316
    vertex 107.8814222507458 11.074699728243887 12.000000953674316
  endloop
endfacet
facet normal 6.206335383118182e-18 0.4472135954999579 0.8944271909999159
  outer loop
    vertex 107.8814222507458 5.074699728243888 15.000000953674316
    vertex 102.88142225074581 11.074699728243887 12.000000953674316
    vertex 96.88142129707148 5.074699728243888 15.000000953674316
  endloop
endfacet
facet normal 1.3877787807814777e-17 1.0 -6.560149021421131e-32
  outer loop
    vertex 96.88142129707148 5.074699728243888 15.000000953674316
    vertex 101.99319383430291 5.074699728243888 17.05111312866211
    vertex 107.8814222507458 5.074699728243888 15.000000953674316
  endloop
endfacet
facet normal 1.3877787807814777e-17 1.0 -6.560149021421131e-32
  outer loop
    vertex 101.99319383430291 5.074699728243888 17.05111312866211
    vertex 96.88142129707148 5.074699728243888 15.000000953674316
    vertex 101.63142129707148 5.074699728243888 17.20096206665039
  endloop
endfacet
facet normal 1.3877787807814777e-17 1.0 -6.560149021421131e-32
  outer loop
    vertex 101.63142129707148 5.074699728243888 17.20096206665039
    vertex 96.88142129707148 5.074699728243888 15.000000953674316
    vertex 101.32076188850216 5.074699728243888 17.43934059143066
  endloop
endfacet
facet normal 1.3877787807814777e-17 1.0 -6.560149021421131e-32
  outer loop
    vertex 101.32076188850216 5.074699728243888 17.43934059143066
    vertex 96.88142129707148 5.074699728243888 15.000000953674316
    vertex 96.88142129707148 5.074699728243888 22.00000190734863
  endloop
endfacet
facet normal 1.3877787807814777e-17 1.0 -6.560149021421131e-32
  outer loop
    vertex 107.8814222507458 5.074699728243888 15.000000953674316
    vertex 101.99319383430291 5.074699728243888 17.05111312866211
    vertex 102.38142225074579 5.074699728243888 17.000001907348633
  endloop
endfacet
facet normal 1.3877787807814777e-17 1.0 -6.560149021421131e-32
  outer loop
    vertex 101.32076188850216 5.074699728243888 17.43934059143066
    vertex 96.88142129707148 5.074699728243888 22.00000190734863
    vertex 101.08238336372187 5.074699728243888 17.750001907348633
  endloop
endfacet
facet normal 1.3877787807814777e-17 1.0 -6.560149021421131e-32
  outer loop
    vertex 101.08238336372187 5.074699728243888 17.750001907348633
    vertex 96.88142129707148 5.074699728243888 22.00000190734863
    vertex 100.93253251838496 5.074699728243888 18.11177253723144
  endloop
endfacet
facet normal 1.3877787807814777e-17 1.0 -6.560149021421131e-32
  outer loop
    vertex 100.93253251838496 5.074699728243888 18.11177253723144
    vertex 96.88142129707148 5.074699728243888 22.00000190734863
    vertex 100.88142129707148 5.074699728243888 18.500001907348633
  endloop
endfacet
facet normal 1.3877787807814777e-17 1.0 -6.560149021421131e-32
  outer loop
    vertex 100.88142129707148 5.074699728243888 18.500001907348633
    vertex 96.88142129707148 5.074699728243888 22.00000190734863
    vertex 100.93253251838496 5.074699728243888 18.888229370117184
  endloop
endfacet
facet normal 1.3877787807814777e-17 1.0 -6.560149021421131e-32
  outer loop
    vertex 100.93253251838496 5.074699728243888 18.888229370117184
    vertex 96.88142129707148 5.074699728243888 22.00000190734863
    vertex 101.08238336372187 5.074699728243888 19.250001907348633
  endloop
endfacet
facet normal 1.3877787807814777e-17 1.0 -6.560149021421131e-32
  outer loop
    vertex 101.08238336372187 5.074699728243888 19.250001907348633
    vertex 96.88142129707148 5.074699728243888 22.00000190734863
    vertex 101.32076188850216 5.074699728243888 19.560661315917965
  endloop
endfacet
facet normal 1.3877787807814777e-17 1.0 -6.560149021421131e-32
  outer loop
    vertex 101.32076188850216 5.074699728243888 19.560661315917965
    vertex 96.88142129707148 5.074699728243888 22.00000190734863
    vertex 101.63142129707148 5.074699728243888 19.799039840698242
  endloop
endfacet
facet normal 1.3877787807814777e-17 1.0 -6.560149021421131e-32
  outer loop
    vertex 101.63142129707148 5.074699728243888 19.799039840698242
    vertex 96.88142129707148 5.074699728243888 22.00000190734863
    vertex 101.99319383430291 5.074699728243888 19.948890686035156
  endloop
endfacet
facet normal 1.3877787807814777e-17 1.0 -6.560149021421131e-32
  outer loop
    vertex 101.99319383430291 5.074699728243888 19.948890686035156
    vertex 96.88142129707148 5.074699728243888 22.00000190734863
    vertex 102.38142225074579 5.074699728243888 20.000001907348633
  endloop
endfacet
facet normal 1.3877787807814777e-17 1.0 -6.560149021421131e-32
  outer loop
    vertex 107.8814222507458 5.074699728243888 15.000000953674316
    vertex 103.44208261298947 5.074699728243888 17.43934059143066
    vertex 107.8814222507458 5.074699728243888 22.00000190734863
  endloop
endfacet
facet normal 1.3877787807814777e-17 1.0 -6.560149021421131e-32
  outer loop
    vertex 103.44208261298947 5.074699728243888 17.43934059143066
    vertex 107.8814222507458 5.074699728243888 15.000000953674316
    vertex 103.1314222507458 5.074699728243888 17.20096206665039
  endloop
endfacet
facet normal 1.3877787807814777e-17 1.0 -6.560149021421131e-32
  outer loop
    vertex 103.1314222507458 5.074699728243888 17.20096206665039
    vertex 107.8814222507458 5.074699728243888 15.000000953674316
    vertex 102.76965066718867 5.074699728243888 17.05111312866211
  endloop
endfacet
facet normal 1.3877787807814777e-17 1.0 -6.560149021421131e-32
  outer loop
    vertex 102.76965066718867 5.074699728243888 17.05111312866211
    vertex 107.8814222507458 5.074699728243888 15.000000953674316
    vertex 102.38142225074579 5.074699728243888 17.000001907348633
  endloop
endfacet
facet normal 1.3877787807814777e-17 1.0 -6.560149021421131e-32
  outer loop
    vertex 107.8814222507458 5.074699728243888 22.00000190734863
    vertex 103.44208261298947 5.074699728243888 17.43934059143066
    vertex 103.68046018409541 5.074699728243888 17.750001907348633
  endloop
endfacet
facet normal 1.3877787807814777e-17 1.0 -6.560149021421131e-32
  outer loop
    vertex 107.8814222507458 5.074699728243888 22.00000190734863
    vertex 103.68046018409541 5.074699728243888 17.750001907348633
    vertex 103.83031102943232 5.074699728243888 18.11177253723144
  endloop
endfacet
facet normal 1.3877787807814777e-17 1.0 -6.560149021421131e-32
  outer loop
    vertex 107.8814222507458 5.074699728243888 22.00000190734863
    vertex 103.83031102943232 5.074699728243888 18.11177253723144
    vertex 103.8814222507458 5.074699728243888 18.500001907348633
  endloop
endfacet
facet normal 1.3877787807814777e-17 1.0 -6.560149021421131e-32
  outer loop
    vertex 107.8814222507458 5.074699728243888 22.00000190734863
    vertex 103.8814222507458 5.074699728243888 18.500001907348633
    vertex 103.83031102943232 5.074699728243888 18.888229370117184
  endloop
endfacet
facet normal 1.3877787807814777e-17 1.0 -6.560149021421131e-32
  outer loop
    vertex 107.8814222507458 5.074699728243888 22.00000190734863
    vertex 103.83031102943232 5.074699728243888 18.888229370117184
    vertex 103.68046018409541 5.074699728243888 19.250001907348633
  endloop
endfacet
facet normal 1.3877787807814777e-17 1.0 -6.560149021421131e-32
  outer loop
    vertex 107.8814222507458 5.074699728243888 22.00000190734863
    vertex 103.68046018409541 5.074699728243888 19.250001907348633
    vertex 103.44208261298947 5.074699728243888 19.560661315917965
  endloop
endfacet
facet normal 1.3877787807814777e-17 1.0 -6.560149021421131e-32
  outer loop
    vertex 107.8814222507458 5.074699728243888 22.00000190734863
    vertex 103.44208261298947 5.074699728243888 19.560661315917965
    vertex 103.1314222507458 5.074699728243888 19.799039840698242
  endloop
endfacet
facet normal 1.3877787807814777e-17 1.0 -6.560149021421131e-32
  outer loop
    vertex 107.8814222507458 5.074699728243888 22.00000190734863
    vertex 103.1314222507458 5.074699728243888 19.799039840698242
    vertex 102.76965066718867 5.074699728243888 19.948890686035156
  endloop
endfacet
facet normal 1.3877787807814777e-17 1.0 -6.560149021421131e-32
  outer loop
    vertex 107.8814222507458 5.074699728243888 22.00000190734863
    vertex 102.76965066718867 5.074699728243888 19.948890686035156
    vertex 102.38142225074579 5.074699728243888 20.000001907348633
  endloop
endfacet
facet normal 1.3877787807814777e-17 1.0 -6.560149021421131e-32
  outer loop
    vertex 107.8814222507458 5.074699728243888 22.00000190734863
    vertex 102.38142225074579 5.074699728243888 20.000001907348633
    vertex 96.88142129707148 5.074699728243888 22.00000190734863
  endloop
endfacet
facet normal 0.0 0.0 1.0
  outer loop
    vertex 96.88142129707148 5.074699728243888 22.00000190734863
    vertex 107.8814222507458 0.07469972824389134 22.00000190734863
    vertex 107.8814222507458 5.074699728243888 22.00000190734863
  endloop
endfacet
facet normal 0.0 0.0 1.0
  outer loop
    vertex 107.8814222507458 0.07469972824389134 22.00000190734863
    vertex 96.88142129707148 5.074699728243888 22.00000190734863
    vertex 96.88142129707148 0.07469972824389134 22.00000190734863
  endloop
endfacet
facet normal -0.991444867767186 -3.652037370542158e-19 0.1305261436575341
  outer loop
    vertex 114.33031102943234 39.099999999999994 5.611772037231447
    vertex 114.38142225074581 44.0999999536742 6.000000453674317
    vertex 114.33031102943234 44.0999999536742 5.611772037231447
  endloop
endfacet
facet normal -0.991444867767186 -3.652037370542158e-19 0.1305261436575341
  outer loop
    vertex 114.38142225074581 44.0999999536742 6.000000453674317
    vertex 114.33031102943234 39.099999999999994 5.611772037231447
    vertex 114.38142225074581 39.099999999999994 6.000000453674317
  endloop
endfacet
facet normal -0.923879613295039 0.0 0.3826832373358013
  outer loop
    vertex 114.18046042251399 39.099999999999994 5.250000453674317
    vertex 114.33031102943234 44.0999999536742 5.611772037231447
    vertex 114.18046042251399 44.0999999536742 5.250000453674317
  endloop
endfacet
facet normal -0.923879613295039 0.0 0.3826832373358013
  outer loop
    vertex 114.33031102943234 44.0999999536742 5.611772037231447
    vertex 114.18046042251399 39.099999999999994 5.250000453674317
    vertex 114.33031102943234 39.099999999999994 5.611772037231447
  endloop
endfacet
facet normal -0.7933533798846758 0.0 0.6087613774095407
  outer loop
    vertex 113.94208237457086 39.099999999999994 4.939340091430664
    vertex 114.18046042251399 44.0999999536742 5.250000453674317
    vertex 113.94208237457086 44.0999999536742 4.939340091430664
  endloop
endfacet
facet normal -0.7933533798846758 0.0 0.6087613774095407
  outer loop
    vertex 114.18046042251399 44.0999999536742 5.250000453674317
    vertex 113.94208237457086 39.099999999999994 4.939340091430664
    vertex 114.18046042251399 39.099999999999994 5.250000453674317
  endloop
endfacet
facet normal -0.6087609050171996 0.0 0.7933537423637957
  outer loop
    vertex 113.6314222507458 44.0999999536742 4.700962520324708
    vertex 113.94208237457086 39.099999999999994 4.939340091430664
    vertex 113.94208237457086 44.0999999536742 4.939340091430664
  endloop
endfacet
facet normal -0.6087609050171996 0.0 0.7933537423637957
  outer loop
    vertex 113.94208237457086 39.099999999999994 4.939340091430664
    vertex 113.6314222507458 44.0999999536742 4.700962520324708
    vertex 113.6314222507458 39.099999999999994 4.700962520324708
  endloop
endfacet
facet normal -0.38268375703451907 2.3632019908795874e-18 0.9238793980287391
  outer loop
    vertex 113.26965066718869 44.0999999536742 4.551111674987793
    vertex 113.6314222507458 39.099999999999994 4.700962520324708
    vertex 113.6314222507458 44.0999999536742 4.700962520324708
  endloop
endfacet
facet normal -0.38268375703451907 2.3632019908795874e-18 0.9238793980287391
  outer loop
    vertex 113.6314222507458 39.099999999999994 4.700962520324708
    vertex 113.26965066718869 44.0999999536742 4.551111674987793
    vertex 113.26965066718869 39.099999999999994 4.551111674987793
  endloop
endfacet
facet normal -0.130526143657528 0.0 0.9914448677671867
  outer loop
    vertex 112.88142225074579 44.0999999536742 4.500000453674317
    vertex 113.26965066718869 39.099999999999994 4.551111674987793
    vertex 113.26965066718869 44.0999999536742 4.551111674987793
  endloop
endfacet
facet normal -0.130526143657528 0.0 0.9914448677671867
  outer loop
    vertex 113.26965066718869 39.099999999999994 4.551111674987793
    vertex 112.88142225074579 44.0999999536742 4.500000453674317
    vertex 112.88142225074579 39.099999999999994 4.500000453674317
  endloop
endfacet
facet normal 0.13052614365753548 0.0 0.9914448677671858
  outer loop
    vertex 112.49319383430293 44.0999999536742 4.551111674987793
    vertex 112.88142225074579 39.099999999999994 4.500000453674317
    vertex 112.88142225074579 44.0999999536742 4.500000453674317
  endloop
endfacet
facet normal 0.13052614365753548 0.0 0.9914448677671858
  outer loop
    vertex 112.88142225074579 39.099999999999994 4.500000453674317
    vertex 112.49319383430293 44.0999999536742 4.551111674987793
    vertex 112.49319383430293 39.099999999999994 4.551111674987793
  endloop
endfacet
facet normal 0.38268375703451907 0.0 0.9238793980287391
  outer loop
    vertex 112.1314222507458 44.0999999536742 4.700962520324708
    vertex 112.49319383430293 39.099999999999994 4.551111674987793
    vertex 112.49319383430293 44.0999999536742 4.551111674987793
  endloop
endfacet
facet normal 0.38268375703451907 0.0 0.9238793980287391
  outer loop
    vertex 112.49319383430293 39.099999999999994 4.551111674987793
    vertex 112.1314222507458 44.0999999536742 4.700962520324708
    vertex 112.1314222507458 39.099999999999994 4.700962520324708
  endloop
endfacet
facet normal 0.6087606109578869 -1.1098766339105106e-18 0.7933539680030476
  outer loop
    vertex 111.82076188850216 44.0999999536742 4.939340091430664
    vertex 112.1314222507458 39.099999999999994 4.700962520324708
    vertex 112.1314222507458 44.0999999536742 4.700962520324708
  endloop
endfacet
facet normal 0.6087606109578869 -1.1098766339105106e-18 0.7933539680030476
  outer loop
    vertex 112.1314222507458 39.099999999999994 4.700962520324708
    vertex 111.82076188850216 44.0999999536742 4.939340091430664
    vertex 111.82076188850216 39.099999999999994 4.939340091430664
  endloop
endfacet
facet normal 0.7933539680030356 0.0 0.6087606109579025
  outer loop
    vertex 111.58238431739619 39.099999999999994 5.250000453674317
    vertex 111.82076188850216 44.0999999536742 4.939340091430664
    vertex 111.58238431739619 44.0999999536742 5.250000453674317
  endloop
endfacet
facet normal 0.7933539680030356 0.0 0.6087606109579025
  outer loop
    vertex 111.82076188850216 44.0999999536742 4.939340091430664
    vertex 111.58238431739619 39.099999999999994 5.250000453674317
    vertex 111.82076188850216 39.099999999999994 4.939340091430664
  endloop
endfacet
facet normal 0.9238793980287402 -1.2924775040867577e-18 0.382683757034516
  outer loop
    vertex 111.43253347205926 39.099999999999994 5.611772037231447
    vertex 111.58238431739619 44.0999999536742 5.250000453674317
    vertex 111.43253347205926 44.0999999536742 5.611772037231447
  endloop
endfacet
facet normal 0.9238793980287402 -1.2924775040867577e-18 0.382683757034516
  outer loop
    vertex 111.58238431739619 44.0999999536742 5.250000453674317
    vertex 111.43253347205926 39.099999999999994 5.611772037231447
    vertex 111.58238431739619 39.099999999999994 5.250000453674317
  endloop
endfacet
facet normal 0.991444867767186 0.0 0.1305261436575341
  outer loop
    vertex 111.38142225074579 39.099999999999994 6.000000453674317
    vertex 111.43253347205926 44.0999999536742 5.611772037231447
    vertex 111.38142225074579 44.0999999536742 6.000000453674317
  endloop
endfacet
facet normal 0.991444867767186 0.0 0.1305261436575341
  outer loop
    vertex 111.43253347205926 44.0999999536742 5.611772037231447
    vertex 111.38142225074579 39.099999999999994 6.000000453674317
    vertex 111.43253347205926 39.099999999999994 5.611772037231447
  endloop
endfacet
facet normal 0.991444867767186 3.652037370542158e-19 -0.1305261436575341
  outer loop
    vertex 111.43253347205926 39.099999999999994 6.388228870117188
    vertex 111.38142225074579 44.0999999536742 6.000000453674317
    vertex 111.43253347205926 44.0999999536742 6.388228870117188
  endloop
endfacet
facet normal 0.991444867767186 3.652037370542158e-19 -0.1305261436575341
  outer loop
    vertex 111.38142225074579 44.0999999536742 6.000000453674317
    vertex 111.43253347205926 39.099999999999994 6.388228870117188
    vertex 111.38142225074579 39.099999999999994 6.000000453674317
  endloop
endfacet
facet normal 0.9238793980287402 0.0 -0.382683757034516
  outer loop
    vertex 111.58238431739619 39.099999999999994 6.750000453674318
    vertex 111.43253347205926 44.0999999536742 6.388228870117188
    vertex 111.58238431739619 44.0999999536742 6.750000453674318
  endloop
endfacet
facet normal 0.9238793980287402 0.0 -0.382683757034516
  outer loop
    vertex 111.43253347205926 44.0999999536742 6.388228870117188
    vertex 111.58238431739619 39.099999999999994 6.750000453674318
    vertex 111.43253347205926 39.099999999999994 6.388228870117188
  endloop
endfacet
facet normal 0.7933539680030356 0.0 -0.6087606109579025
  outer loop
    vertex 111.82076188850216 39.099999999999994 7.06066081591797
    vertex 111.58238431739619 44.0999999536742 6.750000453674318
    vertex 111.82076188850216 44.0999999536742 7.06066081591797
  endloop
endfacet
facet normal 0.7933539680030356 0.0 -0.6087606109579025
  outer loop
    vertex 111.58238431739619 44.0999999536742 6.750000453674318
    vertex 111.82076188850216 39.099999999999994 7.06066081591797
    vertex 111.58238431739619 39.099999999999994 6.750000453674318
  endloop
endfacet
facet normal 0.6087606109578879 0.0 -0.7933539680030466
  outer loop
    vertex 111.82076188850216 39.099999999999994 7.06066081591797
    vertex 112.1314222507458 44.0999999536742 7.299038387023927
    vertex 112.1314222507458 39.099999999999994 7.299038387023927
  endloop
endfacet
facet normal 0.6087606109578879 0.0 -0.7933539680030466
  outer loop
    vertex 112.1314222507458 44.0999999536742 7.299038387023927
    vertex 111.82076188850216 39.099999999999994 7.06066081591797
    vertex 111.82076188850216 44.0999999536742 7.06066081591797
  endloop
endfacet
facet normal 0.3826837570345175 1.070724486783129e-18 -0.9238793980287396
  outer loop
    vertex 112.1314222507458 39.099999999999994 7.299038387023927
    vertex 112.49319383430293 44.0999999536742 7.448889232360841
    vertex 112.49319383430293 39.099999999999994 7.448889232360841
  endloop
endfacet
facet normal 0.3826837570345175 1.070724486783129e-18 -0.9238793980287396
  outer loop
    vertex 112.49319383430293 44.0999999536742 7.448889232360841
    vertex 112.1314222507458 39.099999999999994 7.299038387023927
    vertex 112.1314222507458 44.0999999536742 7.299038387023927
  endloop
endfacet
facet normal 0.13052614365753548 0.0 -0.9914448677671858
  outer loop
    vertex 112.49319383430293 39.099999999999994 7.448889232360841
    vertex 112.88142225074579 44.0999999536742 7.500000453674318
    vertex 112.88142225074579 39.099999999999994 7.500000453674318
  endloop
endfacet
facet normal 0.13052614365753548 0.0 -0.9914448677671858
  outer loop
    vertex 112.88142225074579 44.0999999536742 7.500000453674318
    vertex 112.49319383430293 39.099999999999994 7.448889232360841
    vertex 112.49319383430293 44.0999999536742 7.448889232360841
  endloop
endfacet
facet normal -0.130526143657528 1.328506475638315e-30 -0.9914448677671867
  outer loop
    vertex 112.88142225074579 39.099999999999994 7.500000453674318
    vertex 113.26965066718869 44.0999999536742 7.448889232360841
    vertex 113.26965066718869 39.099999999999994 7.448889232360841
  endloop
endfacet
facet normal -0.130526143657528 1.328506475638315e-30 -0.9914448677671867
  outer loop
    vertex 113.26965066718869 44.0999999536742 7.448889232360841
    vertex 112.88142225074579 39.099999999999994 7.500000453674318
    vertex 112.88142225074579 44.0999999536742 7.500000453674318
  endloop
endfacet
facet normal -0.3826837570345175 0.0 -0.9238793980287396
  outer loop
    vertex 113.26965066718869 39.099999999999994 7.448889232360841
    vertex 113.6314222507458 44.0999999536742 7.299038387023927
    vertex 113.6314222507458 39.099999999999994 7.299038387023927
  endloop
endfacet
facet normal -0.3826837570345175 0.0 -0.9238793980287396
  outer loop
    vertex 113.6314222507458 44.0999999536742 7.299038387023927
    vertex 113.26965066718869 39.099999999999994 7.448889232360841
    vertex 113.26965066718869 44.0999999536742 7.448889232360841
  endloop
endfacet
facet normal -0.6087609050172008 -5.053640174072107e-31 -0.7933537423637949
  outer loop
    vertex 113.6314222507458 39.099999999999994 7.299038387023927
    vertex 113.94208237457086 44.0999999536742 7.06066081591797
    vertex 113.94208237457086 39.099999999999994 7.06066081591797
  endloop
endfacet
facet normal -0.6087609050172008 -5.053640174072107e-31 -0.7933537423637949
  outer loop
    vertex 113.94208237457086 44.0999999536742 7.06066081591797
    vertex 113.6314222507458 39.099999999999994 7.299038387023927
    vertex 113.6314222507458 44.0999999536742 7.299038387023927
  endloop
endfacet
facet normal -0.7933533798846758 0.0 -0.6087613774095407
  outer loop
    vertex 114.18046042251399 39.099999999999994 6.750000453674318
    vertex 113.94208237457086 44.0999999536742 7.06066081591797
    vertex 114.18046042251399 44.0999999536742 6.750000453674318
  endloop
endfacet
facet normal -0.7933533798846758 0.0 -0.6087613774095407
  outer loop
    vertex 113.94208237457086 44.0999999536742 7.06066081591797
    vertex 114.18046042251399 39.099999999999994 6.750000453674318
    vertex 113.94208237457086 39.099999999999994 7.06066081591797
  endloop
endfacet
facet normal -0.923879613295039 0.0 -0.3826832373358013
  outer loop
    vertex 114.33031102943234 39.099999999999994 6.388228870117188
    vertex 114.18046042251399 44.0999999536742 6.750000453674318
    vertex 114.33031102943234 44.0999999536742 6.388228870117188
  endloop
endfacet
facet normal -0.923879613295039 0.0 -0.3826832373358013
  outer loop
    vertex 114.18046042251399 44.0999999536742 6.750000453674318
    vertex 114.33031102943234 39.099999999999994 6.388228870117188
    vertex 114.18046042251399 39.099999999999994 6.750000453674318
  endloop
endfacet
facet normal -0.991444867767186 0.0 -0.1305261436575341
  outer loop
    vertex 114.38142225074581 39.099999999999994 6.000000453674317
    vertex 114.33031102943234 44.0999999536742 6.388228870117188
    vertex 114.38142225074581 44.0999999536742 6.000000453674317
  endloop
endfacet
facet normal -0.991444867767186 0.0 -0.1305261436575341
  outer loop
    vertex 114.33031102943234 44.0999999536742 6.388228870117188
    vertex 114.38142225074581 39.099999999999994 6.000000453674317
    vertex 114.33031102943234 39.099999999999994 6.388228870117188
  endloop
endfacet
facet normal -1.0 0.0 0.0
  outer loop
    vertex 102.88142225074581 11.074699728243887 9.999999974752427e-07
    vertex 102.88142225074581 42.099999999999994 12.000000453674318
    vertex 102.88142225074581 42.099999999999994 4.999999987376214e-07
  endloop
endfacet
facet normal -1.0 0.0 0.0
  outer loop
    vertex 102.88142225074581 42.099999999999994 12.000000453674318
    vertex 102.88142225074581 11.074699728243887 9.999999974752427e-07
    vertex 102.88142225074581 11.074699728243887 12.000000953674316
  endloop
endfacet
facet normal -0.7071067249907518 0.7071068373823388 9.608623258897321e-18
  outer loop
    vertex 96.88142129707148 5.074699728243888 15.000000953674316
    vertex 102.88142225074581 11.074699728243887 9.999999974752427e-07
    vertex 96.88142129707148 5.074699728243888 9.999999974752427e-07
  endloop
endfacet
facet normal -0.7071067249907518 0.7071068373823388 9.608623258897321e-18
  outer loop
    vertex 102.88142225074581 11.074699728243887 9.999999974752427e-07
    vertex 96.88142129707148 5.074699728243888 15.000000953674316
    vertex 102.88142225074581 11.074699728243887 12.000000953674316
  endloop
endfacet
facet normal -1.0 1.3877787807814457e-17 0.0
  outer loop
    vertex 96.88142129707148 0.07469972824389134 9.999999974752427e-07
    vertex 96.88142129707148 5.074699728243888 15.000000953674316
    vertex 96.88142129707148 5.074699728243888 9.999999974752427e-07
  endloop
endfacet
facet normal -1.0 1.3877787807814457e-17 0.0
  outer loop
    vertex 96.88142129707148 5.074699728243888 15.000000953674316
    vertex 96.88142129707148 0.07469972824389134 9.999999974752427e-07
    vertex 96.88142129707148 5.074699728243888 22.00000190734863
  endloop
endfacet
facet normal -1.0 1.3877787807814457e-17 0.0
  outer loop
    vertex 96.88142129707148 5.074699728243888 22.00000190734863
    vertex 96.88142129707148 0.07469972824389134 9.999999974752427e-07
    vertex 96.88142129707148 0.07469972824389134 22.00000190734863
  endloop
endfacet
facet normal -1.3877787807814457e-17 -1.0 0.0
  outer loop
    vertex 107.8814222507458 0.07469972824389134 22.00000190734863
    vertex 96.88142129707148 0.07469972824389134 9.999999974752427e-07
    vertex 107.8814222507458 0.07469972824389134 9.999999974752427e-07
  endloop
endfacet
facet normal -1.3877787807814457e-17 -1.0 0.0
  outer loop
    vertex 96.88142129707148 0.07469972824389134 9.999999974752427e-07
    vertex 107.8814222507458 0.07469972824389134 22.00000190734863
    vertex 103.44208261298947 0.07469972824389134 17.43934059143066
  endloop
endfacet
facet normal -1.3877787807814457e-17 -1.0 0.0
  outer loop
    vertex 96.88142129707148 0.07469972824389134 9.999999974752427e-07
    vertex 103.44208261298947 0.07469972824389134 17.43934059143066
    vertex 103.1314222507458 0.07469972824389134 17.20096206665039
  endloop
endfacet
facet normal -1.3877787807814457e-17 -1.0 0.0
  outer loop
    vertex 96.88142129707148 0.07469972824389134 9.999999974752427e-07
    vertex 103.1314222507458 0.07469972824389134 17.20096206665039
    vertex 102.76965066718867 0.07469972824389134 17.05111312866211
  endloop
endfacet
facet normal -1.3877787807814457e-17 -1.0 0.0
  outer loop
    vertex 96.88142129707148 0.07469972824389134 9.999999974752427e-07
    vertex 102.76965066718867 0.07469972824389134 17.05111312866211
    vertex 102.38142225074579 0.07469972824389134 17.000001907348633
  endloop
endfacet
facet normal -1.3877787807814457e-17 -1.0 0.0
  outer loop
    vertex 103.44208261298947 0.07469972824389134 17.43934059143066
    vertex 107.8814222507458 0.07469972824389134 22.00000190734863
    vertex 103.68046018409541 0.07469972824389134 17.750001907348633
  endloop
endfacet
facet normal -1.3877787807814457e-17 -1.0 0.0
  outer loop
    vertex 103.68046018409541 0.07469972824389134 17.750001907348633
    vertex 107.8814222507458 0.07469972824389134 22.00000190734863
    vertex 103.83031102943232 0.07469972824389134 18.11177253723144
  endloop
endfacet
facet normal -1.3877787807814457e-17 -1.0 0.0
  outer loop
    vertex 103.83031102943232 0.07469972824389134 18.11177253723144
    vertex 107.8814222507458 0.07469972824389134 22.00000190734863
    vertex 103.8814222507458 0.07469972824389134 18.500001907348633
  endloop
endfacet
facet normal -1.3877787807814457e-17 -1.0 0.0
  outer loop
    vertex 103.8814222507458 0.07469972824389134 18.500001907348633
    vertex 107.8814222507458 0.07469972824389134 22.00000190734863
    vertex 103.83031102943232 0.07469972824389134 18.888229370117184
  endloop
endfacet
facet normal -1.3877787807814457e-17 -1.0 0.0
  outer loop
    vertex 103.83031102943232 0.07469972824389134 18.888229370117184
    vertex 107.8814222507458 0.07469972824389134 22.00000190734863
    vertex 103.68046018409541 0.07469972824389134 19.250001907348633
  endloop
endfacet
facet normal -1.3877787807814457e-17 -1.0 0.0
  outer loop
    vertex 103.68046018409541 0.07469972824389134 19.250001907348633
    vertex 107.8814222507458 0.07469972824389134 22.00000190734863
    vertex 103.44208261298947 0.07469972824389134 19.560661315917965
  endloop
endfacet
facet normal -1.3877787807814457e-17 -1.0 0.0
  outer loop
    vertex 103.44208261298947 0.07469972824389134 19.560661315917965
    vertex 107.8814222507458 0.07469972824389134 22.00000190734863
    vertex 103.1314222507458 0.07469972824389134 19.799039840698242
  endloop
endfacet
facet normal -1.3877787807814457e-17 -1.0 0.0
  outer loop
    vertex 103.1314222507458 0.07469972824389134 19.799039840698242
    vertex 107.8814222507458 0.07469972824389134 22.00000190734863
    vertex 102.76965066718867 0.07469972824389134 19.948890686035156
  endloop
endfacet
facet normal -1.3877787807814457e-17 -1.0 0.0
  outer loop
    vertex 102.76965066718867 0.07469972824389134 19.948890686035156
    vertex 107.8814222507458 0.07469972824389134 22.00000190734863
    vertex 102.38142225074579 0.07469972824389134 20.000001907348633
  endloop
endfacet
facet normal -1.3877787807814457e-17 -1.0 0.0
  outer loop
    vertex 96.88142129707148 0.07469972824389134 9.999999974752427e-07
    vertex 101.32076188850216 0.07469972824389134 17.43934059143066
    vertex 96.88142129707148 0.07469972824389134 22.00000190734863
  endloop
endfacet
facet normal -1.3877787807814457e-17 -1.0 0.0
  outer loop
    vertex 101.32076188850216 0.07469972824389134 17.43934059143066
    vertex 96.88142129707148 0.07469972824389134 9.999999974752427e-07
    vertex 101.63142129707148 0.07469972824389134 17.20096206665039
  endloop
endfacet
facet normal -1.3877787807814457e-17 -1.0 0.0
  outer loop
    vertex 101.63142129707148 0.07469972824389134 17.20096206665039
    vertex 96.88142129707148 0.07469972824389134 9.999999974752427e-07
    vertex 101.99319383430291 0.07469972824389134 17.05111312866211
  endloop
endfacet
facet normal -1.3877787807814457e-17 -1.0 0.0
  outer loop
    vertex 101.99319383430291 0.07469972824389134 17.05111312866211
    vertex 96.88142129707148 0.07469972824389134 9.999999974752427e-07
    vertex 102.38142225074579 0.07469972824389134 17.000001907348633
  endloop
endfacet
facet normal -1.3877787807814457e-17 -1.0 0.0
  outer loop
    vertex 96.88142129707148 0.07469972824389134 22.00000190734863
    vertex 101.32076188850216 0.07469972824389134 17.43934059143066
    vertex 101.08238336372187 0.07469972824389134 17.750001907348633
  endloop
endfacet
facet normal -1.3877787807814457e-17 -1.0 0.0
  outer loop
    vertex 96.88142129707148 0.07469972824389134 22.00000190734863
    vertex 101.08238336372187 0.07469972824389134 17.750001907348633
    vertex 100.93253251838496 0.07469972824389134 18.11177253723144
  endloop
endfacet
facet normal -1.3877787807814457e-17 -1.0 0.0
  outer loop
    vertex 96.88142129707148 0.07469972824389134 22.00000190734863
    vertex 100.93253251838496 0.07469972824389134 18.11177253723144
    vertex 100.88142129707148 0.07469972824389134 18.500001907348633
  endloop
endfacet
facet normal -1.3877787807814457e-17 -1.0 0.0
  outer loop
    vertex 96.88142129707148 0.07469972824389134 22.00000190734863
    vertex 100.88142129707148 0.07469972824389134 18.500001907348633
    vertex 100.93253251838496 0.07469972824389134 18.888229370117184
  endloop
endfacet
facet normal -1.3877787807814457e-17 -1.0 0.0
  outer loop
    vertex 96.88142129707148 0.07469972824389134 22.00000190734863
    vertex 100.93253251838496 0.07469972824389134 18.888229370117184
    vertex 101.08238336372187 0.07469972824389134 19.250001907348633
  endloop
endfacet
facet normal -1.3877787807814457e-17 -1.0 0.0
  outer loop
    vertex 96.88142129707148 0.07469972824389134 22.00000190734863
    vertex 101.08238336372187 0.07469972824389134 19.250001907348633
    vertex 101.32076188850216 0.07469972824389134 19.560661315917965
  endloop
endfacet
facet normal -1.3877787807814457e-17 -1.0 0.0
  outer loop
    vertex 96.88142129707148 0.07469972824389134 22.00000190734863
    vertex 101.32076188850216 0.07469972824389134 19.560661315917965
    vertex 101.63142129707148 0.07469972824389134 19.799039840698242
  endloop
endfacet
facet normal -1.3877787807814457e-17 -1.0 0.0
  outer loop
    vertex 96.88142129707148 0.07469972824389134 22.00000190734863
    vertex 101.63142129707148 0.07469972824389134 19.799039840698242
    vertex 101.99319383430291 0.07469972824389134 19.948890686035156
  endloop
endfacet
facet normal -1.3877787807814457e-17 -1.0 0.0
  outer loop
    vertex 96.88142129707148 0.07469972824389134 22.00000190734863
    vertex 101.99319383430291 0.07469972824389134 19.948890686035156
    vertex 102.38142225074579 0.07469972824389134 20.000001907348633
  endloop
endfacet
facet normal -1.3877787807814457e-17 -1.0 0.0
  outer loop
    vertex 96.88142129707148 0.07469972824389134 22.00000190734863
    vertex 102.38142225074579 0.07469972824389134 20.000001907348633
    vertex 107.8814222507458 0.07469972824389134 22.00000190734863
  endloop
endfacet
facet normal 1.0 0.0 0.0
  outer loop
    vertex 107.8814222507458 0.07469972824389134 22.00000190734863
    vertex 107.8814222507458 5.074699728243888 15.000000953674316
    vertex 107.8814222507458 5.074699728243888 22.00000190734863
  endloop
endfacet
facet normal 1.0 0.0 0.0
  outer loop
    vertex 107.8814222507458 11.074699728243887 12.000000953674316
    vertex 107.8814222507458 39.099999999999994 4.999999987376214e-07
    vertex 107.8814222507458 39.099999999999994 12.000000453674318
  endloop
endfacet
facet normal 1.0 0.0 0.0
  outer loop
    vertex 107.8814222507458 39.099999999999994 4.999999987376214e-07
    vertex 107.8814222507458 11.074699728243887 12.000000953674316
    vertex 107.8814222507458 0.07469972824389134 9.999999974752427e-07
  endloop
endfacet
facet normal 1.0 0.0 0.0
  outer loop
    vertex 107.8814222507458 0.07469972824389134 9.999999974752427e-07
    vertex 107.8814222507458 11.074699728243887 12.000000953674316
    vertex 107.8814222507458 5.074699728243888 15.000000953674316
  endloop
endfacet
facet normal 1.0 0.0 0.0
  outer loop
    vertex 107.8814222507458 0.07469972824389134 9.999999974752427e-07
    vertex 107.8814222507458 5.074699728243888 15.000000953674316
    vertex 107.8814222507458 0.07469972824389134 22.00000190734863
  endloop
endfacet
facet normal 0.0 -1.0 0.0
  outer loop
    vertex 117.88142220442012 39.099999999999994 4.999999987376214e-07
    vertex 113.94208237457086 39.099999999999994 4.939340091430664
    vertex 107.8814222507458 39.099999999999994 4.999999987376214e-07
  endloop
endfacet
facet normal 0.0 -1.0 0.0
  outer loop
    vertex 113.94208237457086 39.099999999999994 4.939340091430664
    vertex 117.88142220442012 39.099999999999994 4.999999987376214e-07
    vertex 114.18046042251399 39.099999999999994 5.250000453674317
  endloop
endfacet
facet normal 0.0 -1.0 0.0
  outer loop
    vertex 114.18046042251399 39.099999999999994 5.250000453674317
    vertex 117.88142220442012 39.099999999999994 4.999999987376214e-07
    vertex 117.88142220442012 39.099999999999994 12.000000453674318
  endloop
endfacet
facet normal 0.0 -1.0 0.0
  outer loop
    vertex 107.8814222507458 39.099999999999994 4.999999987376214e-07
    vertex 113.94208237457086 39.099999999999994 4.939340091430664
    vertex 113.6314222507458 39.099999999999994 4.700962520324708
  endloop
endfacet
facet normal 0.0 -1.0 0.0
  outer loop
    vertex 107.8814222507458 39.099999999999994 4.999999987376214e-07
    vertex 113.6314222507458 39.099999999999994 4.700962520324708
    vertex 113.26965066718869 39.099999999999994 4.551111674987793
  endloop
endfacet
facet normal 0.0 -1.0 0.0
  outer loop
    vertex 107.8814222507458 39.099999999999994 4.999999987376214e-07
    vertex 113.26965066718869 39.099999999999994 4.551111674987793
    vertex 112.88142225074579 39.099999999999994 4.500000453674317
  endloop
endfacet
facet normal 0.0 -1.0 0.0
  outer loop
    vertex 114.18046042251399 39.099999999999994 5.250000453674317
    vertex 117.88142220442012 39.099999999999994 12.000000453674318
    vertex 114.33031102943234 39.099999999999994 5.611772037231447
  endloop
endfacet
facet normal 0.0 -1.0 0.0
  outer loop
    vertex 114.33031102943234 39.099999999999994 5.611772037231447
    vertex 117.88142220442012 39.099999999999994 12.000000453674318
    vertex 114.38142225074581 39.099999999999994 6.000000453674317
  endloop
endfacet
facet normal 0.0 -1.0 0.0
  outer loop
    vertex 114.38142225074581 39.099999999999994 6.000000453674317
    vertex 117.88142220442012 39.099999999999994 12.000000453674318
    vertex 114.33031102943234 39.099999999999994 6.388228870117188
  endloop
endfacet
facet normal 0.0 -1.0 0.0
  outer loop
    vertex 114.33031102943234 39.099999999999994 6.388228870117188
    vertex 117.88142220442012 39.099999999999994 12.000000453674318
    vertex 114.18046042251399 39.099999999999994 6.750000453674318
  endloop
endfacet
facet normal 0.0 -1.0 0.0
  outer loop
    vertex 114.18046042251399 39.099999999999994 6.750000453674318
    vertex 117.88142220442012 39.099999999999994 12.000000453674318
    vertex 113.94208237457086 39.099999999999994 7.06066081591797
  endloop
endfacet
facet normal 0.0 -1.0 0.0
  outer loop
    vertex 113.94208237457086 39.099999999999994 7.06066081591797
    vertex 117.88142220442012 39.099999999999994 12.000000453674318
    vertex 113.6314222507458 39.099999999999994 7.299038387023927
  endloop
endfacet
facet normal 0.0 -1.0 0.0
  outer loop
    vertex 113.6314222507458 39.099999999999994 7.299038387023927
    vertex 117.88142220442012 39.099999999999994 12.000000453674318
    vertex 113.26965066718869 39.099999999999994 7.448889232360841
  endloop
endfacet
facet normal 0.0 -1.0 0.0
  outer loop
    vertex 113.26965066718869 39.099999999999994 7.448889232360841
    vertex 117.88142220442012 39.099999999999994 12.000000453674318
    vertex 112.88142225074579 39.099999999999994 7.500000453674318
  endloop
endfacet
facet normal 0.0 -1.0 0.0
  outer loop
    vertex 107.8814222507458 39.099999999999994 4.999999987376214e-07
    vertex 111.58238431739619 39.099999999999994 5.250000453674317
    vertex 107.8814222507458 39.099999999999994 12.000000453674318
  endloop
endfacet
facet normal 0.0 -1.0 0.0
  outer loop
    vertex 111.58238431739619 39.099999999999994 5.250000453674317
    vertex 107.8814222507458 39.099999999999994 4.999999987376214e-07
    vertex 111.82076188850216 39.099999999999994 4.939340091430664
  endloop
endfacet
facet normal 0.0 -1.0 0.0
  outer loop
    vertex 111.82076188850216 39.099999999999994 4.939340091430664
    vertex 107.8814222507458 39.099999999999994 4.999999987376214e-07
    vertex 112.1314222507458 39.099999999999994 4.700962520324708
  endloop
endfacet
facet normal 0.0 -1.0 0.0
  outer loop
    vertex 112.1314222507458 39.099999999999994 4.700962520324708
    vertex 107.8814222507458 39.099999999999994 4.999999987376214e-07
    vertex 112.49319383430293 39.099999999999994 4.551111674987793
  endloop
endfacet
facet normal 0.0 -1.0 0.0
  outer loop
    vertex 112.49319383430293 39.099999999999994 4.551111674987793
    vertex 107.8814222507458 39.099999999999994 4.999999987376214e-07
    vertex 112.88142225074579 39.099999999999994 4.500000453674317
  endloop
endfacet
facet normal 0.0 -1.0 0.0
  outer loop
    vertex 107.8814222507458 39.099999999999994 12.000000453674318
    vertex 111.58238431739619 39.099999999999994 5.250000453674317
    vertex 111.43253347205926 39.099999999999994 5.611772037231447
  endloop
endfacet
facet normal 0.0 -1.0 0.0
  outer loop
    vertex 107.8814222507458 39.099999999999994 12.000000453674318
    vertex 111.43253347205926 39.099999999999994 5.611772037231447
    vertex 111.38142225074579 39.099999999999994 6.000000453674317
  endloop
endfacet
facet normal 0.0 -1.0 0.0
  outer loop
    vertex 107.8814222507458 39.099999999999994 12.000000453674318
    vertex 111.38142225074579 39.099999999999994 6.000000453674317
    vertex 111.43253347205926 39.099999999999994 6.388228870117188
  endloop
endfacet
facet normal 0.0 -1.0 0.0
  outer loop
    vertex 107.8814222507458 39.099999999999994 12.000000453674318
    vertex 111.43253347205926 39.099999999999994 6.388228870117188
    vertex 111.58238431739619 39.099999999999994 6.750000453674318
  endloop
endfacet
facet normal 0.0 -1.0 0.0
  outer loop
    vertex 107.8814222507458 39.099999999999994 12.000000453674318
    vertex 111.58238431739619 39.099999999999994 6.750000453674318
    vertex 111.82076188850216 39.099999999999994 7.06066081591797
  endloop
endfacet
facet normal 0.0 -1.0 0.0
  outer loop
    vertex 107.8814222507458 39.099999999999994 12.000000453674318
    vertex 111.82076188850216 39.099999999999994 7.06066081591797
    vertex 112.1314222507458 39.099999999999994 7.299038387023927
  endloop
endfacet
facet normal 0.0 -1.0 0.0
  outer loop
    vertex 107.8814222507458 39.099999999999994 12.000000453674318
    vertex 112.1314222507458 39.099999999999994 7.299038387023927
    vertex 112.49319383430293 39.099999999999994 7.448889232360841
  endloop
endfacet
facet normal 0.0 -1.0 0.0
  outer loop
    vertex 107.8814222507458 39.099999999999994 12.000000453674318
    vertex 112.49319383430293 39.099999999999994 7.448889232360841
    vertex 112.88142225074579 39.099999999999994 7.500000453674318
  endloop
endfacet
facet normal 0.0 -1.0 0.0
  outer loop
    vertex 107.8814222507458 39.099999999999994 12.000000453674318
    vertex 112.88142225074579 39.099999999999994 7.500000453674318
    vertex 117.88142220442012 39.099999999999994 12.000000453674318
  endloop
endfacet
facet normal 1.0 0.0 0.0
  outer loop
    vertex 117.88142220442012 39.099999999999994 12.000000453674318
    vertex 117.88142220442012 44.0999999536742 4.999999987376214e-07
    vertex 117.88142220442012 44.0999999536742 12.000000453674318
  endloop
endfacet
facet normal 1.0 0.0 0.0
  outer loop
    vertex 117.88142220442012 44.0999999536742 4.999999987376214e-07
    vertex 117.88142220442012 39.099999999999994 12.000000453674318
    vertex 117.88142220442012 39.099999999999994 4.999999987376214e-07
  endloop
endfacet
facet normal 8.676819977221194e-15 1.0 0.0
  outer loop
    vertex 104.8814222507458 44.09999995367431 4.999999987376214e-07
    vertex 111.82076188850216 44.0999999536742 4.939340091430664
    vertex 117.88142220442012 44.0999999536742 4.999999987376214e-07
  endloop
endfacet
facet normal 8.676819977221194e-15 1.0 0.0
  outer loop
    vertex 111.82076188850216 44.0999999536742 4.939340091430664
    vertex 104.8814222507458 44.09999995367431 4.999999987376214e-07
    vertex 104.8814222507458 44.09999995367431 12.000000453674318
  endloop
endfacet
facet normal 8.676819977221194e-15 1.0 0.0
  outer loop
    vertex 117.88142220442012 44.0999999536742 4.999999987376214e-07
    vertex 111.82076188850216 44.0999999536742 4.939340091430664
    vertex 112.1314222507458 44.0999999536742 4.700962520324708
  endloop
endfacet
facet normal 8.676819977221194e-15 1.0 0.0
  outer loop
    vertex 117.88142220442012 44.0999999536742 4.999999987376214e-07
    vertex 112.1314222507458 44.0999999536742 4.700962520324708
    vertex 112.49319383430293 44.0999999536742 4.551111674987793
  endloop
endfacet
facet normal 8.676819977221194e-15 1.0 0.0
  outer loop
    vertex 117.88142220442012 44.0999999536742 4.999999987376214e-07
    vertex 112.49319383430293 44.0999999536742 4.551111674987793
    vertex 112.88142225074579 44.0999999536742 4.500000453674317
  endloop
endfacet
facet normal 8.676819977221194e-15 1.0 0.0
  outer loop
    vertex 111.82076188850216 44.0999999536742 4.939340091430664
    vertex 104.8814222507458 44.09999995367431 12.000000453674318
    vertex 111.58238431739619 44.0999999536742 5.250000453674317
  endloop
endfacet
facet normal 8.676819977221194e-15 1.0 0.0
  outer loop
    vertex 111.58238431739619 44.0999999536742 5.250000453674317
    vertex 104.8814222507458 44.09999995367431 12.000000453674318
    vertex 111.43253347205926 44.0999999536742 5.611772037231447
  endloop
endfacet
facet normal 8.676819977221194e-15 1.0 0.0
  outer loop
    vertex 111.43253347205926 44.0999999536742 5.611772037231447
    vertex 104.8814222507458 44.09999995367431 12.000000453674318
    vertex 111.38142225074579 44.0999999536742 6.000000453674317
  endloop
endfacet
facet normal 8.676819977221194e-15 1.0 0.0
  outer loop
    vertex 111.38142225074579 44.0999999536742 6.000000453674317
    vertex 104.8814222507458 44.09999995367431 12.000000453674318
    vertex 111.43253347205926 44.0999999536742 6.388228870117188
  endloop
endfacet
facet normal 8.676819977221194e-15 1.0 0.0
  outer loop
    vertex 111.43253347205926 44.0999999536742 6.388228870117188
    vertex 104.8814222507458 44.09999995367431 12.000000453674318
    vertex 111.58238431739619 44.0999999536742 6.750000453674318
  endloop
endfacet
facet normal 8.676819977221194e-15 1.0 0.0
  outer loop
    vertex 111.58238431739619 44.0999999536742 6.750000453674318
    vertex 104.8814222507458 44.09999995367431 12.000000453674318
    vertex 111.82076188850216 44.0999999536742 7.06066081591797
  endloop
endfacet
facet normal 8.676819977221194e-15 1.0 0.0
  outer loop
    vertex 111.82076188850216 44.0999999536742 7.06066081591797
    vertex 104.8814222507458 44.09999995367431 12.000000453674318
    vertex 112.1314222507458 44.0999999536742 7.299038387023927
  endloop
endfacet
facet normal 8.676819977221194e-15 1.0 0.0
  outer loop
    vertex 112.1314222507458 44.0999999536742 7.299038387023927
    vertex 104.8814222507458 44.09999995367431 12.000000453674318
    vertex 112.49319383430293 44.0999999536742 7.448889232360841
  endloop
endfacet
facet normal 8.676819977221194e-15 1.0 0.0
  outer loop
    vertex 112.49319383430293 44.0999999536742 7.448889232360841
    vertex 104.8814222507458 44.09999995367431 12.000000453674318
    vertex 112.88142225074579 44.0999999536742 7.500000453674318
  endloop
endfacet
facet normal 8.676819977221194e-15 1.0 0.0
  outer loop
    vertex 117.88142220442012 44.0999999536742 4.999999987376214e-07
    vertex 114.18046042251399 44.0999999536742 5.250000453674317
    vertex 117.88142220442012 44.0999999536742 12.000000453674318
  endloop
endfacet
facet normal 8.676819977221194e-15 1.0 0.0
  outer loop
    vertex 114.18046042251399 44.0999999536742 5.250000453674317
    vertex 117.88142220442012 44.0999999536742 4.999999987376214e-07
    vertex 113.94208237457086 44.0999999536742 4.939340091430664
  endloop
endfacet
facet normal 8.676819977221194e-15 1.0 0.0
  outer loop
    vertex 113.94208237457086 44.0999999536742 4.939340091430664
    vertex 117.88142220442012 44.0999999536742 4.999999987376214e-07
    vertex 113.6314222507458 44.0999999536742 4.700962520324708
  endloop
endfacet
facet normal 8.676819977221194e-15 1.0 0.0
  outer loop
    vertex 113.6314222507458 44.0999999536742 4.700962520324708
    vertex 117.88142220442012 44.0999999536742 4.999999987376214e-07
    vertex 113.26965066718869 44.0999999536742 4.551111674987793
  endloop
endfacet
facet normal 8.676819977221194e-15 1.0 0.0
  outer loop
    vertex 113.26965066718869 44.0999999536742 4.551111674987793
    vertex 117.88142220442012 44.0999999536742 4.999999987376214e-07
    vertex 112.88142225074579 44.0999999536742 4.500000453674317
  endloop
endfacet
facet normal 8.676819977221194e-15 1.0 0.0
  outer loop
    vertex 117.88142220442012 44.0999999536742 12.000000453674318
    vertex 114.18046042251399 44.0999999536742 5.250000453674317
    vertex 114.33031102943234 44.0999999536742 5.611772037231447
  endloop
endfacet
facet normal 8.676819977221194e-15 1.0 0.0
  outer loop
    vertex 117.88142220442012 44.0999999536742 12.000000453674318
    vertex 114.33031102943234 44.0999999536742 5.611772037231447
    vertex 114.38142225074581 44.0999999536742 6.000000453674317
  endloop
endfacet
facet normal 8.676819977221194e-15 1.0 0.0
  outer loop
    vertex 117.88142220442012 44.0999999536742 12.000000453674318
    vertex 114.38142225074581 44.0999999536742 6.000000453674317
    vertex 114.33031102943234 44.0999999536742 6.388228870117188
  endloop
endfacet
facet normal 8.676819977221194e-15 1.0 0.0
  outer loop
    vertex 117.88142220442012 44.0999999536742 12.000000453674318
    vertex 114.33031102943234 44.0999999536742 6.388228870117188
    vertex 114.18046042251399 44.0999999536742 6.750000453674318
  endloop
endfacet
facet normal 8.676819977221194e-15 1.0 0.0
  outer loop
    vertex 117.88142220442012 44.0999999536742 12.000000453674318
    vertex 114.18046042251399 44.0999999536742 6.750000453674318
    vertex 113.94208237457086 44.0999999536742 7.06066081591797
  endloop
endfacet
facet normal 8.676819977221194e-15 1.0 0.0
  outer loop
    vertex 117.88142220442012 44.0999999536742 12.000000453674318
    vertex 113.94208237457086 44.0999999536742 7.06066081591797
    vertex 113.6314222507458 44.0999999536742 7.299038387023927
  endloop
endfacet
facet normal 8.676819977221194e-15 1.0 0.0
  outer loop
    vertex 117.88142220442012 44.0999999536742 12.000000453674318
    vertex 113.6314222507458 44.0999999536742 7.299038387023927
    vertex 113.26965066718869 44.0999999536742 7.448889232360841
  endloop
endfacet
facet normal 8.676819977221194e-15 1.0 0.0
  outer loop
    vertex 117.88142220442012 44.0999999536742 12.000000453674318
    vertex 113.26965066718869 44.0999999536742 7.448889232360841
    vertex 112.88142225074579 44.0999999536742 7.500000453674318
  endloop
endfacet
facet normal 8.676819977221194e-15 1.0 0.0
  outer loop
    vertex 117.88142220442012 44.0999999536742 12.000000453674318
    vertex 112.88142225074579 44.0999999536742 7.500000453674318
    vertex 104.8814222507458 44.09999995367431 12.000000453674318
  endloop
endfacet
facet normal -0.7071067729972466 0.7071067893758486 -5.49566444334296e-18
  outer loop
    vertex 102.88142225074581 42.099999999999994 12.000000453674318
    vertex 104.8814222507458 44.09999995367431 4.999999987376214e-07
    vertex 102.88142225074581 42.099999999999994 4.999999987376214e-07
  endloop
endfacet
facet normal -0.7071067729972466 0.7071067893758486 -5.49566444334296e-18
  outer loop
    vertex 104.8814222507458 44.09999995367431 4.999999987376214e-07
    vertex 102.88142225074581 42.099999999999994 12.000000453674318
    vertex 104.8814222507458 44.09999995367431 12.000000453674318
  endloop
endfacet
facet normal -1.6697404977066846e-09 -1.246511655235647e-08 -1.0
  outer loop
    vertex 107.8814222507458 39.099999999999994 4.999999987376214e-07
    vertex 117.88142220442012 44.0999999536742 4.999999987376214e-07
    vertex 117.88142220442012 39.099999999999994 4.999999987376214e-07
  endloop
endfacet
facet normal -1.6697404977066846e-09 -1.246511655235647e-08 -1.0
  outer loop
    vertex 117.88142220442012 44.0999999536742 4.999999987376214e-07
    vertex 107.8814222507458 39.099999999999994 4.999999987376214e-07
    vertex 104.8814222507458 44.09999995367431 4.999999987376214e-07
  endloop
endfacet
facet normal -1.6697404977066846e-09 -1.246511655235647e-08 -1.0
  outer loop
    vertex 107.8814222507458 0.07469972824389134 9.999999974752427e-07
    vertex 102.88142225074581 11.074699728243887 9.999999974752427e-07
    vertex 107.8814222507458 39.099999999999994 4.999999987376214e-07
  endloop
endfacet
facet normal -1.6697404977066846e-09 -1.246511655235647e-08 -1.0
  outer loop
    vertex 102.88142225074581 11.074699728243887 9.999999974752427e-07
    vertex 107.8814222507458 0.07469972824389134 9.999999974752427e-07
    vertex 96.88142129707148 0.07469972824389134 9.999999974752427e-07
  endloop
endfacet
facet normal -1.6697404977066846e-09 -1.246511655235647e-08 -1.0
  outer loop
    vertex 107.8814222507458 39.099999999999994 4.999999987376214e-07
    vertex 102.88142225074581 11.074699728243887 9.999999974752427e-07
    vertex 104.8814222507458 44.09999995367431 4.999999987376214e-07
  endloop
endfacet
facet normal -1.6697404977066846e-09 -1.246511655235647e-08 -1.0
  outer loop
    vertex 102.88142225074581 11.074699728243887 9.999999974752427e-07
    vertex 96.88142129707148 0.07469972824389134 9.999999974752427e-07
    vertex 96.88142129707148 5.074699728243888 9.999999974752427e-07
  endloop
endfacet
facet normal -1.6697404977066846e-09 -1.246511655235647e-08 -1.0
  outer loop
    vertex 102.88142225074581 42.099999999999994 4.999999987376214e-07
    vertex 104.8814222507458 44.09999995367431 4.999999987376214e-07
    vertex 102.88142225074581 11.074699728243887 9.999999974752427e-07
  endloop
endfacet
facet normal 1.1007070026910724e-09 1.5861146760022847e-08 1.0
  outer loop
    vertex 104.8814222507458 44.09999995367431 12.000000453674318
    vertex 117.88142220442012 39.099999999999994 12.000000453674318
    vertex 117.88142220442012 44.0999999536742 12.000000453674318
  endloop
endfacet
facet normal 1.1007070026910724e-09 1.5861146760022847e-08 1.0
  outer loop
    vertex 117.88142220442012 39.099999999999994 12.000000453674318
    vertex 104.8814222507458 44.09999995367431 12.000000453674318
    vertex 107.8814222507458 39.099999999999994 12.000000453674318
  endloop
endfacet
facet normal 1.1007070026910724e-09 1.5861146760022847e-08 1.0
  outer loop
    vertex 107.8814222507458 39.099999999999994 12.000000453674318
    vertex 104.8814222507458 44.09999995367431 12.000000453674318
    vertex 107.8814222507458 11.074699728243887 12.000000953674316
  endloop
endfacet
facet normal 1.1007070026910724e-09 1.5861146760022847e-08 1.0
  outer loop
    vertex 107.8814222507458 11.074699728243887 12.000000953674316
    vertex 104.8814222507458 44.09999995367431 12.000000453674318
    vertex 102.88142225074581 11.074699728243887 12.000000953674316
  endloop
endfacet
facet normal 1.1007070026910724e-09 1.5861146760022847e-08 1.0
  outer loop
    vertex 102.88142225074581 11.074699728243887 12.000000953674316
    vertex 104.8814222507458 44.09999995367431 12.000000453674318
    vertex 102.88142225074581 42.099999999999994 12.000000453674318
  endloop
endfacet
endsolid motor_mount
