solid motor_mount
facet normal -0.13052614365753357 1.8114141250515576e-18 0.991444867767186
  outer loop
    vertex 37.38142225074581 66.07469972824389 17.000001907348633
    vertex 37.769650667188685 61.07469972824389 17.05111312866211
    vertex 37.769650667188685 66.07469972824389 17.05111312866211
  endloop
endfacet
facet normal -0.13052614365753357 1.8114141250515576e-18 0.991444867767186
  outer loop
    vertex 37.769650667188685 61.07469972824389 17.05111312866211
    vertex 37.38142225074581 66.07469972824389 17.000001907348633
    vertex 37.38142225074581 61.07469972824389 17.000001907348633
  endloop
endfacet
facet normal -0.382679599434608 5.310746279332092e-18 0.923881120153761
  outer loop
    vertex 37.769650667188685 66.07469972824389 17.05111312866211
    vertex 38.13142225074581 61.07469972824389 17.20096206665039
    vertex 38.13142225074581 66.07469972824389 17.20096206665039
  endloop
endfacet
facet normal -0.382679599434608 5.310746279332092e-18 0.923881120153761
  outer loop
    vertex 38.13142225074581 61.07469972824389 17.20096206665039
    vertex 37.769650667188685 66.07469972824389 17.05111312866211
    vertex 37.769650667188685 61.07469972824389 17.05111312866211
  endloop
endfacet
facet normal -0.6087621438594554 8.448271857911235e-18 0.7933527917664623
  outer loop
    vertex 38.13142225074581 66.07469972824389 17.20096206665039
    vertex 38.44208261298946 61.07469972824389 17.43934059143066
    vertex 38.44208261298946 66.07469972824389 17.43934059143066
  endloop
endfacet
facet normal -0.6087621438594554 8.448271857911235e-18 0.7933527917664623
  outer loop
    vertex 38.44208261298946 61.07469972824389 17.43934059143066
    vertex 38.13142225074581 66.07469972824389 17.20096206665039
    vertex 38.13142225074581 61.07469972824389 17.20096206665039
  endloop
endfacet
facet normal -0.7933548705567954 1.101001054988343e-17 0.6087594347226256
  outer loop
    vertex 38.44208261298946 61.07469972824389 17.43934059143066
    vertex 38.680460184095416 66.07469972824389 17.750001907348633
    vertex 38.44208261298946 66.07469972824389 17.43934059143066
  endloop
endfacet
facet normal -0.7933548705567954 1.101001054988343e-17 0.6087594347226256
  outer loop
    vertex 38.680460184095416 66.07469972824389 17.750001907348633
    vertex 38.44208261298946 61.07469972824389 17.43934059143066
    vertex 38.680460184095416 61.07469972824389 17.750001907348633
  endloop
endfacet
facet normal -0.9238790413621416 1.389212417226093e-17 0.38268461810186527
  outer loop
    vertex 38.680460184095416 61.07469972824389 17.750001907348633
    vertex 38.83031102943233 66.07469972824389 18.11177253723144
    vertex 38.680460184095416 66.07469972824389 17.750001907348633
  endloop
endfacet
facet normal -0.9238790413621416 1.389212417226093e-17 0.38268461810186527
  outer loop
    vertex 38.83031102943233 66.07469972824389 18.11177253723144
    vertex 38.680460184095416 61.07469972824389 17.750001907348633
    vertex 38.83031102943233 61.07469972824389 18.11177253723144
  endloop
endfacet
facet normal -0.9914449092601804 1.3759062073850725e-17 0.13052582848644526
  outer loop
    vertex 38.83031102943233 61.07469972824389 18.11177253723144
    vertex 38.88142225074581 66.07469972824389 18.500001907348633
    vertex 38.83031102943233 66.07469972824389 18.11177253723144
  endloop
endfacet
facet normal -0.9914449092601804 1.3759062073850725e-17 0.13052582848644526
  outer loop
    vertex 38.88142225074581 66.07469972824389 18.500001907348633
    vertex 38.83031102943233 61.07469972824389 18.11177253723144
    vertex 38.88142225074581 61.07469972824389 18.500001907348633
  endloop
endfacet
facet normal -0.9914448262738911 1.3759060922184528e-17 -0.13052645883013175
  outer loop
    vertex 38.88142225074581 61.07469972824389 18.500001907348633
    vertex 38.83031102943233 66.07469972824389 18.888229370117184
    vertex 38.88142225074581 66.07469972824389 18.500001907348633
  endloop
endfacet
facet normal -0.9914448262738911 1.3759060922184528e-17 -0.13052645883013175
  outer loop
    vertex 38.83031102943233 66.07469972824389 18.888229370117184
    vertex 38.88142225074581 61.07469972824389 18.500001907348633
    vertex 38.83031102943233 61.07469972824389 18.888229370117184
  endloop
endfacet
facet normal -0.9238797546929366 1.1750685137827734e-17 -0.38268289597069716
  outer loop
    vertex 38.83031102943233 61.07469972824389 18.888229370117184
    vertex 38.680460184095416 66.07469972824389 19.250001907348633
    vertex 38.83031102943233 66.07469972824389 18.888229370117184
  endloop
endfacet
facet normal -0.9238797546929366 1.1750685137827734e-17 -0.38268289597069716
  outer loop
    vertex 38.680460184095416 66.07469972824389 19.250001907348633
    vertex 38.83031102943233 61.07469972824389 18.888229370117184
    vertex 38.680460184095416 61.07469972824389 19.250001907348633
  endloop
endfacet
facet normal -0.7933530654440788 1.1009985498912954e-17 -0.6087617871963412
  outer loop
    vertex 38.680460184095416 61.07469972824389 19.250001907348633
    vertex 38.44208261298946 66.07469972824389 19.560661315917965
    vertex 38.680460184095416 66.07469972824389 19.250001907348633
  endloop
endfacet
facet normal -0.7933530654440788 1.1009985498912954e-17 -0.6087617871963412
  outer loop
    vertex 38.44208261298946 66.07469972824389 19.560661315917965
    vertex 38.680460184095416 61.07469972824389 19.250001907348633
    vertex 38.44208261298946 61.07469972824389 19.560661315917965
  endloop
endfacet
facet normal -0.6087621438594599 8.448271857911803e-18 -0.7933527917664589
  outer loop
    vertex 38.13142225074581 61.07469972824389 19.799039840698242
    vertex 38.44208261298946 66.07469972824389 19.560661315917965
    vertex 38.44208261298946 61.07469972824389 19.560661315917965
  endloop
endfacet
facet normal -0.6087621438594599 8.448271857911803e-18 -0.7933527917664589
  outer loop
    vertex 38.44208261298946 66.07469972824389 19.560661315917965
    vertex 38.13142225074581 61.07469972824389 19.799039840698242
    vertex 38.13142225074581 66.07469972824389 19.799039840698242
  endloop
endfacet
facet normal -0.3826837570345099 5.310803977622496e-18 -0.9238793980287429
  outer loop
    vertex 37.769650667188685 61.07469972824389 19.948890686035156
    vertex 38.13142225074581 66.07469972824389 19.799039840698242
    vertex 38.13142225074581 61.07469972824389 19.799039840698242
  endloop
endfacet
facet normal -0.3826837570345099 5.310803977622496e-18 -0.9238793980287429
  outer loop
    vertex 38.13142225074581 66.07469972824389 19.799039840698242
    vertex 37.769650667188685 61.07469972824389 19.948890686035156
    vertex 37.769650667188685 66.07469972824389 19.948890686035156
  endloop
endfacet
facet normal -0.13052614365753357 1.8114141250515576e-18 -0.991444867767186
  outer loop
    vertex 37.38142225074581 61.07469972824389 20.000001907348633
    vertex 37.769650667188685 66.07469972824389 19.948890686035156
    vertex 37.769650667188685 61.07469972824389 19.948890686035156
  endloop
endfacet
facet normal -0.13052614365753357 1.8114141250515576e-18 -0.991444867767186
  outer loop
    vertex 37.769650667188685 66.07469972824389 19.948890686035156
    vertex 37.38142225074581 61.07469972824389 20.000001907348633
    vertex 37.38142225074581 66.07469972824389 20.000001907348633
  endloop
endfacet
facet normal 0.13052614365753454 -1.4462103947645279e-18 -0.991444867767186
  outer loop
    vertex 36.993193834302936 61.07469972824389 19.948890686035156
    vertex 37.38142225074581 66.07469972824389 20.000001907348633
    vertex 37.38142225074581 61.07469972824389 20.000001907348633
  endloop
endfacet
facet normal 0.13052614365753454 -1.4462103947645279e-18 -0.991444867767186
  outer loop
    vertex 37.38142225074581 66.07469972824389 20.000001907348633
    vertex 36.993193834302936 61.07469972824389 19.948890686035156
    vertex 36.993193834302936 66.07469972824389 19.948890686035156
  endloop
endfacet
facet normal 0.38268289597069705 -4.240069970223581e-18 -0.9238797546929366
  outer loop
    vertex 36.63142129707149 61.07469972824389 19.799039840698242
    vertex 36.993193834302936 66.07469972824389 19.948890686035156
    vertex 36.993193834302936 61.07469972824389 19.948890686035156
  endloop
endfacet
facet normal 0.38268289597069705 -4.240069970223581e-18 -0.9238797546929366
  outer loop
    vertex 36.993193834302936 66.07469972824389 19.948890686035156
    vertex 36.63142129707149 61.07469972824389 19.799039840698242
    vertex 36.63142129707149 66.07469972824389 19.799039840698242
  endloop
endfacet
facet normal 0.6087633200973919 -8.448288181492621e-18 -0.7933518892042801
  outer loop
    vertex 36.320761888502155 61.07469972824389 19.560661315917965
    vertex 36.63142129707149 66.07469972824389 19.799039840698242
    vertex 36.63142129707149 61.07469972824389 19.799039840698242
  endloop
endfacet
facet normal 0.6087633200973919 -8.448288181492621e-18 -0.7933518892042801
  outer loop
    vertex 36.63142129707149 66.07469972824389 19.799039840698242
    vertex 36.320761888502155 61.07469972824389 19.560661315917965
    vertex 36.320761888502155 66.07469972824389 19.560661315917965
  endloop
endfacet
facet normal 0.7933518892042801 -1.1009969175305338e-17 -0.6087633200973919
  outer loop
    vertex 36.320761888502155 61.07469972824389 19.560661315917965
    vertex 36.08238336372188 66.07469972824389 19.250001907348633
    vertex 36.320761888502155 66.07469972824389 19.560661315917965
  endloop
endfacet
facet normal 0.7933518892042801 -1.1009969175305338e-17 -0.6087633200973919
  outer loop
    vertex 36.08238336372188 66.07469972824389 19.250001907348633
    vertex 36.320761888502155 61.07469972824389 19.560661315917965
    vertex 36.08238336372188 61.07469972824389 19.250001907348633
  endloop
endfacet
facet normal 0.9238797546929366 -1.389212925330076e-17 -0.38268289597069716
  outer loop
    vertex 36.08238336372188 61.07469972824389 19.250001907348633
    vertex 35.93253251838497 66.07469972824389 18.888229370117184
    vertex 36.08238336372188 66.07469972824389 19.250001907348633
  endloop
endfacet
facet normal 0.9238797546929366 -1.389212925330076e-17 -0.38268289597069716
  outer loop
    vertex 35.93253251838497 66.07469972824389 18.888229370117184
    vertex 36.08238336372188 61.07469972824389 19.250001907348633
    vertex 35.93253251838497 61.07469972824389 18.888229370117184
  endloop
endfacet
facet normal 0.9914448262738911 -1.3759060922184528e-17 -0.13052645883013175
  outer loop
    vertex 35.93253251838497 61.07469972824389 18.888229370117184
    vertex 35.88142129707149 66.07469972824389 18.500001907348633
    vertex 35.93253251838497 66.07469972824389 18.888229370117184
  endloop
endfacet
facet normal 0.9914448262738911 -1.3759060922184528e-17 -0.13052645883013175
  outer loop
    vertex 35.88142129707149 66.07469972824389 18.500001907348633
    vertex 35.93253251838497 61.07469972824389 18.888229370117184
    vertex 35.88142129707149 61.07469972824389 18.500001907348633
  endloop
endfacet
facet normal 0.9914449092601804 -1.3759062073850558e-17 0.13052582848644526
  outer loop
    vertex 35.88142129707149 61.07469972824389 18.500001907348633
    vertex 35.93253251838497 66.07469972824389 18.11177253723144
    vertex 35.88142129707149 66.07469972824389 18.500001907348633
  endloop
endfacet
facet normal 0.9914449092601804 -1.3759062073850558e-17 0.13052582848644526
  outer loop
    vertex 35.93253251838497 66.07469972824389 18.11177253723144
    vertex 35.88142129707149 61.07469972824389 18.500001907348633
    vertex 35.93253251838497 61.07469972824389 18.11177253723144
  endloop
endfacet
facet normal 0.9238790413621416 -1.1750670419960743e-17 0.38268461810186527
  outer loop
    vertex 35.93253251838497 61.07469972824389 18.11177253723144
    vertex 36.08238336372188 66.07469972824389 17.750001907348633
    vertex 35.93253251838497 66.07469972824389 18.11177253723144
  endloop
endfacet
facet normal 0.9238790413621416 -1.1750670419960743e-17 0.38268461810186527
  outer loop
    vertex 36.08238336372188 66.07469972824389 17.750001907348633
    vertex 35.93253251838497 61.07469972824389 18.11177253723144
    vertex 36.08238336372188 61.07469972824389 17.750001907348633
  endloop
endfacet
facet normal 0.7933536943234112 -1.100999422636638e-17 0.6087609676247283
  outer loop
    vertex 36.08238336372188 61.07469972824389 17.750001907348633
    vertex 36.320761888502155 66.07469972824389 17.43934059143066
    vertex 36.08238336372188 66.07469972824389 17.750001907348633
  endloop
endfacet
facet normal 0.7933536943234112 -1.100999422636638e-17 0.6087609676247283
  outer loop
    vertex 36.320761888502155 66.07469972824389 17.43934059143066
    vertex 36.08238336372188 61.07469972824389 17.750001907348633
    vertex 36.320761888502155 61.07469972824389 17.43934059143066
  endloop
endfacet
facet normal 0.6087633200973873 -8.448288181493063e-18 0.7933518892042838
  outer loop
    vertex 36.320761888502155 66.07469972824389 17.43934059143066
    vertex 36.63142129707149 61.07469972824389 17.20096206665039
    vertex 36.63142129707149 66.07469972824389 17.20096206665039
  endloop
endfacet
facet normal 0.6087633200973873 -8.448288181493063e-18 0.7933518892042838
  outer loop
    vertex 36.63142129707149 61.07469972824389 17.20096206665039
    vertex 36.320761888502155 66.07469972824389 17.43934059143066
    vertex 36.320761888502155 61.07469972824389 17.43934059143066
  endloop
endfacet
facet normal 0.38267873837694 -4.240023904699949e-18 0.9238814768108696
  outer loop
    vertex 36.63142129707149 66.07469972824389 17.20096206665039
    vertex 36.993193834302936 61.07469972824389 17.05111312866211
    vertex 36.993193834302936 66.07469972824389 17.05111312866211
  endloop
endfacet
facet normal 0.38267873837694 -4.240023904699949e-18 0.9238814768108696
  outer loop
    vertex 36.993193834302936 61.07469972824389 17.05111312866211
    vertex 36.63142129707149 66.07469972824389 17.20096206665039
    vertex 36.63142129707149 61.07469972824389 17.20096206665039
  endloop
endfacet
facet normal 0.13052614365753454 -1.4462103947645279e-18 0.991444867767186
  outer loop
    vertex 36.993193834302936 66.07469972824389 17.05111312866211
    vertex 37.38142225074581 61.07469972824389 17.000001907348633
    vertex 37.38142225074581 66.07469972824389 17.000001907348633
  endloop
endfacet
facet normal 0.13052614365753454 -1.4462103947645279e-18 0.991444867767186
  outer loop
    vertex 37.38142225074581 61.07469972824389 17.000001907348633
    vertex 36.993193834302936 66.07469972824389 17.05111312866211
    vertex 36.993193834302936 61.07469972824389 17.05111312866211
  endloop
endfacet
facet normal 6.206335383118184e-18 0.44721359549995804 0.8944271909999161
  outer loop
    vertex 37.8814222507458 72.0746997282439 12.000000953674316
    vertex 42.88142225074581 66.07469972824389 15.000000953674316
    vertex 42.88142225074581 72.0746997282439 12.000000953674316
  endloop
endfacet
facet normal 6.206335383118184e-18 0.44721359549995804 0.8944271909999161
  outer loop
    vertex 42.88142225074581 66.07469972824389 15.000000953674316
    vertex 37.8814222507458 72.0746997282439 12.000000953674316
    vertex 31.88142129707149 66.07469972824389 15.000000953674316
  endloop
endfacet
facet normal 1.3877787807814777e-17 1.0 -6.560149021421131e-32
  outer loop
    vertex 31.88142129707149 66.07469972824389 15.000000953674316
    vertex 36.993193834302936 66.07469972824389 17.05111312866211
    vertex 42.88142225074581 66.07469972824389 15.000000953674316
  endloop
endfacet
facet normal 1.3877787807814777e-17 1.0 -6.560149021421131e-32
  outer loop
    vertex 36.993193834302936 66.07469972824389 17.05111312866211
    vertex 31.88142129707149 66.07469972824389 15.000000953674316
    vertex 36.63142129707149 66.07469972824389 17.20096206665039
  endloop
endfacet
facet normal 1.3877787807814777e-17 1.0 -6.560149021421131e-32
  outer loop
    vertex 36.63142129707149 66.07469972824389 17.20096206665039
    vertex 31.88142129707149 66.07469972824389 15.000000953674316
    vertex 36.320761888502155 66.07469972824389 17.43934059143066
  endloop
endfacet
facet normal 1.3877787807814777e-17 1.0 -6.560149021421131e-32
  outer loop
    vertex 36.320761888502155 66.07469972824389 17.43934059143066
    vertex 31.88142129707149 66.07469972824389 15.000000953674316
    vertex 31.88142129707149 66.07469972824389 22.00000190734863
  endloop
endfacet
facet normal 1.3877787807814777e-17 1.0 -6.560149021421131e-32
  outer loop
    vertex 42.88142225074581 66.07469972824389 15.000000953674316
    vertex 36.993193834302936 66.07469972824389 17.05111312866211
    vertex 37.38142225074581 66.07469972824389 17.000001907348633
  endloop
endfacet
facet normal 1.3877787807814777e-17 1.0 -6.560149021421131e-32
  outer loop
    vertex 36.320761888502155 66.07469972824389 17.43934059143066
    vertex 31.88142129707149 66.07469972824389 22.00000190734863
    vertex 36.08238336372188 66.07469972824389 17.750001907348633
  endloop
endfacet
facet normal 1.3877787807814777e-17 1.0 -6.560149021421131e-32
  outer loop
    vertex 36.08238336372188 66.07469972824389 17.750001907348633
    vertex 31.88142129707149 66.07469972824389 22.00000190734863
    vertex 35.93253251838497 66.07469972824389 18.11177253723144
  endloop
endfacet
facet normal 1.3877787807814777e-17 1.0 -6.560149021421131e-32
  outer loop
    vertex 35.93253251838497 66.07469972824389 18.11177253723144
    vertex 31.88142129707149 66.07469972824389 22.00000190734863
    vertex 35.88142129707149 66.07469972824389 18.500001907348633
  endloop
endfacet
facet normal 1.3877787807814777e-17 1.0 -6.560149021421131e-32
  outer loop
    vertex 35.88142129707149 66.07469972824389 18.500001907348633
    vertex 31.88142129707149 66.07469972824389 22.00000190734863
    vertex 35.93253251838497 66.07469972824389 18.888229370117184
  endloop
endfacet
facet normal 1.3877787807814777e-17 1.0 -6.560149021421131e-32
  outer loop
    vertex 35.93253251838497 66.07469972824389 18.888229370117184
    vertex 31.88142129707149 66.07469972824389 22.00000190734863
    vertex 36.08238336372188 66.07469972824389 19.250001907348633
  endloop
endfacet
facet normal 1.3877787807814777e-17 1.0 -6.560149021421131e-32
  outer loop
    vertex 36.08238336372188 66.07469972824389 19.250001907348633
    vertex 31.88142129707149 66.07469972824389 22.00000190734863
    vertex 36.320761888502155 66.07469972824389 19.560661315917965
  endloop
endfacet
facet normal 1.3877787807814777e-17 1.0 -6.560149021421131e-32
  outer loop
    vertex 36.320761888502155 66.07469972824389 19.560661315917965
    vertex 31.88142129707149 66.07469972824389 22.00000190734863
    vertex 36.63142129707149 66.07469972824389 19.799039840698242
  endloop
endfacet
facet normal 1.3877787807814777e-17 1.0 -6.560149021421131e-32
  outer loop
    vertex 36.63142129707149 66.07469972824389 19.799039840698242
    vertex 31.88142129707149 66.07469972824389 22.00000190734863
    vertex 36.993193834302936 66.07469972824389 19.948890686035156
  endloop
endfacet
facet normal 1.3877787807814777e-17 1.0 -6.560149021421131e-32
  outer loop
    vertex 36.993193834302936 66.07469972824389 19.948890686035156
    vertex 31.88142129707149 66.07469972824389 22.00000190734863
    vertex 37.38142225074581 66.07469972824389 20.000001907348633
  endloop
endfacet
facet normal 1.3877787807814777e-17 1.0 -6.560149021421131e-32
  outer loop
    vertex 42.88142225074581 66.07469972824389 15.000000953674316
    vertex 38.44208261298946 66.07469972824389 17.43934059143066
    vertex 42.88142225074581 66.07469972824389 22.00000190734863
  endloop
endfacet
facet normal 1.3877787807814777e-17 1.0 -6.560149021421131e-32
  outer loop
    vertex 38.44208261298946 66.07469972824389 17.43934059143066
    vertex 42.88142225074581 66.07469972824389 15.000000953674316
    vertex 38.13142225074581 66.07469972824389 17.20096206665039
  endloop
endfacet
facet normal 1.3877787807814777e-17 1.0 -6.560149021421131e-32
  outer loop
    vertex 38.13142225074581 66.07469972824389 17.20096206665039
    vertex 42.88142225074581 66.07469972824389 15.000000953674316
    vertex 37.769650667188685 66.07469972824389 17.05111312866211
  endloop
endfacet
facet normal 1.3877787807814777e-17 1.0 -6.560149021421131e-32
  outer loop
    vertex 37.769650667188685 66.07469972824389 17.05111312866211
    vertex 42.88142225074581 66.07469972824389 15.000000953674316
    vertex 37.38142225074581 66.07469972824389 17.000001907348633
  endloop
endfacet
facet normal 1.3877787807814777e-17 1.0 -6.560149021421131e-32
  outer loop
    vertex 42.88142225074581 66.07469972824389 22.00000190734863
    vertex 38.44208261298946 66.07469972824389 17.43934059143066
    vertex 38.680460184095416 66.07469972824389 17.750001907348633
  endloop
endfacet
facet normal 1.3877787807814777e-17 1.0 -6.560149021421131e-32
  outer loop
    vertex 42.88142225074581 66.07469972824389 22.00000190734863
    vertex 38.680460184095416 66.07469972824389 17.750001907348633
    vertex 38.83031102943233 66.07469972824389 18.11177253723144
  endloop
endfacet
facet normal 1.3877787807814777e-17 1.0 -6.560149021421131e-32
  outer loop
    vertex 42.88142225074581 66.07469972824389 22.00000190734863
    vertex 38.83031102943233 66.07469972824389 18.11177253723144
    vertex 38.88142225074581 66.07469972824389 18.500001907348633
  endloop
endfacet
facet normal 1.3877787807814777e-17 1.0 -6.560149021421131e-32
  outer loop
    vertex 42.88142225074581 66.07469972824389 22.00000190734863
    vertex 38.88142225074581 66.07469972824389 18.500001907348633
    vertex 38.83031102943233 66.07469972824389 18.888229370117184
  endloop
endfacet
facet normal 1.3877787807814777e-17 1.0 -6.560149021421131e-32
  outer loop
    vertex 42.88142225074581 66.07469972824389 22.00000190734863
    vertex 38.83031102943233 66.07469972824389 18.888229370117184
    vertex 38.680460184095416 66.07469972824389 19.250001907348633
  endloop
endfacet
facet normal 1.3877787807814777e-17 1.0 -6.560149021421131e-32
  outer loop
    vertex 42.88142225074581 66.07469972824389 22.00000190734863
    vertex 38.680460184095416 66.07469972824389 19.250001907348633
    vertex 38.44208261298946 66.07469972824389 19.560661315917965
  endloop
endfacet
facet normal 1.3877787807814777e-17 1.0 -6.560149021421131e-32
  outer loop
    vertex 42.88142225074581 66.07469972824389 22.00000190734863
    vertex 38.44208261298946 66.07469972824389 19.560661315917965
    vertex 38.13142225074581 66.07469972824389 19.799039840698242
  endloop
endfacet
facet normal 1.3877787807814777e-17 1.0 -6.560149021421131e-32
  outer loop
    vertex 42.88142225074581 66.07469972824389 22.00000190734863
    vertex 38.13142225074581 66.07469972824389 19.799039840698242
    vertex 37.769650667188685 66.07469972824389 19.948890686035156
  endloop
endfacet
facet normal 1.3877787807814777e-17 1.0 -6.560149021421131e-32
  outer loop
    vertex 42.88142225074581 66.07469972824389 22.00000190734863
    vertex 37.769650667188685 66.07469972824389 19.948890686035156
    vertex 37.38142225074581 66.07469972824389 20.000001907348633
  endloop
endfacet
facet normal 1.3877787807814777e-17 1.0 -6.560149021421131e-32
  outer loop
    vertex 42.88142225074581 66.07469972824389 22.00000190734863
    vertex 37.38142225074581 66.07469972824389 20.000001907348633
    vertex 31.88142129707149 66.07469972824389 22.00000190734863
  endloop
endfacet
facet normal 0.0 0.0 1.0
  outer loop
    vertex 31.88142129707149 66.07469972824389 22.00000190734863
    vertex 42.88142225074581 61.07469972824389 22.00000190734863
    vertex 42.88142225074581 66.07469972824389 22.00000190734863
  endloop
endfacet
facet normal 0.0 0.0 1.0
  outer loop
    vertex 42.88142225074581 61.07469972824389 22.00000190734863
    vertex 31.88142129707149 66.07469972824389 22.00000190734863
    vertex 31.88142129707149 61.07469972824389 22.00000190734863
  endloop
endfacet
facet normal -0.991444867767186 -3.652037370541357e-19 0.13052614365753407
  outer loop
    vertex 49.33031102943233 104.00000004632575 5.611772037231447
    vertex 49.38142225074581 108.99999999999993 6.000000453674317
    vertex 49.33031102943233 108.99999999999993 5.611772037231447
  endloop
endfacet
facet normal -0.991444867767186 -3.652037370541357e-19 0.13052614365753407
  outer loop
    vertex 49.38142225074581 108.99999999999993 6.000000453674317
    vertex 49.33031102943233 104.00000004632575 5.611772037231447
    vertex 49.38142225074581 104.00000004632575 6.000000453674317
  endloop
endfacet
facet normal -0.9238796132950441 -4.702350552215875e-30 0.38268323733578896
  outer loop
    vertex 49.180460422513995 104.00000004632575 5.250000453674317
    vertex 49.33031102943233 108.99999999999993 5.611772037231447
    vertex 49.180460422513995 108.99999999999993 5.250000453674317
  endloop
endfacet
facet normal -0.9238796132950441 -4.702350552215875e-30 0.38268323733578896
  outer loop
    vertex 49.33031102943233 108.99999999999993 5.611772037231447
    vertex 49.180460422513995 104.00000004632575 5.250000453674317
    vertex 49.33031102943233 104.00000004632575 5.611772037231447
  endloop
endfacet
facet normal -0.7933533798846897 0.0 0.6087613774095226
  outer loop
    vertex 48.94208237457088 104.00000004632575 4.939340091430664
    vertex 49.180460422513995 108.99999999999993 5.250000453674317
    vertex 48.94208237457088 108.99999999999993 4.939340091430664
  endloop
endfacet
facet normal -0.7933533798846897 0.0 0.6087613774095226
  outer loop
    vertex 49.180460422513995 108.99999999999993 5.250000453674317
    vertex 48.94208237457088 104.00000004632575 4.939340091430664
    vertex 49.180460422513995 104.00000004632575 5.250000453674317
  endloop
endfacet
facet normal -0.6087609050171928 -2.5930720771229744e-30 0.7933537423638012
  outer loop
    vertex 48.63142225074581 108.99999999999993 4.700962520324708
    vertex 48.94208237457088 104.00000004632575 4.939340091430664
    vertex 48.94208237457088 108.99999999999993 4.939340091430664
  endloop
endfacet
facet normal -0.6087609050171928 -2.5930720771229744e-30 0.7933537423638012
  outer loop
    vertex 48.94208237457088 104.00000004632575 4.939340091430664
    vertex 48.63142225074581 108.99999999999993 4.700962520324708
    vertex 48.63142225074581 104.00000004632575 4.700962520324708
  endloop
endfacet
facet normal -0.38268375703451407 2.363201990877933e-18 0.9238793980287412
  outer loop
    vertex 48.26965066718868 108.99999999999993 4.551111674987793
    vertex 48.63142225074581 104.00000004632575 4.700962520324708
    vertex 48.63142225074581 108.99999999999993 4.700962520324708
  endloop
endfacet
facet normal -0.38268375703451407 2.363201990877933e-18 0.9238793980287412
  outer loop
    vertex 48.63142225074581 104.00000004632575 4.700962520324708
    vertex 48.26965066718868 108.99999999999993 4.551111674987793
    vertex 48.26965066718868 104.00000004632575 4.551111674987793
  endloop
endfacet
facet normal -0.1305261436575336 6.644458308135964e-31 0.991444867767186
  outer loop
    vertex 47.88142225074581 108.99999999999993 4.500000453674317
    vertex 48.26965066718868 104.00000004632575 4.551111674987793
    vertex 48.26965066718868 108.99999999999993 4.551111674987793
  endloop
endfacet
facet normal -0.1305261436575336 6.644458308135964e-31 0.991444867767186
  outer loop
    vertex 48.26965066718868 104.00000004632575 4.551111674987793
    vertex 47.88142225074581 108.99999999999993 4.500000453674317
    vertex 47.88142225074581 104.00000004632575 4.500000453674317
  endloop
endfacet
facet normal 0.1305261436575336 6.644458308135964e-31 0.991444867767186
  outer loop
    vertex 47.493193834302936 108.99999999999993 4.551111674987793
    vertex 47.88142225074581 104.00000004632575 4.500000453674317
    vertex 47.88142225074581 108.99999999999993 4.500000453674317
  endloop
endfacet
facet normal 0.1305261436575336 6.644458308135964e-31 0.991444867767186
  outer loop
    vertex 47.88142225074581 104.00000004632575 4.500000453674317
    vertex 47.493193834302936 108.99999999999993 4.551111674987793
    vertex 47.493193834302936 104.00000004632575 4.551111674987793
  endloop
endfacet
facet normal 0.38268375703451396 2.2175301731558053e-19 0.9238793980287412
  outer loop
    vertex 47.13142225074581 108.99999999999993 4.700962520324708
    vertex 47.493193834302936 104.00000004632575 4.551111674987793
    vertex 47.493193834302936 108.99999999999993 4.551111674987793
  endloop
endfacet
facet normal 0.38268375703451396 2.2175301731558053e-19 0.9238793980287412
  outer loop
    vertex 47.493193834302936 104.00000004632575 4.551111674987793
    vertex 47.13142225074581 108.99999999999993 4.700962520324708
    vertex 47.13142225074581 104.00000004632575 4.700962520324708
  endloop
endfacet
facet normal 0.6087606109578728 5.053640174072107e-31 0.7933539680030581
  outer loop
    vertex 46.820761888502155 108.99999999999993 4.939340091430664
    vertex 47.13142225074581 104.00000004632575 4.700962520324708
    vertex 47.13142225074581 108.99999999999993 4.700962520324708
  endloop
endfacet
facet normal 0.6087606109578728 5.053640174072107e-31 0.7933539680030581
  outer loop
    vertex 47.13142225074581 104.00000004632575 4.700962520324708
    vertex 46.820761888502155 108.99999999999993 4.939340091430664
    vertex 46.820761888502155 104.00000004632575 4.939340091430664
  endloop
endfacet
facet normal 0.7933539680030564 -4.0382899073911554e-30 0.608760610957875
  outer loop
    vertex 46.5823843173962 104.00000004632575 5.250000453674317
    vertex 46.820761888502155 108.99999999999993 4.939340091430664
    vertex 46.5823843173962 108.99999999999993 5.250000453674317
  endloop
endfacet
facet normal 0.7933539680030564 -4.0382899073911554e-30 0.608760610957875
  outer loop
    vertex 46.820761888502155 108.99999999999993 4.939340091430664
    vertex 46.5823843173962 104.00000004632575 5.250000453674317
    vertex 46.820761888502155 104.00000004632575 4.939340091430664
  endloop
endfacet
facet normal 0.9238793980287402 0.0 0.38268375703451607
  outer loop
    vertex 46.43253347205928 104.00000004632575 5.611772037231447
    vertex 46.5823843173962 108.99999999999993 5.250000453674317
    vertex 46.43253347205928 108.99999999999993 5.611772037231447
  endloop
endfacet
facet normal 0.9238793980287402 0.0 0.38268375703451607
  outer loop
    vertex 46.5823843173962 108.99999999999993 5.250000453674317
    vertex 46.43253347205928 104.00000004632575 5.611772037231447
    vertex 46.5823843173962 104.00000004632575 5.250000453674317
  endloop
endfacet
facet normal 0.991444867767186 -3.652037370541357e-19 0.13052614365753407
  outer loop
    vertex 46.38142225074581 104.00000004632575 6.000000453674317
    vertex 46.43253347205928 108.99999999999993 5.611772037231447
    vertex 46.38142225074581 108.99999999999993 6.000000453674317
  endloop
endfacet
facet normal 0.991444867767186 -3.652037370541357e-19 0.13052614365753407
  outer loop
    vertex 46.43253347205928 108.99999999999993 5.611772037231447
    vertex 46.38142225074581 104.00000004632575 6.000000453674317
    vertex 46.43253347205928 104.00000004632575 5.611772037231447
  endloop
endfacet
facet normal 0.991444867767186 3.652037370541357e-19 -0.13052614365753407
  outer loop
    vertex 46.43253347205928 104.00000004632575 6.388228870117188
    vertex 46.38142225074581 108.99999999999993 6.000000453674317
    vertex 46.43253347205928 108.99999999999993 6.388228870117188
  endloop
endfacet
facet normal 0.991444867767186 3.652037370541357e-19 -0.13052614365753407
  outer loop
    vertex 46.38142225074581 108.99999999999993 6.000000453674317
    vertex 46.43253347205928 104.00000004632575 6.388228870117188
    vertex 46.38142225074581 104.00000004632575 6.000000453674317
  endloop
endfacet
facet normal 0.9238793980287402 0.0 -0.38268375703451607
  outer loop
    vertex 46.5823843173962 104.00000004632575 6.750000453674318
    vertex 46.43253347205928 108.99999999999993 6.388228870117188
    vertex 46.5823843173962 108.99999999999993 6.750000453674318
  endloop
endfacet
facet normal 0.9238793980287402 0.0 -0.38268375703451607
  outer loop
    vertex 46.43253347205928 108.99999999999993 6.388228870117188
    vertex 46.5823843173962 104.00000004632575 6.750000453674318
    vertex 46.43253347205928 104.00000004632575 6.388228870117188
  endloop
endfacet
facet normal 0.7933539680030564 -4.0382899073911554e-30 -0.608760610957875
  outer loop
    vertex 46.820761888502155 104.00000004632575 7.06066081591797
    vertex 46.5823843173962 108.99999999999993 6.750000453674318
    vertex 46.820761888502155 108.99999999999993 7.06066081591797
  endloop
endfacet
facet normal 0.7933539680030564 -4.0382899073911554e-30 -0.608760610957875
  outer loop
    vertex 46.5823843173962 108.99999999999993 6.750000453674318
    vertex 46.820761888502155 104.00000004632575 7.06066081591797
    vertex 46.5823843173962 104.00000004632575 6.750000453674318
  endloop
endfacet
facet normal 0.6087606109578739 -1.0091872908589116e-30 -0.7933539680030574
  outer loop
    vertex 46.820761888502155 104.00000004632575 7.06066081591797
    vertex 47.13142225074581 108.99999999999993 7.299038387023927
    vertex 47.13142225074581 104.00000004632575 7.299038387023927
  endloop
endfacet
facet normal 0.6087606109578739 -1.0091872908589116e-30 -0.7933539680030574
  outer loop
    vertex 47.13142225074581 108.99999999999993 7.299038387023927
    vertex 46.820761888502155 104.00000004632575 7.06066081591797
    vertex 46.820761888502155 108.99999999999993 7.06066081591797
  endloop
endfacet
facet normal 0.3826837570345124 -1.0707244867811714e-18 -0.9238793980287417
  outer loop
    vertex 47.13142225074581 104.00000004632575 7.299038387023927
    vertex 47.493193834302936 108.99999999999993 7.448889232360841
    vertex 47.493193834302936 104.00000004632575 7.448889232360841
  endloop
endfacet
facet normal 0.3826837570345124 -1.0707244867811714e-18 -0.9238793980287417
  outer loop
    vertex 47.493193834302936 108.99999999999993 7.448889232360841
    vertex 47.13142225074581 104.00000004632575 7.299038387023927
    vertex 47.13142225074581 108.99999999999993 7.299038387023927
  endloop
endfacet
facet normal 0.1305261436575336 6.644458308135964e-31 -0.991444867767186
  outer loop
    vertex 47.493193834302936 104.00000004632575 7.448889232360841
    vertex 47.88142225074581 108.99999999999993 7.500000453674318
    vertex 47.88142225074581 104.00000004632575 7.500000453674318
  endloop
endfacet
facet normal 0.1305261436575336 6.644458308135964e-31 -0.991444867767186
  outer loop
    vertex 47.88142225074581 108.99999999999993 7.500000453674318
    vertex 47.493193834302936 104.00000004632575 7.448889232360841
    vertex 47.493193834302936 108.99999999999993 7.448889232360841
  endloop
endfacet
facet normal -0.1305261436575336 6.644458308135964e-31 -0.991444867767186
  outer loop
    vertex 47.88142225074581 104.00000004632575 7.500000453674318
    vertex 48.26965066718868 108.99999999999993 7.448889232360841
    vertex 48.26965066718868 104.00000004632575 7.448889232360841
  endloop
endfacet
facet normal -0.1305261436575336 6.644458308135964e-31 -0.991444867767186
  outer loop
    vertex 48.26965066718868 108.99999999999993 7.448889232360841
    vertex 47.88142225074581 104.00000004632575 7.500000453674318
    vertex 47.88142225074581 108.99999999999993 7.500000453674318
  endloop
endfacet
facet normal -0.3826837570345125 1.0707244867811722e-18 -0.9238793980287417
  outer loop
    vertex 48.26965066718868 104.00000004632575 7.448889232360841
    vertex 48.63142225074581 108.99999999999993 7.299038387023927
    vertex 48.63142225074581 104.00000004632575 7.299038387023927
  endloop
endfacet
facet normal -0.3826837570345125 1.0707244867811722e-18 -0.9238793980287417
  outer loop
    vertex 48.63142225074581 108.99999999999993 7.299038387023927
    vertex 48.26965066718868 104.00000004632575 7.448889232360841
    vertex 48.26965066718868 108.99999999999993 7.448889232360841
  endloop
endfacet
facet normal -0.6087609050171938 -4.1076233853890966e-30 -0.7933537423638003
  outer loop
    vertex 48.63142225074581 104.00000004632575 7.299038387023927
    vertex 48.94208237457088 108.99999999999993 7.06066081591797
    vertex 48.94208237457088 104.00000004632575 7.06066081591797
  endloop
endfacet
facet normal -0.6087609050171938 -4.1076233853890966e-30 -0.7933537423638003
  outer loop
    vertex 48.94208237457088 108.99999999999993 7.06066081591797
    vertex 48.63142225074581 104.00000004632575 7.299038387023927
    vertex 48.63142225074581 108.99999999999993 7.299038387023927
  endloop
endfacet
facet normal -0.7933533798846897 0.0 -0.6087613774095226
  outer loop
    vertex 49.180460422513995 104.00000004632575 6.750000453674318
    vertex 48.94208237457088 108.99999999999993 7.06066081591797
    vertex 49.180460422513995 108.99999999999993 6.750000453674318
  endloop
endfacet
facet normal -0.7933533798846897 0.0 -0.6087613774095226
  outer loop
    vertex 48.94208237457088 108.99999999999993 7.06066081591797
    vertex 49.180460422513995 104.00000004632575 6.750000453674318
    vertex 48.94208237457088 104.00000004632575 7.06066081591797
  endloop
endfacet
facet normal -0.9238796132950441 -4.702350552215875e-30 -0.38268323733578896
  outer loop
    vertex 49.33031102943233 104.00000004632575 6.388228870117188
    vertex 49.180460422513995 108.99999999999993 6.750000453674318
    vertex 49.33031102943233 108.99999999999993 6.388228870117188
  endloop
endfacet
facet normal -0.9238796132950441 -4.702350552215875e-30 -0.38268323733578896
  outer loop
    vertex 49.180460422513995 108.99999999999993 6.750000453674318
    vertex 49.33031102943233 104.00000004632575 6.388228870117188
    vertex 49.180460422513995 104.00000004632575 6.750000453674318
  endloop
endfacet
facet normal -0.991444867767186 3.652037370541357e-19 -0.13052614365753407
  outer loop
    vertex 49.38142225074581 104.00000004632575 6.000000453674317
    vertex 49.33031102943233 108.99999999999993 6.388228870117188
    vertex 49.38142225074581 108.99999999999993 6.000000453674317
  endloop
endfacet
facet normal -0.991444867767186 3.652037370541357e-19 -0.13052614365753407
  outer loop
    vertex 49.33031102943233 108.99999999999993 6.388228870117188
    vertex 49.38142225074581 104.00000004632575 6.000000453674317
    vertex 49.33031102943233 104.00000004632575 6.388228870117188
  endloop
endfacet
facet normal -1.0 0.0 0.0
  outer loop
    vertex 37.8814222507458 72.0746997282439 9.999999974752427e-07
    vertex 37.8814222507458 107.00000004632577 12.000000453674318
    vertex 37.8814222507458 107.00000004632577 4.999999987376214e-07
  endloop
endfacet
facet normal -1.0 0.0 0.0
  outer loop
    vertex 37.8814222507458 107.00000004632577 12.000000453674318
    vertex 37.8814222507458 72.0746997282439 9.999999974752427e-07
    vertex 37.8814222507458 72.0746997282439 12.000000953674316
  endloop
endfacet
facet normal -0.7071067249907518 0.7071068373823388 9.608623258897321e-18
  outer loop
    vertex 31.88142129707149 66.07469972824389 15.000000953674316
    vertex 37.8814222507458 72.0746997282439 9.999999974752427e-07
    vertex 31.88142129707149 66.07469972824389 9.999999974752427e-07
  endloop
endfacet
facet normal -0.7071067249907518 0.7071068373823388 9.608623258897321e-18
  outer loop
    vertex 37.8814222507458 72.0746997282439 9.999999974752427e-07
    vertex 31.88142129707149 66.07469972824389 15.000000953674316
    vertex 37.8814222507458 72.0746997282439 12.000000953674316
  endloop
endfacet
facet normal -1.0 1.3877787807814457e-17 0.0
  outer loop
    vertex 31.88142129707149 61.07469972824389 9.999999974752427e-07
    vertex 31.88142129707149 66.07469972824389 15.000000953674316
    vertex 31.88142129707149 66.07469972824389 9.999999974752427e-07
  endloop
endfacet
facet normal -1.0 1.3877787807814457e-17 0.0
  outer loop
    vertex 31.88142129707149 66.07469972824389 15.000000953674316
    vertex 31.88142129707149 61.07469972824389 9.999999974752427e-07
    vertex 31.88142129707149 66.07469972824389 22.00000190734863
  endloop
endfacet
facet normal -1.0 1.3877787807814457e-17 0.0
  outer loop
    vertex 31.88142129707149 66.07469972824389 22.00000190734863
    vertex 31.88142129707149 61.07469972824389 9.999999974752427e-07
    vertex 31.88142129707149 61.07469972824389 22.00000190734863
  endloop
endfacet
facet normal -1.3877787807814457e-17 -1.0 0.0
  outer loop
    vertex 42.88142225074581 61.07469972824389 22.00000190734863
    vertex 31.88142129707149 61.07469972824389 9.999999974752427e-07
    vertex 42.88142225074581 61.07469972824389 9.999999974752427e-07
  endloop
endfacet
facet normal -1.3877787807814457e-17 -1.0 0.0
  outer loop
    vertex 31.88142129707149 61.07469972824389 9.999999974752427e-07
    vertex 42.88142225074581 61.07469972824389 22.00000190734863
    vertex 38.44208261298946 61.07469972824389 17.43934059143066
  endloop
endfacet
facet normal -1.3877787807814457e-17 -1.0 0.0
  outer loop
    vertex 31.88142129707149 61.07469972824389 9.999999974752427e-07
    vertex 38.44208261298946 61.07469972824389 17.43934059143066
    vertex 38.13142225074581 61.07469972824389 17.20096206665039
  endloop
endfacet
facet normal -1.3877787807814457e-17 -1.0 0.0
  outer loop
    vertex 31.88142129707149 61.07469972824389 9.999999974752427e-07
    vertex 38.13142225074581 61.07469972824389 17.20096206665039
    vertex 37.769650667188685 61.07469972824389 17.05111312866211
  endloop
endfacet
facet normal -1.3877787807814457e-17 -1.0 0.0
  outer loop
    vertex 31.88142129707149 61.07469972824389 9.999999974752427e-07
    vertex 37.769650667188685 61.07469972824389 17.05111312866211
    vertex 37.38142225074581 61.07469972824389 17.000001907348633
  endloop
endfacet
facet normal -1.3877787807814457e-17 -1.0 0.0
  outer loop
    vertex 38.44208261298946 61.07469972824389 17.43934059143066
    vertex 42.88142225074581 61.07469972824389 22.00000190734863
    vertex 38.680460184095416 61.07469972824389 17.750001907348633
  endloop
endfacet
facet normal -1.3877787807814457e-17 -1.0 0.0
  outer loop
    vertex 38.680460184095416 61.07469972824389 17.750001907348633
    vertex 42.88142225074581 61.07469972824389 22.00000190734863
    vertex 38.83031102943233 61.07469972824389 18.11177253723144
  endloop
endfacet
facet normal -1.3877787807814457e-17 -1.0 0.0
  outer loop
    vertex 38.83031102943233 61.07469972824389 18.11177253723144
    vertex 42.88142225074581 61.07469972824389 22.00000190734863
    vertex 38.88142225074581 61.07469972824389 18.500001907348633
  endloop
endfacet
facet normal -1.3877787807814457e-17 -1.0 0.0
  outer loop
    vertex 38.88142225074581 61.07469972824389 18.500001907348633
    vertex 42.88142225074581 61.07469972824389 22.00000190734863
    vertex 38.83031102943233 61.07469972824389 18.888229370117184
  endloop
endfacet
facet normal -1.3877787807814457e-17 -1.0 0.0
  outer loop
    vertex 38.83031102943233 61.07469972824389 18.888229370117184
    vertex 42.88142225074581 61.07469972824389 22.00000190734863
    vertex 38.680460184095416 61.07469972824389 19.250001907348633
  endloop
endfacet
facet normal -1.3877787807814457e-17 -1.0 0.0
  outer loop
    vertex 38.680460184095416 61.07469972824389 19.250001907348633
    vertex 42.88142225074581 61.07469972824389 22.00000190734863
    vertex 38.44208261298946 61.07469972824389 19.560661315917965
  endloop
endfacet
facet normal -1.3877787807814457e-17 -1.0 0.0
  outer loop
    vertex 38.44208261298946 61.07469972824389 19.560661315917965
    vertex 42.88142225074581 61.07469972824389 22.00000190734863
    vertex 38.13142225074581 61.07469972824389 19.799039840698242
  endloop
endfacet
facet normal -1.3877787807814457e-17 -1.0 0.0
  outer loop
    vertex 38.13142225074581 61.07469972824389 19.799039840698242
    vertex 42.88142225074581 61.07469972824389 22.00000190734863
    vertex 37.769650667188685 61.07469972824389 19.948890686035156
  endloop
endfacet
facet normal -1.3877787807814457e-17 -1.0 0.0
  outer loop
    vertex 37.769650667188685 61.07469972824389 19.948890686035156
    vertex 42.88142225074581 61.07469972824389 22.00000190734863
    vertex 37.38142225074581 61.07469972824389 20.000001907348633
  endloop
endfacet
facet normal -1.3877787807814457e-17 -1.0 0.0
  outer loop
    vertex 31.88142129707149 61.07469972824389 9.999999974752427e-07
    vertex 36.320761888502155 61.07469972824389 17.43934059143066
    vertex 31.88142129707149 61.07469972824389 22.00000190734863
  endloop
endfacet
facet normal -1.3877787807814457e-17 -1.0 0.0
  outer loop
    vertex 36.320761888502155 61.07469972824389 17.43934059143066
    vertex 31.88142129707149 61.07469972824389 9.999999974752427e-07
    vertex 36.63142129707149 61.07469972824389 17.20096206665039
  endloop
endfacet
facet normal -1.3877787807814457e-17 -1.0 0.0
  outer loop
    vertex 36.63142129707149 61.07469972824389 17.20096206665039
    vertex 31.88142129707149 61.07469972824389 9.999999974752427e-07
    vertex 36.993193834302936 61.07469972824389 17.05111312866211
  endloop
endfacet
facet normal -1.3877787807814457e-17 -1.0 0.0
  outer loop
    vertex 36.993193834302936 61.07469972824389 17.05111312866211
    vertex 31.88142129707149 61.07469972824389 9.999999974752427e-07
    vertex 37.38142225074581 61.07469972824389 17.000001907348633
  endloop
endfacet
facet normal -1.3877787807814457e-17 -1.0 0.0
  outer loop
    vertex 31.88142129707149 61.07469972824389 22.00000190734863
    vertex 36.320761888502155 61.07469972824389 17.43934059143066
    vertex 36.08238336372188 61.07469972824389 17.750001907348633
  endloop
endfacet
facet normal -1.3877787807814457e-17 -1.0 0.0
  outer loop
    vertex 31.88142129707149 61.07469972824389 22.00000190734863
    vertex 36.08238336372188 61.07469972824389 17.750001907348633
    vertex 35.93253251838497 61.07469972824389 18.11177253723144
  endloop
endfacet
facet normal -1.3877787807814457e-17 -1.0 0.0
  outer loop
    vertex 31.88142129707149 61.07469972824389 22.00000190734863
    vertex 35.93253251838497 61.07469972824389 18.11177253723144
    vertex 35.88142129707149 61.07469972824389 18.500001907348633
  endloop
endfacet
facet normal -1.3877787807814457e-17 -1.0 0.0
  outer loop
    vertex 31.88142129707149 61.07469972824389 22.00000190734863
    vertex 35.88142129707149 61.07469972824389 18.500001907348633
    vertex 35.93253251838497 61.07469972824389 18.888229370117184
  endloop
endfacet
facet normal -1.3877787807814457e-17 -1.0 0.0
  outer loop
    vertex 31.88142129707149 61.07469972824389 22.00000190734863
    vertex 35.93253251838497 61.07469972824389 18.888229370117184
    vertex 36.08238336372188 61.07469972824389 19.250001907348633
  endloop
endfacet
facet normal -1.3877787807814457e-17 -1.0 0.0
  outer loop
    vertex 31.88142129707149 61.07469972824389 22.00000190734863
    vertex 36.08238336372188 61.07469972824389 19.250001907348633
    vertex 36.320761888502155 61.07469972824389 19.560661315917965
  endloop
endfacet
facet normal -1.3877787807814457e-17 -1.0 0.0
  outer loop
    vertex 31.88142129707149 61.07469972824389 22.00000190734863
    vertex 36.320761888502155 61.07469972824389 19.560661315917965
    vertex 36.63142129707149 61.07469972824389 19.799039840698242
  endloop
endfacet
facet normal -1.3877787807814457e-17 -1.0 0.0
  outer loop
    vertex 31.88142129707149 61.07469972824389 22.00000190734863
    vertex 36.63142129707149 61.07469972824389 19.799039840698242
    vertex 36.993193834302936 61.07469972824389 19.948890686035156
  endloop
endfacet
facet normal -1.3877787807814457e-17 -1.0 0.0
  outer loop
    vertex 31.88142129707149 61.07469972824389 22.00000190734863
    vertex 36.993193834302936 61.07469972824389 19.948890686035156
    vertex 37.38142225074581 61.07469972824389 20.000001907348633
  endloop
endfacet
facet normal -1.3877787807814457e-17 -1.0 0.0
  outer loop
    vertex 31.88142129707149 61.07469972824389 22.00000190734863
    vertex 37.38142225074581 61.07469972824389 20.000001907348633
    vertex 42.88142225074581 61.07469972824389 22.00000190734863
  endloop
endfacet
facet normal 1.0 0.0 0.0
  outer loop
    vertex 42.88142225074581 61.07469972824389 22.00000190734863
    vertex 42.88142225074581 66.07469972824389 15.000000953674316
    vertex 42.88142225074581 66.07469972824389 22.00000190734863
  endloop
endfacet
facet normal 1.0 0.0 0.0
  outer loop
    vertex 42.88142225074581 72.0746997282439 12.000000953674316
    vertex 42.88142225074581 104.00000004632575 4.999999987376214e-07
    vertex 42.88142225074581 104.00000004632575 12.000000453674318
  endloop
endfacet
facet normal 1.0 0.0 0.0
  outer loop
    vertex 42.88142225074581 104.00000004632575 4.999999987376214e-07
    vertex 42.88142225074581 72.0746997282439 12.000000953674316
    vertex 42.88142225074581 61.07469972824389 9.999999974752427e-07
  endloop
endfacet
facet normal 1.0 0.0 0.0
  outer loop
    vertex 42.88142225074581 61.07469972824389 9.999999974752427e-07
    vertex 42.88142225074581 72.0746997282439 12.000000953674316
    vertex 42.88142225074581 66.07469972824389 15.000000953674316
  endloop
endfacet
facet normal 1.0 0.0 0.0
  outer loop
    vertex 42.88142225074581 61.07469972824389 9.999999974752427e-07
    vertex 42.88142225074581 66.07469972824389 15.000000953674316
    vertex 42.88142225074581 61.07469972824389 22.00000190734863
  endloop
endfacet
facet normal 0.0 -1.0 0.0
  outer loop
    vertex 52.88142220442012 104.00000004632575 4.999999987376214e-07
    vertex 48.94208237457088 104.00000004632575 4.939340091430664
    vertex 42.88142225074581 104.00000004632575 4.999999987376214e-07
  endloop
endfacet
facet normal 0.0 -1.0 0.0
  outer loop
    vertex 48.94208237457088 104.00000004632575 4.939340091430664
    vertex 52.88142220442012 104.00000004632575 4.999999987376214e-07
    vertex 49.180460422513995 104.00000004632575 5.250000453674317
  endloop
endfacet
facet normal 0.0 -1.0 0.0
  outer loop
    vertex 49.180460422513995 104.00000004632575 5.250000453674317
    vertex 52.88142220442012 104.00000004632575 4.999999987376214e-07
    vertex 52.88142220442012 104.00000004632575 12.000000453674318
  endloop
endfacet
facet normal 0.0 -1.0 0.0
  outer loop
    vertex 42.88142225074581 104.00000004632575 4.999999987376214e-07
    vertex 48.94208237457088 104.00000004632575 4.939340091430664
    vertex 48.63142225074581 104.00000004632575 4.700962520324708
  endloop
endfacet
facet normal 0.0 -1.0 0.0
  outer loop
    vertex 42.88142225074581 104.00000004632575 4.999999987376214e-07
    vertex 48.63142225074581 104.00000004632575 4.700962520324708
    vertex 48.26965066718868 104.00000004632575 4.551111674987793
  endloop
endfacet
facet normal 0.0 -1.0 0.0
  outer loop
    vertex 42.88142225074581 104.00000004632575 4.999999987376214e-07
    vertex 48.26965066718868 104.00000004632575 4.551111674987793
    vertex 47.88142225074581 104.00000004632575 4.500000453674317
  endloop
endfacet
facet normal 0.0 -1.0 0.0
  outer loop
    vertex 49.180460422513995 104.00000004632575 5.250000453674317
    vertex 52.88142220442012 104.00000004632575 12.000000453674318
    vertex 49.33031102943233 104.00000004632575 5.611772037231447
  endloop
endfacet
facet normal 0.0 -1.0 0.0
  outer loop
    vertex 49.33031102943233 104.00000004632575 5.611772037231447
    vertex 52.88142220442012 104.00000004632575 12.000000453674318
    vertex 49.38142225074581 104.00000004632575 6.000000453674317
  endloop
endfacet
facet normal 0.0 -1.0 0.0
  outer loop
    vertex 49.38142225074581 104.00000004632575 6.000000453674317
    vertex 52.88142220442012 104.00000004632575 12.000000453674318
    vertex 49.33031102943233 104.00000004632575 6.388228870117188
  endloop
endfacet
facet normal 0.0 -1.0 0.0
  outer loop
    vertex 49.33031102943233 104.00000004632575 6.388228870117188
    vertex 52.88142220442012 104.00000004632575 12.000000453674318
    vertex 49.180460422513995 104.00000004632575 6.750000453674318
  endloop
endfacet
facet normal 0.0 -1.0 0.0
  outer loop
    vertex 49.180460422513995 104.00000004632575 6.750000453674318
    vertex 52.88142220442012 104.00000004632575 12.000000453674318
    vertex 48.94208237457088 104.00000004632575 7.06066081591797
  endloop
endfacet
facet normal 0.0 -1.0 0.0
  outer loop
    vertex 48.94208237457088 104.00000004632575 7.06066081591797
    vertex 52.88142220442012 104.00000004632575 12.000000453674318
    vertex 48.63142225074581 104.00000004632575 7.299038387023927
  endloop
endfacet
facet normal 0.0 -1.0 0.0
  outer loop
    vertex 48.63142225074581 104.00000004632575 7.299038387023927
    vertex 52.88142220442012 104.00000004632575 12.000000453674318
    vertex 48.26965066718868 104.00000004632575 7.448889232360841
  endloop
endfacet
facet normal 0.0 -1.0 0.0
  outer loop
    vertex 48.26965066718868 104.00000004632575 7.448889232360841
    vertex 52.88142220442012 104.00000004632575 12.000000453674318
    vertex 47.88142225074581 104.00000004632575 7.500000453674318
  endloop
endfacet
facet normal 0.0 -1.0 0.0
  outer loop
    vertex 42.88142225074581 104.00000004632575 4.999999987376214e-07
    vertex 46.5823843173962 104.00000004632575 5.250000453674317
    vertex 42.88142225074581 104.00000004632575 12.000000453674318
  endloop
endfacet
facet normal 0.0 -1.0 0.0
  outer loop
    vertex 46.5823843173962 104.00000004632575 5.250000453674317
    vertex 42.88142225074581 104.00000004632575 4.999999987376214e-07
    vertex 46.820761888502155 104.00000004632575 4.939340091430664
  endloop
endfacet
facet normal 0.0 -1.0 0.0
  outer loop
    vertex 46.820761888502155 104.00000004632575 4.939340091430664
    vertex 42.88142225074581 104.00000004632575 4.999999987376214e-07
    vertex 47.13142225074581 104.00000004632575 4.700962520324708
  endloop
endfacet
facet normal 0.0 -1.0 0.0
  outer loop
    vertex 47.13142225074581 104.00000004632575 4.700962520324708
    vertex 42.88142225074581 104.00000004632575 4.999999987376214e-07
    vertex 47.493193834302936 104.00000004632575 4.551111674987793
  endloop
endfacet
facet normal 0.0 -1.0 0.0
  outer loop
    vertex 47.493193834302936 104.00000004632575 4.551111674987793
    vertex 42.88142225074581 104.00000004632575 4.999999987376214e-07
    vertex 47.88142225074581 104.00000004632575 4.500000453674317
  endloop
endfacet
facet normal 0.0 -1.0 0.0
  outer loop
    vertex 42.88142225074581 104.00000004632575 12.000000453674318
    vertex 46.5823843173962 104.00000004632575 5.250000453674317
    vertex 46.43253347205928 104.00000004632575 5.611772037231447
  endloop
endfacet
facet normal 0.0 -1.0 0.0
  outer loop
    vertex 42.88142225074581 104.00000004632575 12.000000453674318
    vertex 46.43253347205928 104.00000004632575 5.611772037231447
    vertex 46.38142225074581 104.00000004632575 6.000000453674317
  endloop
endfacet
facet normal 0.0 -1.0 0.0
  outer loop
    vertex 42.88142225074581 104.00000004632575 12.000000453674318
    vertex 46.38142225074581 104.00000004632575 6.000000453674317
    vertex 46.43253347205928 104.00000004632575 6.388228870117188
  endloop
endfacet
facet normal 0.0 -1.0 0.0
  outer loop
    vertex 42.88142225074581 104.00000004632575 12.000000453674318
    vertex 46.43253347205928 104.00000004632575 6.388228870117188
    vertex 46.5823843173962 104.00000004632575 6.750000453674318
  endloop
endfacet
facet normal 0.0 -1.0 0.0
  outer loop
    vertex 42.88142225074581 104.00000004632575 12.000000453674318
    vertex 46.5823843173962 104.00000004632575 6.750000453674318
    vertex 46.820761888502155 104.00000004632575 7.06066081591797
  endloop
endfacet
facet normal 0.0 -1.0 0.0
  outer loop
    vertex 42.88142225074581 104.00000004632575 12.000000453674318
    vertex 46.820761888502155 104.00000004632575 7.06066081591797
    vertex 47.13142225074581 104.00000004632575 7.299038387023927
  endloop
endfacet
facet normal 0.0 -1.0 0.0
  outer loop
    vertex 42.88142225074581 104.00000004632575 12.000000453674318
    vertex 47.13142225074581 104.00000004632575 7.299038387023927
    vertex 47.493193834302936 104.00000004632575 7.448889232360841
  endloop
endfacet
facet normal 0.0 -1.0 0.0
  outer loop
    vertex 42.88142225074581 104.00000004632575 12.000000453674318
    vertex 47.493193834302936 104.00000004632575 7.448889232360841
    vertex 47.88142225074581 104.00000004632575 7.500000453674318
  endloop
endfacet
facet normal 0.0 -1.0 0.0
  outer loop
    vertex 42.88142225074581 104.00000004632575 12.000000453674318
    vertex 47.88142225074581 104.00000004632575 7.500000453674318
    vertex 52.88142220442012 104.00000004632575 12.000000453674318
  endloop
endfacet
facet normal 1.0 0.0 0.0
  outer loop
    vertex 52.88142220442012 104.00000004632575 12.000000453674318
    vertex 52.88142220442012 108.99999999999993 4.999999987376214e-07
    vertex 52.88142220442012 108.99999999999993 12.000000453674318
  endloop
endfacet
facet normal 1.0 0.0 0.0
  outer loop
    vertex 52.88142220442012 108.99999999999993 4.999999987376214e-07
    vertex 52.88142220442012 104.00000004632575 12.000000453674318
    vertex 52.88142220442012 104.00000004632575 4.999999987376214e-07
  endloop
endfacet
facet normal 1.0412183972665436e-14 1.0 0.0
  outer loop
    vertex 39.881422250745814 109.00000000000007 4.999999987376214e-07
    vertex 46.820761888502155 108.99999999999993 4.939340091430664
    vertex 52.88142220442012 108.99999999999993 4.999999987376214e-07
  endloop
endfacet
facet normal 1.0412183972665436e-14 1.0 0.0
  outer loop
    vertex 46.820761888502155 108.99999999999993 4.939340091430664
    vertex 39.881422250745814 109.00000000000007 4.999999987376214e-07
    vertex 39.881422250745814 109.00000000000007 12.000000453674318
  endloop
endfacet
facet normal 1.0412183972665436e-14 1.0 0.0
  outer loop
    vertex 52.88142220442012 108.99999999999993 4.999999987376214e-07
    vertex 46.820761888502155 108.99999999999993 4.939340091430664
    vertex 47.13142225074581 108.99999999999993 4.700962520324708
  endloop
endfacet
facet normal 1.0412183972665436e-14 1.0 0.0
  outer loop
    vertex 52.88142220442012 108.99999999999993 4.999999987376214e-07
    vertex 47.13142225074581 108.99999999999993 4.700962520324708
    vertex 47.493193834302936 108.99999999999993 4.551111674987793
  endloop
endfacet
facet normal 1.0412183972665436e-14 1.0 0.0
  outer loop
    vertex 52.88142220442012 108.99999999999993 4.999999987376214e-07
    vertex 47.493193834302936 108.99999999999993 4.551111674987793
    vertex 47.88142225074581 108.99999999999993 4.500000453674317
  endloop
endfacet
facet normal 1.0412183972665436e-14 1.0 0.0
  outer loop
    vertex 46.820761888502155 108.99999999999993 4.939340091430664
    vertex 39.881422250745814 109.00000000000007 12.000000453674318
    vertex 46.5823843173962 108.99999999999993 5.250000453674317
  endloop
endfacet
facet normal 1.0412183972665436e-14 1.0 0.0
  outer loop
    vertex 46.5823843173962 108.99999999999993 5.250000453674317
    vertex 39.881422250745814 109.00000000000007 12.000000453674318
    vertex 46.43253347205928 108.99999999999993 5.611772037231447
  endloop
endfacet
facet normal 1.0412183972665436e-14 1.0 0.0
  outer loop
    vertex 46.43253347205928 108.99999999999993 5.611772037231447
    vertex 39.881422250745814 109.00000000000007 12.000000453674318
    vertex 46.38142225074581 108.99999999999993 6.000000453674317
  endloop
endfacet
facet normal 1.0412183972665436e-14 1.0 0.0
  outer loop
    vertex 46.38142225074581 108.99999999999993 6.000000453674317
    vertex 39.881422250745814 109.00000000000007 12.000000453674318
    vertex 46.43253347205928 108.99999999999993 6.388228870117188
  endloop
endfacet
facet normal 1.0412183972665436e-14 1.0 0.0
  outer loop
    vertex 46.43253347205928 108.99999999999993 6.388228870117188
    vertex 39.881422250745814 109.00000000000007 12.000000453674318
    vertex 46.5823843173962 108.99999999999993 6.750000453674318
  endloop
endfacet
facet normal 1.0412183972665436e-14 1.0 0.0
  outer loop
    vertex 46.5823843173962 108.99999999999993 6.750000453674318
    vertex 39.881422250745814 109.00000000000007 12.000000453674318
    vertex 46.820761888502155 108.99999999999993 7.06066081591797
  endloop
endfacet
facet normal 1.0412183972665436e-14 1.0 0.0
  outer loop
    vertex 46.820761888502155 108.99999999999993 7.06066081591797
    vertex 39.881422250745814 109.00000000000007 12.000000453674318
    vertex 47.13142225074581 108.99999999999993 7.299038387023927
  endloop
endfacet
facet normal 1.0412183972665436e-14 1.0 0.0
  outer loop
    vertex 47.13142225074581 108.99999999999993 7.299038387023927
    vertex 39.881422250745814 109.00000000000007 12.000000453674318
    vertex 47.493193834302936 108.99999999999993 7.448889232360841
  endloop
endfacet
facet normal 1.0412183972665436e-14 1.0 0.0
  outer loop
    vertex 47.493193834302936 108.99999999999993 7.448889232360841
    vertex 39.881422250745814 109.00000000000007 12.000000453674318
    vertex 47.88142225074581 108.99999999999993 7.500000453674318
  endloop
endfacet
facet normal 1.0412183972665436e-14 1.0 0.0
  outer loop
    vertex 52.88142220442012 108.99999999999993 4.999999987376214e-07
    vertex 49.180460422513995 108.99999999999993 5.250000453674317
    vertex 52.88142220442012 108.99999999999993 12.000000453674318
  endloop
endfacet
facet normal 1.0412183972665436e-14 1.0 0.0
  outer loop
    vertex 49.180460422513995 108.99999999999993 5.250000453674317
    vertex 52.88142220442012 108.99999999999993 4.999999987376214e-07
    vertex 48.94208237457088 108.99999999999993 4.939340091430664
  endloop
endfacet
facet normal 1.0412183972665436e-14 1.0 0.0
  outer loop
    vertex 48.94208237457088 108.99999999999993 4.939340091430664
    vertex 52.88142220442012 108.99999999999993 4.999999987376214e-07
    vertex 48.63142225074581 108.99999999999993 4.700962520324708
  endloop
endfacet
facet normal 1.0412183972665436e-14 1.0 0.0
  outer loop
    vertex 48.63142225074581 108.99999999999993 4.700962520324708
    vertex 52.88142220442012 108.99999999999993 4.999999987376214e-07
    vertex 48.26965066718868 108.99999999999993 4.551111674987793
  endloop
endfacet
facet normal 1.0412183972665436e-14 1.0 0.0
  outer loop
    vertex 48.26965066718868 108.99999999999993 4.551111674987793
    vertex 52.88142220442012 108.99999999999993 4.999999987376214e-07
    vertex 47.88142225074581 108.99999999999993 4.500000453674317
  endloop
endfacet
facet normal 1.0412183972665436e-14 1.0 0.0
  outer loop
    vertex 52.88142220442012 108.99999999999993 12.000000453674318
    vertex 49.180460422513995 108.99999999999993 5.250000453674317
    vertex 49.33031102943233 108.99999999999993 5.611772037231447
  endloop
endfacet
facet normal 1.0412183972665436e-14 1.0 0.0
  outer loop
    vertex 52.88142220442012 108.99999999999993 12.000000453674318
    vertex 49.33031102943233 108.99999999999993 5.611772037231447
    vertex 49.38142225074581 108.99999999999993 6.000000453674317
  endloop
endfacet
facet normal 1.0412183972665436e-14 1.0 0.0
  outer loop
    vertex 52.88142220442012 108.99999999999993 12.000000453674318
    vertex 49.38142225074581 108.99999999999993 6.000000453674317
    vertex 49.33031102943233 108.99999999999993 6.388228870117188
  endloop
endfacet
facet normal 1.0412183972665436e-14 1.0 0.0
  outer loop
    vertex 52.88142220442012 108.99999999999993 12.000000453674318
    vertex 49.33031102943233 108.99999999999993 6.388228870117188
    vertex 49.180460422513995 108.99999999999993 6.750000453674318
  endloop
endfacet
facet normal 1.0412183972665436e-14 1.0 0.0
  outer loop
    vertex 52.88142220442012 108.99999999999993 12.000000453674318
    vertex 49.180460422513995 108.99999999999993 6.750000453674318
    vertex 48.94208237457088 108.99999999999993 7.06066081591797
  endloop
endfacet
facet normal 1.0412183972665436e-14 1.0 0.0
  outer loop
    vertex 52.88142220442012 108.99999999999993 12.000000453674318
    vertex 48.94208237457088 108.99999999999993 7.06066081591797
    vertex 48.63142225074581 108.99999999999993 7.299038387023927
  endloop
endfacet
facet normal 1.0412183972665436e-14 1.0 0.0
  outer loop
    vertex 52.88142220442012 108.99999999999993 12.000000453674318
    vertex 48.63142225074581 108.99999999999993 7.299038387023927
    vertex 48.26965066718868 108.99999999999993 7.448889232360841
  endloop
endfacet
facet normal 1.0412183972665436e-14 1.0 0.0
  outer loop
    vertex 52.88142220442012 108.99999999999993 12.000000453674318
    vertex 48.26965066718868 108.99999999999993 7.448889232360841
    vertex 47.88142225074581 108.99999999999993 7.500000453674318
  endloop
endfacet
facet normal 1.0412183972665436e-14 1.0 0.0
  outer loop
    vertex 52.88142220442012 108.99999999999993 12.000000453674318
    vertex 47.88142225074581 108.99999999999993 7.500000453674318
    vertex 39.881422250745814 109.00000000000007 12.000000453674318
  endloop
endfacet
facet normal -0.7071067729972434 0.7071067893758515 0.0
  outer loop
    vertex 37.8814222507458 107.00000004632577 12.000000453674318
    vertex 39.881422250745814 109.00000000000007 4.999999987376214e-07
    vertex 37.8814222507458 107.00000004632577 4.999999987376214e-07
  endloop
endfacet
facet normal -0.7071067729972434 0.7071067893758515 0.0
  outer loop
    vertex 39.881422250745814 109.00000000000007 4.999999987376214e-07
    vertex 37.8814222507458 107.00000004632577 12.000000453674318
    vertex 39.881422250745814 109.00000000000007 12.000000453674318
  endloop
endfacet
facet normal -1.434642650933185e-09 -1.1410457919876372e-08 -1.0
  outer loop
    vertex 42.88142225074581 104.00000004632575 4.999999987376214e-07
    vertex 52.88142220442012 108.99999999999993 4.999999987376214e-07
    vertex 52.88142220442012 104.00000004632575 4.999999987376214e-07
  endloop
endfacet
facet normal -1.434642650933185e-09 -1.1410457919876372e-08 -1.0
  outer loop
    vertex 52.88142220442012 108.99999999999993 4.999999987376214e-07
    vertex 42.88142225074581 104.00000004632575 4.999999987376214e-07
    vertex 39.881422250745814 109.00000000000007 4.999999987376214e-07
  endloop
endfacet
facet normal -1.434642650933185e-09 -1.1410457919876372e-08 -1.0
  outer loop
    vertex 42.88142225074581 61.07469972824389 9.999999974752427e-07
    vertex 37.8814222507458 72.0746997282439 9.999999974752427e-07
    vertex 42.88142225074581 104.00000004632575 4.999999987376214e-07
  endloop
endfacet
facet normal -1.434642650933185e-09 -1.1410457919876372e-08 -1.0
  outer loop
    vertex 37.8814222507458 72.0746997282439 9.999999974752427e-07
    vertex 42.88142225074581 61.07469972824389 9.999999974752427e-07
    vertex 31.88142129707149 61.07469972824389 9.999999974752427e-07
  endloop
endfacet
facet normal -1.434642650933185e-09 -1.1410457919876372e-08 -1.0
  outer loop
    vertex 42.88142225074581 104.00000004632575 4.999999987376214e-07
    vertex 37.8814222507458 72.0746997282439 9.999999974752427e-07
    vertex 39.881422250745814 109.00000000000007 4.999999987376214e-07
  endloop
endfacet
facet normal -1.434642650933185e-09 -1.1410457919876372e-08 -1.0
  outer loop
    vertex 37.8814222507458 72.0746997282439 9.999999974752427e-07
    vertex 31.88142129707149 61.07469972824389 9.999999974752427e-07
    vertex 31.88142129707149 66.07469972824389 9.999999974752427e-07
  endloop
endfacet
facet normal -1.434642650933185e-09 -1.1410457919876372e-08 -1.0
  outer loop
    vertex 37.8814222507458 107.00000004632577 4.999999987376214e-07
    vertex 39.881422250745814 109.00000000000007 4.999999987376214e-07
    vertex 37.8814222507458 72.0746997282439 9.999999974752427e-07
  endloop
endfacet
facet normal 9.530612805501458e-10 1.4143828265261492e-08 1.0
  outer loop
    vertex 39.881422250745814 109.00000000000007 12.000000453674318
    vertex 52.88142220442012 104.00000004632575 12.000000453674318
    vertex 52.88142220442012 108.99999999999993 12.000000453674318
  endloop
endfacet
facet normal 9.530612805501458e-10 1.4143828265261492e-08 1.0
  outer loop
    vertex 52.88142220442012 104.00000004632575 12.000000453674318
    vertex 39.881422250745814 109.00000000000007 12.000000453674318
    vertex 42.88142225074581 104.00000004632575 12.000000453674318
  endloop
endfacet
facet normal 9.530612805501458e-10 1.4143828265261492e-08 1.0
  outer loop
    vertex 42.88142225074581 104.00000004632575 12.000000453674318
    vertex 39.881422250745814 109.00000000000007 12.000000453674318
    vertex 42.88142225074581 72.0746997282439 12.000000953674316
  endloop
endfacet
facet normal 9.530612805501458e-10 1.4143828265261492e-08 1.0
  outer loop
    vertex 42.88142225074581 72.0746997282439 12.000000953674316
    vertex 39.881422250745814 109.00000000000007 12.000000453674318
    vertex 37.8814222507458 72.0746997282439 12.000000953674316
  endloop
endfacet
facet normal 9.530612805501458e-10 1.4143828265261492e-08 1.0
  outer loop
    vertex 37.8814222507458 72.0746997282439 12.000000953674316
    vertex 39.881422250745814 109.00000000000007 12.000000453674318
    vertex 37.8814222507458 107.00000004632577 12.000000453674318
  endloop
endfacet
endsolid motor_mount
