solid motor_mount
facet normal -0.6087633200973873 0.0 0.7933518892042837
  outer loop
    vertex 16.560660315917968 0.0 17.439339591430663
    vertex 16.250000907348635 4.999999953674319 17.200961066650393
    vertex 16.250000907348635 0.0 17.200961066650393
  endloop
endfacet
facet normal -0.6087633200973873 0.0 0.7933518892042837
  outer loop
    vertex 16.250000907348635 4.999999953674319 17.200961066650393
    vertex 16.560660315917968 0.0 17.439339591430663
    vertex 16.560660315917968 4.999999953674319 17.439339591430663
  endloop
endfacet
facet normal -0.7933539680030547 0.0 -0.6087606109578775
  outer loop
    vertex 6.060660315917972 39.099999999999994 7.060660315917971
    vertex 6.299037887023929 34.1 6.749999953674319
    vertex 6.060660315917972 34.1 7.060660315917971
  endloop
endfacet
facet normal -0.7933539680030547 0.0 -0.6087606109578775
  outer loop
    vertex 6.299037887023929 34.1 6.749999953674319
    vertex 6.060660315917972 39.099999999999994 7.060660315917971
    vertex 6.299037887023929 39.099999999999994 6.749999953674319
  endloop
endfacet
facet normal -0.9914448677671858 0.0 -0.130526143657534
  outer loop
    vertex 6.448888732360844 39.099999999999994 6.388228370117189
    vertex 6.499999953674321 34.1 5.999999953674318
    vertex 6.448888732360844 34.1 6.388228370117189
  endloop
endfacet
facet normal -0.9914448677671858 0.0 -0.130526143657534
  outer loop
    vertex 6.499999953674321 34.1 5.999999953674318
    vertex 6.448888732360844 39.099999999999994 6.388228370117189
    vertex 6.499999953674321 39.099999999999994 5.999999953674318
  endloop
endfacet
facet normal -0.130526143657534 -0.0 0.9914448677671858
  outer loop
    vertex 5.388228370117191 34.1 4.551111174987795
    vertex 4.999999953674321 39.099999999999994 4.499999953674318
    vertex 4.999999953674321 34.1 4.499999953674318
  endloop
endfacet
facet normal -0.130526143657534 -0.0 0.9914448677671858
  outer loop
    vertex 4.999999953674321 39.099999999999994 4.499999953674318
    vertex 5.388228370117191 34.1 4.551111174987795
    vertex 5.388228370117191 39.099999999999994 4.551111174987795
  endloop
endfacet
facet normal 0.9914448677671858 -0.0 0.130526143657534
  outer loop
    vertex 3.551111174987797 39.099999999999994 5.611771537231448
    vertex 3.4999999536743203 34.1 5.999999953674318
    vertex 3.551111174987797 34.1 5.611771537231448
  endloop
endfacet
facet normal 0.9914448677671858 -0.0 0.130526143657534
  outer loop
    vertex 3.4999999536743203 34.1 5.999999953674318
    vertex 3.551111174987797 39.099999999999994 5.611771537231448
    vertex 3.4999999536743203 39.099999999999994 5.999999953674318
  endloop
endfacet
facet normal 0.9238796132950422 1.4693771178107865e-31 0.3826832373357936
  outer loop
    vertex 3.700961781906132 39.099999999999994 5.249999953674318
    vertex 3.551111174987797 34.1 5.611771537231448
    vertex 3.700961781906132 34.1 5.249999953674318
  endloop
endfacet
facet normal 0.9238796132950422 1.4693771178107865e-31 0.3826832373357936
  outer loop
    vertex 3.551111174987797 34.1 5.611771537231448
    vertex 3.700961781906132 39.099999999999994 5.249999953674318
    vertex 3.551111174987797 39.099999999999994 5.611771537231448
  endloop
endfacet
facet normal 0.3826837570345099 0.0 -0.9238793980287429
  outer loop
    vertex 15.111771537231446 4.999999953674319 19.94888968603516
    vertex 14.749999953674317 0.0 19.799038840698245
    vertex 14.749999953674317 4.999999953674319 19.799038840698245
  endloop
endfacet
facet normal 0.3826837570345099 0.0 -0.9238793980287429
  outer loop
    vertex 14.749999953674317 0.0 19.799038840698245
    vertex 15.111771537231446 4.999999953674319 19.94888968603516
    vertex 15.111771537231446 0.0 19.94888968603516
  endloop
endfacet
facet normal -0.3826837570345106 6.086363935869196e-32 -0.9238793980287425
  outer loop
    vertex 5.74999995367432 39.099999999999994 7.299037887023928
    vertex 5.388228370117191 34.1 7.448888732360842
    vertex 5.388228370117191 39.099999999999994 7.448888732360842
  endloop
endfacet
facet normal -0.3826837570345106 6.086363935869196e-32 -0.9238793980287425
  outer loop
    vertex 5.388228370117191 34.1 7.448888732360842
    vertex 5.74999995367432 39.099999999999994 7.299037887023928
    vertex 5.74999995367432 34.1 7.299037887023928
  endloop
endfacet
facet normal 0.9914448262738911 0.0 -0.13052645883013175
  outer loop
    vertex 13.999999953674317 4.999999953674319 18.500000907348635
    vertex 14.051111174987794 0.0 18.888228370117186
    vertex 13.999999953674317 0.0 18.500000907348635
  endloop
endfacet
facet normal 0.9914448262738911 0.0 -0.13052645883013175
  outer loop
    vertex 14.051111174987794 0.0 18.888228370117186
    vertex 13.999999953674317 4.999999953674319 18.500000907348635
    vertex 14.051111174987794 4.999999953674319 18.888228370117186
  endloop
endfacet
facet normal 0.9914449092601804 0.0 0.13052582848644526
  outer loop
    vertex 14.051111174987794 4.999999953674319 18.111771537231444
    vertex 13.999999953674317 0.0 18.500000907348635
    vertex 14.051111174987794 0.0 18.111771537231444
  endloop
endfacet
facet normal 0.9914449092601804 0.0 0.13052582848644526
  outer loop
    vertex 13.999999953674317 0.0 18.500000907348635
    vertex 14.051111174987794 4.999999953674319 18.111771537231444
    vertex 13.999999953674317 4.999999953674319 18.500000907348635
  endloop
endfacet
facet normal 0.38267959943460794 0.0 0.9238811201537609
  outer loop
    vertex 15.111771537231446 0.0 17.051112128662112
    vertex 14.749999953674317 4.999999953674319 17.200961066650393
    vertex 14.749999953674317 0.0 17.200961066650393
  endloop
endfacet
facet normal 0.38267959943460794 0.0 0.9238811201537609
  outer loop
    vertex 14.749999953674317 4.999999953674319 17.200961066650393
    vertex 15.111771537231446 0.0 17.051112128662112
    vertex 15.111771537231446 4.999999953674319 17.051112128662112
  endloop
endfacet
facet normal 0.13052614365753357 0.0 0.991444867767186
  outer loop
    vertex 15.499999953674317 0.0 17.000000907348635
    vertex 15.111771537231446 4.999999953674319 17.051112128662112
    vertex 15.111771537231446 0.0 17.051112128662112
  endloop
endfacet
facet normal 0.13052614365753357 0.0 0.991444867767186
  outer loop
    vertex 15.111771537231446 4.999999953674319 17.051112128662112
    vertex 15.499999953674317 0.0 17.000000907348635
    vertex 15.499999953674317 4.999999953674319 17.000000907348635
  endloop
endfacet
facet normal -4.607718773258498e-17 0.4472135954999579 0.8944271909999159
  outer loop
    vertex 21.000000907348635 4.999999953674319 14.999999953674319
    vertex 9.999999953674319 10.999999953674317 11.999999953674319
    vertex 9.999999953674319 4.999999953674319 14.999999953674319
  endloop
endfacet
facet normal -4.607718773258498e-17 0.4472135954999579 0.8944271909999159
  outer loop
    vertex 9.999999953674319 10.999999953674317 11.999999953674319
    vertex 21.000000907348635 4.999999953674319 14.999999953674319
    vertex 14.999999953674319 10.999999953674317 11.999999953674319
  endloop
endfacet
facet normal 0.38268375703451213 -8.607403818552578e-32 0.923879398028742
  outer loop
    vertex 4.611771537231449 34.1 4.551111174987795
    vertex 4.24999995367432 39.099999999999994 4.70096202032471
    vertex 4.24999995367432 34.1 4.70096202032471
  endloop
endfacet
facet normal 0.38268375703451213 -8.607403818552578e-32 0.923879398028742
  outer loop
    vertex 4.24999995367432 39.099999999999994 4.70096202032471
    vertex 4.611771537231449 34.1 4.551111174987795
    vertex 4.611771537231449 39.099999999999994 4.551111174987795
  endloop
endfacet
facet normal -0.7933518892042801 0.0 -0.6087633200973919
  outer loop
    vertex 16.560660315917968 4.999999953674319 19.560660315917968
    vertex 16.799038840698245 0.0 19.250000907348635
    vertex 16.560660315917968 0.0 19.560660315917968
  endloop
endfacet
facet normal -0.7933518892042801 0.0 -0.6087633200973919
  outer loop
    vertex 16.799038840698245 0.0 19.250000907348635
    vertex 16.560660315917968 4.999999953674319 19.560660315917968
    vertex 16.799038840698245 4.999999953674319 19.250000907348635
  endloop
endfacet
facet normal 0.9238796132950422 1.4693771178107865e-31 -0.3826832373357936
  outer loop
    vertex 3.551111174987797 39.099999999999994 6.388228370117189
    vertex 3.700961781906132 34.1 6.749999953674319
    vertex 3.551111174987797 34.1 6.388228370117189
  endloop
endfacet
facet normal 0.9238796132950422 1.4693771178107865e-31 -0.3826832373357936
  outer loop
    vertex 3.700961781906132 34.1 6.749999953674319
    vertex 3.551111174987797 39.099999999999994 6.388228370117189
    vertex 3.700961781906132 39.099999999999994 6.749999953674319
  endloop
endfacet
facet normal 0.9238790413621416 0.0 0.3826846181018652
  outer loop
    vertex 14.200962020324708 4.999999953674319 17.750000907348635
    vertex 14.051111174987794 0.0 18.111771537231444
    vertex 14.200962020324708 0.0 17.750000907348635
  endloop
endfacet
facet normal 0.9238790413621416 0.0 0.3826846181018652
  outer loop
    vertex 14.051111174987794 0.0 18.111771537231444
    vertex 14.200962020324708 4.999999953674319 17.750000907348635
    vertex 14.051111174987794 4.999999953674319 18.111771537231444
  endloop
endfacet
facet normal 0.7933530654440788 0.0 -0.6087617871963411
  outer loop
    vertex 14.200962020324708 4.999999953674319 19.250000907348635
    vertex 14.439339591430667 0.0 19.560660315917968
    vertex 14.200962020324708 0.0 19.250000907348635
  endloop
endfacet
facet normal 0.7933530654440788 0.0 -0.6087617871963411
  outer loop
    vertex 14.439339591430667 0.0 19.560660315917968
    vertex 14.200962020324708 4.999999953674319 19.250000907348635
    vertex 14.439339591430667 4.999999953674319 19.560660315917968
  endloop
endfacet
facet normal 0.7933548705567954 0.0 0.6087594347226256
  outer loop
    vertex 14.439339591430667 4.999999953674319 17.439339591430663
    vertex 14.200962020324708 0.0 17.750000907348635
    vertex 14.439339591430667 0.0 17.439339591430663
  endloop
endfacet
facet normal 0.7933548705567954 0.0 0.6087594347226256
  outer loop
    vertex 14.200962020324708 0.0 17.750000907348635
    vertex 14.439339591430667 4.999999953674319 17.439339591430663
    vertex 14.200962020324708 4.999999953674319 17.750000907348635
  endloop
endfacet
facet normal 0.6087621438594555 0.0 0.7933527917664623
  outer loop
    vertex 14.749999953674317 0.0 17.200961066650393
    vertex 14.439339591430667 4.999999953674319 17.439339591430663
    vertex 14.439339591430667 0.0 17.439339591430663
  endloop
endfacet
facet normal 0.6087621438594555 0.0 0.7933527917664623
  outer loop
    vertex 14.439339591430667 4.999999953674319 17.439339591430663
    vertex 14.749999953674317 0.0 17.200961066650393
    vertex 14.749999953674317 4.999999953674319 17.200961066650393
  endloop
endfacet
facet normal 0.13052614365753357 0.0 -0.991444867767186
  outer loop
    vertex 15.499999953674317 4.999999953674319 20.000000907348635
    vertex 15.111771537231446 0.0 19.94888968603516
    vertex 15.111771537231446 4.999999953674319 19.94888968603516
  endloop
endfacet
facet normal 0.13052614365753357 0.0 -0.991444867767186
  outer loop
    vertex 15.111771537231446 0.0 19.94888968603516
    vertex 15.499999953674317 4.999999953674319 20.000000907348635
    vertex 15.499999953674317 0.0 20.000000907348635
  endloop
endfacet
facet normal 0.9238797546929366 0.0 -0.38268289597069705
  outer loop
    vertex 14.051111174987794 4.999999953674319 18.888228370117186
    vertex 14.200962020324708 0.0 19.250000907348635
    vertex 14.051111174987794 0.0 18.888228370117186
  endloop
endfacet
facet normal 0.9238797546929366 0.0 -0.38268289597069705
  outer loop
    vertex 14.200962020324708 0.0 19.250000907348635
    vertex 14.051111174987794 4.999999953674319 18.888228370117186
    vertex 14.200962020324708 4.999999953674319 19.250000907348635
  endloop
endfacet
facet normal -0.9914448677671858 0.0 0.130526143657534
  outer loop
    vertex 6.499999953674321 39.099999999999994 5.999999953674318
    vertex 6.448888732360844 34.1 5.611771537231448
    vertex 6.499999953674321 34.1 5.999999953674318
  endloop
endfacet
facet normal -0.9914448677671858 0.0 0.130526143657534
  outer loop
    vertex 6.448888732360844 34.1 5.611771537231448
    vertex 6.499999953674321 39.099999999999994 5.999999953674318
    vertex 6.448888732360844 39.099999999999994 5.611771537231448
  endloop
endfacet
facet normal -0.6087606109578775 -2.5235672486601346e-31 -0.7933539680030547
  outer loop
    vertex 6.060660315917972 39.099999999999994 7.060660315917971
    vertex 5.74999995367432 34.1 7.299037887023928
    vertex 5.74999995367432 39.099999999999994 7.299037887023928
  endloop
endfacet
facet normal -0.6087606109578775 -2.5235672486601346e-31 -0.7933539680030547
  outer loop
    vertex 5.74999995367432 34.1 7.299037887023928
    vertex 6.060660315917972 39.099999999999994 7.060660315917971
    vertex 6.060660315917972 34.1 7.060660315917971
  endloop
endfacet
facet normal -0.13052614365753454 0.0 0.991444867767186
  outer loop
    vertex 15.888228370117188 0.0 17.051112128662112
    vertex 15.499999953674317 4.999999953674319 17.000000907348635
    vertex 15.499999953674317 0.0 17.000000907348635
  endloop
endfacet
facet normal -0.13052614365753454 0.0 0.991444867767186
  outer loop
    vertex 15.499999953674317 4.999999953674319 17.000000907348635
    vertex 15.888228370117188 0.0 17.051112128662112
    vertex 15.888228370117188 4.999999953674319 17.051112128662112
  endloop
endfacet
facet normal 0.6087621438594599 0.0 -0.7933527917664589
  outer loop
    vertex 14.749999953674317 4.999999953674319 19.799038840698245
    vertex 14.439339591430667 0.0 19.560660315917968
    vertex 14.439339591430667 4.999999953674319 19.560660315917968
  endloop
endfacet
facet normal 0.6087621438594599 0.0 -0.7933527917664589
  outer loop
    vertex 14.439339591430667 0.0 19.560660315917968
    vertex 14.749999953674317 4.999999953674319 19.799038840698245
    vertex 14.749999953674317 0.0 19.799038840698245
  endloop
endfacet
facet normal 0.7933533798846932 -0.0 0.608761377409518
  outer loop
    vertex 3.9393398298492466 39.099999999999994 4.939339591430666
    vertex 3.700961781906132 34.1 5.249999953674318
    vertex 3.9393398298492466 34.1 4.939339591430666
  endloop
endfacet
facet normal 0.7933533798846932 -0.0 0.608761377409518
  outer loop
    vertex 3.700961781906132 34.1 5.249999953674318
    vertex 3.9393398298492466 39.099999999999994 4.939339591430666
    vertex 3.700961781906132 39.099999999999994 5.249999953674318
  endloop
endfacet
facet normal -0.6087606109578763 1.1098766133504777e-18 0.7933539680030555
  outer loop
    vertex 6.060660315917972 34.1 4.939339591430666
    vertex 5.74999995367432 39.099999999999994 4.70096202032471
    vertex 5.74999995367432 34.1 4.70096202032471
  endloop
endfacet
facet normal -0.6087606109578763 1.1098766133504777e-18 0.7933539680030555
  outer loop
    vertex 5.74999995367432 39.099999999999994 4.70096202032471
    vertex 6.060660315917972 34.1 4.939339591430666
    vertex 6.060660315917972 39.099999999999994 4.939339591430666
  endloop
endfacet
facet normal 0.13052614365753384 -2.0759428610231133e-32 -0.991444867767186
  outer loop
    vertex 4.999999953674321 39.099999999999994 7.499999953674319
    vertex 4.611771537231449 34.1 7.448888732360842
    vertex 4.611771537231449 39.099999999999994 7.448888732360842
  endloop
endfacet
facet normal 0.13052614365753384 -2.0759428610231133e-32 -0.991444867767186
  outer loop
    vertex 4.611771537231449 34.1 7.448888732360842
    vertex 4.999999953674321 39.099999999999994 7.499999953674319
    vertex 4.999999953674321 34.1 7.499999953674319
  endloop
endfacet
facet normal -0.9238790413621416 0.0 0.3826846181018652
  outer loop
    vertex 16.94888968603516 4.999999953674319 18.111771537231444
    vertex 16.799038840698245 0.0 17.750000907348635
    vertex 16.94888968603516 0.0 18.111771537231444
  endloop
endfacet
facet normal -0.9238790413621416 0.0 0.3826846181018652
  outer loop
    vertex 16.799038840698245 0.0 17.750000907348635
    vertex 16.94888968603516 4.999999953674319 18.111771537231444
    vertex 16.799038840698245 4.999999953674319 17.750000907348635
  endloop
endfacet
facet normal 0.0 -1.0 0.0
  outer loop
    vertex 21.000000907348635 0.0 22.000000907348632
    vertex 9.999999953674319 0.0 0.0
    vertex 21.000000907348635 0.0 0.0
  endloop
endfacet
facet normal 0.0 -1.0 0.0
  outer loop
    vertex 9.999999953674319 0.0 0.0
    vertex 21.000000907348635 0.0 22.000000907348632
    vertex 16.560660315917968 0.0 17.439339591430663
  endloop
endfacet
facet normal 0.0 -1.0 0.0
  outer loop
    vertex 9.999999953674319 0.0 0.0
    vertex 16.560660315917968 0.0 17.439339591430663
    vertex 16.250000907348635 0.0 17.200961066650393
  endloop
endfacet
facet normal 0.0 -1.0 0.0
  outer loop
    vertex 9.999999953674319 0.0 0.0
    vertex 16.250000907348635 0.0 17.200961066650393
    vertex 15.888228370117188 0.0 17.051112128662112
  endloop
endfacet
facet normal 0.0 -1.0 0.0
  outer loop
    vertex 9.999999953674319 0.0 0.0
    vertex 15.888228370117188 0.0 17.051112128662112
    vertex 15.499999953674317 0.0 17.000000907348635
  endloop
endfacet
facet normal 0.0 -1.0 0.0
  outer loop
    vertex 16.560660315917968 0.0 17.439339591430663
    vertex 21.000000907348635 0.0 22.000000907348632
    vertex 16.799038840698245 0.0 17.750000907348635
  endloop
endfacet
facet normal 0.0 -1.0 0.0
  outer loop
    vertex 16.799038840698245 0.0 17.750000907348635
    vertex 21.000000907348635 0.0 22.000000907348632
    vertex 16.94888968603516 0.0 18.111771537231444
  endloop
endfacet
facet normal 0.0 -1.0 0.0
  outer loop
    vertex 16.94888968603516 0.0 18.111771537231444
    vertex 21.000000907348635 0.0 22.000000907348632
    vertex 17.000000907348635 0.0 18.500000907348635
  endloop
endfacet
facet normal 0.0 -1.0 0.0
  outer loop
    vertex 17.000000907348635 0.0 18.500000907348635
    vertex 21.000000907348635 0.0 22.000000907348632
    vertex 16.94888968603516 0.0 18.888228370117186
  endloop
endfacet
facet normal 0.0 -1.0 0.0
  outer loop
    vertex 16.94888968603516 0.0 18.888228370117186
    vertex 21.000000907348635 0.0 22.000000907348632
    vertex 16.799038840698245 0.0 19.250000907348635
  endloop
endfacet
facet normal 0.0 -1.0 0.0
  outer loop
    vertex 16.799038840698245 0.0 19.250000907348635
    vertex 21.000000907348635 0.0 22.000000907348632
    vertex 16.560660315917968 0.0 19.560660315917968
  endloop
endfacet
facet normal 0.0 -1.0 0.0
  outer loop
    vertex 16.560660315917968 0.0 19.560660315917968
    vertex 21.000000907348635 0.0 22.000000907348632
    vertex 16.250000907348635 0.0 19.799038840698245
  endloop
endfacet
facet normal 0.0 -1.0 0.0
  outer loop
    vertex 16.250000907348635 0.0 19.799038840698245
    vertex 21.000000907348635 0.0 22.000000907348632
    vertex 15.888228370117188 0.0 19.94888968603516
  endloop
endfacet
facet normal 0.0 -1.0 0.0
  outer loop
    vertex 15.888228370117188 0.0 19.94888968603516
    vertex 21.000000907348635 0.0 22.000000907348632
    vertex 15.499999953674317 0.0 20.000000907348635
  endloop
endfacet
facet normal 0.0 -1.0 0.0
  outer loop
    vertex 9.999999953674319 0.0 0.0
    vertex 14.439339591430667 0.0 17.439339591430663
    vertex 9.999999953674319 0.0 22.000000907348632
  endloop
endfacet
facet normal 0.0 -1.0 0.0
  outer loop
    vertex 14.439339591430667 0.0 17.439339591430663
    vertex 9.999999953674319 0.0 0.0
    vertex 14.749999953674317 0.0 17.200961066650393
  endloop
endfacet
facet normal 0.0 -1.0 0.0
  outer loop
    vertex 14.749999953674317 0.0 17.200961066650393
    vertex 9.999999953674319 0.0 0.0
    vertex 15.111771537231446 0.0 17.051112128662112
  endloop
endfacet
facet normal 0.0 -1.0 0.0
  outer loop
    vertex 15.111771537231446 0.0 17.051112128662112
    vertex 9.999999953674319 0.0 0.0
    vertex 15.499999953674317 0.0 17.000000907348635
  endloop
endfacet
facet normal 0.0 -1.0 0.0
  outer loop
    vertex 9.999999953674319 0.0 22.000000907348632
    vertex 14.439339591430667 0.0 17.439339591430663
    vertex 14.200962020324708 0.0 17.750000907348635
  endloop
endfacet
facet normal 0.0 -1.0 0.0
  outer loop
    vertex 9.999999953674319 0.0 22.000000907348632
    vertex 14.200962020324708 0.0 17.750000907348635
    vertex 14.051111174987794 0.0 18.111771537231444
  endloop
endfacet
facet normal 0.0 -1.0 0.0
  outer loop
    vertex 9.999999953674319 0.0 22.000000907348632
    vertex 14.051111174987794 0.0 18.111771537231444
    vertex 13.999999953674317 0.0 18.500000907348635
  endloop
endfacet
facet normal 0.0 -1.0 0.0
  outer loop
    vertex 9.999999953674319 0.0 22.000000907348632
    vertex 13.999999953674317 0.0 18.500000907348635
    vertex 14.051111174987794 0.0 18.888228370117186
  endloop
endfacet
facet normal 0.0 -1.0 0.0
  outer loop
    vertex 9.999999953674319 0.0 22.000000907348632
    vertex 14.051111174987794 0.0 18.888228370117186
    vertex 14.200962020324708 0.0 19.250000907348635
  endloop
endfacet
facet normal 0.0 -1.0 0.0
  outer loop
    vertex 9.999999953674319 0.0 22.000000907348632
    vertex 14.200962020324708 0.0 19.250000907348635
    vertex 14.439339591430667 0.0 19.560660315917968
  endloop
endfacet
facet normal 0.0 -1.0 0.0
  outer loop
    vertex 9.999999953674319 0.0 22.000000907348632
    vertex 14.439339591430667 0.0 19.560660315917968
    vertex 14.749999953674317 0.0 19.799038840698245
  endloop
endfacet
facet normal 0.0 -1.0 0.0
  outer loop
    vertex 9.999999953674319 0.0 22.000000907348632
    vertex 14.749999953674317 0.0 19.799038840698245
    vertex 15.111771537231446 0.0 19.94888968603516
  endloop
endfacet
facet normal 0.0 -1.0 0.0
  outer loop
    vertex 9.999999953674319 0.0 22.000000907348632
    vertex 15.111771537231446 0.0 19.94888968603516
    vertex 15.499999953674317 0.0 20.000000907348635
  endloop
endfacet
facet normal 0.0 -1.0 0.0
  outer loop
    vertex 9.999999953674319 0.0 22.000000907348632
    vertex 15.499999953674317 0.0 20.000000907348635
    vertex 21.000000907348635 0.0 22.000000907348632
  endloop
endfacet
facet normal -0.9238797546929366 0.0 -0.38268289597069705
  outer loop
    vertex 16.799038840698245 4.999999953674319 19.250000907348635
    vertex 16.94888968603516 0.0 18.888228370117186
    vertex 16.799038840698245 0.0 19.250000907348635
  endloop
endfacet
facet normal -0.9238797546929366 0.0 -0.38268289597069705
  outer loop
    vertex 16.94888968603516 0.0 18.888228370117186
    vertex 16.799038840698245 4.999999953674319 19.250000907348635
    vertex 16.94888968603516 4.999999953674319 18.888228370117186
  endloop
endfacet
facet normal 0.7071067249907518 0.7071068373823389 4.804311629448661e-18
  outer loop
    vertex 14.999999953674319 10.999999953674317 11.999999953674319
    vertex 21.000000907348635 4.999999953674319 0.0
    vertex 14.999999953674319 10.999999953674317 0.0
  endloop
endfacet
facet normal 0.7071067249907518 0.7071068373823389 4.804311629448661e-18
  outer loop
    vertex 21.000000907348635 4.999999953674319 0.0
    vertex 14.999999953674319 10.999999953674317 11.999999953674319
    vertex 21.000000907348635 4.999999953674319 14.999999953674319
  endloop
endfacet
facet normal 0.6087609050171913 1.703273743752141e-18 -0.7933537423638021
  outer loop
    vertex 4.24999995367432 39.099999999999994 7.299037887023928
    vertex 3.9393398298492466 34.1 7.060660315917971
    vertex 3.9393398298492466 39.099999999999994 7.060660315917971
  endloop
endfacet
facet normal 0.6087609050171913 1.703273743752141e-18 -0.7933537423638021
  outer loop
    vertex 3.9393398298492466 34.1 7.060660315917971
    vertex 4.24999995367432 39.099999999999994 7.299037887023928
    vertex 4.24999995367432 34.1 7.299037887023928
  endloop
endfacet
facet normal -0.38268375703451213 -8.607403818552578e-32 0.923879398028742
  outer loop
    vertex 5.74999995367432 34.1 4.70096202032471
    vertex 5.388228370117191 39.099999999999994 4.551111174987795
    vertex 5.388228370117191 34.1 4.551111174987795
  endloop
endfacet
facet normal -0.38268375703451213 -8.607403818552578e-32 0.923879398028742
  outer loop
    vertex 5.388228370117191 39.099999999999994 4.551111174987795
    vertex 5.74999995367432 34.1 4.70096202032471
    vertex 5.74999995367432 39.099999999999994 4.70096202032471
  endloop
endfacet
facet normal 1.0 -0.0 -0.0
  outer loop
    vertex 14.999999953674319 37.1 0.0
    vertex 14.999999953674319 10.999999953674317 11.999999953674319
    vertex 14.999999953674319 10.999999953674317 0.0
  endloop
endfacet
facet normal 1.0 -0.0 -0.0
  outer loop
    vertex 14.999999953674319 10.999999953674317 11.999999953674319
    vertex 14.999999953674319 37.1 0.0
    vertex 14.999999953674319 37.1 11.999999953674319
  endloop
endfacet
facet normal 0.3826837570345106 6.086363935869196e-32 -0.9238793980287425
  outer loop
    vertex 4.611771537231449 39.099999999999994 7.448888732360842
    vertex 4.24999995367432 34.1 7.299037887023928
    vertex 4.24999995367432 39.099999999999994 7.299037887023928
  endloop
endfacet
facet normal 0.3826837570345106 6.086363935869196e-32 -0.9238793980287425
  outer loop
    vertex 4.24999995367432 34.1 7.299037887023928
    vertex 4.611771537231449 39.099999999999994 7.448888732360842
    vertex 4.611771537231449 34.1 7.448888732360842
  endloop
endfacet
facet normal -0.0 -0.0 1.0
  outer loop
    vertex 14.999999953674319 10.999999953674317 11.999999953674319
    vertex 9.999999953674319 34.1 11.999999953674319
    vertex 9.999999953674319 10.999999953674317 11.999999953674319
  endloop
endfacet
facet normal -0.0 -0.0 1.0
  outer loop
    vertex 9.999999953674319 34.1 11.999999953674319
    vertex 14.999999953674319 10.999999953674317 11.999999953674319
    vertex 12.999999953674317 39.099999999999994 11.999999953674319
  endloop
endfacet
facet normal -0.0 -0.0 1.0
  outer loop
    vertex 12.999999953674317 39.099999999999994 11.999999953674319
    vertex 14.999999953674319 10.999999953674317 11.999999953674319
    vertex 14.999999953674319 37.1 11.999999953674319
  endloop
endfacet
facet normal -0.0 -0.0 1.0
  outer loop
    vertex 9.999999953674319 34.1 11.999999953674319
    vertex 1.4099832412739487e-15 39.099999999999994 11.999999953674319
    vertex 1.4099832412739487e-15 34.1 11.999999953674319
  endloop
endfacet
facet normal -0.0 -0.0 1.0
  outer loop
    vertex 1.4099832412739487e-15 39.099999999999994 11.999999953674319
    vertex 9.999999953674319 34.1 11.999999953674319
    vertex 12.999999953674317 39.099999999999994 11.999999953674319
  endloop
endfacet
facet normal -0.9914448262738911 0.0 -0.13052645883013175
  outer loop
    vertex 16.94888968603516 4.999999953674319 18.888228370117186
    vertex 17.000000907348635 0.0 18.500000907348635
    vertex 16.94888968603516 0.0 18.888228370117186
  endloop
endfacet
facet normal -0.9914448262738911 0.0 -0.13052645883013175
  outer loop
    vertex 17.000000907348635 0.0 18.500000907348635
    vertex 16.94888968603516 4.999999953674319 18.888228370117186
    vertex 17.000000907348635 4.999999953674319 18.500000907348635
  endloop
endfacet
facet normal 0.13052614365753384 -2.0759428610231133e-32 0.991444867767186
  outer loop
    vertex 4.999999953674321 34.1 4.499999953674318
    vertex 4.611771537231449 39.099999999999994 4.551111174987795
    vertex 4.611771537231449 34.1 4.551111174987795
  endloop
endfacet
facet normal 0.13052614365753384 -2.0759428610231133e-32 0.991444867767186
  outer loop
    vertex 4.611771537231449 39.099999999999994 4.551111174987795
    vertex 4.999999953674321 34.1 4.499999953674318
    vertex 4.999999953674321 39.099999999999994 4.499999953674318
  endloop
endfacet
facet normal -0.9238793980287421 -1.4693767754421802e-31 -0.38268375703451146
  outer loop
    vertex 6.299037887023929 39.099999999999994 6.749999953674319
    vertex 6.448888732360844 34.1 6.388228370117189
    vertex 6.299037887023929 34.1 6.749999953674319
  endloop
endfacet
facet normal -0.9238793980287421 -1.4693767754421802e-31 -0.38268375703451146
  outer loop
    vertex 6.448888732360844 34.1 6.388228370117189
    vertex 6.299037887023929 39.099999999999994 6.749999953674319
    vertex 6.448888732360844 39.099999999999994 6.388228370117189
  endloop
endfacet
facet normal -0.6087633200973919 0.0 -0.7933518892042801
  outer loop
    vertex 16.560660315917968 4.999999953674319 19.560660315917968
    vertex 16.250000907348635 0.0 19.799038840698245
    vertex 16.250000907348635 4.999999953674319 19.799038840698245
  endloop
endfacet
facet normal -0.6087633200973919 0.0 -0.7933518892042801
  outer loop
    vertex 16.250000907348635 0.0 19.799038840698245
    vertex 16.560660315917968 4.999999953674319 19.560660315917968
    vertex 16.560660315917968 0.0 19.560660315917968
  endloop
endfacet
facet normal 0.0 0.0 1.0
  outer loop
    vertex 21.000000907348635 0.0 22.000000907348632
    vertex 9.999999953674319 4.999999953674319 22.000000907348632
    vertex 9.999999953674319 0.0 22.000000907348632
  endloop
endfacet
facet normal 0.0 0.0 1.0
  outer loop
    vertex 9.999999953674319 4.999999953674319 22.000000907348632
    vertex 21.000000907348635 0.0 22.000000907348632
    vertex 21.000000907348635 4.999999953674319 22.000000907348632
  endloop
endfacet
facet normal 0.7071067811865465 0.7071067811865485 -0.0
  outer loop
    vertex 12.999999953674317 39.099999999999994 11.999999953674319
    vertex 14.999999953674319 37.1 0.0
    vertex 12.999999953674317 39.099999999999994 0.0
  endloop
endfacet
facet normal 0.7071067811865465 0.7071067811865485 -0.0
  outer loop
    vertex 14.999999953674319 37.1 0.0
    vertex 12.999999953674317 39.099999999999994 11.999999953674319
    vertex 14.999999953674319 37.1 11.999999953674319
  endloop
endfacet
facet normal 0.0 0.0 -1.0
  outer loop
    vertex 12.999999953674317 39.099999999999994 0.0
    vertex 1.4099832412739487e-15 34.1 0.0
    vertex 1.4099832412739487e-15 39.099999999999994 0.0
  endloop
endfacet
facet normal 0.0 0.0 -1.0
  outer loop
    vertex 1.4099832412739487e-15 34.1 0.0
    vertex 12.999999953674317 39.099999999999994 0.0
    vertex 9.999999953674319 34.1 0.0
  endloop
endfacet
facet normal 0.0 0.0 -1.0
  outer loop
    vertex 9.999999953674319 0.0 0.0
    vertex 14.999999953674319 10.999999953674317 0.0
    vertex 21.000000907348635 0.0 0.0
  endloop
endfacet
facet normal 0.0 0.0 -1.0
  outer loop
    vertex 14.999999953674319 10.999999953674317 0.0
    vertex 9.999999953674319 0.0 0.0
    vertex 9.999999953674319 34.1 0.0
  endloop
endfacet
facet normal 0.0 0.0 -1.0
  outer loop
    vertex 14.999999953674319 10.999999953674317 0.0
    vertex 9.999999953674319 34.1 0.0
    vertex 12.999999953674317 39.099999999999994 0.0
  endloop
endfacet
facet normal 0.0 0.0 -1.0
  outer loop
    vertex 14.999999953674319 10.999999953674317 0.0
    vertex 12.999999953674317 39.099999999999994 0.0
    vertex 14.999999953674319 37.1 0.0
  endloop
endfacet
facet normal 0.0 0.0 -1.0
  outer loop
    vertex 21.000000907348635 0.0 0.0
    vertex 14.999999953674319 10.999999953674317 0.0
    vertex 21.000000907348635 4.999999953674319 0.0
  endloop
endfacet
facet normal 0.0 1.0 0.0
  outer loop
    vertex 9.999999953674319 4.999999953674319 14.999999953674319
    vertex 15.111771537231446 4.999999953674319 17.051112128662112
    vertex 21.000000907348635 4.999999953674319 14.999999953674319
  endloop
endfacet
facet normal 0.0 1.0 0.0
  outer loop
    vertex 15.111771537231446 4.999999953674319 17.051112128662112
    vertex 9.999999953674319 4.999999953674319 14.999999953674319
    vertex 14.749999953674317 4.999999953674319 17.200961066650393
  endloop
endfacet
facet normal 0.0 1.0 0.0
  outer loop
    vertex 14.749999953674317 4.999999953674319 17.200961066650393
    vertex 9.999999953674319 4.999999953674319 14.999999953674319
    vertex 14.439339591430667 4.999999953674319 17.439339591430663
  endloop
endfacet
facet normal 0.0 1.0 0.0
  outer loop
    vertex 14.439339591430667 4.999999953674319 17.439339591430663
    vertex 9.999999953674319 4.999999953674319 14.999999953674319
    vertex 9.999999953674319 4.999999953674319 22.000000907348632
  endloop
endfacet
facet normal 0.0 1.0 0.0
  outer loop
    vertex 21.000000907348635 4.999999953674319 14.999999953674319
    vertex 15.111771537231446 4.999999953674319 17.051112128662112
    vertex 15.499999953674317 4.999999953674319 17.000000907348635
  endloop
endfacet
facet normal 0.0 1.0 0.0
  outer loop
    vertex 14.439339591430667 4.999999953674319 17.439339591430663
    vertex 9.999999953674319 4.999999953674319 22.000000907348632
    vertex 14.200962020324708 4.999999953674319 17.750000907348635
  endloop
endfacet
facet normal 0.0 1.0 0.0
  outer loop
    vertex 14.200962020324708 4.999999953674319 17.750000907348635
    vertex 9.999999953674319 4.999999953674319 22.000000907348632
    vertex 14.051111174987794 4.999999953674319 18.111771537231444
  endloop
endfacet
facet normal 0.0 1.0 0.0
  outer loop
    vertex 14.051111174987794 4.999999953674319 18.111771537231444
    vertex 9.999999953674319 4.999999953674319 22.000000907348632
    vertex 13.999999953674317 4.999999953674319 18.500000907348635
  endloop
endfacet
facet normal 0.0 1.0 0.0
  outer loop
    vertex 13.999999953674317 4.999999953674319 18.500000907348635
    vertex 9.999999953674319 4.999999953674319 22.000000907348632
    vertex 14.051111174987794 4.999999953674319 18.888228370117186
  endloop
endfacet
facet normal 0.0 1.0 0.0
  outer loop
    vertex 14.051111174987794 4.999999953674319 18.888228370117186
    vertex 9.999999953674319 4.999999953674319 22.000000907348632
    vertex 14.200962020324708 4.999999953674319 19.250000907348635
  endloop
endfacet
facet normal 0.0 1.0 0.0
  outer loop
    vertex 14.200962020324708 4.999999953674319 19.250000907348635
    vertex 9.999999953674319 4.999999953674319 22.000000907348632
    vertex 14.439339591430667 4.999999953674319 19.560660315917968
  endloop
endfacet
facet normal 0.0 1.0 0.0
  outer loop
    vertex 14.439339591430667 4.999999953674319 19.560660315917968
    vertex 9.999999953674319 4.999999953674319 22.000000907348632
    vertex 14.749999953674317 4.999999953674319 19.799038840698245
  endloop
endfacet
facet normal 0.0 1.0 0.0
  outer loop
    vertex 14.749999953674317 4.999999953674319 19.799038840698245
    vertex 9.999999953674319 4.999999953674319 22.000000907348632
    vertex 15.111771537231446 4.999999953674319 19.94888968603516
  endloop
endfacet
facet normal 0.0 1.0 0.0
  outer loop
    vertex 15.111771537231446 4.999999953674319 19.94888968603516
    vertex 9.999999953674319 4.999999953674319 22.000000907348632
    vertex 15.499999953674317 4.999999953674319 20.000000907348635
  endloop
endfacet
facet normal 0.0 1.0 0.0
  outer loop
    vertex 21.000000907348635 4.999999953674319 14.999999953674319
    vertex 16.560660315917968 4.999999953674319 17.439339591430663
    vertex 21.000000907348635 4.999999953674319 22.000000907348632
  endloop
endfacet
facet normal 0.0 1.0 0.0
  outer loop
    vertex 16.560660315917968 4.999999953674319 17.439339591430663
    vertex 21.000000907348635 4.999999953674319 14.999999953674319
    vertex 16.250000907348635 4.999999953674319 17.200961066650393
  endloop
endfacet
facet normal 0.0 1.0 0.0
  outer loop
    vertex 16.250000907348635 4.999999953674319 17.200961066650393
    vertex 21.000000907348635 4.999999953674319 14.999999953674319
    vertex 15.888228370117188 4.999999953674319 17.051112128662112
  endloop
endfacet
facet normal 0.0 1.0 0.0
  outer loop
    vertex 15.888228370117188 4.999999953674319 17.051112128662112
    vertex 21.000000907348635 4.999999953674319 14.999999953674319
    vertex 15.499999953674317 4.999999953674319 17.000000907348635
  endloop
endfacet
facet normal 0.0 1.0 0.0
  outer loop
    vertex 21.000000907348635 4.999999953674319 22.000000907348632
    vertex 16.560660315917968 4.999999953674319 17.439339591430663
    vertex 16.799038840698245 4.999999953674319 17.750000907348635
  endloop
endfacet
facet normal 0.0 1.0 0.0
  outer loop
    vertex 21.000000907348635 4.999999953674319 22.000000907348632
    vertex 16.799038840698245 4.999999953674319 17.750000907348635
    vertex 16.94888968603516 4.999999953674319 18.111771537231444
  endloop
endfacet
facet normal 0.0 1.0 0.0
  outer loop
    vertex 21.000000907348635 4.999999953674319 22.000000907348632
    vertex 16.94888968603516 4.999999953674319 18.111771537231444
    vertex 17.000000907348635 4.999999953674319 18.500000907348635
  endloop
endfacet
facet normal 0.0 1.0 0.0
  outer loop
    vertex 21.000000907348635 4.999999953674319 22.000000907348632
    vertex 17.000000907348635 4.999999953674319 18.500000907348635
    vertex 16.94888968603516 4.999999953674319 18.888228370117186
  endloop
endfacet
facet normal 0.0 1.0 0.0
  outer loop
    vertex 21.000000907348635 4.999999953674319 22.000000907348632
    vertex 16.94888968603516 4.999999953674319 18.888228370117186
    vertex 16.799038840698245 4.999999953674319 19.250000907348635
  endloop
endfacet
facet normal 0.0 1.0 0.0
  outer loop
    vertex 21.000000907348635 4.999999953674319 22.000000907348632
    vertex 16.799038840698245 4.999999953674319 19.250000907348635
    vertex 16.560660315917968 4.999999953674319 19.560660315917968
  endloop
endfacet
facet normal 0.0 1.0 0.0
  outer loop
    vertex 21.000000907348635 4.999999953674319 22.000000907348632
    vertex 16.560660315917968 4.999999953674319 19.560660315917968
    vertex 16.250000907348635 4.999999953674319 19.799038840698245
  endloop
endfacet
facet normal 0.0 1.0 0.0
  outer loop
    vertex 21.000000907348635 4.999999953674319 22.000000907348632
    vertex 16.250000907348635 4.999999953674319 19.799038840698245
    vertex 15.888228370117188 4.999999953674319 19.94888968603516
  endloop
endfacet
facet normal 0.0 1.0 0.0
  outer loop
    vertex 21.000000907348635 4.999999953674319 22.000000907348632
    vertex 15.888228370117188 4.999999953674319 19.94888968603516
    vertex 15.499999953674317 4.999999953674319 20.000000907348635
  endloop
endfacet
facet normal 0.0 1.0 0.0
  outer loop
    vertex 21.000000907348635 4.999999953674319 22.000000907348632
    vertex 15.499999953674317 4.999999953674319 20.000000907348635
    vertex 9.999999953674319 4.999999953674319 22.000000907348632
  endloop
endfacet
facet normal -0.9914449092601804 0.0 0.13052582848644526
  outer loop
    vertex 17.000000907348635 4.999999953674319 18.500000907348635
    vertex 16.94888968603516 0.0 18.111771537231444
    vertex 17.000000907348635 0.0 18.500000907348635
  endloop
endfacet
facet normal -0.9914449092601804 0.0 0.13052582848644526
  outer loop
    vertex 16.94888968603516 0.0 18.111771537231444
    vertex 17.000000907348635 4.999999953674319 18.500000907348635
    vertex 16.94888968603516 4.999999953674319 18.111771537231444
  endloop
endfacet
facet normal -0.7933539680030547 0.0 0.6087606109578775
  outer loop
    vertex 6.299037887023929 39.099999999999994 5.249999953674318
    vertex 6.060660315917972 34.1 4.939339591430666
    vertex 6.299037887023929 34.1 5.249999953674318
  endloop
endfacet
facet normal -0.7933539680030547 0.0 0.6087606109578775
  outer loop
    vertex 6.060660315917972 34.1 4.939339591430666
    vertex 6.299037887023929 39.099999999999994 5.249999953674318
    vertex 6.060660315917972 39.099999999999994 4.939339591430666
  endloop
endfacet
facet normal -0.7933536943234112 0.0 0.6087609676247282
  outer loop
    vertex 16.799038840698245 4.999999953674319 17.750000907348635
    vertex 16.560660315917968 0.0 17.439339591430663
    vertex 16.799038840698245 0.0 17.750000907348635
  endloop
endfacet
facet normal -0.7933536943234112 0.0 0.6087609676247282
  outer loop
    vertex 16.560660315917968 0.0 17.439339591430663
    vertex 16.799038840698245 4.999999953674319 17.750000907348635
    vertex 16.560660315917968 4.999999953674319 17.439339591430663
  endloop
endfacet
facet normal -0.130526143657534 0.0 -0.9914448677671858
  outer loop
    vertex 5.388228370117191 39.099999999999994 7.448888732360842
    vertex 4.999999953674321 34.1 7.499999953674319
    vertex 4.999999953674321 39.099999999999994 7.499999953674319
  endloop
endfacet
facet normal -0.130526143657534 0.0 -0.9914448677671858
  outer loop
    vertex 4.999999953674321 34.1 7.499999953674319
    vertex 5.388228370117191 39.099999999999994 7.448888732360842
    vertex 5.388228370117191 34.1 7.448888732360842
  endloop
endfacet
facet normal -0.9238793980287421 -1.4693767754421802e-31 0.38268375703451146
  outer loop
    vertex 6.448888732360844 39.099999999999994 5.611771537231448
    vertex 6.299037887023929 34.1 5.249999953674318
    vertex 6.448888732360844 34.1 5.611771537231448
  endloop
endfacet
facet normal -0.9238793980287421 -1.4693767754421802e-31 0.38268375703451146
  outer loop
    vertex 6.299037887023929 34.1 5.249999953674318
    vertex 6.448888732360844 39.099999999999994 5.611771537231448
    vertex 6.299037887023929 39.099999999999994 5.249999953674318
  endloop
endfacet
facet normal 0.9914448677671858 -0.0 -0.130526143657534
  outer loop
    vertex 3.4999999536743203 39.099999999999994 5.999999953674318
    vertex 3.551111174987797 34.1 6.388228370117189
    vertex 3.4999999536743203 34.1 5.999999953674318
  endloop
endfacet
facet normal 0.9914448677671858 -0.0 -0.130526143657534
  outer loop
    vertex 3.551111174987797 34.1 6.388228370117189
    vertex 3.4999999536743203 39.099999999999994 5.999999953674318
    vertex 3.551111174987797 39.099999999999994 6.388228370117189
  endloop
endfacet
facet normal 0.6087609050171902 2.8131500414408312e-18 0.793353742363803
  outer loop
    vertex 4.24999995367432 34.1 4.70096202032471
    vertex 3.9393398298492466 39.099999999999994 4.939339591430666
    vertex 3.9393398298492466 34.1 4.939339591430666
  endloop
endfacet
facet normal 0.6087609050171902 2.8131500414408312e-18 0.793353742363803
  outer loop
    vertex 3.9393398298492466 39.099999999999994 4.939339591430666
    vertex 4.24999995367432 34.1 4.70096202032471
    vertex 4.24999995367432 39.099999999999994 4.70096202032471
  endloop
endfacet
facet normal -1.0 4.3208761136190795e-17 -4.41795752553159e-18
  outer loop
    vertex 9.999999953674319 4.999999953674319 22.000000907348632
    vertex 9.999999953674319 0.0 0.0
    vertex 9.999999953674319 0.0 22.000000907348632
  endloop
endfacet
facet normal -1.0 4.3208761136190795e-17 -4.41795752553159e-18
  outer loop
    vertex 9.999999953674319 0.0 0.0
    vertex 9.999999953674319 4.999999953674319 22.000000907348632
    vertex 9.999999953674319 4.999999953674319 14.999999953674319
  endloop
endfacet
facet normal -1.0 4.3208761136190795e-17 -4.41795752553159e-18
  outer loop
    vertex 9.999999953674319 0.0 0.0
    vertex 9.999999953674319 4.999999953674319 14.999999953674319
    vertex 9.999999953674319 34.1 0.0
  endloop
endfacet
facet normal -1.0 4.3208761136190795e-17 -4.41795752553159e-18
  outer loop
    vertex 9.999999953674319 34.1 0.0
    vertex 9.999999953674319 4.999999953674319 14.999999953674319
    vertex 9.999999953674319 10.999999953674317 11.999999953674319
  endloop
endfacet
facet normal -1.0 4.3208761136190795e-17 -4.41795752553159e-18
  outer loop
    vertex 9.999999953674319 34.1 0.0
    vertex 9.999999953674319 10.999999953674317 11.999999953674319
    vertex 9.999999953674319 34.1 11.999999953674319
  endloop
endfacet
facet normal -1.0 0.0 0.0
  outer loop
    vertex 1.4099832412739487e-15 39.099999999999994 11.999999953674319
    vertex 1.4099832412739487e-15 34.1 0.0
    vertex 1.4099832412739487e-15 34.1 11.999999953674319
  endloop
endfacet
facet normal -1.0 0.0 0.0
  outer loop
    vertex 1.4099832412739487e-15 34.1 0.0
    vertex 1.4099832412739487e-15 39.099999999999994 11.999999953674319
    vertex 1.4099832412739487e-15 39.099999999999994 0.0
  endloop
endfacet
facet normal -0.3826828959706972 0.0 -0.9238797546929366
  outer loop
    vertex 16.250000907348635 4.999999953674319 19.799038840698245
    vertex 15.888228370117188 0.0 19.94888968603516
    vertex 15.888228370117188 4.999999953674319 19.94888968603516
  endloop
endfacet
facet normal -0.3826828959706972 0.0 -0.9238797546929366
  outer loop
    vertex 15.888228370117188 0.0 19.94888968603516
    vertex 16.250000907348635 4.999999953674319 19.799038840698245
    vertex 16.250000907348635 0.0 19.799038840698245
  endloop
endfacet
facet normal 0.0 -1.0 0.0
  outer loop
    vertex 9.999999953674319 34.1 0.0
    vertex 6.060660315917972 34.1 4.939339591430666
    vertex 1.4099832412739487e-15 34.1 0.0
  endloop
endfacet
facet normal 0.0 -1.0 0.0
  outer loop
    vertex 6.060660315917972 34.1 4.939339591430666
    vertex 9.999999953674319 34.1 0.0
    vertex 6.299037887023929 34.1 5.249999953674318
  endloop
endfacet
facet normal 0.0 -1.0 0.0
  outer loop
    vertex 6.299037887023929 34.1 5.249999953674318
    vertex 9.999999953674319 34.1 0.0
    vertex 9.999999953674319 34.1 11.999999953674319
  endloop
endfacet
facet normal 0.0 -1.0 0.0
  outer loop
    vertex 1.4099832412739487e-15 34.1 0.0
    vertex 6.060660315917972 34.1 4.939339591430666
    vertex 5.74999995367432 34.1 4.70096202032471
  endloop
endfacet
facet normal 0.0 -1.0 0.0
  outer loop
    vertex 1.4099832412739487e-15 34.1 0.0
    vertex 5.74999995367432 34.1 4.70096202032471
    vertex 5.388228370117191 34.1 4.551111174987795
  endloop
endfacet
facet normal 0.0 -1.0 0.0
  outer loop
    vertex 1.4099832412739487e-15 34.1 0.0
    vertex 5.388228370117191 34.1 4.551111174987795
    vertex 4.999999953674321 34.1 4.499999953674318
  endloop
endfacet
facet normal 0.0 -1.0 0.0
  outer loop
    vertex 6.299037887023929 34.1 5.249999953674318
    vertex 9.999999953674319 34.1 11.999999953674319
    vertex 6.448888732360844 34.1 5.611771537231448
  endloop
endfacet
facet normal 0.0 -1.0 0.0
  outer loop
    vertex 6.448888732360844 34.1 5.611771537231448
    vertex 9.999999953674319 34.1 11.999999953674319
    vertex 6.499999953674321 34.1 5.999999953674318
  endloop
endfacet
facet normal 0.0 -1.0 0.0
  outer loop
    vertex 6.499999953674321 34.1 5.999999953674318
    vertex 9.999999953674319 34.1 11.999999953674319
    vertex 6.448888732360844 34.1 6.388228370117189
  endloop
endfacet
facet normal 0.0 -1.0 0.0
  outer loop
    vertex 6.448888732360844 34.1 6.388228370117189
    vertex 9.999999953674319 34.1 11.999999953674319
    vertex 6.299037887023929 34.1 6.749999953674319
  endloop
endfacet
facet normal 0.0 -1.0 0.0
  outer loop
    vertex 6.299037887023929 34.1 6.749999953674319
    vertex 9.999999953674319 34.1 11.999999953674319
    vertex 6.060660315917972 34.1 7.060660315917971
  endloop
endfacet
facet normal 0.0 -1.0 0.0
  outer loop
    vertex 6.060660315917972 34.1 7.060660315917971
    vertex 9.999999953674319 34.1 11.999999953674319
    vertex 5.74999995367432 34.1 7.299037887023928
  endloop
endfacet
facet normal 0.0 -1.0 0.0
  outer loop
    vertex 5.74999995367432 34.1 7.299037887023928
    vertex 9.999999953674319 34.1 11.999999953674319
    vertex 5.388228370117191 34.1 7.448888732360842
  endloop
endfacet
facet normal 0.0 -1.0 0.0
  outer loop
    vertex 5.388228370117191 34.1 7.448888732360842
    vertex 9.999999953674319 34.1 11.999999953674319
    vertex 4.999999953674321 34.1 7.499999953674319
  endloop
endfacet
facet normal 0.0 -1.0 0.0
  outer loop
    vertex 1.4099832412739487e-15 34.1 0.0
    vertex 3.700961781906132 34.1 5.249999953674318
    vertex 1.4099832412739487e-15 34.1 11.999999953674319
  endloop
endfacet
facet normal 0.0 -1.0 0.0
  outer loop
    vertex 3.700961781906132 34.1 5.249999953674318
    vertex 1.4099832412739487e-15 34.1 0.0
    vertex 3.9393398298492466 34.1 4.939339591430666
  endloop
endfacet
facet normal 0.0 -1.0 0.0
  outer loop
    vertex 3.9393398298492466 34.1 4.939339591430666
    vertex 1.4099832412739487e-15 34.1 0.0
    vertex 4.24999995367432 34.1 4.70096202032471
  endloop
endfacet
facet normal 0.0 -1.0 0.0
  outer loop
    vertex 4.24999995367432 34.1 4.70096202032471
    vertex 1.4099832412739487e-15 34.1 0.0
    vertex 4.611771537231449 34.1 4.551111174987795
  endloop
endfacet
facet normal 0.0 -1.0 0.0
  outer loop
    vertex 4.611771537231449 34.1 4.551111174987795
    vertex 1.4099832412739487e-15 34.1 0.0
    vertex 4.999999953674321 34.1 4.499999953674318
  endloop
endfacet
facet normal 0.0 -1.0 0.0
  outer loop
    vertex 1.4099832412739487e-15 34.1 11.999999953674319
    vertex 3.700961781906132 34.1 5.249999953674318
    vertex 3.551111174987797 34.1 5.611771537231448
  endloop
endfacet
facet normal 0.0 -1.0 0.0
  outer loop
    vertex 1.4099832412739487e-15 34.1 11.999999953674319
    vertex 3.551111174987797 34.1 5.611771537231448
    vertex 3.4999999536743203 34.1 5.999999953674318
  endloop
endfacet
facet normal 0.0 -1.0 0.0
  outer loop
    vertex 1.4099832412739487e-15 34.1 11.999999953674319
    vertex 3.4999999536743203 34.1 5.999999953674318
    vertex 3.551111174987797 34.1 6.388228370117189
  endloop
endfacet
facet normal 0.0 -1.0 0.0
  outer loop
    vertex 1.4099832412739487e-15 34.1 11.999999953674319
    vertex 3.551111174987797 34.1 6.388228370117189
    vertex 3.700961781906132 34.1 6.749999953674319
  endloop
endfacet
facet normal 0.0 -1.0 0.0
  outer loop
    vertex 1.4099832412739487e-15 34.1 11.999999953674319
    vertex 3.700961781906132 34.1 6.749999953674319
    vertex 3.9393398298492466 34.1 7.060660315917971
  endloop
endfacet
facet normal 0.0 -1.0 0.0
  outer loop
    vertex 1.4099832412739487e-15 34.1 11.999999953674319
    vertex 3.9393398298492466 34.1 7.060660315917971
    vertex 4.24999995367432 34.1 7.299037887023928
  endloop
endfacet
facet normal 0.0 -1.0 0.0
  outer loop
    vertex 1.4099832412739487e-15 34.1 11.999999953674319
    vertex 4.24999995367432 34.1 7.299037887023928
    vertex 4.611771537231449 34.1 7.448888732360842
  endloop
endfacet
facet normal 0.0 -1.0 0.0
  outer loop
    vertex 1.4099832412739487e-15 34.1 11.999999953674319
    vertex 4.611771537231449 34.1 7.448888732360842
    vertex 4.999999953674321 34.1 7.499999953674319
  endloop
endfacet
facet normal 0.0 -1.0 0.0
  outer loop
    vertex 1.4099832412739487e-15 34.1 11.999999953674319
    vertex 4.999999953674321 34.1 7.499999953674319
    vertex 9.999999953674319 34.1 11.999999953674319
  endloop
endfacet
facet normal 1.0 0.0 0.0
  outer loop
    vertex 21.000000907348635 4.999999953674319 0.0
    vertex 21.000000907348635 0.0 22.000000907348632
    vertex 21.000000907348635 0.0 0.0
  endloop
endfacet
facet normal 1.0 0.0 0.0
  outer loop
    vertex 21.000000907348635 0.0 22.000000907348632
    vertex 21.000000907348635 4.999999953674319 0.0
    vertex 21.000000907348635 4.999999953674319 22.000000907348632
  endloop
endfacet
facet normal 1.0 0.0 0.0
  outer loop
    vertex 21.000000907348635 4.999999953674319 22.000000907348632
    vertex 21.000000907348635 4.999999953674319 0.0
    vertex 21.000000907348635 4.999999953674319 14.999999953674319
  endloop
endfacet
facet normal 0.7933533798846932 -0.0 -0.608761377409518
  outer loop
    vertex 3.700961781906132 39.099999999999994 6.749999953674319
    vertex 3.9393398298492466 34.1 7.060660315917971
    vertex 3.700961781906132 34.1 6.749999953674319
  endloop
endfacet
facet normal 0.7933533798846932 -0.0 -0.608761377409518
  outer loop
    vertex 3.9393398298492466 34.1 7.060660315917971
    vertex 3.700961781906132 39.099999999999994 6.749999953674319
    vertex 3.9393398298492466 39.099999999999994 7.060660315917971
  endloop
endfacet
facet normal -0.13052614365753454 0.0 -0.991444867767186
  outer loop
    vertex 15.888228370117188 4.999999953674319 19.94888968603516
    vertex 15.499999953674317 0.0 20.000000907348635
    vertex 15.499999953674317 4.999999953674319 20.000000907348635
  endloop
endfacet
facet normal -0.13052614365753454 0.0 -0.991444867767186
  outer loop
    vertex 15.499999953674317 0.0 20.000000907348635
    vertex 15.888228370117188 4.999999953674319 19.94888968603516
    vertex 15.888228370117188 0.0 19.94888968603516
  endloop
endfacet
facet normal -0.38267873837694005 0.0 0.9238814768108696
  outer loop
    vertex 16.250000907348635 0.0 17.200961066650393
    vertex 15.888228370117188 4.999999953674319 17.051112128662112
    vertex 15.888228370117188 0.0 17.051112128662112
  endloop
endfacet
facet normal -0.38267873837694005 0.0 0.9238814768108696
  outer loop
    vertex 15.888228370117188 4.999999953674319 17.051112128662112
    vertex 16.250000907348635 0.0 17.200961066650393
    vertex 16.250000907348635 4.999999953674319 17.200961066650393
  endloop
endfacet
facet normal -0.0 1.0 -0.0
  outer loop
    vertex 1.4099832412739487e-15 39.099999999999994 0.0
    vertex 4.24999995367432 39.099999999999994 4.70096202032471
    vertex 12.999999953674317 39.099999999999994 0.0
  endloop
endfacet
facet normal -0.0 1.0 -0.0
  outer loop
    vertex 4.24999995367432 39.099999999999994 4.70096202032471
    vertex 1.4099832412739487e-15 39.099999999999994 0.0
    vertex 3.9393398298492466 39.099999999999994 4.939339591430666
  endloop
endfacet
facet normal -0.0 1.0 -0.0
  outer loop
    vertex 3.9393398298492466 39.099999999999994 4.939339591430666
    vertex 1.4099832412739487e-15 39.099999999999994 0.0
    vertex 3.700961781906132 39.099999999999994 5.249999953674318
  endloop
endfacet
facet normal -0.0 1.0 -0.0
  outer loop
    vertex 3.700961781906132 39.099999999999994 5.249999953674318
    vertex 1.4099832412739487e-15 39.099999999999994 0.0
    vertex 1.4099832412739487e-15 39.099999999999994 11.999999953674319
  endloop
endfacet
facet normal -0.0 1.0 -0.0
  outer loop
    vertex 12.999999953674317 39.099999999999994 0.0
    vertex 4.24999995367432 39.099999999999994 4.70096202032471
    vertex 4.611771537231449 39.099999999999994 4.551111174987795
  endloop
endfacet
facet normal -0.0 1.0 -0.0
  outer loop
    vertex 12.999999953674317 39.099999999999994 0.0
    vertex 4.611771537231449 39.099999999999994 4.551111174987795
    vertex 4.999999953674321 39.099999999999994 4.499999953674318
  endloop
endfacet
facet normal -0.0 1.0 -0.0
  outer loop
    vertex 3.700961781906132 39.099999999999994 5.249999953674318
    vertex 1.4099832412739487e-15 39.099999999999994 11.999999953674319
    vertex 3.551111174987797 39.099999999999994 5.611771537231448
  endloop
endfacet
facet normal -0.0 1.0 -0.0
  outer loop
    vertex 3.551111174987797 39.099999999999994 5.611771537231448
    vertex 1.4099832412739487e-15 39.099999999999994 11.999999953674319
    vertex 3.4999999536743203 39.099999999999994 5.999999953674318
  endloop
endfacet
facet normal -0.0 1.0 -0.0
  outer loop
    vertex 3.4999999536743203 39.099999999999994 5.999999953674318
    vertex 1.4099832412739487e-15 39.099999999999994 11.999999953674319
    vertex 3.551111174987797 39.099999999999994 6.388228370117189
  endloop
endfacet
facet normal -0.0 1.0 -0.0
  outer loop
    vertex 3.551111174987797 39.099999999999994 6.388228370117189
    vertex 1.4099832412739487e-15 39.099999999999994 11.999999953674319
    vertex 3.700961781906132 39.099999999999994 6.749999953674319
  endloop
endfacet
facet normal -0.0 1.0 -0.0
  outer loop
    vertex 3.700961781906132 39.099999999999994 6.749999953674319
    vertex 1.4099832412739487e-15 39.099999999999994 11.999999953674319
    vertex 3.9393398298492466 39.099999999999994 7.060660315917971
  endloop
endfacet
facet normal -0.0 1.0 -0.0
  outer loop
    vertex 3.9393398298492466 39.099999999999994 7.060660315917971
    vertex 1.4099832412739487e-15 39.099999999999994 11.999999953674319
    vertex 4.24999995367432 39.099999999999994 7.299037887023928
  endloop
endfacet
facet normal -0.0 1.0 -0.0
  outer loop
    vertex 4.24999995367432 39.099999999999994 7.299037887023928
    vertex 1.4099832412739487e-15 39.099999999999994 11.999999953674319
    vertex 4.611771537231449 39.099999999999994 7.448888732360842
  endloop
endfacet
facet normal -0.0 1.0 -0.0
  outer loop
    vertex 4.611771537231449 39.099999999999994 7.448888732360842
    vertex 1.4099832412739487e-15 39.099999999999994 11.999999953674319
    vertex 4.999999953674321 39.099999999999994 7.499999953674319
  endloop
endfacet
facet normal -0.0 1.0 -0.0
  outer loop
    vertex 12.999999953674317 39.099999999999994 0.0
    vertex 6.060660315917972 39.099999999999994 4.939339591430666
    vertex 12.999999953674317 39.099999999999994 11.999999953674319
  endloop
endfacet
facet normal -0.0 1.0 -0.0
  outer loop
    vertex 6.060660315917972 39.099999999999994 4.939339591430666
    vertex 12.999999953674317 39.099999999999994 0.0
    vertex 5.74999995367432 39.099999999999994 4.70096202032471
  endloop
endfacet
facet normal -0.0 1.0 -0.0
  outer loop
    vertex 5.74999995367432 39.099999999999994 4.70096202032471
    vertex 12.999999953674317 39.099999999999994 0.0
    vertex 5.388228370117191 39.099999999999994 4.551111174987795
  endloop
endfacet
facet normal -0.0 1.0 -0.0
  outer loop
    vertex 5.388228370117191 39.099999999999994 4.551111174987795
    vertex 12.999999953674317 39.099999999999994 0.0
    vertex 4.999999953674321 39.099999999999994 4.499999953674318
  endloop
endfacet
facet normal -0.0 1.0 -0.0
  outer loop
    vertex 12.999999953674317 39.099999999999994 11.999999953674319
    vertex 6.060660315917972 39.099999999999994 4.939339591430666
    vertex 6.299037887023929 39.099999999999994 5.249999953674318
  endloop
endfacet
facet normal -0.0 1.0 -0.0
  outer loop
    vertex 12.999999953674317 39.099999999999994 11.999999953674319
    vertex 6.299037887023929 39.099999999999994 5.249999953674318
    vertex 6.448888732360844 39.099999999999994 5.611771537231448
  endloop
endfacet
facet normal -0.0 1.0 -0.0
  outer loop
    vertex 12.999999953674317 39.099999999999994 11.999999953674319
    vertex 6.448888732360844 39.099999999999994 5.611771537231448
    vertex 6.499999953674321 39.099999999999994 5.999999953674318
  endloop
endfacet
facet normal -0.0 1.0 -0.0
  outer loop
    vertex 12.999999953674317 39.099999999999994 11.999999953674319
    vertex 6.499999953674321 39.099999999999994 5.999999953674318
    vertex 6.448888732360844 39.099999999999994 6.388228370117189
  endloop
endfacet
facet normal -0.0 1.0 -0.0
  outer loop
    vertex 12.999999953674317 39.099999999999994 11.999999953674319
    vertex 6.448888732360844 39.099999999999994 6.388228370117189
    vertex 6.299037887023929 39.099999999999994 6.749999953674319
  endloop
endfacet
facet normal -0.0 1.0 -0.0
  outer loop
    vertex 12.999999953674317 39.099999999999994 11.999999953674319
    vertex 6.299037887023929 39.099999999999994 6.749999953674319
    vertex 6.060660315917972 39.099999999999994 7.060660315917971
  endloop
endfacet
facet normal -0.0 1.0 -0.0
  outer loop
    vertex 12.999999953674317 39.099999999999994 11.999999953674319
    vertex 6.060660315917972 39.099999999999994 7.060660315917971
    vertex 5.74999995367432 39.099999999999994 7.299037887023928
  endloop
endfacet
facet normal -0.0 1.0 -0.0
  outer loop
    vertex 12.999999953674317 39.099999999999994 11.999999953674319
    vertex 5.74999995367432 39.099999999999994 7.299037887023928
    vertex 5.388228370117191 39.099999999999994 7.448888732360842
  endloop
endfacet
facet normal -0.0 1.0 -0.0
  outer loop
    vertex 12.999999953674317 39.099999999999994 11.999999953674319
    vertex 5.388228370117191 39.099999999999994 7.448888732360842
    vertex 4.999999953674321 39.099999999999994 7.499999953674319
  endloop
endfacet
facet normal -0.0 1.0 -0.0
  outer loop
    vertex 12.999999953674317 39.099999999999994 11.999999953674319
    vertex 4.999999953674321 39.099999999999994 7.499999953674319
    vertex 1.4099832412739487e-15 39.099999999999994 11.999999953674319
  endloop
endfacet
endsolid motor_mount
