solid motor_mount
facet normal -0.6087633200973873 0.0 0.7933518892042837
  outer loop
    vertex 16.560660315917968 61.0 17.439339591430663
    vertex 16.250000907348635 65.99999995367432 17.200961066650393
    vertex 16.250000907348635 61.0 17.200961066650393
  endloop
endfacet
facet normal -0.6087633200973873 0.0 0.7933518892042837
  outer loop
    vertex 16.250000907348635 65.99999995367432 17.200961066650393
    vertex 16.560660315917968 61.0 17.439339591430663
    vertex 16.560660315917968 65.99999995367432 17.439339591430663
  endloop
endfacet
facet normal -0.7933539680030547 0.0 -0.6087606109578774
  outer loop
    vertex 6.0606603159179695 109.0 7.060660315917971
    vertex 6.2990378870239265 104.00000000000001 6.749999953674319
    vertex 6.0606603159179695 104.00000000000001 7.060660315917971
  endloop
endfacet
facet normal -0.7933539680030547 0.0 -0.6087606109578774
  outer loop
    vertex 6.2990378870239265 104.00000000000001 6.749999953674319
    vertex 6.0606603159179695 109.0 7.060660315917971
    vertex 6.2990378870239265 109.0 6.749999953674319
  endloop
endfacet
facet normal -0.991444867767186 0.0 -0.13052614365753407
  outer loop
    vertex 6.448888732360841 109.0 6.388228370117189
    vertex 6.499999953674317 104.00000000000001 5.999999953674318
    vertex 6.448888732360841 104.00000000000001 6.388228370117189
  endloop
endfacet
facet normal -0.991444867767186 0.0 -0.13052614365753407
  outer loop
    vertex 6.499999953674317 104.00000000000001 5.999999953674318
    vertex 6.448888732360841 109.0 6.388228370117189
    vertex 6.499999953674317 109.0 5.999999953674318
  endloop
endfacet
facet normal -0.13052614365753407 0.0 0.991444867767186
  outer loop
    vertex 5.388228370117188 104.00000000000001 4.551111174987795
    vertex 4.999999953674317 109.0 4.499999953674318
    vertex 4.999999953674317 104.00000000000001 4.499999953674318
  endloop
endfacet
facet normal -0.13052614365753407 0.0 0.991444867767186
  outer loop
    vertex 4.999999953674317 109.0 4.499999953674318
    vertex 5.388228370117188 104.00000000000001 4.551111174987795
    vertex 5.388228370117188 109.0 4.551111174987795
  endloop
endfacet
facet normal 0.991444867767186 0.0 0.13052614365753407
  outer loop
    vertex 3.551111174987794 109.0 5.611771537231448
    vertex 3.4999999536743176 104.00000000000001 5.999999953674318
    vertex 3.551111174987794 104.00000000000001 5.611771537231448
  endloop
endfacet
facet normal 0.991444867767186 0.0 0.13052614365753407
  outer loop
    vertex 3.4999999536743176 104.00000000000001 5.999999953674318
    vertex 3.551111174987794 109.0 5.611771537231448
    vertex 3.4999999536743176 109.0 5.999999953674318
  endloop
endfacet
facet normal 0.9238796132950422 0.0 0.3826832373357936
  outer loop
    vertex 3.700961781906129 109.0 5.249999953674318
    vertex 3.551111174987794 104.00000000000001 5.611771537231448
    vertex 3.700961781906129 104.00000000000001 5.249999953674318
  endloop
endfacet
facet normal 0.9238796132950422 0.0 0.3826832373357936
  outer loop
    vertex 3.551111174987794 104.00000000000001 5.611771537231448
    vertex 3.700961781906129 109.0 5.249999953674318
    vertex 3.551111174987794 109.0 5.611771537231448
  endloop
endfacet
facet normal 0.3826837570345099 0.0 -0.9238793980287429
  outer loop
    vertex 15.111771537231446 65.99999995367432 19.94888968603516
    vertex 14.749999953674317 61.0 19.799038840698245
    vertex 14.749999953674317 65.99999995367432 19.799038840698245
  endloop
endfacet
facet normal 0.3826837570345099 0.0 -0.9238793980287429
  outer loop
    vertex 14.749999953674317 61.0 19.799038840698245
    vertex 15.111771537231446 65.99999995367432 19.94888968603516
    vertex 15.111771537231446 61.0 19.94888968603516
  endloop
endfacet
facet normal -0.3826837570345106 0.0 -0.9238793980287425
  outer loop
    vertex 5.749999953674317 109.0 7.299037887023928
    vertex 5.388228370117188 104.00000000000001 7.448888732360842
    vertex 5.388228370117188 109.0 7.448888732360842
  endloop
endfacet
facet normal -0.3826837570345106 0.0 -0.9238793980287425
  outer loop
    vertex 5.388228370117188 104.00000000000001 7.448888732360842
    vertex 5.749999953674317 109.0 7.299037887023928
    vertex 5.749999953674317 104.00000000000001 7.299037887023928
  endloop
endfacet
facet normal 0.9914448262738911 0.0 -0.13052645883013175
  outer loop
    vertex 13.999999953674317 65.99999995367432 18.500000907348635
    vertex 14.051111174987794 61.0 18.888228370117186
    vertex 13.999999953674317 61.0 18.500000907348635
  endloop
endfacet
facet normal 0.9914448262738911 0.0 -0.13052645883013175
  outer loop
    vertex 14.051111174987794 61.0 18.888228370117186
    vertex 13.999999953674317 65.99999995367432 18.500000907348635
    vertex 14.051111174987794 65.99999995367432 18.888228370117186
  endloop
endfacet
facet normal 0.9914449092601804 0.0 0.13052582848644526
  outer loop
    vertex 14.051111174987794 65.99999995367432 18.111771537231444
    vertex 13.999999953674317 61.0 18.500000907348635
    vertex 14.051111174987794 61.0 18.111771537231444
  endloop
endfacet
facet normal 0.9914449092601804 0.0 0.13052582848644526
  outer loop
    vertex 13.999999953674317 61.0 18.500000907348635
    vertex 14.051111174987794 65.99999995367432 18.111771537231444
    vertex 13.999999953674317 65.99999995367432 18.500000907348635
  endloop
endfacet
facet normal 0.38267959943460794 0.0 0.9238811201537609
  outer loop
    vertex 15.111771537231446 61.0 17.051112128662112
    vertex 14.749999953674317 65.99999995367432 17.200961066650393
    vertex 14.749999953674317 61.0 17.200961066650393
  endloop
endfacet
facet normal 0.38267959943460794 0.0 0.9238811201537609
  outer loop
    vertex 14.749999953674317 65.99999995367432 17.200961066650393
    vertex 15.111771537231446 61.0 17.051112128662112
    vertex 15.111771537231446 65.99999995367432 17.051112128662112
  endloop
endfacet
facet normal 0.13052614365753357 0.0 0.991444867767186
  outer loop
    vertex 15.499999953674317 61.0 17.000000907348635
    vertex 15.111771537231446 65.99999995367432 17.051112128662112
    vertex 15.111771537231446 61.0 17.051112128662112
  endloop
endfacet
facet normal 0.13052614365753357 0.0 0.991444867767186
  outer loop
    vertex 15.111771537231446 65.99999995367432 17.051112128662112
    vertex 15.499999953674317 61.0 17.000000907348635
    vertex 15.499999953674317 65.99999995367432 17.000000907348635
  endloop
endfacet
facet normal -4.607718773258499e-17 0.44721359549995804 0.8944271909999161
  outer loop
    vertex 21.000000907348635 65.99999995367432 14.999999953674319
    vertex 9.999999953674319 71.99999995367432 11.999999953674319
    vertex 9.999999953674319 65.99999995367432 14.999999953674319
  endloop
endfacet
facet normal -4.607718773258499e-17 0.44721359549995804 0.8944271909999161
  outer loop
    vertex 9.999999953674319 71.99999995367432 11.999999953674319
    vertex 21.000000907348635 65.99999995367432 14.999999953674319
    vertex 14.999999953674319 71.99999995367432 11.999999953674319
  endloop
endfacet
facet normal 0.38268375703451213 0.0 0.923879398028742
  outer loop
    vertex 4.611771537231446 104.00000000000001 4.551111174987795
    vertex 4.249999953674317 109.0 4.70096202032471
    vertex 4.249999953674317 104.00000000000001 4.70096202032471
  endloop
endfacet
facet normal 0.38268375703451213 0.0 0.923879398028742
  outer loop
    vertex 4.249999953674317 109.0 4.70096202032471
    vertex 4.611771537231446 104.00000000000001 4.551111174987795
    vertex 4.611771537231446 109.0 4.551111174987795
  endloop
endfacet
facet normal -0.7933518892042801 0.0 -0.6087633200973919
  outer loop
    vertex 16.560660315917968 65.99999995367432 19.560660315917968
    vertex 16.799038840698245 61.0 19.250000907348635
    vertex 16.560660315917968 61.0 19.560660315917968
  endloop
endfacet
facet normal -0.7933518892042801 0.0 -0.6087633200973919
  outer loop
    vertex 16.799038840698245 61.0 19.250000907348635
    vertex 16.560660315917968 65.99999995367432 19.560660315917968
    vertex 16.799038840698245 65.99999995367432 19.250000907348635
  endloop
endfacet
facet normal 0.9238796132950422 0.0 -0.3826832373357936
  outer loop
    vertex 3.551111174987794 109.0 6.388228370117189
    vertex 3.700961781906129 104.00000000000001 6.749999953674319
    vertex 3.551111174987794 104.00000000000001 6.388228370117189
  endloop
endfacet
facet normal 0.9238796132950422 0.0 -0.3826832373357936
  outer loop
    vertex 3.700961781906129 104.00000000000001 6.749999953674319
    vertex 3.551111174987794 109.0 6.388228370117189
    vertex 3.700961781906129 109.0 6.749999953674319
  endloop
endfacet
facet normal 0.9238790413621416 0.0 0.3826846181018652
  outer loop
    vertex 14.200962020324708 65.99999995367432 17.750000907348635
    vertex 14.051111174987794 61.0 18.111771537231444
    vertex 14.200962020324708 61.0 17.750000907348635
  endloop
endfacet
facet normal 0.9238790413621416 0.0 0.3826846181018652
  outer loop
    vertex 14.051111174987794 61.0 18.111771537231444
    vertex 14.200962020324708 65.99999995367432 17.750000907348635
    vertex 14.051111174987794 65.99999995367432 18.111771537231444
  endloop
endfacet
facet normal 0.7933530654440788 0.0 -0.6087617871963411
  outer loop
    vertex 14.200962020324708 65.99999995367432 19.250000907348635
    vertex 14.439339591430667 61.0 19.560660315917968
    vertex 14.200962020324708 61.0 19.250000907348635
  endloop
endfacet
facet normal 0.7933530654440788 0.0 -0.6087617871963411
  outer loop
    vertex 14.439339591430667 61.0 19.560660315917968
    vertex 14.200962020324708 65.99999995367432 19.250000907348635
    vertex 14.439339591430667 65.99999995367432 19.560660315917968
  endloop
endfacet
facet normal 0.7933548705567954 0.0 0.6087594347226256
  outer loop
    vertex 14.439339591430667 65.99999995367432 17.439339591430663
    vertex 14.200962020324708 61.0 17.750000907348635
    vertex 14.439339591430667 61.0 17.439339591430663
  endloop
endfacet
facet normal 0.7933548705567954 0.0 0.6087594347226256
  outer loop
    vertex 14.200962020324708 61.0 17.750000907348635
    vertex 14.439339591430667 65.99999995367432 17.439339591430663
    vertex 14.200962020324708 65.99999995367432 17.750000907348635
  endloop
endfacet
facet normal 0.6087621438594555 0.0 0.7933527917664623
  outer loop
    vertex 14.749999953674317 61.0 17.200961066650393
    vertex 14.439339591430667 65.99999995367432 17.439339591430663
    vertex 14.439339591430667 61.0 17.439339591430663
  endloop
endfacet
facet normal 0.6087621438594555 0.0 0.7933527917664623
  outer loop
    vertex 14.439339591430667 65.99999995367432 17.439339591430663
    vertex 14.749999953674317 61.0 17.200961066650393
    vertex 14.749999953674317 65.99999995367432 17.200961066650393
  endloop
endfacet
facet normal 0.13052614365753357 0.0 -0.991444867767186
  outer loop
    vertex 15.499999953674317 65.99999995367432 20.000000907348635
    vertex 15.111771537231446 61.0 19.94888968603516
    vertex 15.111771537231446 65.99999995367432 19.94888968603516
  endloop
endfacet
facet normal 0.13052614365753357 0.0 -0.991444867767186
  outer loop
    vertex 15.111771537231446 61.0 19.94888968603516
    vertex 15.499999953674317 65.99999995367432 20.000000907348635
    vertex 15.499999953674317 61.0 20.000000907348635
  endloop
endfacet
facet normal 0.9238797546929366 0.0 -0.38268289597069705
  outer loop
    vertex 14.051111174987794 65.99999995367432 18.888228370117186
    vertex 14.200962020324708 61.0 19.250000907348635
    vertex 14.051111174987794 61.0 18.888228370117186
  endloop
endfacet
facet normal 0.9238797546929366 0.0 -0.38268289597069705
  outer loop
    vertex 14.200962020324708 61.0 19.250000907348635
    vertex 14.051111174987794 65.99999995367432 18.888228370117186
    vertex 14.200962020324708 65.99999995367432 19.250000907348635
  endloop
endfacet
facet normal -0.991444867767186 0.0 0.13052614365753407
  outer loop
    vertex 6.499999953674317 109.0 5.999999953674318
    vertex 6.448888732360841 104.00000000000001 5.611771537231448
    vertex 6.499999953674317 104.00000000000001 5.999999953674318
  endloop
endfacet
facet normal -0.991444867767186 0.0 0.13052614365753407
  outer loop
    vertex 6.448888732360841 104.00000000000001 5.611771537231448
    vertex 6.499999953674317 109.0 5.999999953674318
    vertex 6.448888732360841 109.0 5.611771537231448
  endloop
endfacet
facet normal -0.6087606109578774 0.0 -0.7933539680030547
  outer loop
    vertex 6.0606603159179695 109.0 7.060660315917971
    vertex 5.749999953674317 104.00000000000001 7.299037887023928
    vertex 5.749999953674317 109.0 7.299037887023928
  endloop
endfacet
facet normal -0.6087606109578774 0.0 -0.7933539680030547
  outer loop
    vertex 5.749999953674317 104.00000000000001 7.299037887023928
    vertex 6.0606603159179695 109.0 7.060660315917971
    vertex 6.0606603159179695 104.00000000000001 7.060660315917971
  endloop
endfacet
facet normal -0.13052614365753454 0.0 0.991444867767186
  outer loop
    vertex 15.888228370117188 61.0 17.051112128662112
    vertex 15.499999953674317 65.99999995367432 17.000000907348635
    vertex 15.499999953674317 61.0 17.000000907348635
  endloop
endfacet
facet normal -0.13052614365753454 0.0 0.991444867767186
  outer loop
    vertex 15.499999953674317 65.99999995367432 17.000000907348635
    vertex 15.888228370117188 61.0 17.051112128662112
    vertex 15.888228370117188 65.99999995367432 17.051112128662112
  endloop
endfacet
facet normal 0.6087621438594599 0.0 -0.7933527917664589
  outer loop
    vertex 14.749999953674317 65.99999995367432 19.799038840698245
    vertex 14.439339591430667 61.0 19.560660315917968
    vertex 14.439339591430667 65.99999995367432 19.560660315917968
  endloop
endfacet
facet normal 0.6087621438594599 0.0 -0.7933527917664589
  outer loop
    vertex 14.439339591430667 61.0 19.560660315917968
    vertex 14.749999953674317 65.99999995367432 19.799038840698245
    vertex 14.749999953674317 61.0 19.799038840698245
  endloop
endfacet
facet normal 0.7933533798846932 0.0 0.608761377409518
  outer loop
    vertex 3.939339829849244 109.0 4.939339591430666
    vertex 3.700961781906129 104.00000000000001 5.249999953674318
    vertex 3.939339829849244 104.00000000000001 4.939339591430666
  endloop
endfacet
facet normal 0.7933533798846932 0.0 0.608761377409518
  outer loop
    vertex 3.700961781906129 104.00000000000001 5.249999953674318
    vertex 3.939339829849244 109.0 4.939339591430666
    vertex 3.700961781906129 109.0 5.249999953674318
  endloop
endfacet
facet normal -0.6087606109578764 0.0 0.7933539680030555
  outer loop
    vertex 6.0606603159179695 104.00000000000001 4.939339591430666
    vertex 5.749999953674317 109.0 4.70096202032471
    vertex 5.749999953674317 104.00000000000001 4.70096202032471
  endloop
endfacet
facet normal -0.6087606109578764 0.0 0.7933539680030555
  outer loop
    vertex 5.749999953674317 109.0 4.70096202032471
    vertex 6.0606603159179695 104.00000000000001 4.939339591430666
    vertex 6.0606603159179695 109.0 4.939339591430666
  endloop
endfacet
facet normal 0.13052614365753384 0.0 -0.991444867767186
  outer loop
    vertex 4.999999953674317 109.0 7.499999953674319
    vertex 4.611771537231446 104.00000000000001 7.448888732360842
    vertex 4.611771537231446 109.0 7.448888732360842
  endloop
endfacet
facet normal 0.13052614365753384 0.0 -0.991444867767186
  outer loop
    vertex 4.611771537231446 104.00000000000001 7.448888732360842
    vertex 4.999999953674317 109.0 7.499999953674319
    vertex 4.999999953674317 104.00000000000001 7.499999953674319
  endloop
endfacet
facet normal -0.9238790413621416 0.0 0.3826846181018652
  outer loop
    vertex 16.94888968603516 65.99999995367432 18.111771537231444
    vertex 16.799038840698245 61.0 17.750000907348635
    vertex 16.94888968603516 61.0 18.111771537231444
  endloop
endfacet
facet normal -0.9238790413621416 0.0 0.3826846181018652
  outer loop
    vertex 16.799038840698245 61.0 17.750000907348635
    vertex 16.94888968603516 65.99999995367432 18.111771537231444
    vertex 16.799038840698245 65.99999995367432 17.750000907348635
  endloop
endfacet
facet normal 0.0 -1.0 0.0
  outer loop
    vertex 21.000000907348635 61.0 22.000000907348632
    vertex 9.999999953674319 61.0 0.0
    vertex 21.000000907348635 61.0 0.0
  endloop
endfacet
facet normal 0.0 -1.0 0.0
  outer loop
    vertex 9.999999953674319 61.0 0.0
    vertex 21.000000907348635 61.0 22.000000907348632
    vertex 16.560660315917968 61.0 17.439339591430663
  endloop
endfacet
facet normal 0.0 -1.0 0.0
  outer loop
    vertex 9.999999953674319 61.0 0.0
    vertex 16.560660315917968 61.0 17.439339591430663
    vertex 16.250000907348635 61.0 17.200961066650393
  endloop
endfacet
facet normal 0.0 -1.0 0.0
  outer loop
    vertex 9.999999953674319 61.0 0.0
    vertex 16.250000907348635 61.0 17.200961066650393
    vertex 15.888228370117188 61.0 17.051112128662112
  endloop
endfacet
facet normal 0.0 -1.0 0.0
  outer loop
    vertex 9.999999953674319 61.0 0.0
    vertex 15.888228370117188 61.0 17.051112128662112
    vertex 15.499999953674317 61.0 17.000000907348635
  endloop
endfacet
facet normal 0.0 -1.0 0.0
  outer loop
    vertex 16.560660315917968 61.0 17.439339591430663
    vertex 21.000000907348635 61.0 22.000000907348632
    vertex 16.799038840698245 61.0 17.750000907348635
  endloop
endfacet
facet normal 0.0 -1.0 0.0
  outer loop
    vertex 16.799038840698245 61.0 17.750000907348635
    vertex 21.000000907348635 61.0 22.000000907348632
    vertex 16.94888968603516 61.0 18.111771537231444
  endloop
endfacet
facet normal 0.0 -1.0 0.0
  outer loop
    vertex 16.94888968603516 61.0 18.111771537231444
    vertex 21.000000907348635 61.0 22.000000907348632
    vertex 17.000000907348635 61.0 18.500000907348635
  endloop
endfacet
facet normal 0.0 -1.0 0.0
  outer loop
    vertex 17.000000907348635 61.0 18.500000907348635
    vertex 21.000000907348635 61.0 22.000000907348632
    vertex 16.94888968603516 61.0 18.888228370117186
  endloop
endfacet
facet normal 0.0 -1.0 0.0
  outer loop
    vertex 16.94888968603516 61.0 18.888228370117186
    vertex 21.000000907348635 61.0 22.000000907348632
    vertex 16.799038840698245 61.0 19.250000907348635
  endloop
endfacet
facet normal 0.0 -1.0 0.0
  outer loop
    vertex 16.799038840698245 61.0 19.250000907348635
    vertex 21.000000907348635 61.0 22.000000907348632
    vertex 16.560660315917968 61.0 19.560660315917968
  endloop
endfacet
facet normal 0.0 -1.0 0.0
  outer loop
    vertex 16.560660315917968 61.0 19.560660315917968
    vertex 21.000000907348635 61.0 22.000000907348632
    vertex 16.250000907348635 61.0 19.799038840698245
  endloop
endfacet
facet normal 0.0 -1.0 0.0
  outer loop
    vertex 16.250000907348635 61.0 19.799038840698245
    vertex 21.000000907348635 61.0 22.000000907348632
    vertex 15.888228370117188 61.0 19.94888968603516
  endloop
endfacet
facet normal 0.0 -1.0 0.0
  outer loop
    vertex 15.888228370117188 61.0 19.94888968603516
    vertex 21.000000907348635 61.0 22.000000907348632
    vertex 15.499999953674317 61.0 20.000000907348635
  endloop
endfacet
facet normal 0.0 -1.0 0.0
  outer loop
    vertex 9.999999953674319 61.0 0.0
    vertex 14.439339591430667 61.0 17.439339591430663
    vertex 9.999999953674319 61.0 22.000000907348632
  endloop
endfacet
facet normal 0.0 -1.0 0.0
  outer loop
    vertex 14.439339591430667 61.0 17.439339591430663
    vertex 9.999999953674319 61.0 0.0
    vertex 14.749999953674317 61.0 17.200961066650393
  endloop
endfacet
facet normal 0.0 -1.0 0.0
  outer loop
    vertex 14.749999953674317 61.0 17.200961066650393
    vertex 9.999999953674319 61.0 0.0
    vertex 15.111771537231446 61.0 17.051112128662112
  endloop
endfacet
facet normal 0.0 -1.0 0.0
  outer loop
    vertex 15.111771537231446 61.0 17.051112128662112
    vertex 9.999999953674319 61.0 0.0
    vertex 15.499999953674317 61.0 17.000000907348635
  endloop
endfacet
facet normal 0.0 -1.0 0.0
  outer loop
    vertex 9.999999953674319 61.0 22.000000907348632
    vertex 14.439339591430667 61.0 17.439339591430663
    vertex 14.200962020324708 61.0 17.750000907348635
  endloop
endfacet
facet normal 0.0 -1.0 0.0
  outer loop
    vertex 9.999999953674319 61.0 22.000000907348632
    vertex 14.200962020324708 61.0 17.750000907348635
    vertex 14.051111174987794 61.0 18.111771537231444
  endloop
endfacet
facet normal 0.0 -1.0 0.0
  outer loop
    vertex 9.999999953674319 61.0 22.000000907348632
    vertex 14.051111174987794 61.0 18.111771537231444
    vertex 13.999999953674317 61.0 18.500000907348635
  endloop
endfacet
facet normal 0.0 -1.0 0.0
  outer loop
    vertex 9.999999953674319 61.0 22.000000907348632
    vertex 13.999999953674317 61.0 18.500000907348635
    vertex 14.051111174987794 61.0 18.888228370117186
  endloop
endfacet
facet normal 0.0 -1.0 0.0
  outer loop
    vertex 9.999999953674319 61.0 22.000000907348632
    vertex 14.051111174987794 61.0 18.888228370117186
    vertex 14.200962020324708 61.0 19.250000907348635
  endloop
endfacet
facet normal 0.0 -1.0 0.0
  outer loop
    vertex 9.999999953674319 61.0 22.000000907348632
    vertex 14.200962020324708 61.0 19.250000907348635
    vertex 14.439339591430667 61.0 19.560660315917968
  endloop
endfacet
facet normal 0.0 -1.0 0.0
  outer loop
    vertex 9.999999953674319 61.0 22.000000907348632
    vertex 14.439339591430667 61.0 19.560660315917968
    vertex 14.749999953674317 61.0 19.799038840698245
  endloop
endfacet
facet normal 0.0 -1.0 0.0
  outer loop
    vertex 9.999999953674319 61.0 22.000000907348632
    vertex 14.749999953674317 61.0 19.799038840698245
    vertex 15.111771537231446 61.0 19.94888968603516
  endloop
endfacet
facet normal 0.0 -1.0 0.0
  outer loop
    vertex 9.999999953674319 61.0 22.000000907348632
    vertex 15.111771537231446 61.0 19.94888968603516
    vertex 15.499999953674317 61.0 20.000000907348635
  endloop
endfacet
facet normal 0.0 -1.0 0.0
  outer loop
    vertex 9.999999953674319 61.0 22.000000907348632
    vertex 15.499999953674317 61.0 20.000000907348635
    vertex 21.000000907348635 61.0 22.000000907348632
  endloop
endfacet
facet normal -0.9238797546929366 0.0 -0.38268289597069705
  outer loop
    vertex 16.799038840698245 65.99999995367432 19.250000907348635
    vertex 16.94888968603516 61.0 18.888228370117186
    vertex 16.799038840698245 61.0 19.250000907348635
  endloop
endfacet
facet normal -0.9238797546929366 0.0 -0.38268289597069705
  outer loop
    vertex 16.94888968603516 61.0 18.888228370117186
    vertex 16.799038840698245 65.99999995367432 19.250000907348635
    vertex 16.94888968603516 65.99999995367432 18.888228370117186
  endloop
endfacet
facet normal 0.7071067249907518 0.7071068373823389 4.804311629448661e-18
  outer loop
    vertex 14.999999953674319 71.99999995367432 11.999999953674319
    vertex 21.000000907348635 65.99999995367432 0.0
    vertex 14.999999953674319 71.99999995367432 0.0
  endloop
endfacet
facet normal 0.7071067249907518 0.7071068373823389 4.804311629448661e-18
  outer loop
    vertex 21.000000907348635 65.99999995367432 0.0
    vertex 14.999999953674319 71.99999995367432 11.999999953674319
    vertex 21.000000907348635 65.99999995367432 14.999999953674319
  endloop
endfacet
facet normal 0.6087609050171913 0.0 -0.7933537423638021
  outer loop
    vertex 4.249999953674317 109.0 7.299037887023928
    vertex 3.939339829849244 104.00000000000001 7.060660315917971
    vertex 3.939339829849244 109.0 7.060660315917971
  endloop
endfacet
facet normal 0.6087609050171913 0.0 -0.7933537423638021
  outer loop
    vertex 3.939339829849244 104.00000000000001 7.060660315917971
    vertex 4.249999953674317 109.0 7.299037887023928
    vertex 4.249999953674317 104.00000000000001 7.299037887023928
  endloop
endfacet
facet normal -0.38268375703451213 0.0 0.923879398028742
  outer loop
    vertex 5.749999953674317 104.00000000000001 4.70096202032471
    vertex 5.388228370117188 109.0 4.551111174987795
    vertex 5.388228370117188 104.00000000000001 4.551111174987795
  endloop
endfacet
facet normal -0.38268375703451213 0.0 0.923879398028742
  outer loop
    vertex 5.388228370117188 109.0 4.551111174987795
    vertex 5.749999953674317 104.00000000000001 4.70096202032471
    vertex 5.749999953674317 109.0 4.70096202032471
  endloop
endfacet
facet normal 1.0 0.0 0.0
  outer loop
    vertex 14.999999953674319 107.0 0.0
    vertex 14.999999953674319 71.99999995367432 11.999999953674319
    vertex 14.999999953674319 71.99999995367432 0.0
  endloop
endfacet
facet normal 1.0 0.0 0.0
  outer loop
    vertex 14.999999953674319 71.99999995367432 11.999999953674319
    vertex 14.999999953674319 107.0 0.0
    vertex 14.999999953674319 107.0 11.999999953674319
  endloop
endfacet
facet normal 0.3826837570345106 0.0 -0.9238793980287425
  outer loop
    vertex 4.611771537231446 109.0 7.448888732360842
    vertex 4.249999953674317 104.00000000000001 7.299037887023928
    vertex 4.249999953674317 109.0 7.299037887023928
  endloop
endfacet
facet normal 0.3826837570345106 0.0 -0.9238793980287425
  outer loop
    vertex 4.249999953674317 104.00000000000001 7.299037887023928
    vertex 4.611771537231446 109.0 7.448888732360842
    vertex 4.611771537231446 104.00000000000001 7.448888732360842
  endloop
endfacet
facet normal 0.0 0.0 1.0
  outer loop
    vertex 9.999999953674317 104.00000000000001 11.999999953674319
    vertex -1.4099832412739487e-15 109.0 11.999999953674319
    vertex -1.4099832412739487e-15 104.00000000000001 11.999999953674319
  endloop
endfacet
facet normal 0.0 0.0 1.0
  outer loop
    vertex -1.4099832412739487e-15 109.0 11.999999953674319
    vertex 9.999999953674317 104.00000000000001 11.999999953674319
    vertex 12.999999953674317 109.0 11.999999953674319
  endloop
endfacet
facet normal 0.0 0.0 1.0
  outer loop
    vertex 12.999999953674317 109.0 11.999999953674319
    vertex 9.999999953674317 104.00000000000001 11.999999953674319
    vertex 9.999999953674319 71.99999995367432 11.999999953674319
  endloop
endfacet
facet normal 0.0 0.0 1.0
  outer loop
    vertex 12.999999953674317 109.0 11.999999953674319
    vertex 9.999999953674319 71.99999995367432 11.999999953674319
    vertex 14.999999953674319 71.99999995367432 11.999999953674319
  endloop
endfacet
facet normal 0.0 0.0 1.0
  outer loop
    vertex 12.999999953674317 109.0 11.999999953674319
    vertex 14.999999953674319 71.99999995367432 11.999999953674319
    vertex 14.999999953674319 107.0 11.999999953674319
  endloop
endfacet
facet normal -0.9914448262738911 0.0 -0.13052645883013175
  outer loop
    vertex 16.94888968603516 65.99999995367432 18.888228370117186
    vertex 17.000000907348635 61.0 18.500000907348635
    vertex 16.94888968603516 61.0 18.888228370117186
  endloop
endfacet
facet normal -0.9914448262738911 0.0 -0.13052645883013175
  outer loop
    vertex 17.000000907348635 61.0 18.500000907348635
    vertex 16.94888968603516 65.99999995367432 18.888228370117186
    vertex 17.000000907348635 65.99999995367432 18.500000907348635
  endloop
endfacet
facet normal 0.13052614365753384 0.0 0.991444867767186
  outer loop
    vertex 4.999999953674317 104.00000000000001 4.499999953674318
    vertex 4.611771537231446 109.0 4.551111174987795
    vertex 4.611771537231446 104.00000000000001 4.551111174987795
  endloop
endfacet
facet normal 0.13052614365753384 0.0 0.991444867767186
  outer loop
    vertex 4.611771537231446 109.0 4.551111174987795
    vertex 4.999999953674317 104.00000000000001 4.499999953674318
    vertex 4.999999953674317 109.0 4.499999953674318
  endloop
endfacet
facet normal -0.9238793980287423 0.0 -0.3826837570345116
  outer loop
    vertex 6.2990378870239265 109.0 6.749999953674319
    vertex 6.448888732360841 104.00000000000001 6.388228370117189
    vertex 6.2990378870239265 104.00000000000001 6.749999953674319
  endloop
endfacet
facet normal -0.9238793980287423 0.0 -0.3826837570345116
  outer loop
    vertex 6.448888732360841 104.00000000000001 6.388228370117189
    vertex 6.2990378870239265 109.0 6.749999953674319
    vertex 6.448888732360841 109.0 6.388228370117189
  endloop
endfacet
facet normal -0.6087633200973919 0.0 -0.7933518892042801
  outer loop
    vertex 16.560660315917968 65.99999995367432 19.560660315917968
    vertex 16.250000907348635 61.0 19.799038840698245
    vertex 16.250000907348635 65.99999995367432 19.799038840698245
  endloop
endfacet
facet normal -0.6087633200973919 0.0 -0.7933518892042801
  outer loop
    vertex 16.250000907348635 61.0 19.799038840698245
    vertex 16.560660315917968 65.99999995367432 19.560660315917968
    vertex 16.560660315917968 61.0 19.560660315917968
  endloop
endfacet
facet normal 0.0 0.0 1.0
  outer loop
    vertex 21.000000907348635 61.0 22.000000907348632
    vertex 9.999999953674319 65.99999995367432 22.000000907348632
    vertex 9.999999953674319 61.0 22.000000907348632
  endloop
endfacet
facet normal 0.0 0.0 1.0
  outer loop
    vertex 9.999999953674319 65.99999995367432 22.000000907348632
    vertex 21.000000907348635 61.0 22.000000907348632
    vertex 21.000000907348635 65.99999995367432 22.000000907348632
  endloop
endfacet
facet normal 0.7071067811865466 0.7071067811865486 0.0
  outer loop
    vertex 12.999999953674317 109.0 11.999999953674319
    vertex 14.999999953674319 107.0 0.0
    vertex 12.999999953674317 109.0 0.0
  endloop
endfacet
facet normal 0.7071067811865466 0.7071067811865486 0.0
  outer loop
    vertex 14.999999953674319 107.0 0.0
    vertex 12.999999953674317 109.0 11.999999953674319
    vertex 14.999999953674319 107.0 11.999999953674319
  endloop
endfacet
facet normal 0.0 0.0 -1.0
  outer loop
    vertex 12.999999953674317 109.0 0.0
    vertex -1.4099832412739487e-15 104.00000000000001 0.0
    vertex -1.4099832412739487e-15 109.0 0.0
  endloop
endfacet
facet normal 0.0 0.0 -1.0
  outer loop
    vertex -1.4099832412739487e-15 104.00000000000001 0.0
    vertex 12.999999953674317 109.0 0.0
    vertex 9.999999953674317 104.00000000000001 0.0
  endloop
endfacet
facet normal 0.0 0.0 -1.0
  outer loop
    vertex 9.999999953674317 104.00000000000001 0.0
    vertex 12.999999953674317 109.0 0.0
    vertex 9.999999953674319 61.0 0.0
  endloop
endfacet
facet normal 0.0 0.0 -1.0
  outer loop
    vertex 9.999999953674319 61.0 0.0
    vertex 12.999999953674317 109.0 0.0
    vertex 14.999999953674319 71.99999995367432 0.0
  endloop
endfacet
facet normal 0.0 0.0 -1.0
  outer loop
    vertex 9.999999953674319 61.0 0.0
    vertex 14.999999953674319 71.99999995367432 0.0
    vertex 21.000000907348635 61.0 0.0
  endloop
endfacet
facet normal 0.0 0.0 -1.0
  outer loop
    vertex 14.999999953674319 71.99999995367432 0.0
    vertex 12.999999953674317 109.0 0.0
    vertex 14.999999953674319 107.0 0.0
  endloop
endfacet
facet normal 0.0 0.0 -1.0
  outer loop
    vertex 21.000000907348635 61.0 0.0
    vertex 14.999999953674319 71.99999995367432 0.0
    vertex 21.000000907348635 65.99999995367432 0.0
  endloop
endfacet
facet normal 0.0 1.0 0.0
  outer loop
    vertex 9.999999953674319 65.99999995367432 14.999999953674319
    vertex 15.111771537231446 65.99999995367432 17.051112128662112
    vertex 21.000000907348635 65.99999995367432 14.999999953674319
  endloop
endfacet
facet normal 0.0 1.0 0.0
  outer loop
    vertex 15.111771537231446 65.99999995367432 17.051112128662112
    vertex 9.999999953674319 65.99999995367432 14.999999953674319
    vertex 14.749999953674317 65.99999995367432 17.200961066650393
  endloop
endfacet
facet normal 0.0 1.0 0.0
  outer loop
    vertex 14.749999953674317 65.99999995367432 17.200961066650393
    vertex 9.999999953674319 65.99999995367432 14.999999953674319
    vertex 14.439339591430667 65.99999995367432 17.439339591430663
  endloop
endfacet
facet normal 0.0 1.0 0.0
  outer loop
    vertex 14.439339591430667 65.99999995367432 17.439339591430663
    vertex 9.999999953674319 65.99999995367432 14.999999953674319
    vertex 9.999999953674319 65.99999995367432 22.000000907348632
  endloop
endfacet
facet normal 0.0 1.0 0.0
  outer loop
    vertex 21.000000907348635 65.99999995367432 14.999999953674319
    vertex 15.111771537231446 65.99999995367432 17.051112128662112
    vertex 15.499999953674317 65.99999995367432 17.000000907348635
  endloop
endfacet
facet normal 0.0 1.0 0.0
  outer loop
    vertex 14.439339591430667 65.99999995367432 17.439339591430663
    vertex 9.999999953674319 65.99999995367432 22.000000907348632
    vertex 14.200962020324708 65.99999995367432 17.750000907348635
  endloop
endfacet
facet normal 0.0 1.0 0.0
  outer loop
    vertex 14.200962020324708 65.99999995367432 17.750000907348635
    vertex 9.999999953674319 65.99999995367432 22.000000907348632
    vertex 14.051111174987794 65.99999995367432 18.111771537231444
  endloop
endfacet
facet normal 0.0 1.0 0.0
  outer loop
    vertex 14.051111174987794 65.99999995367432 18.111771537231444
    vertex 9.999999953674319 65.99999995367432 22.000000907348632
    vertex 13.999999953674317 65.99999995367432 18.500000907348635
  endloop
endfacet
facet normal 0.0 1.0 0.0
  outer loop
    vertex 13.999999953674317 65.99999995367432 18.500000907348635
    vertex 9.999999953674319 65.99999995367432 22.000000907348632
    vertex 14.051111174987794 65.99999995367432 18.888228370117186
  endloop
endfacet
facet normal 0.0 1.0 0.0
  outer loop
    vertex 14.051111174987794 65.99999995367432 18.888228370117186
    vertex 9.999999953674319 65.99999995367432 22.000000907348632
    vertex 14.200962020324708 65.99999995367432 19.250000907348635
  endloop
endfacet
facet normal 0.0 1.0 0.0
  outer loop
    vertex 14.200962020324708 65.99999995367432 19.250000907348635
    vertex 9.999999953674319 65.99999995367432 22.000000907348632
    vertex 14.439339591430667 65.99999995367432 19.560660315917968
  endloop
endfacet
facet normal 0.0 1.0 0.0
  outer loop
    vertex 14.439339591430667 65.99999995367432 19.560660315917968
    vertex 9.999999953674319 65.99999995367432 22.000000907348632
    vertex 14.749999953674317 65.99999995367432 19.799038840698245
  endloop
endfacet
facet normal 0.0 1.0 0.0
  outer loop
    vertex 14.749999953674317 65.99999995367432 19.799038840698245
    vertex 9.999999953674319 65.99999995367432 22.000000907348632
    vertex 15.111771537231446 65.99999995367432 19.94888968603516
  endloop
endfacet
facet normal 0.0 1.0 0.0
  outer loop
    vertex 15.111771537231446 65.99999995367432 19.94888968603516
    vertex 9.999999953674319 65.99999995367432 22.000000907348632
    vertex 15.499999953674317 65.99999995367432 20.000000907348635
  endloop
endfacet
facet normal 0.0 1.0 0.0
  outer loop
    vertex 21.000000907348635 65.99999995367432 14.999999953674319
    vertex 16.560660315917968 65.99999995367432 17.439339591430663
    vertex 21.000000907348635 65.99999995367432 22.000000907348632
  endloop
endfacet
facet normal 0.0 1.0 0.0
  outer loop
    vertex 16.560660315917968 65.99999995367432 17.439339591430663
    vertex 21.000000907348635 65.99999995367432 14.999999953674319
    vertex 16.250000907348635 65.99999995367432 17.200961066650393
  endloop
endfacet
facet normal 0.0 1.0 0.0
  outer loop
    vertex 16.250000907348635 65.99999995367432 17.200961066650393
    vertex 21.000000907348635 65.99999995367432 14.999999953674319
    vertex 15.888228370117188 65.99999995367432 17.051112128662112
  endloop
endfacet
facet normal 0.0 1.0 0.0
  outer loop
    vertex 15.888228370117188 65.99999995367432 17.051112128662112
    vertex 21.000000907348635 65.99999995367432 14.999999953674319
    vertex 15.499999953674317 65.99999995367432 17.000000907348635
  endloop
endfacet
facet normal 0.0 1.0 0.0
  outer loop
    vertex 21.000000907348635 65.99999995367432 22.000000907348632
    vertex 16.560660315917968 65.99999995367432 17.439339591430663
    vertex 16.799038840698245 65.99999995367432 17.750000907348635
  endloop
endfacet
facet normal 0.0 1.0 0.0
  outer loop
    vertex 21.000000907348635 65.99999995367432 22.000000907348632
    vertex 16.799038840698245 65.99999995367432 17.750000907348635
    vertex 16.94888968603516 65.99999995367432 18.111771537231444
  endloop
endfacet
facet normal 0.0 1.0 0.0
  outer loop
    vertex 21.000000907348635 65.99999995367432 22.000000907348632
    vertex 16.94888968603516 65.99999995367432 18.111771537231444
    vertex 17.000000907348635 65.99999995367432 18.500000907348635
  endloop
endfacet
facet normal 0.0 1.0 0.0
  outer loop
    vertex 21.000000907348635 65.99999995367432 22.000000907348632
    vertex 17.000000907348635 65.99999995367432 18.500000907348635
    vertex 16.94888968603516 65.99999995367432 18.888228370117186
  endloop
endfacet
facet normal 0.0 1.0 0.0
  outer loop
    vertex 21.000000907348635 65.99999995367432 22.000000907348632
    vertex 16.94888968603516 65.99999995367432 18.888228370117186
    vertex 16.799038840698245 65.99999995367432 19.250000907348635
  endloop
endfacet
facet normal 0.0 1.0 0.0
  outer loop
    vertex 21.000000907348635 65.99999995367432 22.000000907348632
    vertex 16.799038840698245 65.99999995367432 19.250000907348635
    vertex 16.560660315917968 65.99999995367432 19.560660315917968
  endloop
endfacet
facet normal 0.0 1.0 0.0
  outer loop
    vertex 21.000000907348635 65.99999995367432 22.000000907348632
    vertex 16.560660315917968 65.99999995367432 19.560660315917968
    vertex 16.250000907348635 65.99999995367432 19.799038840698245
  endloop
endfacet
facet normal 0.0 1.0 0.0
  outer loop
    vertex 21.000000907348635 65.99999995367432 22.000000907348632
    vertex 16.250000907348635 65.99999995367432 19.799038840698245
    vertex 15.888228370117188 65.99999995367432 19.94888968603516
  endloop
endfacet
facet normal 0.0 1.0 0.0
  outer loop
    vertex 21.000000907348635 65.99999995367432 22.000000907348632
    vertex 15.888228370117188 65.99999995367432 19.94888968603516
    vertex 15.499999953674317 65.99999995367432 20.000000907348635
  endloop
endfacet
facet normal 0.0 1.0 0.0
  outer loop
    vertex 21.000000907348635 65.99999995367432 22.000000907348632
    vertex 15.499999953674317 65.99999995367432 20.000000907348635
    vertex 9.999999953674319 65.99999995367432 22.000000907348632
  endloop
endfacet
facet normal -0.9914449092601804 0.0 0.13052582848644526
  outer loop
    vertex 17.000000907348635 65.99999995367432 18.500000907348635
    vertex 16.94888968603516 61.0 18.111771537231444
    vertex 17.000000907348635 61.0 18.500000907348635
  endloop
endfacet
facet normal -0.9914449092601804 0.0 0.13052582848644526
  outer loop
    vertex 16.94888968603516 61.0 18.111771537231444
    vertex 17.000000907348635 65.99999995367432 18.500000907348635
    vertex 16.94888968603516 65.99999995367432 18.111771537231444
  endloop
endfacet
facet normal -0.7933539680030547 0.0 0.6087606109578774
  outer loop
    vertex 6.2990378870239265 109.0 5.249999953674318
    vertex 6.0606603159179695 104.00000000000001 4.939339591430666
    vertex 6.2990378870239265 104.00000000000001 5.249999953674318
  endloop
endfacet
facet normal -0.7933539680030547 0.0 0.6087606109578774
  outer loop
    vertex 6.0606603159179695 104.00000000000001 4.939339591430666
    vertex 6.2990378870239265 109.0 5.249999953674318
    vertex 6.0606603159179695 109.0 4.939339591430666
  endloop
endfacet
facet normal -0.7933536943234114 0.0 0.6087609676247283
  outer loop
    vertex 16.799038840698245 65.99999995367432 17.750000907348635
    vertex 16.560660315917968 61.0 17.439339591430663
    vertex 16.799038840698245 61.0 17.750000907348635
  endloop
endfacet
facet normal -0.7933536943234114 0.0 0.6087609676247283
  outer loop
    vertex 16.560660315917968 61.0 17.439339591430663
    vertex 16.799038840698245 65.99999995367432 17.750000907348635
    vertex 16.560660315917968 65.99999995367432 17.439339591430663
  endloop
endfacet
facet normal -0.13052614365753407 0.0 -0.991444867767186
  outer loop
    vertex 5.388228370117188 109.0 7.448888732360842
    vertex 4.999999953674317 104.00000000000001 7.499999953674319
    vertex 4.999999953674317 109.0 7.499999953674319
  endloop
endfacet
facet normal -0.13052614365753407 0.0 -0.991444867767186
  outer loop
    vertex 4.999999953674317 104.00000000000001 7.499999953674319
    vertex 5.388228370117188 109.0 7.448888732360842
    vertex 5.388228370117188 104.00000000000001 7.448888732360842
  endloop
endfacet
facet normal -0.9238793980287423 0.0 0.3826837570345116
  outer loop
    vertex 6.448888732360841 109.0 5.611771537231448
    vertex 6.2990378870239265 104.00000000000001 5.249999953674318
    vertex 6.448888732360841 104.00000000000001 5.611771537231448
  endloop
endfacet
facet normal -0.9238793980287423 0.0 0.3826837570345116
  outer loop
    vertex 6.2990378870239265 104.00000000000001 5.249999953674318
    vertex 6.448888732360841 109.0 5.611771537231448
    vertex 6.2990378870239265 109.0 5.249999953674318
  endloop
endfacet
facet normal 0.991444867767186 0.0 -0.13052614365753407
  outer loop
    vertex 3.4999999536743176 109.0 5.999999953674318
    vertex 3.551111174987794 104.00000000000001 6.388228370117189
    vertex 3.4999999536743176 104.00000000000001 5.999999953674318
  endloop
endfacet
facet normal 0.991444867767186 0.0 -0.13052614365753407
  outer loop
    vertex 3.551111174987794 104.00000000000001 6.388228370117189
    vertex 3.4999999536743176 109.0 5.999999953674318
    vertex 3.551111174987794 109.0 6.388228370117189
  endloop
endfacet
facet normal 0.6087609050171903 0.0 0.7933537423638032
  outer loop
    vertex 4.249999953674317 104.00000000000001 4.70096202032471
    vertex 3.939339829849244 109.0 4.939339591430666
    vertex 3.939339829849244 104.00000000000001 4.939339591430666
  endloop
endfacet
facet normal 0.6087609050171903 0.0 0.7933537423638032
  outer loop
    vertex 3.939339829849244 109.0 4.939339591430666
    vertex 4.249999953674317 104.00000000000001 4.70096202032471
    vertex 4.249999953674317 109.0 4.70096202032471
  endloop
endfacet
facet normal -1.0 -3.439088202052044e-17 3.084081119830312e-18
  outer loop
    vertex 9.999999953674319 65.99999995367432 22.000000907348632
    vertex 9.999999953674319 61.0 0.0
    vertex 9.999999953674319 61.0 22.000000907348632
  endloop
endfacet
facet normal -1.0 -3.439088202052044e-17 3.084081119830312e-18
  outer loop
    vertex 9.999999953674319 61.0 0.0
    vertex 9.999999953674319 65.99999995367432 22.000000907348632
    vertex 9.999999953674319 65.99999995367432 14.999999953674319
  endloop
endfacet
facet normal -1.0 -3.439088202052044e-17 3.084081119830312e-18
  outer loop
    vertex 9.999999953674319 61.0 0.0
    vertex 9.999999953674319 65.99999995367432 14.999999953674319
    vertex 9.999999953674319 71.99999995367432 11.999999953674319
  endloop
endfacet
facet normal -1.0 -3.439088202052044e-17 3.084081119830312e-18
  outer loop
    vertex 9.999999953674319 61.0 0.0
    vertex 9.999999953674319 71.99999995367432 11.999999953674319
    vertex 9.999999953674317 104.00000000000001 0.0
  endloop
endfacet
facet normal -1.0 -3.439088202052044e-17 3.084081119830312e-18
  outer loop
    vertex 9.999999953674317 104.00000000000001 0.0
    vertex 9.999999953674319 71.99999995367432 11.999999953674319
    vertex 9.999999953674317 104.00000000000001 11.999999953674319
  endloop
endfacet
facet normal -1.0 0.0 0.0
  outer loop
    vertex -1.4099832412739487e-15 109.0 11.999999953674319
    vertex -1.4099832412739487e-15 104.00000000000001 0.0
    vertex -1.4099832412739487e-15 104.00000000000001 11.999999953674319
  endloop
endfacet
facet normal -1.0 0.0 0.0
  outer loop
    vertex -1.4099832412739487e-15 104.00000000000001 0.0
    vertex -1.4099832412739487e-15 109.0 11.999999953674319
    vertex -1.4099832412739487e-15 109.0 0.0
  endloop
endfacet
facet normal -0.3826828959706972 0.0 -0.9238797546929366
  outer loop
    vertex 16.250000907348635 65.99999995367432 19.799038840698245
    vertex 15.888228370117188 61.0 19.94888968603516
    vertex 15.888228370117188 65.99999995367432 19.94888968603516
  endloop
endfacet
facet normal -0.3826828959706972 0.0 -0.9238797546929366
  outer loop
    vertex 15.888228370117188 61.0 19.94888968603516
    vertex 16.250000907348635 65.99999995367432 19.799038840698245
    vertex 16.250000907348635 61.0 19.799038840698245
  endloop
endfacet
facet normal 0.0 -1.0 0.0
  outer loop
    vertex 9.999999953674317 104.00000000000001 0.0
    vertex 6.0606603159179695 104.00000000000001 4.939339591430666
    vertex -1.4099832412739487e-15 104.00000000000001 0.0
  endloop
endfacet
facet normal 0.0 -1.0 0.0
  outer loop
    vertex 6.0606603159179695 104.00000000000001 4.939339591430666
    vertex 9.999999953674317 104.00000000000001 0.0
    vertex 6.2990378870239265 104.00000000000001 5.249999953674318
  endloop
endfacet
facet normal 0.0 -1.0 0.0
  outer loop
    vertex 6.2990378870239265 104.00000000000001 5.249999953674318
    vertex 9.999999953674317 104.00000000000001 0.0
    vertex 9.999999953674317 104.00000000000001 11.999999953674319
  endloop
endfacet
facet normal 0.0 -1.0 0.0
  outer loop
    vertex -1.4099832412739487e-15 104.00000000000001 0.0
    vertex 6.0606603159179695 104.00000000000001 4.939339591430666
    vertex 5.749999953674317 104.00000000000001 4.70096202032471
  endloop
endfacet
facet normal 0.0 -1.0 0.0
  outer loop
    vertex -1.4099832412739487e-15 104.00000000000001 0.0
    vertex 5.749999953674317 104.00000000000001 4.70096202032471
    vertex 5.388228370117188 104.00000000000001 4.551111174987795
  endloop
endfacet
facet normal 0.0 -1.0 0.0
  outer loop
    vertex -1.4099832412739487e-15 104.00000000000001 0.0
    vertex 5.388228370117188 104.00000000000001 4.551111174987795
    vertex 4.999999953674317 104.00000000000001 4.499999953674318
  endloop
endfacet
facet normal 0.0 -1.0 0.0
  outer loop
    vertex 6.2990378870239265 104.00000000000001 5.249999953674318
    vertex 9.999999953674317 104.00000000000001 11.999999953674319
    vertex 6.448888732360841 104.00000000000001 5.611771537231448
  endloop
endfacet
facet normal 0.0 -1.0 0.0
  outer loop
    vertex 6.448888732360841 104.00000000000001 5.611771537231448
    vertex 9.999999953674317 104.00000000000001 11.999999953674319
    vertex 6.499999953674317 104.00000000000001 5.999999953674318
  endloop
endfacet
facet normal 0.0 -1.0 0.0
  outer loop
    vertex 6.499999953674317 104.00000000000001 5.999999953674318
    vertex 9.999999953674317 104.00000000000001 11.999999953674319
    vertex 6.448888732360841 104.00000000000001 6.388228370117189
  endloop
endfacet
facet normal 0.0 -1.0 0.0
  outer loop
    vertex 6.448888732360841 104.00000000000001 6.388228370117189
    vertex 9.999999953674317 104.00000000000001 11.999999953674319
    vertex 6.2990378870239265 104.00000000000001 6.749999953674319
  endloop
endfacet
facet normal 0.0 -1.0 0.0
  outer loop
    vertex 6.2990378870239265 104.00000000000001 6.749999953674319
    vertex 9.999999953674317 104.00000000000001 11.999999953674319
    vertex 6.0606603159179695 104.00000000000001 7.060660315917971
  endloop
endfacet
facet normal 0.0 -1.0 0.0
  outer loop
    vertex 6.0606603159179695 104.00000000000001 7.060660315917971
    vertex 9.999999953674317 104.00000000000001 11.999999953674319
    vertex 5.749999953674317 104.00000000000001 7.299037887023928
  endloop
endfacet
facet normal 0.0 -1.0 0.0
  outer loop
    vertex 5.749999953674317 104.00000000000001 7.299037887023928
    vertex 9.999999953674317 104.00000000000001 11.999999953674319
    vertex 5.388228370117188 104.00000000000001 7.448888732360842
  endloop
endfacet
facet normal 0.0 -1.0 0.0
  outer loop
    vertex 5.388228370117188 104.00000000000001 7.448888732360842
    vertex 9.999999953674317 104.00000000000001 11.999999953674319
    vertex 4.999999953674317 104.00000000000001 7.499999953674319
  endloop
endfacet
facet normal 0.0 -1.0 0.0
  outer loop
    vertex -1.4099832412739487e-15 104.00000000000001 0.0
    vertex 3.700961781906129 104.00000000000001 5.249999953674318
    vertex -1.4099832412739487e-15 104.00000000000001 11.999999953674319
  endloop
endfacet
facet normal 0.0 -1.0 0.0
  outer loop
    vertex 3.700961781906129 104.00000000000001 5.249999953674318
    vertex -1.4099832412739487e-15 104.00000000000001 0.0
    vertex 3.939339829849244 104.00000000000001 4.939339591430666
  endloop
endfacet
facet normal 0.0 -1.0 0.0
  outer loop
    vertex 3.939339829849244 104.00000000000001 4.939339591430666
    vertex -1.4099832412739487e-15 104.00000000000001 0.0
    vertex 4.249999953674317 104.00000000000001 4.70096202032471
  endloop
endfacet
facet normal 0.0 -1.0 0.0
  outer loop
    vertex 4.249999953674317 104.00000000000001 4.70096202032471
    vertex -1.4099832412739487e-15 104.00000000000001 0.0
    vertex 4.611771537231446 104.00000000000001 4.551111174987795
  endloop
endfacet
facet normal 0.0 -1.0 0.0
  outer loop
    vertex 4.611771537231446 104.00000000000001 4.551111174987795
    vertex -1.4099832412739487e-15 104.00000000000001 0.0
    vertex 4.999999953674317 104.00000000000001 4.499999953674318
  endloop
endfacet
facet normal 0.0 -1.0 0.0
  outer loop
    vertex -1.4099832412739487e-15 104.00000000000001 11.999999953674319
    vertex 3.700961781906129 104.00000000000001 5.249999953674318
    vertex 3.551111174987794 104.00000000000001 5.611771537231448
  endloop
endfacet
facet normal 0.0 -1.0 0.0
  outer loop
    vertex -1.4099832412739487e-15 104.00000000000001 11.999999953674319
    vertex 3.551111174987794 104.00000000000001 5.611771537231448
    vertex 3.4999999536743176 104.00000000000001 5.999999953674318
  endloop
endfacet
facet normal 0.0 -1.0 0.0
  outer loop
    vertex -1.4099832412739487e-15 104.00000000000001 11.999999953674319
    vertex 3.4999999536743176 104.00000000000001 5.999999953674318
    vertex 3.551111174987794 104.00000000000001 6.388228370117189
  endloop
endfacet
facet normal 0.0 -1.0 0.0
  outer loop
    vertex -1.4099832412739487e-15 104.00000000000001 11.999999953674319
    vertex 3.551111174987794 104.00000000000001 6.388228370117189
    vertex 3.700961781906129 104.00000000000001 6.749999953674319
  endloop
endfacet
facet normal 0.0 -1.0 0.0
  outer loop
    vertex -1.4099832412739487e-15 104.00000000000001 11.999999953674319
    vertex 3.700961781906129 104.00000000000001 6.749999953674319
    vertex 3.939339829849244 104.00000000000001 7.060660315917971
  endloop
endfacet
facet normal 0.0 -1.0 0.0
  outer loop
    vertex -1.4099832412739487e-15 104.00000000000001 11.999999953674319
    vertex 3.939339829849244 104.00000000000001 7.060660315917971
    vertex 4.249999953674317 104.00000000000001 7.299037887023928
  endloop
endfacet
facet normal 0.0 -1.0 0.0
  outer loop
    vertex -1.4099832412739487e-15 104.00000000000001 11.999999953674319
    vertex 4.249999953674317 104.00000000000001 7.299037887023928
    vertex 4.611771537231446 104.00000000000001 7.448888732360842
  endloop
endfacet
facet normal 0.0 -1.0 0.0
  outer loop
    vertex -1.4099832412739487e-15 104.00000000000001 11.999999953674319
    vertex 4.611771537231446 104.00000000000001 7.448888732360842
    vertex 4.999999953674317 104.00000000000001 7.499999953674319
  endloop
endfacet
facet normal 0.0 -1.0 0.0
  outer loop
    vertex -1.4099832412739487e-15 104.00000000000001 11.999999953674319
    vertex 4.999999953674317 104.00000000000001 7.499999953674319
    vertex 9.999999953674317 104.00000000000001 11.999999953674319
  endloop
endfacet
facet normal 1.0 0.0 0.0
  outer loop
    vertex 21.000000907348635 65.99999995367432 0.0
    vertex 21.000000907348635 61.0 22.000000907348632
    vertex 21.000000907348635 61.0 0.0
  endloop
endfacet
facet normal 1.0 0.0 0.0
  outer loop
    vertex 21.000000907348635 61.0 22.000000907348632
    vertex 21.000000907348635 65.99999995367432 0.0
    vertex 21.000000907348635 65.99999995367432 22.000000907348632
  endloop
endfacet
facet normal 1.0 0.0 0.0
  outer loop
    vertex 21.000000907348635 65.99999995367432 22.000000907348632
    vertex 21.000000907348635 65.99999995367432 0.0
    vertex 21.000000907348635 65.99999995367432 14.999999953674319
  endloop
endfacet
facet normal 0.7933533798846932 0.0 -0.608761377409518
  outer loop
    vertex 3.700961781906129 109.0 6.749999953674319
    vertex 3.939339829849244 104.00000000000001 7.060660315917971
    vertex 3.700961781906129 104.00000000000001 6.749999953674319
  endloop
endfacet
facet normal 0.7933533798846932 0.0 -0.608761377409518
  outer loop
    vertex 3.939339829849244 104.00000000000001 7.060660315917971
    vertex 3.700961781906129 109.0 6.749999953674319
    vertex 3.939339829849244 109.0 7.060660315917971
  endloop
endfacet
facet normal -0.13052614365753454 0.0 -0.991444867767186
  outer loop
    vertex 15.888228370117188 65.99999995367432 19.94888968603516
    vertex 15.499999953674317 61.0 20.000000907348635
    vertex 15.499999953674317 65.99999995367432 20.000000907348635
  endloop
endfacet
facet normal -0.13052614365753454 0.0 -0.991444867767186
  outer loop
    vertex 15.499999953674317 61.0 20.000000907348635
    vertex 15.888228370117188 65.99999995367432 19.94888968603516
    vertex 15.888228370117188 61.0 19.94888968603516
  endloop
endfacet
facet normal -0.38267873837694005 0.0 0.9238814768108696
  outer loop
    vertex 16.250000907348635 61.0 17.200961066650393
    vertex 15.888228370117188 65.99999995367432 17.051112128662112
    vertex 15.888228370117188 61.0 17.051112128662112
  endloop
endfacet
facet normal -0.38267873837694005 0.0 0.9238814768108696
  outer loop
    vertex 15.888228370117188 65.99999995367432 17.051112128662112
    vertex 16.250000907348635 61.0 17.200961066650393
    vertex 16.250000907348635 65.99999995367432 17.200961066650393
  endloop
endfacet
facet normal 0.0 1.0 0.0
  outer loop
    vertex -1.4099832412739487e-15 109.0 0.0
    vertex 4.249999953674317 109.0 4.70096202032471
    vertex 12.999999953674317 109.0 0.0
  endloop
endfacet
facet normal 0.0 1.0 0.0
  outer loop
    vertex 4.249999953674317 109.0 4.70096202032471
    vertex -1.4099832412739487e-15 109.0 0.0
    vertex 3.939339829849244 109.0 4.939339591430666
  endloop
endfacet
facet normal 0.0 1.0 0.0
  outer loop
    vertex 3.939339829849244 109.0 4.939339591430666
    vertex -1.4099832412739487e-15 109.0 0.0
    vertex 3.700961781906129 109.0 5.249999953674318
  endloop
endfacet
facet normal 0.0 1.0 0.0
  outer loop
    vertex 3.700961781906129 109.0 5.249999953674318
    vertex -1.4099832412739487e-15 109.0 0.0
    vertex -1.4099832412739487e-15 109.0 11.999999953674319
  endloop
endfacet
facet normal 0.0 1.0 0.0
  outer loop
    vertex 12.999999953674317 109.0 0.0
    vertex 4.249999953674317 109.0 4.70096202032471
    vertex 4.611771537231446 109.0 4.551111174987795
  endloop
endfacet
facet normal 0.0 1.0 0.0
  outer loop
    vertex 12.999999953674317 109.0 0.0
    vertex 4.611771537231446 109.0 4.551111174987795
    vertex 4.999999953674317 109.0 4.499999953674318
  endloop
endfacet
facet normal 0.0 1.0 0.0
  outer loop
    vertex 3.700961781906129 109.0 5.249999953674318
    vertex -1.4099832412739487e-15 109.0 11.999999953674319
    vertex 3.551111174987794 109.0 5.611771537231448
  endloop
endfacet
facet normal 0.0 1.0 0.0
  outer loop
    vertex 3.551111174987794 109.0 5.611771537231448
    vertex -1.4099832412739487e-15 109.0 11.999999953674319
    vertex 3.4999999536743176 109.0 5.999999953674318
  endloop
endfacet
facet normal 0.0 1.0 0.0
  outer loop
    vertex 3.4999999536743176 109.0 5.999999953674318
    vertex -1.4099832412739487e-15 109.0 11.999999953674319
    vertex 3.551111174987794 109.0 6.388228370117189
  endloop
endfacet
facet normal 0.0 1.0 0.0
  outer loop
    vertex 3.551111174987794 109.0 6.388228370117189
    vertex -1.4099832412739487e-15 109.0 11.999999953674319
    vertex 3.700961781906129 109.0 6.749999953674319
  endloop
endfacet
facet normal 0.0 1.0 0.0
  outer loop
    vertex 3.700961781906129 109.0 6.749999953674319
    vertex -1.4099832412739487e-15 109.0 11.999999953674319
    vertex 3.939339829849244 109.0 7.060660315917971
  endloop
endfacet
facet normal 0.0 1.0 0.0
  outer loop
    vertex 3.939339829849244 109.0 7.060660315917971
    vertex -1.4099832412739487e-15 109.0 11.999999953674319
    vertex 4.249999953674317 109.0 7.299037887023928
  endloop
endfacet
facet normal 0.0 1.0 0.0
  outer loop
    vertex 4.249999953674317 109.0 7.299037887023928
    vertex -1.4099832412739487e-15 109.0 11.999999953674319
    vertex 4.611771537231446 109.0 7.448888732360842
  endloop
endfacet
facet normal 0.0 1.0 0.0
  outer loop
    vertex 4.611771537231446 109.0 7.448888732360842
    vertex -1.4099832412739487e-15 109.0 11.999999953674319
    vertex 4.999999953674317 109.0 7.499999953674319
  endloop
endfacet
facet normal 0.0 1.0 0.0
  outer loop
    vertex 12.999999953674317 109.0 0.0
    vertex 6.0606603159179695 109.0 4.939339591430666
    vertex 12.999999953674317 109.0 11.999999953674319
  endloop
endfacet
facet normal 0.0 1.0 0.0
  outer loop
    vertex 6.0606603159179695 109.0 4.939339591430666
    vertex 12.999999953674317 109.0 0.0
    vertex 5.749999953674317 109.0 4.70096202032471
  endloop
endfacet
facet normal 0.0 1.0 0.0
  outer loop
    vertex 5.749999953674317 109.0 4.70096202032471
    vertex 12.999999953674317 109.0 0.0
    vertex 5.388228370117188 109.0 4.551111174987795
  endloop
endfacet
facet normal 0.0 1.0 0.0
  outer loop
    vertex 5.388228370117188 109.0 4.551111174987795
    vertex 12.999999953674317 109.0 0.0
    vertex 4.999999953674317 109.0 4.499999953674318
  endloop
endfacet
facet normal 0.0 1.0 0.0
  outer loop
    vertex 12.999999953674317 109.0 11.999999953674319
    vertex 6.0606603159179695 109.0 4.939339591430666
    vertex 6.2990378870239265 109.0 5.249999953674318
  endloop
endfacet
facet normal 0.0 1.0 0.0
  outer loop
    vertex 12.999999953674317 109.0 11.999999953674319
    vertex 6.2990378870239265 109.0 5.249999953674318
    vertex 6.448888732360841 109.0 5.611771537231448
  endloop
endfacet
facet normal 0.0 1.0 0.0
  outer loop
    vertex 12.999999953674317 109.0 11.999999953674319
    vertex 6.448888732360841 109.0 5.611771537231448
    vertex 6.499999953674317 109.0 5.999999953674318
  endloop
endfacet
facet normal 0.0 1.0 0.0
  outer loop
    vertex 12.999999953674317 109.0 11.999999953674319
    vertex 6.499999953674317 109.0 5.999999953674318
    vertex 6.448888732360841 109.0 6.388228370117189
  endloop
endfacet
facet normal 0.0 1.0 0.0
  outer loop
    vertex 12.999999953674317 109.0 11.999999953674319
    vertex 6.448888732360841 109.0 6.388228370117189
    vertex 6.2990378870239265 109.0 6.749999953674319
  endloop
endfacet
facet normal 0.0 1.0 0.0
  outer loop
    vertex 12.999999953674317 109.0 11.999999953674319
    vertex 6.2990378870239265 109.0 6.749999953674319
    vertex 6.0606603159179695 109.0 7.060660315917971
  endloop
endfacet
facet normal 0.0 1.0 0.0
  outer loop
    vertex 12.999999953674317 109.0 11.999999953674319
    vertex 6.0606603159179695 109.0 7.060660315917971
    vertex 5.749999953674317 109.0 7.299037887023928
  endloop
endfacet
facet normal 0.0 1.0 0.0
  outer loop
    vertex 12.999999953674317 109.0 11.999999953674319
    vertex 5.749999953674317 109.0 7.299037887023928
    vertex 5.388228370117188 109.0 7.448888732360842
  endloop
endfacet
facet normal 0.0 1.0 0.0
  outer loop
    vertex 12.999999953674317 109.0 11.999999953674319
    vertex 5.388228370117188 109.0 7.448888732360842
    vertex 4.999999953674317 109.0 7.499999953674319
  endloop
endfacet
facet normal 0.0 1.0 0.0
  outer loop
    vertex 12.999999953674317 109.0 11.999999953674319
    vertex 4.999999953674317 109.0 7.499999953674319
    vertex -1.4099832412739487e-15 109.0 11.999999953674319
  endloop
endfacet
endsolid motor_mount
