solid OpenSCAD_Model
  facet normal 0 0 -1
    outer loop
      vertex -42.3 0 0
      vertex -41.9875 2.97314 0
      vertex -41.9875 -2.97314 0
    endloop
  endfacet
  facet normal 0 0 -1
    outer loop
      vertex -41.9875 -2.97314 0
      vertex -41.9875 2.97314 0
      vertex -41.0637 5.81633 0
    endloop
  endfacet
  facet normal 0 0 -1
    outer loop
      vertex -41.9875 -2.97314 0
      vertex -41.0637 5.81633 0
      vertex -39.5689 8.40533 0
    endloop
  endfacet
  facet normal 0 0 -1
    outer loop
      vertex -41.9875 -2.97314 0
      vertex -39.5689 8.40533 0
      vertex -37.5686 10.627 0
    endloop
  endfacet
  facet normal 0 0 -1
    outer loop
      vertex -41.9875 -2.97314 0
      vertex -37.5686 10.627 0
      vertex -35.15 12.3842 0
    endloop
  endfacet
  facet normal 0 0 -1
    outer loop
      vertex -41.9875 -2.97314 0
      vertex -35.15 12.3842 0
      vertex -32.4189 13.6001 0
    endloop
  endfacet
  facet normal 0 0 -1
    outer loop
      vertex -41.9875 -2.97314 0
      vertex -32.4189 13.6001 0
      vertex -29.4948 14.2217 0
    endloop
  endfacet
  facet normal 0 0 -1
    outer loop
      vertex -41.9875 -2.97314 0
      vertex -29.4948 14.2217 0
      vertex -26.5052 14.2217 0
    endloop
  endfacet
  facet normal 0 0 -1
    outer loop
      vertex -41.9875 -2.97314 0
      vertex -26.5052 14.2217 0
      vertex -23.5811 13.6001 0
    endloop
  endfacet
  facet normal 0 0 -1
    outer loop
      vertex -30.4102 5.49464 0
      vertex -23.5811 13.6001 0
      vertex -20.85 12.3842 0
    endloop
  endfacet
  facet normal 0 0 -1
    outer loop
      vertex -28.4955 5.97951 0
      vertex -20.85 12.3842 0
      vertex -18.4314 10.627 0
    endloop
  endfacet
  facet normal 0 0 -1
    outer loop
      vertex -24.7183 5.023 0
      vertex -18.4314 10.627 0
      vertex -16.4311 8.40533 0
    endloop
  endfacet
  facet normal 0 0 -1
    outer loop
      vertex -23.2652 3.68528 0
      vertex -16.4311 8.40533 0
      vertex -14.9363 5.81633 0
    endloop
  endfacet
  facet normal 0 0 -1
    outer loop
      vertex -22.3251 1.9482 0
      vertex -14.9363 5.81633 0
      vertex -14.0125 2.97314 0
    endloop
  endfacet
  facet normal 0 0 -1
    outer loop
      vertex -6.31033 4.58472 0
      vertex -4.58472 6.31033 0
      vertex -7.37255 2.5 0
    endloop
  endfacet
  facet normal 0 0 -1
    outer loop
      vertex -4.58472 6.31033 0
      vertex -2.41033 7.41824 0
      vertex -7.37255 2.5 0
    endloop
  endfacet
  facet normal 0 0 -1
    outer loop
      vertex -7.37255 2.5 0
      vertex -2.41033 7.41824 0
      vertex 0 7.8 0
    endloop
  endfacet
  facet normal 0 0 -1
    outer loop
      vertex 0.781417 4.43163 0
      vertex 0 7.8 0
      vertex 17.5 7.8 0
    endloop
  endfacet
  facet normal 0 0 -1
    outer loop
      vertex 3.4472 2.89254 0
      vertex 17.5 7.8 0
      vertex 17.5 2.1 0
    endloop
  endfacet
  facet normal 0 0 -1
    outer loop
      vertex 2.25 3.89711 0
      vertex 17.5 7.8 0
      vertex 3.4472 2.89254 0
    endloop
  endfacet
  facet normal 0 0 -1
    outer loop
      vertex 0.781417 4.43163 0
      vertex 17.5 7.8 0
      vertex 2.25 3.89711 0
    endloop
  endfacet
  facet normal 0 0 -1
    outer loop
      vertex -0.781417 4.43163 0
      vertex 0 7.8 0
      vertex 0.781417 4.43163 0
    endloop
  endfacet
  facet normal 0 0 -1
    outer loop
      vertex -3.4472 2.89254 0
      vertex -7.37255 2.5 0
      vertex -2.25 3.89711 0
    endloop
  endfacet
  facet normal 0 0 -1
    outer loop
      vertex -7.37255 2.5 0
      vertex 0 7.8 0
      vertex -0.781417 4.43163 0
    endloop
  endfacet
  facet normal 0 0 -1
    outer loop
      vertex -7.37255 2.5 0
      vertex -0.781417 4.43163 0
      vertex -2.25 3.89711 0
    endloop
  endfacet
  facet normal 0 0 -1
    outer loop
      vertex -4.22862 1.53909 0
      vertex -7.37255 2.5 0
      vertex -3.4472 2.89254 0
    endloop
  endfacet
  facet normal 0 0 -1
    outer loop
      vertex -16.4311 -8.40533 0
      vertex -26.5271 -5.8164 0
      vertex -24.7183 -5.023 0
    endloop
  endfacet
  facet normal 0 0 -1
    outer loop
      vertex -6.31033 -4.58472 0
      vertex 17.5 -7.8 0
      vertex -4.58472 -6.31033 0
    endloop
  endfacet
  facet normal 0 0 -1
    outer loop
      vertex -22.3251 -1.9482 0
      vertex -4.5 0 0
      vertex -4.22862 -1.53909 0
    endloop
  endfacet
  facet normal 0 0 -1
    outer loop
      vertex 17.5 -2.9 0
      vertex 2.25 -3.89711 0
      vertex 3.43831 -2.9 0
    endloop
  endfacet
  facet normal 0 0 -1
    outer loop
      vertex -7.37255 -2.5 0
      vertex -3.4472 -2.89254 0
      vertex -2.25 -3.89711 0
    endloop
  endfacet
  facet normal 0 0 -1
    outer loop
      vertex -7.37255 -2.5 0
      vertex -0.781417 -4.43163 0
      vertex -6.31033 -4.58472 0
    endloop
  endfacet
  facet normal 0 0 -1
    outer loop
      vertex 0.781417 -4.43163 0
      vertex 2.25 -3.89711 0
      vertex 17.5 -2.9 0
    endloop
  endfacet
  facet normal 0 0 -1
    outer loop
      vertex 0.781417 -4.43163 0
      vertex 17.5 -2.9 0
      vertex 17.5 -7.8 0
    endloop
  endfacet
  facet normal 0 0 -1
    outer loop
      vertex 0.781417 -4.43163 0
      vertex 17.5 -7.8 0
      vertex -0.781417 -4.43163 0
    endloop
  endfacet
  facet normal 0 0 -1
    outer loop
      vertex -2.41033 -7.41824 0
      vertex 17.5 -7.8 0
      vertex 0 -7.8 0
    endloop
  endfacet
  facet normal 0 0 -1
    outer loop
      vertex -4.58472 -6.31033 0
      vertex 17.5 -7.8 0
      vertex -2.41033 -7.41824 0
    endloop
  endfacet
  facet normal 0 0 -1
    outer loop
      vertex -22 0 0
      vertex -4.22862 1.53909 0
      vertex -4.5 0 0
    endloop
  endfacet
  facet normal 0 0 -1
    outer loop
      vertex -7.37255 -2.5 0
      vertex -2.25 -3.89711 0
      vertex -0.781417 -4.43163 0
    endloop
  endfacet
  facet normal 0 0 -1
    outer loop
      vertex -0.781417 -4.43163 0
      vertex 17.5 -7.8 0
      vertex -6.31033 -4.58472 0
    endloop
  endfacet
  facet normal 0 0 -1
    outer loop
      vertex -4.22862 -1.53909 0
      vertex -3.4472 -2.89254 0
      vertex -7.37255 -2.5 0
    endloop
  endfacet
  facet normal 0 0 -1
    outer loop
      vertex -4.22862 -1.53909 0
      vertex -7.37255 -2.5 0
      vertex -13.9628 -2.5 0
    endloop
  endfacet
  facet normal 0 0 -1
    outer loop
      vertex -22.3251 1.9482 0
      vertex -7.37255 2.5 0
      vertex -22 0 0
    endloop
  endfacet
  facet normal 0 0 -1
    outer loop
      vertex -22.3251 1.9482 0
      vertex -14.0125 2.97314 0
      vertex -13.9628 2.5 0
    endloop
  endfacet
  facet normal 0 0 -1
    outer loop
      vertex -33.9182 0.987568 0
      vertex -41.9875 -2.97314 0
      vertex -33.2768 2.85568 0
    endloop
  endfacet
  facet normal 0 0 -1
    outer loop
      vertex -30.4102 -5.49464 0
      vertex -18.4314 -10.627 0
      vertex -41.9875 -2.97314 0
    endloop
  endfacet
  facet normal 0 0 -1
    outer loop
      vertex -41.9875 -2.97314 0
      vertex -18.4314 -10.627 0
      vertex -20.85 -12.3842 0
    endloop
  endfacet
  facet normal 0 0 -1
    outer loop
      vertex -41.9875 -2.97314 0
      vertex -20.85 -12.3842 0
      vertex -23.5811 -13.6001 0
    endloop
  endfacet
  facet normal 0 0 -1
    outer loop
      vertex -41.9875 -2.97314 0
      vertex -23.5811 -13.6001 0
      vertex -26.5052 -14.2217 0
    endloop
  endfacet
  facet normal 0 0 -1
    outer loop
      vertex -41.9875 -2.97314 0
      vertex -26.5052 -14.2217 0
      vertex -29.4948 -14.2217 0
    endloop
  endfacet
  facet normal 0 0 -1
    outer loop
      vertex -41.9875 -2.97314 0
      vertex -29.4948 -14.2217 0
      vertex -32.4189 -13.6001 0
    endloop
  endfacet
  facet normal 0 0 -1
    outer loop
      vertex -41.9875 -2.97314 0
      vertex -32.4189 -13.6001 0
      vertex -35.15 -12.3842 0
    endloop
  endfacet
  facet normal 0 0 -1
    outer loop
      vertex -41.9875 -2.97314 0
      vertex -35.15 -12.3842 0
      vertex -37.5686 -10.627 0
    endloop
  endfacet
  facet normal 0 0 -1
    outer loop
      vertex -41.9875 -2.97314 0
      vertex -37.5686 -10.627 0
      vertex -39.5689 -8.40533 0
    endloop
  endfacet
  facet normal 0 0 -1
    outer loop
      vertex -41.9875 -2.97314 0
      vertex -39.5689 -8.40533 0
      vertex -41.0637 -5.81633 0
    endloop
  endfacet
  facet normal 0 0 -1
    outer loop
      vertex -28.4955 5.97951 0
      vertex -18.4314 10.627 0
      vertex -26.5271 5.8164 0
    endloop
  endfacet
  facet normal 0 0 -1
    outer loop
      vertex -33.2768 -2.85568 0
      vertex -41.9875 -2.97314 0
      vertex -33.9182 -0.987568 0
    endloop
  endfacet
  facet normal 0 0 -1
    outer loop
      vertex -32.0637 -4.41434 0
      vertex -41.9875 -2.97314 0
      vertex -33.2768 -2.85568 0
    endloop
  endfacet
  facet normal 0 0 -1
    outer loop
      vertex -14.9363 -5.81633 0
      vertex -23.2652 -3.68528 0
      vertex -14.0125 -2.97314 0
    endloop
  endfacet
  facet normal 0 0 -1
    outer loop
      vertex -28.4955 -5.97951 0
      vertex -18.4314 -10.627 0
      vertex -30.4102 -5.49464 0
    endloop
  endfacet
  facet normal 0 0 -1
    outer loop
      vertex -26.5271 -5.8164 0
      vertex -16.4311 -8.40533 0
      vertex -28.4955 -5.97951 0
    endloop
  endfacet
  facet normal 0 0 -1
    outer loop
      vertex -16.4311 -8.40533 0
      vertex -18.4314 -10.627 0
      vertex -28.4955 -5.97951 0
    endloop
  endfacet
  facet normal 0 0 -1
    outer loop
      vertex -30.4102 5.49464 0
      vertex -20.85 12.3842 0
      vertex -28.4955 5.97951 0
    endloop
  endfacet
  facet normal 0 0 -1
    outer loop
      vertex -23.2652 -3.68528 0
      vertex -14.9363 -5.81633 0
      vertex -24.7183 -5.023 0
    endloop
  endfacet
  facet normal 0 0 -1
    outer loop
      vertex -30.4102 -5.49464 0
      vertex -41.9875 -2.97314 0
      vertex -32.0637 -4.41434 0
    endloop
  endfacet
  facet normal 0 0 -1
    outer loop
      vertex -22.3251 -1.9482 0
      vertex -4.22862 -1.53909 0
      vertex -13.9628 -2.5 0
    endloop
  endfacet
  facet normal 0 0 -1
    outer loop
      vertex -22.3251 1.9482 0
      vertex -13.9628 2.5 0
      vertex -7.37255 2.5 0
    endloop
  endfacet
  facet normal 0 0 -1
    outer loop
      vertex -22.3251 -1.9482 0
      vertex -14.0125 -2.97314 0
      vertex -23.2652 -3.68528 0
    endloop
  endfacet
  facet normal 0 0 -1
    outer loop
      vertex -22.3251 -1.9482 0
      vertex -13.9628 -2.5 0
      vertex -14.0125 -2.97314 0
    endloop
  endfacet
  facet normal 0 0 -1
    outer loop
      vertex -7.37255 2.5 0
      vertex -4.22862 1.53909 0
      vertex -22 0 0
    endloop
  endfacet
  facet normal 0 0 -1
    outer loop
      vertex -23.2652 3.68528 0
      vertex -14.9363 5.81633 0
      vertex -22.3251 1.9482 0
    endloop
  endfacet
  facet normal 0 0 -1
    outer loop
      vertex -26.5271 5.8164 0
      vertex -18.4314 10.627 0
      vertex -24.7183 5.023 0
    endloop
  endfacet
  facet normal 0 0 -1
    outer loop
      vertex -33.9182 -0.987568 0
      vertex -41.9875 -2.97314 0
      vertex -33.9182 0.987568 0
    endloop
  endfacet
  facet normal 0 0 -1
    outer loop
      vertex -24.7183 5.023 0
      vertex -16.4311 8.40533 0
      vertex -23.2652 3.68528 0
    endloop
  endfacet
  facet normal 0 0 -1
    outer loop
      vertex -32.0637 4.41434 0
      vertex -23.5811 13.6001 0
      vertex -30.4102 5.49464 0
    endloop
  endfacet
  facet normal 0 0 -1
    outer loop
      vertex -33.2768 2.85568 0
      vertex -41.9875 -2.97314 0
      vertex -32.0637 4.41434 0
    endloop
  endfacet
  facet normal 0 0 -1
    outer loop
      vertex -41.9875 -2.97314 0
      vertex -23.5811 13.6001 0
      vertex -32.0637 4.41434 0
    endloop
  endfacet
  facet normal 0 0 -1
    outer loop
      vertex 3.4472 2.89254 0
      vertex 17.5 2.1 0
      vertex 3.90478 2.1 0
    endloop
  endfacet
  facet normal 0 0 -1
    outer loop
      vertex -16.4311 -8.40533 0
      vertex -24.7183 -5.023 0
      vertex -14.9363 -5.81633 0
    endloop
  endfacet
  facet normal 0 0 -1
    outer loop
      vertex -22 0 0
      vertex -4.5 0 0
      vertex -22.3251 -1.9482 0
    endloop
  endfacet
  facet normal -0.994522 0.104528 0
    outer loop
      vertex -42.3 0 0
      vertex -42.3 0 15
      vertex -41.9875 2.97314 0
    endloop
  endfacet
  facet normal -0.994522 0.104528 0
    outer loop
      vertex -41.9875 2.97314 0
      vertex -42.3 0 15
      vertex -41.9875 2.97314 15
    endloop
  endfacet
  facet normal -0.994522 -0.104528 0
    outer loop
      vertex -42.3 0 0
      vertex -41.9875 -2.97314 0
      vertex -42.3 0 15
    endloop
  endfacet
  facet normal -0.994522 -0.104528 0
    outer loop
      vertex -42.3 0 15
      vertex -41.9875 -2.97314 0
      vertex -41.9875 -2.97314 15
    endloop
  endfacet
  facet normal -0.951056 -0.309017 0
    outer loop
      vertex -41.9875 -2.97314 0
      vertex -41.0637 -5.81633 0
      vertex -41.9875 -2.97314 15
    endloop
  endfacet
  facet normal -0.951056 -0.309017 0
    outer loop
      vertex -41.9875 -2.97314 15
      vertex -41.0637 -5.81633 0
      vertex -41.0637 -5.81633 15
    endloop
  endfacet
  facet normal -0.866025 -0.5 0
    outer loop
      vertex -41.0637 -5.81633 0
      vertex -39.5689 -8.40533 0
      vertex -41.0637 -5.81633 15
    endloop
  endfacet
  facet normal -0.866025 -0.5 0
    outer loop
      vertex -41.0637 -5.81633 15
      vertex -39.5689 -8.40533 0
      vertex -39.5689 -8.40533 15
    endloop
  endfacet
  facet normal -0.743145 -0.669131 0
    outer loop
      vertex -39.5689 -8.40533 0
      vertex -37.5686 -10.627 0
      vertex -39.5689 -8.40533 15
    endloop
  endfacet
  facet normal -0.743145 -0.669131 0
    outer loop
      vertex -39.5689 -8.40533 15
      vertex -37.5686 -10.627 0
      vertex -37.5686 -10.627 15
    endloop
  endfacet
  facet normal -0.587785 -0.809017 0
    outer loop
      vertex -37.5686 -10.627 15
      vertex -37.5686 -10.627 0
      vertex -35.15 -12.3842 0
    endloop
  endfacet
  facet normal -0.587785 -0.809017 0
    outer loop
      vertex -35.15 -12.3842 15
      vertex -37.5686 -10.627 15
      vertex -35.15 -12.3842 0
    endloop
  endfacet
  facet normal -0.406737 -0.913545 0
    outer loop
      vertex -35.15 -12.3842 15
      vertex -35.15 -12.3842 0
      vertex -32.4189 -13.6001 0
    endloop
  endfacet
  facet normal -0.406737 -0.913545 0
    outer loop
      vertex -32.4189 -13.6001 15
      vertex -35.15 -12.3842 15
      vertex -32.4189 -13.6001 0
    endloop
  endfacet
  facet normal -0.207912 -0.978148 0
    outer loop
      vertex -32.4189 -13.6001 15
      vertex -32.4189 -13.6001 0
      vertex -29.4948 -14.2217 0
    endloop
  endfacet
  facet normal -0.207912 -0.978148 0
    outer loop
      vertex -29.4948 -14.2217 15
      vertex -32.4189 -13.6001 15
      vertex -29.4948 -14.2217 0
    endloop
  endfacet
  facet normal 0 -1 0
    outer loop
      vertex -29.4948 -14.2217 15
      vertex -29.4948 -14.2217 0
      vertex -26.5052 -14.2217 0
    endloop
  endfacet
  facet normal 0 -1 0
    outer loop
      vertex -26.5052 -14.2217 15
      vertex -29.4948 -14.2217 15
      vertex -26.5052 -14.2217 0
    endloop
  endfacet
  facet normal 0.207912 -0.978148 0
    outer loop
      vertex -26.5052 -14.2217 15
      vertex -26.5052 -14.2217 0
      vertex -23.5811 -13.6001 0
    endloop
  endfacet
  facet normal 0.207912 -0.978148 0
    outer loop
      vertex -23.5811 -13.6001 15
      vertex -26.5052 -14.2217 15
      vertex -23.5811 -13.6001 0
    endloop
  endfacet
  facet normal 0.406737 -0.913545 0
    outer loop
      vertex -23.5811 -13.6001 15
      vertex -23.5811 -13.6001 0
      vertex -20.85 -12.3842 0
    endloop
  endfacet
  facet normal 0.406737 -0.913545 0
    outer loop
      vertex -20.85 -12.3842 15
      vertex -23.5811 -13.6001 15
      vertex -20.85 -12.3842 0
    endloop
  endfacet
  facet normal 0.587785 -0.809017 0
    outer loop
      vertex -20.85 -12.3842 15
      vertex -20.85 -12.3842 0
      vertex -18.4314 -10.627 0
    endloop
  endfacet
  facet normal 0.587785 -0.809017 0
    outer loop
      vertex -18.4314 -10.627 15
      vertex -20.85 -12.3842 15
      vertex -18.4314 -10.627 0
    endloop
  endfacet
  facet normal 0.743145 -0.669131 0
    outer loop
      vertex -18.4314 -10.627 15
      vertex -18.4314 -10.627 0
      vertex -16.4311 -8.40533 0
    endloop
  endfacet
  facet normal 0.743145 -0.669131 0
    outer loop
      vertex -16.4311 -8.40533 15
      vertex -18.4314 -10.627 15
      vertex -16.4311 -8.40533 0
    endloop
  endfacet
  facet normal 0.866025 -0.5 0
    outer loop
      vertex -16.4311 -8.40533 15
      vertex -16.4311 -8.40533 0
      vertex -14.9363 -5.81633 0
    endloop
  endfacet
  facet normal 0.866025 -0.5 0
    outer loop
      vertex -14.9363 -5.81633 15
      vertex -16.4311 -8.40533 15
      vertex -14.9363 -5.81633 0
    endloop
  endfacet
  facet normal 0.951056 -0.309017 0
    outer loop
      vertex -14.9363 -5.81633 15
      vertex -14.9363 -5.81633 0
      vertex -14.0125 -2.97314 0
    endloop
  endfacet
  facet normal 0.951056 -0.309017 0
    outer loop
      vertex -14.0125 -2.97314 15
      vertex -14.9363 -5.81633 15
      vertex -14.0125 -2.97314 0
    endloop
  endfacet
  facet normal 0.994522 -0.104528 0
    outer loop
      vertex -14.0125 -2.97314 15
      vertex -14.0125 -2.97314 0
      vertex -13.9628 -2.5 0
    endloop
  endfacet
  facet normal 0.994522 -0.104528 0
    outer loop
      vertex -13.9628 -2.5 15
      vertex -14.0125 -2.97314 15
      vertex -13.9628 -2.5 0
    endloop
  endfacet
  facet normal 0 -1 0
    outer loop
      vertex -13.9628 -2.5 15
      vertex -13.9628 -2.5 0
      vertex -7.37255 -2.5 0
    endloop
  endfacet
  facet normal 0 -1 0
    outer loop
      vertex -7.37255 -2.5 15
      vertex -13.9628 -2.5 15
      vertex -7.37255 -2.5 0
    endloop
  endfacet
  facet normal -0.891007 -0.45399 0
    outer loop
      vertex -7.41824 -2.41033 15
      vertex -7.37255 -2.5 15
      vertex -7.41824 -2.41033 15.6
    endloop
  endfacet
  facet normal -0.891007 -0.45399 0
    outer loop
      vertex -6.31033 -4.58472 0
      vertex -7.37255 -2.5 15
      vertex -7.37255 -2.5 0
    endloop
  endfacet
  facet normal -0.891007 -0.45399 0
    outer loop
      vertex -6.31033 -4.58472 15.6
      vertex -7.37255 -2.5 15
      vertex -6.31033 -4.58472 0
    endloop
  endfacet
  facet normal -0.891007 -0.45399 0
    outer loop
      vertex -7.41824 -2.41033 15.6
      vertex -7.37255 -2.5 15
      vertex -6.31033 -4.58472 15.6
    endloop
  endfacet
  facet normal -0.707107 -0.707107 0
    outer loop
      vertex -6.31033 -4.58472 15.6
      vertex -6.31033 -4.58472 0
      vertex -4.58472 -6.31033 0
    endloop
  endfacet
  facet normal -0.707107 -0.707107 0
    outer loop
      vertex -4.58472 -6.31033 15.6
      vertex -6.31033 -4.58472 15.6
      vertex -4.58472 -6.31033 0
    endloop
  endfacet
  facet normal -0.45399 -0.891007 0
    outer loop
      vertex -4.58472 -6.31033 15.6
      vertex -4.58472 -6.31033 0
      vertex -2.41033 -7.41824 0
    endloop
  endfacet
  facet normal -0.45399 -0.891007 0
    outer loop
      vertex -2.41033 -7.41824 15.6
      vertex -4.58472 -6.31033 15.6
      vertex -2.41033 -7.41824 0
    endloop
  endfacet
  facet normal -0.156434 -0.987688 0
    outer loop
      vertex -2.41033 -7.41824 15.6
      vertex -2.41033 -7.41824 0
      vertex 0 -7.8 0
    endloop
  endfacet
  facet normal -0.156434 -0.987688 0
    outer loop
      vertex 0 -7.8 15.6
      vertex -2.41033 -7.41824 15.6
      vertex 0 -7.8 0
    endloop
  endfacet
  facet normal 0 -1 0
    outer loop
      vertex 8.39098 -7.8 6.91222
      vertex 0 -7.8 0
      vertex 17.5 -7.8 0
    endloop
  endfacet
  facet normal 0 -1 0
    outer loop
      vertex 10.009 -7.8 8.08779
      vertex 10.2 -7.8 7.5
      vertex 17.5 -7.8 0
    endloop
  endfacet
  facet normal 0 -1 0
    outer loop
      vertex 8.89098 -7.8 6.54894
      vertex 8.39098 -7.8 6.91222
      vertex 17.5 -7.8 0
    endloop
  endfacet
  facet normal 0 -1 0
    outer loop
      vertex 0 -7.8 15.6
      vertex 0 -7.8 0
      vertex 8.39098 -7.8 6.91222
    endloop
  endfacet
  facet normal 0 -1 0
    outer loop
      vertex 0 -7.8 15.6
      vertex 8.39098 -7.8 6.91222
      vertex 8.2 -7.8 7.5
    endloop
  endfacet
  facet normal 0 -1 0
    outer loop
      vertex 0 -7.8 15.6
      vertex 8.2 -7.8 7.5
      vertex 8.39098 -7.8 8.08779
    endloop
  endfacet
  facet normal 0 -1 0
    outer loop
      vertex 10.009 -7.8 6.91222
      vertex 9.50902 -7.8 6.54894
      vertex 17.5 -7.8 0
    endloop
  endfacet
  facet normal 0 -1 0
    outer loop
      vertex 17.5 -7.8 15.6
      vertex 0 -7.8 15.6
      vertex 8.89098 -7.8 8.45106
    endloop
  endfacet
  facet normal 0 -1 0
    outer loop
      vertex 10.2 -7.8 7.5
      vertex 10.009 -7.8 6.91222
      vertex 17.5 -7.8 0
    endloop
  endfacet
  facet normal 0 -1 0
    outer loop
      vertex 17.5 -7.8 15.6
      vertex 8.89098 -7.8 8.45106
      vertex 9.50902 -7.8 8.45106
    endloop
  endfacet
  facet normal 0 -1 0
    outer loop
      vertex 17.5 -7.8 15.6
      vertex 10.009 -7.8 8.08779
      vertex 17.5 -7.8 0
    endloop
  endfacet
  facet normal 0 -1 0
    outer loop
      vertex 17.5 -7.8 15.6
      vertex 9.50902 -7.8 8.45106
      vertex 10.009 -7.8 8.08779
    endloop
  endfacet
  facet normal 0 -1 0
    outer loop
      vertex 9.50902 -7.8 6.54894
      vertex 8.89098 -7.8 6.54894
      vertex 17.5 -7.8 0
    endloop
  endfacet
  facet normal 0 -1 0
    outer loop
      vertex 8.39098 -7.8 8.08779
      vertex 8.89098 -7.8 8.45106
      vertex 0 -7.8 15.6
    endloop
  endfacet
  facet normal 1 0 0
    outer loop
      vertex 17.5 -7.8 15.6
      vertex 17.5 -7.8 0
      vertex 17.5 -2.9 0
    endloop
  endfacet
  facet normal 1 0 0
    outer loop
      vertex 17.5 -2.9 15.6
      vertex 17.5 -7.8 15.6
      vertex 17.5 -2.9 0
    endloop
  endfacet
  facet normal 0 1 0
    outer loop
      vertex 17.5 -2.9 15.6
      vertex 17.5 -2.9 0
      vertex 3.43831 -2.9 15.6
    endloop
  endfacet
  facet normal 0 1 0
    outer loop
      vertex 8.39098 -2.9 6.91222
      vertex 17.5 -2.9 0
      vertex 3.43831 -2.9 0
    endloop
  endfacet
  facet normal 0 1 0
    outer loop
      vertex 8.89098 -2.9 6.54894
      vertex 17.5 -2.9 0
      vertex 8.39098 -2.9 6.91222
    endloop
  endfacet
  facet normal 0 1 0
    outer loop
      vertex 3.43831 -2.9 15.6
      vertex 8.39098 -2.9 6.91222
      vertex 3.43831 -2.9 0
    endloop
  endfacet
  facet normal 0 1 0
    outer loop
      vertex 9.50902 -2.9 6.54894
      vertex 17.5 -2.9 0
      vertex 8.89098 -2.9 6.54894
    endloop
  endfacet
  facet normal 0 1 0
    outer loop
      vertex 10.009 -2.9 6.91222
      vertex 17.5 -2.9 0
      vertex 9.50902 -2.9 6.54894
    endloop
  endfacet
  facet normal 0 1 0
    outer loop
      vertex 10.2 -2.9 7.5
      vertex 17.5 -2.9 0
      vertex 10.009 -2.9 6.91222
    endloop
  endfacet
  facet normal 0 1 0
    outer loop
      vertex 10.009 -2.9 8.08779
      vertex 17.5 -2.9 0
      vertex 10.2 -2.9 7.5
    endloop
  endfacet
  facet normal 0 1 0
    outer loop
      vertex 3.43831 -2.9 15.6
      vertex 17.5 -2.9 0
      vertex 10.009 -2.9 8.08779
    endloop
  endfacet
  facet normal 0 1 0
    outer loop
      vertex 3.43831 -2.9 15.6
      vertex 10.009 -2.9 8.08779
      vertex 9.50902 -2.9 8.45106
    endloop
  endfacet
  facet normal 0 1 0
    outer loop
      vertex 8.39098 -2.9 8.08779
      vertex 3.43831 -2.9 15.6
      vertex 8.89098 -2.9 8.45106
    endloop
  endfacet
  facet normal 0 1 0
    outer loop
      vertex 8.2 -2.9 7.5
      vertex 3.43831 -2.9 15.6
      vertex 8.39098 -2.9 8.08779
    endloop
  endfacet
  facet normal 0 1 0
    outer loop
      vertex 3.43831 -2.9 15.6
      vertex 8.2 -2.9 7.5
      vertex 8.39098 -2.9 6.91222
    endloop
  endfacet
  facet normal 0 1 0
    outer loop
      vertex 8.89098 -2.9 8.45106
      vertex 3.43831 -2.9 15.6
      vertex 9.50902 -2.9 8.45106
    endloop
  endfacet
  facet normal -0.642788 0.766044 0
    outer loop
      vertex 3.43831 -2.9 15.6
      vertex 3.43831 -2.9 0
      vertex 2.25 -3.89711 15.6
    endloop
  endfacet
  facet normal -0.642788 0.766044 0
    outer loop
      vertex 2.25 -3.89711 15.6
      vertex 3.43831 -2.9 0
      vertex 2.25 -3.89711 0
    endloop
  endfacet
  facet normal -0.34202 0.939693 0
    outer loop
      vertex 2.25 -3.89711 15.6
      vertex 2.25 -3.89711 0
      vertex 0.781417 -4.43163 15.6
    endloop
  endfacet
  facet normal -0.34202 0.939693 0
    outer loop
      vertex 0.781417 -4.43163 15.6
      vertex 2.25 -3.89711 0
      vertex 0.781417 -4.43163 0
    endloop
  endfacet
  facet normal 0 1 0
    outer loop
      vertex 0.781417 -4.43163 15.6
      vertex 0.781417 -4.43163 0
      vertex -0.781417 -4.43163 15.6
    endloop
  endfacet
  facet normal 0 1 0
    outer loop
      vertex -0.781417 -4.43163 15.6
      vertex 0.781417 -4.43163 0
      vertex -0.781417 -4.43163 0
    endloop
  endfacet
  facet normal 0.34202 0.939693 0
    outer loop
      vertex -0.781417 -4.43163 15.6
      vertex -0.781417 -4.43163 0
      vertex -2.25 -3.89711 15.6
    endloop
  endfacet
  facet normal 0.34202 0.939693 0
    outer loop
      vertex -2.25 -3.89711 15.6
      vertex -0.781417 -4.43163 0
      vertex -2.25 -3.89711 0
    endloop
  endfacet
  facet normal 0.642788 0.766044 0
    outer loop
      vertex -2.25 -3.89711 15.6
      vertex -2.25 -3.89711 0
      vertex -3.4472 -2.89254 15.6
    endloop
  endfacet
  facet normal 0.642788 0.766044 0
    outer loop
      vertex -3.4472 -2.89254 15.6
      vertex -2.25 -3.89711 0
      vertex -3.4472 -2.89254 0
    endloop
  endfacet
  facet normal 0.866025 0.5 0
    outer loop
      vertex -4.22862 -1.53909 15.6
      vertex -3.4472 -2.89254 15.6
      vertex -3.4472 -2.89254 0
    endloop
  endfacet
  facet normal 0.866025 0.5 0
    outer loop
      vertex -4.22862 -1.53909 0
      vertex -4.22862 -1.53909 15.6
      vertex -3.4472 -2.89254 0
    endloop
  endfacet
  facet normal 0.984808 0.173648 0
    outer loop
      vertex -4.5 0 15
      vertex -4.5 0 15.6
      vertex -4.22862 -1.53909 15.6
    endloop
  endfacet
  facet normal 0.984808 0.173648 0
    outer loop
      vertex -4.5 0 0
      vertex -4.5 0 15
      vertex -4.22862 -1.53909 0
    endloop
  endfacet
  facet normal 0.984808 0.173648 0
    outer loop
      vertex -4.22862 -1.53909 0
      vertex -4.5 0 15
      vertex -4.22862 -1.53909 15.6
    endloop
  endfacet
  facet normal 0.984808 -0.173648 0
    outer loop
      vertex -4.22862 1.53909 0
      vertex -4.22862 1.53909 15.6
      vertex -4.5 0 15.6
    endloop
  endfacet
  facet normal 0.984808 -0.173648 0
    outer loop
      vertex -4.5 0 0
      vertex -4.22862 1.53909 0
      vertex -4.5 0 15
    endloop
  endfacet
  facet normal 0.984808 -0.173648 0
    outer loop
      vertex -4.5 0 15
      vertex -4.22862 1.53909 0
      vertex -4.5 0 15.6
    endloop
  endfacet
  facet normal 0.866025 -0.5 0
    outer loop
      vertex -3.4472 2.89254 0
      vertex -3.4472 2.89254 15.6
      vertex -4.22862 1.53909 15.6
    endloop
  endfacet
  facet normal 0.866025 -0.5 0
    outer loop
      vertex -4.22862 1.53909 0
      vertex -3.4472 2.89254 0
      vertex -4.22862 1.53909 15.6
    endloop
  endfacet
  facet normal 0.642788 -0.766044 0
    outer loop
      vertex -2.25 3.89711 0
      vertex -2.25 3.89711 15.6
      vertex -3.4472 2.89254 15.6
    endloop
  endfacet
  facet normal 0.642788 -0.766044 0
    outer loop
      vertex -3.4472 2.89254 0
      vertex -2.25 3.89711 0
      vertex -3.4472 2.89254 15.6
    endloop
  endfacet
  facet normal 0.34202 -0.939693 0
    outer loop
      vertex -0.781417 4.43163 0
      vertex -0.781417 4.43163 15.6
      vertex -2.25 3.89711 15.6
    endloop
  endfacet
  facet normal 0.34202 -0.939693 0
    outer loop
      vertex -2.25 3.89711 0
      vertex -0.781417 4.43163 0
      vertex -2.25 3.89711 15.6
    endloop
  endfacet
  facet normal 0 -1 0
    outer loop
      vertex 0.781417 4.43163 0
      vertex 0.781417 4.43163 15.6
      vertex -0.781417 4.43163 15.6
    endloop
  endfacet
  facet normal 0 -1 0
    outer loop
      vertex -0.781417 4.43163 0
      vertex 0.781417 4.43163 0
      vertex -0.781417 4.43163 15.6
    endloop
  endfacet
  facet normal -0.34202 -0.939693 0
    outer loop
      vertex 2.25 3.89711 0
      vertex 2.25 3.89711 15.6
      vertex 0.781417 4.43163 15.6
    endloop
  endfacet
  facet normal -0.34202 -0.939693 0
    outer loop
      vertex 0.781417 4.43163 0
      vertex 2.25 3.89711 0
      vertex 0.781417 4.43163 15.6
    endloop
  endfacet
  facet normal -0.642788 -0.766044 0
    outer loop
      vertex 3.4472 2.89254 0
      vertex 3.4472 2.89254 15.6
      vertex 2.25 3.89711 15.6
    endloop
  endfacet
  facet normal -0.642788 -0.766044 0
    outer loop
      vertex 2.25 3.89711 0
      vertex 3.4472 2.89254 0
      vertex 2.25 3.89711 15.6
    endloop
  endfacet
  facet normal -0.866025 -0.5 0
    outer loop
      vertex 3.90478 2.1 15.6
      vertex 3.4472 2.89254 15.6
      vertex 3.90478 2.1 0
    endloop
  endfacet
  facet normal -0.866025 -0.5 0
    outer loop
      vertex 3.90478 2.1 0
      vertex 3.4472 2.89254 15.6
      vertex 3.4472 2.89254 0
    endloop
  endfacet
  facet normal 0 -1 0
    outer loop
      vertex 17.5 2.1 0
      vertex 17.5 2.1 15.6
      vertex 3.90478 2.1 15.6
    endloop
  endfacet
  facet normal 0 -1 0
    outer loop
      vertex 10.009 2.1 8.08779
      vertex 17.5 2.1 0
      vertex 3.90478 2.1 15.6
    endloop
  endfacet
  facet normal 0 -1 0
    outer loop
      vertex 3.90478 2.1 0
      vertex 8.2 2.1 7.5
      vertex 3.90478 2.1 15.6
    endloop
  endfacet
  facet normal 0 -1 0
    outer loop
      vertex 8.2 2.1 7.5
      vertex 8.39098 2.1 8.08779
      vertex 3.90478 2.1 15.6
    endloop
  endfacet
  facet normal 0 -1 0
    outer loop
      vertex 8.39098 2.1 8.08779
      vertex 8.89098 2.1 8.45106
      vertex 3.90478 2.1 15.6
    endloop
  endfacet
  facet normal 0 -1 0
    outer loop
      vertex 8.89098 2.1 8.45106
      vertex 9.50902 2.1 8.45106
      vertex 3.90478 2.1 15.6
    endloop
  endfacet
  facet normal 0 -1 0
    outer loop
      vertex 9.50902 2.1 8.45106
      vertex 10.009 2.1 8.08779
      vertex 3.90478 2.1 15.6
    endloop
  endfacet
  facet normal 0 -1 0
    outer loop
      vertex 10.2 2.1 7.5
      vertex 10.009 2.1 6.91222
      vertex 17.5 2.1 0
    endloop
  endfacet
  facet normal 0 -1 0
    outer loop
      vertex 10.009 2.1 6.91222
      vertex 9.50902 2.1 6.54894
      vertex 17.5 2.1 0
    endloop
  endfacet
  facet normal 0 -1 0
    outer loop
      vertex 9.50902 2.1 6.54894
      vertex 8.89098 2.1 6.54894
      vertex 17.5 2.1 0
    endloop
  endfacet
  facet normal 0 -1 0
    outer loop
      vertex 3.90478 2.1 0
      vertex 17.5 2.1 0
      vertex 8.89098 2.1 6.54894
    endloop
  endfacet
  facet normal 0 -1 0
    outer loop
      vertex 3.90478 2.1 0
      vertex 8.39098 2.1 6.91222
      vertex 8.2 2.1 7.5
    endloop
  endfacet
  facet normal 0 -1 0
    outer loop
      vertex 3.90478 2.1 0
      vertex 8.89098 2.1 6.54894
      vertex 8.39098 2.1 6.91222
    endloop
  endfacet
  facet normal 0 -1 0
    outer loop
      vertex 10.009 2.1 8.08779
      vertex 10.2 2.1 7.5
      vertex 17.5 2.1 0
    endloop
  endfacet
  facet normal 1 0 0
    outer loop
      vertex 17.5 2.1 15.6
      vertex 17.5 2.1 0
      vertex 17.5 7.8 0
    endloop
  endfacet
  facet normal 1 0 0
    outer loop
      vertex 17.5 7.8 15.6
      vertex 17.5 2.1 15.6
      vertex 17.5 7.8 0
    endloop
  endfacet
  facet normal 0 1 0
    outer loop
      vertex 10.009 7.8 8.08779
      vertex 0 7.8 15.6
      vertex 17.5 7.8 15.6
    endloop
  endfacet
  facet normal 0 1 0
    outer loop
      vertex 0 7.8 0
      vertex 0 7.8 15.6
      vertex 8.2 7.8 7.5
    endloop
  endfacet
  facet normal 0 1 0
    outer loop
      vertex 0 7.8 0
      vertex 8.2 7.8 7.5
      vertex 8.39098 7.8 6.91221
    endloop
  endfacet
  facet normal 0 1 0
    outer loop
      vertex 0 7.8 0
      vertex 8.39098 7.8 6.91221
      vertex 17.5 7.8 0
    endloop
  endfacet
  facet normal 0 1 0
    outer loop
      vertex 8.39098 7.8 6.91221
      vertex 8.89098 7.8 6.54894
      vertex 17.5 7.8 0
    endloop
  endfacet
  facet normal 0 1 0
    outer loop
      vertex 9.50902 7.8 6.54894
      vertex 17.5 7.8 0
      vertex 8.89098 7.8 6.54894
    endloop
  endfacet
  facet normal 0 1 0
    outer loop
      vertex 10.009 7.8 6.91221
      vertex 17.5 7.8 0
      vertex 9.50902 7.8 6.54894
    endloop
  endfacet
  facet normal 0 1 0
    outer loop
      vertex 8.89098 7.8 8.45106
      vertex 0 7.8 15.6
      vertex 9.50902 7.8 8.45106
    endloop
  endfacet
  facet normal 0 1 0
    outer loop
      vertex 17.5 7.8 0
      vertex 10.009 7.8 6.91221
      vertex 17.5 7.8 15.6
    endloop
  endfacet
  facet normal 0 1 0
    outer loop
      vertex 8.39098 7.8 8.08779
      vertex 0 7.8 15.6
      vertex 8.89098 7.8 8.45106
    endloop
  endfacet
  facet normal 0 1 0
    outer loop
      vertex 10.009 7.8 6.91221
      vertex 10.2 7.8 7.5
      vertex 17.5 7.8 15.6
    endloop
  endfacet
  facet normal 0 1 0
    outer loop
      vertex 9.50902 7.8 8.45106
      vertex 0 7.8 15.6
      vertex 10.009 7.8 8.08779
    endloop
  endfacet
  facet normal 0 1 0
    outer loop
      vertex 10.2 7.8 7.5
      vertex 10.009 7.8 8.08779
      vertex 17.5 7.8 15.6
    endloop
  endfacet
  facet normal 0 1 0
    outer loop
      vertex 8.2 7.8 7.5
      vertex 0 7.8 15.6
      vertex 8.39098 7.8 8.08779
    endloop
  endfacet
  facet normal -0.156434 0.987688 0
    outer loop
      vertex -2.41033 7.41824 0
      vertex -2.41033 7.41824 15.6
      vertex 0 7.8 0
    endloop
  endfacet
  facet normal -0.156434 0.987688 0
    outer loop
      vertex 0 7.8 0
      vertex -2.41033 7.41824 15.6
      vertex 0 7.8 15.6
    endloop
  endfacet
  facet normal -0.45399 0.891007 0
    outer loop
      vertex -4.58472 6.31033 0
      vertex -4.58472 6.31033 15.6
      vertex -2.41033 7.41824 0
    endloop
  endfacet
  facet normal -0.45399 0.891007 0
    outer loop
      vertex -2.41033 7.41824 0
      vertex -4.58472 6.31033 15.6
      vertex -2.41033 7.41824 15.6
    endloop
  endfacet
  facet normal -0.707107 0.707107 0
    outer loop
      vertex -6.31033 4.58472 0
      vertex -6.31033 4.58472 15.6
      vertex -4.58472 6.31033 0
    endloop
  endfacet
  facet normal -0.707107 0.707107 0
    outer loop
      vertex -4.58472 6.31033 0
      vertex -6.31033 4.58472 15.6
      vertex -4.58472 6.31033 15.6
    endloop
  endfacet
  facet normal -0.891007 0.45399 0
    outer loop
      vertex -7.41824 2.41033 15
      vertex -7.41824 2.41033 15.6
      vertex -7.37255 2.5 15
    endloop
  endfacet
  facet normal -0.891007 0.45399 0
    outer loop
      vertex -7.37255 2.5 15
      vertex -7.41824 2.41033 15.6
      vertex -6.31033 4.58472 15.6
    endloop
  endfacet
  facet normal -0.891007 0.45399 0
    outer loop
      vertex -7.37255 2.5 15
      vertex -6.31033 4.58472 15.6
      vertex -6.31033 4.58472 0
    endloop
  endfacet
  facet normal -0.891007 0.45399 0
    outer loop
      vertex -7.37255 2.5 15
      vertex -6.31033 4.58472 0
      vertex -7.37255 2.5 0
    endloop
  endfacet
  facet normal 0 1 0
    outer loop
      vertex -13.9628 2.5 0
      vertex -13.9628 2.5 15
      vertex -7.37255 2.5 0
    endloop
  endfacet
  facet normal 0 1 0
    outer loop
      vertex -7.37255 2.5 0
      vertex -13.9628 2.5 15
      vertex -7.37255 2.5 15
    endloop
  endfacet
  facet normal 0.994522 0.104528 0
    outer loop
      vertex -13.9628 2.5 0
      vertex -14.0125 2.97314 0
      vertex -14.0125 2.97314 15
    endloop
  endfacet
  facet normal 0.994522 0.104528 0
    outer loop
      vertex -13.9628 2.5 15
      vertex -13.9628 2.5 0
      vertex -14.0125 2.97314 15
    endloop
  endfacet
  facet normal 0.951056 0.309017 0
    outer loop
      vertex -14.0125 2.97314 0
      vertex -14.9363 5.81633 0
      vertex -14.9363 5.81633 15
    endloop
  endfacet
  facet normal 0.951056 0.309017 0
    outer loop
      vertex -14.0125 2.97314 15
      vertex -14.0125 2.97314 0
      vertex -14.9363 5.81633 15
    endloop
  endfacet
  facet normal 0.866025 0.5 0
    outer loop
      vertex -14.9363 5.81633 0
      vertex -16.4311 8.40533 0
      vertex -16.4311 8.40533 15
    endloop
  endfacet
  facet normal 0.866025 0.5 0
    outer loop
      vertex -14.9363 5.81633 15
      vertex -14.9363 5.81633 0
      vertex -16.4311 8.40533 15
    endloop
  endfacet
  facet normal 0.743145 0.669131 0
    outer loop
      vertex -16.4311 8.40533 0
      vertex -18.4314 10.627 0
      vertex -18.4314 10.627 15
    endloop
  endfacet
  facet normal 0.743145 0.669131 0
    outer loop
      vertex -16.4311 8.40533 15
      vertex -16.4311 8.40533 0
      vertex -18.4314 10.627 15
    endloop
  endfacet
  facet normal 0.587785 0.809017 0
    outer loop
      vertex -20.85 12.3842 0
      vertex -20.85 12.3842 15
      vertex -18.4314 10.627 0
    endloop
  endfacet
  facet normal 0.587785 0.809017 0
    outer loop
      vertex -18.4314 10.627 0
      vertex -20.85 12.3842 15
      vertex -18.4314 10.627 15
    endloop
  endfacet
  facet normal 0.406737 0.913545 0
    outer loop
      vertex -23.5811 13.6001 0
      vertex -23.5811 13.6001 15
      vertex -20.85 12.3842 0
    endloop
  endfacet
  facet normal 0.406737 0.913545 0
    outer loop
      vertex -20.85 12.3842 0
      vertex -23.5811 13.6001 15
      vertex -20.85 12.3842 15
    endloop
  endfacet
  facet normal 0.207912 0.978148 0
    outer loop
      vertex -26.5052 14.2217 0
      vertex -26.5052 14.2217 15
      vertex -23.5811 13.6001 0
    endloop
  endfacet
  facet normal 0.207912 0.978148 0
    outer loop
      vertex -23.5811 13.6001 0
      vertex -26.5052 14.2217 15
      vertex -23.5811 13.6001 15
    endloop
  endfacet
  facet normal 0 1 0
    outer loop
      vertex -29.4948 14.2217 0
      vertex -29.4948 14.2217 15
      vertex -26.5052 14.2217 0
    endloop
  endfacet
  facet normal 0 1 0
    outer loop
      vertex -26.5052 14.2217 0
      vertex -29.4948 14.2217 15
      vertex -26.5052 14.2217 15
    endloop
  endfacet
  facet normal -0.207912 0.978148 0
    outer loop
      vertex -32.4189 13.6001 0
      vertex -32.4189 13.6001 15
      vertex -29.4948 14.2217 0
    endloop
  endfacet
  facet normal -0.207912 0.978148 0
    outer loop
      vertex -29.4948 14.2217 0
      vertex -32.4189 13.6001 15
      vertex -29.4948 14.2217 15
    endloop
  endfacet
  facet normal -0.406737 0.913545 0
    outer loop
      vertex -35.15 12.3842 0
      vertex -35.15 12.3842 15
      vertex -32.4189 13.6001 0
    endloop
  endfacet
  facet normal -0.406737 0.913545 0
    outer loop
      vertex -32.4189 13.6001 0
      vertex -35.15 12.3842 15
      vertex -32.4189 13.6001 15
    endloop
  endfacet
  facet normal -0.587785 0.809017 0
    outer loop
      vertex -37.5686 10.627 0
      vertex -37.5686 10.627 15
      vertex -35.15 12.3842 0
    endloop
  endfacet
  facet normal -0.587785 0.809017 0
    outer loop
      vertex -35.15 12.3842 0
      vertex -37.5686 10.627 15
      vertex -35.15 12.3842 15
    endloop
  endfacet
  facet normal -0.743145 0.669131 0
    outer loop
      vertex -39.5689 8.40533 0
      vertex -39.5689 8.40533 15
      vertex -37.5686 10.627 0
    endloop
  endfacet
  facet normal -0.743145 0.669131 0
    outer loop
      vertex -37.5686 10.627 0
      vertex -39.5689 8.40533 15
      vertex -37.5686 10.627 15
    endloop
  endfacet
  facet normal -0.866025 0.5 0
    outer loop
      vertex -41.0637 5.81633 0
      vertex -41.0637 5.81633 15
      vertex -39.5689 8.40533 0
    endloop
  endfacet
  facet normal -0.866025 0.5 0
    outer loop
      vertex -39.5689 8.40533 0
      vertex -41.0637 5.81633 15
      vertex -39.5689 8.40533 15
    endloop
  endfacet
  facet normal -0.951056 0.309017 0
    outer loop
      vertex -41.9875 2.97314 0
      vertex -41.9875 2.97314 15
      vertex -41.0637 5.81633 0
    endloop
  endfacet
  facet normal -0.951056 0.309017 0
    outer loop
      vertex -41.0637 5.81633 0
      vertex -41.9875 2.97314 15
      vertex -41.0637 5.81633 15
    endloop
  endfacet
  facet normal 0.945817 -0.324699 0
    outer loop
      vertex -33.2768 2.85568 0
      vertex -33.2768 2.85568 5
      vertex -33.9182 0.987568 5
    endloop
  endfacet
  facet normal 0.945817 -0.324699 0
    outer loop
      vertex -33.9182 0.987568 0
      vertex -33.2768 2.85568 0
      vertex -33.9182 0.987568 5
    endloop
  endfacet
  facet normal 1 0 0
    outer loop
      vertex -33.9182 0.987568 0
      vertex -33.9182 0.987568 5
      vertex -33.9182 -0.987568 5
    endloop
  endfacet
  facet normal 1 0 0
    outer loop
      vertex -33.9182 -0.987568 0
      vertex -33.9182 0.987568 0
      vertex -33.9182 -0.987568 5
    endloop
  endfacet
  facet normal 0.78914 -0.614213 0
    outer loop
      vertex -32.0637 4.41434 0
      vertex -32.0637 4.41434 5
      vertex -33.2768 2.85568 5
    endloop
  endfacet
  facet normal 0.78914 -0.614213 0
    outer loop
      vertex -33.2768 2.85568 0
      vertex -32.0637 4.41434 0
      vertex -33.2768 2.85568 5
    endloop
  endfacet
  facet normal 0.546949 -0.837166 0
    outer loop
      vertex -30.4102 5.49464 0
      vertex -30.4102 5.49464 5
      vertex -32.0637 4.41434 5
    endloop
  endfacet
  facet normal 0.546949 -0.837166 0
    outer loop
      vertex -32.0637 4.41434 0
      vertex -30.4102 5.49464 0
      vertex -32.0637 4.41434 5
    endloop
  endfacet
  facet normal 0.245485 -0.9694 0
    outer loop
      vertex -28.4955 5.97951 0
      vertex -28.4955 5.97951 5
      vertex -30.4102 5.49464 5
    endloop
  endfacet
  facet normal 0.245485 -0.9694 0
    outer loop
      vertex -30.4102 5.49464 0
      vertex -28.4955 5.97951 0
      vertex -30.4102 5.49464 5
    endloop
  endfacet
  facet normal -0.0825792 -0.996585 0
    outer loop
      vertex -26.5271 5.8164 0
      vertex -26.5271 5.8164 5
      vertex -28.4955 5.97951 5
    endloop
  endfacet
  facet normal -0.0825792 -0.996585 0
    outer loop
      vertex -28.4955 5.97951 0
      vertex -26.5271 5.8164 0
      vertex -28.4955 5.97951 5
    endloop
  endfacet
  facet normal -0.401696 -0.915773 0
    outer loop
      vertex -24.7183 5.023 0
      vertex -24.7183 5.023 5
      vertex -26.5271 5.8164 5
    endloop
  endfacet
  facet normal -0.401696 -0.915773 0
    outer loop
      vertex -26.5271 5.8164 0
      vertex -24.7183 5.023 0
      vertex -26.5271 5.8164 5
    endloop
  endfacet
  facet normal -0.677282 -0.735724 0
    outer loop
      vertex -23.2652 3.68528 0
      vertex -23.2652 3.68528 5
      vertex -24.7183 5.023 5
    endloop
  endfacet
  facet normal -0.677282 -0.735724 0
    outer loop
      vertex -24.7183 5.023 0
      vertex -23.2652 3.68528 0
      vertex -24.7183 5.023 5
    endloop
  endfacet
  facet normal -0.879474 -0.475947 0
    outer loop
      vertex -22.3251 1.9482 5
      vertex -23.2652 3.68528 5
      vertex -22.3251 1.9482 0
    endloop
  endfacet
  facet normal -0.879474 -0.475947 0
    outer loop
      vertex -22.3251 1.9482 0
      vertex -23.2652 3.68528 5
      vertex -23.2652 3.68528 0
    endloop
  endfacet
  facet normal -0.986361 -0.164595 0
    outer loop
      vertex -22 0 5
      vertex -22.3251 1.9482 5
      vertex -22 0 0
    endloop
  endfacet
  facet normal -0.986361 -0.164595 0
    outer loop
      vertex -22 0 0
      vertex -22.3251 1.9482 5
      vertex -22.3251 1.9482 0
    endloop
  endfacet
  facet normal -0.986361 0.164595 0
    outer loop
      vertex -22 0 5
      vertex -22 0 0
      vertex -22.3251 -1.9482 5
    endloop
  endfacet
  facet normal -0.986361 0.164595 0
    outer loop
      vertex -22.3251 -1.9482 5
      vertex -22 0 0
      vertex -22.3251 -1.9482 0
    endloop
  endfacet
  facet normal -0.879474 0.475947 0
    outer loop
      vertex -22.3251 -1.9482 5
      vertex -22.3251 -1.9482 0
      vertex -23.2652 -3.68528 5
    endloop
  endfacet
  facet normal -0.879474 0.475947 0
    outer loop
      vertex -23.2652 -3.68528 5
      vertex -22.3251 -1.9482 0
      vertex -23.2652 -3.68528 0
    endloop
  endfacet
  facet normal -0.677282 0.735724 0
    outer loop
      vertex -23.2652 -3.68528 5
      vertex -23.2652 -3.68528 0
      vertex -24.7183 -5.023 5
    endloop
  endfacet
  facet normal -0.677282 0.735724 0
    outer loop
      vertex -24.7183 -5.023 5
      vertex -23.2652 -3.68528 0
      vertex -24.7183 -5.023 0
    endloop
  endfacet
  facet normal -0.401696 0.915773 0
    outer loop
      vertex -24.7183 -5.023 5
      vertex -24.7183 -5.023 0
      vertex -26.5271 -5.8164 5
    endloop
  endfacet
  facet normal -0.401696 0.915773 0
    outer loop
      vertex -26.5271 -5.8164 5
      vertex -24.7183 -5.023 0
      vertex -26.5271 -5.8164 0
    endloop
  endfacet
  facet normal -0.0825792 0.996585 0
    outer loop
      vertex -26.5271 -5.8164 5
      vertex -26.5271 -5.8164 0
      vertex -28.4955 -5.97951 5
    endloop
  endfacet
  facet normal -0.0825792 0.996585 0
    outer loop
      vertex -28.4955 -5.97951 5
      vertex -26.5271 -5.8164 0
      vertex -28.4955 -5.97951 0
    endloop
  endfacet
  facet normal 0.245485 0.9694 0
    outer loop
      vertex -28.4955 -5.97951 5
      vertex -28.4955 -5.97951 0
      vertex -30.4102 -5.49464 5
    endloop
  endfacet
  facet normal 0.245485 0.9694 0
    outer loop
      vertex -30.4102 -5.49464 5
      vertex -28.4955 -5.97951 0
      vertex -30.4102 -5.49464 0
    endloop
  endfacet
  facet normal 0.546949 0.837166 0
    outer loop
      vertex -30.4102 -5.49464 5
      vertex -30.4102 -5.49464 0
      vertex -32.0637 -4.41434 5
    endloop
  endfacet
  facet normal 0.546949 0.837166 0
    outer loop
      vertex -32.0637 -4.41434 5
      vertex -30.4102 -5.49464 0
      vertex -32.0637 -4.41434 0
    endloop
  endfacet
  facet normal 0.78914 0.614213 0
    outer loop
      vertex -33.2768 -2.85568 5
      vertex -32.0637 -4.41434 5
      vertex -32.0637 -4.41434 0
    endloop
  endfacet
  facet normal 0.78914 0.614213 0
    outer loop
      vertex -33.2768 -2.85568 0
      vertex -33.2768 -2.85568 5
      vertex -32.0637 -4.41434 0
    endloop
  endfacet
  facet normal 0.945817 0.324699 0
    outer loop
      vertex -33.9182 -0.987568 5
      vertex -33.2768 -2.85568 5
      vertex -33.2768 -2.85568 0
    endloop
  endfacet
  facet normal 0.945817 0.324699 0
    outer loop
      vertex -33.9182 -0.987568 0
      vertex -33.9182 -0.987568 5
      vertex -33.2768 -2.85568 0
    endloop
  endfacet
  facet normal 0 0 1
    outer loop
      vertex -41.9875 2.97314 15
      vertex -42.3 0 15
      vertex -41.9875 -2.97314 15
    endloop
  endfacet
  facet normal 0 0 1
    outer loop
      vertex -39.5689 -8.40533 15
      vertex -41.9875 2.97314 15
      vertex -41.0637 -5.81633 15
    endloop
  endfacet
  facet normal 0 0 1
    outer loop
      vertex -41.0637 -5.81633 15
      vertex -41.9875 2.97314 15
      vertex -41.9875 -2.97314 15
    endloop
  endfacet
  facet normal 0 0 1
    outer loop
      vertex -37.5686 -10.627 15
      vertex -41.9875 2.97314 15
      vertex -39.5689 -8.40533 15
    endloop
  endfacet
  facet normal 0 0 1
    outer loop
      vertex -35.15 -12.3842 15
      vertex -41.9875 2.97314 15
      vertex -37.5686 -10.627 15
    endloop
  endfacet
  facet normal 0 0 1
    outer loop
      vertex -38.3231 -4.59612 15
      vertex -41.9875 2.97314 15
      vertex -35.15 -12.3842 15
    endloop
  endfacet
  facet normal 0 0 1
    outer loop
      vertex -20.4388 -8.39754 15
      vertex -22.35 -9.78609 15
      vertex -18.4314 -10.627 15
    endloop
  endfacet
  facet normal 0 0 1
    outer loop
      vertex -18.8581 -6.64197 15
      vertex -20.4388 -8.39754 15
      vertex -16.4311 -8.40533 15
    endloop
  endfacet
  facet normal 0 0 1
    outer loop
      vertex -16.7 0 15
      vertex -7.37255 -2.5 15
      vertex -7.41824 -2.41033 15
    endloop
  endfacet
  facet normal 0 0 1
    outer loop
      vertex -17.6769 4.59612 15
      vertex -13.9628 2.5 15
      vertex -14.0125 2.97314 15
    endloop
  endfacet
  facet normal 0 0 1
    outer loop
      vertex -7.41824 2.41033 15
      vertex -13.9628 2.5 15
      vertex -7.8 0 15
    endloop
  endfacet
  facet normal 0 0 1
    outer loop
      vertex -22.35 9.78609 15
      vertex -20.4388 8.39754 15
      vertex -18.4314 10.627 15
    endloop
  endfacet
  facet normal 0 0 1
    outer loop
      vertex -16.7 0 15
      vertex -14.0125 -2.97314 15
      vertex -13.9628 -2.5 15
    endloop
  endfacet
  facet normal 0 0 1
    outer loop
      vertex -26.8188 11.2381 15
      vertex -24.5081 10.7469 15
      vertex -20.85 12.3842 15
    endloop
  endfacet
  facet normal 0 0 1
    outer loop
      vertex -32.4189 13.6001 15
      vertex -41.9875 2.97314 15
      vertex -29.4948 14.2217 15
    endloop
  endfacet
  facet normal 0 0 1
    outer loop
      vertex -35.15 12.3842 15
      vertex -41.9875 2.97314 15
      vertex -32.4189 13.6001 15
    endloop
  endfacet
  facet normal 0 0 1
    outer loop
      vertex -37.5686 10.627 15
      vertex -41.9875 2.97314 15
      vertex -35.15 12.3842 15
    endloop
  endfacet
  facet normal 0 0 1
    outer loop
      vertex -39.5689 8.40533 15
      vertex -41.9875 2.97314 15
      vertex -37.5686 10.627 15
    endloop
  endfacet
  facet normal 0 0 1
    outer loop
      vertex -41.0637 5.81633 15
      vertex -41.9875 2.97314 15
      vertex -39.5689 8.40533 15
    endloop
  endfacet
  facet normal 0 0 1
    outer loop
      vertex -31.4919 -10.7469 15
      vertex -33.65 -9.78609 15
      vertex -29.4948 -14.2217 15
    endloop
  endfacet
  facet normal 0 0 1
    outer loop
      vertex -17.6769 -4.59612 15
      vertex -18.8581 -6.64197 15
      vertex -14.9363 -5.81633 15
    endloop
  endfacet
  facet normal 0 0 1
    outer loop
      vertex -20.4388 8.39754 15
      vertex -18.8581 6.64197 15
      vertex -16.4311 8.40533 15
    endloop
  endfacet
  facet normal 0 0 1
    outer loop
      vertex -16.7 0 15
      vertex -16.9469 -2.3494 15
      vertex -14.0125 -2.97314 15
    endloop
  endfacet
  facet normal 0 0 1
    outer loop
      vertex -29.1812 11.2381 15
      vertex -26.8188 11.2381 15
      vertex -23.5811 13.6001 15
    endloop
  endfacet
  facet normal 0 0 1
    outer loop
      vertex -35.5612 8.39754 15
      vertex -41.9875 2.97314 15
      vertex -37.1419 6.64197 15
    endloop
  endfacet
  facet normal 0 0 1
    outer loop
      vertex -31.4919 10.7469 15
      vertex -29.1812 11.2381 15
      vertex -26.5052 14.2217 15
    endloop
  endfacet
  facet normal 0 0 1
    outer loop
      vertex -29.4948 14.2217 15
      vertex -41.9875 2.97314 15
      vertex -35.5612 8.39754 15
    endloop
  endfacet
  facet normal 0 0 1
    outer loop
      vertex -29.4948 14.2217 15
      vertex -33.65 9.78609 15
      vertex -26.5052 14.2217 15
    endloop
  endfacet
  facet normal 0 0 1
    outer loop
      vertex -33.65 9.78609 15
      vertex -31.4919 10.7469 15
      vertex -26.5052 14.2217 15
    endloop
  endfacet
  facet normal 0 0 1
    outer loop
      vertex -26.5052 14.2217 15
      vertex -29.1812 11.2381 15
      vertex -23.5811 13.6001 15
    endloop
  endfacet
  facet normal 0 0 1
    outer loop
      vertex -35.5612 8.39754 15
      vertex -33.65 9.78609 15
      vertex -29.4948 14.2217 15
    endloop
  endfacet
  facet normal 0 0 1
    outer loop
      vertex -23.5811 13.6001 15
      vertex -26.8188 11.2381 15
      vertex -20.85 12.3842 15
    endloop
  endfacet
  facet normal 0 0 1
    outer loop
      vertex -16.7 0 15
      vertex -13.9628 -2.5 15
      vertex -7.37255 -2.5 15
    endloop
  endfacet
  facet normal 0 0 1
    outer loop
      vertex -20.85 12.3842 15
      vertex -24.5081 10.7469 15
      vertex -18.4314 10.627 15
    endloop
  endfacet
  facet normal 0 0 1
    outer loop
      vertex -24.5081 10.7469 15
      vertex -22.35 9.78609 15
      vertex -18.4314 10.627 15
    endloop
  endfacet
  facet normal 0 0 1
    outer loop
      vertex -18.4314 10.627 15
      vertex -20.4388 8.39754 15
      vertex -16.4311 8.40533 15
    endloop
  endfacet
  facet normal 0 0 1
    outer loop
      vertex -16.4311 8.40533 15
      vertex -18.8581 6.64197 15
      vertex -14.9363 5.81633 15
    endloop
  endfacet
  facet normal 0 0 1
    outer loop
      vertex -17.6769 4.59612 15
      vertex -16.9469 2.3494 15
      vertex -13.9628 2.5 15
    endloop
  endfacet
  facet normal 0 0 1
    outer loop
      vertex -14.9363 5.81633 15
      vertex -17.6769 4.59612 15
      vertex -14.0125 2.97314 15
    endloop
  endfacet
  facet normal 0 0 1
    outer loop
      vertex -38.3231 4.59612 15
      vertex -37.1419 6.64197 15
      vertex -41.9875 2.97314 15
    endloop
  endfacet
  facet normal 0 0 1
    outer loop
      vertex -13.9628 2.5 15
      vertex -16.9469 2.3494 15
      vertex -7.8 0 15
    endloop
  endfacet
  facet normal 0 0 1
    outer loop
      vertex -7.8 0 15
      vertex -16.7 0 15
      vertex -7.41824 -2.41033 15
    endloop
  endfacet
  facet normal 0 0 1
    outer loop
      vertex -14.0125 -2.97314 15
      vertex -16.9469 -2.3494 15
      vertex -14.9363 -5.81633 15
    endloop
  endfacet
  facet normal 0 0 1
    outer loop
      vertex -18.8581 6.64197 15
      vertex -17.6769 4.59612 15
      vertex -14.9363 5.81633 15
    endloop
  endfacet
  facet normal 0 0 1
    outer loop
      vertex -16.9469 -2.3494 15
      vertex -17.6769 -4.59612 15
      vertex -14.9363 -5.81633 15
    endloop
  endfacet
  facet normal 0 0 1
    outer loop
      vertex -14.9363 -5.81633 15
      vertex -18.8581 -6.64197 15
      vertex -16.4311 -8.40533 15
    endloop
  endfacet
  facet normal 0 0 1
    outer loop
      vertex -16.4311 -8.40533 15
      vertex -20.4388 -8.39754 15
      vertex -18.4314 -10.627 15
    endloop
  endfacet
  facet normal 0 0 1
    outer loop
      vertex -16.9469 2.3494 15
      vertex -16.7 0 15
      vertex -7.8 0 15
    endloop
  endfacet
  facet normal 0 0 1
    outer loop
      vertex -18.4314 -10.627 15
      vertex -22.35 -9.78609 15
      vertex -20.85 -12.3842 15
    endloop
  endfacet
  facet normal 0 0 1
    outer loop
      vertex -20.85 -12.3842 15
      vertex -24.5081 -10.7469 15
      vertex -23.5811 -13.6001 15
    endloop
  endfacet
  facet normal 0 0 1
    outer loop
      vertex -23.5811 -13.6001 15
      vertex -26.8188 -11.2381 15
      vertex -26.5052 -14.2217 15
    endloop
  endfacet
  facet normal 0 0 1
    outer loop
      vertex -26.8188 -11.2381 15
      vertex -29.1812 -11.2381 15
      vertex -26.5052 -14.2217 15
    endloop
  endfacet
  facet normal 0 0 1
    outer loop
      vertex -26.5052 -14.2217 15
      vertex -31.4919 -10.7469 15
      vertex -29.4948 -14.2217 15
    endloop
  endfacet
  facet normal 0 0 1
    outer loop
      vertex -29.4948 -14.2217 15
      vertex -33.65 -9.78609 15
      vertex -32.4189 -13.6001 15
    endloop
  endfacet
  facet normal 0 0 1
    outer loop
      vertex -32.4189 -13.6001 15
      vertex -35.5612 -8.39754 15
      vertex -35.15 -12.3842 15
    endloop
  endfacet
  facet normal 0 0 1
    outer loop
      vertex -35.5612 -8.39754 15
      vertex -37.1419 -6.64197 15
      vertex -35.15 -12.3842 15
    endloop
  endfacet
  facet normal 0 0 1
    outer loop
      vertex -39.0531 -2.3494 15
      vertex -41.9875 2.97314 15
      vertex -38.3231 -4.59612 15
    endloop
  endfacet
  facet normal 0 0 1
    outer loop
      vertex -7.37255 2.5 15
      vertex -13.9628 2.5 15
      vertex -7.41824 2.41033 15
    endloop
  endfacet
  facet normal 0 0 1
    outer loop
      vertex -37.1419 -6.64197 15
      vertex -38.3231 -4.59612 15
      vertex -35.15 -12.3842 15
    endloop
  endfacet
  facet normal 0 0 1
    outer loop
      vertex -39.0531 -2.3494 15
      vertex -39.3 0 15
      vertex -41.9875 2.97314 15
    endloop
  endfacet
  facet normal 0 0 1
    outer loop
      vertex -22.35 -9.78609 15
      vertex -24.5081 -10.7469 15
      vertex -20.85 -12.3842 15
    endloop
  endfacet
  facet normal 0 0 1
    outer loop
      vertex -33.65 -9.78609 15
      vertex -35.5612 -8.39754 15
      vertex -32.4189 -13.6001 15
    endloop
  endfacet
  facet normal 0 0 1
    outer loop
      vertex -29.1812 -11.2381 15
      vertex -31.4919 -10.7469 15
      vertex -26.5052 -14.2217 15
    endloop
  endfacet
  facet normal 0 0 1
    outer loop
      vertex -39.3 0 15
      vertex -39.0531 2.3494 15
      vertex -41.9875 2.97314 15
    endloop
  endfacet
  facet normal 0 0 1
    outer loop
      vertex -24.5081 -10.7469 15
      vertex -26.8188 -11.2381 15
      vertex -23.5811 -13.6001 15
    endloop
  endfacet
  facet normal 0 0 1
    outer loop
      vertex -39.0531 2.3494 15
      vertex -38.3231 4.59612 15
      vertex -41.9875 2.97314 15
    endloop
  endfacet
  facet normal 0 0 1
    outer loop
      vertex -7.41824 2.41033 15.6
      vertex -7.8 0 15.6
      vertex -7.41824 -2.41033 15.6
    endloop
  endfacet
  facet normal 0 0 1
    outer loop
      vertex -4.58472 -6.31033 15.6
      vertex -7.41824 2.41033 15.6
      vertex -6.31033 -4.58472 15.6
    endloop
  endfacet
  facet normal 0 0 1
    outer loop
      vertex -6.31033 -4.58472 15.6
      vertex -7.41824 2.41033 15.6
      vertex -7.41824 -2.41033 15.6
    endloop
  endfacet
  facet normal 0 0 1
    outer loop
      vertex -2.41033 -7.41824 15.6
      vertex -7.41824 2.41033 15.6
      vertex -4.58472 -6.31033 15.6
    endloop
  endfacet
  facet normal 0 0 1
    outer loop
      vertex 0 -7.8 15.6
      vertex -7.41824 2.41033 15.6
      vertex -2.41033 -7.41824 15.6
    endloop
  endfacet
  facet normal 0 0 1
    outer loop
      vertex -3.4472 -2.89254 15.6
      vertex -7.41824 2.41033 15.6
      vertex 0 -7.8 15.6
    endloop
  endfacet
  facet normal 0 0 1
    outer loop
      vertex 17.5 -7.8 15.6
      vertex 3.43831 -2.9 15.6
      vertex 0 -7.8 15.6
    endloop
  endfacet
  facet normal 0 0 1
    outer loop
      vertex 3.43831 -2.9 15.6
      vertex 2.25 -3.89711 15.6
      vertex 0 -7.8 15.6
    endloop
  endfacet
  facet normal 0 0 1
    outer loop
      vertex -4.22862 1.53909 15.6
      vertex -3.4472 2.89254 15.6
      vertex -7.41824 2.41033 15.6
    endloop
  endfacet
  facet normal 0 0 1
    outer loop
      vertex 2.25 -3.89711 15.6
      vertex 0.781417 -4.43163 15.6
      vertex 0 -7.8 15.6
    endloop
  endfacet
  facet normal 0 0 1
    outer loop
      vertex 0.781417 -4.43163 15.6
      vertex -0.781417 -4.43163 15.6
      vertex 0 -7.8 15.6
    endloop
  endfacet
  facet normal 0 0 1
    outer loop
      vertex -0.781417 -4.43163 15.6
      vertex -2.25 -3.89711 15.6
      vertex 0 -7.8 15.6
    endloop
  endfacet
  facet normal 0 0 1
    outer loop
      vertex -4.5 0 15.6
      vertex -4.22862 1.53909 15.6
      vertex -7.41824 2.41033 15.6
    endloop
  endfacet
  facet normal 0 0 1
    outer loop
      vertex -2.25 -3.89711 15.6
      vertex -3.4472 -2.89254 15.6
      vertex 0 -7.8 15.6
    endloop
  endfacet
  facet normal 0 0 1
    outer loop
      vertex -4.22862 -1.53909 15.6
      vertex -7.41824 2.41033 15.6
      vertex -3.4472 -2.89254 15.6
    endloop
  endfacet
  facet normal 0 0 1
    outer loop
      vertex 3.90478 2.1 15.6
      vertex 17.5 2.1 15.6
      vertex 3.4472 2.89254 15.6
    endloop
  endfacet
  facet normal 0 0 1
    outer loop
      vertex -2.25 3.89711 15.6
      vertex -7.41824 2.41033 15.6
      vertex -3.4472 2.89254 15.6
    endloop
  endfacet
  facet normal 0 0 1
    outer loop
      vertex -0.781417 4.43163 15.6
      vertex -7.41824 2.41033 15.6
      vertex -2.25 3.89711 15.6
    endloop
  endfacet
  facet normal 0 0 1
    outer loop
      vertex 3.4472 2.89254 15.6
      vertex 17.5 2.1 15.6
      vertex 2.25 3.89711 15.6
    endloop
  endfacet
  facet normal 0 0 1
    outer loop
      vertex 0 7.8 15.6
      vertex -7.41824 2.41033 15.6
      vertex -0.781417 4.43163 15.6
    endloop
  endfacet
  facet normal 0 0 1
    outer loop
      vertex 17.5 7.8 15.6
      vertex -0.781417 4.43163 15.6
      vertex 0.781417 4.43163 15.6
    endloop
  endfacet
  facet normal 0 0 1
    outer loop
      vertex 17.5 2.1 15.6
      vertex 0.781417 4.43163 15.6
      vertex 2.25 3.89711 15.6
    endloop
  endfacet
  facet normal 0 0 1
    outer loop
      vertex 17.5 7.8 15.6
      vertex 0.781417 4.43163 15.6
      vertex 17.5 2.1 15.6
    endloop
  endfacet
  facet normal 0 0 1
    outer loop
      vertex 0 7.8 15.6
      vertex -0.781417 4.43163 15.6
      vertex 17.5 7.8 15.6
    endloop
  endfacet
  facet normal 0 0 1
    outer loop
      vertex -2.41033 7.41824 15.6
      vertex -7.41824 2.41033 15.6
      vertex 0 7.8 15.6
    endloop
  endfacet
  facet normal 0 0 1
    outer loop
      vertex -4.58472 6.31033 15.6
      vertex -7.41824 2.41033 15.6
      vertex -2.41033 7.41824 15.6
    endloop
  endfacet
  facet normal 0 0 1
    outer loop
      vertex -6.31033 4.58472 15.6
      vertex -7.41824 2.41033 15.6
      vertex -4.58472 6.31033 15.6
    endloop
  endfacet
  facet normal 0 0 1
    outer loop
      vertex 17.5 -2.9 15.6
      vertex 3.43831 -2.9 15.6
      vertex 17.5 -7.8 15.6
    endloop
  endfacet
  facet normal 0 0 1
    outer loop
      vertex -4.22862 -1.53909 15.6
      vertex -4.5 0 15.6
      vertex -7.41824 2.41033 15.6
    endloop
  endfacet
  facet normal -0.987688 -0.156434 0
    outer loop
      vertex -7.8 0 15
      vertex -7.41824 -2.41033 15
      vertex -7.8 0 15.6
    endloop
  endfacet
  facet normal -0.987688 -0.156434 0
    outer loop
      vertex -7.8 0 15.6
      vertex -7.41824 -2.41033 15
      vertex -7.41824 -2.41033 15.6
    endloop
  endfacet
  facet normal 0.951056 6.86156e-17 0.309017
    outer loop
      vertex 8.39098 -7.8 6.91222
      vertex 8.39098 -2.9 6.91222
      vertex 8.2 -2.9 7.5
    endloop
  endfacet
  facet normal 0.951056 6.86156e-17 0.309017
    outer loop
      vertex 8.2 -7.8 7.5
      vertex 8.39098 -7.8 6.91222
      vertex 8.2 -2.9 7.5
    endloop
  endfacet
  facet normal 0.587786 1.79638e-16 0.809016
    outer loop
      vertex 8.89098 -7.8 6.54894
      vertex 8.89098 -2.9 6.54894
      vertex 8.39098 -2.9 6.91222
    endloop
  endfacet
  facet normal 0.587786 1.79638e-16 0.809016
    outer loop
      vertex 8.39098 -7.8 6.91222
      vertex 8.89098 -7.8 6.54894
      vertex 8.39098 -2.9 6.91222
    endloop
  endfacet
  facet normal 0 2.22045e-16 1
    outer loop
      vertex 9.50902 -7.8 6.54894
      vertex 9.50902 -2.9 6.54894
      vertex 8.89098 -2.9 6.54894
    endloop
  endfacet
  facet normal 0 2.22045e-16 1
    outer loop
      vertex 8.89098 -7.8 6.54894
      vertex 9.50902 -7.8 6.54894
      vertex 8.89098 -2.9 6.54894
    endloop
  endfacet
  facet normal -0.587786 1.79638e-16 0.809016
    outer loop
      vertex 10.009 -7.8 6.91222
      vertex 10.009 -2.9 6.91222
      vertex 9.50902 -2.9 6.54894
    endloop
  endfacet
  facet normal -0.587786 1.79638e-16 0.809016
    outer loop
      vertex 9.50902 -7.8 6.54894
      vertex 10.009 -7.8 6.91222
      vertex 9.50902 -2.9 6.54894
    endloop
  endfacet
  facet normal -0.951056 6.86156e-17 0.309017
    outer loop
      vertex 10.2 -2.9 7.5
      vertex 10.009 -2.9 6.91222
      vertex 10.2 -7.8 7.5
    endloop
  endfacet
  facet normal -0.951056 6.86156e-17 0.309017
    outer loop
      vertex 10.2 -7.8 7.5
      vertex 10.009 -2.9 6.91222
      vertex 10.009 -7.8 6.91222
    endloop
  endfacet
  facet normal -0.951056 -6.86156e-17 -0.309017
    outer loop
      vertex 10.2 -2.9 7.5
      vertex 10.2 -7.8 7.5
      vertex 10.009 -2.9 8.08779
    endloop
  endfacet
  facet normal -0.951056 -6.86156e-17 -0.309017
    outer loop
      vertex 10.009 -2.9 8.08779
      vertex 10.2 -7.8 7.5
      vertex 10.009 -7.8 8.08779
    endloop
  endfacet
  facet normal -0.587786 -1.79638e-16 -0.809016
    outer loop
      vertex 10.009 -2.9 8.08779
      vertex 10.009 -7.8 8.08779
      vertex 9.50902 -2.9 8.45106
    endloop
  endfacet
  facet normal -0.587786 -1.79638e-16 -0.809016
    outer loop
      vertex 9.50902 -2.9 8.45106
      vertex 10.009 -7.8 8.08779
      vertex 9.50902 -7.8 8.45106
    endloop
  endfacet
  facet normal 0 -2.22045e-16 -1
    outer loop
      vertex 9.50902 -2.9 8.45106
      vertex 9.50902 -7.8 8.45106
      vertex 8.89098 -2.9 8.45106
    endloop
  endfacet
  facet normal 0 -2.22045e-16 -1
    outer loop
      vertex 8.89098 -2.9 8.45106
      vertex 9.50902 -7.8 8.45106
      vertex 8.89098 -7.8 8.45106
    endloop
  endfacet
  facet normal 0.587786 -1.79638e-16 -0.809016
    outer loop
      vertex 8.89098 -2.9 8.45106
      vertex 8.89098 -7.8 8.45106
      vertex 8.39098 -2.9 8.08779
    endloop
  endfacet
  facet normal 0.587786 -1.79638e-16 -0.809016
    outer loop
      vertex 8.39098 -2.9 8.08779
      vertex 8.89098 -7.8 8.45106
      vertex 8.39098 -7.8 8.08779
    endloop
  endfacet
  facet normal 0.951056 -6.86156e-17 -0.309017
    outer loop
      vertex 8.2 -2.9 7.5
      vertex 8.39098 -2.9 8.08779
      vertex 8.39098 -7.8 8.08779
    endloop
  endfacet
  facet normal 0.951056 -6.86156e-17 -0.309017
    outer loop
      vertex 8.2 -7.8 7.5
      vertex 8.2 -2.9 7.5
      vertex 8.39098 -7.8 8.08779
    endloop
  endfacet
  facet normal 0.951056 -6.86156e-17 -0.309017
    outer loop
      vertex 8.2 7.8 7.5
      vertex 8.39098 7.8 8.08779
      vertex 8.39098 2.1 8.08779
    endloop
  endfacet
  facet normal 0.951056 -6.86156e-17 -0.309017
    outer loop
      vertex 8.2 2.1 7.5
      vertex 8.2 7.8 7.5
      vertex 8.39098 2.1 8.08779
    endloop
  endfacet
  facet normal 0.951056 6.86156e-17 0.309017
    outer loop
      vertex 8.39098 2.1 6.91222
      vertex 8.39098 7.8 6.91221
      vertex 8.2 7.8 7.5
    endloop
  endfacet
  facet normal 0.951056 6.86156e-17 0.309017
    outer loop
      vertex 8.2 2.1 7.5
      vertex 8.39098 2.1 6.91222
      vertex 8.2 7.8 7.5
    endloop
  endfacet
  facet normal 0.587786 1.79638e-16 0.809016
    outer loop
      vertex 8.89098 2.1 6.54894
      vertex 8.89098 7.8 6.54894
      vertex 8.39098 7.8 6.91221
    endloop
  endfacet
  facet normal 0.587786 1.79638e-16 0.809016
    outer loop
      vertex 8.39098 2.1 6.91222
      vertex 8.89098 2.1 6.54894
      vertex 8.39098 7.8 6.91221
    endloop
  endfacet
  facet normal 0 2.22045e-16 1
    outer loop
      vertex 9.50902 2.1 6.54894
      vertex 9.50902 7.8 6.54894
      vertex 8.89098 7.8 6.54894
    endloop
  endfacet
  facet normal 0 2.22045e-16 1
    outer loop
      vertex 8.89098 2.1 6.54894
      vertex 9.50902 2.1 6.54894
      vertex 8.89098 7.8 6.54894
    endloop
  endfacet
  facet normal -0.587786 1.79638e-16 0.809016
    outer loop
      vertex 10.009 2.1 6.91222
      vertex 10.009 7.8 6.91221
      vertex 9.50902 7.8 6.54894
    endloop
  endfacet
  facet normal -0.587786 1.79638e-16 0.809016
    outer loop
      vertex 9.50902 2.1 6.54894
      vertex 10.009 2.1 6.91222
      vertex 9.50902 7.8 6.54894
    endloop
  endfacet
  facet normal -0.951056 6.86156e-17 0.309017
    outer loop
      vertex 10.2 7.8 7.5
      vertex 10.009 7.8 6.91221
      vertex 10.2 2.1 7.5
    endloop
  endfacet
  facet normal -0.951056 6.86156e-17 0.309017
    outer loop
      vertex 10.2 2.1 7.5
      vertex 10.009 7.8 6.91221
      vertex 10.009 2.1 6.91222
    endloop
  endfacet
  facet normal -0.951056 -6.86156e-17 -0.309017
    outer loop
      vertex 10.2 7.8 7.5
      vertex 10.2 2.1 7.5
      vertex 10.009 7.8 8.08779
    endloop
  endfacet
  facet normal -0.951056 -6.86156e-17 -0.309017
    outer loop
      vertex 10.009 7.8 8.08779
      vertex 10.2 2.1 7.5
      vertex 10.009 2.1 8.08779
    endloop
  endfacet
  facet normal -0.587786 -1.79638e-16 -0.809016
    outer loop
      vertex 10.009 7.8 8.08779
      vertex 10.009 2.1 8.08779
      vertex 9.50902 7.8 8.45106
    endloop
  endfacet
  facet normal -0.587786 -1.79638e-16 -0.809016
    outer loop
      vertex 9.50902 7.8 8.45106
      vertex 10.009 2.1 8.08779
      vertex 9.50902 2.1 8.45106
    endloop
  endfacet
  facet normal 0 -2.22045e-16 -1
    outer loop
      vertex 9.50902 7.8 8.45106
      vertex 9.50902 2.1 8.45106
      vertex 8.89098 7.8 8.45106
    endloop
  endfacet
  facet normal 0 -2.22045e-16 -1
    outer loop
      vertex 8.89098 7.8 8.45106
      vertex 9.50902 2.1 8.45106
      vertex 8.89098 2.1 8.45106
    endloop
  endfacet
  facet normal 0.587786 -1.79638e-16 -0.809016
    outer loop
      vertex 8.89098 7.8 8.45106
      vertex 8.89098 2.1 8.45106
      vertex 8.39098 7.8 8.08779
    endloop
  endfacet
  facet normal 0.587786 -1.79638e-16 -0.809016
    outer loop
      vertex 8.39098 7.8 8.08779
      vertex 8.89098 2.1 8.45106
      vertex 8.39098 2.1 8.08779
    endloop
  endfacet
  facet normal -0.987688 0.156434 0
    outer loop
      vertex -7.8 0 15
      vertex -7.8 0 15.6
      vertex -7.41824 2.41033 15
    endloop
  endfacet
  facet normal -0.987688 0.156434 0
    outer loop
      vertex -7.41824 2.41033 15
      vertex -7.8 0 15.6
      vertex -7.41824 2.41033 15.6
    endloop
  endfacet
  facet normal 0 0 1
    outer loop
      vertex -39.0531 -2.3494 5
      vertex -38.3231 -4.59612 5
      vertex -37.1419 -6.64197 5
    endloop
  endfacet
  facet normal 0 0 1
    outer loop
      vertex -33.65 -9.78609 5
      vertex -39.0531 -2.3494 5
      vertex -35.5612 -8.39754 5
    endloop
  endfacet
  facet normal 0 0 1
    outer loop
      vertex -35.5612 -8.39754 5
      vertex -39.0531 -2.3494 5
      vertex -37.1419 -6.64197 5
    endloop
  endfacet
  facet normal 0 0 1
    outer loop
      vertex -31.4919 -10.7469 5
      vertex -39.0531 -2.3494 5
      vertex -33.65 -9.78609 5
    endloop
  endfacet
  facet normal 0 0 1
    outer loop
      vertex -29.1812 -11.2381 5
      vertex -39.0531 -2.3494 5
      vertex -31.4919 -10.7469 5
    endloop
  endfacet
  facet normal 0 0 1
    outer loop
      vertex -26.8188 -11.2381 5
      vertex -39.0531 -2.3494 5
      vertex -29.1812 -11.2381 5
    endloop
  endfacet
  facet normal 0 0 1
    outer loop
      vertex -24.5081 -10.7469 5
      vertex -39.0531 -2.3494 5
      vertex -26.8188 -11.2381 5
    endloop
  endfacet
  facet normal 0 0 1
    outer loop
      vertex -22.35 -9.78609 5
      vertex -39.0531 -2.3494 5
      vertex -24.5081 -10.7469 5
    endloop
  endfacet
  facet normal 0 0 1
    outer loop
      vertex -30.4102 -5.49464 5
      vertex -39.0531 -2.3494 5
      vertex -22.35 -9.78609 5
    endloop
  endfacet
  facet normal 0 0 1
    outer loop
      vertex -30.4102 -5.49464 5
      vertex -32.0637 -4.41434 5
      vertex -39.0531 -2.3494 5
    endloop
  endfacet
  facet normal 0 0 1
    outer loop
      vertex -24.7183 -5.023 5
      vertex -26.5271 -5.8164 5
      vertex -18.8581 -6.64197 5
    endloop
  endfacet
  facet normal 0 0 1
    outer loop
      vertex -22.3251 -1.9482 5
      vertex -23.2652 -3.68528 5
      vertex -16.9469 -2.3494 5
    endloop
  endfacet
  facet normal 0 0 1
    outer loop
      vertex -22 0 5
      vertex -22.3251 -1.9482 5
      vertex -16.7 0 5
    endloop
  endfacet
  facet normal 0 0 1
    outer loop
      vertex -33.2768 -2.85568 5
      vertex -33.9182 -0.987568 5
      vertex -39.0531 -2.3494 5
    endloop
  endfacet
  facet normal 0 0 1
    outer loop
      vertex -26.5271 5.8164 5
      vertex -24.7183 5.023 5
      vertex -20.4388 8.39754 5
    endloop
  endfacet
  facet normal 0 0 1
    outer loop
      vertex -28.4955 5.97951 5
      vertex -26.5271 5.8164 5
      vertex -22.35 9.78609 5
    endloop
  endfacet
  facet normal 0 0 1
    outer loop
      vertex -29.1812 11.2381 5
      vertex -39.0531 -2.3494 5
      vertex -26.8188 11.2381 5
    endloop
  endfacet
  facet normal 0 0 1
    outer loop
      vertex -31.4919 10.7469 5
      vertex -39.0531 -2.3494 5
      vertex -29.1812 11.2381 5
    endloop
  endfacet
  facet normal 0 0 1
    outer loop
      vertex -33.65 9.78609 5
      vertex -39.0531 -2.3494 5
      vertex -31.4919 10.7469 5
    endloop
  endfacet
  facet normal 0 0 1
    outer loop
      vertex -35.5612 8.39754 5
      vertex -39.0531 -2.3494 5
      vertex -33.65 9.78609 5
    endloop
  endfacet
  facet normal 0 0 1
    outer loop
      vertex -37.1419 6.64197 5
      vertex -39.0531 -2.3494 5
      vertex -35.5612 8.39754 5
    endloop
  endfacet
  facet normal 0 0 1
    outer loop
      vertex -38.3231 4.59612 5
      vertex -39.0531 -2.3494 5
      vertex -37.1419 6.64197 5
    endloop
  endfacet
  facet normal 0 0 1
    outer loop
      vertex -39.0531 2.3494 5
      vertex -39.0531 -2.3494 5
      vertex -38.3231 4.59612 5
    endloop
  endfacet
  facet normal 0 0 1
    outer loop
      vertex -39.3 0 5
      vertex -39.0531 -2.3494 5
      vertex -39.0531 2.3494 5
    endloop
  endfacet
  facet normal 0 0 1
    outer loop
      vertex -24.7183 5.023 5
      vertex -23.2652 3.68528 5
      vertex -18.8581 6.64197 5
    endloop
  endfacet
  facet normal 0 0 1
    outer loop
      vertex -26.8188 11.2381 5
      vertex -39.0531 -2.3494 5
      vertex -33.2768 2.85568 5
    endloop
  endfacet
  facet normal 0 0 1
    outer loop
      vertex -26.8188 11.2381 5
      vertex -32.0637 4.41434 5
      vertex -24.5081 10.7469 5
    endloop
  endfacet
  facet normal 0 0 1
    outer loop
      vertex -26.8188 11.2381 5
      vertex -33.2768 2.85568 5
      vertex -32.0637 4.41434 5
    endloop
  endfacet
  facet normal 0 0 1
    outer loop
      vertex -32.0637 4.41434 5
      vertex -30.4102 5.49464 5
      vertex -24.5081 10.7469 5
    endloop
  endfacet
  facet normal 0 0 1
    outer loop
      vertex -24.5081 10.7469 5
      vertex -28.4955 5.97951 5
      vertex -22.35 9.78609 5
    endloop
  endfacet
  facet normal 0 0 1
    outer loop
      vertex -30.4102 5.49464 5
      vertex -28.4955 5.97951 5
      vertex -24.5081 10.7469 5
    endloop
  endfacet
  facet normal 0 0 1
    outer loop
      vertex -22.35 9.78609 5
      vertex -26.5271 5.8164 5
      vertex -20.4388 8.39754 5
    endloop
  endfacet
  facet normal 0 0 1
    outer loop
      vertex -20.4388 8.39754 5
      vertex -24.7183 5.023 5
      vertex -18.8581 6.64197 5
    endloop
  endfacet
  facet normal 0 0 1
    outer loop
      vertex -23.2652 3.68528 5
      vertex -22.3251 1.9482 5
      vertex -17.6769 4.59612 5
    endloop
  endfacet
  facet normal 0 0 1
    outer loop
      vertex -18.8581 6.64197 5
      vertex -23.2652 3.68528 5
      vertex -17.6769 4.59612 5
    endloop
  endfacet
  facet normal 0 0 1
    outer loop
      vertex -33.9182 0.987568 5
      vertex -33.2768 2.85568 5
      vertex -39.0531 -2.3494 5
    endloop
  endfacet
  facet normal 0 0 1
    outer loop
      vertex -17.6769 4.59612 5
      vertex -22.3251 1.9482 5
      vertex -16.9469 2.3494 5
    endloop
  endfacet
  facet normal 0 0 1
    outer loop
      vertex -16.9469 2.3494 5
      vertex -22 0 5
      vertex -16.7 0 5
    endloop
  endfacet
  facet normal 0 0 1
    outer loop
      vertex -16.7 0 5
      vertex -22.3251 -1.9482 5
      vertex -16.9469 -2.3494 5
    endloop
  endfacet
  facet normal 0 0 1
    outer loop
      vertex -16.9469 -2.3494 5
      vertex -23.2652 -3.68528 5
      vertex -17.6769 -4.59612 5
    endloop
  endfacet
  facet normal 0 0 1
    outer loop
      vertex -17.6769 -4.59612 5
      vertex -24.7183 -5.023 5
      vertex -18.8581 -6.64197 5
    endloop
  endfacet
  facet normal 0 0 1
    outer loop
      vertex -18.8581 -6.64197 5
      vertex -26.5271 -5.8164 5
      vertex -20.4388 -8.39754 5
    endloop
  endfacet
  facet normal 0 0 1
    outer loop
      vertex -20.4388 -8.39754 5
      vertex -28.4955 -5.97951 5
      vertex -22.35 -9.78609 5
    endloop
  endfacet
  facet normal 0 0 1
    outer loop
      vertex -28.4955 -5.97951 5
      vertex -30.4102 -5.49464 5
      vertex -22.35 -9.78609 5
    endloop
  endfacet
  facet normal 0 0 1
    outer loop
      vertex -32.0637 -4.41434 5
      vertex -33.2768 -2.85568 5
      vertex -39.0531 -2.3494 5
    endloop
  endfacet
  facet normal 0 0 1
    outer loop
      vertex -26.5271 -5.8164 5
      vertex -28.4955 -5.97951 5
      vertex -20.4388 -8.39754 5
    endloop
  endfacet
  facet normal 0 0 1
    outer loop
      vertex -23.2652 -3.68528 5
      vertex -24.7183 -5.023 5
      vertex -17.6769 -4.59612 5
    endloop
  endfacet
  facet normal 0 0 1
    outer loop
      vertex -22.3251 1.9482 5
      vertex -22 0 5
      vertex -16.9469 2.3494 5
    endloop
  endfacet
  facet normal 0 0 1
    outer loop
      vertex -33.9182 -0.987568 5
      vertex -33.9182 0.987568 5
      vertex -39.0531 -2.3494 5
    endloop
  endfacet
  facet normal 0.994522 0.104528 0
    outer loop
      vertex -39.3 0 15
      vertex -39.0531 -2.3494 15
      vertex -39.0531 -2.3494 5
    endloop
  endfacet
  facet normal 0.994522 0.104528 0
    outer loop
      vertex -39.3 0 5
      vertex -39.3 0 15
      vertex -39.0531 -2.3494 5
    endloop
  endfacet
  facet normal 0.951057 0.309017 0
    outer loop
      vertex -39.0531 -2.3494 15
      vertex -38.3231 -4.59612 15
      vertex -38.3231 -4.59612 5
    endloop
  endfacet
  facet normal 0.951057 0.309017 0
    outer loop
      vertex -39.0531 -2.3494 5
      vertex -39.0531 -2.3494 15
      vertex -38.3231 -4.59612 5
    endloop
  endfacet
  facet normal 0.866025 0.5 0
    outer loop
      vertex -38.3231 -4.59612 15
      vertex -37.1419 -6.64197 15
      vertex -37.1419 -6.64197 5
    endloop
  endfacet
  facet normal 0.866025 0.5 0
    outer loop
      vertex -38.3231 -4.59612 5
      vertex -38.3231 -4.59612 15
      vertex -37.1419 -6.64197 5
    endloop
  endfacet
  facet normal 0.743145 0.66913 0
    outer loop
      vertex -37.1419 -6.64197 15
      vertex -35.5612 -8.39754 15
      vertex -35.5612 -8.39754 5
    endloop
  endfacet
  facet normal 0.743145 0.66913 0
    outer loop
      vertex -37.1419 -6.64197 5
      vertex -37.1419 -6.64197 15
      vertex -35.5612 -8.39754 5
    endloop
  endfacet
  facet normal 0.587785 0.809017 0
    outer loop
      vertex -33.65 -9.78609 15
      vertex -33.65 -9.78609 5
      vertex -35.5612 -8.39754 15
    endloop
  endfacet
  facet normal 0.587785 0.809017 0
    outer loop
      vertex -35.5612 -8.39754 15
      vertex -33.65 -9.78609 5
      vertex -35.5612 -8.39754 5
    endloop
  endfacet
  facet normal 0.406737 0.913545 0
    outer loop
      vertex -31.4919 -10.7469 15
      vertex -31.4919 -10.7469 5
      vertex -33.65 -9.78609 15
    endloop
  endfacet
  facet normal 0.406737 0.913545 0
    outer loop
      vertex -33.65 -9.78609 15
      vertex -31.4919 -10.7469 5
      vertex -33.65 -9.78609 5
    endloop
  endfacet
  facet normal 0.207911 0.978148 0
    outer loop
      vertex -29.1812 -11.2381 15
      vertex -29.1812 -11.2381 5
      vertex -31.4919 -10.7469 15
    endloop
  endfacet
  facet normal 0.207911 0.978148 0
    outer loop
      vertex -31.4919 -10.7469 15
      vertex -29.1812 -11.2381 5
      vertex -31.4919 -10.7469 5
    endloop
  endfacet
  facet normal 0 1 0
    outer loop
      vertex -26.8188 -11.2381 15
      vertex -26.8188 -11.2381 5
      vertex -29.1812 -11.2381 15
    endloop
  endfacet
  facet normal 0 1 0
    outer loop
      vertex -29.1812 -11.2381 15
      vertex -26.8188 -11.2381 5
      vertex -29.1812 -11.2381 5
    endloop
  endfacet
  facet normal -0.207911 0.978148 0
    outer loop
      vertex -24.5081 -10.7469 15
      vertex -24.5081 -10.7469 5
      vertex -26.8188 -11.2381 15
    endloop
  endfacet
  facet normal -0.207911 0.978148 0
    outer loop
      vertex -26.8188 -11.2381 15
      vertex -24.5081 -10.7469 5
      vertex -26.8188 -11.2381 5
    endloop
  endfacet
  facet normal -0.406737 0.913545 0
    outer loop
      vertex -22.35 -9.78609 15
      vertex -22.35 -9.78609 5
      vertex -24.5081 -10.7469 15
    endloop
  endfacet
  facet normal -0.406737 0.913545 0
    outer loop
      vertex -24.5081 -10.7469 15
      vertex -22.35 -9.78609 5
      vertex -24.5081 -10.7469 5
    endloop
  endfacet
  facet normal -0.587785 0.809017 0
    outer loop
      vertex -20.4388 -8.39754 15
      vertex -20.4388 -8.39754 5
      vertex -22.35 -9.78609 15
    endloop
  endfacet
  facet normal -0.587785 0.809017 0
    outer loop
      vertex -22.35 -9.78609 15
      vertex -20.4388 -8.39754 5
      vertex -22.35 -9.78609 5
    endloop
  endfacet
  facet normal -0.743145 0.66913 0
    outer loop
      vertex -18.8581 -6.64197 15
      vertex -18.8581 -6.64197 5
      vertex -20.4388 -8.39754 15
    endloop
  endfacet
  facet normal -0.743145 0.66913 0
    outer loop
      vertex -20.4388 -8.39754 15
      vertex -18.8581 -6.64197 5
      vertex -20.4388 -8.39754 5
    endloop
  endfacet
  facet normal -0.866025 0.5 0
    outer loop
      vertex -17.6769 -4.59612 15
      vertex -17.6769 -4.59612 5
      vertex -18.8581 -6.64197 15
    endloop
  endfacet
  facet normal -0.866025 0.5 0
    outer loop
      vertex -18.8581 -6.64197 15
      vertex -17.6769 -4.59612 5
      vertex -18.8581 -6.64197 5
    endloop
  endfacet
  facet normal -0.951057 0.309017 0
    outer loop
      vertex -16.9469 -2.3494 15
      vertex -16.9469 -2.3494 5
      vertex -17.6769 -4.59612 15
    endloop
  endfacet
  facet normal -0.951057 0.309017 0
    outer loop
      vertex -17.6769 -4.59612 15
      vertex -16.9469 -2.3494 5
      vertex -17.6769 -4.59612 5
    endloop
  endfacet
  facet normal -0.994522 0.104528 0
    outer loop
      vertex -16.7 0 15
      vertex -16.7 0 5
      vertex -16.9469 -2.3494 15
    endloop
  endfacet
  facet normal -0.994522 0.104528 0
    outer loop
      vertex -16.9469 -2.3494 15
      vertex -16.7 0 5
      vertex -16.9469 -2.3494 5
    endloop
  endfacet
  facet normal -0.994522 -0.104528 0
    outer loop
      vertex -16.7 0 15
      vertex -16.9469 2.3494 15
      vertex -16.7 0 5
    endloop
  endfacet
  facet normal -0.994522 -0.104528 0
    outer loop
      vertex -16.7 0 5
      vertex -16.9469 2.3494 15
      vertex -16.9469 2.3494 5
    endloop
  endfacet
  facet normal -0.951057 -0.309017 0
    outer loop
      vertex -16.9469 2.3494 15
      vertex -17.6769 4.59612 15
      vertex -16.9469 2.3494 5
    endloop
  endfacet
  facet normal -0.951057 -0.309017 0
    outer loop
      vertex -16.9469 2.3494 5
      vertex -17.6769 4.59612 15
      vertex -17.6769 4.59612 5
    endloop
  endfacet
  facet normal -0.866025 -0.5 0
    outer loop
      vertex -17.6769 4.59612 15
      vertex -18.8581 6.64197 15
      vertex -17.6769 4.59612 5
    endloop
  endfacet
  facet normal -0.866025 -0.5 0
    outer loop
      vertex -17.6769 4.59612 5
      vertex -18.8581 6.64197 15
      vertex -18.8581 6.64197 5
    endloop
  endfacet
  facet normal -0.743145 -0.66913 0
    outer loop
      vertex -18.8581 6.64197 15
      vertex -20.4388 8.39754 15
      vertex -18.8581 6.64197 5
    endloop
  endfacet
  facet normal -0.743145 -0.66913 0
    outer loop
      vertex -18.8581 6.64197 5
      vertex -20.4388 8.39754 15
      vertex -20.4388 8.39754 5
    endloop
  endfacet
  facet normal -0.587785 -0.809017 0
    outer loop
      vertex -20.4388 8.39754 5
      vertex -20.4388 8.39754 15
      vertex -22.35 9.78609 15
    endloop
  endfacet
  facet normal -0.587785 -0.809017 0
    outer loop
      vertex -22.35 9.78609 5
      vertex -20.4388 8.39754 5
      vertex -22.35 9.78609 15
    endloop
  endfacet
  facet normal -0.406737 -0.913545 0
    outer loop
      vertex -22.35 9.78609 5
      vertex -22.35 9.78609 15
      vertex -24.5081 10.7469 15
    endloop
  endfacet
  facet normal -0.406737 -0.913545 0
    outer loop
      vertex -24.5081 10.7469 5
      vertex -22.35 9.78609 5
      vertex -24.5081 10.7469 15
    endloop
  endfacet
  facet normal -0.207911 -0.978148 0
    outer loop
      vertex -24.5081 10.7469 5
      vertex -24.5081 10.7469 15
      vertex -26.8188 11.2381 15
    endloop
  endfacet
  facet normal -0.207911 -0.978148 0
    outer loop
      vertex -26.8188 11.2381 5
      vertex -24.5081 10.7469 5
      vertex -26.8188 11.2381 15
    endloop
  endfacet
  facet normal 0 -1 0
    outer loop
      vertex -26.8188 11.2381 5
      vertex -26.8188 11.2381 15
      vertex -29.1812 11.2381 15
    endloop
  endfacet
  facet normal 0 -1 0
    outer loop
      vertex -29.1812 11.2381 5
      vertex -26.8188 11.2381 5
      vertex -29.1812 11.2381 15
    endloop
  endfacet
  facet normal 0.207911 -0.978148 0
    outer loop
      vertex -29.1812 11.2381 5
      vertex -29.1812 11.2381 15
      vertex -31.4919 10.7469 15
    endloop
  endfacet
  facet normal 0.207911 -0.978148 0
    outer loop
      vertex -31.4919 10.7469 5
      vertex -29.1812 11.2381 5
      vertex -31.4919 10.7469 15
    endloop
  endfacet
  facet normal 0.406737 -0.913545 0
    outer loop
      vertex -31.4919 10.7469 5
      vertex -31.4919 10.7469 15
      vertex -33.65 9.78609 15
    endloop
  endfacet
  facet normal 0.406737 -0.913545 0
    outer loop
      vertex -33.65 9.78609 5
      vertex -31.4919 10.7469 5
      vertex -33.65 9.78609 15
    endloop
  endfacet
  facet normal 0.587785 -0.809017 0
    outer loop
      vertex -33.65 9.78609 5
      vertex -33.65 9.78609 15
      vertex -35.5612 8.39754 15
    endloop
  endfacet
  facet normal 0.587785 -0.809017 0
    outer loop
      vertex -35.5612 8.39754 5
      vertex -33.65 9.78609 5
      vertex -35.5612 8.39754 15
    endloop
  endfacet
  facet normal 0.743145 -0.66913 0
    outer loop
      vertex -35.5612 8.39754 5
      vertex -35.5612 8.39754 15
      vertex -37.1419 6.64197 15
    endloop
  endfacet
  facet normal 0.743145 -0.66913 0
    outer loop
      vertex -37.1419 6.64197 5
      vertex -35.5612 8.39754 5
      vertex -37.1419 6.64197 15
    endloop
  endfacet
  facet normal 0.866025 -0.5 0
    outer loop
      vertex -37.1419 6.64197 5
      vertex -37.1419 6.64197 15
      vertex -38.3231 4.59612 15
    endloop
  endfacet
  facet normal 0.866025 -0.5 0
    outer loop
      vertex -38.3231 4.59612 5
      vertex -37.1419 6.64197 5
      vertex -38.3231 4.59612 15
    endloop
  endfacet
  facet normal 0.951057 -0.309017 0
    outer loop
      vertex -38.3231 4.59612 5
      vertex -38.3231 4.59612 15
      vertex -39.0531 2.3494 15
    endloop
  endfacet
  facet normal 0.951057 -0.309017 0
    outer loop
      vertex -39.0531 2.3494 5
      vertex -38.3231 4.59612 5
      vertex -39.0531 2.3494 15
    endloop
  endfacet
  facet normal 0.994522 -0.104528 0
    outer loop
      vertex -39.0531 2.3494 5
      vertex -39.0531 2.3494 15
      vertex -39.3 0 15
    endloop
  endfacet
  facet normal 0.994522 -0.104528 0
    outer loop
      vertex -39.3 0 5
      vertex -39.0531 2.3494 5
      vertex -39.3 0 15
    endloop
  endfacet
endsolid OpenSCAD_Model
