solid motor_mount
facet normal -0.13052614365753357 1.8114141250515576e-18 0.991444867767186
  outer loop
    vertex 37.38142225074581 5.074699728243888 17.000001907348633
    vertex 37.769650667188685 0.07469972824389134 17.05111312866211
    vertex 37.769650667188685 5.074699728243888 17.05111312866211
  endloop
endfacet
facet normal -0.13052614365753357 1.8114141250515576e-18 0.991444867767186
  outer loop
    vertex 37.769650667188685 0.07469972824389134 17.05111312866211
    vertex 37.38142225074581 5.074699728243888 17.000001907348633
    vertex 37.38142225074581 0.07469972824389134 17.000001907348633
  endloop
endfacet
facet normal -0.382679599434608 5.310746279332092e-18 0.923881120153761
  outer loop
    vertex 37.769650667188685 5.074699728243888 17.05111312866211
    vertex 38.13142225074581 0.07469972824389134 17.20096206665039
    vertex 38.13142225074581 5.074699728243888 17.20096206665039
  endloop
endfacet
facet normal -0.382679599434608 5.310746279332092e-18 0.923881120153761
  outer loop
    vertex 38.13142225074581 0.07469972824389134 17.20096206665039
    vertex 37.769650667188685 5.074699728243888 17.05111312866211
    vertex 37.769650667188685 0.07469972824389134 17.05111312866211
  endloop
endfacet
facet normal -0.6087621438594554 8.448271857911235e-18 0.7933527917664623
  outer loop
    vertex 38.13142225074581 5.074699728243888 17.20096206665039
    vertex 38.44208261298946 0.07469972824389134 17.43934059143066
    vertex 38.44208261298946 5.074699728243888 17.43934059143066
  endloop
endfacet
facet normal -0.6087621438594554 8.448271857911235e-18 0.7933527917664623
  outer loop
    vertex 38.44208261298946 0.07469972824389134 17.43934059143066
    vertex 38.13142225074581 5.074699728243888 17.20096206665039
    vertex 38.13142225074581 0.07469972824389134 17.20096206665039
  endloop
endfacet
facet normal -0.7933548705567954 1.101001054988343e-17 0.6087594347226256
  outer loop
    vertex 38.44208261298946 0.07469972824389134 17.43934059143066
    vertex 38.680460184095416 5.074699728243888 17.750001907348633
    vertex 38.44208261298946 5.074699728243888 17.43934059143066
  endloop
endfacet
facet normal -0.7933548705567954 1.101001054988343e-17 0.6087594347226256
  outer loop
    vertex 38.680460184095416 5.074699728243888 17.750001907348633
    vertex 38.44208261298946 0.07469972824389134 17.43934059143066
    vertex 38.680460184095416 0.07469972824389134 17.750001907348633
  endloop
endfacet
facet normal -0.9238790413621416 1.389212417226093e-17 0.38268461810186527
  outer loop
    vertex 38.680460184095416 0.07469972824389134 17.750001907348633
    vertex 38.83031102943233 5.074699728243888 18.11177253723144
    vertex 38.680460184095416 5.074699728243888 17.750001907348633
  endloop
endfacet
facet normal -0.9238790413621416 1.389212417226093e-17 0.38268461810186527
  outer loop
    vertex 38.83031102943233 5.074699728243888 18.11177253723144
    vertex 38.680460184095416 0.07469972824389134 17.750001907348633
    vertex 38.83031102943233 0.07469972824389134 18.11177253723144
  endloop
endfacet
facet normal -0.9914449092601804 1.3759062073850725e-17 0.13052582848644526
  outer loop
    vertex 38.83031102943233 0.07469972824389134 18.11177253723144
    vertex 38.88142225074581 5.074699728243888 18.500001907348633
    vertex 38.83031102943233 5.074699728243888 18.11177253723144
  endloop
endfacet
facet normal -0.9914449092601804 1.3759062073850725e-17 0.13052582848644526
  outer loop
    vertex 38.88142225074581 5.074699728243888 18.500001907348633
    vertex 38.83031102943233 0.07469972824389134 18.11177253723144
    vertex 38.88142225074581 0.07469972824389134 18.500001907348633
  endloop
endfacet
facet normal -0.9914448262738911 1.3759060922184528e-17 -0.13052645883013175
  outer loop
    vertex 38.88142225074581 0.07469972824389134 18.500001907348633
    vertex 38.83031102943233 5.074699728243888 18.888229370117184
    vertex 38.88142225074581 5.074699728243888 18.500001907348633
  endloop
endfacet
facet normal -0.9914448262738911 1.3759060922184528e-17 -0.13052645883013175
  outer loop
    vertex 38.83031102943233 5.074699728243888 18.888229370117184
    vertex 38.88142225074581 0.07469972824389134 18.500001907348633
    vertex 38.83031102943233 0.07469972824389134 18.888229370117184
  endloop
endfacet
facet normal -0.9238797546929366 1.1750685137827734e-17 -0.38268289597069716
  outer loop
    vertex 38.83031102943233 0.07469972824389134 18.888229370117184
    vertex 38.680460184095416 5.074699728243888 19.250001907348633
    vertex 38.83031102943233 5.074699728243888 18.888229370117184
  endloop
endfacet
facet normal -0.9238797546929366 1.1750685137827734e-17 -0.38268289597069716
  outer loop
    vertex 38.680460184095416 5.074699728243888 19.250001907348633
    vertex 38.83031102943233 0.07469972824389134 18.888229370117184
    vertex 38.680460184095416 0.07469972824389134 19.250001907348633
  endloop
endfacet
facet normal -0.7933530654440788 1.1009985498912954e-17 -0.6087617871963412
  outer loop
    vertex 38.680460184095416 0.07469972824389134 19.250001907348633
    vertex 38.44208261298946 5.074699728243888 19.560661315917965
    vertex 38.680460184095416 5.074699728243888 19.250001907348633
  endloop
endfacet
facet normal -0.7933530654440788 1.1009985498912954e-17 -0.6087617871963412
  outer loop
    vertex 38.44208261298946 5.074699728243888 19.560661315917965
    vertex 38.680460184095416 0.07469972824389134 19.250001907348633
    vertex 38.44208261298946 0.07469972824389134 19.560661315917965
  endloop
endfacet
facet normal -0.6087621438594599 8.448271857911803e-18 -0.7933527917664589
  outer loop
    vertex 38.13142225074581 0.07469972824389134 19.799039840698242
    vertex 38.44208261298946 5.074699728243888 19.560661315917965
    vertex 38.44208261298946 0.07469972824389134 19.560661315917965
  endloop
endfacet
facet normal -0.6087621438594599 8.448271857911803e-18 -0.7933527917664589
  outer loop
    vertex 38.44208261298946 5.074699728243888 19.560661315917965
    vertex 38.13142225074581 0.07469972824389134 19.799039840698242
    vertex 38.13142225074581 5.074699728243888 19.799039840698242
  endloop
endfacet
facet normal -0.3826837570345099 5.310803977622496e-18 -0.9238793980287429
  outer loop
    vertex 37.769650667188685 0.07469972824389134 19.948890686035156
    vertex 38.13142225074581 5.074699728243888 19.799039840698242
    vertex 38.13142225074581 0.07469972824389134 19.799039840698242
  endloop
endfacet
facet normal -0.3826837570345099 5.310803977622496e-18 -0.9238793980287429
  outer loop
    vertex 38.13142225074581 5.074699728243888 19.799039840698242
    vertex 37.769650667188685 0.07469972824389134 19.948890686035156
    vertex 37.769650667188685 5.074699728243888 19.948890686035156
  endloop
endfacet
facet normal -0.13052614365753357 1.8114141250515576e-18 -0.991444867767186
  outer loop
    vertex 37.38142225074581 0.07469972824389134 20.000001907348633
    vertex 37.769650667188685 5.074699728243888 19.948890686035156
    vertex 37.769650667188685 0.07469972824389134 19.948890686035156
  endloop
endfacet
facet normal -0.13052614365753357 1.8114141250515576e-18 -0.991444867767186
  outer loop
    vertex 37.769650667188685 5.074699728243888 19.948890686035156
    vertex 37.38142225074581 0.07469972824389134 20.000001907348633
    vertex 37.38142225074581 5.074699728243888 20.000001907348633
  endloop
endfacet
facet normal 0.13052614365753454 -1.4462103947645279e-18 -0.991444867767186
  outer loop
    vertex 36.993193834302936 0.07469972824389134 19.948890686035156
    vertex 37.38142225074581 5.074699728243888 20.000001907348633
    vertex 37.38142225074581 0.07469972824389134 20.000001907348633
  endloop
endfacet
facet normal 0.13052614365753454 -1.4462103947645279e-18 -0.991444867767186
  outer loop
    vertex 37.38142225074581 5.074699728243888 20.000001907348633
    vertex 36.993193834302936 0.07469972824389134 19.948890686035156
    vertex 36.993193834302936 5.074699728243888 19.948890686035156
  endloop
endfacet
facet normal 0.38268289597069705 -4.240069970223581e-18 -0.9238797546929366
  outer loop
    vertex 36.63142129707149 0.07469972824389134 19.799039840698242
    vertex 36.993193834302936 5.074699728243888 19.948890686035156
    vertex 36.993193834302936 0.07469972824389134 19.948890686035156
  endloop
endfacet
facet normal 0.38268289597069705 -4.240069970223581e-18 -0.9238797546929366
  outer loop
    vertex 36.993193834302936 5.074699728243888 19.948890686035156
    vertex 36.63142129707149 0.07469972824389134 19.799039840698242
    vertex 36.63142129707149 5.074699728243888 19.799039840698242
  endloop
endfacet
facet normal 0.6087633200973919 -8.448288181492621e-18 -0.7933518892042801
  outer loop
    vertex 36.320761888502155 0.07469972824389134 19.560661315917965
    vertex 36.63142129707149 5.074699728243888 19.799039840698242
    vertex 36.63142129707149 0.07469972824389134 19.799039840698242
  endloop
endfacet
facet normal 0.6087633200973919 -8.448288181492621e-18 -0.7933518892042801
  outer loop
    vertex 36.63142129707149 5.074699728243888 19.799039840698242
    vertex 36.320761888502155 0.07469972824389134 19.560661315917965
    vertex 36.320761888502155 5.074699728243888 19.560661315917965
  endloop
endfacet
facet normal 0.7933518892042801 -1.1009969175305338e-17 -0.6087633200973919
  outer loop
    vertex 36.320761888502155 0.07469972824389134 19.560661315917965
    vertex 36.08238336372188 5.074699728243888 19.250001907348633
    vertex 36.320761888502155 5.074699728243888 19.560661315917965
  endloop
endfacet
facet normal 0.7933518892042801 -1.1009969175305338e-17 -0.6087633200973919
  outer loop
    vertex 36.08238336372188 5.074699728243888 19.250001907348633
    vertex 36.320761888502155 0.07469972824389134 19.560661315917965
    vertex 36.08238336372188 0.07469972824389134 19.250001907348633
  endloop
endfacet
facet normal 0.9238797546929366 -1.389212925330076e-17 -0.38268289597069716
  outer loop
    vertex 36.08238336372188 0.07469972824389134 19.250001907348633
    vertex 35.93253251838497 5.074699728243888 18.888229370117184
    vertex 36.08238336372188 5.074699728243888 19.250001907348633
  endloop
endfacet
facet normal 0.9238797546929366 -1.389212925330076e-17 -0.38268289597069716
  outer loop
    vertex 35.93253251838497 5.074699728243888 18.888229370117184
    vertex 36.08238336372188 0.07469972824389134 19.250001907348633
    vertex 35.93253251838497 0.07469972824389134 18.888229370117184
  endloop
endfacet
facet normal 0.9914448262738911 -1.3759060922184528e-17 -0.13052645883013175
  outer loop
    vertex 35.93253251838497 0.07469972824389134 18.888229370117184
    vertex 35.88142129707149 5.074699728243888 18.500001907348633
    vertex 35.93253251838497 5.074699728243888 18.888229370117184
  endloop
endfacet
facet normal 0.9914448262738911 -1.3759060922184528e-17 -0.13052645883013175
  outer loop
    vertex 35.88142129707149 5.074699728243888 18.500001907348633
    vertex 35.93253251838497 0.07469972824389134 18.888229370117184
    vertex 35.88142129707149 0.07469972824389134 18.500001907348633
  endloop
endfacet
facet normal 0.9914449092601804 -1.3759062073850558e-17 0.13052582848644526
  outer loop
    vertex 35.88142129707149 0.07469972824389134 18.500001907348633
    vertex 35.93253251838497 5.074699728243888 18.11177253723144
    vertex 35.88142129707149 5.074699728243888 18.500001907348633
  endloop
endfacet
facet normal 0.9914449092601804 -1.3759062073850558e-17 0.13052582848644526
  outer loop
    vertex 35.93253251838497 5.074699728243888 18.11177253723144
    vertex 35.88142129707149 0.07469972824389134 18.500001907348633
    vertex 35.93253251838497 0.07469972824389134 18.11177253723144
  endloop
endfacet
facet normal 0.9238790413621416 -1.1750670419960743e-17 0.38268461810186527
  outer loop
    vertex 35.93253251838497 0.07469972824389134 18.11177253723144
    vertex 36.08238336372188 5.074699728243888 17.750001907348633
    vertex 35.93253251838497 5.074699728243888 18.11177253723144
  endloop
endfacet
facet normal 0.9238790413621416 -1.1750670419960743e-17 0.38268461810186527
  outer loop
    vertex 36.08238336372188 5.074699728243888 17.750001907348633
    vertex 35.93253251838497 0.07469972824389134 18.11177253723144
    vertex 36.08238336372188 0.07469972824389134 17.750001907348633
  endloop
endfacet
facet normal 0.7933536943234112 -1.100999422636638e-17 0.6087609676247283
  outer loop
    vertex 36.08238336372188 0.07469972824389134 17.750001907348633
    vertex 36.320761888502155 5.074699728243888 17.43934059143066
    vertex 36.08238336372188 5.074699728243888 17.750001907348633
  endloop
endfacet
facet normal 0.7933536943234112 -1.100999422636638e-17 0.6087609676247283
  outer loop
    vertex 36.320761888502155 5.074699728243888 17.43934059143066
    vertex 36.08238336372188 0.07469972824389134 17.750001907348633
    vertex 36.320761888502155 0.07469972824389134 17.43934059143066
  endloop
endfacet
facet normal 0.6087633200973873 -8.448288181493063e-18 0.7933518892042838
  outer loop
    vertex 36.320761888502155 5.074699728243888 17.43934059143066
    vertex 36.63142129707149 0.07469972824389134 17.20096206665039
    vertex 36.63142129707149 5.074699728243888 17.20096206665039
  endloop
endfacet
facet normal 0.6087633200973873 -8.448288181493063e-18 0.7933518892042838
  outer loop
    vertex 36.63142129707149 0.07469972824389134 17.20096206665039
    vertex 36.320761888502155 5.074699728243888 17.43934059143066
    vertex 36.320761888502155 0.07469972824389134 17.43934059143066
  endloop
endfacet
facet normal 0.38267873837694 -4.240023904699949e-18 0.9238814768108696
  outer loop
    vertex 36.63142129707149 5.074699728243888 17.20096206665039
    vertex 36.993193834302936 0.07469972824389134 17.05111312866211
    vertex 36.993193834302936 5.074699728243888 17.05111312866211
  endloop
endfacet
facet normal 0.38267873837694 -4.240023904699949e-18 0.9238814768108696
  outer loop
    vertex 36.993193834302936 0.07469972824389134 17.05111312866211
    vertex 36.63142129707149 5.074699728243888 17.20096206665039
    vertex 36.63142129707149 0.07469972824389134 17.20096206665039
  endloop
endfacet
facet normal 0.13052614365753454 -1.4462103947645279e-18 0.991444867767186
  outer loop
    vertex 36.993193834302936 5.074699728243888 17.05111312866211
    vertex 37.38142225074581 0.07469972824389134 17.000001907348633
    vertex 37.38142225074581 5.074699728243888 17.000001907348633
  endloop
endfacet
facet normal 0.13052614365753454 -1.4462103947645279e-18 0.991444867767186
  outer loop
    vertex 37.38142225074581 0.07469972824389134 17.000001907348633
    vertex 36.993193834302936 5.074699728243888 17.05111312866211
    vertex 36.993193834302936 0.07469972824389134 17.05111312866211
  endloop
endfacet
facet normal 6.206335383118184e-18 0.44721359549995804 0.8944271909999161
  outer loop
    vertex 37.8814222507458 11.074699728243887 12.000000953674316
    vertex 42.88142225074581 5.074699728243888 15.000000953674316
    vertex 42.88142225074581 11.074699728243887 12.000000953674316
  endloop
endfacet
facet normal 6.206335383118184e-18 0.44721359549995804 0.8944271909999161
  outer loop
    vertex 42.88142225074581 5.074699728243888 15.000000953674316
    vertex 37.8814222507458 11.074699728243887 12.000000953674316
    vertex 31.88142129707149 5.074699728243888 15.000000953674316
  endloop
endfacet
facet normal 1.3877787807814777e-17 1.0 -6.560149021421131e-32
  outer loop
    vertex 31.88142129707149 5.074699728243888 15.000000953674316
    vertex 36.993193834302936 5.074699728243888 17.05111312866211
    vertex 42.88142225074581 5.074699728243888 15.000000953674316
  endloop
endfacet
facet normal 1.3877787807814777e-17 1.0 -6.560149021421131e-32
  outer loop
    vertex 36.993193834302936 5.074699728243888 17.05111312866211
    vertex 31.88142129707149 5.074699728243888 15.000000953674316
    vertex 36.63142129707149 5.074699728243888 17.20096206665039
  endloop
endfacet
facet normal 1.3877787807814777e-17 1.0 -6.560149021421131e-32
  outer loop
    vertex 36.63142129707149 5.074699728243888 17.20096206665039
    vertex 31.88142129707149 5.074699728243888 15.000000953674316
    vertex 36.320761888502155 5.074699728243888 17.43934059143066
  endloop
endfacet
facet normal 1.3877787807814777e-17 1.0 -6.560149021421131e-32
  outer loop
    vertex 36.320761888502155 5.074699728243888 17.43934059143066
    vertex 31.88142129707149 5.074699728243888 15.000000953674316
    vertex 31.88142129707149 5.074699728243888 22.00000190734863
  endloop
endfacet
facet normal 1.3877787807814777e-17 1.0 -6.560149021421131e-32
  outer loop
    vertex 42.88142225074581 5.074699728243888 15.000000953674316
    vertex 36.993193834302936 5.074699728243888 17.05111312866211
    vertex 37.38142225074581 5.074699728243888 17.000001907348633
  endloop
endfacet
facet normal 1.3877787807814777e-17 1.0 -6.560149021421131e-32
  outer loop
    vertex 36.320761888502155 5.074699728243888 17.43934059143066
    vertex 31.88142129707149 5.074699728243888 22.00000190734863
    vertex 36.08238336372188 5.074699728243888 17.750001907348633
  endloop
endfacet
facet normal 1.3877787807814777e-17 1.0 -6.560149021421131e-32
  outer loop
    vertex 36.08238336372188 5.074699728243888 17.750001907348633
    vertex 31.88142129707149 5.074699728243888 22.00000190734863
    vertex 35.93253251838497 5.074699728243888 18.11177253723144
  endloop
endfacet
facet normal 1.3877787807814777e-17 1.0 -6.560149021421131e-32
  outer loop
    vertex 35.93253251838497 5.074699728243888 18.11177253723144
    vertex 31.88142129707149 5.074699728243888 22.00000190734863
    vertex 35.88142129707149 5.074699728243888 18.500001907348633
  endloop
endfacet
facet normal 1.3877787807814777e-17 1.0 -6.560149021421131e-32
  outer loop
    vertex 35.88142129707149 5.074699728243888 18.500001907348633
    vertex 31.88142129707149 5.074699728243888 22.00000190734863
    vertex 35.93253251838497 5.074699728243888 18.888229370117184
  endloop
endfacet
facet normal 1.3877787807814777e-17 1.0 -6.560149021421131e-32
  outer loop
    vertex 35.93253251838497 5.074699728243888 18.888229370117184
    vertex 31.88142129707149 5.074699728243888 22.00000190734863
    vertex 36.08238336372188 5.074699728243888 19.250001907348633
  endloop
endfacet
facet normal 1.3877787807814777e-17 1.0 -6.560149021421131e-32
  outer loop
    vertex 36.08238336372188 5.074699728243888 19.250001907348633
    vertex 31.88142129707149 5.074699728243888 22.00000190734863
    vertex 36.320761888502155 5.074699728243888 19.560661315917965
  endloop
endfacet
facet normal 1.3877787807814777e-17 1.0 -6.560149021421131e-32
  outer loop
    vertex 36.320761888502155 5.074699728243888 19.560661315917965
    vertex 31.88142129707149 5.074699728243888 22.00000190734863
    vertex 36.63142129707149 5.074699728243888 19.799039840698242
  endloop
endfacet
facet normal 1.3877787807814777e-17 1.0 -6.560149021421131e-32
  outer loop
    vertex 36.63142129707149 5.074699728243888 19.799039840698242
    vertex 31.88142129707149 5.074699728243888 22.00000190734863
    vertex 36.993193834302936 5.074699728243888 19.948890686035156
  endloop
endfacet
facet normal 1.3877787807814777e-17 1.0 -6.560149021421131e-32
  outer loop
    vertex 36.993193834302936 5.074699728243888 19.948890686035156
    vertex 31.88142129707149 5.074699728243888 22.00000190734863
    vertex 37.38142225074581 5.074699728243888 20.000001907348633
  endloop
endfacet
facet normal 1.3877787807814777e-17 1.0 -6.560149021421131e-32
  outer loop
    vertex 42.88142225074581 5.074699728243888 15.000000953674316
    vertex 38.44208261298946 5.074699728243888 17.43934059143066
    vertex 42.88142225074581 5.074699728243888 22.00000190734863
  endloop
endfacet
facet normal 1.3877787807814777e-17 1.0 -6.560149021421131e-32
  outer loop
    vertex 38.44208261298946 5.074699728243888 17.43934059143066
    vertex 42.88142225074581 5.074699728243888 15.000000953674316
    vertex 38.13142225074581 5.074699728243888 17.20096206665039
  endloop
endfacet
facet normal 1.3877787807814777e-17 1.0 -6.560149021421131e-32
  outer loop
    vertex 38.13142225074581 5.074699728243888 17.20096206665039
    vertex 42.88142225074581 5.074699728243888 15.000000953674316
    vertex 37.769650667188685 5.074699728243888 17.05111312866211
  endloop
endfacet
facet normal 1.3877787807814777e-17 1.0 -6.560149021421131e-32
  outer loop
    vertex 37.769650667188685 5.074699728243888 17.05111312866211
    vertex 42.88142225074581 5.074699728243888 15.000000953674316
    vertex 37.38142225074581 5.074699728243888 17.000001907348633
  endloop
endfacet
facet normal 1.3877787807814777e-17 1.0 -6.560149021421131e-32
  outer loop
    vertex 42.88142225074581 5.074699728243888 22.00000190734863
    vertex 38.44208261298946 5.074699728243888 17.43934059143066
    vertex 38.680460184095416 5.074699728243888 17.750001907348633
  endloop
endfacet
facet normal 1.3877787807814777e-17 1.0 -6.560149021421131e-32
  outer loop
    vertex 42.88142225074581 5.074699728243888 22.00000190734863
    vertex 38.680460184095416 5.074699728243888 17.750001907348633
    vertex 38.83031102943233 5.074699728243888 18.11177253723144
  endloop
endfacet
facet normal 1.3877787807814777e-17 1.0 -6.560149021421131e-32
  outer loop
    vertex 42.88142225074581 5.074699728243888 22.00000190734863
    vertex 38.83031102943233 5.074699728243888 18.11177253723144
    vertex 38.88142225074581 5.074699728243888 18.500001907348633
  endloop
endfacet
facet normal 1.3877787807814777e-17 1.0 -6.560149021421131e-32
  outer loop
    vertex 42.88142225074581 5.074699728243888 22.00000190734863
    vertex 38.88142225074581 5.074699728243888 18.500001907348633
    vertex 38.83031102943233 5.074699728243888 18.888229370117184
  endloop
endfacet
facet normal 1.3877787807814777e-17 1.0 -6.560149021421131e-32
  outer loop
    vertex 42.88142225074581 5.074699728243888 22.00000190734863
    vertex 38.83031102943233 5.074699728243888 18.888229370117184
    vertex 38.680460184095416 5.074699728243888 19.250001907348633
  endloop
endfacet
facet normal 1.3877787807814777e-17 1.0 -6.560149021421131e-32
  outer loop
    vertex 42.88142225074581 5.074699728243888 22.00000190734863
    vertex 38.680460184095416 5.074699728243888 19.250001907348633
    vertex 38.44208261298946 5.074699728243888 19.560661315917965
  endloop
endfacet
facet normal 1.3877787807814777e-17 1.0 -6.560149021421131e-32
  outer loop
    vertex 42.88142225074581 5.074699728243888 22.00000190734863
    vertex 38.44208261298946 5.074699728243888 19.560661315917965
    vertex 38.13142225074581 5.074699728243888 19.799039840698242
  endloop
endfacet
facet normal 1.3877787807814777e-17 1.0 -6.560149021421131e-32
  outer loop
    vertex 42.88142225074581 5.074699728243888 22.00000190734863
    vertex 38.13142225074581 5.074699728243888 19.799039840698242
    vertex 37.769650667188685 5.074699728243888 19.948890686035156
  endloop
endfacet
facet normal 1.3877787807814777e-17 1.0 -6.560149021421131e-32
  outer loop
    vertex 42.88142225074581 5.074699728243888 22.00000190734863
    vertex 37.769650667188685 5.074699728243888 19.948890686035156
    vertex 37.38142225074581 5.074699728243888 20.000001907348633
  endloop
endfacet
facet normal 1.3877787807814777e-17 1.0 -6.560149021421131e-32
  outer loop
    vertex 42.88142225074581 5.074699728243888 22.00000190734863
    vertex 37.38142225074581 5.074699728243888 20.000001907348633
    vertex 31.88142129707149 5.074699728243888 22.00000190734863
  endloop
endfacet
facet normal 0.0 0.0 1.0
  outer loop
    vertex 31.88142129707149 5.074699728243888 22.00000190734863
    vertex 42.88142225074581 0.07469972824389134 22.00000190734863
    vertex 42.88142225074581 5.074699728243888 22.00000190734863
  endloop
endfacet
facet normal 0.0 0.0 1.0
  outer loop
    vertex 42.88142225074581 0.07469972824389134 22.00000190734863
    vertex 31.88142129707149 5.074699728243888 22.00000190734863
    vertex 31.88142129707149 0.07469972824389134 22.00000190734863
  endloop
endfacet
facet normal -0.991444867767186 0.0 0.1305261436575341
  outer loop
    vertex 49.33031102943233 34.100000046325796 5.611772037231447
    vertex 49.38142225074581 39.099999999999994 6.000000453674317
    vertex 49.33031102943233 39.099999999999994 5.611772037231447
  endloop
endfacet
facet normal -0.991444867767186 0.0 0.1305261436575341
  outer loop
    vertex 49.38142225074581 39.099999999999994 6.000000453674317
    vertex 49.33031102943233 34.100000046325796 5.611772037231447
    vertex 49.38142225074581 34.100000046325796 6.000000453674317
  endloop
endfacet
facet normal -0.9238796132950441 2.3511752761079375e-30 0.38268323733578896
  outer loop
    vertex 49.180460422513995 34.100000046325796 5.250000453674317
    vertex 49.33031102943233 39.099999999999994 5.611772037231447
    vertex 49.180460422513995 39.099999999999994 5.250000453674317
  endloop
endfacet
facet normal -0.9238796132950441 2.3511752761079375e-30 0.38268323733578896
  outer loop
    vertex 49.33031102943233 39.099999999999994 5.611772037231447
    vertex 49.180460422513995 34.100000046325796 5.250000453674317
    vertex 49.33031102943233 34.100000046325796 5.611772037231447
  endloop
endfacet
facet normal -0.7933533798846897 0.0 0.6087613774095226
  outer loop
    vertex 48.94208237457088 34.100000046325796 4.939340091430664
    vertex 49.180460422513995 39.099999999999994 5.250000453674317
    vertex 48.94208237457088 39.099999999999994 4.939340091430664
  endloop
endfacet
facet normal -0.7933533798846897 0.0 0.6087613774095226
  outer loop
    vertex 49.180460422513995 39.099999999999994 5.250000453674317
    vertex 48.94208237457088 34.100000046325796 4.939340091430664
    vertex 49.180460422513995 34.100000046325796 5.250000453674317
  endloop
endfacet
facet normal -0.6087609050171928 1.1098763182562224e-18 0.7933537423638012
  outer loop
    vertex 48.63142225074581 39.099999999999994 4.700962520324708
    vertex 48.94208237457088 34.100000046325796 4.939340091430664
    vertex 48.94208237457088 39.099999999999994 4.939340091430664
  endloop
endfacet
facet normal -0.6087609050171928 1.1098763182562224e-18 0.7933537423638012
  outer loop
    vertex 48.94208237457088 34.100000046325796 4.939340091430664
    vertex 48.63142225074581 39.099999999999994 4.700962520324708
    vertex 48.63142225074581 34.100000046325796 4.700962520324708
  endloop
endfacet
facet normal -0.382683757034514 0.0 0.9238793980287412
  outer loop
    vertex 48.26965066718868 39.099999999999994 4.551111674987793
    vertex 48.63142225074581 34.100000046325796 4.700962520324708
    vertex 48.63142225074581 39.099999999999994 4.700962520324708
  endloop
endfacet
facet normal -0.382683757034514 0.0 0.9238793980287412
  outer loop
    vertex 48.63142225074581 34.100000046325796 4.700962520324708
    vertex 48.26965066718868 39.099999999999994 4.551111674987793
    vertex 48.26965066718868 34.100000046325796 4.551111674987793
  endloop
endfacet
facet normal -0.1305261436575336 3.65203737053967e-19 0.991444867767186
  outer loop
    vertex 47.88142225074581 39.099999999999994 4.500000453674317
    vertex 48.26965066718868 34.100000046325796 4.551111674987793
    vertex 48.26965066718868 39.099999999999994 4.551111674987793
  endloop
endfacet
facet normal -0.1305261436575336 3.65203737053967e-19 0.991444867767186
  outer loop
    vertex 48.26965066718868 34.100000046325796 4.551111674987793
    vertex 47.88142225074581 39.099999999999994 4.500000453674317
    vertex 47.88142225074581 34.100000046325796 4.500000453674317
  endloop
endfacet
facet normal 0.1305261436575336 0.0 0.991444867767186
  outer loop
    vertex 47.493193834302936 39.099999999999994 4.551111674987793
    vertex 47.88142225074581 34.100000046325796 4.500000453674317
    vertex 47.88142225074581 39.099999999999994 4.500000453674317
  endloop
endfacet
facet normal 0.1305261436575336 0.0 0.991444867767186
  outer loop
    vertex 47.88142225074581 34.100000046325796 4.500000453674317
    vertex 47.493193834302936 39.099999999999994 4.551111674987793
    vertex 47.493193834302936 34.100000046325796 4.551111674987793
  endloop
endfacet
facet normal 0.38268375703451396 -1.2924775040954832e-18 0.9238793980287412
  outer loop
    vertex 47.13142225074581 39.099999999999994 4.700962520324708
    vertex 47.493193834302936 34.100000046325796 4.551111674987793
    vertex 47.493193834302936 39.099999999999994 4.551111674987793
  endloop
endfacet
facet normal 0.38268375703451396 -1.2924775040954832e-18 0.9238793980287412
  outer loop
    vertex 47.493193834302936 34.100000046325796 4.551111674987793
    vertex 47.13142225074581 39.099999999999994 4.700962520324708
    vertex 47.13142225074581 34.100000046325796 4.700962520324708
  endloop
endfacet
facet normal 0.6087606109578728 0.0 0.7933539680030581
  outer loop
    vertex 46.820761888502155 39.099999999999994 4.939340091430664
    vertex 47.13142225074581 34.100000046325796 4.700962520324708
    vertex 47.13142225074581 39.099999999999994 4.700962520324708
  endloop
endfacet
facet normal 0.6087606109578728 0.0 0.7933539680030581
  outer loop
    vertex 47.13142225074581 34.100000046325796 4.700962520324708
    vertex 46.820761888502155 39.099999999999994 4.939340091430664
    vertex 46.820761888502155 34.100000046325796 4.939340091430664
  endloop
endfacet
facet normal 0.7933539680030564 2.018374581717823e-30 0.6087606109578753
  outer loop
    vertex 46.5823843173962 34.100000046325796 5.250000453674317
    vertex 46.820761888502155 39.099999999999994 4.939340091430664
    vertex 46.5823843173962 39.099999999999994 5.250000453674317
  endloop
endfacet
facet normal 0.7933539680030564 2.018374581717823e-30 0.6087606109578753
  outer loop
    vertex 46.820761888502155 39.099999999999994 4.939340091430664
    vertex 46.5823843173962 34.100000046325796 5.250000453674317
    vertex 46.820761888502155 34.100000046325796 4.939340091430664
  endloop
endfacet
facet normal 0.9238793980287402 0.0 0.382683757034516
  outer loop
    vertex 46.43253347205928 34.100000046325796 5.611772037231447
    vertex 46.5823843173962 39.099999999999994 5.250000453674317
    vertex 46.43253347205928 39.099999999999994 5.611772037231447
  endloop
endfacet
facet normal 0.9238793980287402 0.0 0.382683757034516
  outer loop
    vertex 46.5823843173962 39.099999999999994 5.250000453674317
    vertex 46.43253347205928 34.100000046325796 5.611772037231447
    vertex 46.5823843173962 34.100000046325796 5.250000453674317
  endloop
endfacet
facet normal 0.991444867767186 3.652037370542158e-19 0.1305261436575341
  outer loop
    vertex 46.38142225074581 34.100000046325796 6.000000453674317
    vertex 46.43253347205928 39.099999999999994 5.611772037231447
    vertex 46.38142225074581 39.099999999999994 6.000000453674317
  endloop
endfacet
facet normal 0.991444867767186 3.652037370542158e-19 0.1305261436575341
  outer loop
    vertex 46.43253347205928 39.099999999999994 5.611772037231447
    vertex 46.38142225074581 34.100000046325796 6.000000453674317
    vertex 46.43253347205928 34.100000046325796 5.611772037231447
  endloop
endfacet
facet normal 0.991444867767186 0.0 -0.1305261436575341
  outer loop
    vertex 46.43253347205928 34.100000046325796 6.388228870117188
    vertex 46.38142225074581 39.099999999999994 6.000000453674317
    vertex 46.43253347205928 39.099999999999994 6.388228870117188
  endloop
endfacet
facet normal 0.991444867767186 0.0 -0.1305261436575341
  outer loop
    vertex 46.38142225074581 39.099999999999994 6.000000453674317
    vertex 46.43253347205928 34.100000046325796 6.388228870117188
    vertex 46.38142225074581 34.100000046325796 6.000000453674317
  endloop
endfacet
facet normal 0.9238793980287402 0.0 -0.382683757034516
  outer loop
    vertex 46.5823843173962 34.100000046325796 6.750000453674318
    vertex 46.43253347205928 39.099999999999994 6.388228870117188
    vertex 46.5823843173962 39.099999999999994 6.750000453674318
  endloop
endfacet
facet normal 0.9238793980287402 0.0 -0.382683757034516
  outer loop
    vertex 46.43253347205928 39.099999999999994 6.388228870117188
    vertex 46.5823843173962 34.100000046325796 6.750000453674318
    vertex 46.43253347205928 34.100000046325796 6.388228870117188
  endloop
endfacet
facet normal 0.7933539680030564 0.0 -0.6087606109578753
  outer loop
    vertex 46.820761888502155 34.100000046325796 7.06066081591797
    vertex 46.5823843173962 39.099999999999994 6.750000453674318
    vertex 46.820761888502155 39.099999999999994 7.06066081591797
  endloop
endfacet
facet normal 0.7933539680030564 0.0 -0.6087606109578753
  outer loop
    vertex 46.5823843173962 39.099999999999994 6.750000453674318
    vertex 46.820761888502155 34.100000046325796 7.06066081591797
    vertex 46.5823843173962 34.100000046325796 6.750000453674318
  endloop
endfacet
facet normal 0.608760610957874 5.053640174072107e-31 -0.7933539680030574
  outer loop
    vertex 46.820761888502155 34.100000046325796 7.06066081591797
    vertex 47.13142225074581 39.099999999999994 7.299038387023927
    vertex 47.13142225074581 34.100000046325796 7.299038387023927
  endloop
endfacet
facet normal 0.608760610957874 5.053640174072107e-31 -0.7933539680030574
  outer loop
    vertex 47.13142225074581 39.099999999999994 7.299038387023927
    vertex 46.820761888502155 34.100000046325796 7.06066081591797
    vertex 46.820761888502155 39.099999999999994 7.06066081591797
  endloop
endfacet
facet normal 0.3826837570345124 0.0 -0.9238793980287417
  outer loop
    vertex 47.13142225074581 34.100000046325796 7.299038387023927
    vertex 47.493193834302936 39.099999999999994 7.448889232360841
    vertex 47.493193834302936 34.100000046325796 7.448889232360841
  endloop
endfacet
facet normal 0.3826837570345124 0.0 -0.9238793980287417
  outer loop
    vertex 47.493193834302936 39.099999999999994 7.448889232360841
    vertex 47.13142225074581 34.100000046325796 7.299038387023927
    vertex 47.13142225074581 39.099999999999994 7.299038387023927
  endloop
endfacet
facet normal 0.1305261436575336 3.65203737053967e-19 -0.991444867767186
  outer loop
    vertex 47.493193834302936 34.100000046325796 7.448889232360841
    vertex 47.88142225074581 39.099999999999994 7.500000453674318
    vertex 47.88142225074581 34.100000046325796 7.500000453674318
  endloop
endfacet
facet normal 0.1305261436575336 3.65203737053967e-19 -0.991444867767186
  outer loop
    vertex 47.88142225074581 39.099999999999994 7.500000453674318
    vertex 47.493193834302936 34.100000046325796 7.448889232360841
    vertex 47.493193834302936 39.099999999999994 7.448889232360841
  endloop
endfacet
facet normal -0.1305261436575336 0.0 -0.991444867767186
  outer loop
    vertex 47.88142225074581 34.100000046325796 7.500000453674318
    vertex 48.26965066718868 39.099999999999994 7.448889232360841
    vertex 48.26965066718868 34.100000046325796 7.448889232360841
  endloop
endfacet
facet normal -0.1305261436575336 0.0 -0.991444867767186
  outer loop
    vertex 48.26965066718868 39.099999999999994 7.448889232360841
    vertex 47.88142225074581 34.100000046325796 7.500000453674318
    vertex 47.88142225074581 39.099999999999994 7.500000453674318
  endloop
endfacet
facet normal -0.3826837570345125 -9.737501798821864e-31 -0.9238793980287417
  outer loop
    vertex 48.26965066718868 34.100000046325796 7.448889232360841
    vertex 48.63142225074581 39.099999999999994 7.299038387023927
    vertex 48.63142225074581 34.100000046325796 7.299038387023927
  endloop
endfacet
facet normal -0.3826837570345125 -9.737501798821864e-31 -0.9238793980287417
  outer loop
    vertex 48.63142225074581 39.099999999999994 7.299038387023927
    vertex 48.26965066718868 34.100000046325796 7.448889232360841
    vertex 48.26965066718868 39.099999999999994 7.448889232360841
  endloop
endfacet
facet normal -0.6087609050171939 0.0 -0.7933537423638003
  outer loop
    vertex 48.63142225074581 34.100000046325796 7.299038387023927
    vertex 48.94208237457088 39.099999999999994 7.06066081591797
    vertex 48.94208237457088 34.100000046325796 7.06066081591797
  endloop
endfacet
facet normal -0.6087609050171939 0.0 -0.7933537423638003
  outer loop
    vertex 48.94208237457088 39.099999999999994 7.06066081591797
    vertex 48.63142225074581 34.100000046325796 7.299038387023927
    vertex 48.63142225074581 39.099999999999994 7.299038387023927
  endloop
endfacet
facet normal -0.7933533798846897 0.0 -0.6087613774095226
  outer loop
    vertex 49.180460422513995 34.100000046325796 6.750000453674318
    vertex 48.94208237457088 39.099999999999994 7.06066081591797
    vertex 49.180460422513995 39.099999999999994 6.750000453674318
  endloop
endfacet
facet normal -0.7933533798846897 0.0 -0.6087613774095226
  outer loop
    vertex 48.94208237457088 39.099999999999994 7.06066081591797
    vertex 49.180460422513995 34.100000046325796 6.750000453674318
    vertex 48.94208237457088 34.100000046325796 7.06066081591797
  endloop
endfacet
facet normal -0.9238796132950441 0.0 -0.38268323733578896
  outer loop
    vertex 49.33031102943233 34.100000046325796 6.388228870117188
    vertex 49.180460422513995 39.099999999999994 6.750000453674318
    vertex 49.33031102943233 39.099999999999994 6.388228870117188
  endloop
endfacet
facet normal -0.9238796132950441 0.0 -0.38268323733578896
  outer loop
    vertex 49.180460422513995 39.099999999999994 6.750000453674318
    vertex 49.33031102943233 34.100000046325796 6.388228870117188
    vertex 49.180460422513995 34.100000046325796 6.750000453674318
  endloop
endfacet
facet normal -0.991444867767186 -3.652037370542158e-19 -0.1305261436575341
  outer loop
    vertex 49.38142225074581 34.100000046325796 6.000000453674317
    vertex 49.33031102943233 39.099999999999994 6.388228870117188
    vertex 49.38142225074581 39.099999999999994 6.000000453674317
  endloop
endfacet
facet normal -0.991444867767186 -3.652037370542158e-19 -0.1305261436575341
  outer loop
    vertex 49.33031102943233 39.099999999999994 6.388228870117188
    vertex 49.38142225074581 34.100000046325796 6.000000453674317
    vertex 49.33031102943233 34.100000046325796 6.388228870117188
  endloop
endfacet
facet normal -1.0 0.0 0.0
  outer loop
    vertex 37.8814222507458 11.074699728243887 9.999999974752427e-07
    vertex 37.8814222507458 37.100000046325796 12.000000453674318
    vertex 37.8814222507458 37.100000046325796 4.999999987376214e-07
  endloop
endfacet
facet normal -1.0 0.0 0.0
  outer loop
    vertex 37.8814222507458 37.100000046325796 12.000000453674318
    vertex 37.8814222507458 11.074699728243887 9.999999974752427e-07
    vertex 37.8814222507458 11.074699728243887 12.000000953674316
  endloop
endfacet
facet normal -0.7071067249907518 0.7071068373823388 9.608623258897321e-18
  outer loop
    vertex 31.88142129707149 5.074699728243888 15.000000953674316
    vertex 37.8814222507458 11.074699728243887 9.999999974752427e-07
    vertex 31.88142129707149 5.074699728243888 9.999999974752427e-07
  endloop
endfacet
facet normal -0.7071067249907518 0.7071068373823388 9.608623258897321e-18
  outer loop
    vertex 37.8814222507458 11.074699728243887 9.999999974752427e-07
    vertex 31.88142129707149 5.074699728243888 15.000000953674316
    vertex 37.8814222507458 11.074699728243887 12.000000953674316
  endloop
endfacet
facet normal -1.0 1.3877787807814457e-17 0.0
  outer loop
    vertex 31.88142129707149 0.07469972824389134 9.999999974752427e-07
    vertex 31.88142129707149 5.074699728243888 15.000000953674316
    vertex 31.88142129707149 5.074699728243888 9.999999974752427e-07
  endloop
endfacet
facet normal -1.0 1.3877787807814457e-17 0.0
  outer loop
    vertex 31.88142129707149 5.074699728243888 15.000000953674316
    vertex 31.88142129707149 0.07469972824389134 9.999999974752427e-07
    vertex 31.88142129707149 5.074699728243888 22.00000190734863
  endloop
endfacet
facet normal -1.0 1.3877787807814457e-17 0.0
  outer loop
    vertex 31.88142129707149 5.074699728243888 22.00000190734863
    vertex 31.88142129707149 0.07469972824389134 9.999999974752427e-07
    vertex 31.88142129707149 0.07469972824389134 22.00000190734863
  endloop
endfacet
facet normal -1.3877787807814457e-17 -1.0 0.0
  outer loop
    vertex 42.88142225074581 0.07469972824389134 22.00000190734863
    vertex 31.88142129707149 0.07469972824389134 9.999999974752427e-07
    vertex 42.88142225074581 0.07469972824389134 9.999999974752427e-07
  endloop
endfacet
facet normal -1.3877787807814457e-17 -1.0 0.0
  outer loop
    vertex 31.88142129707149 0.07469972824389134 9.999999974752427e-07
    vertex 42.88142225074581 0.07469972824389134 22.00000190734863
    vertex 38.44208261298946 0.07469972824389134 17.43934059143066
  endloop
endfacet
facet normal -1.3877787807814457e-17 -1.0 0.0
  outer loop
    vertex 31.88142129707149 0.07469972824389134 9.999999974752427e-07
    vertex 38.44208261298946 0.07469972824389134 17.43934059143066
    vertex 38.13142225074581 0.07469972824389134 17.20096206665039
  endloop
endfacet
facet normal -1.3877787807814457e-17 -1.0 0.0
  outer loop
    vertex 31.88142129707149 0.07469972824389134 9.999999974752427e-07
    vertex 38.13142225074581 0.07469972824389134 17.20096206665039
    vertex 37.769650667188685 0.07469972824389134 17.05111312866211
  endloop
endfacet
facet normal -1.3877787807814457e-17 -1.0 0.0
  outer loop
    vertex 31.88142129707149 0.07469972824389134 9.999999974752427e-07
    vertex 37.769650667188685 0.07469972824389134 17.05111312866211
    vertex 37.38142225074581 0.07469972824389134 17.000001907348633
  endloop
endfacet
facet normal -1.3877787807814457e-17 -1.0 0.0
  outer loop
    vertex 38.44208261298946 0.07469972824389134 17.43934059143066
    vertex 42.88142225074581 0.07469972824389134 22.00000190734863
    vertex 38.680460184095416 0.07469972824389134 17.750001907348633
  endloop
endfacet
facet normal -1.3877787807814457e-17 -1.0 0.0
  outer loop
    vertex 38.680460184095416 0.07469972824389134 17.750001907348633
    vertex 42.88142225074581 0.07469972824389134 22.00000190734863
    vertex 38.83031102943233 0.07469972824389134 18.11177253723144
  endloop
endfacet
facet normal -1.3877787807814457e-17 -1.0 0.0
  outer loop
    vertex 38.83031102943233 0.07469972824389134 18.11177253723144
    vertex 42.88142225074581 0.07469972824389134 22.00000190734863
    vertex 38.88142225074581 0.07469972824389134 18.500001907348633
  endloop
endfacet
facet normal -1.3877787807814457e-17 -1.0 0.0
  outer loop
    vertex 38.88142225074581 0.07469972824389134 18.500001907348633
    vertex 42.88142225074581 0.07469972824389134 22.00000190734863
    vertex 38.83031102943233 0.07469972824389134 18.888229370117184
  endloop
endfacet
facet normal -1.3877787807814457e-17 -1.0 0.0
  outer loop
    vertex 38.83031102943233 0.07469972824389134 18.888229370117184
    vertex 42.88142225074581 0.07469972824389134 22.00000190734863
    vertex 38.680460184095416 0.07469972824389134 19.250001907348633
  endloop
endfacet
facet normal -1.3877787807814457e-17 -1.0 0.0
  outer loop
    vertex 38.680460184095416 0.07469972824389134 19.250001907348633
    vertex 42.88142225074581 0.07469972824389134 22.00000190734863
    vertex 38.44208261298946 0.07469972824389134 19.560661315917965
  endloop
endfacet
facet normal -1.3877787807814457e-17 -1.0 0.0
  outer loop
    vertex 38.44208261298946 0.07469972824389134 19.560661315917965
    vertex 42.88142225074581 0.07469972824389134 22.00000190734863
    vertex 38.13142225074581 0.07469972824389134 19.799039840698242
  endloop
endfacet
facet normal -1.3877787807814457e-17 -1.0 0.0
  outer loop
    vertex 38.13142225074581 0.07469972824389134 19.799039840698242
    vertex 42.88142225074581 0.07469972824389134 22.00000190734863
    vertex 37.769650667188685 0.07469972824389134 19.948890686035156
  endloop
endfacet
facet normal -1.3877787807814457e-17 -1.0 0.0
  outer loop
    vertex 37.769650667188685 0.07469972824389134 19.948890686035156
    vertex 42.88142225074581 0.07469972824389134 22.00000190734863
    vertex 37.38142225074581 0.07469972824389134 20.000001907348633
  endloop
endfacet
facet normal -1.3877787807814457e-17 -1.0 0.0
  outer loop
    vertex 31.88142129707149 0.07469972824389134 9.999999974752427e-07
    vertex 36.320761888502155 0.07469972824389134 17.43934059143066
    vertex 31.88142129707149 0.07469972824389134 22.00000190734863
  endloop
endfacet
facet normal -1.3877787807814457e-17 -1.0 0.0
  outer loop
    vertex 36.320761888502155 0.07469972824389134 17.43934059143066
    vertex 31.88142129707149 0.07469972824389134 9.999999974752427e-07
    vertex 36.63142129707149 0.07469972824389134 17.20096206665039
  endloop
endfacet
facet normal -1.3877787807814457e-17 -1.0 0.0
  outer loop
    vertex 36.63142129707149 0.07469972824389134 17.20096206665039
    vertex 31.88142129707149 0.07469972824389134 9.999999974752427e-07
    vertex 36.993193834302936 0.07469972824389134 17.05111312866211
  endloop
endfacet
facet normal -1.3877787807814457e-17 -1.0 0.0
  outer loop
    vertex 36.993193834302936 0.07469972824389134 17.05111312866211
    vertex 31.88142129707149 0.07469972824389134 9.999999974752427e-07
    vertex 37.38142225074581 0.07469972824389134 17.000001907348633
  endloop
endfacet
facet normal -1.3877787807814457e-17 -1.0 0.0
  outer loop
    vertex 31.88142129707149 0.07469972824389134 22.00000190734863
    vertex 36.320761888502155 0.07469972824389134 17.43934059143066
    vertex 36.08238336372188 0.07469972824389134 17.750001907348633
  endloop
endfacet
facet normal -1.3877787807814457e-17 -1.0 0.0
  outer loop
    vertex 31.88142129707149 0.07469972824389134 22.00000190734863
    vertex 36.08238336372188 0.07469972824389134 17.750001907348633
    vertex 35.93253251838497 0.07469972824389134 18.11177253723144
  endloop
endfacet
facet normal -1.3877787807814457e-17 -1.0 0.0
  outer loop
    vertex 31.88142129707149 0.07469972824389134 22.00000190734863
    vertex 35.93253251838497 0.07469972824389134 18.11177253723144
    vertex 35.88142129707149 0.07469972824389134 18.500001907348633
  endloop
endfacet
facet normal -1.3877787807814457e-17 -1.0 0.0
  outer loop
    vertex 31.88142129707149 0.07469972824389134 22.00000190734863
    vertex 35.88142129707149 0.07469972824389134 18.500001907348633
    vertex 35.93253251838497 0.07469972824389134 18.888229370117184
  endloop
endfacet
facet normal -1.3877787807814457e-17 -1.0 0.0
  outer loop
    vertex 31.88142129707149 0.07469972824389134 22.00000190734863
    vertex 35.93253251838497 0.07469972824389134 18.888229370117184
    vertex 36.08238336372188 0.07469972824389134 19.250001907348633
  endloop
endfacet
facet normal -1.3877787807814457e-17 -1.0 0.0
  outer loop
    vertex 31.88142129707149 0.07469972824389134 22.00000190734863
    vertex 36.08238336372188 0.07469972824389134 19.250001907348633
    vertex 36.320761888502155 0.07469972824389134 19.560661315917965
  endloop
endfacet
facet normal -1.3877787807814457e-17 -1.0 0.0
  outer loop
    vertex 31.88142129707149 0.07469972824389134 22.00000190734863
    vertex 36.320761888502155 0.07469972824389134 19.560661315917965
    vertex 36.63142129707149 0.07469972824389134 19.799039840698242
  endloop
endfacet
facet normal -1.3877787807814457e-17 -1.0 0.0
  outer loop
    vertex 31.88142129707149 0.07469972824389134 22.00000190734863
    vertex 36.63142129707149 0.07469972824389134 19.799039840698242
    vertex 36.993193834302936 0.07469972824389134 19.948890686035156
  endloop
endfacet
facet normal -1.3877787807814457e-17 -1.0 0.0
  outer loop
    vertex 31.88142129707149 0.07469972824389134 22.00000190734863
    vertex 36.993193834302936 0.07469972824389134 19.948890686035156
    vertex 37.38142225074581 0.07469972824389134 20.000001907348633
  endloop
endfacet
facet normal -1.3877787807814457e-17 -1.0 0.0
  outer loop
    vertex 31.88142129707149 0.07469972824389134 22.00000190734863
    vertex 37.38142225074581 0.07469972824389134 20.000001907348633
    vertex 42.88142225074581 0.07469972824389134 22.00000190734863
  endloop
endfacet
facet normal 1.0 0.0 0.0
  outer loop
    vertex 42.88142225074581 0.07469972824389134 22.00000190734863
    vertex 42.88142225074581 5.074699728243888 15.000000953674316
    vertex 42.88142225074581 5.074699728243888 22.00000190734863
  endloop
endfacet
facet normal 1.0 0.0 0.0
  outer loop
    vertex 42.88142225074581 11.074699728243887 12.000000953674316
    vertex 42.88142225074581 34.100000046325796 4.999999987376214e-07
    vertex 42.88142225074581 34.100000046325796 12.000000453674318
  endloop
endfacet
facet normal 1.0 0.0 0.0
  outer loop
    vertex 42.88142225074581 34.100000046325796 4.999999987376214e-07
    vertex 42.88142225074581 11.074699728243887 12.000000953674316
    vertex 42.88142225074581 0.07469972824389134 9.999999974752427e-07
  endloop
endfacet
facet normal 1.0 0.0 0.0
  outer loop
    vertex 42.88142225074581 0.07469972824389134 9.999999974752427e-07
    vertex 42.88142225074581 11.074699728243887 12.000000953674316
    vertex 42.88142225074581 5.074699728243888 15.000000953674316
  endloop
endfacet
facet normal 1.0 0.0 0.0
  outer loop
    vertex 42.88142225074581 0.07469972824389134 9.999999974752427e-07
    vertex 42.88142225074581 5.074699728243888 15.000000953674316
    vertex 42.88142225074581 0.07469972824389134 22.00000190734863
  endloop
endfacet
facet normal 0.0 -1.0 0.0
  outer loop
    vertex 52.88142220442012 34.100000046325796 4.999999987376214e-07
    vertex 48.94208237457088 34.100000046325796 4.939340091430664
    vertex 42.88142225074581 34.100000046325796 4.999999987376214e-07
  endloop
endfacet
facet normal 0.0 -1.0 0.0
  outer loop
    vertex 48.94208237457088 34.100000046325796 4.939340091430664
    vertex 52.88142220442012 34.100000046325796 4.999999987376214e-07
    vertex 49.180460422513995 34.100000046325796 5.250000453674317
  endloop
endfacet
facet normal 0.0 -1.0 0.0
  outer loop
    vertex 49.180460422513995 34.100000046325796 5.250000453674317
    vertex 52.88142220442012 34.100000046325796 4.999999987376214e-07
    vertex 52.88142220442012 34.100000046325796 12.000000453674318
  endloop
endfacet
facet normal 0.0 -1.0 0.0
  outer loop
    vertex 42.88142225074581 34.100000046325796 4.999999987376214e-07
    vertex 48.94208237457088 34.100000046325796 4.939340091430664
    vertex 48.63142225074581 34.100000046325796 4.700962520324708
  endloop
endfacet
facet normal 0.0 -1.0 0.0
  outer loop
    vertex 42.88142225074581 34.100000046325796 4.999999987376214e-07
    vertex 48.63142225074581 34.100000046325796 4.700962520324708
    vertex 48.26965066718868 34.100000046325796 4.551111674987793
  endloop
endfacet
facet normal 0.0 -1.0 0.0
  outer loop
    vertex 42.88142225074581 34.100000046325796 4.999999987376214e-07
    vertex 48.26965066718868 34.100000046325796 4.551111674987793
    vertex 47.88142225074581 34.100000046325796 4.500000453674317
  endloop
endfacet
facet normal 0.0 -1.0 0.0
  outer loop
    vertex 49.180460422513995 34.100000046325796 5.250000453674317
    vertex 52.88142220442012 34.100000046325796 12.000000453674318
    vertex 49.33031102943233 34.100000046325796 5.611772037231447
  endloop
endfacet
facet normal 0.0 -1.0 0.0
  outer loop
    vertex 49.33031102943233 34.100000046325796 5.611772037231447
    vertex 52.88142220442012 34.100000046325796 12.000000453674318
    vertex 49.38142225074581 34.100000046325796 6.000000453674317
  endloop
endfacet
facet normal 0.0 -1.0 0.0
  outer loop
    vertex 49.38142225074581 34.100000046325796 6.000000453674317
    vertex 52.88142220442012 34.100000046325796 12.000000453674318
    vertex 49.33031102943233 34.100000046325796 6.388228870117188
  endloop
endfacet
facet normal 0.0 -1.0 0.0
  outer loop
    vertex 49.33031102943233 34.100000046325796 6.388228870117188
    vertex 52.88142220442012 34.100000046325796 12.000000453674318
    vertex 49.180460422513995 34.100000046325796 6.750000453674318
  endloop
endfacet
facet normal 0.0 -1.0 0.0
  outer loop
    vertex 49.180460422513995 34.100000046325796 6.750000453674318
    vertex 52.88142220442012 34.100000046325796 12.000000453674318
    vertex 48.94208237457088 34.100000046325796 7.06066081591797
  endloop
endfacet
facet normal 0.0 -1.0 0.0
  outer loop
    vertex 48.94208237457088 34.100000046325796 7.06066081591797
    vertex 52.88142220442012 34.100000046325796 12.000000453674318
    vertex 48.63142225074581 34.100000046325796 7.299038387023927
  endloop
endfacet
facet normal 0.0 -1.0 0.0
  outer loop
    vertex 48.63142225074581 34.100000046325796 7.299038387023927
    vertex 52.88142220442012 34.100000046325796 12.000000453674318
    vertex 48.26965066718868 34.100000046325796 7.448889232360841
  endloop
endfacet
facet normal 0.0 -1.0 0.0
  outer loop
    vertex 48.26965066718868 34.100000046325796 7.448889232360841
    vertex 52.88142220442012 34.100000046325796 12.000000453674318
    vertex 47.88142225074581 34.100000046325796 7.500000453674318
  endloop
endfacet
facet normal 0.0 -1.0 0.0
  outer loop
    vertex 42.88142225074581 34.100000046325796 4.999999987376214e-07
    vertex 46.5823843173962 34.100000046325796 5.250000453674317
    vertex 42.88142225074581 34.100000046325796 12.000000453674318
  endloop
endfacet
facet normal 0.0 -1.0 0.0
  outer loop
    vertex 46.5823843173962 34.100000046325796 5.250000453674317
    vertex 42.88142225074581 34.100000046325796 4.999999987376214e-07
    vertex 46.820761888502155 34.100000046325796 4.939340091430664
  endloop
endfacet
facet normal 0.0 -1.0 0.0
  outer loop
    vertex 46.820761888502155 34.100000046325796 4.939340091430664
    vertex 42.88142225074581 34.100000046325796 4.999999987376214e-07
    vertex 47.13142225074581 34.100000046325796 4.700962520324708
  endloop
endfacet
facet normal 0.0 -1.0 0.0
  outer loop
    vertex 47.13142225074581 34.100000046325796 4.700962520324708
    vertex 42.88142225074581 34.100000046325796 4.999999987376214e-07
    vertex 47.493193834302936 34.100000046325796 4.551111674987793
  endloop
endfacet
facet normal 0.0 -1.0 0.0
  outer loop
    vertex 47.493193834302936 34.100000046325796 4.551111674987793
    vertex 42.88142225074581 34.100000046325796 4.999999987376214e-07
    vertex 47.88142225074581 34.100000046325796 4.500000453674317
  endloop
endfacet
facet normal 0.0 -1.0 0.0
  outer loop
    vertex 42.88142225074581 34.100000046325796 12.000000453674318
    vertex 46.5823843173962 34.100000046325796 5.250000453674317
    vertex 46.43253347205928 34.100000046325796 5.611772037231447
  endloop
endfacet
facet normal 0.0 -1.0 0.0
  outer loop
    vertex 42.88142225074581 34.100000046325796 12.000000453674318
    vertex 46.43253347205928 34.100000046325796 5.611772037231447
    vertex 46.38142225074581 34.100000046325796 6.000000453674317
  endloop
endfacet
facet normal 0.0 -1.0 0.0
  outer loop
    vertex 42.88142225074581 34.100000046325796 12.000000453674318
    vertex 46.38142225074581 34.100000046325796 6.000000453674317
    vertex 46.43253347205928 34.100000046325796 6.388228870117188
  endloop
endfacet
facet normal 0.0 -1.0 0.0
  outer loop
    vertex 42.88142225074581 34.100000046325796 12.000000453674318
    vertex 46.43253347205928 34.100000046325796 6.388228870117188
    vertex 46.5823843173962 34.100000046325796 6.750000453674318
  endloop
endfacet
facet normal 0.0 -1.0 0.0
  outer loop
    vertex 42.88142225074581 34.100000046325796 12.000000453674318
    vertex 46.5823843173962 34.100000046325796 6.750000453674318
    vertex 46.820761888502155 34.100000046325796 7.06066081591797
  endloop
endfacet
facet normal 0.0 -1.0 0.0
  outer loop
    vertex 42.88142225074581 34.100000046325796 12.000000453674318
    vertex 46.820761888502155 34.100000046325796 7.06066081591797
    vertex 47.13142225074581 34.100000046325796 7.299038387023927
  endloop
endfacet
facet normal 0.0 -1.0 0.0
  outer loop
    vertex 42.88142225074581 34.100000046325796 12.000000453674318
    vertex 47.13142225074581 34.100000046325796 7.299038387023927
    vertex 47.493193834302936 34.100000046325796 7.448889232360841
  endloop
endfacet
facet normal 0.0 -1.0 0.0
  outer loop
    vertex 42.88142225074581 34.100000046325796 12.000000453674318
    vertex 47.493193834302936 34.100000046325796 7.448889232360841
    vertex 47.88142225074581 34.100000046325796 7.500000453674318
  endloop
endfacet
facet normal 0.0 -1.0 0.0
  outer loop
    vertex 42.88142225074581 34.100000046325796 12.000000453674318
    vertex 47.88142225074581 34.100000046325796 7.500000453674318
    vertex 52.88142220442012 34.100000046325796 12.000000453674318
  endloop
endfacet
facet normal 1.0 0.0 0.0
  outer loop
    vertex 52.88142220442012 34.100000046325796 12.000000453674318
    vertex 52.88142220442012 39.099999999999994 4.999999987376214e-07
    vertex 52.88142220442012 39.099999999999994 12.000000453674318
  endloop
endfacet
facet normal 1.0 0.0 0.0
  outer loop
    vertex 52.88142220442012 39.099999999999994 4.999999987376214e-07
    vertex 52.88142220442012 34.100000046325796 12.000000453674318
    vertex 52.88142220442012 34.100000046325796 4.999999987376214e-07
  endloop
endfacet
facet normal 8.676819977221197e-15 1.0 0.0
  outer loop
    vertex 39.881422250745814 39.10000000000011 4.999999987376214e-07
    vertex 46.820761888502155 39.099999999999994 4.939340091430664
    vertex 52.88142220442012 39.099999999999994 4.999999987376214e-07
  endloop
endfacet
facet normal 8.676819977221197e-15 1.0 0.0
  outer loop
    vertex 46.820761888502155 39.099999999999994 4.939340091430664
    vertex 39.881422250745814 39.10000000000011 4.999999987376214e-07
    vertex 39.881422250745814 39.10000000000011 12.000000453674318
  endloop
endfacet
facet normal 8.676819977221197e-15 1.0 0.0
  outer loop
    vertex 52.88142220442012 39.099999999999994 4.999999987376214e-07
    vertex 46.820761888502155 39.099999999999994 4.939340091430664
    vertex 47.13142225074581 39.099999999999994 4.700962520324708
  endloop
endfacet
facet normal 8.676819977221197e-15 1.0 0.0
  outer loop
    vertex 52.88142220442012 39.099999999999994 4.999999987376214e-07
    vertex 47.13142225074581 39.099999999999994 4.700962520324708
    vertex 47.493193834302936 39.099999999999994 4.551111674987793
  endloop
endfacet
facet normal 8.676819977221197e-15 1.0 0.0
  outer loop
    vertex 52.88142220442012 39.099999999999994 4.999999987376214e-07
    vertex 47.493193834302936 39.099999999999994 4.551111674987793
    vertex 47.88142225074581 39.099999999999994 4.500000453674317
  endloop
endfacet
facet normal 8.676819977221197e-15 1.0 0.0
  outer loop
    vertex 46.820761888502155 39.099999999999994 4.939340091430664
    vertex 39.881422250745814 39.10000000000011 12.000000453674318
    vertex 46.5823843173962 39.099999999999994 5.250000453674317
  endloop
endfacet
facet normal 8.676819977221197e-15 1.0 0.0
  outer loop
    vertex 46.5823843173962 39.099999999999994 5.250000453674317
    vertex 39.881422250745814 39.10000000000011 12.000000453674318
    vertex 46.43253347205928 39.099999999999994 5.611772037231447
  endloop
endfacet
facet normal 8.676819977221197e-15 1.0 0.0
  outer loop
    vertex 46.43253347205928 39.099999999999994 5.611772037231447
    vertex 39.881422250745814 39.10000000000011 12.000000453674318
    vertex 46.38142225074581 39.099999999999994 6.000000453674317
  endloop
endfacet
facet normal 8.676819977221197e-15 1.0 0.0
  outer loop
    vertex 46.38142225074581 39.099999999999994 6.000000453674317
    vertex 39.881422250745814 39.10000000000011 12.000000453674318
    vertex 46.43253347205928 39.099999999999994 6.388228870117188
  endloop
endfacet
facet normal 8.676819977221197e-15 1.0 0.0
  outer loop
    vertex 46.43253347205928 39.099999999999994 6.388228870117188
    vertex 39.881422250745814 39.10000000000011 12.000000453674318
    vertex 46.5823843173962 39.099999999999994 6.750000453674318
  endloop
endfacet
facet normal 8.676819977221197e-15 1.0 0.0
  outer loop
    vertex 46.5823843173962 39.099999999999994 6.750000453674318
    vertex 39.881422250745814 39.10000000000011 12.000000453674318
    vertex 46.820761888502155 39.099999999999994 7.06066081591797
  endloop
endfacet
facet normal 8.676819977221197e-15 1.0 0.0
  outer loop
    vertex 46.820761888502155 39.099999999999994 7.06066081591797
    vertex 39.881422250745814 39.10000000000011 12.000000453674318
    vertex 47.13142225074581 39.099999999999994 7.299038387023927
  endloop
endfacet
facet normal 8.676819977221197e-15 1.0 0.0
  outer loop
    vertex 47.13142225074581 39.099999999999994 7.299038387023927
    vertex 39.881422250745814 39.10000000000011 12.000000453674318
    vertex 47.493193834302936 39.099999999999994 7.448889232360841
  endloop
endfacet
facet normal 8.676819977221197e-15 1.0 0.0
  outer loop
    vertex 47.493193834302936 39.099999999999994 7.448889232360841
    vertex 39.881422250745814 39.10000000000011 12.000000453674318
    vertex 47.88142225074581 39.099999999999994 7.500000453674318
  endloop
endfacet
facet normal 8.676819977221197e-15 1.0 0.0
  outer loop
    vertex 52.88142220442012 39.099999999999994 4.999999987376214e-07
    vertex 49.180460422513995 39.099999999999994 5.250000453674317
    vertex 52.88142220442012 39.099999999999994 12.000000453674318
  endloop
endfacet
facet normal 8.676819977221197e-15 1.0 0.0
  outer loop
    vertex 49.180460422513995 39.099999999999994 5.250000453674317
    vertex 52.88142220442012 39.099999999999994 4.999999987376214e-07
    vertex 48.94208237457088 39.099999999999994 4.939340091430664
  endloop
endfacet
facet normal 8.676819977221197e-15 1.0 0.0
  outer loop
    vertex 48.94208237457088 39.099999999999994 4.939340091430664
    vertex 52.88142220442012 39.099999999999994 4.999999987376214e-07
    vertex 48.63142225074581 39.099999999999994 4.700962520324708
  endloop
endfacet
facet normal 8.676819977221197e-15 1.0 0.0
  outer loop
    vertex 48.63142225074581 39.099999999999994 4.700962520324708
    vertex 52.88142220442012 39.099999999999994 4.999999987376214e-07
    vertex 48.26965066718868 39.099999999999994 4.551111674987793
  endloop
endfacet
facet normal 8.676819977221197e-15 1.0 0.0
  outer loop
    vertex 48.26965066718868 39.099999999999994 4.551111674987793
    vertex 52.88142220442012 39.099999999999994 4.999999987376214e-07
    vertex 47.88142225074581 39.099999999999994 4.500000453674317
  endloop
endfacet
facet normal 8.676819977221197e-15 1.0 0.0
  outer loop
    vertex 52.88142220442012 39.099999999999994 12.000000453674318
    vertex 49.180460422513995 39.099999999999994 5.250000453674317
    vertex 49.33031102943233 39.099999999999994 5.611772037231447
  endloop
endfacet
facet normal 8.676819977221197e-15 1.0 0.0
  outer loop
    vertex 52.88142220442012 39.099999999999994 12.000000453674318
    vertex 49.33031102943233 39.099999999999994 5.611772037231447
    vertex 49.38142225074581 39.099999999999994 6.000000453674317
  endloop
endfacet
facet normal 8.676819977221197e-15 1.0 0.0
  outer loop
    vertex 52.88142220442012 39.099999999999994 12.000000453674318
    vertex 49.38142225074581 39.099999999999994 6.000000453674317
    vertex 49.33031102943233 39.099999999999994 6.388228870117188
  endloop
endfacet
facet normal 8.676819977221197e-15 1.0 0.0
  outer loop
    vertex 52.88142220442012 39.099999999999994 12.000000453674318
    vertex 49.33031102943233 39.099999999999994 6.388228870117188
    vertex 49.180460422513995 39.099999999999994 6.750000453674318
  endloop
endfacet
facet normal 8.676819977221197e-15 1.0 0.0
  outer loop
    vertex 52.88142220442012 39.099999999999994 12.000000453674318
    vertex 49.180460422513995 39.099999999999994 6.750000453674318
    vertex 48.94208237457088 39.099999999999994 7.06066081591797
  endloop
endfacet
facet normal 8.676819977221197e-15 1.0 0.0
  outer loop
    vertex 52.88142220442012 39.099999999999994 12.000000453674318
    vertex 48.94208237457088 39.099999999999994 7.06066081591797
    vertex 48.63142225074581 39.099999999999994 7.299038387023927
  endloop
endfacet
facet normal 8.676819977221197e-15 1.0 0.0
  outer loop
    vertex 52.88142220442012 39.099999999999994 12.000000453674318
    vertex 48.63142225074581 39.099999999999994 7.299038387023927
    vertex 48.26965066718868 39.099999999999994 7.448889232360841
  endloop
endfacet
facet normal 8.676819977221197e-15 1.0 0.0
  outer loop
    vertex 52.88142220442012 39.099999999999994 12.000000453674318
    vertex 48.26965066718868 39.099999999999994 7.448889232360841
    vertex 47.88142225074581 39.099999999999994 7.500000453674318
  endloop
endfacet
facet normal 8.676819977221197e-15 1.0 0.0
  outer loop
    vertex 52.88142220442012 39.099999999999994 12.000000453674318
    vertex 47.88142225074581 39.099999999999994 7.500000453674318
    vertex 39.881422250745814 39.10000000000011 12.000000453674318
  endloop
endfacet
facet normal -0.7071067729972444 0.7071067893758505 5.495664443342974e-18
  outer loop
    vertex 37.8814222507458 37.100000046325796 12.000000453674318
    vertex 39.881422250745814 39.10000000000011 4.999999987376214e-07
    vertex 37.8814222507458 37.100000046325796 4.999999987376214e-07
  endloop
endfacet
facet normal -0.7071067729972444 0.7071067893758505 5.495664443342974e-18
  outer loop
    vertex 39.881422250745814 39.10000000000011 4.999999987376214e-07
    vertex 37.8814222507458 37.100000046325796 12.000000453674318
    vertex 39.881422250745814 39.10000000000011 12.000000453674318
  endloop
endfacet
facet normal -2.079512642058238e-09 -1.4114249812923986e-08 -1.0
  outer loop
    vertex 42.88142225074581 34.100000046325796 4.999999987376214e-07
    vertex 52.88142220442012 39.099999999999994 4.999999987376214e-07
    vertex 52.88142220442012 34.100000046325796 4.999999987376214e-07
  endloop
endfacet
facet normal -2.079512642058238e-09 -1.4114249812923986e-08 -1.0
  outer loop
    vertex 52.88142220442012 39.099999999999994 4.999999987376214e-07
    vertex 42.88142225074581 34.100000046325796 4.999999987376214e-07
    vertex 39.881422250745814 39.10000000000011 4.999999987376214e-07
  endloop
endfacet
facet normal -2.079512642058238e-09 -1.4114249812923986e-08 -1.0
  outer loop
    vertex 42.88142225074581 0.07469972824389134 9.999999974752427e-07
    vertex 37.8814222507458 11.074699728243887 9.999999974752427e-07
    vertex 42.88142225074581 34.100000046325796 4.999999987376214e-07
  endloop
endfacet
facet normal -2.079512642058238e-09 -1.4114249812923986e-08 -1.0
  outer loop
    vertex 37.8814222507458 11.074699728243887 9.999999974752427e-07
    vertex 42.88142225074581 0.07469972824389134 9.999999974752427e-07
    vertex 31.88142129707149 0.07469972824389134 9.999999974752427e-07
  endloop
endfacet
facet normal -2.079512642058238e-09 -1.4114249812923986e-08 -1.0
  outer loop
    vertex 42.88142225074581 34.100000046325796 4.999999987376214e-07
    vertex 37.8814222507458 11.074699728243887 9.999999974752427e-07
    vertex 39.881422250745814 39.10000000000011 4.999999987376214e-07
  endloop
endfacet
facet normal -2.079512642058238e-09 -1.4114249812923986e-08 -1.0
  outer loop
    vertex 37.8814222507458 11.074699728243887 9.999999974752427e-07
    vertex 31.88142129707149 0.07469972824389134 9.999999974752427e-07
    vertex 31.88142129707149 5.074699728243888 9.999999974752427e-07
  endloop
endfacet
facet normal -2.079512642058238e-09 -1.4114249812923986e-08 -1.0
  outer loop
    vertex 37.8814222507458 37.100000046325796 4.999999987376214e-07
    vertex 39.881422250745814 39.10000000000011 4.999999987376214e-07
    vertex 37.8814222507458 11.074699728243887 9.999999974752427e-07
  endloop
endfacet
facet normal 1.3671466189245033e-09 1.8762833985360072e-08 0.9999999999999998
  outer loop
    vertex 39.881422250745814 39.10000000000011 12.000000453674318
    vertex 52.88142220442012 34.100000046325796 12.000000453674318
    vertex 52.88142220442012 39.099999999999994 12.000000453674318
  endloop
endfacet
facet normal 1.3671466189245033e-09 1.8762833985360072e-08 0.9999999999999998
  outer loop
    vertex 52.88142220442012 34.100000046325796 12.000000453674318
    vertex 39.881422250745814 39.10000000000011 12.000000453674318
    vertex 42.88142225074581 34.100000046325796 12.000000453674318
  endloop
endfacet
facet normal 1.3671466189245033e-09 1.8762833985360072e-08 0.9999999999999998
  outer loop
    vertex 42.88142225074581 34.100000046325796 12.000000453674318
    vertex 39.881422250745814 39.10000000000011 12.000000453674318
    vertex 42.88142225074581 11.074699728243887 12.000000953674316
  endloop
endfacet
facet normal 1.3671466189245033e-09 1.8762833985360072e-08 0.9999999999999998
  outer loop
    vertex 42.88142225074581 11.074699728243887 12.000000953674316
    vertex 39.881422250745814 39.10000000000011 12.000000453674318
    vertex 37.8814222507458 11.074699728243887 12.000000953674316
  endloop
endfacet
facet normal 1.3671466189245033e-09 1.8762833985360072e-08 0.9999999999999998
  outer loop
    vertex 37.8814222507458 11.074699728243887 12.000000953674316
    vertex 39.881422250745814 39.10000000000011 12.000000453674318
    vertex 37.8814222507458 37.100000046325796 12.000000453674318
  endloop
endfacet
endsolid motor_mount
